<?xml version="1.0" encoding="UTF-8" standalone="no"?>
<!DOCTYPE svg PUBLIC "-//W3C//DTD SVG 1.1//EN" "http://www.w3.org/Graphics/SVG/1.1/DTD/svg11.dtd">
<svg version="1.1" xmlns="http://www.w3.org/2000/svg" xmlns:xlink="http://www.w3.org/1999/xlink" xmlns:ev="http://www.w3.org/2001/xml-events" width="705" height="330" viewBox="-48 -272 705 330" preserveAspectRatio="none">
<style type="text/css"><![CDATA[
line { stroke-width:1px; }
line.axes { stroke:#505050; }
line.grid { stroke:#D8D8D8; }
rect.bg { fill:#FFFFFF; }
text { font-family:arial,sans-serif; font-size:12px; fill:#000000; }
]]></style>
<defs>
<g id="hintbox"><rect x="0" y="0" width="77" height="34" style="stroke:#505050; stroke-width:1px; fill:rgba(255,255,255,0.87);" /><text id="hint0" x="4" y="14"> </text><text x="7" y="28"></text><text id="hint1" x="73" y="28" style="text-anchor:end;"> </text></g>
<g id="hintline"><line x1="0" y1="-238" x2="0" y2="0" class="axes" style="stroke-dasharray:2 1" /></g>
</defs>
<script><![CDATA[
function shb(x,y,dat) {
ar=dat.split(' '); for (i=0; i<ar.length; ++i) { if (i&&ar[i]) ar[i]+=' грн.'; h=document.getElementById('hint'+i); h.textContent=ar[i]; }
u=document.getElementById('usebox'); u.setAttribute('x',x); u.setAttribute('y',y); u.setAttribute('style','visibility:visible;'); }
function hhb() { u=document.getElementById('usebox'); u.setAttribute('style','visibility:hidden;'); u.setAttribute('x','0'); u.setAttribute('y','0'); }
function shl(x) { u=document.getElementById('useline'); u.setAttribute('x',x); u.setAttribute('style','visibility:visible;'); }
function hhl() { u=document.getElementById('useline'); u.setAttribute('style','visibility:hidden;'); u.setAttribute('x','0'); }
function sh(xl,xb,y,dat) { shl(xl); shb(xb,y,dat); }
function hh() { hhb(); hhl(); }
]]></script>
<rect x="-48" y="-272" width="705" height="330" class="bg" />
<line x1="17" y1="0" x2="17" y2="4" class="axes" /><text x="22" y="8" transform="rotate(-90,22,8)" style="text-anchor:end;">04.2017</text><line x1="44" y1="0" x2="44" y2="4" class="axes" /><text x="49" y="8" transform="rotate(-90,49,8)" style="text-anchor:end;">07.2017</text><line x1="71" y1="0" x2="71" y2="4" class="axes" /><text x="76" y="8" transform="rotate(-90,76,8)" style="text-anchor:end;">10.2017</text><line x1="98" y1="0" x2="98" y2="4" class="axes" /><text x="103" y="8" transform="rotate(-90,103,8)" style="text-anchor:end;">01.2018</text><line x1="125" y1="0" x2="125" y2="4" class="axes" /><text x="130" y="8" transform="rotate(-90,130,8)" style="text-anchor:end;">04.2018</text><line x1="152" y1="0" x2="152" y2="4" class="axes" /><text x="157" y="8" transform="rotate(-90,157,8)" style="text-anchor:end;">07.2018</text><line x1="179" y1="0" x2="179" y2="4" class="axes" /><text x="184" y="8" transform="rotate(-90,184,8)" style="text-anchor:end;">10.2018</text><line x1="206" y1="0" x2="206" y2="4" class="axes" /><text x="211" y="8" transform="rotate(-90,211,8)" style="text-anchor:end;">01.2019</text><line x1="233" y1="0" x2="233" y2="4" class="axes" /><text x="238" y="8" transform="rotate(-90,238,8)" style="text-anchor:end;">04.2019</text><line x1="260" y1="0" x2="260" y2="4" class="axes" /><text x="265" y="8" transform="rotate(-90,265,8)" style="text-anchor:end;">07.2019</text><line x1="287" y1="0" x2="287" y2="4" class="axes" /><text x="292" y="8" transform="rotate(-90,292,8)" style="text-anchor:end;">10.2019</text><line x1="314" y1="0" x2="314" y2="4" class="axes" /><text x="319" y="8" transform="rotate(-90,319,8)" style="text-anchor:end;">01.2020</text><line x1="341" y1="0" x2="341" y2="4" class="axes" /><text x="346" y="8" transform="rotate(-90,346,8)" style="text-anchor:end;">04.2020</text><line x1="368" y1="0" x2="368" y2="4" class="axes" /><text x="373" y="8" transform="rotate(-90,373,8)" style="text-anchor:end;">07.2020</text><line x1="395" y1="0" x2="395" y2="4" class="axes" /><text x="400" y="8" transform="rotate(-90,400,8)" style="text-anchor:end;">10.2020</text><line x1="422" y1="0" x2="422" y2="4" class="axes" /><text x="427" y="8" transform="rotate(-90,427,8)" style="text-anchor:end;">01.2021</text><line x1="431" y1="0" x2="431" y2="4" class="axes" /><text x="436" y="8" transform="rotate(-90,436,8)" style="text-anchor:end;">04.2021</text><line x1="449" y1="0" x2="449" y2="4" class="axes" /><text x="454" y="8" transform="rotate(-90,454,8)" style="text-anchor:end;">07.2021</text><line x1="467" y1="0" x2="467" y2="4" class="axes" /><text x="472" y="8" transform="rotate(-90,472,8)" style="text-anchor:end;">10.2021</text><line x1="494" y1="0" x2="494" y2="4" class="axes" /><text x="499" y="8" transform="rotate(-90,499,8)" style="text-anchor:end;">01.2022</text><line x1="521" y1="0" x2="521" y2="4" class="axes" /><text x="526" y="8" transform="rotate(-90,526,8)" style="text-anchor:end;">04.2022</text><line x1="566" y1="0" x2="566" y2="4" class="axes" /><text x="571" y="8" transform="rotate(-90,571,8)" style="text-anchor:end;">10.2022</text><line x1="593" y1="0" x2="593" y2="4" class="axes" /><text x="598" y="8" transform="rotate(-90,598,8)" style="text-anchor:end;">01.2023</text><line x1="620" y1="0" x2="620" y2="4" class="axes" /><text x="625" y="8" transform="rotate(-90,625,8)" style="text-anchor:end;">04.2023</text>
<line x1="0" y1="-17" x2="645" y2="-17" class="grid" /><line x1="0" y1="-17" x2="-4" y2="-17" class="axes" /><text x="-8" y="-13" style="text-anchor:end;">6</text><line x1="0" y1="-34" x2="645" y2="-34" class="grid" /><line x1="0" y1="-34" x2="-4" y2="-34" class="axes" /><text x="-8" y="-30" style="text-anchor:end;">8</text><line x1="0" y1="-51" x2="645" y2="-51" class="grid" /><line x1="0" y1="-51" x2="-4" y2="-51" class="axes" /><text x="-8" y="-47" style="text-anchor:end;">10</text><line x1="0" y1="-68" x2="645" y2="-68" class="grid" /><line x1="0" y1="-68" x2="-4" y2="-68" class="axes" /><text x="-8" y="-64" style="text-anchor:end;">12</text><line x1="0" y1="-85" x2="645" y2="-85" class="grid" /><line x1="0" y1="-85" x2="-4" y2="-85" class="axes" /><text x="-8" y="-81" style="text-anchor:end;">14</text><line x1="0" y1="-102" x2="645" y2="-102" class="grid" /><line x1="0" y1="-102" x2="-4" y2="-102" class="axes" /><text x="-8" y="-98" style="text-anchor:end;">16</text><line x1="0" y1="-119" x2="645" y2="-119" class="grid" /><line x1="0" y1="-119" x2="-4" y2="-119" class="axes" /><text x="-8" y="-115" style="text-anchor:end;">18</text><line x1="0" y1="-136" x2="645" y2="-136" class="grid" /><line x1="0" y1="-136" x2="-4" y2="-136" class="axes" /><text x="-8" y="-132" style="text-anchor:end;">20</text><line x1="0" y1="-153" x2="645" y2="-153" class="grid" /><line x1="0" y1="-153" x2="-4" y2="-153" class="axes" /><text x="-8" y="-149" style="text-anchor:end;">22</text><line x1="0" y1="-170" x2="645" y2="-170" class="grid" /><line x1="0" y1="-170" x2="-4" y2="-170" class="axes" /><text x="-8" y="-166" style="text-anchor:end;">24</text><line x1="0" y1="-187" x2="645" y2="-187" class="grid" /><line x1="0" y1="-187" x2="-4" y2="-187" class="axes" /><text x="-8" y="-183" style="text-anchor:end;">26</text><line x1="0" y1="-204" x2="645" y2="-204" class="grid" /><line x1="0" y1="-204" x2="-4" y2="-204" class="axes" /><text x="-8" y="-200" style="text-anchor:end;">28</text><line x1="0" y1="-221" x2="645" y2="-221" class="grid" /><line x1="0" y1="-221" x2="-4" y2="-221" class="axes" /><text x="-8" y="-217" style="text-anchor:end;">30</text><line x1="0" y1="-238" x2="645" y2="-238" class="grid" /><line x1="0" y1="-238" x2="-4" y2="-238" class="axes" /><text x="-8" y="-234" style="text-anchor:end;">32</text>
<use xlink:href="#hintline" id="useline" x="0" style="visibility:hidden;" />
<rect x="5" y="-238" width="6" height="238" style="fill:transparent;" onmouseover="sh(8,8,-244,'01.03.2017 9,95');" onmouseout="hh();" /><rect x="5" y="-51" width="6" height="51" style="fill:#0080C0;" onmouseover="sh(8,8,-244,'01.03.2017 9,95');" onmouseout="hh();" /><rect x="14" y="-238" width="6" height="238" style="fill:transparent;" onmouseover="sh(17,17,-244,'01.04.2017 10,26');" onmouseout="hh();" /><rect x="14" y="-53" width="6" height="53" style="fill:#0080C0;" onmouseover="sh(17,17,-244,'01.04.2017 10,26');" onmouseout="hh();" /><rect x="23" y="-238" width="6" height="238" style="fill:transparent;" onmouseover="sh(26,26,-244,'01.05.2017 10,50');" onmouseout="hh();" /><rect x="23" y="-55" width="6" height="55" style="fill:#0080C0;" onmouseover="sh(26,26,-244,'01.05.2017 10,50');" onmouseout="hh();" /><rect x="32" y="-238" width="6" height="238" style="fill:transparent;" onmouseover="sh(35,35,-244,'01.06.2017 10,50');" onmouseout="hh();" /><rect x="32" y="-55" width="6" height="55" style="fill:#0080C0;" onmouseover="sh(35,35,-244,'01.06.2017 10,50');" onmouseout="hh();" /><rect x="41" y="-238" width="6" height="238" style="fill:transparent;" onmouseover="sh(44,44,-244,'01.07.2017 10,50');" onmouseout="hh();" /><rect x="41" y="-55" width="6" height="55" style="fill:#0080C0;" onmouseover="sh(44,44,-244,'01.07.2017 10,50');" onmouseout="hh();" /><rect x="50" y="-238" width="6" height="238" style="fill:transparent;" onmouseover="sh(53,53,-244,'01.08.2017 10,50');" onmouseout="hh();" /><rect x="50" y="-55" width="6" height="55" style="fill:#0080C0;" onmouseover="sh(53,53,-244,'01.08.2017 10,50');" onmouseout="hh();" /><rect x="59" y="-238" width="6" height="238" style="fill:transparent;" onmouseover="sh(62,62,-244,'01.09.2017 10,50');" onmouseout="hh();" /><rect x="59" y="-55" width="6" height="55" style="fill:#0080C0;" onmouseover="sh(62,62,-244,'01.09.2017 10,50');" onmouseout="hh();" /><rect x="68" y="-238" width="6" height="238" style="fill:transparent;" onmouseover="sh(71,71,-244,'01.10.2017 10,50');" onmouseout="hh();" /><rect x="68" y="-55" width="6" height="55" style="fill:#0080C0;" onmouseover="sh(71,71,-244,'01.10.2017 10,50');" onmouseout="hh();" /><rect x="77" y="-238" width="6" height="238" style="fill:transparent;" onmouseover="sh(80,80,-244,'01.11.2017 10,50');" onmouseout="hh();" /><rect x="77" y="-55" width="6" height="55" style="fill:#0080C0;" onmouseover="sh(80,80,-244,'01.11.2017 10,50');" onmouseout="hh();" /><rect x="86" y="-238" width="6" height="238" style="fill:transparent;" onmouseover="sh(89,89,-244,'01.12.2017 10,50');" onmouseout="hh();" /><rect x="86" y="-55" width="6" height="55" style="fill:#0080C0;" onmouseover="sh(89,89,-244,'01.12.2017 10,50');" onmouseout="hh();" /><rect x="95" y="-238" width="6" height="238" style="fill:transparent;" onmouseover="sh(98,98,-244,'01.01.2018 10,79');" onmouseout="hh();" /><rect x="95" y="-58" width="6" height="58" style="fill:#0080C0;" onmouseover="sh(98,98,-244,'01.01.2018 10,79');" onmouseout="hh();" /><rect x="104" y="-238" width="6" height="238" style="fill:transparent;" onmouseover="sh(107,107,-244,'01.02.2018 11,20');" onmouseout="hh();" /><rect x="104" y="-61" width="6" height="61" style="fill:#0080C0;" onmouseover="sh(107,107,-244,'01.02.2018 11,20');" onmouseout="hh();" /><rect x="113" y="-238" width="6" height="238" style="fill:transparent;" onmouseover="sh(116,116,-244,'01.03.2018 11,40');" onmouseout="hh();" /><rect x="113" y="-63" width="6" height="63" style="fill:#0080C0;" onmouseover="sh(116,116,-244,'01.03.2018 11,40');" onmouseout="hh();" /><rect x="122" y="-238" width="6" height="238" style="fill:transparent;" onmouseover="sh(125,125,-244,'01.04.2018 11,90');" onmouseout="hh();" /><rect x="122" y="-67" width="6" height="67" style="fill:#0080C0;" onmouseover="sh(125,125,-244,'01.04.2018 11,90');" onmouseout="hh();" /><rect x="131" y="-238" width="6" height="238" style="fill:transparent;" onmouseover="sh(134,134,-244,'01.05.2018 11,90');" onmouseout="hh();" /><rect x="131" y="-67" width="6" height="67" style="fill:#0080C0;" onmouseover="sh(134,134,-244,'01.05.2018 11,90');" onmouseout="hh();" /><rect x="140" y="-238" width="6" height="238" style="fill:transparent;" onmouseover="sh(143,143,-244,'01.06.2018 11,90');" onmouseout="hh();" /><rect x="140" y="-67" width="6" height="67" style="fill:#0080C0;" onmouseover="sh(143,143,-244,'01.06.2018 11,90');" onmouseout="hh();" /><rect x="149" y="-238" width="6" height="238" style="fill:transparent;" onmouseover="sh(152,152,-244,'01.07.2018 12,28');" onmouseout="hh();" /><rect x="149" y="-70" width="6" height="70" style="fill:#0080C0;" onmouseover="sh(152,152,-244,'01.07.2018 12,28');" onmouseout="hh();" /><rect x="158" y="-238" width="6" height="238" style="fill:transparent;" onmouseover="sh(161,161,-244,'01.08.2018 12,90');" onmouseout="hh();" /><rect x="158" y="-76" width="6" height="76" style="fill:#0080C0;" onmouseover="sh(161,161,-244,'01.08.2018 12,90');" onmouseout="hh();" /><rect x="167" y="-238" width="6" height="238" style="fill:transparent;" onmouseover="sh(170,170,-244,'01.09.2018 12,90');" onmouseout="hh();" /><rect x="167" y="-76" width="6" height="76" style="fill:#0080C0;" onmouseover="sh(170,170,-244,'01.09.2018 12,90');" onmouseout="hh();" /><rect x="176" y="-238" width="6" height="238" style="fill:transparent;" onmouseover="sh(179,179,-244,'01.10.2018 13,54');" onmouseout="hh();" /><rect x="176" y="-81" width="6" height="81" style="fill:#0080C0;" onmouseover="sh(179,179,-244,'01.10.2018 13,54');" onmouseout="hh();" /><rect x="185" y="-238" width="6" height="238" style="fill:transparent;" onmouseover="sh(188,188,-244,'01.11.2018 13,90');" onmouseout="hh();" /><rect x="185" y="-84" width="6" height="84" style="fill:#0080C0;" onmouseover="sh(188,188,-244,'01.11.2018 13,90');" onmouseout="hh();" /><rect x="194" y="-238" width="6" height="238" style="fill:transparent;" onmouseover="sh(197,197,-244,'01.12.2018 13,90');" onmouseout="hh();" /><rect x="194" y="-84" width="6" height="84" style="fill:#0080C0;" onmouseover="sh(197,197,-244,'01.12.2018 13,90');" onmouseout="hh();" /><rect x="203" y="-238" width="6" height="238" style="fill:transparent;" onmouseover="sh(206,206,-244,'01.01.2019 13,90');" onmouseout="hh();" /><rect x="203" y="-84" width="6" height="84" style="fill:#0080C0;" onmouseover="sh(206,206,-244,'01.01.2019 13,90');" onmouseout="hh();" /><rect x="212" y="-238" width="6" height="238" style="fill:transparent;" onmouseover="sh(215,215,-244,'01.02.2019 14,71');" onmouseout="hh();" /><rect x="212" y="-91" width="6" height="91" style="fill:#0080C0;" onmouseover="sh(215,215,-244,'01.02.2019 14,71');" onmouseout="hh();" /><rect x="221" y="-238" width="6" height="238" style="fill:transparent;" onmouseover="sh(224,224,-244,'01.03.2019 15,06');" onmouseout="hh();" /><rect x="221" y="-94" width="6" height="94" style="fill:#0080C0;" onmouseover="sh(224,224,-244,'01.03.2019 15,06');" onmouseout="hh();" /><rect x="230" y="-238" width="6" height="238" style="fill:transparent;" onmouseover="sh(233,233,-244,'01.04.2019 15,90');" onmouseout="hh();" /><rect x="230" y="-101" width="6" height="101" style="fill:#0080C0;" onmouseover="sh(233,233,-244,'01.04.2019 15,90');" onmouseout="hh();" /><rect x="239" y="-238" width="6" height="238" style="fill:transparent;" onmouseover="sh(242,242,-244,'01.05.2019 15,90');" onmouseout="hh();" /><rect x="239" y="-101" width="6" height="101" style="fill:#0080C0;" onmouseover="sh(242,242,-244,'01.05.2019 15,90');" onmouseout="hh();" /><rect x="248" y="-238" width="6" height="238" style="fill:transparent;" onmouseover="sh(251,251,-244,'01.06.2019 15,90');" onmouseout="hh();" /><rect x="248" y="-101" width="6" height="101" style="fill:#0080C0;" onmouseover="sh(251,251,-244,'01.06.2019 15,90');" onmouseout="hh();" /><rect x="257" y="-238" width="6" height="238" style="fill:transparent;" onmouseover="sh(260,260,-244,'01.07.2019 15,43');" onmouseout="hh();" /><rect x="257" y="-97" width="6" height="97" style="fill:#0080C0;" onmouseover="sh(260,260,-244,'01.07.2019 15,43');" onmouseout="hh();" /><rect x="266" y="-238" width="6" height="238" style="fill:transparent;" onmouseover="sh(269,269,-244,'01.08.2019 14,00');" onmouseout="hh();" /><rect x="266" y="-85" width="6" height="85" style="fill:#0080C0;" onmouseover="sh(269,269,-244,'01.08.2019 14,00');" onmouseout="hh();" /><rect x="275" y="-238" width="6" height="238" style="fill:transparent;" onmouseover="sh(278,278,-244,'01.09.2019 13,90');" onmouseout="hh();" /><rect x="275" y="-84" width="6" height="84" style="fill:#0080C0;" onmouseover="sh(278,278,-244,'01.09.2019 13,90');" onmouseout="hh();" /><rect x="284" y="-238" width="6" height="238" style="fill:transparent;" onmouseover="sh(287,287,-244,'01.10.2019 13,75');" onmouseout="hh();" /><rect x="284" y="-83" width="6" height="83" style="fill:#0080C0;" onmouseover="sh(287,287,-244,'01.10.2019 13,75');" onmouseout="hh();" /><rect x="293" y="-238" width="6" height="238" style="fill:transparent;" onmouseover="sh(296,296,-244,'01.11.2019 13,70');" onmouseout="hh();" /><rect x="293" y="-82" width="6" height="82" style="fill:#0080C0;" onmouseover="sh(296,296,-244,'01.11.2019 13,70');" onmouseout="hh();" /><rect x="302" y="-238" width="6" height="238" style="fill:transparent;" onmouseover="sh(305,305,-244,'01.12.2019 14,52');" onmouseout="hh();" /><rect x="302" y="-89" width="6" height="89" style="fill:#0080C0;" onmouseover="sh(305,305,-244,'01.12.2019 14,52');" onmouseout="hh();" /><rect x="311" y="-238" width="6" height="238" style="fill:transparent;" onmouseover="sh(314,314,-244,'01.01.2020 15,30');" onmouseout="hh();" /><rect x="311" y="-96" width="6" height="96" style="fill:#0080C0;" onmouseover="sh(314,314,-244,'01.01.2020 15,30');" onmouseout="hh();" /><rect x="320" y="-238" width="6" height="238" style="fill:transparent;" onmouseover="sh(323,323,-244,'01.02.2020 14,32');" onmouseout="hh();" /><rect x="320" y="-88" width="6" height="88" style="fill:#0080C0;" onmouseover="sh(323,323,-244,'01.02.2020 14,32');" onmouseout="hh();" /><rect x="329" y="-238" width="6" height="238" style="fill:transparent;" onmouseover="sh(332,332,-244,'01.03.2020 15,63');" onmouseout="hh();" /><rect x="329" y="-99" width="6" height="99" style="fill:#0080C0;" onmouseover="sh(332,332,-244,'01.03.2020 15,63');" onmouseout="hh();" /><rect x="338" y="-238" width="6" height="238" style="fill:transparent;" onmouseover="sh(341,341,-244,'01.04.2020 16,58');" onmouseout="hh();" /><rect x="338" y="-107" width="6" height="107" style="fill:#0080C0;" onmouseover="sh(341,341,-244,'01.04.2020 16,58');" onmouseout="hh();" /><rect x="347" y="-238" width="6" height="238" style="fill:transparent;" onmouseover="sh(350,350,-244,'01.05.2020 16,10');" onmouseout="hh();" /><rect x="347" y="-103" width="6" height="103" style="fill:#0080C0;" onmouseover="sh(350,350,-244,'01.05.2020 16,10');" onmouseout="hh();" /><rect x="356" y="-238" width="6" height="238" style="fill:transparent;" onmouseover="sh(359,359,-244,'01.06.2020 15,70');" onmouseout="hh();" /><rect x="356" y="-99" width="6" height="99" style="fill:#0080C0;" onmouseover="sh(359,359,-244,'01.06.2020 15,70');" onmouseout="hh();" /><rect x="365" y="-238" width="6" height="238" style="fill:transparent;" onmouseover="sh(368,368,-244,'01.07.2020 15,99');" onmouseout="hh();" /><rect x="365" y="-102" width="6" height="102" style="fill:#0080C0;" onmouseover="sh(368,368,-244,'01.07.2020 15,99');" onmouseout="hh();" /><rect x="374" y="-238" width="6" height="238" style="fill:transparent;" onmouseover="sh(377,377,-244,'01.08.2020 15,90');" onmouseout="hh();" /><rect x="374" y="-101" width="6" height="101" style="fill:#0080C0;" onmouseover="sh(377,377,-244,'01.08.2020 15,90');" onmouseout="hh();" /><rect x="383" y="-238" width="6" height="238" style="fill:transparent;" onmouseover="sh(386,386,-244,'01.09.2020 16,10');" onmouseout="hh();" /><rect x="383" y="-103" width="6" height="103" style="fill:#0080C0;" onmouseover="sh(386,386,-244,'01.09.2020 16,10');" onmouseout="hh();" /><rect x="392" y="-238" width="6" height="238" style="fill:transparent;" onmouseover="sh(395,395,-244,'01.10.2020 15,90');" onmouseout="hh();" /><rect x="392" y="-101" width="6" height="101" style="fill:#0080C0;" onmouseover="sh(395,395,-244,'01.10.2020 15,90');" onmouseout="hh();" /><rect x="401" y="-238" width="6" height="238" style="fill:transparent;" onmouseover="sh(404,404,-244,'01.11.2020 15,90');" onmouseout="hh();" /><rect x="401" y="-101" width="6" height="101" style="fill:#0080C0;" onmouseover="sh(404,404,-244,'01.11.2020 15,90');" onmouseout="hh();" /><rect x="410" y="-238" width="6" height="238" style="fill:transparent;" onmouseover="sh(413,413,-244,'01.12.2020 16,30');" onmouseout="hh();" /><rect x="410" y="-105" width="6" height="105" style="fill:#0080C0;" onmouseover="sh(413,413,-244,'01.12.2020 16,30');" onmouseout="hh();" /><rect x="419" y="-238" width="6" height="238" style="fill:transparent;" onmouseover="sh(422,422,-244,'01.01.2021 16,30');" onmouseout="hh();" /><rect x="419" y="-105" width="6" height="105" style="fill:#0080C0;" onmouseover="sh(422,422,-244,'01.01.2021 16,30');" onmouseout="hh();" /><rect x="428" y="-238" width="6" height="238" style="fill:transparent;" onmouseover="sh(431,431,-244,'01.04.2021 17,90');" onmouseout="hh();" /><rect x="428" y="-118" width="6" height="118" style="fill:#0080C0;" onmouseover="sh(431,431,-244,'01.04.2021 17,90');" onmouseout="hh();" /><rect x="437" y="-238" width="6" height="238" style="fill:transparent;" onmouseover="sh(440,440,-244,'01.05.2021 17,90');" onmouseout="hh();" /><rect x="437" y="-118" width="6" height="118" style="fill:#0080C0;" onmouseover="sh(440,440,-244,'01.05.2021 17,90');" onmouseout="hh();" /><rect x="446" y="-238" width="6" height="238" style="fill:transparent;" onmouseover="sh(449,449,-244,'01.07.2021 16,57');" onmouseout="hh();" /><rect x="446" y="-107" width="6" height="107" style="fill:#0080C0;" onmouseover="sh(449,449,-244,'01.07.2021 16,57');" onmouseout="hh();" /><rect x="455" y="-238" width="6" height="238" style="fill:transparent;" onmouseover="sh(458,458,-244,'01.08.2021 16,47');" onmouseout="hh();" /><rect x="455" y="-106" width="6" height="106" style="fill:#0080C0;" onmouseover="sh(458,458,-244,'01.08.2021 16,47');" onmouseout="hh();" /><rect x="464" y="-238" width="6" height="238" style="fill:transparent;" onmouseover="sh(467,467,-244,'01.10.2021 18,70');" onmouseout="hh();" /><rect x="464" y="-125" width="6" height="125" style="fill:#0080C0;" onmouseover="sh(467,467,-244,'01.10.2021 18,70');" onmouseout="hh();" /><rect x="473" y="-238" width="6" height="238" style="fill:transparent;" onmouseover="sh(476,476,-244,'01.11.2021 18,70');" onmouseout="hh();" /><rect x="473" y="-125" width="6" height="125" style="fill:#0080C0;" onmouseover="sh(476,476,-244,'01.11.2021 18,70');" onmouseout="hh();" /><rect x="482" y="-238" width="6" height="238" style="fill:transparent;" onmouseover="sh(485,485,-244,'01.12.2021 20,62');" onmouseout="hh();" /><rect x="482" y="-141" width="6" height="141" style="fill:#0080C0;" onmouseover="sh(485,485,-244,'01.12.2021 20,62');" onmouseout="hh();" /><rect x="491" y="-238" width="6" height="238" style="fill:transparent;" onmouseover="sh(494,494,-244,'01.01.2022 20,69');" onmouseout="hh();" /><rect x="491" y="-142" width="6" height="142" style="fill:#0080C0;" onmouseover="sh(494,494,-244,'01.01.2022 20,69');" onmouseout="hh();" /><rect x="500" y="-238" width="6" height="238" style="fill:transparent;" onmouseover="sh(503,503,-244,'01.02.2022 20,28');" onmouseout="hh();" /><rect x="500" y="-138" width="6" height="138" style="fill:#0080C0;" onmouseover="sh(503,503,-244,'01.02.2022 20,28');" onmouseout="hh();" /><rect x="509" y="-238" width="6" height="238" style="fill:transparent;" onmouseover="sh(512,512,-244,'01.03.2022 21,50');" onmouseout="hh();" /><rect x="509" y="-149" width="6" height="149" style="fill:#0080C0;" onmouseover="sh(512,512,-244,'01.03.2022 21,50');" onmouseout="hh();" /><rect x="518" y="-238" width="6" height="238" style="fill:transparent;" onmouseover="sh(521,521,-244,'01.04.2022 21,50');" onmouseout="hh();" /><rect x="518" y="-149" width="6" height="149" style="fill:#0080C0;" onmouseover="sh(521,521,-244,'01.04.2022 21,50');" onmouseout="hh();" /><rect x="527" y="-238" width="6" height="238" style="fill:transparent;" onmouseover="sh(530,530,-244,'01.05.2022 26,90');" onmouseout="hh();" /><rect x="527" y="-195" width="6" height="195" style="fill:#0080C0;" onmouseover="sh(530,530,-244,'01.05.2022 26,90');" onmouseout="hh();" /><rect x="536" y="-238" width="6" height="238" style="fill:transparent;" onmouseover="sh(539,539,-244,'01.06.2022 26,90');" onmouseout="hh();" /><rect x="536" y="-195" width="6" height="195" style="fill:#0080C0;" onmouseover="sh(539,539,-244,'01.06.2022 26,90');" onmouseout="hh();" /><rect x="545" y="-238" width="6" height="238" style="fill:transparent;" onmouseover="sh(548,548,-244,'01.08.2022 27,18');" onmouseout="hh();" /><rect x="545" y="-197" width="6" height="197" style="fill:#0080C0;" onmouseover="sh(548,548,-244,'01.08.2022 27,18');" onmouseout="hh();" /><rect x="554" y="-238" width="6" height="238" style="fill:transparent;" onmouseover="sh(557,557,-244,'01.09.2022 28,06');" onmouseout="hh();" /><rect x="554" y="-205" width="6" height="205" style="fill:#0080C0;" onmouseover="sh(557,557,-244,'01.09.2022 28,06');" onmouseout="hh();" /><rect x="563" y="-238" width="6" height="238" style="fill:transparent;" onmouseover="sh(566,566,-244,'01.10.2022 26,60');" onmouseout="hh();" /><rect x="563" y="-192" width="6" height="192" style="fill:#0080C0;" onmouseover="sh(566,566,-244,'01.10.2022 26,60');" onmouseout="hh();" /><rect x="572" y="-238" width="6" height="238" style="fill:transparent;" onmouseover="sh(575,575,-244,'01.11.2022 26,60');" onmouseout="hh();" /><rect x="572" y="-192" width="6" height="192" style="fill:#0080C0;" onmouseover="sh(575,575,-244,'01.11.2022 26,60');" onmouseout="hh();" /><rect x="581" y="-238" width="6" height="238" style="fill:transparent;" onmouseover="sh(584,578,-244,'01.12.2022 26,60');" onmouseout="hh();" /><rect x="581" y="-192" width="6" height="192" style="fill:#0080C0;" onmouseover="sh(584,578,-244,'01.12.2022 26,60');" onmouseout="hh();" /><rect x="590" y="-238" width="6" height="238" style="fill:transparent;" onmouseover="sh(593,578,-244,'01.01.2023 26,90');" onmouseout="hh();" /><rect x="590" y="-195" width="6" height="195" style="fill:#0080C0;" onmouseover="sh(593,578,-244,'01.01.2023 26,90');" onmouseout="hh();" /><rect x="599" y="-238" width="6" height="238" style="fill:transparent;" onmouseover="sh(602,578,-244,'01.02.2023 27,47');" onmouseout="hh();" /><rect x="599" y="-199" width="6" height="199" style="fill:#0080C0;" onmouseover="sh(602,578,-244,'01.02.2023 27,47');" onmouseout="hh();" /><rect x="608" y="-238" width="6" height="238" style="fill:transparent;" onmouseover="sh(611,578,-244,'01.03.2023 28,60');" onmouseout="hh();" /><rect x="608" y="-209" width="6" height="209" style="fill:#0080C0;" onmouseover="sh(611,578,-244,'01.03.2023 28,60');" onmouseout="hh();" /><rect x="617" y="-238" width="6" height="238" style="fill:transparent;" onmouseover="sh(620,578,-244,'01.04.2023 28,39');" onmouseout="hh();" /><rect x="617" y="-207" width="6" height="207" style="fill:#0080C0;" onmouseover="sh(620,578,-244,'01.04.2023 28,39');" onmouseout="hh();" /><rect x="626" y="-238" width="6" height="238" style="fill:transparent;" onmouseover="sh(629,578,-244,'01.05.2023 26,90');" onmouseout="hh();" /><rect x="626" y="-195" width="6" height="195" style="fill:#0080C0;" onmouseover="sh(629,578,-244,'01.05.2023 26,90');" onmouseout="hh();" /><rect x="635" y="-238" width="6" height="238" style="fill:transparent;" onmouseover="sh(638,578,-244,'01.06.2023 26,90');" onmouseout="hh();" /><rect x="635" y="-195" width="6" height="195" style="fill:#0080C0;" onmouseover="sh(638,578,-244,'01.06.2023 26,90');" onmouseout="hh();" />
<line x1="-6" y1="0" x2="648" y2="0" class="axes" /><line x1="0" y1="-254" x2="0" y2="0" class="axes" /><text x="-2" y="-258" style="text-anchor:end;">грн.</text>
<use xlink:href="#hintbox" id="usebox" x="0" y="0" style="visibility:hidden;" />
</svg>
