<?xml version="1.0" encoding="UTF-8" standalone="no"?>
<!DOCTYPE svg PUBLIC "-//W3C//DTD SVG 1.1//EN" "http://www.w3.org/Graphics/SVG/1.1/DTD/svg11.dtd">
<svg version="1.1" xmlns="http://www.w3.org/2000/svg" xmlns:xlink="http://www.w3.org/1999/xlink" xmlns:ev="http://www.w3.org/2001/xml-events" width="750" height="330" viewBox="-48 -272 750 330" preserveAspectRatio="none">
<style type="text/css"><![CDATA[
line { stroke-width:1px; }
line.axes { stroke:#505050; }
line.grid { stroke:#D8D8D8; }
rect.bg { fill:#FFFFFF; }
text { font-family:arial,sans-serif; font-size:12px; fill:#000000; }
]]></style>
<defs>
<g id="hintbox"><rect x="0" y="0" width="77" height="34" style="stroke:#505050; stroke-width:1px; fill:rgba(255,255,255,0.87);" /><text id="hint0" x="4" y="14"> </text><text x="7" y="28"></text><text id="hint1" x="73" y="28" style="text-anchor:end;"> </text></g>
<g id="hintline"><line x1="0" y1="-240" x2="0" y2="0" class="axes" style="stroke-dasharray:2 1" /></g>
</defs>
<script><![CDATA[
function shb(x,y,dat) {
ar=dat.split(' '); for (i=0; i<ar.length; ++i) { if (i&&ar[i]) ar[i]+=' грн.'; h=document.getElementById('hint'+i); h.textContent=ar[i]; }
u=document.getElementById('usebox'); u.setAttribute('x',x); u.setAttribute('y',y); u.setAttribute('style','visibility:visible;'); }
function hhb() { u=document.getElementById('usebox'); u.setAttribute('style','visibility:hidden;'); u.setAttribute('x','0'); u.setAttribute('y','0'); }
function shl(x) { u=document.getElementById('useline'); u.setAttribute('x',x); u.setAttribute('style','visibility:visible;'); }
function hhl() { u=document.getElementById('useline'); u.setAttribute('style','visibility:hidden;'); u.setAttribute('x','0'); }
function sh(xl,xb,y,dat) { shl(xl); shb(xb,y,dat); }
function hh() { hhb(); hhl(); }
]]></script>
<rect x="-48" y="-272" width="750" height="330" class="bg" />
<line x1="17" y1="0" x2="17" y2="4" class="axes" /><text x="22" y="8" transform="rotate(-90,22,8)" style="text-anchor:end;">04.2017</text><line x1="44" y1="0" x2="44" y2="4" class="axes" /><text x="49" y="8" transform="rotate(-90,49,8)" style="text-anchor:end;">07.2017</text><line x1="71" y1="0" x2="71" y2="4" class="axes" /><text x="76" y="8" transform="rotate(-90,76,8)" style="text-anchor:end;">10.2017</text><line x1="98" y1="0" x2="98" y2="4" class="axes" /><text x="103" y="8" transform="rotate(-90,103,8)" style="text-anchor:end;">01.2018</text><line x1="125" y1="0" x2="125" y2="4" class="axes" /><text x="130" y="8" transform="rotate(-90,130,8)" style="text-anchor:end;">04.2018</text><line x1="152" y1="0" x2="152" y2="4" class="axes" /><text x="157" y="8" transform="rotate(-90,157,8)" style="text-anchor:end;">07.2018</text><line x1="179" y1="0" x2="179" y2="4" class="axes" /><text x="184" y="8" transform="rotate(-90,184,8)" style="text-anchor:end;">10.2018</text><line x1="206" y1="0" x2="206" y2="4" class="axes" /><text x="211" y="8" transform="rotate(-90,211,8)" style="text-anchor:end;">01.2019</text><line x1="233" y1="0" x2="233" y2="4" class="axes" /><text x="238" y="8" transform="rotate(-90,238,8)" style="text-anchor:end;">04.2019</text><line x1="260" y1="0" x2="260" y2="4" class="axes" /><text x="265" y="8" transform="rotate(-90,265,8)" style="text-anchor:end;">07.2019</text><line x1="287" y1="0" x2="287" y2="4" class="axes" /><text x="292" y="8" transform="rotate(-90,292,8)" style="text-anchor:end;">10.2019</text><line x1="314" y1="0" x2="314" y2="4" class="axes" /><text x="319" y="8" transform="rotate(-90,319,8)" style="text-anchor:end;">01.2020</text><line x1="341" y1="0" x2="341" y2="4" class="axes" /><text x="346" y="8" transform="rotate(-90,346,8)" style="text-anchor:end;">04.2020</text><line x1="368" y1="0" x2="368" y2="4" class="axes" /><text x="373" y="8" transform="rotate(-90,373,8)" style="text-anchor:end;">07.2020</text><line x1="395" y1="0" x2="395" y2="4" class="axes" /><text x="400" y="8" transform="rotate(-90,400,8)" style="text-anchor:end;">10.2020</text><line x1="422" y1="0" x2="422" y2="4" class="axes" /><text x="427" y="8" transform="rotate(-90,427,8)" style="text-anchor:end;">01.2021</text><line x1="449" y1="0" x2="449" y2="4" class="axes" /><text x="454" y="8" transform="rotate(-90,454,8)" style="text-anchor:end;">04.2021</text><line x1="476" y1="0" x2="476" y2="4" class="axes" /><text x="481" y="8" transform="rotate(-90,481,8)" style="text-anchor:end;">07.2021</text><line x1="503" y1="0" x2="503" y2="4" class="axes" /><text x="508" y="8" transform="rotate(-90,508,8)" style="text-anchor:end;">10.2021</text><line x1="530" y1="0" x2="530" y2="4" class="axes" /><text x="535" y="8" transform="rotate(-90,535,8)" style="text-anchor:end;">01.2022</text><line x1="557" y1="0" x2="557" y2="4" class="axes" /><text x="562" y="8" transform="rotate(-90,562,8)" style="text-anchor:end;">04.2022</text><line x1="584" y1="0" x2="584" y2="4" class="axes" /><text x="589" y="8" transform="rotate(-90,589,8)" style="text-anchor:end;">07.2022</text><line x1="611" y1="0" x2="611" y2="4" class="axes" /><text x="616" y="8" transform="rotate(-90,616,8)" style="text-anchor:end;">10.2022</text><line x1="638" y1="0" x2="638" y2="4" class="axes" /><text x="643" y="8" transform="rotate(-90,643,8)" style="text-anchor:end;">01.2023</text><line x1="665" y1="0" x2="665" y2="4" class="axes" /><text x="670" y="8" transform="rotate(-90,670,8)" style="text-anchor:end;">04.2023</text>
<line x1="0" y1="-24" x2="690" y2="-24" class="grid" /><line x1="0" y1="-24" x2="-4" y2="-24" class="axes" /><text x="-8" y="-20" style="text-anchor:end;">5</text><line x1="0" y1="-48" x2="690" y2="-48" class="grid" /><line x1="0" y1="-48" x2="-4" y2="-48" class="axes" /><text x="-8" y="-44" style="text-anchor:end;">10</text><line x1="0" y1="-72" x2="690" y2="-72" class="grid" /><line x1="0" y1="-72" x2="-4" y2="-72" class="axes" /><text x="-8" y="-68" style="text-anchor:end;">15</text><line x1="0" y1="-96" x2="690" y2="-96" class="grid" /><line x1="0" y1="-96" x2="-4" y2="-96" class="axes" /><text x="-8" y="-92" style="text-anchor:end;">20</text><line x1="0" y1="-120" x2="690" y2="-120" class="grid" /><line x1="0" y1="-120" x2="-4" y2="-120" class="axes" /><text x="-8" y="-116" style="text-anchor:end;">25</text><line x1="0" y1="-144" x2="690" y2="-144" class="grid" /><line x1="0" y1="-144" x2="-4" y2="-144" class="axes" /><text x="-8" y="-140" style="text-anchor:end;">30</text><line x1="0" y1="-168" x2="690" y2="-168" class="grid" /><line x1="0" y1="-168" x2="-4" y2="-168" class="axes" /><text x="-8" y="-164" style="text-anchor:end;">35</text><line x1="0" y1="-192" x2="690" y2="-192" class="grid" /><line x1="0" y1="-192" x2="-4" y2="-192" class="axes" /><text x="-8" y="-188" style="text-anchor:end;">40</text><line x1="0" y1="-216" x2="690" y2="-216" class="grid" /><line x1="0" y1="-216" x2="-4" y2="-216" class="axes" /><text x="-8" y="-212" style="text-anchor:end;">45</text><line x1="0" y1="-240" x2="690" y2="-240" class="grid" /><line x1="0" y1="-240" x2="-4" y2="-240" class="axes" /><text x="-8" y="-236" style="text-anchor:end;">50</text>
<use xlink:href="#hintline" id="useline" x="0" style="visibility:hidden;" />
<rect x="5" y="-240" width="6" height="240" style="fill:transparent;" onmouseover="sh(8,8,-246,'01.03.2017 9,53');" onmouseout="hh();" /><rect x="5" y="-46" width="6" height="46" style="fill:#0080C0;" onmouseover="sh(8,8,-246,'01.03.2017 9,53');" onmouseout="hh();" /><rect x="14" y="-240" width="6" height="240" style="fill:transparent;" onmouseover="sh(17,17,-246,'01.04.2017 9,59');" onmouseout="hh();" /><rect x="14" y="-46" width="6" height="46" style="fill:#0080C0;" onmouseover="sh(17,17,-246,'01.04.2017 9,59');" onmouseout="hh();" /><rect x="23" y="-240" width="6" height="240" style="fill:transparent;" onmouseover="sh(26,26,-246,'01.05.2017 9,70');" onmouseout="hh();" /><rect x="23" y="-47" width="6" height="47" style="fill:#0080C0;" onmouseover="sh(26,26,-246,'01.05.2017 9,70');" onmouseout="hh();" /><rect x="32" y="-240" width="6" height="240" style="fill:transparent;" onmouseover="sh(35,35,-246,'01.06.2017 9,68');" onmouseout="hh();" /><rect x="32" y="-46" width="6" height="46" style="fill:#0080C0;" onmouseover="sh(35,35,-246,'01.06.2017 9,68');" onmouseout="hh();" /><rect x="41" y="-240" width="6" height="240" style="fill:transparent;" onmouseover="sh(44,44,-246,'01.07.2017 9,66');" onmouseout="hh();" /><rect x="41" y="-46" width="6" height="46" style="fill:#0080C0;" onmouseover="sh(44,44,-246,'01.07.2017 9,66');" onmouseout="hh();" /><rect x="50" y="-240" width="6" height="240" style="fill:transparent;" onmouseover="sh(53,53,-246,'01.08.2017 9,68');" onmouseout="hh();" /><rect x="50" y="-46" width="6" height="46" style="fill:#0080C0;" onmouseover="sh(53,53,-246,'01.08.2017 9,68');" onmouseout="hh();" /><rect x="59" y="-240" width="6" height="240" style="fill:transparent;" onmouseover="sh(62,62,-246,'01.09.2017 9,85');" onmouseout="hh();" /><rect x="59" y="-47" width="6" height="47" style="fill:#0080C0;" onmouseover="sh(62,62,-246,'01.09.2017 9,85');" onmouseout="hh();" /><rect x="68" y="-240" width="6" height="240" style="fill:transparent;" onmouseover="sh(71,71,-246,'01.10.2017 11,35');" onmouseout="hh();" /><rect x="68" y="-55" width="6" height="55" style="fill:#0080C0;" onmouseover="sh(71,71,-246,'01.10.2017 11,35');" onmouseout="hh();" /><rect x="77" y="-240" width="6" height="240" style="fill:transparent;" onmouseover="sh(80,80,-246,'01.11.2017 15,17');" onmouseout="hh();" /><rect x="77" y="-73" width="6" height="73" style="fill:#0080C0;" onmouseover="sh(80,80,-246,'01.11.2017 15,17');" onmouseout="hh();" /><rect x="86" y="-240" width="6" height="240" style="fill:transparent;" onmouseover="sh(89,89,-246,'01.12.2017 16,28');" onmouseout="hh();" /><rect x="86" y="-78" width="6" height="78" style="fill:#0080C0;" onmouseover="sh(89,89,-246,'01.12.2017 16,28');" onmouseout="hh();" /><rect x="95" y="-240" width="6" height="240" style="fill:transparent;" onmouseover="sh(98,98,-246,'01.01.2018 16,88');" onmouseout="hh();" /><rect x="95" y="-81" width="6" height="81" style="fill:#0080C0;" onmouseover="sh(98,98,-246,'01.01.2018 16,88');" onmouseout="hh();" /><rect x="104" y="-240" width="6" height="240" style="fill:transparent;" onmouseover="sh(107,107,-246,'01.02.2018 17,07');" onmouseout="hh();" /><rect x="104" y="-82" width="6" height="82" style="fill:#0080C0;" onmouseover="sh(107,107,-246,'01.02.2018 17,07');" onmouseout="hh();" /><rect x="113" y="-240" width="6" height="240" style="fill:transparent;" onmouseover="sh(116,116,-246,'01.03.2018 17,88');" onmouseout="hh();" /><rect x="113" y="-86" width="6" height="86" style="fill:#0080C0;" onmouseover="sh(116,116,-246,'01.03.2018 17,88');" onmouseout="hh();" /><rect x="122" y="-240" width="6" height="240" style="fill:transparent;" onmouseover="sh(125,125,-246,'01.04.2018 18,21');" onmouseout="hh();" /><rect x="122" y="-87" width="6" height="87" style="fill:#0080C0;" onmouseover="sh(125,125,-246,'01.04.2018 18,21');" onmouseout="hh();" /><rect x="131" y="-240" width="6" height="240" style="fill:transparent;" onmouseover="sh(134,134,-246,'01.05.2018 18,71');" onmouseout="hh();" /><rect x="131" y="-90" width="6" height="90" style="fill:#0080C0;" onmouseover="sh(134,134,-246,'01.05.2018 18,71');" onmouseout="hh();" /><rect x="140" y="-240" width="6" height="240" style="fill:transparent;" onmouseover="sh(143,143,-246,'01.06.2018 18,55');" onmouseout="hh();" /><rect x="140" y="-89" width="6" height="89" style="fill:#0080C0;" onmouseover="sh(143,143,-246,'01.06.2018 18,55');" onmouseout="hh();" /><rect x="149" y="-240" width="6" height="240" style="fill:transparent;" onmouseover="sh(152,152,-246,'01.07.2018 19,26');" onmouseout="hh();" /><rect x="149" y="-92" width="6" height="92" style="fill:#0080C0;" onmouseover="sh(152,152,-246,'01.07.2018 19,26');" onmouseout="hh();" /><rect x="158" y="-240" width="6" height="240" style="fill:transparent;" onmouseover="sh(161,161,-246,'01.08.2018 19,27');" onmouseout="hh();" /><rect x="158" y="-92" width="6" height="92" style="fill:#0080C0;" onmouseover="sh(161,161,-246,'01.08.2018 19,27');" onmouseout="hh();" /><rect x="167" y="-240" width="6" height="240" style="fill:transparent;" onmouseover="sh(170,170,-246,'01.09.2018 21,54');" onmouseout="hh();" /><rect x="167" y="-103" width="6" height="103" style="fill:#0080C0;" onmouseover="sh(170,170,-246,'01.09.2018 21,54');" onmouseout="hh();" /><rect x="176" y="-240" width="6" height="240" style="fill:transparent;" onmouseover="sh(179,179,-246,'01.10.2018 25,59');" onmouseout="hh();" /><rect x="176" y="-123" width="6" height="123" style="fill:#0080C0;" onmouseover="sh(179,179,-246,'01.10.2018 25,59');" onmouseout="hh();" /><rect x="185" y="-240" width="6" height="240" style="fill:transparent;" onmouseover="sh(188,188,-246,'01.11.2018 24,26');" onmouseout="hh();" /><rect x="185" y="-116" width="6" height="116" style="fill:#0080C0;" onmouseover="sh(188,188,-246,'01.11.2018 24,26');" onmouseout="hh();" /><rect x="194" y="-240" width="6" height="240" style="fill:transparent;" onmouseover="sh(197,197,-246,'01.12.2018 24,67');" onmouseout="hh();" /><rect x="194" y="-118" width="6" height="118" style="fill:#0080C0;" onmouseover="sh(197,197,-246,'01.12.2018 24,67');" onmouseout="hh();" /><rect x="203" y="-240" width="6" height="240" style="fill:transparent;" onmouseover="sh(206,206,-246,'01.01.2019 26,42');" onmouseout="hh();" /><rect x="203" y="-127" width="6" height="127" style="fill:#0080C0;" onmouseover="sh(206,206,-246,'01.01.2019 26,42');" onmouseout="hh();" /><rect x="212" y="-240" width="6" height="240" style="fill:transparent;" onmouseover="sh(215,215,-246,'01.02.2019 27,24');" onmouseout="hh();" /><rect x="212" y="-131" width="6" height="131" style="fill:#0080C0;" onmouseover="sh(215,215,-246,'01.02.2019 27,24');" onmouseout="hh();" /><rect x="221" y="-240" width="6" height="240" style="fill:transparent;" onmouseover="sh(224,224,-246,'01.03.2019 28,74');" onmouseout="hh();" /><rect x="221" y="-138" width="6" height="138" style="fill:#0080C0;" onmouseover="sh(224,224,-246,'01.03.2019 28,74');" onmouseout="hh();" /><rect x="230" y="-240" width="6" height="240" style="fill:transparent;" onmouseover="sh(233,233,-246,'01.04.2019 33,60');" onmouseout="hh();" /><rect x="230" y="-161" width="6" height="161" style="fill:#0080C0;" onmouseover="sh(233,233,-246,'01.04.2019 33,60');" onmouseout="hh();" /><rect x="239" y="-240" width="6" height="240" style="fill:transparent;" onmouseover="sh(242,242,-246,'01.05.2019 37,21');" onmouseout="hh();" /><rect x="239" y="-179" width="6" height="179" style="fill:#0080C0;" onmouseover="sh(242,242,-246,'01.05.2019 37,21');" onmouseout="hh();" /><rect x="248" y="-240" width="6" height="240" style="fill:transparent;" onmouseover="sh(251,251,-246,'01.06.2019 40,10');" onmouseout="hh();" /><rect x="248" y="-192" width="6" height="192" style="fill:#0080C0;" onmouseover="sh(251,251,-246,'01.06.2019 40,10');" onmouseout="hh();" /><rect x="257" y="-240" width="6" height="240" style="fill:transparent;" onmouseover="sh(260,260,-246,'01.07.2019 37,71');" onmouseout="hh();" /><rect x="257" y="-181" width="6" height="181" style="fill:#0080C0;" onmouseover="sh(260,260,-246,'01.07.2019 37,71');" onmouseout="hh();" /><rect x="266" y="-240" width="6" height="240" style="fill:transparent;" onmouseover="sh(269,269,-246,'01.08.2019 37,82');" onmouseout="hh();" /><rect x="266" y="-182" width="6" height="182" style="fill:#0080C0;" onmouseover="sh(269,269,-246,'01.08.2019 37,82');" onmouseout="hh();" /><rect x="275" y="-240" width="6" height="240" style="fill:transparent;" onmouseover="sh(278,278,-246,'01.09.2019 38,78');" onmouseout="hh();" /><rect x="275" y="-186" width="6" height="186" style="fill:#0080C0;" onmouseover="sh(278,278,-246,'01.09.2019 38,78');" onmouseout="hh();" /><rect x="284" y="-240" width="6" height="240" style="fill:transparent;" onmouseover="sh(287,287,-246,'01.10.2019 38,78');" onmouseout="hh();" /><rect x="284" y="-186" width="6" height="186" style="fill:#0080C0;" onmouseover="sh(287,287,-246,'01.10.2019 38,78');" onmouseout="hh();" /><rect x="293" y="-240" width="6" height="240" style="fill:transparent;" onmouseover="sh(296,296,-246,'01.11.2019 37,95');" onmouseout="hh();" /><rect x="293" y="-182" width="6" height="182" style="fill:#0080C0;" onmouseover="sh(296,296,-246,'01.11.2019 37,95');" onmouseout="hh();" /><rect x="302" y="-240" width="6" height="240" style="fill:transparent;" onmouseover="sh(305,305,-246,'01.12.2019 33,78');" onmouseout="hh();" /><rect x="302" y="-162" width="6" height="162" style="fill:#0080C0;" onmouseover="sh(305,305,-246,'01.12.2019 33,78');" onmouseout="hh();" /><rect x="311" y="-240" width="6" height="240" style="fill:transparent;" onmouseover="sh(314,314,-246,'01.01.2020 35,07');" onmouseout="hh();" /><rect x="311" y="-168" width="6" height="168" style="fill:#0080C0;" onmouseover="sh(314,314,-246,'01.01.2020 35,07');" onmouseout="hh();" /><rect x="320" y="-240" width="6" height="240" style="fill:transparent;" onmouseover="sh(323,323,-246,'01.02.2020 32,56');" onmouseout="hh();" /><rect x="320" y="-156" width="6" height="156" style="fill:#0080C0;" onmouseover="sh(323,323,-246,'01.02.2020 32,56');" onmouseout="hh();" /><rect x="329" y="-240" width="6" height="240" style="fill:transparent;" onmouseover="sh(332,332,-246,'01.03.2020 30,72');" onmouseout="hh();" /><rect x="329" y="-147" width="6" height="147" style="fill:#0080C0;" onmouseover="sh(332,332,-246,'01.03.2020 30,72');" onmouseout="hh();" /><rect x="338" y="-240" width="6" height="240" style="fill:transparent;" onmouseover="sh(341,341,-246,'01.04.2020 24,74');" onmouseout="hh();" /><rect x="338" y="-119" width="6" height="119" style="fill:#0080C0;" onmouseover="sh(341,341,-246,'01.04.2020 24,74');" onmouseout="hh();" /><rect x="347" y="-240" width="6" height="240" style="fill:transparent;" onmouseover="sh(350,350,-246,'01.05.2020 24,13');" onmouseout="hh();" /><rect x="347" y="-116" width="6" height="116" style="fill:#0080C0;" onmouseover="sh(350,350,-246,'01.05.2020 24,13');" onmouseout="hh();" /><rect x="356" y="-240" width="6" height="240" style="fill:transparent;" onmouseover="sh(359,359,-246,'01.06.2020 24,06');" onmouseout="hh();" /><rect x="356" y="-115" width="6" height="115" style="fill:#0080C0;" onmouseover="sh(359,359,-246,'01.06.2020 24,06');" onmouseout="hh();" /><rect x="365" y="-240" width="6" height="240" style="fill:transparent;" onmouseover="sh(368,368,-246,'01.07.2020 24,67');" onmouseout="hh();" /><rect x="365" y="-118" width="6" height="118" style="fill:#0080C0;" onmouseover="sh(368,368,-246,'01.07.2020 24,67');" onmouseout="hh();" /><rect x="374" y="-240" width="6" height="240" style="fill:transparent;" onmouseover="sh(377,377,-246,'01.08.2020 24,48');" onmouseout="hh();" /><rect x="374" y="-117" width="6" height="117" style="fill:#0080C0;" onmouseover="sh(377,377,-246,'01.08.2020 24,48');" onmouseout="hh();" /><rect x="383" y="-240" width="6" height="240" style="fill:transparent;" onmouseover="sh(386,386,-246,'01.09.2020 23,29');" onmouseout="hh();" /><rect x="383" y="-112" width="6" height="112" style="fill:#0080C0;" onmouseover="sh(386,386,-246,'01.09.2020 23,29');" onmouseout="hh();" /><rect x="392" y="-240" width="6" height="240" style="fill:transparent;" onmouseover="sh(395,395,-246,'01.10.2020 23,16');" onmouseout="hh();" /><rect x="392" y="-111" width="6" height="111" style="fill:#0080C0;" onmouseover="sh(395,395,-246,'01.10.2020 23,16');" onmouseout="hh();" /><rect x="401" y="-240" width="6" height="240" style="fill:transparent;" onmouseover="sh(404,404,-246,'01.11.2020 21,99');" onmouseout="hh();" /><rect x="401" y="-106" width="6" height="106" style="fill:#0080C0;" onmouseover="sh(404,404,-246,'01.11.2020 21,99');" onmouseout="hh();" /><rect x="410" y="-240" width="6" height="240" style="fill:transparent;" onmouseover="sh(413,413,-246,'01.12.2020 20,45');" onmouseout="hh();" /><rect x="410" y="-98" width="6" height="98" style="fill:#0080C0;" onmouseover="sh(413,413,-246,'01.12.2020 20,45');" onmouseout="hh();" /><rect x="419" y="-240" width="6" height="240" style="fill:transparent;" onmouseover="sh(422,422,-246,'01.01.2021 20,44');" onmouseout="hh();" /><rect x="419" y="-98" width="6" height="98" style="fill:#0080C0;" onmouseover="sh(422,422,-246,'01.01.2021 20,44');" onmouseout="hh();" /><rect x="428" y="-240" width="6" height="240" style="fill:transparent;" onmouseover="sh(431,431,-246,'01.02.2021 20,84');" onmouseout="hh();" /><rect x="428" y="-100" width="6" height="100" style="fill:#0080C0;" onmouseover="sh(431,431,-246,'01.02.2021 20,84');" onmouseout="hh();" /><rect x="437" y="-240" width="6" height="240" style="fill:transparent;" onmouseover="sh(440,440,-246,'01.03.2021 21,06');" onmouseout="hh();" /><rect x="437" y="-101" width="6" height="101" style="fill:#0080C0;" onmouseover="sh(440,440,-246,'01.03.2021 21,06');" onmouseout="hh();" /><rect x="446" y="-240" width="6" height="240" style="fill:transparent;" onmouseover="sh(449,449,-246,'01.04.2021 20,29');" onmouseout="hh();" /><rect x="446" y="-97" width="6" height="97" style="fill:#0080C0;" onmouseover="sh(449,449,-246,'01.04.2021 20,29');" onmouseout="hh();" /><rect x="455" y="-240" width="6" height="240" style="fill:transparent;" onmouseover="sh(458,458,-246,'01.05.2021 20,48');" onmouseout="hh();" /><rect x="455" y="-98" width="6" height="98" style="fill:#0080C0;" onmouseover="sh(458,458,-246,'01.05.2021 20,48');" onmouseout="hh();" /><rect x="464" y="-240" width="6" height="240" style="fill:transparent;" onmouseover="sh(467,467,-246,'01.06.2021 20,48');" onmouseout="hh();" /><rect x="464" y="-98" width="6" height="98" style="fill:#0080C0;" onmouseover="sh(467,467,-246,'01.06.2021 20,48');" onmouseout="hh();" /><rect x="473" y="-240" width="6" height="240" style="fill:transparent;" onmouseover="sh(476,476,-246,'01.07.2021 20,46');" onmouseout="hh();" /><rect x="473" y="-98" width="6" height="98" style="fill:#0080C0;" onmouseover="sh(476,476,-246,'01.07.2021 20,46');" onmouseout="hh();" /><rect x="482" y="-240" width="6" height="240" style="fill:transparent;" onmouseover="sh(485,485,-246,'01.08.2021 19,74');" onmouseout="hh();" /><rect x="482" y="-95" width="6" height="95" style="fill:#0080C0;" onmouseover="sh(485,485,-246,'01.08.2021 19,74');" onmouseout="hh();" /><rect x="491" y="-240" width="6" height="240" style="fill:transparent;" onmouseover="sh(494,494,-246,'01.09.2021 19,63');" onmouseout="hh();" /><rect x="491" y="-94" width="6" height="94" style="fill:#0080C0;" onmouseover="sh(494,494,-246,'01.09.2021 19,63');" onmouseout="hh();" /><rect x="500" y="-240" width="6" height="240" style="fill:transparent;" onmouseover="sh(503,503,-246,'01.10.2021 19,30');" onmouseout="hh();" /><rect x="500" y="-93" width="6" height="93" style="fill:#0080C0;" onmouseover="sh(503,503,-246,'01.10.2021 19,30');" onmouseout="hh();" /><rect x="509" y="-240" width="6" height="240" style="fill:transparent;" onmouseover="sh(512,512,-246,'01.11.2021 19,45');" onmouseout="hh();" /><rect x="509" y="-93" width="6" height="93" style="fill:#0080C0;" onmouseover="sh(512,512,-246,'01.11.2021 19,45');" onmouseout="hh();" /><rect x="518" y="-240" width="6" height="240" style="fill:transparent;" onmouseover="sh(521,521,-246,'01.12.2021 19,91');" onmouseout="hh();" /><rect x="518" y="-96" width="6" height="96" style="fill:#0080C0;" onmouseover="sh(521,521,-246,'01.12.2021 19,91');" onmouseout="hh();" /><rect x="527" y="-240" width="6" height="240" style="fill:transparent;" onmouseover="sh(530,530,-246,'01.01.2022 21,51');" onmouseout="hh();" /><rect x="527" y="-103" width="6" height="103" style="fill:#0080C0;" onmouseover="sh(530,530,-246,'01.01.2022 21,51');" onmouseout="hh();" /><rect x="536" y="-240" width="6" height="240" style="fill:transparent;" onmouseover="sh(539,539,-246,'01.02.2022 21,89');" onmouseout="hh();" /><rect x="536" y="-105" width="6" height="105" style="fill:#0080C0;" onmouseover="sh(539,539,-246,'01.02.2022 21,89');" onmouseout="hh();" /><rect x="545" y="-240" width="6" height="240" style="fill:transparent;" onmouseover="sh(548,548,-246,'01.03.2022 23,32');" onmouseout="hh();" /><rect x="545" y="-112" width="6" height="112" style="fill:#0080C0;" onmouseover="sh(548,548,-246,'01.03.2022 23,32');" onmouseout="hh();" /><rect x="554" y="-240" width="6" height="240" style="fill:transparent;" onmouseover="sh(557,557,-246,'01.04.2022 26,10');" onmouseout="hh();" /><rect x="554" y="-125" width="6" height="125" style="fill:#0080C0;" onmouseover="sh(557,557,-246,'01.04.2022 26,10');" onmouseout="hh();" /><rect x="563" y="-240" width="6" height="240" style="fill:transparent;" onmouseover="sh(566,566,-246,'01.05.2022 26,80');" onmouseout="hh();" /><rect x="563" y="-129" width="6" height="129" style="fill:#0080C0;" onmouseover="sh(566,566,-246,'01.05.2022 26,80');" onmouseout="hh();" /><rect x="572" y="-240" width="6" height="240" style="fill:transparent;" onmouseover="sh(575,575,-246,'01.06.2022 28,04');" onmouseout="hh();" /><rect x="572" y="-135" width="6" height="135" style="fill:#0080C0;" onmouseover="sh(575,575,-246,'01.06.2022 28,04');" onmouseout="hh();" /><rect x="581" y="-240" width="6" height="240" style="fill:transparent;" onmouseover="sh(584,584,-246,'01.07.2022 31,35');" onmouseout="hh();" /><rect x="581" y="-150" width="6" height="150" style="fill:#0080C0;" onmouseover="sh(584,584,-246,'01.07.2022 31,35');" onmouseout="hh();" /><rect x="590" y="-240" width="6" height="240" style="fill:transparent;" onmouseover="sh(593,593,-246,'01.08.2022 30,67');" onmouseout="hh();" /><rect x="590" y="-147" width="6" height="147" style="fill:#0080C0;" onmouseover="sh(593,593,-246,'01.08.2022 30,67');" onmouseout="hh();" /><rect x="599" y="-240" width="6" height="240" style="fill:transparent;" onmouseover="sh(602,602,-246,'01.09.2022 30,87');" onmouseout="hh();" /><rect x="599" y="-148" width="6" height="148" style="fill:#0080C0;" onmouseover="sh(602,602,-246,'01.09.2022 30,87');" onmouseout="hh();" /><rect x="608" y="-240" width="6" height="240" style="fill:transparent;" onmouseover="sh(611,611,-246,'01.10.2022 30,34');" onmouseout="hh();" /><rect x="608" y="-146" width="6" height="146" style="fill:#0080C0;" onmouseover="sh(611,611,-246,'01.10.2022 30,34');" onmouseout="hh();" /><rect x="617" y="-240" width="6" height="240" style="fill:transparent;" onmouseover="sh(620,620,-246,'01.11.2022 30,26');" onmouseout="hh();" /><rect x="617" y="-145" width="6" height="145" style="fill:#0080C0;" onmouseover="sh(620,620,-246,'01.11.2022 30,26');" onmouseout="hh();" /><rect x="626" y="-240" width="6" height="240" style="fill:transparent;" onmouseover="sh(629,623,-246,'01.12.2022 30,40');" onmouseout="hh();" /><rect x="626" y="-146" width="6" height="146" style="fill:#0080C0;" onmouseover="sh(629,623,-246,'01.12.2022 30,40');" onmouseout="hh();" /><rect x="635" y="-240" width="6" height="240" style="fill:transparent;" onmouseover="sh(638,623,-246,'01.01.2023 30,57');" onmouseout="hh();" /><rect x="635" y="-147" width="6" height="147" style="fill:#0080C0;" onmouseover="sh(638,623,-246,'01.01.2023 30,57');" onmouseout="hh();" /><rect x="644" y="-240" width="6" height="240" style="fill:transparent;" onmouseover="sh(647,623,-246,'01.02.2023 27,68');" onmouseout="hh();" /><rect x="644" y="-133" width="6" height="133" style="fill:#0080C0;" onmouseover="sh(647,623,-246,'01.02.2023 27,68');" onmouseout="hh();" /><rect x="653" y="-240" width="6" height="240" style="fill:transparent;" onmouseover="sh(656,623,-246,'01.03.2023 30,17');" onmouseout="hh();" /><rect x="653" y="-145" width="6" height="145" style="fill:#0080C0;" onmouseover="sh(656,623,-246,'01.03.2023 30,17');" onmouseout="hh();" /><rect x="662" y="-240" width="6" height="240" style="fill:transparent;" onmouseover="sh(665,623,-246,'01.04.2023 30,73');" onmouseout="hh();" /><rect x="662" y="-148" width="6" height="148" style="fill:#0080C0;" onmouseover="sh(665,623,-246,'01.04.2023 30,73');" onmouseout="hh();" /><rect x="671" y="-240" width="6" height="240" style="fill:transparent;" onmouseover="sh(674,623,-246,'01.05.2023 32,14');" onmouseout="hh();" /><rect x="671" y="-154" width="6" height="154" style="fill:#0080C0;" onmouseover="sh(674,623,-246,'01.05.2023 32,14');" onmouseout="hh();" /><rect x="680" y="-240" width="6" height="240" style="fill:transparent;" onmouseover="sh(683,623,-246,'01.06.2023 33,90');" onmouseout="hh();" /><rect x="680" y="-163" width="6" height="163" style="fill:#0080C0;" onmouseover="sh(683,623,-246,'01.06.2023 33,90');" onmouseout="hh();" />
<line x1="-6" y1="0" x2="693" y2="0" class="axes" /><line x1="0" y1="-256" x2="0" y2="0" class="axes" /><text x="-2" y="-260" style="text-anchor:end;">грн.</text>
<use xlink:href="#hintbox" id="usebox" x="0" y="0" style="visibility:hidden;" />
</svg>
