<?xml version="1.0" encoding="UTF-8" standalone="no"?>
<!DOCTYPE svg PUBLIC "-//W3C//DTD SVG 1.1//EN" "http://www.w3.org/Graphics/SVG/1.1/DTD/svg11.dtd">
<svg version="1.1" xmlns="http://www.w3.org/2000/svg" xmlns:xlink="http://www.w3.org/1999/xlink" xmlns:ev="http://www.w3.org/2001/xml-events" width="741" height="330" viewBox="-48 -272 741 330" preserveAspectRatio="none">
<style type="text/css"><![CDATA[
line { stroke-width:1px; }
line.axes { stroke:#505050; }
line.grid { stroke:#D8D8D8; }
rect.bg { fill:#FFFFFF; }
text { font-family:arial,sans-serif; font-size:12px; fill:#000000; }
]]></style>
<defs>
<g id="hintbox"><rect x="0" y="0" width="77" height="34" style="stroke:#505050; stroke-width:1px; fill:rgba(255,255,255,0.87);" /><text id="hint0" x="4" y="14"> </text><text x="7" y="28"></text><text id="hint1" x="73" y="28" style="text-anchor:end;"> </text></g>
<g id="hintline"><line x1="0" y1="-242" x2="0" y2="0" class="axes" style="stroke-dasharray:2 1" /></g>
</defs>
<script><![CDATA[
function shb(x,y,dat) {
ar=dat.split(' '); for (i=0; i<ar.length; ++i) { if (i&&ar[i]) ar[i]+=' грн.'; h=document.getElementById('hint'+i); h.textContent=ar[i]; }
u=document.getElementById('usebox'); u.setAttribute('x',x); u.setAttribute('y',y); u.setAttribute('style','visibility:visible;'); }
function hhb() { u=document.getElementById('usebox'); u.setAttribute('style','visibility:hidden;'); u.setAttribute('x','0'); u.setAttribute('y','0'); }
function shl(x) { u=document.getElementById('useline'); u.setAttribute('x',x); u.setAttribute('style','visibility:visible;'); }
function hhl() { u=document.getElementById('useline'); u.setAttribute('style','visibility:hidden;'); u.setAttribute('x','0'); }
function sh(xl,xb,y,dat) { shl(xl); shb(xb,y,dat); }
function hh() { hhb(); hhl(); }
]]></script>
<rect x="-48" y="-272" width="741" height="330" class="bg" />
<line x1="17" y1="0" x2="17" y2="4" class="axes" /><text x="22" y="8" transform="rotate(-90,22,8)" style="text-anchor:end;">04.2017</text><line x1="44" y1="0" x2="44" y2="4" class="axes" /><text x="49" y="8" transform="rotate(-90,49,8)" style="text-anchor:end;">07.2017</text><line x1="71" y1="0" x2="71" y2="4" class="axes" /><text x="76" y="8" transform="rotate(-90,76,8)" style="text-anchor:end;">10.2017</text><line x1="98" y1="0" x2="98" y2="4" class="axes" /><text x="103" y="8" transform="rotate(-90,103,8)" style="text-anchor:end;">01.2018</text><line x1="125" y1="0" x2="125" y2="4" class="axes" /><text x="130" y="8" transform="rotate(-90,130,8)" style="text-anchor:end;">04.2018</text><line x1="152" y1="0" x2="152" y2="4" class="axes" /><text x="157" y="8" transform="rotate(-90,157,8)" style="text-anchor:end;">07.2018</text><line x1="179" y1="0" x2="179" y2="4" class="axes" /><text x="184" y="8" transform="rotate(-90,184,8)" style="text-anchor:end;">10.2018</text><line x1="206" y1="0" x2="206" y2="4" class="axes" /><text x="211" y="8" transform="rotate(-90,211,8)" style="text-anchor:end;">01.2019</text><line x1="233" y1="0" x2="233" y2="4" class="axes" /><text x="238" y="8" transform="rotate(-90,238,8)" style="text-anchor:end;">04.2019</text><line x1="251" y1="0" x2="251" y2="4" class="axes" /><text x="256" y="8" transform="rotate(-90,256,8)" style="text-anchor:end;">07.2019</text><line x1="278" y1="0" x2="278" y2="4" class="axes" /><text x="283" y="8" transform="rotate(-90,283,8)" style="text-anchor:end;">10.2019</text><line x1="305" y1="0" x2="305" y2="4" class="axes" /><text x="310" y="8" transform="rotate(-90,310,8)" style="text-anchor:end;">01.2020</text><line x1="332" y1="0" x2="332" y2="4" class="axes" /><text x="337" y="8" transform="rotate(-90,337,8)" style="text-anchor:end;">04.2020</text><line x1="359" y1="0" x2="359" y2="4" class="axes" /><text x="364" y="8" transform="rotate(-90,364,8)" style="text-anchor:end;">07.2020</text><line x1="386" y1="0" x2="386" y2="4" class="axes" /><text x="391" y="8" transform="rotate(-90,391,8)" style="text-anchor:end;">10.2020</text><line x1="413" y1="0" x2="413" y2="4" class="axes" /><text x="418" y="8" transform="rotate(-90,418,8)" style="text-anchor:end;">01.2021</text><line x1="440" y1="0" x2="440" y2="4" class="axes" /><text x="445" y="8" transform="rotate(-90,445,8)" style="text-anchor:end;">04.2021</text><line x1="467" y1="0" x2="467" y2="4" class="axes" /><text x="472" y="8" transform="rotate(-90,472,8)" style="text-anchor:end;">07.2021</text><line x1="494" y1="0" x2="494" y2="4" class="axes" /><text x="499" y="8" transform="rotate(-90,499,8)" style="text-anchor:end;">10.2021</text><line x1="521" y1="0" x2="521" y2="4" class="axes" /><text x="526" y="8" transform="rotate(-90,526,8)" style="text-anchor:end;">01.2022</text><line x1="548" y1="0" x2="548" y2="4" class="axes" /><text x="553" y="8" transform="rotate(-90,553,8)" style="text-anchor:end;">04.2022</text><line x1="575" y1="0" x2="575" y2="4" class="axes" /><text x="580" y="8" transform="rotate(-90,580,8)" style="text-anchor:end;">07.2022</text><line x1="602" y1="0" x2="602" y2="4" class="axes" /><text x="607" y="8" transform="rotate(-90,607,8)" style="text-anchor:end;">10.2022</text><line x1="629" y1="0" x2="629" y2="4" class="axes" /><text x="634" y="8" transform="rotate(-90,634,8)" style="text-anchor:end;">01.2023</text><line x1="656" y1="0" x2="656" y2="4" class="axes" /><text x="661" y="8" transform="rotate(-90,661,8)" style="text-anchor:end;">04.2023</text>
<line x1="0" y1="-22" x2="681" y2="-22" class="grid" /><line x1="0" y1="-22" x2="-4" y2="-22" class="axes" /><text x="-8" y="-18" style="text-anchor:end;">20</text><line x1="0" y1="-44" x2="681" y2="-44" class="grid" /><line x1="0" y1="-44" x2="-4" y2="-44" class="axes" /><text x="-8" y="-40" style="text-anchor:end;">25</text><line x1="0" y1="-66" x2="681" y2="-66" class="grid" /><line x1="0" y1="-66" x2="-4" y2="-66" class="axes" /><text x="-8" y="-62" style="text-anchor:end;">30</text><line x1="0" y1="-88" x2="681" y2="-88" class="grid" /><line x1="0" y1="-88" x2="-4" y2="-88" class="axes" /><text x="-8" y="-84" style="text-anchor:end;">35</text><line x1="0" y1="-110" x2="681" y2="-110" class="grid" /><line x1="0" y1="-110" x2="-4" y2="-110" class="axes" /><text x="-8" y="-106" style="text-anchor:end;">40</text><line x1="0" y1="-132" x2="681" y2="-132" class="grid" /><line x1="0" y1="-132" x2="-4" y2="-132" class="axes" /><text x="-8" y="-128" style="text-anchor:end;">45</text><line x1="0" y1="-154" x2="681" y2="-154" class="grid" /><line x1="0" y1="-154" x2="-4" y2="-154" class="axes" /><text x="-8" y="-150" style="text-anchor:end;">50</text><line x1="0" y1="-176" x2="681" y2="-176" class="grid" /><line x1="0" y1="-176" x2="-4" y2="-176" class="axes" /><text x="-8" y="-172" style="text-anchor:end;">55</text><line x1="0" y1="-198" x2="681" y2="-198" class="grid" /><line x1="0" y1="-198" x2="-4" y2="-198" class="axes" /><text x="-8" y="-194" style="text-anchor:end;">60</text><line x1="0" y1="-220" x2="681" y2="-220" class="grid" /><line x1="0" y1="-220" x2="-4" y2="-220" class="axes" /><text x="-8" y="-216" style="text-anchor:end;">65</text><line x1="0" y1="-242" x2="681" y2="-242" class="grid" /><line x1="0" y1="-242" x2="-4" y2="-242" class="axes" /><text x="-8" y="-238" style="text-anchor:end;">70</text>
<use xlink:href="#hintline" id="useline" x="0" style="visibility:hidden;" />
<rect x="5" y="-242" width="6" height="242" style="fill:transparent;" onmouseover="sh(8,8,-248,'01.03.2017 32,23');" onmouseout="hh();" /><rect x="5" y="-76" width="6" height="76" style="fill:#0080C0;" onmouseover="sh(8,8,-248,'01.03.2017 32,23');" onmouseout="hh();" /><rect x="14" y="-242" width="6" height="242" style="fill:transparent;" onmouseover="sh(17,17,-248,'01.04.2017 33,23');" onmouseout="hh();" /><rect x="14" y="-80" width="6" height="80" style="fill:#0080C0;" onmouseover="sh(17,17,-248,'01.04.2017 33,23');" onmouseout="hh();" /><rect x="23" y="-242" width="6" height="242" style="fill:transparent;" onmouseover="sh(26,26,-248,'01.05.2017 32,83');" onmouseout="hh();" /><rect x="23" y="-78" width="6" height="78" style="fill:#0080C0;" onmouseover="sh(26,26,-248,'01.05.2017 32,83');" onmouseout="hh();" /><rect x="32" y="-242" width="6" height="242" style="fill:transparent;" onmouseover="sh(35,35,-248,'01.06.2017 32,90');" onmouseout="hh();" /><rect x="32" y="-79" width="6" height="79" style="fill:#0080C0;" onmouseover="sh(35,35,-248,'01.06.2017 32,90');" onmouseout="hh();" /><rect x="41" y="-242" width="6" height="242" style="fill:transparent;" onmouseover="sh(44,44,-248,'01.07.2017 31,81');" onmouseout="hh();" /><rect x="41" y="-74" width="6" height="74" style="fill:#0080C0;" onmouseover="sh(44,44,-248,'01.07.2017 31,81');" onmouseout="hh();" /><rect x="50" y="-242" width="6" height="242" style="fill:transparent;" onmouseover="sh(53,53,-248,'01.08.2017 32,67');" onmouseout="hh();" /><rect x="50" y="-78" width="6" height="78" style="fill:#0080C0;" onmouseover="sh(53,53,-248,'01.08.2017 32,67');" onmouseout="hh();" /><rect x="59" y="-242" width="6" height="242" style="fill:transparent;" onmouseover="sh(62,62,-248,'01.09.2017 32,57');" onmouseout="hh();" /><rect x="59" y="-77" width="6" height="77" style="fill:#0080C0;" onmouseover="sh(62,62,-248,'01.09.2017 32,57');" onmouseout="hh();" /><rect x="68" y="-242" width="6" height="242" style="fill:transparent;" onmouseover="sh(71,71,-248,'01.10.2017 32,74');" onmouseout="hh();" /><rect x="68" y="-78" width="6" height="78" style="fill:#0080C0;" onmouseover="sh(71,71,-248,'01.10.2017 32,74');" onmouseout="hh();" /><rect x="77" y="-242" width="6" height="242" style="fill:transparent;" onmouseover="sh(80,80,-248,'01.11.2017 31,23');" onmouseout="hh();" /><rect x="77" y="-71" width="6" height="71" style="fill:#0080C0;" onmouseover="sh(80,80,-248,'01.11.2017 31,23');" onmouseout="hh();" /><rect x="86" y="-242" width="6" height="242" style="fill:transparent;" onmouseover="sh(89,89,-248,'01.12.2017 31,70');" onmouseout="hh();" /><rect x="86" y="-73" width="6" height="73" style="fill:#0080C0;" onmouseover="sh(89,89,-248,'01.12.2017 31,70');" onmouseout="hh();" /><rect x="95" y="-242" width="6" height="242" style="fill:transparent;" onmouseover="sh(98,98,-248,'01.01.2018 32,48');" onmouseout="hh();" /><rect x="95" y="-77" width="6" height="77" style="fill:#0080C0;" onmouseover="sh(98,98,-248,'01.01.2018 32,48');" onmouseout="hh();" /><rect x="104" y="-242" width="6" height="242" style="fill:transparent;" onmouseover="sh(107,107,-248,'01.02.2018 32,67');" onmouseout="hh();" /><rect x="104" y="-78" width="6" height="78" style="fill:#0080C0;" onmouseover="sh(107,107,-248,'01.02.2018 32,67');" onmouseout="hh();" /><rect x="113" y="-242" width="6" height="242" style="fill:transparent;" onmouseover="sh(116,116,-248,'01.03.2018 33,18');" onmouseout="hh();" /><rect x="113" y="-80" width="6" height="80" style="fill:#0080C0;" onmouseover="sh(116,116,-248,'01.03.2018 33,18');" onmouseout="hh();" /><rect x="122" y="-242" width="6" height="242" style="fill:transparent;" onmouseover="sh(125,125,-248,'01.04.2018 29,90');" onmouseout="hh();" /><rect x="122" y="-66" width="6" height="66" style="fill:#0080C0;" onmouseover="sh(125,125,-248,'01.04.2018 29,90');" onmouseout="hh();" /><rect x="131" y="-242" width="6" height="242" style="fill:transparent;" onmouseover="sh(134,134,-248,'01.05.2018 32,41');" onmouseout="hh();" /><rect x="131" y="-77" width="6" height="77" style="fill:#0080C0;" onmouseover="sh(134,134,-248,'01.05.2018 32,41');" onmouseout="hh();" /><rect x="140" y="-242" width="6" height="242" style="fill:transparent;" onmouseover="sh(143,143,-248,'01.06.2018 32,29');" onmouseout="hh();" /><rect x="140" y="-76" width="6" height="76" style="fill:#0080C0;" onmouseover="sh(143,143,-248,'01.06.2018 32,29');" onmouseout="hh();" /><rect x="149" y="-242" width="6" height="242" style="fill:transparent;" onmouseover="sh(152,152,-248,'01.07.2018 35,92');" onmouseout="hh();" /><rect x="149" y="-92" width="6" height="92" style="fill:#0080C0;" onmouseover="sh(152,152,-248,'01.07.2018 35,92');" onmouseout="hh();" /><rect x="158" y="-242" width="6" height="242" style="fill:transparent;" onmouseover="sh(161,161,-248,'01.08.2018 34,03');" onmouseout="hh();" /><rect x="158" y="-84" width="6" height="84" style="fill:#0080C0;" onmouseover="sh(161,161,-248,'01.08.2018 34,03');" onmouseout="hh();" /><rect x="167" y="-242" width="6" height="242" style="fill:transparent;" onmouseover="sh(170,170,-248,'01.09.2018 35,03');" onmouseout="hh();" /><rect x="167" y="-88" width="6" height="88" style="fill:#0080C0;" onmouseover="sh(170,170,-248,'01.09.2018 35,03');" onmouseout="hh();" /><rect x="176" y="-242" width="6" height="242" style="fill:transparent;" onmouseover="sh(179,179,-248,'01.10.2018 33,13');" onmouseout="hh();" /><rect x="176" y="-80" width="6" height="80" style="fill:#0080C0;" onmouseover="sh(179,179,-248,'01.10.2018 33,13');" onmouseout="hh();" /><rect x="185" y="-242" width="6" height="242" style="fill:transparent;" onmouseover="sh(188,188,-248,'01.11.2018 33,73');" onmouseout="hh();" /><rect x="185" y="-82" width="6" height="82" style="fill:#0080C0;" onmouseover="sh(188,188,-248,'01.11.2018 33,73');" onmouseout="hh();" /><rect x="194" y="-242" width="6" height="242" style="fill:transparent;" onmouseover="sh(197,197,-248,'01.12.2018 34,80');" onmouseout="hh();" /><rect x="194" y="-87" width="6" height="87" style="fill:#0080C0;" onmouseover="sh(197,197,-248,'01.12.2018 34,80');" onmouseout="hh();" /><rect x="203" y="-242" width="6" height="242" style="fill:transparent;" onmouseover="sh(206,206,-248,'01.01.2019 34,57');" onmouseout="hh();" /><rect x="203" y="-86" width="6" height="86" style="fill:#0080C0;" onmouseover="sh(206,206,-248,'01.01.2019 34,57');" onmouseout="hh();" /><rect x="212" y="-242" width="6" height="242" style="fill:transparent;" onmouseover="sh(215,215,-248,'01.02.2019 34,17');" onmouseout="hh();" /><rect x="212" y="-84" width="6" height="84" style="fill:#0080C0;" onmouseover="sh(215,215,-248,'01.02.2019 34,17');" onmouseout="hh();" /><rect x="221" y="-242" width="6" height="242" style="fill:transparent;" onmouseover="sh(224,224,-248,'01.03.2019 34,49');" onmouseout="hh();" /><rect x="221" y="-86" width="6" height="86" style="fill:#0080C0;" onmouseover="sh(224,224,-248,'01.03.2019 34,49');" onmouseout="hh();" /><rect x="230" y="-242" width="6" height="242" style="fill:transparent;" onmouseover="sh(233,233,-248,'01.04.2019 34,69');" onmouseout="hh();" /><rect x="230" y="-87" width="6" height="87" style="fill:#0080C0;" onmouseover="sh(233,233,-248,'01.04.2019 34,69');" onmouseout="hh();" /><rect x="239" y="-242" width="6" height="242" style="fill:transparent;" onmouseover="sh(242,242,-248,'01.05.2019 36,99');" onmouseout="hh();" /><rect x="239" y="-97" width="6" height="97" style="fill:#0080C0;" onmouseover="sh(242,242,-248,'01.05.2019 36,99');" onmouseout="hh();" /><rect x="248" y="-242" width="6" height="242" style="fill:transparent;" onmouseover="sh(251,251,-248,'01.07.2019 30,40');" onmouseout="hh();" /><rect x="248" y="-68" width="6" height="68" style="fill:#0080C0;" onmouseover="sh(251,251,-248,'01.07.2019 30,40');" onmouseout="hh();" /><rect x="257" y="-242" width="6" height="242" style="fill:transparent;" onmouseover="sh(260,260,-248,'01.08.2019 29,93');" onmouseout="hh();" /><rect x="257" y="-66" width="6" height="66" style="fill:#0080C0;" onmouseover="sh(260,260,-248,'01.08.2019 29,93');" onmouseout="hh();" /><rect x="266" y="-242" width="6" height="242" style="fill:transparent;" onmouseover="sh(269,269,-248,'01.09.2019 32,11');" onmouseout="hh();" /><rect x="266" y="-75" width="6" height="75" style="fill:#0080C0;" onmouseover="sh(269,269,-248,'01.09.2019 32,11');" onmouseout="hh();" /><rect x="275" y="-242" width="6" height="242" style="fill:transparent;" onmouseover="sh(278,278,-248,'01.10.2019 34,20');" onmouseout="hh();" /><rect x="275" y="-84" width="6" height="84" style="fill:#0080C0;" onmouseover="sh(278,278,-248,'01.10.2019 34,20');" onmouseout="hh();" /><rect x="284" y="-242" width="6" height="242" style="fill:transparent;" onmouseover="sh(287,287,-248,'01.11.2019 32,95');" onmouseout="hh();" /><rect x="284" y="-79" width="6" height="79" style="fill:#0080C0;" onmouseover="sh(287,287,-248,'01.11.2019 32,95');" onmouseout="hh();" /><rect x="293" y="-242" width="6" height="242" style="fill:transparent;" onmouseover="sh(296,296,-248,'01.12.2019 27,77');" onmouseout="hh();" /><rect x="293" y="-56" width="6" height="56" style="fill:#0080C0;" onmouseover="sh(296,296,-248,'01.12.2019 27,77');" onmouseout="hh();" /><rect x="302" y="-242" width="6" height="242" style="fill:transparent;" onmouseover="sh(305,305,-248,'01.01.2020 31,28');" onmouseout="hh();" /><rect x="302" y="-72" width="6" height="72" style="fill:#0080C0;" onmouseover="sh(305,305,-248,'01.01.2020 31,28');" onmouseout="hh();" /><rect x="311" y="-242" width="6" height="242" style="fill:transparent;" onmouseover="sh(314,314,-248,'01.02.2020 30,68');" onmouseout="hh();" /><rect x="311" y="-69" width="6" height="69" style="fill:#0080C0;" onmouseover="sh(314,314,-248,'01.02.2020 30,68');" onmouseout="hh();" /><rect x="320" y="-242" width="6" height="242" style="fill:transparent;" onmouseover="sh(323,323,-248,'01.03.2020 32,90');" onmouseout="hh();" /><rect x="320" y="-79" width="6" height="79" style="fill:#0080C0;" onmouseover="sh(323,323,-248,'01.03.2020 32,90');" onmouseout="hh();" /><rect x="329" y="-242" width="6" height="242" style="fill:transparent;" onmouseover="sh(332,332,-248,'01.04.2020 32,19');" onmouseout="hh();" /><rect x="329" y="-76" width="6" height="76" style="fill:#0080C0;" onmouseover="sh(332,332,-248,'01.04.2020 32,19');" onmouseout="hh();" /><rect x="338" y="-242" width="6" height="242" style="fill:transparent;" onmouseover="sh(341,341,-248,'01.05.2020 33,74');" onmouseout="hh();" /><rect x="338" y="-82" width="6" height="82" style="fill:#0080C0;" onmouseover="sh(341,341,-248,'01.05.2020 33,74');" onmouseout="hh();" /><rect x="347" y="-242" width="6" height="242" style="fill:transparent;" onmouseover="sh(350,350,-248,'01.06.2020 33,83');" onmouseout="hh();" /><rect x="347" y="-83" width="6" height="83" style="fill:#0080C0;" onmouseover="sh(350,350,-248,'01.06.2020 33,83');" onmouseout="hh();" /><rect x="356" y="-242" width="6" height="242" style="fill:transparent;" onmouseover="sh(359,359,-248,'01.07.2020 33,17');" onmouseout="hh();" /><rect x="356" y="-80" width="6" height="80" style="fill:#0080C0;" onmouseover="sh(359,359,-248,'01.07.2020 33,17');" onmouseout="hh();" /><rect x="365" y="-242" width="6" height="242" style="fill:transparent;" onmouseover="sh(368,368,-248,'01.08.2020 34,02');" onmouseout="hh();" /><rect x="365" y="-84" width="6" height="84" style="fill:#0080C0;" onmouseover="sh(368,368,-248,'01.08.2020 34,02');" onmouseout="hh();" /><rect x="374" y="-242" width="6" height="242" style="fill:transparent;" onmouseover="sh(377,377,-248,'01.09.2020 34,36');" onmouseout="hh();" /><rect x="374" y="-85" width="6" height="85" style="fill:#0080C0;" onmouseover="sh(377,377,-248,'01.09.2020 34,36');" onmouseout="hh();" /><rect x="383" y="-242" width="6" height="242" style="fill:transparent;" onmouseover="sh(386,386,-248,'01.10.2020 34,46');" onmouseout="hh();" /><rect x="383" y="-86" width="6" height="86" style="fill:#0080C0;" onmouseover="sh(386,386,-248,'01.10.2020 34,46');" onmouseout="hh();" /><rect x="392" y="-242" width="6" height="242" style="fill:transparent;" onmouseover="sh(395,395,-248,'01.11.2020 37,19');" onmouseout="hh();" /><rect x="392" y="-98" width="6" height="98" style="fill:#0080C0;" onmouseover="sh(395,395,-248,'01.11.2020 37,19');" onmouseout="hh();" /><rect x="401" y="-242" width="6" height="242" style="fill:transparent;" onmouseover="sh(404,404,-248,'01.12.2020 41,49');" onmouseout="hh();" /><rect x="401" y="-117" width="6" height="117" style="fill:#0080C0;" onmouseover="sh(404,404,-248,'01.12.2020 41,49');" onmouseout="hh();" /><rect x="410" y="-242" width="6" height="242" style="fill:transparent;" onmouseover="sh(413,413,-248,'01.01.2021 41,73');" onmouseout="hh();" /><rect x="410" y="-118" width="6" height="118" style="fill:#0080C0;" onmouseover="sh(413,413,-248,'01.01.2021 41,73');" onmouseout="hh();" /><rect x="419" y="-242" width="6" height="242" style="fill:transparent;" onmouseover="sh(422,422,-248,'01.02.2021 46,38');" onmouseout="hh();" /><rect x="419" y="-138" width="6" height="138" style="fill:#0080C0;" onmouseover="sh(422,422,-248,'01.02.2021 46,38');" onmouseout="hh();" /><rect x="428" y="-242" width="6" height="242" style="fill:transparent;" onmouseover="sh(431,431,-248,'01.03.2021 48,02');" onmouseout="hh();" /><rect x="428" y="-145" width="6" height="145" style="fill:#0080C0;" onmouseover="sh(431,431,-248,'01.03.2021 48,02');" onmouseout="hh();" /><rect x="437" y="-242" width="6" height="242" style="fill:transparent;" onmouseover="sh(440,440,-248,'01.04.2021 51,74');" onmouseout="hh();" /><rect x="437" y="-162" width="6" height="162" style="fill:#0080C0;" onmouseover="sh(440,440,-248,'01.04.2021 51,74');" onmouseout="hh();" /><rect x="446" y="-242" width="6" height="242" style="fill:transparent;" onmouseover="sh(449,449,-248,'01.05.2021 56,79');" onmouseout="hh();" /><rect x="446" y="-184" width="6" height="184" style="fill:#0080C0;" onmouseover="sh(449,449,-248,'01.05.2021 56,79');" onmouseout="hh();" /><rect x="455" y="-242" width="6" height="242" style="fill:transparent;" onmouseover="sh(458,458,-248,'01.06.2021 57,50');" onmouseout="hh();" /><rect x="455" y="-187" width="6" height="187" style="fill:#0080C0;" onmouseover="sh(458,458,-248,'01.06.2021 57,50');" onmouseout="hh();" /><rect x="464" y="-242" width="6" height="242" style="fill:transparent;" onmouseover="sh(467,467,-248,'01.07.2021 58,96');" onmouseout="hh();" /><rect x="464" y="-193" width="6" height="193" style="fill:#0080C0;" onmouseover="sh(467,467,-248,'01.07.2021 58,96');" onmouseout="hh();" /><rect x="473" y="-242" width="6" height="242" style="fill:transparent;" onmouseover="sh(476,476,-248,'01.08.2021 56,03');" onmouseout="hh();" /><rect x="473" y="-181" width="6" height="181" style="fill:#0080C0;" onmouseover="sh(476,476,-248,'01.08.2021 56,03');" onmouseout="hh();" /><rect x="482" y="-242" width="6" height="242" style="fill:transparent;" onmouseover="sh(485,485,-248,'01.09.2021 55,52');" onmouseout="hh();" /><rect x="482" y="-178" width="6" height="178" style="fill:#0080C0;" onmouseover="sh(485,485,-248,'01.09.2021 55,52');" onmouseout="hh();" /><rect x="491" y="-242" width="6" height="242" style="fill:transparent;" onmouseover="sh(494,494,-248,'01.10.2021 53,28');" onmouseout="hh();" /><rect x="491" y="-168" width="6" height="168" style="fill:#0080C0;" onmouseover="sh(494,494,-248,'01.10.2021 53,28');" onmouseout="hh();" /><rect x="500" y="-242" width="6" height="242" style="fill:transparent;" onmouseover="sh(503,503,-248,'01.11.2021 55,73');" onmouseout="hh();" /><rect x="500" y="-179" width="6" height="179" style="fill:#0080C0;" onmouseover="sh(503,503,-248,'01.11.2021 55,73');" onmouseout="hh();" /><rect x="509" y="-242" width="6" height="242" style="fill:transparent;" onmouseover="sh(512,512,-248,'01.12.2021 56,01');" onmouseout="hh();" /><rect x="509" y="-180" width="6" height="180" style="fill:#0080C0;" onmouseover="sh(512,512,-248,'01.12.2021 56,01');" onmouseout="hh();" /><rect x="518" y="-242" width="6" height="242" style="fill:transparent;" onmouseover="sh(521,521,-248,'01.01.2022 57,45');" onmouseout="hh();" /><rect x="518" y="-187" width="6" height="187" style="fill:#0080C0;" onmouseover="sh(521,521,-248,'01.01.2022 57,45');" onmouseout="hh();" /><rect x="527" y="-242" width="6" height="242" style="fill:transparent;" onmouseover="sh(530,530,-248,'01.02.2022 56,83');" onmouseout="hh();" /><rect x="527" y="-184" width="6" height="184" style="fill:#0080C0;" onmouseover="sh(530,530,-248,'01.02.2022 56,83');" onmouseout="hh();" /><rect x="536" y="-242" width="6" height="242" style="fill:transparent;" onmouseover="sh(539,539,-248,'01.03.2022 57,24');" onmouseout="hh();" /><rect x="536" y="-186" width="6" height="186" style="fill:#0080C0;" onmouseover="sh(539,539,-248,'01.03.2022 57,24');" onmouseout="hh();" /><rect x="545" y="-242" width="6" height="242" style="fill:transparent;" onmouseover="sh(548,548,-248,'01.04.2022 57,04');" onmouseout="hh();" /><rect x="545" y="-185" width="6" height="185" style="fill:#0080C0;" onmouseover="sh(548,548,-248,'01.04.2022 57,04');" onmouseout="hh();" /><rect x="554" y="-242" width="6" height="242" style="fill:transparent;" onmouseover="sh(557,557,-248,'01.05.2022 58,50');" onmouseout="hh();" /><rect x="554" y="-191" width="6" height="191" style="fill:#0080C0;" onmouseover="sh(557,557,-248,'01.05.2022 58,50');" onmouseout="hh();" /><rect x="563" y="-242" width="6" height="242" style="fill:transparent;" onmouseover="sh(566,566,-248,'01.06.2022 62,73');" onmouseout="hh();" /><rect x="563" y="-210" width="6" height="210" style="fill:#0080C0;" onmouseover="sh(566,566,-248,'01.06.2022 62,73');" onmouseout="hh();" /><rect x="572" y="-242" width="6" height="242" style="fill:transparent;" onmouseover="sh(575,575,-248,'01.07.2022 62,77');" onmouseout="hh();" /><rect x="572" y="-210" width="6" height="210" style="fill:#0080C0;" onmouseover="sh(575,575,-248,'01.07.2022 62,77');" onmouseout="hh();" /><rect x="581" y="-242" width="6" height="242" style="fill:transparent;" onmouseover="sh(584,584,-248,'01.08.2022 61,76');" onmouseout="hh();" /><rect x="581" y="-206" width="6" height="206" style="fill:#0080C0;" onmouseover="sh(584,584,-248,'01.08.2022 61,76');" onmouseout="hh();" /><rect x="590" y="-242" width="6" height="242" style="fill:transparent;" onmouseover="sh(593,593,-248,'01.09.2022 62,35');" onmouseout="hh();" /><rect x="590" y="-208" width="6" height="208" style="fill:#0080C0;" onmouseover="sh(593,593,-248,'01.09.2022 62,35');" onmouseout="hh();" /><rect x="599" y="-242" width="6" height="242" style="fill:transparent;" onmouseover="sh(602,602,-248,'01.10.2022 62,44');" onmouseout="hh();" /><rect x="599" y="-209" width="6" height="209" style="fill:#0080C0;" onmouseover="sh(602,602,-248,'01.10.2022 62,44');" onmouseout="hh();" /><rect x="608" y="-242" width="6" height="242" style="fill:transparent;" onmouseover="sh(611,611,-248,'01.11.2022 62,55');" onmouseout="hh();" /><rect x="608" y="-209" width="6" height="209" style="fill:#0080C0;" onmouseover="sh(611,611,-248,'01.11.2022 62,55');" onmouseout="hh();" /><rect x="617" y="-242" width="6" height="242" style="fill:transparent;" onmouseover="sh(620,614,-248,'01.12.2022 62,38');" onmouseout="hh();" /><rect x="617" y="-208" width="6" height="208" style="fill:#0080C0;" onmouseover="sh(620,614,-248,'01.12.2022 62,38');" onmouseout="hh();" /><rect x="626" y="-242" width="6" height="242" style="fill:transparent;" onmouseover="sh(629,614,-248,'01.01.2023 62,90');" onmouseout="hh();" /><rect x="626" y="-211" width="6" height="211" style="fill:#0080C0;" onmouseover="sh(629,614,-248,'01.01.2023 62,90');" onmouseout="hh();" /><rect x="635" y="-242" width="6" height="242" style="fill:transparent;" onmouseover="sh(638,614,-248,'01.02.2023 62,72');" onmouseout="hh();" /><rect x="635" y="-210" width="6" height="210" style="fill:#0080C0;" onmouseover="sh(638,614,-248,'01.02.2023 62,72');" onmouseout="hh();" /><rect x="644" y="-242" width="6" height="242" style="fill:transparent;" onmouseover="sh(647,614,-248,'01.03.2023 62,75');" onmouseout="hh();" /><rect x="644" y="-210" width="6" height="210" style="fill:#0080C0;" onmouseover="sh(647,614,-248,'01.03.2023 62,75');" onmouseout="hh();" /><rect x="653" y="-242" width="6" height="242" style="fill:transparent;" onmouseover="sh(656,614,-248,'01.04.2023 59,51');" onmouseout="hh();" /><rect x="653" y="-196" width="6" height="196" style="fill:#0080C0;" onmouseover="sh(656,614,-248,'01.04.2023 59,51');" onmouseout="hh();" /><rect x="662" y="-242" width="6" height="242" style="fill:transparent;" onmouseover="sh(665,614,-248,'01.05.2023 62,76');" onmouseout="hh();" /><rect x="662" y="-210" width="6" height="210" style="fill:#0080C0;" onmouseover="sh(665,614,-248,'01.05.2023 62,76');" onmouseout="hh();" /><rect x="671" y="-242" width="6" height="242" style="fill:transparent;" onmouseover="sh(674,614,-248,'01.06.2023 60,71');" onmouseout="hh();" /><rect x="671" y="-201" width="6" height="201" style="fill:#0080C0;" onmouseover="sh(674,614,-248,'01.06.2023 60,71');" onmouseout="hh();" />
<line x1="-6" y1="0" x2="684" y2="0" class="axes" /><line x1="0" y1="-258" x2="0" y2="0" class="axes" /><text x="-2" y="-262" style="text-anchor:end;">грн.</text>
<use xlink:href="#hintbox" id="usebox" x="0" y="0" style="visibility:hidden;" />
</svg>
