<?xml version="1.0" encoding="UTF-8" standalone="no"?>
<!DOCTYPE svg PUBLIC "-//W3C//DTD SVG 1.1//EN" "http://www.w3.org/Graphics/SVG/1.1/DTD/svg11.dtd">
<svg version="1.1" xmlns="http://www.w3.org/2000/svg" xmlns:xlink="http://www.w3.org/1999/xlink" xmlns:ev="http://www.w3.org/2001/xml-events" width="426" height="330" viewBox="-48 -272 426 330" preserveAspectRatio="none">
<style type="text/css"><![CDATA[
line { stroke-width:1px; }
line.axes { stroke:#505050; }
line.grid { stroke:#D8D8D8; }
rect.bg { fill:#FFFFFF; }
text { font-family:arial,sans-serif; font-size:12px; fill:#000000; }
]]></style>
<defs>
<g id="hintbox"><rect x="0" y="0" width="77" height="34" style="stroke:#505050; stroke-width:1px; fill:rgba(255,255,255,0.87);" /><text id="hint0" x="4" y="14"> </text><text x="7" y="28"></text><text id="hint1" x="73" y="28" style="text-anchor:end;"> </text></g>
<g id="hintline"><line x1="0" y1="-240" x2="0" y2="0" class="axes" style="stroke-dasharray:2 1" /></g>
</defs>
<script><![CDATA[
function shb(x,y,dat) {
ar=dat.split(' '); for (i=0; i<ar.length; ++i) { if (i&&ar[i]) ar[i]+=' грн.'; h=document.getElementById('hint'+i); h.textContent=ar[i]; }
u=document.getElementById('usebox'); u.setAttribute('x',x); u.setAttribute('y',y); u.setAttribute('style','visibility:visible;'); }
function hhb() { u=document.getElementById('usebox'); u.setAttribute('style','visibility:hidden;'); u.setAttribute('x','0'); u.setAttribute('y','0'); }
function shl(x) { u=document.getElementById('useline'); u.setAttribute('x',x); u.setAttribute('style','visibility:visible;'); }
function hhl() { u=document.getElementById('useline'); u.setAttribute('style','visibility:hidden;'); u.setAttribute('x','0'); }
function sh(xl,xb,y,dat) { shl(xl); shb(xb,y,dat); }
function hh() { hhb(); hhl(); }
]]></script>
<rect x="-48" y="-272" width="426" height="330" class="bg" />
<line x1="26" y1="0" x2="26" y2="4" class="axes" /><text x="31" y="8" transform="rotate(-90,31,8)" style="text-anchor:end;">10.2019</text><line x1="62" y1="0" x2="62" y2="4" class="axes" /><text x="67" y="8" transform="rotate(-90,67,8)" style="text-anchor:end;">04.2020</text><line x1="89" y1="0" x2="89" y2="4" class="axes" /><text x="94" y="8" transform="rotate(-90,94,8)" style="text-anchor:end;">07.2020</text><line x1="116" y1="0" x2="116" y2="4" class="axes" /><text x="121" y="8" transform="rotate(-90,121,8)" style="text-anchor:end;">10.2020</text><line x1="143" y1="0" x2="143" y2="4" class="axes" /><text x="148" y="8" transform="rotate(-90,148,8)" style="text-anchor:end;">01.2021</text><line x1="170" y1="0" x2="170" y2="4" class="axes" /><text x="175" y="8" transform="rotate(-90,175,8)" style="text-anchor:end;">04.2021</text><line x1="197" y1="0" x2="197" y2="4" class="axes" /><text x="202" y="8" transform="rotate(-90,202,8)" style="text-anchor:end;">07.2021</text><line x1="224" y1="0" x2="224" y2="4" class="axes" /><text x="229" y="8" transform="rotate(-90,229,8)" style="text-anchor:end;">10.2021</text><line x1="260" y1="0" x2="260" y2="4" class="axes" /><text x="265" y="8" transform="rotate(-90,265,8)" style="text-anchor:end;">07.2022</text><line x1="287" y1="0" x2="287" y2="4" class="axes" /><text x="292" y="8" transform="rotate(-90,292,8)" style="text-anchor:end;">10.2022</text><line x1="314" y1="0" x2="314" y2="4" class="axes" /><text x="319" y="8" transform="rotate(-90,319,8)" style="text-anchor:end;">01.2023</text><line x1="341" y1="0" x2="341" y2="4" class="axes" /><text x="346" y="8" transform="rotate(-90,346,8)" style="text-anchor:end;">04.2023</text>
<line x1="0" y1="-20" x2="366" y2="-20" class="grid" /><line x1="0" y1="-20" x2="-4" y2="-20" class="axes" /><text x="-8" y="-16" style="text-anchor:end;">10</text><line x1="0" y1="-40" x2="366" y2="-40" class="grid" /><line x1="0" y1="-40" x2="-4" y2="-40" class="axes" /><text x="-8" y="-36" style="text-anchor:end;">15</text><line x1="0" y1="-60" x2="366" y2="-60" class="grid" /><line x1="0" y1="-60" x2="-4" y2="-60" class="axes" /><text x="-8" y="-56" style="text-anchor:end;">20</text><line x1="0" y1="-80" x2="366" y2="-80" class="grid" /><line x1="0" y1="-80" x2="-4" y2="-80" class="axes" /><text x="-8" y="-76" style="text-anchor:end;">25</text><line x1="0" y1="-100" x2="366" y2="-100" class="grid" /><line x1="0" y1="-100" x2="-4" y2="-100" class="axes" /><text x="-8" y="-96" style="text-anchor:end;">30</text><line x1="0" y1="-120" x2="366" y2="-120" class="grid" /><line x1="0" y1="-120" x2="-4" y2="-120" class="axes" /><text x="-8" y="-116" style="text-anchor:end;">35</text><line x1="0" y1="-140" x2="366" y2="-140" class="grid" /><line x1="0" y1="-140" x2="-4" y2="-140" class="axes" /><text x="-8" y="-136" style="text-anchor:end;">40</text><line x1="0" y1="-160" x2="366" y2="-160" class="grid" /><line x1="0" y1="-160" x2="-4" y2="-160" class="axes" /><text x="-8" y="-156" style="text-anchor:end;">45</text><line x1="0" y1="-180" x2="366" y2="-180" class="grid" /><line x1="0" y1="-180" x2="-4" y2="-180" class="axes" /><text x="-8" y="-176" style="text-anchor:end;">50</text><line x1="0" y1="-200" x2="366" y2="-200" class="grid" /><line x1="0" y1="-200" x2="-4" y2="-200" class="axes" /><text x="-8" y="-196" style="text-anchor:end;">55</text><line x1="0" y1="-220" x2="366" y2="-220" class="grid" /><line x1="0" y1="-220" x2="-4" y2="-220" class="axes" /><text x="-8" y="-216" style="text-anchor:end;">60</text><line x1="0" y1="-240" x2="366" y2="-240" class="grid" /><line x1="0" y1="-240" x2="-4" y2="-240" class="axes" /><text x="-8" y="-236" style="text-anchor:end;">65</text>
<use xlink:href="#hintline" id="useline" x="0" style="visibility:hidden;" />
<rect x="5" y="-240" width="6" height="240" style="fill:transparent;" onmouseover="sh(8,8,-246,'01.08.2019 19,29');" onmouseout="hh();" /><rect x="5" y="-57" width="6" height="57" style="fill:#0080C0;" onmouseover="sh(8,8,-246,'01.08.2019 19,29');" onmouseout="hh();" /><rect x="14" y="-240" width="6" height="240" style="fill:transparent;" onmouseover="sh(17,17,-246,'01.09.2019 18,80');" onmouseout="hh();" /><rect x="14" y="-55" width="6" height="55" style="fill:#0080C0;" onmouseover="sh(17,17,-246,'01.09.2019 18,80');" onmouseout="hh();" /><rect x="23" y="-240" width="6" height="240" style="fill:transparent;" onmouseover="sh(26,26,-246,'01.10.2019 19,36');" onmouseout="hh();" /><rect x="23" y="-57" width="6" height="57" style="fill:#0080C0;" onmouseover="sh(26,26,-246,'01.10.2019 19,36');" onmouseout="hh();" /><rect x="32" y="-240" width="6" height="240" style="fill:transparent;" onmouseover="sh(35,35,-246,'01.11.2019 21,99');" onmouseout="hh();" /><rect x="32" y="-68" width="6" height="68" style="fill:#0080C0;" onmouseover="sh(35,35,-246,'01.11.2019 21,99');" onmouseout="hh();" /><rect x="41" y="-240" width="6" height="240" style="fill:transparent;" onmouseover="sh(44,44,-246,'01.02.2020 21,99');" onmouseout="hh();" /><rect x="41" y="-68" width="6" height="68" style="fill:#0080C0;" onmouseover="sh(44,44,-246,'01.02.2020 21,99');" onmouseout="hh();" /><rect x="50" y="-240" width="6" height="240" style="fill:transparent;" onmouseover="sh(53,53,-246,'01.03.2020 27,04');" onmouseout="hh();" /><rect x="50" y="-88" width="6" height="88" style="fill:#0080C0;" onmouseover="sh(53,53,-246,'01.03.2020 27,04');" onmouseout="hh();" /><rect x="59" y="-240" width="6" height="240" style="fill:transparent;" onmouseover="sh(62,62,-246,'01.04.2020 29,99');" onmouseout="hh();" /><rect x="59" y="-100" width="6" height="100" style="fill:#0080C0;" onmouseover="sh(62,62,-246,'01.04.2020 29,99');" onmouseout="hh();" /><rect x="68" y="-240" width="6" height="240" style="fill:transparent;" onmouseover="sh(71,71,-246,'01.05.2020 29,99');" onmouseout="hh();" /><rect x="68" y="-100" width="6" height="100" style="fill:#0080C0;" onmouseover="sh(71,71,-246,'01.05.2020 29,99');" onmouseout="hh();" /><rect x="77" y="-240" width="6" height="240" style="fill:transparent;" onmouseover="sh(80,80,-246,'01.06.2020 29,99');" onmouseout="hh();" /><rect x="77" y="-100" width="6" height="100" style="fill:#0080C0;" onmouseover="sh(80,80,-246,'01.06.2020 29,99');" onmouseout="hh();" /><rect x="86" y="-240" width="6" height="240" style="fill:transparent;" onmouseover="sh(89,89,-246,'01.07.2020 29,99');" onmouseout="hh();" /><rect x="86" y="-100" width="6" height="100" style="fill:#0080C0;" onmouseover="sh(89,89,-246,'01.07.2020 29,99');" onmouseout="hh();" /><rect x="95" y="-240" width="6" height="240" style="fill:transparent;" onmouseover="sh(98,98,-246,'01.08.2020 29,99');" onmouseout="hh();" /><rect x="95" y="-100" width="6" height="100" style="fill:#0080C0;" onmouseover="sh(98,98,-246,'01.08.2020 29,99');" onmouseout="hh();" /><rect x="104" y="-240" width="6" height="240" style="fill:transparent;" onmouseover="sh(107,107,-246,'01.09.2020 29,38');" onmouseout="hh();" /><rect x="104" y="-98" width="6" height="98" style="fill:#0080C0;" onmouseover="sh(107,107,-246,'01.09.2020 29,38');" onmouseout="hh();" /><rect x="113" y="-240" width="6" height="240" style="fill:transparent;" onmouseover="sh(116,116,-246,'01.10.2020 22,74');" onmouseout="hh();" /><rect x="113" y="-71" width="6" height="71" style="fill:#0080C0;" onmouseover="sh(116,116,-246,'01.10.2020 22,74');" onmouseout="hh();" /><rect x="122" y="-240" width="6" height="240" style="fill:transparent;" onmouseover="sh(125,125,-246,'01.11.2020 24,82');" onmouseout="hh();" /><rect x="122" y="-79" width="6" height="79" style="fill:#0080C0;" onmouseover="sh(125,125,-246,'01.11.2020 24,82');" onmouseout="hh();" /><rect x="131" y="-240" width="6" height="240" style="fill:transparent;" onmouseover="sh(134,134,-246,'01.12.2020 25,03');" onmouseout="hh();" /><rect x="131" y="-80" width="6" height="80" style="fill:#0080C0;" onmouseover="sh(134,134,-246,'01.12.2020 25,03');" onmouseout="hh();" /><rect x="140" y="-240" width="6" height="240" style="fill:transparent;" onmouseover="sh(143,143,-246,'01.01.2021 24,49');" onmouseout="hh();" /><rect x="140" y="-78" width="6" height="78" style="fill:#0080C0;" onmouseover="sh(143,143,-246,'01.01.2021 24,49');" onmouseout="hh();" /><rect x="149" y="-240" width="6" height="240" style="fill:transparent;" onmouseover="sh(152,152,-246,'01.02.2021 24,49');" onmouseout="hh();" /><rect x="149" y="-78" width="6" height="78" style="fill:#0080C0;" onmouseover="sh(152,152,-246,'01.02.2021 24,49');" onmouseout="hh();" /><rect x="158" y="-240" width="6" height="240" style="fill:transparent;" onmouseover="sh(161,161,-246,'01.03.2021 24,49');" onmouseout="hh();" /><rect x="158" y="-78" width="6" height="78" style="fill:#0080C0;" onmouseover="sh(161,161,-246,'01.03.2021 24,49');" onmouseout="hh();" /><rect x="167" y="-240" width="6" height="240" style="fill:transparent;" onmouseover="sh(170,170,-246,'01.04.2021 24,49');" onmouseout="hh();" /><rect x="167" y="-78" width="6" height="78" style="fill:#0080C0;" onmouseover="sh(170,170,-246,'01.04.2021 24,49');" onmouseout="hh();" /><rect x="176" y="-240" width="6" height="240" style="fill:transparent;" onmouseover="sh(179,179,-246,'01.05.2021 24,49');" onmouseout="hh();" /><rect x="176" y="-78" width="6" height="78" style="fill:#0080C0;" onmouseover="sh(179,179,-246,'01.05.2021 24,49');" onmouseout="hh();" /><rect x="185" y="-240" width="6" height="240" style="fill:transparent;" onmouseover="sh(188,188,-246,'01.06.2021 24,49');" onmouseout="hh();" /><rect x="185" y="-78" width="6" height="78" style="fill:#0080C0;" onmouseover="sh(188,188,-246,'01.06.2021 24,49');" onmouseout="hh();" /><rect x="194" y="-240" width="6" height="240" style="fill:transparent;" onmouseover="sh(197,197,-246,'01.07.2021 25,18');" onmouseout="hh();" /><rect x="194" y="-81" width="6" height="81" style="fill:#0080C0;" onmouseover="sh(197,197,-246,'01.07.2021 25,18');" onmouseout="hh();" /><rect x="203" y="-240" width="6" height="240" style="fill:transparent;" onmouseover="sh(206,206,-246,'01.08.2021 32,59');" onmouseout="hh();" /><rect x="203" y="-110" width="6" height="110" style="fill:#0080C0;" onmouseover="sh(206,206,-246,'01.08.2021 32,59');" onmouseout="hh();" /><rect x="212" y="-240" width="6" height="240" style="fill:transparent;" onmouseover="sh(215,215,-246,'01.09.2021 31,53');" onmouseout="hh();" /><rect x="212" y="-106" width="6" height="106" style="fill:#0080C0;" onmouseover="sh(215,215,-246,'01.09.2021 31,53');" onmouseout="hh();" /><rect x="221" y="-240" width="6" height="240" style="fill:transparent;" onmouseover="sh(224,224,-246,'01.10.2021 30,43');" onmouseout="hh();" /><rect x="221" y="-102" width="6" height="102" style="fill:#0080C0;" onmouseover="sh(224,224,-246,'01.10.2021 30,43');" onmouseout="hh();" /><rect x="230" y="-240" width="6" height="240" style="fill:transparent;" onmouseover="sh(233,233,-246,'01.11.2021 26,99');" onmouseout="hh();" /><rect x="230" y="-88" width="6" height="88" style="fill:#0080C0;" onmouseover="sh(233,233,-246,'01.11.2021 26,99');" onmouseout="hh();" /><rect x="239" y="-240" width="6" height="240" style="fill:transparent;" onmouseover="sh(242,242,-246,'01.02.2022 46,09');" onmouseout="hh();" /><rect x="239" y="-164" width="6" height="164" style="fill:#0080C0;" onmouseover="sh(242,242,-246,'01.02.2022 46,09');" onmouseout="hh();" /><rect x="248" y="-240" width="6" height="240" style="fill:transparent;" onmouseover="sh(251,251,-246,'01.06.2022 38,39');" onmouseout="hh();" /><rect x="248" y="-134" width="6" height="134" style="fill:#0080C0;" onmouseover="sh(251,251,-246,'01.06.2022 38,39');" onmouseout="hh();" /><rect x="257" y="-240" width="6" height="240" style="fill:transparent;" onmouseover="sh(260,260,-246,'01.07.2022 35,40');" onmouseout="hh();" /><rect x="257" y="-122" width="6" height="122" style="fill:#0080C0;" onmouseover="sh(260,260,-246,'01.07.2022 35,40');" onmouseout="hh();" /><rect x="266" y="-240" width="6" height="240" style="fill:transparent;" onmouseover="sh(269,269,-246,'01.08.2022 33,29');" onmouseout="hh();" /><rect x="266" y="-113" width="6" height="113" style="fill:#0080C0;" onmouseover="sh(269,269,-246,'01.08.2022 33,29');" onmouseout="hh();" /><rect x="275" y="-240" width="6" height="240" style="fill:transparent;" onmouseover="sh(278,278,-246,'01.09.2022 39,87');" onmouseout="hh();" /><rect x="275" y="-139" width="6" height="139" style="fill:#0080C0;" onmouseover="sh(278,278,-246,'01.09.2022 39,87');" onmouseout="hh();" /><rect x="284" y="-240" width="6" height="240" style="fill:transparent;" onmouseover="sh(287,287,-246,'01.10.2022 48,45');" onmouseout="hh();" /><rect x="284" y="-174" width="6" height="174" style="fill:#0080C0;" onmouseover="sh(287,287,-246,'01.10.2022 48,45');" onmouseout="hh();" /><rect x="293" y="-240" width="6" height="240" style="fill:transparent;" onmouseover="sh(296,296,-246,'01.11.2022 49,56');" onmouseout="hh();" /><rect x="293" y="-178" width="6" height="178" style="fill:#0080C0;" onmouseover="sh(296,296,-246,'01.11.2022 49,56');" onmouseout="hh();" /><rect x="302" y="-240" width="6" height="240" style="fill:transparent;" onmouseover="sh(305,299,-246,'01.12.2022 45,49');" onmouseout="hh();" /><rect x="302" y="-162" width="6" height="162" style="fill:#0080C0;" onmouseover="sh(305,299,-246,'01.12.2022 45,49');" onmouseout="hh();" /><rect x="311" y="-240" width="6" height="240" style="fill:transparent;" onmouseover="sh(314,299,-246,'01.01.2023 40,36');" onmouseout="hh();" /><rect x="311" y="-141" width="6" height="141" style="fill:#0080C0;" onmouseover="sh(314,299,-246,'01.01.2023 40,36');" onmouseout="hh();" /><rect x="320" y="-240" width="6" height="240" style="fill:transparent;" onmouseover="sh(323,299,-246,'01.02.2023 45,49');" onmouseout="hh();" /><rect x="320" y="-162" width="6" height="162" style="fill:#0080C0;" onmouseover="sh(323,299,-246,'01.02.2023 45,49');" onmouseout="hh();" /><rect x="329" y="-240" width="6" height="240" style="fill:transparent;" onmouseover="sh(332,299,-246,'01.03.2023 45,49');" onmouseout="hh();" /><rect x="329" y="-162" width="6" height="162" style="fill:#0080C0;" onmouseover="sh(332,299,-246,'01.03.2023 45,49');" onmouseout="hh();" /><rect x="338" y="-240" width="6" height="240" style="fill:transparent;" onmouseover="sh(341,299,-246,'01.04.2023 51,29');" onmouseout="hh();" /><rect x="338" y="-185" width="6" height="185" style="fill:#0080C0;" onmouseover="sh(341,299,-246,'01.04.2023 51,29');" onmouseout="hh();" /><rect x="347" y="-240" width="6" height="240" style="fill:transparent;" onmouseover="sh(350,299,-246,'01.05.2023 58,74');" onmouseout="hh();" /><rect x="347" y="-215" width="6" height="215" style="fill:#0080C0;" onmouseover="sh(350,299,-246,'01.05.2023 58,74');" onmouseout="hh();" /><rect x="356" y="-240" width="6" height="240" style="fill:transparent;" onmouseover="sh(359,299,-246,'01.06.2023 57,99');" onmouseout="hh();" /><rect x="356" y="-212" width="6" height="212" style="fill:#0080C0;" onmouseover="sh(359,299,-246,'01.06.2023 57,99');" onmouseout="hh();" />
<line x1="-6" y1="0" x2="369" y2="0" class="axes" /><line x1="0" y1="-256" x2="0" y2="0" class="axes" /><text x="-2" y="-260" style="text-anchor:end;">грн.</text>
<use xlink:href="#hintbox" id="usebox" x="0" y="0" style="visibility:hidden;" />
</svg>
