<?xml version="1.0" encoding="UTF-8" standalone="no"?>
<!DOCTYPE svg PUBLIC "-//W3C//DTD SVG 1.1//EN" "http://www.w3.org/Graphics/SVG/1.1/DTD/svg11.dtd">
<svg version="1.1" xmlns="http://www.w3.org/2000/svg" xmlns:xlink="http://www.w3.org/1999/xlink" xmlns:ev="http://www.w3.org/2001/xml-events" width="444" height="330" viewBox="-48 -272 444 330" preserveAspectRatio="none">
<style type="text/css"><![CDATA[
line { stroke-width:1px; }
line.axes { stroke:#505050; }
line.grid { stroke:#D8D8D8; }
rect.bg { fill:#FFFFFF; }
text { font-family:arial,sans-serif; font-size:12px; fill:#000000; }
]]></style>
<defs>
<g id="hintbox"><rect x="0" y="0" width="77" height="34" style="stroke:#505050; stroke-width:1px; fill:rgba(255,255,255,0.87);" /><text id="hint0" x="4" y="14"> </text><text x="7" y="28"></text><text id="hint1" x="73" y="28" style="text-anchor:end;"> </text></g>
<g id="hintline"><line x1="0" y1="-240" x2="0" y2="0" class="axes" style="stroke-dasharray:2 1" /></g>
</defs>
<script><![CDATA[
function shb(x,y,dat) {
ar=dat.split(' '); for (i=0; i<ar.length; ++i) { if (i&&ar[i]) ar[i]+=' грн.'; h=document.getElementById('hint'+i); h.textContent=ar[i]; }
u=document.getElementById('usebox'); u.setAttribute('x',x); u.setAttribute('y',y); u.setAttribute('style','visibility:visible;'); }
function hhb() { u=document.getElementById('usebox'); u.setAttribute('style','visibility:hidden;'); u.setAttribute('x','0'); u.setAttribute('y','0'); }
function shl(x) { u=document.getElementById('useline'); u.setAttribute('x',x); u.setAttribute('style','visibility:visible;'); }
function hhl() { u=document.getElementById('useline'); u.setAttribute('style','visibility:hidden;'); u.setAttribute('x','0'); }
function sh(xl,xb,y,dat) { shl(xl); shb(xb,y,dat); }
function hh() { hhb(); hhl(); }
]]></script>
<rect x="-48" y="-272" width="444" height="330" class="bg" />
<line x1="8" y1="0" x2="8" y2="4" class="axes" /><text x="13" y="8" transform="rotate(-90,13,8)" style="text-anchor:end;">01.2020</text><line x1="35" y1="0" x2="35" y2="4" class="axes" /><text x="40" y="8" transform="rotate(-90,40,8)" style="text-anchor:end;">04.2020</text><line x1="62" y1="0" x2="62" y2="4" class="axes" /><text x="67" y="8" transform="rotate(-90,67,8)" style="text-anchor:end;">07.2020</text><line x1="89" y1="0" x2="89" y2="4" class="axes" /><text x="94" y="8" transform="rotate(-90,94,8)" style="text-anchor:end;">10.2020</text><line x1="116" y1="0" x2="116" y2="4" class="axes" /><text x="121" y="8" transform="rotate(-90,121,8)" style="text-anchor:end;">01.2021</text><line x1="143" y1="0" x2="143" y2="4" class="axes" /><text x="148" y="8" transform="rotate(-90,148,8)" style="text-anchor:end;">04.2021</text><line x1="170" y1="0" x2="170" y2="4" class="axes" /><text x="175" y="8" transform="rotate(-90,175,8)" style="text-anchor:end;">07.2021</text><line x1="197" y1="0" x2="197" y2="4" class="axes" /><text x="202" y="8" transform="rotate(-90,202,8)" style="text-anchor:end;">10.2021</text><line x1="224" y1="0" x2="224" y2="4" class="axes" /><text x="229" y="8" transform="rotate(-90,229,8)" style="text-anchor:end;">01.2022</text><line x1="251" y1="0" x2="251" y2="4" class="axes" /><text x="256" y="8" transform="rotate(-90,256,8)" style="text-anchor:end;">04.2022</text><line x1="278" y1="0" x2="278" y2="4" class="axes" /><text x="283" y="8" transform="rotate(-90,283,8)" style="text-anchor:end;">07.2022</text><line x1="305" y1="0" x2="305" y2="4" class="axes" /><text x="310" y="8" transform="rotate(-90,310,8)" style="text-anchor:end;">10.2022</text><line x1="332" y1="0" x2="332" y2="4" class="axes" /><text x="337" y="8" transform="rotate(-90,337,8)" style="text-anchor:end;">01.2023</text><line x1="359" y1="0" x2="359" y2="4" class="axes" /><text x="364" y="8" transform="rotate(-90,364,8)" style="text-anchor:end;">04.2023</text>
<line x1="0" y1="-24" x2="384" y2="-24" class="grid" /><line x1="0" y1="-24" x2="-4" y2="-24" class="axes" /><text x="-8" y="-20" style="text-anchor:end;">160</text><line x1="0" y1="-48" x2="384" y2="-48" class="grid" /><line x1="0" y1="-48" x2="-4" y2="-48" class="axes" /><text x="-8" y="-44" style="text-anchor:end;">180</text><line x1="0" y1="-72" x2="384" y2="-72" class="grid" /><line x1="0" y1="-72" x2="-4" y2="-72" class="axes" /><text x="-8" y="-68" style="text-anchor:end;">200</text><line x1="0" y1="-96" x2="384" y2="-96" class="grid" /><line x1="0" y1="-96" x2="-4" y2="-96" class="axes" /><text x="-8" y="-92" style="text-anchor:end;">220</text><line x1="0" y1="-120" x2="384" y2="-120" class="grid" /><line x1="0" y1="-120" x2="-4" y2="-120" class="axes" /><text x="-8" y="-116" style="text-anchor:end;">240</text><line x1="0" y1="-144" x2="384" y2="-144" class="grid" /><line x1="0" y1="-144" x2="-4" y2="-144" class="axes" /><text x="-8" y="-140" style="text-anchor:end;">260</text><line x1="0" y1="-168" x2="384" y2="-168" class="grid" /><line x1="0" y1="-168" x2="-4" y2="-168" class="axes" /><text x="-8" y="-164" style="text-anchor:end;">280</text><line x1="0" y1="-192" x2="384" y2="-192" class="grid" /><line x1="0" y1="-192" x2="-4" y2="-192" class="axes" /><text x="-8" y="-188" style="text-anchor:end;">300</text><line x1="0" y1="-216" x2="384" y2="-216" class="grid" /><line x1="0" y1="-216" x2="-4" y2="-216" class="axes" /><text x="-8" y="-212" style="text-anchor:end;">320</text><line x1="0" y1="-240" x2="384" y2="-240" class="grid" /><line x1="0" y1="-240" x2="-4" y2="-240" class="axes" /><text x="-8" y="-236" style="text-anchor:end;">340</text>
<use xlink:href="#hintline" id="useline" x="0" style="visibility:hidden;" />
<rect x="5" y="-240" width="6" height="240" style="fill:transparent;" onmouseover="sh(8,8,-246,'01.01.2020 186,16');" onmouseout="hh();" /><rect x="5" y="-55" width="6" height="55" style="fill:#0080C0;" onmouseover="sh(8,8,-246,'01.01.2020 186,16');" onmouseout="hh();" /><rect x="14" y="-240" width="6" height="240" style="fill:transparent;" onmouseover="sh(17,17,-246,'01.02.2020 189,52');" onmouseout="hh();" /><rect x="14" y="-59" width="6" height="59" style="fill:#0080C0;" onmouseover="sh(17,17,-246,'01.02.2020 189,52');" onmouseout="hh();" /><rect x="23" y="-240" width="6" height="240" style="fill:transparent;" onmouseover="sh(26,26,-246,'01.03.2020 196,59');" onmouseout="hh();" /><rect x="23" y="-68" width="6" height="68" style="fill:#0080C0;" onmouseover="sh(26,26,-246,'01.03.2020 196,59');" onmouseout="hh();" /><rect x="32" y="-240" width="6" height="240" style="fill:transparent;" onmouseover="sh(35,35,-246,'01.04.2020 192,04');" onmouseout="hh();" /><rect x="32" y="-62" width="6" height="62" style="fill:#0080C0;" onmouseover="sh(35,35,-246,'01.04.2020 192,04');" onmouseout="hh();" /><rect x="41" y="-240" width="6" height="240" style="fill:transparent;" onmouseover="sh(44,44,-246,'01.05.2020 200,40');" onmouseout="hh();" /><rect x="41" y="-72" width="6" height="72" style="fill:#0080C0;" onmouseover="sh(44,44,-246,'01.05.2020 200,40');" onmouseout="hh();" /><rect x="50" y="-240" width="6" height="240" style="fill:transparent;" onmouseover="sh(53,53,-246,'01.06.2020 199,16');" onmouseout="hh();" /><rect x="50" y="-71" width="6" height="71" style="fill:#0080C0;" onmouseover="sh(53,53,-246,'01.06.2020 199,16');" onmouseout="hh();" /><rect x="59" y="-240" width="6" height="240" style="fill:transparent;" onmouseover="sh(62,62,-246,'01.07.2020 198,82');" onmouseout="hh();" /><rect x="59" y="-71" width="6" height="71" style="fill:#0080C0;" onmouseover="sh(62,62,-246,'01.07.2020 198,82');" onmouseout="hh();" /><rect x="68" y="-240" width="6" height="240" style="fill:transparent;" onmouseover="sh(71,71,-246,'01.08.2020 197,07');" onmouseout="hh();" /><rect x="68" y="-68" width="6" height="68" style="fill:#0080C0;" onmouseover="sh(71,71,-246,'01.08.2020 197,07');" onmouseout="hh();" /><rect x="77" y="-240" width="6" height="240" style="fill:transparent;" onmouseover="sh(80,80,-246,'01.09.2020 196,07');" onmouseout="hh();" /><rect x="77" y="-67" width="6" height="67" style="fill:#0080C0;" onmouseover="sh(80,80,-246,'01.09.2020 196,07');" onmouseout="hh();" /><rect x="86" y="-240" width="6" height="240" style="fill:transparent;" onmouseover="sh(89,89,-246,'01.10.2020 203,36');" onmouseout="hh();" /><rect x="86" y="-76" width="6" height="76" style="fill:#0080C0;" onmouseover="sh(89,89,-246,'01.10.2020 203,36');" onmouseout="hh();" /><rect x="95" y="-240" width="6" height="240" style="fill:transparent;" onmouseover="sh(98,98,-246,'01.11.2020 208,58');" onmouseout="hh();" /><rect x="95" y="-82" width="6" height="82" style="fill:#0080C0;" onmouseover="sh(98,98,-246,'01.11.2020 208,58');" onmouseout="hh();" /><rect x="104" y="-240" width="6" height="240" style="fill:transparent;" onmouseover="sh(107,107,-246,'01.12.2020 208,71');" onmouseout="hh();" /><rect x="104" y="-82" width="6" height="82" style="fill:#0080C0;" onmouseover="sh(107,107,-246,'01.12.2020 208,71');" onmouseout="hh();" /><rect x="113" y="-240" width="6" height="240" style="fill:transparent;" onmouseover="sh(116,116,-246,'01.01.2021 214,87');" onmouseout="hh();" /><rect x="113" y="-90" width="6" height="90" style="fill:#0080C0;" onmouseover="sh(116,116,-246,'01.01.2021 214,87');" onmouseout="hh();" /><rect x="122" y="-240" width="6" height="240" style="fill:transparent;" onmouseover="sh(125,125,-246,'01.02.2021 212,60');" onmouseout="hh();" /><rect x="122" y="-87" width="6" height="87" style="fill:#0080C0;" onmouseover="sh(125,125,-246,'01.02.2021 212,60');" onmouseout="hh();" /><rect x="131" y="-240" width="6" height="240" style="fill:transparent;" onmouseover="sh(134,134,-246,'01.03.2021 196,10');" onmouseout="hh();" /><rect x="131" y="-67" width="6" height="67" style="fill:#0080C0;" onmouseover="sh(134,134,-246,'01.03.2021 196,10');" onmouseout="hh();" /><rect x="140" y="-240" width="6" height="240" style="fill:transparent;" onmouseover="sh(143,143,-246,'01.04.2021 211,08');" onmouseout="hh();" /><rect x="140" y="-85" width="6" height="85" style="fill:#0080C0;" onmouseover="sh(143,143,-246,'01.04.2021 211,08');" onmouseout="hh();" /><rect x="149" y="-240" width="6" height="240" style="fill:transparent;" onmouseover="sh(152,152,-246,'01.05.2021 224,16');" onmouseout="hh();" /><rect x="149" y="-101" width="6" height="101" style="fill:#0080C0;" onmouseover="sh(152,152,-246,'01.05.2021 224,16');" onmouseout="hh();" /><rect x="158" y="-240" width="6" height="240" style="fill:transparent;" onmouseover="sh(161,161,-246,'01.06.2021 219,32');" onmouseout="hh();" /><rect x="158" y="-95" width="6" height="95" style="fill:#0080C0;" onmouseover="sh(161,161,-246,'01.06.2021 219,32');" onmouseout="hh();" /><rect x="167" y="-240" width="6" height="240" style="fill:transparent;" onmouseover="sh(170,170,-246,'01.07.2021 224,52');" onmouseout="hh();" /><rect x="167" y="-101" width="6" height="101" style="fill:#0080C0;" onmouseover="sh(170,170,-246,'01.07.2021 224,52');" onmouseout="hh();" /><rect x="176" y="-240" width="6" height="240" style="fill:transparent;" onmouseover="sh(179,179,-246,'01.08.2021 218,89');" onmouseout="hh();" /><rect x="176" y="-95" width="6" height="95" style="fill:#0080C0;" onmouseover="sh(179,179,-246,'01.08.2021 218,89');" onmouseout="hh();" /><rect x="185" y="-240" width="6" height="240" style="fill:transparent;" onmouseover="sh(188,188,-246,'01.09.2021 222,94');" onmouseout="hh();" /><rect x="185" y="-100" width="6" height="100" style="fill:#0080C0;" onmouseover="sh(188,188,-246,'01.09.2021 222,94');" onmouseout="hh();" /><rect x="194" y="-240" width="6" height="240" style="fill:transparent;" onmouseover="sh(197,197,-246,'01.10.2021 220,86');" onmouseout="hh();" /><rect x="194" y="-97" width="6" height="97" style="fill:#0080C0;" onmouseover="sh(197,197,-246,'01.10.2021 220,86');" onmouseout="hh();" /><rect x="203" y="-240" width="6" height="240" style="fill:transparent;" onmouseover="sh(206,206,-246,'01.11.2021 237,74');" onmouseout="hh();" /><rect x="203" y="-117" width="6" height="117" style="fill:#0080C0;" onmouseover="sh(206,206,-246,'01.11.2021 237,74');" onmouseout="hh();" /><rect x="212" y="-240" width="6" height="240" style="fill:transparent;" onmouseover="sh(215,215,-246,'01.12.2021 210,11');" onmouseout="hh();" /><rect x="212" y="-84" width="6" height="84" style="fill:#0080C0;" onmouseover="sh(215,215,-246,'01.12.2021 210,11');" onmouseout="hh();" /><rect x="221" y="-240" width="6" height="240" style="fill:transparent;" onmouseover="sh(224,224,-246,'01.01.2022 227,55');" onmouseout="hh();" /><rect x="221" y="-105" width="6" height="105" style="fill:#0080C0;" onmouseover="sh(224,224,-246,'01.01.2022 227,55');" onmouseout="hh();" /><rect x="230" y="-240" width="6" height="240" style="fill:transparent;" onmouseover="sh(233,233,-246,'01.02.2022 233,30');" onmouseout="hh();" /><rect x="230" y="-112" width="6" height="112" style="fill:#0080C0;" onmouseover="sh(233,233,-246,'01.02.2022 233,30');" onmouseout="hh();" /><rect x="239" y="-240" width="6" height="240" style="fill:transparent;" onmouseover="sh(242,242,-246,'01.03.2022 223,60');" onmouseout="hh();" /><rect x="239" y="-100" width="6" height="100" style="fill:#0080C0;" onmouseover="sh(242,242,-246,'01.03.2022 223,60');" onmouseout="hh();" /><rect x="248" y="-240" width="6" height="240" style="fill:transparent;" onmouseover="sh(251,251,-246,'01.04.2022 251,40');" onmouseout="hh();" /><rect x="248" y="-134" width="6" height="134" style="fill:#0080C0;" onmouseover="sh(251,251,-246,'01.04.2022 251,40');" onmouseout="hh();" /><rect x="257" y="-240" width="6" height="240" style="fill:transparent;" onmouseover="sh(260,260,-246,'01.05.2022 245,68');" onmouseout="hh();" /><rect x="257" y="-127" width="6" height="127" style="fill:#0080C0;" onmouseover="sh(260,260,-246,'01.05.2022 245,68');" onmouseout="hh();" /><rect x="266" y="-240" width="6" height="240" style="fill:transparent;" onmouseover="sh(269,269,-246,'01.06.2022 247,53');" onmouseout="hh();" /><rect x="266" y="-129" width="6" height="129" style="fill:#0080C0;" onmouseover="sh(269,269,-246,'01.06.2022 247,53');" onmouseout="hh();" /><rect x="275" y="-240" width="6" height="240" style="fill:transparent;" onmouseover="sh(278,278,-246,'01.07.2022 253,81');" onmouseout="hh();" /><rect x="275" y="-137" width="6" height="137" style="fill:#0080C0;" onmouseover="sh(278,278,-246,'01.07.2022 253,81');" onmouseout="hh();" /><rect x="284" y="-240" width="6" height="240" style="fill:transparent;" onmouseover="sh(287,287,-246,'01.08.2022 245,48');" onmouseout="hh();" /><rect x="284" y="-127" width="6" height="127" style="fill:#0080C0;" onmouseover="sh(287,287,-246,'01.08.2022 245,48');" onmouseout="hh();" /><rect x="293" y="-240" width="6" height="240" style="fill:transparent;" onmouseover="sh(296,296,-246,'01.09.2022 259,07');" onmouseout="hh();" /><rect x="293" y="-143" width="6" height="143" style="fill:#0080C0;" onmouseover="sh(296,296,-246,'01.09.2022 259,07');" onmouseout="hh();" /><rect x="302" y="-240" width="6" height="240" style="fill:transparent;" onmouseover="sh(305,305,-246,'01.10.2022 260,08');" onmouseout="hh();" /><rect x="302" y="-144" width="6" height="144" style="fill:#0080C0;" onmouseover="sh(305,305,-246,'01.10.2022 260,08');" onmouseout="hh();" /><rect x="311" y="-240" width="6" height="240" style="fill:transparent;" onmouseover="sh(314,314,-246,'01.11.2022 274,22');" onmouseout="hh();" /><rect x="311" y="-161" width="6" height="161" style="fill:#0080C0;" onmouseover="sh(314,314,-246,'01.11.2022 274,22');" onmouseout="hh();" /><rect x="320" y="-240" width="6" height="240" style="fill:transparent;" onmouseover="sh(323,317,-246,'01.12.2022 282,53');" onmouseout="hh();" /><rect x="320" y="-171" width="6" height="171" style="fill:#0080C0;" onmouseover="sh(323,317,-246,'01.12.2022 282,53');" onmouseout="hh();" /><rect x="329" y="-240" width="6" height="240" style="fill:transparent;" onmouseover="sh(332,317,-246,'01.01.2023 290,77');" onmouseout="hh();" /><rect x="329" y="-181" width="6" height="181" style="fill:#0080C0;" onmouseover="sh(332,317,-246,'01.01.2023 290,77');" onmouseout="hh();" /><rect x="338" y="-240" width="6" height="240" style="fill:transparent;" onmouseover="sh(341,317,-246,'01.02.2023 318,54');" onmouseout="hh();" /><rect x="338" y="-214" width="6" height="214" style="fill:#0080C0;" onmouseover="sh(341,317,-246,'01.02.2023 318,54');" onmouseout="hh();" /><rect x="347" y="-240" width="6" height="240" style="fill:transparent;" onmouseover="sh(350,317,-246,'01.03.2023 310,99');" onmouseout="hh();" /><rect x="347" y="-205" width="6" height="205" style="fill:#0080C0;" onmouseover="sh(350,317,-246,'01.03.2023 310,99');" onmouseout="hh();" /><rect x="356" y="-240" width="6" height="240" style="fill:transparent;" onmouseover="sh(359,317,-246,'01.04.2023 284,06');" onmouseout="hh();" /><rect x="356" y="-173" width="6" height="173" style="fill:#0080C0;" onmouseover="sh(359,317,-246,'01.04.2023 284,06');" onmouseout="hh();" /><rect x="365" y="-240" width="6" height="240" style="fill:transparent;" onmouseover="sh(368,317,-246,'01.05.2023 315,61');" onmouseout="hh();" /><rect x="365" y="-211" width="6" height="211" style="fill:#0080C0;" onmouseover="sh(368,317,-246,'01.05.2023 315,61');" onmouseout="hh();" /><rect x="374" y="-240" width="6" height="240" style="fill:transparent;" onmouseover="sh(377,317,-246,'01.06.2023 302,34');" onmouseout="hh();" /><rect x="374" y="-195" width="6" height="195" style="fill:#0080C0;" onmouseover="sh(377,317,-246,'01.06.2023 302,34');" onmouseout="hh();" />
<line x1="-6" y1="0" x2="387" y2="0" class="axes" /><line x1="0" y1="-256" x2="0" y2="0" class="axes" /><text x="-2" y="-260" style="text-anchor:end;">грн.</text>
<use xlink:href="#hintbox" id="usebox" x="0" y="0" style="visibility:hidden;" />
</svg>
