<?xml version="1.0" encoding="UTF-8" standalone="no"?>
<!DOCTYPE svg PUBLIC "-//W3C//DTD SVG 1.1//EN" "http://www.w3.org/Graphics/SVG/1.1/DTD/svg11.dtd">
<svg version="1.1" xmlns="http://www.w3.org/2000/svg" xmlns:xlink="http://www.w3.org/1999/xlink" xmlns:ev="http://www.w3.org/2001/xml-events" width="714" height="330" viewBox="-48 -272 714 330" preserveAspectRatio="none">
<style type="text/css"><![CDATA[
line { stroke-width:1px; }
line.axes { stroke:#505050; }
line.grid { stroke:#D8D8D8; }
rect.bg { fill:#FFFFFF; }
text { font-family:arial,sans-serif; font-size:12px; fill:#000000; }
]]></style>
<defs>
<g id="hintbox"><rect x="0" y="0" width="77" height="34" style="stroke:#505050; stroke-width:1px; fill:rgba(255,255,255,0.87);" /><text id="hint0" x="4" y="14"> </text><text x="7" y="28"></text><text id="hint1" x="73" y="28" style="text-anchor:end;"> </text></g>
<g id="hintline"><line x1="0" y1="-240" x2="0" y2="0" class="axes" style="stroke-dasharray:2 1" /></g>
</defs>
<script><![CDATA[
function shb(x,y,dat) {
ar=dat.split(' '); for (i=0; i<ar.length; ++i) { if (i&&ar[i]) ar[i]+=' грн.'; h=document.getElementById('hint'+i); h.textContent=ar[i]; }
u=document.getElementById('usebox'); u.setAttribute('x',x); u.setAttribute('y',y); u.setAttribute('style','visibility:visible;'); }
function hhb() { u=document.getElementById('usebox'); u.setAttribute('style','visibility:hidden;'); u.setAttribute('x','0'); u.setAttribute('y','0'); }
function shl(x) { u=document.getElementById('useline'); u.setAttribute('x',x); u.setAttribute('style','visibility:visible;'); }
function hhl() { u=document.getElementById('useline'); u.setAttribute('style','visibility:hidden;'); u.setAttribute('x','0'); }
function sh(xl,xb,y,dat) { shl(xl); shb(xb,y,dat); }
function hh() { hhb(); hhl(); }
]]></script>
<rect x="-48" y="-272" width="714" height="330" class="bg" />
<line x1="17" y1="0" x2="17" y2="4" class="axes" /><text x="22" y="8" transform="rotate(-90,22,8)" style="text-anchor:end;">04.2017</text><line x1="44" y1="0" x2="44" y2="4" class="axes" /><text x="49" y="8" transform="rotate(-90,49,8)" style="text-anchor:end;">07.2017</text><line x1="71" y1="0" x2="71" y2="4" class="axes" /><text x="76" y="8" transform="rotate(-90,76,8)" style="text-anchor:end;">10.2017</text><line x1="98" y1="0" x2="98" y2="4" class="axes" /><text x="103" y="8" transform="rotate(-90,103,8)" style="text-anchor:end;">01.2018</text><line x1="125" y1="0" x2="125" y2="4" class="axes" /><text x="130" y="8" transform="rotate(-90,130,8)" style="text-anchor:end;">04.2018</text><line x1="152" y1="0" x2="152" y2="4" class="axes" /><text x="157" y="8" transform="rotate(-90,157,8)" style="text-anchor:end;">07.2018</text><line x1="179" y1="0" x2="179" y2="4" class="axes" /><text x="184" y="8" transform="rotate(-90,184,8)" style="text-anchor:end;">10.2018</text><line x1="206" y1="0" x2="206" y2="4" class="axes" /><text x="211" y="8" transform="rotate(-90,211,8)" style="text-anchor:end;">01.2019</text><line x1="233" y1="0" x2="233" y2="4" class="axes" /><text x="238" y="8" transform="rotate(-90,238,8)" style="text-anchor:end;">04.2019</text><line x1="260" y1="0" x2="260" y2="4" class="axes" /><text x="265" y="8" transform="rotate(-90,265,8)" style="text-anchor:end;">07.2019</text><line x1="287" y1="0" x2="287" y2="4" class="axes" /><text x="292" y="8" transform="rotate(-90,292,8)" style="text-anchor:end;">10.2019</text><line x1="314" y1="0" x2="314" y2="4" class="axes" /><text x="319" y="8" transform="rotate(-90,319,8)" style="text-anchor:end;">01.2020</text><line x1="341" y1="0" x2="341" y2="4" class="axes" /><text x="346" y="8" transform="rotate(-90,346,8)" style="text-anchor:end;">04.2020</text><line x1="368" y1="0" x2="368" y2="4" class="axes" /><text x="373" y="8" transform="rotate(-90,373,8)" style="text-anchor:end;">07.2020</text><line x1="395" y1="0" x2="395" y2="4" class="axes" /><text x="400" y="8" transform="rotate(-90,400,8)" style="text-anchor:end;">10.2020</text><line x1="413" y1="0" x2="413" y2="4" class="axes" /><text x="418" y="8" transform="rotate(-90,418,8)" style="text-anchor:end;">01.2021</text><line x1="440" y1="0" x2="440" y2="4" class="axes" /><text x="445" y="8" transform="rotate(-90,445,8)" style="text-anchor:end;">04.2021</text><line x1="467" y1="0" x2="467" y2="4" class="axes" /><text x="472" y="8" transform="rotate(-90,472,8)" style="text-anchor:end;">07.2021</text><line x1="494" y1="0" x2="494" y2="4" class="axes" /><text x="499" y="8" transform="rotate(-90,499,8)" style="text-anchor:end;">10.2021</text><line x1="521" y1="0" x2="521" y2="4" class="axes" /><text x="526" y="8" transform="rotate(-90,526,8)" style="text-anchor:end;">01.2022</text><line x1="548" y1="0" x2="548" y2="4" class="axes" /><text x="553" y="8" transform="rotate(-90,553,8)" style="text-anchor:end;">07.2022</text><line x1="575" y1="0" x2="575" y2="4" class="axes" /><text x="580" y="8" transform="rotate(-90,580,8)" style="text-anchor:end;">10.2022</text><line x1="602" y1="0" x2="602" y2="4" class="axes" /><text x="607" y="8" transform="rotate(-90,607,8)" style="text-anchor:end;">01.2023</text><line x1="629" y1="0" x2="629" y2="4" class="axes" /><text x="634" y="8" transform="rotate(-90,634,8)" style="text-anchor:end;">04.2023</text>
<line x1="0" y1="-24" x2="654" y2="-24" class="grid" /><line x1="0" y1="-24" x2="-4" y2="-24" class="axes" /><text x="-8" y="-20" style="text-anchor:end;">60</text><line x1="0" y1="-48" x2="654" y2="-48" class="grid" /><line x1="0" y1="-48" x2="-4" y2="-48" class="axes" /><text x="-8" y="-44" style="text-anchor:end;">80</text><line x1="0" y1="-72" x2="654" y2="-72" class="grid" /><line x1="0" y1="-72" x2="-4" y2="-72" class="axes" /><text x="-8" y="-68" style="text-anchor:end;">100</text><line x1="0" y1="-96" x2="654" y2="-96" class="grid" /><line x1="0" y1="-96" x2="-4" y2="-96" class="axes" /><text x="-8" y="-92" style="text-anchor:end;">120</text><line x1="0" y1="-120" x2="654" y2="-120" class="grid" /><line x1="0" y1="-120" x2="-4" y2="-120" class="axes" /><text x="-8" y="-116" style="text-anchor:end;">140</text><line x1="0" y1="-144" x2="654" y2="-144" class="grid" /><line x1="0" y1="-144" x2="-4" y2="-144" class="axes" /><text x="-8" y="-140" style="text-anchor:end;">160</text><line x1="0" y1="-168" x2="654" y2="-168" class="grid" /><line x1="0" y1="-168" x2="-4" y2="-168" class="axes" /><text x="-8" y="-164" style="text-anchor:end;">180</text><line x1="0" y1="-192" x2="654" y2="-192" class="grid" /><line x1="0" y1="-192" x2="-4" y2="-192" class="axes" /><text x="-8" y="-188" style="text-anchor:end;">200</text><line x1="0" y1="-216" x2="654" y2="-216" class="grid" /><line x1="0" y1="-216" x2="-4" y2="-216" class="axes" /><text x="-8" y="-212" style="text-anchor:end;">220</text><line x1="0" y1="-240" x2="654" y2="-240" class="grid" /><line x1="0" y1="-240" x2="-4" y2="-240" class="axes" /><text x="-8" y="-236" style="text-anchor:end;">240</text>
<use xlink:href="#hintline" id="useline" x="0" style="visibility:hidden;" />
<rect x="5" y="-240" width="6" height="240" style="fill:transparent;" onmouseover="sh(8,8,-246,'01.03.2017 102,00');" onmouseout="hh();" /><rect x="5" y="-74" width="6" height="74" style="fill:#0080C0;" onmouseover="sh(8,8,-246,'01.03.2017 102,00');" onmouseout="hh();" /><rect x="14" y="-240" width="6" height="240" style="fill:transparent;" onmouseover="sh(17,17,-246,'01.04.2017 90,39');" onmouseout="hh();" /><rect x="14" y="-60" width="6" height="60" style="fill:#0080C0;" onmouseover="sh(17,17,-246,'01.04.2017 90,39');" onmouseout="hh();" /><rect x="23" y="-240" width="6" height="240" style="fill:transparent;" onmouseover="sh(26,26,-246,'01.05.2017 101,30');" onmouseout="hh();" /><rect x="23" y="-74" width="6" height="74" style="fill:#0080C0;" onmouseover="sh(26,26,-246,'01.05.2017 101,30');" onmouseout="hh();" /><rect x="32" y="-240" width="6" height="240" style="fill:transparent;" onmouseover="sh(35,35,-246,'01.06.2017 109,89');" onmouseout="hh();" /><rect x="32" y="-84" width="6" height="84" style="fill:#0080C0;" onmouseover="sh(35,35,-246,'01.06.2017 109,89');" onmouseout="hh();" /><rect x="41" y="-240" width="6" height="240" style="fill:transparent;" onmouseover="sh(44,44,-246,'01.07.2017 112,36');" onmouseout="hh();" /><rect x="41" y="-87" width="6" height="87" style="fill:#0080C0;" onmouseover="sh(44,44,-246,'01.07.2017 112,36');" onmouseout="hh();" /><rect x="50" y="-240" width="6" height="240" style="fill:transparent;" onmouseover="sh(53,53,-246,'01.08.2017 117,47');" onmouseout="hh();" /><rect x="50" y="-93" width="6" height="93" style="fill:#0080C0;" onmouseover="sh(53,53,-246,'01.08.2017 117,47');" onmouseout="hh();" /><rect x="59" y="-240" width="6" height="240" style="fill:transparent;" onmouseover="sh(62,62,-246,'01.09.2017 117,82');" onmouseout="hh();" /><rect x="59" y="-93" width="6" height="93" style="fill:#0080C0;" onmouseover="sh(62,62,-246,'01.09.2017 117,82');" onmouseout="hh();" /><rect x="68" y="-240" width="6" height="240" style="fill:transparent;" onmouseover="sh(71,71,-246,'01.10.2017 104,10');" onmouseout="hh();" /><rect x="68" y="-77" width="6" height="77" style="fill:#0080C0;" onmouseover="sh(71,71,-246,'01.10.2017 104,10');" onmouseout="hh();" /><rect x="77" y="-240" width="6" height="240" style="fill:transparent;" onmouseover="sh(80,80,-246,'01.11.2017 118,15');" onmouseout="hh();" /><rect x="77" y="-94" width="6" height="94" style="fill:#0080C0;" onmouseover="sh(80,80,-246,'01.11.2017 118,15');" onmouseout="hh();" /><rect x="86" y="-240" width="6" height="240" style="fill:transparent;" onmouseover="sh(89,89,-246,'01.12.2017 109,92');" onmouseout="hh();" /><rect x="86" y="-84" width="6" height="84" style="fill:#0080C0;" onmouseover="sh(89,89,-246,'01.12.2017 109,92');" onmouseout="hh();" /><rect x="95" y="-240" width="6" height="240" style="fill:transparent;" onmouseover="sh(98,98,-246,'01.01.2018 121,21');" onmouseout="hh();" /><rect x="95" y="-97" width="6" height="97" style="fill:#0080C0;" onmouseover="sh(98,98,-246,'01.01.2018 121,21');" onmouseout="hh();" /><rect x="104" y="-240" width="6" height="240" style="fill:transparent;" onmouseover="sh(107,107,-246,'01.02.2018 123,81');" onmouseout="hh();" /><rect x="104" y="-101" width="6" height="101" style="fill:#0080C0;" onmouseover="sh(107,107,-246,'01.02.2018 123,81');" onmouseout="hh();" /><rect x="113" y="-240" width="6" height="240" style="fill:transparent;" onmouseover="sh(116,116,-246,'01.03.2018 123,81');" onmouseout="hh();" /><rect x="113" y="-101" width="6" height="101" style="fill:#0080C0;" onmouseover="sh(116,116,-246,'01.03.2018 123,81');" onmouseout="hh();" /><rect x="122" y="-240" width="6" height="240" style="fill:transparent;" onmouseover="sh(125,125,-246,'01.04.2018 115,20');" onmouseout="hh();" /><rect x="122" y="-90" width="6" height="90" style="fill:#0080C0;" onmouseover="sh(125,125,-246,'01.04.2018 115,20');" onmouseout="hh();" /><rect x="131" y="-240" width="6" height="240" style="fill:transparent;" onmouseover="sh(134,134,-246,'01.05.2018 114,93');" onmouseout="hh();" /><rect x="131" y="-90" width="6" height="90" style="fill:#0080C0;" onmouseover="sh(134,134,-246,'01.05.2018 114,93');" onmouseout="hh();" /><rect x="140" y="-240" width="6" height="240" style="fill:transparent;" onmouseover="sh(143,143,-246,'01.06.2018 114,59');" onmouseout="hh();" /><rect x="140" y="-90" width="6" height="90" style="fill:#0080C0;" onmouseover="sh(143,143,-246,'01.06.2018 114,59');" onmouseout="hh();" /><rect x="149" y="-240" width="6" height="240" style="fill:transparent;" onmouseover="sh(152,152,-246,'01.07.2018 115,44');" onmouseout="hh();" /><rect x="149" y="-91" width="6" height="91" style="fill:#0080C0;" onmouseover="sh(152,152,-246,'01.07.2018 115,44');" onmouseout="hh();" /><rect x="158" y="-240" width="6" height="240" style="fill:transparent;" onmouseover="sh(161,161,-246,'01.08.2018 126,48');" onmouseout="hh();" /><rect x="158" y="-104" width="6" height="104" style="fill:#0080C0;" onmouseover="sh(161,161,-246,'01.08.2018 126,48');" onmouseout="hh();" /><rect x="167" y="-240" width="6" height="240" style="fill:transparent;" onmouseover="sh(170,170,-246,'01.09.2018 126,83');" onmouseout="hh();" /><rect x="167" y="-104" width="6" height="104" style="fill:#0080C0;" onmouseover="sh(170,170,-246,'01.09.2018 126,83');" onmouseout="hh();" /><rect x="176" y="-240" width="6" height="240" style="fill:transparent;" onmouseover="sh(179,179,-246,'01.10.2018 129,52');" onmouseout="hh();" /><rect x="176" y="-107" width="6" height="107" style="fill:#0080C0;" onmouseover="sh(179,179,-246,'01.10.2018 129,52');" onmouseout="hh();" /><rect x="185" y="-240" width="6" height="240" style="fill:transparent;" onmouseover="sh(188,188,-246,'01.11.2018 135,16');" onmouseout="hh();" /><rect x="185" y="-114" width="6" height="114" style="fill:#0080C0;" onmouseover="sh(188,188,-246,'01.11.2018 135,16');" onmouseout="hh();" /><rect x="194" y="-240" width="6" height="240" style="fill:transparent;" onmouseover="sh(197,197,-246,'01.12.2018 135,16');" onmouseout="hh();" /><rect x="194" y="-114" width="6" height="114" style="fill:#0080C0;" onmouseover="sh(197,197,-246,'01.12.2018 135,16');" onmouseout="hh();" /><rect x="203" y="-240" width="6" height="240" style="fill:transparent;" onmouseover="sh(206,206,-246,'01.01.2019 135,16');" onmouseout="hh();" /><rect x="203" y="-114" width="6" height="114" style="fill:#0080C0;" onmouseover="sh(206,206,-246,'01.01.2019 135,16');" onmouseout="hh();" /><rect x="212" y="-240" width="6" height="240" style="fill:transparent;" onmouseover="sh(215,215,-246,'01.02.2019 135,16');" onmouseout="hh();" /><rect x="212" y="-114" width="6" height="114" style="fill:#0080C0;" onmouseover="sh(215,215,-246,'01.02.2019 135,16');" onmouseout="hh();" /><rect x="221" y="-240" width="6" height="240" style="fill:transparent;" onmouseover="sh(224,224,-246,'01.03.2019 136,23');" onmouseout="hh();" /><rect x="221" y="-115" width="6" height="115" style="fill:#0080C0;" onmouseover="sh(224,224,-246,'01.03.2019 136,23');" onmouseout="hh();" /><rect x="230" y="-240" width="6" height="240" style="fill:transparent;" onmouseover="sh(233,233,-246,'01.04.2019 135,56');" onmouseout="hh();" /><rect x="230" y="-115" width="6" height="115" style="fill:#0080C0;" onmouseover="sh(233,233,-246,'01.04.2019 135,56');" onmouseout="hh();" /><rect x="239" y="-240" width="6" height="240" style="fill:transparent;" onmouseover="sh(242,242,-246,'01.05.2019 120,95');" onmouseout="hh();" /><rect x="239" y="-97" width="6" height="97" style="fill:#0080C0;" onmouseover="sh(242,242,-246,'01.05.2019 120,95');" onmouseout="hh();" /><rect x="248" y="-240" width="6" height="240" style="fill:transparent;" onmouseover="sh(251,251,-246,'01.06.2019 133,89');" onmouseout="hh();" /><rect x="248" y="-113" width="6" height="113" style="fill:#0080C0;" onmouseover="sh(251,251,-246,'01.06.2019 133,89');" onmouseout="hh();" /><rect x="257" y="-240" width="6" height="240" style="fill:transparent;" onmouseover="sh(260,260,-246,'01.07.2019 116,19');" onmouseout="hh();" /><rect x="257" y="-91" width="6" height="91" style="fill:#0080C0;" onmouseover="sh(260,260,-246,'01.07.2019 116,19');" onmouseout="hh();" /><rect x="266" y="-240" width="6" height="240" style="fill:transparent;" onmouseover="sh(269,269,-246,'01.08.2019 133,90');" onmouseout="hh();" /><rect x="266" y="-113" width="6" height="113" style="fill:#0080C0;" onmouseover="sh(269,269,-246,'01.08.2019 133,90');" onmouseout="hh();" /><rect x="275" y="-240" width="6" height="240" style="fill:transparent;" onmouseover="sh(278,278,-246,'01.09.2019 138,13');" onmouseout="hh();" /><rect x="275" y="-118" width="6" height="118" style="fill:#0080C0;" onmouseover="sh(278,278,-246,'01.09.2019 138,13');" onmouseout="hh();" /><rect x="284" y="-240" width="6" height="240" style="fill:transparent;" onmouseover="sh(287,287,-246,'01.10.2019 138,14');" onmouseout="hh();" /><rect x="284" y="-118" width="6" height="118" style="fill:#0080C0;" onmouseover="sh(287,287,-246,'01.10.2019 138,14');" onmouseout="hh();" /><rect x="293" y="-240" width="6" height="240" style="fill:transparent;" onmouseover="sh(296,296,-246,'01.11.2019 136,08');" onmouseout="hh();" /><rect x="293" y="-115" width="6" height="115" style="fill:#0080C0;" onmouseover="sh(296,296,-246,'01.11.2019 136,08');" onmouseout="hh();" /><rect x="302" y="-240" width="6" height="240" style="fill:transparent;" onmouseover="sh(305,305,-246,'01.12.2019 142,73');" onmouseout="hh();" /><rect x="302" y="-123" width="6" height="123" style="fill:#0080C0;" onmouseover="sh(305,305,-246,'01.12.2019 142,73');" onmouseout="hh();" /><rect x="311" y="-240" width="6" height="240" style="fill:transparent;" onmouseover="sh(314,314,-246,'01.01.2020 143,33');" onmouseout="hh();" /><rect x="311" y="-124" width="6" height="124" style="fill:#0080C0;" onmouseover="sh(314,314,-246,'01.01.2020 143,33');" onmouseout="hh();" /><rect x="320" y="-240" width="6" height="240" style="fill:transparent;" onmouseover="sh(323,323,-246,'01.02.2020 148,24');" onmouseout="hh();" /><rect x="320" y="-130" width="6" height="130" style="fill:#0080C0;" onmouseover="sh(323,323,-246,'01.02.2020 148,24');" onmouseout="hh();" /><rect x="329" y="-240" width="6" height="240" style="fill:transparent;" onmouseover="sh(332,332,-246,'01.03.2020 148,25');" onmouseout="hh();" /><rect x="329" y="-130" width="6" height="130" style="fill:#0080C0;" onmouseover="sh(332,332,-246,'01.03.2020 148,25');" onmouseout="hh();" /><rect x="338" y="-240" width="6" height="240" style="fill:transparent;" onmouseover="sh(341,341,-246,'01.04.2020 148,25');" onmouseout="hh();" /><rect x="338" y="-130" width="6" height="130" style="fill:#0080C0;" onmouseover="sh(341,341,-246,'01.04.2020 148,25');" onmouseout="hh();" /><rect x="347" y="-240" width="6" height="240" style="fill:transparent;" onmouseover="sh(350,350,-246,'01.05.2020 154,05');" onmouseout="hh();" /><rect x="347" y="-137" width="6" height="137" style="fill:#0080C0;" onmouseover="sh(350,350,-246,'01.05.2020 154,05');" onmouseout="hh();" /><rect x="356" y="-240" width="6" height="240" style="fill:transparent;" onmouseover="sh(359,359,-246,'01.06.2020 156,80');" onmouseout="hh();" /><rect x="356" y="-140" width="6" height="140" style="fill:#0080C0;" onmouseover="sh(359,359,-246,'01.06.2020 156,80');" onmouseout="hh();" /><rect x="365" y="-240" width="6" height="240" style="fill:transparent;" onmouseover="sh(368,368,-246,'01.07.2020 151,16');" onmouseout="hh();" /><rect x="365" y="-133" width="6" height="133" style="fill:#0080C0;" onmouseover="sh(368,368,-246,'01.07.2020 151,16');" onmouseout="hh();" /><rect x="374" y="-240" width="6" height="240" style="fill:transparent;" onmouseover="sh(377,377,-246,'01.08.2020 157,68');" onmouseout="hh();" /><rect x="374" y="-141" width="6" height="141" style="fill:#0080C0;" onmouseover="sh(377,377,-246,'01.08.2020 157,68');" onmouseout="hh();" /><rect x="383" y="-240" width="6" height="240" style="fill:transparent;" onmouseover="sh(386,386,-246,'01.09.2020 157,68');" onmouseout="hh();" /><rect x="383" y="-141" width="6" height="141" style="fill:#0080C0;" onmouseover="sh(386,386,-246,'01.09.2020 157,68');" onmouseout="hh();" /><rect x="392" y="-240" width="6" height="240" style="fill:transparent;" onmouseover="sh(395,395,-246,'01.10.2020 158,07');" onmouseout="hh();" /><rect x="392" y="-142" width="6" height="142" style="fill:#0080C0;" onmouseover="sh(395,395,-246,'01.10.2020 158,07');" onmouseout="hh();" /><rect x="401" y="-240" width="6" height="240" style="fill:transparent;" onmouseover="sh(404,404,-246,'01.11.2020 162,36');" onmouseout="hh();" /><rect x="401" y="-147" width="6" height="147" style="fill:#0080C0;" onmouseover="sh(404,404,-246,'01.11.2020 162,36');" onmouseout="hh();" /><rect x="410" y="-240" width="6" height="240" style="fill:transparent;" onmouseover="sh(413,413,-246,'01.01.2021 142,68');" onmouseout="hh();" /><rect x="410" y="-123" width="6" height="123" style="fill:#0080C0;" onmouseover="sh(413,413,-246,'01.01.2021 142,68');" onmouseout="hh();" /><rect x="419" y="-240" width="6" height="240" style="fill:transparent;" onmouseover="sh(422,422,-246,'01.02.2021 147,91');" onmouseout="hh();" /><rect x="419" y="-129" width="6" height="129" style="fill:#0080C0;" onmouseover="sh(422,422,-246,'01.02.2021 147,91');" onmouseout="hh();" /><rect x="428" y="-240" width="6" height="240" style="fill:transparent;" onmouseover="sh(431,431,-246,'01.03.2021 129,96');" onmouseout="hh();" /><rect x="428" y="-108" width="6" height="108" style="fill:#0080C0;" onmouseover="sh(431,431,-246,'01.03.2021 129,96');" onmouseout="hh();" /><rect x="437" y="-240" width="6" height="240" style="fill:transparent;" onmouseover="sh(440,440,-246,'01.04.2021 147,36');" onmouseout="hh();" /><rect x="437" y="-129" width="6" height="129" style="fill:#0080C0;" onmouseover="sh(440,440,-246,'01.04.2021 147,36');" onmouseout="hh();" /><rect x="446" y="-240" width="6" height="240" style="fill:transparent;" onmouseover="sh(449,449,-246,'01.05.2021 147,62');" onmouseout="hh();" /><rect x="446" y="-129" width="6" height="129" style="fill:#0080C0;" onmouseover="sh(449,449,-246,'01.05.2021 147,62');" onmouseout="hh();" /><rect x="455" y="-240" width="6" height="240" style="fill:transparent;" onmouseover="sh(458,458,-246,'01.06.2021 131,73');" onmouseout="hh();" /><rect x="455" y="-110" width="6" height="110" style="fill:#0080C0;" onmouseover="sh(458,458,-246,'01.06.2021 131,73');" onmouseout="hh();" /><rect x="464" y="-240" width="6" height="240" style="fill:transparent;" onmouseover="sh(467,467,-246,'01.07.2021 148,22');" onmouseout="hh();" /><rect x="464" y="-130" width="6" height="130" style="fill:#0080C0;" onmouseover="sh(467,467,-246,'01.07.2021 148,22');" onmouseout="hh();" /><rect x="473" y="-240" width="6" height="240" style="fill:transparent;" onmouseover="sh(476,476,-246,'01.08.2021 157,27');" onmouseout="hh();" /><rect x="473" y="-141" width="6" height="141" style="fill:#0080C0;" onmouseover="sh(476,476,-246,'01.08.2021 157,27');" onmouseout="hh();" /><rect x="482" y="-240" width="6" height="240" style="fill:transparent;" onmouseover="sh(485,485,-246,'01.09.2021 135,47');" onmouseout="hh();" /><rect x="482" y="-115" width="6" height="115" style="fill:#0080C0;" onmouseover="sh(485,485,-246,'01.09.2021 135,47');" onmouseout="hh();" /><rect x="491" y="-240" width="6" height="240" style="fill:transparent;" onmouseover="sh(494,494,-246,'01.10.2021 157,27');" onmouseout="hh();" /><rect x="491" y="-141" width="6" height="141" style="fill:#0080C0;" onmouseover="sh(494,494,-246,'01.10.2021 157,27');" onmouseout="hh();" /><rect x="500" y="-240" width="6" height="240" style="fill:transparent;" onmouseover="sh(503,503,-246,'01.11.2021 170,06');" onmouseout="hh();" /><rect x="500" y="-156" width="6" height="156" style="fill:#0080C0;" onmouseover="sh(503,503,-246,'01.11.2021 170,06');" onmouseout="hh();" /><rect x="509" y="-240" width="6" height="240" style="fill:transparent;" onmouseover="sh(512,512,-246,'01.12.2021 177,94');" onmouseout="hh();" /><rect x="509" y="-166" width="6" height="166" style="fill:#0080C0;" onmouseover="sh(512,512,-246,'01.12.2021 177,94');" onmouseout="hh();" /><rect x="518" y="-240" width="6" height="240" style="fill:transparent;" onmouseover="sh(521,521,-246,'01.01.2022 178,50');" onmouseout="hh();" /><rect x="518" y="-166" width="6" height="166" style="fill:#0080C0;" onmouseover="sh(521,521,-246,'01.01.2022 178,50');" onmouseout="hh();" /><rect x="527" y="-240" width="6" height="240" style="fill:transparent;" onmouseover="sh(530,530,-246,'01.02.2022 178,50');" onmouseout="hh();" /><rect x="527" y="-166" width="6" height="166" style="fill:#0080C0;" onmouseover="sh(530,530,-246,'01.02.2022 178,50');" onmouseout="hh();" /><rect x="536" y="-240" width="6" height="240" style="fill:transparent;" onmouseover="sh(539,539,-246,'01.03.2022 178,50');" onmouseout="hh();" /><rect x="536" y="-166" width="6" height="166" style="fill:#0080C0;" onmouseover="sh(539,539,-246,'01.03.2022 178,50');" onmouseout="hh();" /><rect x="545" y="-240" width="6" height="240" style="fill:transparent;" onmouseover="sh(548,548,-246,'01.07.2022 185,61');" onmouseout="hh();" /><rect x="545" y="-175" width="6" height="175" style="fill:#0080C0;" onmouseover="sh(548,548,-246,'01.07.2022 185,61');" onmouseout="hh();" /><rect x="554" y="-240" width="6" height="240" style="fill:transparent;" onmouseover="sh(557,557,-246,'01.08.2022 186,50');" onmouseout="hh();" /><rect x="554" y="-176" width="6" height="176" style="fill:#0080C0;" onmouseover="sh(557,557,-246,'01.08.2022 186,50');" onmouseout="hh();" /><rect x="563" y="-240" width="6" height="240" style="fill:transparent;" onmouseover="sh(566,566,-246,'01.09.2022 189,56');" onmouseout="hh();" /><rect x="563" y="-179" width="6" height="179" style="fill:#0080C0;" onmouseover="sh(566,566,-246,'01.09.2022 189,56');" onmouseout="hh();" /><rect x="572" y="-240" width="6" height="240" style="fill:transparent;" onmouseover="sh(575,575,-246,'01.10.2022 198,40');" onmouseout="hh();" /><rect x="572" y="-190" width="6" height="190" style="fill:#0080C0;" onmouseover="sh(575,575,-246,'01.10.2022 198,40');" onmouseout="hh();" /><rect x="581" y="-240" width="6" height="240" style="fill:transparent;" onmouseover="sh(584,584,-246,'01.11.2022 198,40');" onmouseout="hh();" /><rect x="581" y="-190" width="6" height="190" style="fill:#0080C0;" onmouseover="sh(584,584,-246,'01.11.2022 198,40');" onmouseout="hh();" /><rect x="590" y="-240" width="6" height="240" style="fill:transparent;" onmouseover="sh(593,587,-246,'01.12.2022 198,40');" onmouseout="hh();" /><rect x="590" y="-190" width="6" height="190" style="fill:#0080C0;" onmouseover="sh(593,587,-246,'01.12.2022 198,40');" onmouseout="hh();" /><rect x="599" y="-240" width="6" height="240" style="fill:transparent;" onmouseover="sh(602,587,-246,'01.01.2023 198,40');" onmouseout="hh();" /><rect x="599" y="-190" width="6" height="190" style="fill:#0080C0;" onmouseover="sh(602,587,-246,'01.01.2023 198,40');" onmouseout="hh();" /><rect x="608" y="-240" width="6" height="240" style="fill:transparent;" onmouseover="sh(611,587,-246,'01.02.2023 198,40');" onmouseout="hh();" /><rect x="608" y="-190" width="6" height="190" style="fill:#0080C0;" onmouseover="sh(611,587,-246,'01.02.2023 198,40');" onmouseout="hh();" /><rect x="617" y="-240" width="6" height="240" style="fill:transparent;" onmouseover="sh(620,587,-246,'01.03.2023 202,17');" onmouseout="hh();" /><rect x="617" y="-195" width="6" height="195" style="fill:#0080C0;" onmouseover="sh(620,587,-246,'01.03.2023 202,17');" onmouseout="hh();" /><rect x="626" y="-240" width="6" height="240" style="fill:transparent;" onmouseover="sh(629,587,-246,'01.04.2023 203,30');" onmouseout="hh();" /><rect x="626" y="-196" width="6" height="196" style="fill:#0080C0;" onmouseover="sh(629,587,-246,'01.04.2023 203,30');" onmouseout="hh();" /><rect x="635" y="-240" width="6" height="240" style="fill:transparent;" onmouseover="sh(638,587,-246,'01.05.2023 209,55');" onmouseout="hh();" /><rect x="635" y="-203" width="6" height="203" style="fill:#0080C0;" onmouseover="sh(638,587,-246,'01.05.2023 209,55');" onmouseout="hh();" /><rect x="644" y="-240" width="6" height="240" style="fill:transparent;" onmouseover="sh(647,587,-246,'01.06.2023 214,90');" onmouseout="hh();" /><rect x="644" y="-210" width="6" height="210" style="fill:#0080C0;" onmouseover="sh(647,587,-246,'01.06.2023 214,90');" onmouseout="hh();" />
<line x1="-6" y1="0" x2="657" y2="0" class="axes" /><line x1="0" y1="-256" x2="0" y2="0" class="axes" /><text x="-2" y="-260" style="text-anchor:end;">грн.</text>
<use xlink:href="#hintbox" id="usebox" x="0" y="0" style="visibility:hidden;" />
</svg>
