<?xml version="1.0" encoding="UTF-8" standalone="no"?>
<!DOCTYPE svg PUBLIC "-//W3C//DTD SVG 1.1//EN" "http://www.w3.org/Graphics/SVG/1.1/DTD/svg11.dtd">
<svg version="1.1" xmlns="http://www.w3.org/2000/svg" xmlns:xlink="http://www.w3.org/1999/xlink" xmlns:ev="http://www.w3.org/2001/xml-events" width="624" height="330" viewBox="-48 -272 624 330" preserveAspectRatio="none">
<style type="text/css"><![CDATA[
line { stroke-width:1px; }
line.axes { stroke:#505050; }
line.grid { stroke:#D8D8D8; }
rect.bg { fill:#FFFFFF; }
text { font-family:arial,sans-serif; font-size:12px; fill:#000000; }
]]></style>
<defs>
<g id="hintbox"><rect x="0" y="0" width="77" height="34" style="stroke:#505050; stroke-width:1px; fill:rgba(255,255,255,0.87);" /><text id="hint0" x="4" y="14"> </text><text x="7" y="28"></text><text id="hint1" x="73" y="28" style="text-anchor:end;"> </text></g>
<g id="hintline"><line x1="0" y1="-242" x2="0" y2="0" class="axes" style="stroke-dasharray:2 1" /></g>
</defs>
<script><![CDATA[
function shb(x,y,dat) {
ar=dat.split(' '); for (i=0; i<ar.length; ++i) { if (i&&ar[i]) ar[i]+=' грн.'; h=document.getElementById('hint'+i); h.textContent=ar[i]; }
u=document.getElementById('usebox'); u.setAttribute('x',x); u.setAttribute('y',y); u.setAttribute('style','visibility:visible;'); }
function hhb() { u=document.getElementById('usebox'); u.setAttribute('style','visibility:hidden;'); u.setAttribute('x','0'); u.setAttribute('y','0'); }
function shl(x) { u=document.getElementById('useline'); u.setAttribute('x',x); u.setAttribute('style','visibility:visible;'); }
function hhl() { u=document.getElementById('useline'); u.setAttribute('style','visibility:hidden;'); u.setAttribute('x','0'); }
function sh(xl,xb,y,dat) { shl(xl); shb(xb,y,dat); }
function hh() { hhb(); hhl(); }
]]></script>
<rect x="-48" y="-272" width="624" height="330" class="bg" />
<line x1="17" y1="0" x2="17" y2="4" class="axes" /><text x="22" y="8" transform="rotate(-90,22,8)" style="text-anchor:end;">04.2017</text><line x1="44" y1="0" x2="44" y2="4" class="axes" /><text x="49" y="8" transform="rotate(-90,49,8)" style="text-anchor:end;">07.2017</text><line x1="71" y1="0" x2="71" y2="4" class="axes" /><text x="76" y="8" transform="rotate(-90,76,8)" style="text-anchor:end;">10.2017</text><line x1="98" y1="0" x2="98" y2="4" class="axes" /><text x="103" y="8" transform="rotate(-90,103,8)" style="text-anchor:end;">01.2018</text><line x1="125" y1="0" x2="125" y2="4" class="axes" /><text x="130" y="8" transform="rotate(-90,130,8)" style="text-anchor:end;">04.2018</text><line x1="161" y1="0" x2="161" y2="4" class="axes" /><text x="166" y="8" transform="rotate(-90,166,8)" style="text-anchor:end;">10.2019</text><line x1="188" y1="0" x2="188" y2="4" class="axes" /><text x="193" y="8" transform="rotate(-90,193,8)" style="text-anchor:end;">01.2020</text><line x1="215" y1="0" x2="215" y2="4" class="axes" /><text x="220" y="8" transform="rotate(-90,220,8)" style="text-anchor:end;">04.2020</text><line x1="242" y1="0" x2="242" y2="4" class="axes" /><text x="247" y="8" transform="rotate(-90,247,8)" style="text-anchor:end;">07.2020</text><line x1="269" y1="0" x2="269" y2="4" class="axes" /><text x="274" y="8" transform="rotate(-90,274,8)" style="text-anchor:end;">10.2020</text><line x1="296" y1="0" x2="296" y2="4" class="axes" /><text x="301" y="8" transform="rotate(-90,301,8)" style="text-anchor:end;">01.2021</text><line x1="323" y1="0" x2="323" y2="4" class="axes" /><text x="328" y="8" transform="rotate(-90,328,8)" style="text-anchor:end;">04.2021</text><line x1="350" y1="0" x2="350" y2="4" class="axes" /><text x="355" y="8" transform="rotate(-90,355,8)" style="text-anchor:end;">07.2021</text><line x1="377" y1="0" x2="377" y2="4" class="axes" /><text x="382" y="8" transform="rotate(-90,382,8)" style="text-anchor:end;">10.2021</text><line x1="404" y1="0" x2="404" y2="4" class="axes" /><text x="409" y="8" transform="rotate(-90,409,8)" style="text-anchor:end;">01.2022</text><line x1="431" y1="0" x2="431" y2="4" class="axes" /><text x="436" y="8" transform="rotate(-90,436,8)" style="text-anchor:end;">04.2022</text><line x1="458" y1="0" x2="458" y2="4" class="axes" /><text x="463" y="8" transform="rotate(-90,463,8)" style="text-anchor:end;">07.2022</text><line x1="485" y1="0" x2="485" y2="4" class="axes" /><text x="490" y="8" transform="rotate(-90,490,8)" style="text-anchor:end;">10.2022</text><line x1="512" y1="0" x2="512" y2="4" class="axes" /><text x="517" y="8" transform="rotate(-90,517,8)" style="text-anchor:end;">01.2023</text><line x1="539" y1="0" x2="539" y2="4" class="axes" /><text x="544" y="8" transform="rotate(-90,544,8)" style="text-anchor:end;">04.2023</text>
<line x1="0" y1="-22" x2="564" y2="-22" class="grid" /><line x1="0" y1="-22" x2="-4" y2="-22" class="axes" /><text x="-8" y="-18" style="text-anchor:end;">50</text><line x1="0" y1="-44" x2="564" y2="-44" class="grid" /><line x1="0" y1="-44" x2="-4" y2="-44" class="axes" /><text x="-8" y="-40" style="text-anchor:end;">100</text><line x1="0" y1="-66" x2="564" y2="-66" class="grid" /><line x1="0" y1="-66" x2="-4" y2="-66" class="axes" /><text x="-8" y="-62" style="text-anchor:end;">150</text><line x1="0" y1="-88" x2="564" y2="-88" class="grid" /><line x1="0" y1="-88" x2="-4" y2="-88" class="axes" /><text x="-8" y="-84" style="text-anchor:end;">200</text><line x1="0" y1="-110" x2="564" y2="-110" class="grid" /><line x1="0" y1="-110" x2="-4" y2="-110" class="axes" /><text x="-8" y="-106" style="text-anchor:end;">250</text><line x1="0" y1="-132" x2="564" y2="-132" class="grid" /><line x1="0" y1="-132" x2="-4" y2="-132" class="axes" /><text x="-8" y="-128" style="text-anchor:end;">300</text><line x1="0" y1="-154" x2="564" y2="-154" class="grid" /><line x1="0" y1="-154" x2="-4" y2="-154" class="axes" /><text x="-8" y="-150" style="text-anchor:end;">350</text><line x1="0" y1="-176" x2="564" y2="-176" class="grid" /><line x1="0" y1="-176" x2="-4" y2="-176" class="axes" /><text x="-8" y="-172" style="text-anchor:end;">400</text><line x1="0" y1="-198" x2="564" y2="-198" class="grid" /><line x1="0" y1="-198" x2="-4" y2="-198" class="axes" /><text x="-8" y="-194" style="text-anchor:end;">450</text><line x1="0" y1="-220" x2="564" y2="-220" class="grid" /><line x1="0" y1="-220" x2="-4" y2="-220" class="axes" /><text x="-8" y="-216" style="text-anchor:end;">500</text><line x1="0" y1="-242" x2="564" y2="-242" class="grid" /><line x1="0" y1="-242" x2="-4" y2="-242" class="axes" /><text x="-8" y="-238" style="text-anchor:end;">550</text>
<use xlink:href="#hintline" id="useline" x="0" style="visibility:hidden;" />
<rect x="5" y="-242" width="6" height="242" style="fill:transparent;" onmouseover="sh(8,8,-248,'01.03.2017 154,00');" onmouseout="hh();" /><rect x="5" y="-68" width="6" height="68" style="fill:#0080C0;" onmouseover="sh(8,8,-248,'01.03.2017 154,00');" onmouseout="hh();" /><rect x="14" y="-242" width="6" height="242" style="fill:transparent;" onmouseover="sh(17,17,-248,'01.04.2017 149,38');" onmouseout="hh();" /><rect x="14" y="-66" width="6" height="66" style="fill:#0080C0;" onmouseover="sh(17,17,-248,'01.04.2017 149,38');" onmouseout="hh();" /><rect x="23" y="-242" width="6" height="242" style="fill:transparent;" onmouseover="sh(26,26,-248,'01.05.2017 149,00');" onmouseout="hh();" /><rect x="23" y="-66" width="6" height="66" style="fill:#0080C0;" onmouseover="sh(26,26,-248,'01.05.2017 149,00');" onmouseout="hh();" /><rect x="32" y="-242" width="6" height="242" style="fill:transparent;" onmouseover="sh(35,35,-248,'01.06.2017 149,00');" onmouseout="hh();" /><rect x="32" y="-66" width="6" height="66" style="fill:#0080C0;" onmouseover="sh(35,35,-248,'01.06.2017 149,00');" onmouseout="hh();" /><rect x="41" y="-242" width="6" height="242" style="fill:transparent;" onmouseover="sh(44,44,-248,'01.07.2017 153,74');" onmouseout="hh();" /><rect x="41" y="-68" width="6" height="68" style="fill:#0080C0;" onmouseover="sh(44,44,-248,'01.07.2017 153,74');" onmouseout="hh();" /><rect x="50" y="-242" width="6" height="242" style="fill:transparent;" onmouseover="sh(53,53,-248,'01.08.2017 154,00');" onmouseout="hh();" /><rect x="50" y="-68" width="6" height="68" style="fill:#0080C0;" onmouseover="sh(53,53,-248,'01.08.2017 154,00');" onmouseout="hh();" /><rect x="59" y="-242" width="6" height="242" style="fill:transparent;" onmouseover="sh(62,62,-248,'01.09.2017 154,00');" onmouseout="hh();" /><rect x="59" y="-68" width="6" height="68" style="fill:#0080C0;" onmouseover="sh(62,62,-248,'01.09.2017 154,00');" onmouseout="hh();" /><rect x="68" y="-242" width="6" height="242" style="fill:transparent;" onmouseover="sh(71,71,-248,'01.10.2017 169,17');" onmouseout="hh();" /><rect x="68" y="-74" width="6" height="74" style="fill:#0080C0;" onmouseover="sh(71,71,-248,'01.10.2017 169,17');" onmouseout="hh();" /><rect x="77" y="-242" width="6" height="242" style="fill:transparent;" onmouseover="sh(80,80,-248,'01.11.2017 219,00');" onmouseout="hh();" /><rect x="77" y="-96" width="6" height="96" style="fill:#0080C0;" onmouseover="sh(80,80,-248,'01.11.2017 219,00');" onmouseout="hh();" /><rect x="86" y="-242" width="6" height="242" style="fill:transparent;" onmouseover="sh(89,89,-248,'01.12.2017 224,81');" onmouseout="hh();" /><rect x="86" y="-99" width="6" height="99" style="fill:#0080C0;" onmouseover="sh(89,89,-248,'01.12.2017 224,81');" onmouseout="hh();" /><rect x="95" y="-242" width="6" height="242" style="fill:transparent;" onmouseover="sh(98,98,-248,'01.01.2018 229,00');" onmouseout="hh();" /><rect x="95" y="-101" width="6" height="101" style="fill:#0080C0;" onmouseover="sh(98,98,-248,'01.01.2018 229,00');" onmouseout="hh();" /><rect x="104" y="-242" width="6" height="242" style="fill:transparent;" onmouseover="sh(107,107,-248,'01.02.2018 229,00');" onmouseout="hh();" /><rect x="104" y="-101" width="6" height="101" style="fill:#0080C0;" onmouseover="sh(107,107,-248,'01.02.2018 229,00');" onmouseout="hh();" /><rect x="113" y="-242" width="6" height="242" style="fill:transparent;" onmouseover="sh(116,116,-248,'01.03.2018 240,61');" onmouseout="hh();" /><rect x="113" y="-106" width="6" height="106" style="fill:#0080C0;" onmouseover="sh(116,116,-248,'01.03.2018 240,61');" onmouseout="hh();" /><rect x="122" y="-242" width="6" height="242" style="fill:transparent;" onmouseover="sh(125,125,-248,'01.04.2018 259,00');" onmouseout="hh();" /><rect x="122" y="-114" width="6" height="114" style="fill:#0080C0;" onmouseover="sh(125,125,-248,'01.04.2018 259,00');" onmouseout="hh();" /><rect x="131" y="-242" width="6" height="242" style="fill:transparent;" onmouseover="sh(134,134,-248,'01.05.2018 259,00');" onmouseout="hh();" /><rect x="131" y="-114" width="6" height="114" style="fill:#0080C0;" onmouseover="sh(134,134,-248,'01.05.2018 259,00');" onmouseout="hh();" /><rect x="140" y="-242" width="6" height="242" style="fill:transparent;" onmouseover="sh(143,143,-248,'01.08.2019 291,80');" onmouseout="hh();" /><rect x="140" y="-128" width="6" height="128" style="fill:#0080C0;" onmouseover="sh(143,143,-248,'01.08.2019 291,80');" onmouseout="hh();" /><rect x="149" y="-242" width="6" height="242" style="fill:transparent;" onmouseover="sh(152,152,-248,'01.09.2019 282,33');" onmouseout="hh();" /><rect x="149" y="-124" width="6" height="124" style="fill:#0080C0;" onmouseover="sh(152,152,-248,'01.09.2019 282,33');" onmouseout="hh();" /><rect x="158" y="-242" width="6" height="242" style="fill:transparent;" onmouseover="sh(161,161,-248,'01.10.2019 304,26');" onmouseout="hh();" /><rect x="158" y="-134" width="6" height="134" style="fill:#0080C0;" onmouseover="sh(161,161,-248,'01.10.2019 304,26');" onmouseout="hh();" /><rect x="167" y="-242" width="6" height="242" style="fill:transparent;" onmouseover="sh(170,170,-248,'01.11.2019 291,80');" onmouseout="hh();" /><rect x="167" y="-128" width="6" height="128" style="fill:#0080C0;" onmouseover="sh(170,170,-248,'01.11.2019 291,80');" onmouseout="hh();" /><rect x="176" y="-242" width="6" height="242" style="fill:transparent;" onmouseover="sh(179,179,-248,'01.12.2019 271,10');" onmouseout="hh();" /><rect x="176" y="-119" width="6" height="119" style="fill:#0080C0;" onmouseover="sh(179,179,-248,'01.12.2019 271,10');" onmouseout="hh();" /><rect x="185" y="-242" width="6" height="242" style="fill:transparent;" onmouseover="sh(188,188,-248,'01.01.2020 272,65');" onmouseout="hh();" /><rect x="185" y="-120" width="6" height="120" style="fill:#0080C0;" onmouseover="sh(188,188,-248,'01.01.2020 272,65');" onmouseout="hh();" /><rect x="194" y="-242" width="6" height="242" style="fill:transparent;" onmouseover="sh(197,197,-248,'01.02.2020 291,60');" onmouseout="hh();" /><rect x="194" y="-128" width="6" height="128" style="fill:#0080C0;" onmouseover="sh(197,197,-248,'01.02.2020 291,60');" onmouseout="hh();" /><rect x="203" y="-242" width="6" height="242" style="fill:transparent;" onmouseover="sh(206,206,-248,'01.03.2020 291,60');" onmouseout="hh();" /><rect x="203" y="-128" width="6" height="128" style="fill:#0080C0;" onmouseover="sh(206,206,-248,'01.03.2020 291,60');" onmouseout="hh();" /><rect x="212" y="-242" width="6" height="242" style="fill:transparent;" onmouseover="sh(215,215,-248,'01.04.2020 299,89');" onmouseout="hh();" /><rect x="212" y="-132" width="6" height="132" style="fill:#0080C0;" onmouseover="sh(215,215,-248,'01.04.2020 299,89');" onmouseout="hh();" /><rect x="221" y="-242" width="6" height="242" style="fill:transparent;" onmouseover="sh(224,224,-248,'01.05.2020 272,23');" onmouseout="hh();" /><rect x="221" y="-120" width="6" height="120" style="fill:#0080C0;" onmouseover="sh(224,224,-248,'01.05.2020 272,23');" onmouseout="hh();" /><rect x="230" y="-242" width="6" height="242" style="fill:transparent;" onmouseover="sh(233,233,-248,'01.06.2020 293,32');" onmouseout="hh();" /><rect x="230" y="-129" width="6" height="129" style="fill:#0080C0;" onmouseover="sh(233,233,-248,'01.06.2020 293,32');" onmouseout="hh();" /><rect x="239" y="-242" width="6" height="242" style="fill:transparent;" onmouseover="sh(242,242,-248,'01.07.2020 274,40');" onmouseout="hh();" /><rect x="239" y="-121" width="6" height="121" style="fill:#0080C0;" onmouseover="sh(242,242,-248,'01.07.2020 274,40');" onmouseout="hh();" /><rect x="248" y="-242" width="6" height="242" style="fill:transparent;" onmouseover="sh(251,251,-248,'01.08.2020 304,60');" onmouseout="hh();" /><rect x="248" y="-134" width="6" height="134" style="fill:#0080C0;" onmouseover="sh(251,251,-248,'01.08.2020 304,60');" onmouseout="hh();" /><rect x="257" y="-242" width="6" height="242" style="fill:transparent;" onmouseover="sh(260,260,-248,'01.09.2020 321,14');" onmouseout="hh();" /><rect x="257" y="-141" width="6" height="141" style="fill:#0080C0;" onmouseover="sh(260,260,-248,'01.09.2020 321,14');" onmouseout="hh();" /><rect x="266" y="-242" width="6" height="242" style="fill:transparent;" onmouseover="sh(269,269,-248,'01.10.2020 321,14');" onmouseout="hh();" /><rect x="266" y="-141" width="6" height="141" style="fill:#0080C0;" onmouseover="sh(269,269,-248,'01.10.2020 321,14');" onmouseout="hh();" /><rect x="275" y="-242" width="6" height="242" style="fill:transparent;" onmouseover="sh(278,278,-248,'01.11.2020 311,93');" onmouseout="hh();" /><rect x="275" y="-137" width="6" height="137" style="fill:#0080C0;" onmouseover="sh(278,278,-248,'01.11.2020 311,93');" onmouseout="hh();" /><rect x="284" y="-242" width="6" height="242" style="fill:transparent;" onmouseover="sh(287,287,-248,'01.12.2020 302,64');" onmouseout="hh();" /><rect x="284" y="-133" width="6" height="133" style="fill:#0080C0;" onmouseover="sh(287,287,-248,'01.12.2020 302,64');" onmouseout="hh();" /><rect x="293" y="-242" width="6" height="242" style="fill:transparent;" onmouseover="sh(296,296,-248,'01.01.2021 286,53');" onmouseout="hh();" /><rect x="293" y="-126" width="6" height="126" style="fill:#0080C0;" onmouseover="sh(296,296,-248,'01.01.2021 286,53');" onmouseout="hh();" /><rect x="302" y="-242" width="6" height="242" style="fill:transparent;" onmouseover="sh(305,305,-248,'01.02.2021 315,91');" onmouseout="hh();" /><rect x="302" y="-139" width="6" height="139" style="fill:#0080C0;" onmouseover="sh(305,305,-248,'01.02.2021 315,91');" onmouseout="hh();" /><rect x="311" y="-242" width="6" height="242" style="fill:transparent;" onmouseover="sh(314,314,-248,'01.03.2021 322,06');" onmouseout="hh();" /><rect x="311" y="-142" width="6" height="142" style="fill:#0080C0;" onmouseover="sh(314,314,-248,'01.03.2021 322,06');" onmouseout="hh();" /><rect x="320" y="-242" width="6" height="242" style="fill:transparent;" onmouseover="sh(323,323,-248,'01.04.2021 311,44');" onmouseout="hh();" /><rect x="320" y="-137" width="6" height="137" style="fill:#0080C0;" onmouseover="sh(323,323,-248,'01.04.2021 311,44');" onmouseout="hh();" /><rect x="329" y="-242" width="6" height="242" style="fill:transparent;" onmouseover="sh(332,332,-248,'01.05.2021 306,55');" onmouseout="hh();" /><rect x="329" y="-135" width="6" height="135" style="fill:#0080C0;" onmouseover="sh(332,332,-248,'01.05.2021 306,55');" onmouseout="hh();" /><rect x="338" y="-242" width="6" height="242" style="fill:transparent;" onmouseover="sh(341,341,-248,'01.06.2021 319,74');" onmouseout="hh();" /><rect x="338" y="-141" width="6" height="141" style="fill:#0080C0;" onmouseover="sh(341,341,-248,'01.06.2021 319,74');" onmouseout="hh();" /><rect x="347" y="-242" width="6" height="242" style="fill:transparent;" onmouseover="sh(350,350,-248,'01.07.2021 322,41');" onmouseout="hh();" /><rect x="347" y="-142" width="6" height="142" style="fill:#0080C0;" onmouseover="sh(350,350,-248,'01.07.2021 322,41');" onmouseout="hh();" /><rect x="356" y="-242" width="6" height="242" style="fill:transparent;" onmouseover="sh(359,359,-248,'01.08.2021 316,25');" onmouseout="hh();" /><rect x="356" y="-139" width="6" height="139" style="fill:#0080C0;" onmouseover="sh(359,359,-248,'01.08.2021 316,25');" onmouseout="hh();" /><rect x="365" y="-242" width="6" height="242" style="fill:transparent;" onmouseover="sh(368,368,-248,'01.09.2021 315,11');" onmouseout="hh();" /><rect x="365" y="-139" width="6" height="139" style="fill:#0080C0;" onmouseover="sh(368,368,-248,'01.09.2021 315,11');" onmouseout="hh();" /><rect x="374" y="-242" width="6" height="242" style="fill:transparent;" onmouseover="sh(377,377,-248,'01.10.2021 331,58');" onmouseout="hh();" /><rect x="374" y="-146" width="6" height="146" style="fill:#0080C0;" onmouseover="sh(377,377,-248,'01.10.2021 331,58');" onmouseout="hh();" /><rect x="383" y="-242" width="6" height="242" style="fill:transparent;" onmouseover="sh(386,386,-248,'01.11.2021 343,82');" onmouseout="hh();" /><rect x="383" y="-151" width="6" height="151" style="fill:#0080C0;" onmouseover="sh(386,386,-248,'01.11.2021 343,82');" onmouseout="hh();" /><rect x="392" y="-242" width="6" height="242" style="fill:transparent;" onmouseover="sh(395,395,-248,'01.12.2021 330,75');" onmouseout="hh();" /><rect x="392" y="-146" width="6" height="146" style="fill:#0080C0;" onmouseover="sh(395,395,-248,'01.12.2021 330,75');" onmouseout="hh();" /><rect x="401" y="-242" width="6" height="242" style="fill:transparent;" onmouseover="sh(404,404,-248,'01.01.2022 334,15');" onmouseout="hh();" /><rect x="401" y="-147" width="6" height="147" style="fill:#0080C0;" onmouseover="sh(404,404,-248,'01.01.2022 334,15');" onmouseout="hh();" /><rect x="410" y="-242" width="6" height="242" style="fill:transparent;" onmouseover="sh(413,413,-248,'01.02.2022 348,11');" onmouseout="hh();" /><rect x="410" y="-153" width="6" height="153" style="fill:#0080C0;" onmouseover="sh(413,413,-248,'01.02.2022 348,11');" onmouseout="hh();" /><rect x="419" y="-242" width="6" height="242" style="fill:transparent;" onmouseover="sh(422,422,-248,'01.03.2022 342,43');" onmouseout="hh();" /><rect x="419" y="-151" width="6" height="151" style="fill:#0080C0;" onmouseover="sh(422,422,-248,'01.03.2022 342,43');" onmouseout="hh();" /><rect x="428" y="-242" width="6" height="242" style="fill:transparent;" onmouseover="sh(431,431,-248,'01.04.2022 331,10');" onmouseout="hh();" /><rect x="428" y="-146" width="6" height="146" style="fill:#0080C0;" onmouseover="sh(431,431,-248,'01.04.2022 331,10');" onmouseout="hh();" /><rect x="437" y="-242" width="6" height="242" style="fill:transparent;" onmouseover="sh(440,440,-248,'01.05.2022 340,13');" onmouseout="hh();" /><rect x="437" y="-150" width="6" height="150" style="fill:#0080C0;" onmouseover="sh(440,440,-248,'01.05.2022 340,13');" onmouseout="hh();" /><rect x="446" y="-242" width="6" height="242" style="fill:transparent;" onmouseover="sh(449,449,-248,'01.06.2022 356,98');" onmouseout="hh();" /><rect x="446" y="-157" width="6" height="157" style="fill:#0080C0;" onmouseover="sh(449,449,-248,'01.06.2022 356,98');" onmouseout="hh();" /><rect x="455" y="-242" width="6" height="242" style="fill:transparent;" onmouseover="sh(458,458,-248,'01.07.2022 385,38');" onmouseout="hh();" /><rect x="455" y="-170" width="6" height="170" style="fill:#0080C0;" onmouseover="sh(458,458,-248,'01.07.2022 385,38');" onmouseout="hh();" /><rect x="464" y="-242" width="6" height="242" style="fill:transparent;" onmouseover="sh(467,467,-248,'01.08.2022 394,88');" onmouseout="hh();" /><rect x="464" y="-174" width="6" height="174" style="fill:#0080C0;" onmouseover="sh(467,467,-248,'01.08.2022 394,88');" onmouseout="hh();" /><rect x="473" y="-242" width="6" height="242" style="fill:transparent;" onmouseover="sh(476,476,-248,'01.09.2022 412,34');" onmouseout="hh();" /><rect x="473" y="-181" width="6" height="181" style="fill:#0080C0;" onmouseover="sh(476,476,-248,'01.09.2022 412,34');" onmouseout="hh();" /><rect x="482" y="-242" width="6" height="242" style="fill:transparent;" onmouseover="sh(485,485,-248,'01.10.2022 443,03');" onmouseout="hh();" /><rect x="482" y="-195" width="6" height="195" style="fill:#0080C0;" onmouseover="sh(485,485,-248,'01.10.2022 443,03');" onmouseout="hh();" /><rect x="491" y="-242" width="6" height="242" style="fill:transparent;" onmouseover="sh(494,494,-248,'01.11.2022 443,49');" onmouseout="hh();" /><rect x="491" y="-195" width="6" height="195" style="fill:#0080C0;" onmouseover="sh(494,494,-248,'01.11.2022 443,49');" onmouseout="hh();" /><rect x="500" y="-242" width="6" height="242" style="fill:transparent;" onmouseover="sh(503,497,-248,'01.12.2022 450,31');" onmouseout="hh();" /><rect x="500" y="-198" width="6" height="198" style="fill:#0080C0;" onmouseover="sh(503,497,-248,'01.12.2022 450,31');" onmouseout="hh();" /><rect x="509" y="-242" width="6" height="242" style="fill:transparent;" onmouseover="sh(512,497,-248,'01.01.2023 451,85');" onmouseout="hh();" /><rect x="509" y="-199" width="6" height="199" style="fill:#0080C0;" onmouseover="sh(512,497,-248,'01.01.2023 451,85');" onmouseout="hh();" /><rect x="518" y="-242" width="6" height="242" style="fill:transparent;" onmouseover="sh(521,497,-248,'01.02.2023 451,85');" onmouseout="hh();" /><rect x="518" y="-199" width="6" height="199" style="fill:#0080C0;" onmouseover="sh(521,497,-248,'01.02.2023 451,85');" onmouseout="hh();" /><rect x="527" y="-242" width="6" height="242" style="fill:transparent;" onmouseover="sh(530,497,-248,'01.03.2023 446,35');" onmouseout="hh();" /><rect x="527" y="-196" width="6" height="196" style="fill:#0080C0;" onmouseover="sh(530,497,-248,'01.03.2023 446,35');" onmouseout="hh();" /><rect x="536" y="-242" width="6" height="242" style="fill:transparent;" onmouseover="sh(539,497,-248,'01.04.2023 445,28');" onmouseout="hh();" /><rect x="536" y="-196" width="6" height="196" style="fill:#0080C0;" onmouseover="sh(539,497,-248,'01.04.2023 445,28');" onmouseout="hh();" /><rect x="545" y="-242" width="6" height="242" style="fill:transparent;" onmouseover="sh(548,497,-248,'01.05.2023 451,46');" onmouseout="hh();" /><rect x="545" y="-199" width="6" height="199" style="fill:#0080C0;" onmouseover="sh(548,497,-248,'01.05.2023 451,46');" onmouseout="hh();" /><rect x="554" y="-242" width="6" height="242" style="fill:transparent;" onmouseover="sh(557,497,-248,'01.06.2023 472,90');" onmouseout="hh();" /><rect x="554" y="-208" width="6" height="208" style="fill:#0080C0;" onmouseover="sh(557,497,-248,'01.06.2023 472,90');" onmouseout="hh();" />
<line x1="-6" y1="0" x2="567" y2="0" class="axes" /><line x1="0" y1="-258" x2="0" y2="0" class="axes" /><text x="-2" y="-262" style="text-anchor:end;">грн.</text>
<use xlink:href="#hintbox" id="usebox" x="0" y="0" style="visibility:hidden;" />
</svg>
