<?xml version="1.0" encoding="UTF-8" standalone="no"?>
<!DOCTYPE svg PUBLIC "-//W3C//DTD SVG 1.1//EN" "http://www.w3.org/Graphics/SVG/1.1/DTD/svg11.dtd">
<svg version="1.1" xmlns="http://www.w3.org/2000/svg" xmlns:xlink="http://www.w3.org/1999/xlink" xmlns:ev="http://www.w3.org/2001/xml-events" width="750" height="330" viewBox="-48 -272 750 330" preserveAspectRatio="none">
<style type="text/css"><![CDATA[
line { stroke-width:1px; }
line.axes { stroke:#505050; }
line.grid { stroke:#D8D8D8; }
rect.bg { fill:#FFFFFF; }
text { font-family:arial,sans-serif; font-size:12px; fill:#000000; }
]]></style>
<defs>
<g id="hintbox"><rect x="0" y="0" width="77" height="34" style="stroke:#505050; stroke-width:1px; fill:rgba(255,255,255,0.87);" /><text id="hint0" x="4" y="14"> </text><text x="7" y="28"></text><text id="hint1" x="73" y="28" style="text-anchor:end;"> </text></g>
<g id="hintline"><line x1="0" y1="-238" x2="0" y2="0" class="axes" style="stroke-dasharray:2 1" /></g>
</defs>
<script><![CDATA[
function shb(x,y,dat) {
ar=dat.split(' '); for (i=0; i<ar.length; ++i) { if (i&&ar[i]) ar[i]+=' грн.'; h=document.getElementById('hint'+i); h.textContent=ar[i]; }
u=document.getElementById('usebox'); u.setAttribute('x',x); u.setAttribute('y',y); u.setAttribute('style','visibility:visible;'); }
function hhb() { u=document.getElementById('usebox'); u.setAttribute('style','visibility:hidden;'); u.setAttribute('x','0'); u.setAttribute('y','0'); }
function shl(x) { u=document.getElementById('useline'); u.setAttribute('x',x); u.setAttribute('style','visibility:visible;'); }
function hhl() { u=document.getElementById('useline'); u.setAttribute('style','visibility:hidden;'); u.setAttribute('x','0'); }
function sh(xl,xb,y,dat) { shl(xl); shb(xb,y,dat); }
function hh() { hhb(); hhl(); }
]]></script>
<rect x="-48" y="-272" width="750" height="330" class="bg" />
<line x1="17" y1="0" x2="17" y2="4" class="axes" /><text x="22" y="8" transform="rotate(-90,22,8)" style="text-anchor:end;">04.2017</text><line x1="44" y1="0" x2="44" y2="4" class="axes" /><text x="49" y="8" transform="rotate(-90,49,8)" style="text-anchor:end;">07.2017</text><line x1="71" y1="0" x2="71" y2="4" class="axes" /><text x="76" y="8" transform="rotate(-90,76,8)" style="text-anchor:end;">10.2017</text><line x1="98" y1="0" x2="98" y2="4" class="axes" /><text x="103" y="8" transform="rotate(-90,103,8)" style="text-anchor:end;">01.2018</text><line x1="125" y1="0" x2="125" y2="4" class="axes" /><text x="130" y="8" transform="rotate(-90,130,8)" style="text-anchor:end;">04.2018</text><line x1="152" y1="0" x2="152" y2="4" class="axes" /><text x="157" y="8" transform="rotate(-90,157,8)" style="text-anchor:end;">07.2018</text><line x1="179" y1="0" x2="179" y2="4" class="axes" /><text x="184" y="8" transform="rotate(-90,184,8)" style="text-anchor:end;">10.2018</text><line x1="206" y1="0" x2="206" y2="4" class="axes" /><text x="211" y="8" transform="rotate(-90,211,8)" style="text-anchor:end;">01.2019</text><line x1="233" y1="0" x2="233" y2="4" class="axes" /><text x="238" y="8" transform="rotate(-90,238,8)" style="text-anchor:end;">04.2019</text><line x1="260" y1="0" x2="260" y2="4" class="axes" /><text x="265" y="8" transform="rotate(-90,265,8)" style="text-anchor:end;">07.2019</text><line x1="287" y1="0" x2="287" y2="4" class="axes" /><text x="292" y="8" transform="rotate(-90,292,8)" style="text-anchor:end;">10.2019</text><line x1="314" y1="0" x2="314" y2="4" class="axes" /><text x="319" y="8" transform="rotate(-90,319,8)" style="text-anchor:end;">01.2020</text><line x1="341" y1="0" x2="341" y2="4" class="axes" /><text x="346" y="8" transform="rotate(-90,346,8)" style="text-anchor:end;">04.2020</text><line x1="368" y1="0" x2="368" y2="4" class="axes" /><text x="373" y="8" transform="rotate(-90,373,8)" style="text-anchor:end;">07.2020</text><line x1="395" y1="0" x2="395" y2="4" class="axes" /><text x="400" y="8" transform="rotate(-90,400,8)" style="text-anchor:end;">10.2020</text><line x1="422" y1="0" x2="422" y2="4" class="axes" /><text x="427" y="8" transform="rotate(-90,427,8)" style="text-anchor:end;">01.2021</text><line x1="449" y1="0" x2="449" y2="4" class="axes" /><text x="454" y="8" transform="rotate(-90,454,8)" style="text-anchor:end;">04.2021</text><line x1="476" y1="0" x2="476" y2="4" class="axes" /><text x="481" y="8" transform="rotate(-90,481,8)" style="text-anchor:end;">07.2021</text><line x1="503" y1="0" x2="503" y2="4" class="axes" /><text x="508" y="8" transform="rotate(-90,508,8)" style="text-anchor:end;">10.2021</text><line x1="530" y1="0" x2="530" y2="4" class="axes" /><text x="535" y="8" transform="rotate(-90,535,8)" style="text-anchor:end;">01.2022</text><line x1="557" y1="0" x2="557" y2="4" class="axes" /><text x="562" y="8" transform="rotate(-90,562,8)" style="text-anchor:end;">04.2022</text><line x1="584" y1="0" x2="584" y2="4" class="axes" /><text x="589" y="8" transform="rotate(-90,589,8)" style="text-anchor:end;">07.2022</text><line x1="611" y1="0" x2="611" y2="4" class="axes" /><text x="616" y="8" transform="rotate(-90,616,8)" style="text-anchor:end;">10.2022</text><line x1="638" y1="0" x2="638" y2="4" class="axes" /><text x="643" y="8" transform="rotate(-90,643,8)" style="text-anchor:end;">01.2023</text><line x1="665" y1="0" x2="665" y2="4" class="axes" /><text x="670" y="8" transform="rotate(-90,670,8)" style="text-anchor:end;">04.2023</text>
<line x1="0" y1="-17" x2="690" y2="-17" class="grid" /><line x1="0" y1="-17" x2="-4" y2="-17" class="axes" /><text x="-8" y="-13" style="text-anchor:end;">18</text><line x1="0" y1="-34" x2="690" y2="-34" class="grid" /><line x1="0" y1="-34" x2="-4" y2="-34" class="axes" /><text x="-8" y="-30" style="text-anchor:end;">20</text><line x1="0" y1="-51" x2="690" y2="-51" class="grid" /><line x1="0" y1="-51" x2="-4" y2="-51" class="axes" /><text x="-8" y="-47" style="text-anchor:end;">22</text><line x1="0" y1="-68" x2="690" y2="-68" class="grid" /><line x1="0" y1="-68" x2="-4" y2="-68" class="axes" /><text x="-8" y="-64" style="text-anchor:end;">24</text><line x1="0" y1="-85" x2="690" y2="-85" class="grid" /><line x1="0" y1="-85" x2="-4" y2="-85" class="axes" /><text x="-8" y="-81" style="text-anchor:end;">26</text><line x1="0" y1="-102" x2="690" y2="-102" class="grid" /><line x1="0" y1="-102" x2="-4" y2="-102" class="axes" /><text x="-8" y="-98" style="text-anchor:end;">28</text><line x1="0" y1="-119" x2="690" y2="-119" class="grid" /><line x1="0" y1="-119" x2="-4" y2="-119" class="axes" /><text x="-8" y="-115" style="text-anchor:end;">30</text><line x1="0" y1="-136" x2="690" y2="-136" class="grid" /><line x1="0" y1="-136" x2="-4" y2="-136" class="axes" /><text x="-8" y="-132" style="text-anchor:end;">32</text><line x1="0" y1="-153" x2="690" y2="-153" class="grid" /><line x1="0" y1="-153" x2="-4" y2="-153" class="axes" /><text x="-8" y="-149" style="text-anchor:end;">34</text><line x1="0" y1="-170" x2="690" y2="-170" class="grid" /><line x1="0" y1="-170" x2="-4" y2="-170" class="axes" /><text x="-8" y="-166" style="text-anchor:end;">36</text><line x1="0" y1="-187" x2="690" y2="-187" class="grid" /><line x1="0" y1="-187" x2="-4" y2="-187" class="axes" /><text x="-8" y="-183" style="text-anchor:end;">38</text><line x1="0" y1="-204" x2="690" y2="-204" class="grid" /><line x1="0" y1="-204" x2="-4" y2="-204" class="axes" /><text x="-8" y="-200" style="text-anchor:end;">40</text><line x1="0" y1="-221" x2="690" y2="-221" class="grid" /><line x1="0" y1="-221" x2="-4" y2="-221" class="axes" /><text x="-8" y="-217" style="text-anchor:end;">42</text><line x1="0" y1="-238" x2="690" y2="-238" class="grid" /><line x1="0" y1="-238" x2="-4" y2="-238" class="axes" /><text x="-8" y="-234" style="text-anchor:end;">44</text>
<use xlink:href="#hintline" id="useline" x="0" style="visibility:hidden;" />
<rect x="5" y="-238" width="6" height="238" style="fill:transparent;" onmouseover="sh(8,8,-244,'01.03.2017 21,85');" onmouseout="hh();" /><rect x="5" y="-50" width="6" height="50" style="fill:#0080C0;" onmouseover="sh(8,8,-244,'01.03.2017 21,85');" onmouseout="hh();" /><rect x="14" y="-238" width="6" height="238" style="fill:transparent;" onmouseover="sh(17,17,-244,'01.04.2017 21,56');" onmouseout="hh();" /><rect x="14" y="-47" width="6" height="47" style="fill:#0080C0;" onmouseover="sh(17,17,-244,'01.04.2017 21,56');" onmouseout="hh();" /><rect x="23" y="-238" width="6" height="238" style="fill:transparent;" onmouseover="sh(26,26,-244,'01.05.2017 21,53');" onmouseout="hh();" /><rect x="23" y="-47" width="6" height="47" style="fill:#0080C0;" onmouseover="sh(26,26,-244,'01.05.2017 21,53');" onmouseout="hh();" /><rect x="32" y="-238" width="6" height="238" style="fill:transparent;" onmouseover="sh(35,35,-244,'01.06.2017 21,80');" onmouseout="hh();" /><rect x="32" y="-49" width="6" height="49" style="fill:#0080C0;" onmouseover="sh(35,35,-244,'01.06.2017 21,80');" onmouseout="hh();" /><rect x="41" y="-238" width="6" height="238" style="fill:transparent;" onmouseover="sh(44,44,-244,'01.07.2017 21,86');" onmouseout="hh();" /><rect x="41" y="-50" width="6" height="50" style="fill:#0080C0;" onmouseover="sh(44,44,-244,'01.07.2017 21,86');" onmouseout="hh();" /><rect x="50" y="-238" width="6" height="238" style="fill:transparent;" onmouseover="sh(53,53,-244,'01.08.2017 21,86');" onmouseout="hh();" /><rect x="50" y="-50" width="6" height="50" style="fill:#0080C0;" onmouseover="sh(53,53,-244,'01.08.2017 21,86');" onmouseout="hh();" /><rect x="59" y="-238" width="6" height="238" style="fill:transparent;" onmouseover="sh(62,62,-244,'01.09.2017 21,89');" onmouseout="hh();" /><rect x="59" y="-50" width="6" height="50" style="fill:#0080C0;" onmouseover="sh(62,62,-244,'01.09.2017 21,89');" onmouseout="hh();" /><rect x="68" y="-238" width="6" height="238" style="fill:transparent;" onmouseover="sh(71,71,-244,'01.10.2017 22,06');" onmouseout="hh();" /><rect x="68" y="-52" width="6" height="52" style="fill:#0080C0;" onmouseover="sh(71,71,-244,'01.10.2017 22,06');" onmouseout="hh();" /><rect x="77" y="-238" width="6" height="238" style="fill:transparent;" onmouseover="sh(80,80,-244,'01.11.2017 23,06');" onmouseout="hh();" /><rect x="77" y="-60" width="6" height="60" style="fill:#0080C0;" onmouseover="sh(80,80,-244,'01.11.2017 23,06');" onmouseout="hh();" /><rect x="86" y="-238" width="6" height="238" style="fill:transparent;" onmouseover="sh(89,89,-244,'01.12.2017 23,25');" onmouseout="hh();" /><rect x="86" y="-62" width="6" height="62" style="fill:#0080C0;" onmouseover="sh(89,89,-244,'01.12.2017 23,25');" onmouseout="hh();" /><rect x="95" y="-238" width="6" height="238" style="fill:transparent;" onmouseover="sh(98,98,-244,'01.01.2018 23,80');" onmouseout="hh();" /><rect x="95" y="-66" width="6" height="66" style="fill:#0080C0;" onmouseover="sh(98,98,-244,'01.01.2018 23,80');" onmouseout="hh();" /><rect x="104" y="-238" width="6" height="238" style="fill:transparent;" onmouseover="sh(107,107,-244,'01.02.2018 24,05');" onmouseout="hh();" /><rect x="104" y="-68" width="6" height="68" style="fill:#0080C0;" onmouseover="sh(107,107,-244,'01.02.2018 24,05');" onmouseout="hh();" /><rect x="113" y="-238" width="6" height="238" style="fill:transparent;" onmouseover="sh(116,116,-244,'01.03.2018 24,55');" onmouseout="hh();" /><rect x="113" y="-73" width="6" height="73" style="fill:#0080C0;" onmouseover="sh(116,116,-244,'01.03.2018 24,55');" onmouseout="hh();" /><rect x="122" y="-238" width="6" height="238" style="fill:transparent;" onmouseover="sh(125,125,-244,'01.04.2018 25,32');" onmouseout="hh();" /><rect x="122" y="-79" width="6" height="79" style="fill:#0080C0;" onmouseover="sh(125,125,-244,'01.04.2018 25,32');" onmouseout="hh();" /><rect x="131" y="-238" width="6" height="238" style="fill:transparent;" onmouseover="sh(134,134,-244,'01.05.2018 25,37');" onmouseout="hh();" /><rect x="131" y="-80" width="6" height="80" style="fill:#0080C0;" onmouseover="sh(134,134,-244,'01.05.2018 25,37');" onmouseout="hh();" /><rect x="140" y="-238" width="6" height="238" style="fill:transparent;" onmouseover="sh(143,143,-244,'01.06.2018 25,43');" onmouseout="hh();" /><rect x="140" y="-80" width="6" height="80" style="fill:#0080C0;" onmouseover="sh(143,143,-244,'01.06.2018 25,43');" onmouseout="hh();" /><rect x="149" y="-238" width="6" height="238" style="fill:transparent;" onmouseover="sh(152,152,-244,'01.07.2018 25,50');" onmouseout="hh();" /><rect x="149" y="-81" width="6" height="81" style="fill:#0080C0;" onmouseover="sh(152,152,-244,'01.07.2018 25,50');" onmouseout="hh();" /><rect x="158" y="-238" width="6" height="238" style="fill:transparent;" onmouseover="sh(161,161,-244,'01.08.2018 25,53');" onmouseout="hh();" /><rect x="158" y="-81" width="6" height="81" style="fill:#0080C0;" onmouseover="sh(161,161,-244,'01.08.2018 25,53');" onmouseout="hh();" /><rect x="167" y="-238" width="6" height="238" style="fill:transparent;" onmouseover="sh(170,170,-244,'01.09.2018 25,71');" onmouseout="hh();" /><rect x="167" y="-83" width="6" height="83" style="fill:#0080C0;" onmouseover="sh(170,170,-244,'01.09.2018 25,71');" onmouseout="hh();" /><rect x="176" y="-238" width="6" height="238" style="fill:transparent;" onmouseover="sh(179,179,-244,'01.10.2018 26,07');" onmouseout="hh();" /><rect x="176" y="-86" width="6" height="86" style="fill:#0080C0;" onmouseover="sh(179,179,-244,'01.10.2018 26,07');" onmouseout="hh();" /><rect x="185" y="-238" width="6" height="238" style="fill:transparent;" onmouseover="sh(188,188,-244,'01.11.2018 25,92');" onmouseout="hh();" /><rect x="185" y="-84" width="6" height="84" style="fill:#0080C0;" onmouseover="sh(188,188,-244,'01.11.2018 25,92');" onmouseout="hh();" /><rect x="194" y="-238" width="6" height="238" style="fill:transparent;" onmouseover="sh(197,197,-244,'01.12.2018 26,45');" onmouseout="hh();" /><rect x="194" y="-89" width="6" height="89" style="fill:#0080C0;" onmouseover="sh(197,197,-244,'01.12.2018 26,45');" onmouseout="hh();" /><rect x="203" y="-238" width="6" height="238" style="fill:transparent;" onmouseover="sh(206,206,-244,'01.01.2019 27,19');" onmouseout="hh();" /><rect x="203" y="-95" width="6" height="95" style="fill:#0080C0;" onmouseover="sh(206,206,-244,'01.01.2019 27,19');" onmouseout="hh();" /><rect x="212" y="-238" width="6" height="238" style="fill:transparent;" onmouseover="sh(215,215,-244,'01.02.2019 27,54');" onmouseout="hh();" /><rect x="212" y="-98" width="6" height="98" style="fill:#0080C0;" onmouseover="sh(215,215,-244,'01.02.2019 27,54');" onmouseout="hh();" /><rect x="221" y="-238" width="6" height="238" style="fill:transparent;" onmouseover="sh(224,224,-244,'01.03.2019 27,16');" onmouseout="hh();" /><rect x="221" y="-95" width="6" height="95" style="fill:#0080C0;" onmouseover="sh(224,224,-244,'01.03.2019 27,16');" onmouseout="hh();" /><rect x="230" y="-238" width="6" height="238" style="fill:transparent;" onmouseover="sh(233,233,-244,'01.04.2019 27,52');" onmouseout="hh();" /><rect x="230" y="-98" width="6" height="98" style="fill:#0080C0;" onmouseover="sh(233,233,-244,'01.04.2019 27,52');" onmouseout="hh();" /><rect x="239" y="-238" width="6" height="238" style="fill:transparent;" onmouseover="sh(242,242,-244,'01.05.2019 28,03');" onmouseout="hh();" /><rect x="239" y="-102" width="6" height="102" style="fill:#0080C0;" onmouseover="sh(242,242,-244,'01.05.2019 28,03');" onmouseout="hh();" /><rect x="248" y="-238" width="6" height="238" style="fill:transparent;" onmouseover="sh(251,251,-244,'01.06.2019 28,07');" onmouseout="hh();" /><rect x="248" y="-103" width="6" height="103" style="fill:#0080C0;" onmouseover="sh(251,251,-244,'01.06.2019 28,07');" onmouseout="hh();" /><rect x="257" y="-238" width="6" height="238" style="fill:transparent;" onmouseover="sh(260,260,-244,'01.07.2019 27,91');" onmouseout="hh();" /><rect x="257" y="-101" width="6" height="101" style="fill:#0080C0;" onmouseover="sh(260,260,-244,'01.07.2019 27,91');" onmouseout="hh();" /><rect x="266" y="-238" width="6" height="238" style="fill:transparent;" onmouseover="sh(269,269,-244,'01.08.2019 27,52');" onmouseout="hh();" /><rect x="266" y="-98" width="6" height="98" style="fill:#0080C0;" onmouseover="sh(269,269,-244,'01.08.2019 27,52');" onmouseout="hh();" /><rect x="275" y="-238" width="6" height="238" style="fill:transparent;" onmouseover="sh(278,278,-244,'01.09.2019 27,15');" onmouseout="hh();" /><rect x="275" y="-95" width="6" height="95" style="fill:#0080C0;" onmouseover="sh(278,278,-244,'01.09.2019 27,15');" onmouseout="hh();" /><rect x="284" y="-238" width="6" height="238" style="fill:transparent;" onmouseover="sh(287,287,-244,'01.10.2019 27,24');" onmouseout="hh();" /><rect x="284" y="-96" width="6" height="96" style="fill:#0080C0;" onmouseover="sh(287,287,-244,'01.10.2019 27,24');" onmouseout="hh();" /><rect x="293" y="-238" width="6" height="238" style="fill:transparent;" onmouseover="sh(296,296,-244,'01.11.2019 27,59');" onmouseout="hh();" /><rect x="293" y="-98" width="6" height="98" style="fill:#0080C0;" onmouseover="sh(296,296,-244,'01.11.2019 27,59');" onmouseout="hh();" /><rect x="302" y="-238" width="6" height="238" style="fill:transparent;" onmouseover="sh(305,305,-244,'01.12.2019 27,39');" onmouseout="hh();" /><rect x="302" y="-97" width="6" height="97" style="fill:#0080C0;" onmouseover="sh(305,305,-244,'01.12.2019 27,39');" onmouseout="hh();" /><rect x="311" y="-238" width="6" height="238" style="fill:transparent;" onmouseover="sh(314,314,-244,'01.01.2020 28,07');" onmouseout="hh();" /><rect x="311" y="-103" width="6" height="103" style="fill:#0080C0;" onmouseover="sh(314,314,-244,'01.01.2020 28,07');" onmouseout="hh();" /><rect x="320" y="-238" width="6" height="238" style="fill:transparent;" onmouseover="sh(323,323,-244,'01.02.2020 27,76');" onmouseout="hh();" /><rect x="320" y="-100" width="6" height="100" style="fill:#0080C0;" onmouseover="sh(323,323,-244,'01.02.2020 27,76');" onmouseout="hh();" /><rect x="329" y="-238" width="6" height="238" style="fill:transparent;" onmouseover="sh(332,332,-244,'01.03.2020 27,95');" onmouseout="hh();" /><rect x="329" y="-102" width="6" height="102" style="fill:#0080C0;" onmouseover="sh(332,332,-244,'01.03.2020 27,95');" onmouseout="hh();" /><rect x="338" y="-238" width="6" height="238" style="fill:transparent;" onmouseover="sh(341,341,-244,'01.04.2020 27,84');" onmouseout="hh();" /><rect x="338" y="-101" width="6" height="101" style="fill:#0080C0;" onmouseover="sh(341,341,-244,'01.04.2020 27,84');" onmouseout="hh();" /><rect x="347" y="-238" width="6" height="238" style="fill:transparent;" onmouseover="sh(350,350,-244,'01.05.2020 28,78');" onmouseout="hh();" /><rect x="347" y="-109" width="6" height="109" style="fill:#0080C0;" onmouseover="sh(350,350,-244,'01.05.2020 28,78');" onmouseout="hh();" /><rect x="356" y="-238" width="6" height="238" style="fill:transparent;" onmouseover="sh(359,359,-244,'01.06.2020 29,37');" onmouseout="hh();" /><rect x="356" y="-114" width="6" height="114" style="fill:#0080C0;" onmouseover="sh(359,359,-244,'01.06.2020 29,37');" onmouseout="hh();" /><rect x="365" y="-238" width="6" height="238" style="fill:transparent;" onmouseover="sh(368,368,-244,'01.07.2020 28,90');" onmouseout="hh();" /><rect x="365" y="-110" width="6" height="110" style="fill:#0080C0;" onmouseover="sh(368,368,-244,'01.07.2020 28,90');" onmouseout="hh();" /><rect x="374" y="-238" width="6" height="238" style="fill:transparent;" onmouseover="sh(377,377,-244,'01.08.2020 29,42');" onmouseout="hh();" /><rect x="374" y="-114" width="6" height="114" style="fill:#0080C0;" onmouseover="sh(377,377,-244,'01.08.2020 29,42');" onmouseout="hh();" /><rect x="383" y="-238" width="6" height="238" style="fill:transparent;" onmouseover="sh(386,386,-244,'01.09.2020 30,55');" onmouseout="hh();" /><rect x="383" y="-124" width="6" height="124" style="fill:#0080C0;" onmouseover="sh(386,386,-244,'01.09.2020 30,55');" onmouseout="hh();" /><rect x="392" y="-238" width="6" height="238" style="fill:transparent;" onmouseover="sh(395,395,-244,'01.10.2020 29,99');" onmouseout="hh();" /><rect x="392" y="-119" width="6" height="119" style="fill:#0080C0;" onmouseover="sh(395,395,-244,'01.10.2020 29,99');" onmouseout="hh();" /><rect x="401" y="-238" width="6" height="238" style="fill:transparent;" onmouseover="sh(404,404,-244,'01.11.2020 29,65');" onmouseout="hh();" /><rect x="401" y="-116" width="6" height="116" style="fill:#0080C0;" onmouseover="sh(404,404,-244,'01.11.2020 29,65');" onmouseout="hh();" /><rect x="410" y="-238" width="6" height="238" style="fill:transparent;" onmouseover="sh(413,413,-244,'01.12.2020 29,88');" onmouseout="hh();" /><rect x="410" y="-118" width="6" height="118" style="fill:#0080C0;" onmouseover="sh(413,413,-244,'01.12.2020 29,88');" onmouseout="hh();" /><rect x="419" y="-238" width="6" height="238" style="fill:transparent;" onmouseover="sh(422,422,-244,'01.01.2021 30,06');" onmouseout="hh();" /><rect x="419" y="-120" width="6" height="120" style="fill:#0080C0;" onmouseover="sh(422,422,-244,'01.01.2021 30,06');" onmouseout="hh();" /><rect x="428" y="-238" width="6" height="238" style="fill:transparent;" onmouseover="sh(431,431,-244,'01.02.2021 30,33');" onmouseout="hh();" /><rect x="428" y="-122" width="6" height="122" style="fill:#0080C0;" onmouseover="sh(431,431,-244,'01.02.2021 30,33');" onmouseout="hh();" /><rect x="437" y="-238" width="6" height="238" style="fill:transparent;" onmouseover="sh(440,440,-244,'01.03.2021 29,48');" onmouseout="hh();" /><rect x="437" y="-115" width="6" height="115" style="fill:#0080C0;" onmouseover="sh(440,440,-244,'01.03.2021 29,48');" onmouseout="hh();" /><rect x="446" y="-238" width="6" height="238" style="fill:transparent;" onmouseover="sh(449,449,-244,'01.04.2021 28,81');" onmouseout="hh();" /><rect x="446" y="-109" width="6" height="109" style="fill:#0080C0;" onmouseover="sh(449,449,-244,'01.04.2021 28,81');" onmouseout="hh();" /><rect x="455" y="-238" width="6" height="238" style="fill:transparent;" onmouseover="sh(458,458,-244,'01.05.2021 28,86');" onmouseout="hh();" /><rect x="455" y="-109" width="6" height="109" style="fill:#0080C0;" onmouseover="sh(458,458,-244,'01.05.2021 28,86');" onmouseout="hh();" /><rect x="464" y="-238" width="6" height="238" style="fill:transparent;" onmouseover="sh(467,467,-244,'01.06.2021 28,27');" onmouseout="hh();" /><rect x="464" y="-104" width="6" height="104" style="fill:#0080C0;" onmouseover="sh(467,467,-244,'01.06.2021 28,27');" onmouseout="hh();" /><rect x="473" y="-238" width="6" height="238" style="fill:transparent;" onmouseover="sh(476,476,-244,'01.07.2021 29,38');" onmouseout="hh();" /><rect x="473" y="-114" width="6" height="114" style="fill:#0080C0;" onmouseover="sh(476,476,-244,'01.07.2021 29,38');" onmouseout="hh();" /><rect x="482" y="-238" width="6" height="238" style="fill:transparent;" onmouseover="sh(485,485,-244,'01.08.2021 28,55');" onmouseout="hh();" /><rect x="482" y="-107" width="6" height="107" style="fill:#0080C0;" onmouseover="sh(485,485,-244,'01.08.2021 28,55');" onmouseout="hh();" /><rect x="491" y="-238" width="6" height="238" style="fill:transparent;" onmouseover="sh(494,494,-244,'01.09.2021 29,43');" onmouseout="hh();" /><rect x="491" y="-114" width="6" height="114" style="fill:#0080C0;" onmouseover="sh(494,494,-244,'01.09.2021 29,43');" onmouseout="hh();" /><rect x="500" y="-238" width="6" height="238" style="fill:transparent;" onmouseover="sh(503,503,-244,'01.10.2021 29,50');" onmouseout="hh();" /><rect x="500" y="-115" width="6" height="115" style="fill:#0080C0;" onmouseover="sh(503,503,-244,'01.10.2021 29,50');" onmouseout="hh();" /><rect x="509" y="-238" width="6" height="238" style="fill:transparent;" onmouseover="sh(512,512,-244,'01.11.2021 28,08');" onmouseout="hh();" /><rect x="509" y="-103" width="6" height="103" style="fill:#0080C0;" onmouseover="sh(512,512,-244,'01.11.2021 28,08');" onmouseout="hh();" /><rect x="518" y="-238" width="6" height="238" style="fill:transparent;" onmouseover="sh(521,521,-244,'01.12.2021 30,33');" onmouseout="hh();" /><rect x="518" y="-122" width="6" height="122" style="fill:#0080C0;" onmouseover="sh(521,521,-244,'01.12.2021 30,33');" onmouseout="hh();" /><rect x="527" y="-238" width="6" height="238" style="fill:transparent;" onmouseover="sh(530,530,-244,'01.01.2022 31,36');" onmouseout="hh();" /><rect x="527" y="-131" width="6" height="131" style="fill:#0080C0;" onmouseover="sh(530,530,-244,'01.01.2022 31,36');" onmouseout="hh();" /><rect x="536" y="-238" width="6" height="238" style="fill:transparent;" onmouseover="sh(539,539,-244,'01.02.2022 31,36');" onmouseout="hh();" /><rect x="536" y="-131" width="6" height="131" style="fill:#0080C0;" onmouseover="sh(539,539,-244,'01.02.2022 31,36');" onmouseout="hh();" /><rect x="545" y="-238" width="6" height="238" style="fill:transparent;" onmouseover="sh(548,548,-244,'01.03.2022 31,36');" onmouseout="hh();" /><rect x="545" y="-131" width="6" height="131" style="fill:#0080C0;" onmouseover="sh(548,548,-244,'01.03.2022 31,36');" onmouseout="hh();" /><rect x="554" y="-238" width="6" height="238" style="fill:transparent;" onmouseover="sh(557,557,-244,'01.04.2022 32,90');" onmouseout="hh();" /><rect x="554" y="-144" width="6" height="144" style="fill:#0080C0;" onmouseover="sh(557,557,-244,'01.04.2022 32,90');" onmouseout="hh();" /><rect x="563" y="-238" width="6" height="238" style="fill:transparent;" onmouseover="sh(566,566,-244,'01.05.2022 32,90');" onmouseout="hh();" /><rect x="563" y="-144" width="6" height="144" style="fill:#0080C0;" onmouseover="sh(566,566,-244,'01.05.2022 32,90');" onmouseout="hh();" /><rect x="572" y="-238" width="6" height="238" style="fill:transparent;" onmouseover="sh(575,575,-244,'01.06.2022 34,21');" onmouseout="hh();" /><rect x="572" y="-155" width="6" height="155" style="fill:#0080C0;" onmouseover="sh(575,575,-244,'01.06.2022 34,21');" onmouseout="hh();" /><rect x="581" y="-238" width="6" height="238" style="fill:transparent;" onmouseover="sh(584,584,-244,'01.07.2022 32,88');" onmouseout="hh();" /><rect x="581" y="-144" width="6" height="144" style="fill:#0080C0;" onmouseover="sh(584,584,-244,'01.07.2022 32,88');" onmouseout="hh();" /><rect x="590" y="-238" width="6" height="238" style="fill:transparent;" onmouseover="sh(593,593,-244,'01.08.2022 35,71');" onmouseout="hh();" /><rect x="590" y="-168" width="6" height="168" style="fill:#0080C0;" onmouseover="sh(593,593,-244,'01.08.2022 35,71');" onmouseout="hh();" /><rect x="599" y="-238" width="6" height="238" style="fill:transparent;" onmouseover="sh(602,602,-244,'01.09.2022 35,16');" onmouseout="hh();" /><rect x="599" y="-163" width="6" height="163" style="fill:#0080C0;" onmouseover="sh(602,602,-244,'01.09.2022 35,16');" onmouseout="hh();" /><rect x="608" y="-238" width="6" height="238" style="fill:transparent;" onmouseover="sh(611,611,-244,'01.10.2022 36,05');" onmouseout="hh();" /><rect x="608" y="-170" width="6" height="170" style="fill:#0080C0;" onmouseover="sh(611,611,-244,'01.10.2022 36,05');" onmouseout="hh();" /><rect x="617" y="-238" width="6" height="238" style="fill:transparent;" onmouseover="sh(620,620,-244,'01.11.2022 36,53');" onmouseout="hh();" /><rect x="617" y="-175" width="6" height="175" style="fill:#0080C0;" onmouseover="sh(620,620,-244,'01.11.2022 36,53');" onmouseout="hh();" /><rect x="626" y="-238" width="6" height="238" style="fill:transparent;" onmouseover="sh(629,623,-244,'01.12.2022 38,32');" onmouseout="hh();" /><rect x="626" y="-190" width="6" height="190" style="fill:#0080C0;" onmouseover="sh(629,623,-244,'01.12.2022 38,32');" onmouseout="hh();" /><rect x="635" y="-238" width="6" height="238" style="fill:transparent;" onmouseover="sh(638,623,-244,'01.01.2023 38,93');" onmouseout="hh();" /><rect x="635" y="-195" width="6" height="195" style="fill:#0080C0;" onmouseover="sh(638,623,-244,'01.01.2023 38,93');" onmouseout="hh();" /><rect x="644" y="-238" width="6" height="238" style="fill:transparent;" onmouseover="sh(647,623,-244,'01.02.2023 38,60');" onmouseout="hh();" /><rect x="644" y="-192" width="6" height="192" style="fill:#0080C0;" onmouseover="sh(647,623,-244,'01.02.2023 38,60');" onmouseout="hh();" /><rect x="653" y="-238" width="6" height="238" style="fill:transparent;" onmouseover="sh(656,623,-244,'01.03.2023 38,03');" onmouseout="hh();" /><rect x="653" y="-187" width="6" height="187" style="fill:#0080C0;" onmouseover="sh(656,623,-244,'01.03.2023 38,03');" onmouseout="hh();" /><rect x="662" y="-238" width="6" height="238" style="fill:transparent;" onmouseover="sh(665,623,-244,'01.04.2023 38,79');" onmouseout="hh();" /><rect x="662" y="-194" width="6" height="194" style="fill:#0080C0;" onmouseover="sh(665,623,-244,'01.04.2023 38,79');" onmouseout="hh();" /><rect x="671" y="-238" width="6" height="238" style="fill:transparent;" onmouseover="sh(674,623,-244,'01.05.2023 38,80');" onmouseout="hh();" /><rect x="671" y="-194" width="6" height="194" style="fill:#0080C0;" onmouseover="sh(674,623,-244,'01.05.2023 38,80');" onmouseout="hh();" /><rect x="680" y="-238" width="6" height="238" style="fill:transparent;" onmouseover="sh(683,623,-244,'01.06.2023 40,48');" onmouseout="hh();" /><rect x="680" y="-208" width="6" height="208" style="fill:#0080C0;" onmouseover="sh(683,623,-244,'01.06.2023 40,48');" onmouseout="hh();" />
<line x1="-6" y1="0" x2="693" y2="0" class="axes" /><line x1="0" y1="-254" x2="0" y2="0" class="axes" /><text x="-2" y="-258" style="text-anchor:end;">грн.</text>
<use xlink:href="#hintbox" id="usebox" x="0" y="0" style="visibility:hidden;" />
</svg>
