<?xml version="1.0" encoding="UTF-8" standalone="no"?>
<!DOCTYPE svg PUBLIC "-//W3C//DTD SVG 1.1//EN" "http://www.w3.org/Graphics/SVG/1.1/DTD/svg11.dtd">
<svg version="1.1" xmlns="http://www.w3.org/2000/svg" xmlns:xlink="http://www.w3.org/1999/xlink" xmlns:ev="http://www.w3.org/2001/xml-events" width="282" height="330" viewBox="-48 -272 282 330" preserveAspectRatio="none">
<style type="text/css"><![CDATA[
line { stroke-width:1px; }
line.axes { stroke:#505050; }
line.grid { stroke:#D8D8D8; }
rect.bg { fill:#FFFFFF; }
text { font-family:arial,sans-serif; font-size:12px; fill:#000000; }
]]></style>
<defs>
<g id="hintbox"><rect x="0" y="0" width="77" height="34" style="stroke:#505050; stroke-width:1px; fill:rgba(255,255,255,0.87);" /><text id="hint0" x="4" y="14"> </text><text x="7" y="28"></text><text id="hint1" x="73" y="28" style="text-anchor:end;"> </text></g>
<g id="hintline"><line x1="0" y1="-240" x2="0" y2="0" class="axes" style="stroke-dasharray:2 1" /></g>
</defs>
<script><![CDATA[
function shb(x,y,dat) {
ar=dat.split(' '); for (i=0; i<ar.length; ++i) { if (i&&ar[i]) ar[i]+=' грн.'; h=document.getElementById('hint'+i); h.textContent=ar[i]; }
u=document.getElementById('usebox'); u.setAttribute('x',x); u.setAttribute('y',y); u.setAttribute('style','visibility:visible;'); }
function hhb() { u=document.getElementById('usebox'); u.setAttribute('style','visibility:hidden;'); u.setAttribute('x','0'); u.setAttribute('y','0'); }
function shl(x) { u=document.getElementById('useline'); u.setAttribute('x',x); u.setAttribute('style','visibility:visible;'); }
function hhl() { u=document.getElementById('useline'); u.setAttribute('style','visibility:hidden;'); u.setAttribute('x','0'); }
function sh(xl,xb,y,dat) { shl(xl); shb(xb,y,dat); }
function hh() { hhb(); hhl(); }
]]></script>
<rect x="-48" y="-272" width="282" height="330" class="bg" />
<line x1="8" y1="0" x2="8" y2="4" class="axes" /><text x="13" y="8" transform="rotate(-90,13,8)" style="text-anchor:end;">04.2021</text><line x1="35" y1="0" x2="35" y2="4" class="axes" /><text x="40" y="8" transform="rotate(-90,40,8)" style="text-anchor:end;">07.2021</text><line x1="62" y1="0" x2="62" y2="4" class="axes" /><text x="67" y="8" transform="rotate(-90,67,8)" style="text-anchor:end;">10.2021</text><line x1="89" y1="0" x2="89" y2="4" class="axes" /><text x="94" y="8" transform="rotate(-90,94,8)" style="text-anchor:end;">01.2022</text><line x1="116" y1="0" x2="116" y2="4" class="axes" /><text x="121" y="8" transform="rotate(-90,121,8)" style="text-anchor:end;">07.2022</text><line x1="143" y1="0" x2="143" y2="4" class="axes" /><text x="148" y="8" transform="rotate(-90,148,8)" style="text-anchor:end;">10.2022</text><line x1="170" y1="0" x2="170" y2="4" class="axes" /><text x="175" y="8" transform="rotate(-90,175,8)" style="text-anchor:end;">01.2023</text><line x1="197" y1="0" x2="197" y2="4" class="axes" /><text x="202" y="8" transform="rotate(-90,202,8)" style="text-anchor:end;">04.2023</text>
<line x1="0" y1="-20" x2="222" y2="-20" class="grid" /><line x1="0" y1="-20" x2="-4" y2="-20" class="axes" /><text x="-8" y="-16" style="text-anchor:end;">14</text><line x1="0" y1="-40" x2="222" y2="-40" class="grid" /><line x1="0" y1="-40" x2="-4" y2="-40" class="axes" /><text x="-8" y="-36" style="text-anchor:end;">16</text><line x1="0" y1="-60" x2="222" y2="-60" class="grid" /><line x1="0" y1="-60" x2="-4" y2="-60" class="axes" /><text x="-8" y="-56" style="text-anchor:end;">18</text><line x1="0" y1="-80" x2="222" y2="-80" class="grid" /><line x1="0" y1="-80" x2="-4" y2="-80" class="axes" /><text x="-8" y="-76" style="text-anchor:end;">20</text><line x1="0" y1="-100" x2="222" y2="-100" class="grid" /><line x1="0" y1="-100" x2="-4" y2="-100" class="axes" /><text x="-8" y="-96" style="text-anchor:end;">22</text><line x1="0" y1="-120" x2="222" y2="-120" class="grid" /><line x1="0" y1="-120" x2="-4" y2="-120" class="axes" /><text x="-8" y="-116" style="text-anchor:end;">24</text><line x1="0" y1="-140" x2="222" y2="-140" class="grid" /><line x1="0" y1="-140" x2="-4" y2="-140" class="axes" /><text x="-8" y="-136" style="text-anchor:end;">26</text><line x1="0" y1="-160" x2="222" y2="-160" class="grid" /><line x1="0" y1="-160" x2="-4" y2="-160" class="axes" /><text x="-8" y="-156" style="text-anchor:end;">28</text><line x1="0" y1="-180" x2="222" y2="-180" class="grid" /><line x1="0" y1="-180" x2="-4" y2="-180" class="axes" /><text x="-8" y="-176" style="text-anchor:end;">30</text><line x1="0" y1="-200" x2="222" y2="-200" class="grid" /><line x1="0" y1="-200" x2="-4" y2="-200" class="axes" /><text x="-8" y="-196" style="text-anchor:end;">32</text><line x1="0" y1="-220" x2="222" y2="-220" class="grid" /><line x1="0" y1="-220" x2="-4" y2="-220" class="axes" /><text x="-8" y="-216" style="text-anchor:end;">34</text><line x1="0" y1="-240" x2="222" y2="-240" class="grid" /><line x1="0" y1="-240" x2="-4" y2="-240" class="axes" /><text x="-8" y="-236" style="text-anchor:end;">36</text>
<use xlink:href="#hintline" id="useline" x="0" style="visibility:hidden;" />
<rect x="5" y="-240" width="6" height="240" style="fill:transparent;" onmouseover="sh(8,8,-246,'01.04.2021 17,64');" onmouseout="hh();" /><rect x="5" y="-56" width="6" height="56" style="fill:#0080C0;" onmouseover="sh(8,8,-246,'01.04.2021 17,64');" onmouseout="hh();" /><rect x="14" y="-240" width="6" height="240" style="fill:transparent;" onmouseover="sh(17,17,-246,'01.05.2021 17,74');" onmouseout="hh();" /><rect x="14" y="-57" width="6" height="57" style="fill:#0080C0;" onmouseover="sh(17,17,-246,'01.05.2021 17,74');" onmouseout="hh();" /><rect x="23" y="-240" width="6" height="240" style="fill:transparent;" onmouseover="sh(26,26,-246,'01.06.2021 19,82');" onmouseout="hh();" /><rect x="23" y="-78" width="6" height="78" style="fill:#0080C0;" onmouseover="sh(26,26,-246,'01.06.2021 19,82');" onmouseout="hh();" /><rect x="32" y="-240" width="6" height="240" style="fill:transparent;" onmouseover="sh(35,35,-246,'01.07.2021 20,64');" onmouseout="hh();" /><rect x="32" y="-86" width="6" height="86" style="fill:#0080C0;" onmouseover="sh(35,35,-246,'01.07.2021 20,64');" onmouseout="hh();" /><rect x="41" y="-240" width="6" height="240" style="fill:transparent;" onmouseover="sh(44,44,-246,'01.08.2021 20,44');" onmouseout="hh();" /><rect x="41" y="-84" width="6" height="84" style="fill:#0080C0;" onmouseover="sh(44,44,-246,'01.08.2021 20,44');" onmouseout="hh();" /><rect x="50" y="-240" width="6" height="240" style="fill:transparent;" onmouseover="sh(53,53,-246,'01.09.2021 20,65');" onmouseout="hh();" /><rect x="50" y="-86" width="6" height="86" style="fill:#0080C0;" onmouseover="sh(53,53,-246,'01.09.2021 20,65');" onmouseout="hh();" /><rect x="59" y="-240" width="6" height="240" style="fill:transparent;" onmouseover="sh(62,62,-246,'01.10.2021 20,99');" onmouseout="hh();" /><rect x="59" y="-90" width="6" height="90" style="fill:#0080C0;" onmouseover="sh(62,62,-246,'01.10.2021 20,99');" onmouseout="hh();" /><rect x="68" y="-240" width="6" height="240" style="fill:transparent;" onmouseover="sh(71,71,-246,'01.11.2021 20,99');" onmouseout="hh();" /><rect x="68" y="-90" width="6" height="90" style="fill:#0080C0;" onmouseover="sh(71,71,-246,'01.11.2021 20,99');" onmouseout="hh();" /><rect x="77" y="-240" width="6" height="240" style="fill:transparent;" onmouseover="sh(80,80,-246,'01.12.2021 20,71');" onmouseout="hh();" /><rect x="77" y="-87" width="6" height="87" style="fill:#0080C0;" onmouseover="sh(80,80,-246,'01.12.2021 20,71');" onmouseout="hh();" /><rect x="86" y="-240" width="6" height="240" style="fill:transparent;" onmouseover="sh(89,89,-246,'01.01.2022 20,80');" onmouseout="hh();" /><rect x="86" y="-88" width="6" height="88" style="fill:#0080C0;" onmouseover="sh(89,89,-246,'01.01.2022 20,80');" onmouseout="hh();" /><rect x="95" y="-240" width="6" height="240" style="fill:transparent;" onmouseover="sh(98,98,-246,'01.02.2022 21,64');" onmouseout="hh();" /><rect x="95" y="-96" width="6" height="96" style="fill:#0080C0;" onmouseover="sh(98,98,-246,'01.02.2022 21,64');" onmouseout="hh();" /><rect x="104" y="-240" width="6" height="240" style="fill:transparent;" onmouseover="sh(107,107,-246,'01.03.2022 22,15');" onmouseout="hh();" /><rect x="104" y="-102" width="6" height="102" style="fill:#0080C0;" onmouseover="sh(107,107,-246,'01.03.2022 22,15');" onmouseout="hh();" /><rect x="113" y="-240" width="6" height="240" style="fill:transparent;" onmouseover="sh(116,116,-246,'01.07.2022 26,49');" onmouseout="hh();" /><rect x="113" y="-145" width="6" height="145" style="fill:#0080C0;" onmouseover="sh(116,116,-246,'01.07.2022 26,49');" onmouseout="hh();" /><rect x="122" y="-240" width="6" height="240" style="fill:transparent;" onmouseover="sh(125,125,-246,'01.08.2022 27,41');" onmouseout="hh();" /><rect x="122" y="-154" width="6" height="154" style="fill:#0080C0;" onmouseover="sh(125,125,-246,'01.08.2022 27,41');" onmouseout="hh();" /><rect x="131" y="-240" width="6" height="240" style="fill:transparent;" onmouseover="sh(134,134,-246,'01.09.2022 27,65');" onmouseout="hh();" /><rect x="131" y="-156" width="6" height="156" style="fill:#0080C0;" onmouseover="sh(134,134,-246,'01.09.2022 27,65');" onmouseout="hh();" /><rect x="140" y="-240" width="6" height="240" style="fill:transparent;" onmouseover="sh(143,143,-246,'01.10.2022 27,65');" onmouseout="hh();" /><rect x="140" y="-156" width="6" height="156" style="fill:#0080C0;" onmouseover="sh(143,143,-246,'01.10.2022 27,65');" onmouseout="hh();" /><rect x="149" y="-240" width="6" height="240" style="fill:transparent;" onmouseover="sh(152,152,-246,'01.11.2022 27,65');" onmouseout="hh();" /><rect x="149" y="-156" width="6" height="156" style="fill:#0080C0;" onmouseover="sh(152,152,-246,'01.11.2022 27,65');" onmouseout="hh();" /><rect x="158" y="-240" width="6" height="240" style="fill:transparent;" onmouseover="sh(161,155,-246,'01.12.2022 27,67');" onmouseout="hh();" /><rect x="158" y="-157" width="6" height="157" style="fill:#0080C0;" onmouseover="sh(161,155,-246,'01.12.2022 27,67');" onmouseout="hh();" /><rect x="167" y="-240" width="6" height="240" style="fill:transparent;" onmouseover="sh(170,155,-246,'01.01.2023 27,73');" onmouseout="hh();" /><rect x="167" y="-157" width="6" height="157" style="fill:#0080C0;" onmouseover="sh(170,155,-246,'01.01.2023 27,73');" onmouseout="hh();" /><rect x="176" y="-240" width="6" height="240" style="fill:transparent;" onmouseover="sh(179,155,-246,'01.02.2023 28,12');" onmouseout="hh();" /><rect x="176" y="-161" width="6" height="161" style="fill:#0080C0;" onmouseover="sh(179,155,-246,'01.02.2023 28,12');" onmouseout="hh();" /><rect x="185" y="-240" width="6" height="240" style="fill:transparent;" onmouseover="sh(188,155,-246,'01.03.2023 30,20');" onmouseout="hh();" /><rect x="185" y="-182" width="6" height="182" style="fill:#0080C0;" onmouseover="sh(188,155,-246,'01.03.2023 30,20');" onmouseout="hh();" /><rect x="194" y="-240" width="6" height="240" style="fill:transparent;" onmouseover="sh(197,155,-246,'01.04.2023 30,24');" onmouseout="hh();" /><rect x="194" y="-182" width="6" height="182" style="fill:#0080C0;" onmouseover="sh(197,155,-246,'01.04.2023 30,24');" onmouseout="hh();" /><rect x="203" y="-240" width="6" height="240" style="fill:transparent;" onmouseover="sh(206,155,-246,'01.05.2023 32,66');" onmouseout="hh();" /><rect x="203" y="-207" width="6" height="207" style="fill:#0080C0;" onmouseover="sh(206,155,-246,'01.05.2023 32,66');" onmouseout="hh();" /><rect x="212" y="-240" width="6" height="240" style="fill:transparent;" onmouseover="sh(215,155,-246,'01.06.2023 32,73');" onmouseout="hh();" /><rect x="212" y="-207" width="6" height="207" style="fill:#0080C0;" onmouseover="sh(215,155,-246,'01.06.2023 32,73');" onmouseout="hh();" />
<line x1="-6" y1="0" x2="225" y2="0" class="axes" /><line x1="0" y1="-256" x2="0" y2="0" class="axes" /><text x="-2" y="-260" style="text-anchor:end;">грн.</text>
<use xlink:href="#hintbox" id="usebox" x="0" y="0" style="visibility:hidden;" />
</svg>
