<?xml version="1.0" encoding="UTF-8" standalone="no"?>
<!DOCTYPE svg PUBLIC "-//W3C//DTD SVG 1.1//EN" "http://www.w3.org/Graphics/SVG/1.1/DTD/svg11.dtd">
<svg version="1.1" xmlns="http://www.w3.org/2000/svg" xmlns:xlink="http://www.w3.org/1999/xlink" xmlns:ev="http://www.w3.org/2001/xml-events" width="597" height="331" viewBox="-48 -273 597 331" preserveAspectRatio="none">
<style type="text/css"><![CDATA[
line { stroke-width:1px; }
line.axes { stroke:#505050; }
line.grid { stroke:#D8D8D8; }
rect.bg { fill:#FFFFFF; }
text { font-family:arial,sans-serif; font-size:12px; fill:#000000; }
]]></style>
<defs>
<g id="hintbox"><rect x="0" y="0" width="77" height="34" style="stroke:#505050; stroke-width:1px; fill:rgba(255,255,255,0.87);" /><text id="hint0" x="4" y="14"> </text><text x="7" y="28"></text><text id="hint1" x="73" y="28" style="text-anchor:end;"> </text></g>
<g id="hintline"><line x1="0" y1="-243" x2="0" y2="0" class="axes" style="stroke-dasharray:2 1" /></g>
</defs>
<script><![CDATA[
function shb(x,y,dat) {
ar=dat.split(' '); for (i=0; i<ar.length; ++i) { if (i&&ar[i]) ar[i]+=' грн.'; h=document.getElementById('hint'+i); h.textContent=ar[i]; }
u=document.getElementById('usebox'); u.setAttribute('x',x); u.setAttribute('y',y); u.setAttribute('style','visibility:visible;'); }
function hhb() { u=document.getElementById('usebox'); u.setAttribute('style','visibility:hidden;'); u.setAttribute('x','0'); u.setAttribute('y','0'); }
function shl(x) { u=document.getElementById('useline'); u.setAttribute('x',x); u.setAttribute('style','visibility:visible;'); }
function hhl() { u=document.getElementById('useline'); u.setAttribute('style','visibility:hidden;'); u.setAttribute('x','0'); }
function sh(xl,xb,y,dat) { shl(xl); shb(xb,y,dat); }
function hh() { hhb(); hhl(); }
]]></script>
<rect x="-48" y="-273" width="597" height="331" class="bg" />
<line x1="26" y1="0" x2="26" y2="4" class="axes" /><text x="31" y="8" transform="rotate(-90,31,8)" style="text-anchor:end;">10.2018</text><line x1="53" y1="0" x2="53" y2="4" class="axes" /><text x="58" y="8" transform="rotate(-90,58,8)" style="text-anchor:end;">01.2019</text><line x1="80" y1="0" x2="80" y2="4" class="axes" /><text x="85" y="8" transform="rotate(-90,85,8)" style="text-anchor:end;">04.2019</text><line x1="107" y1="0" x2="107" y2="4" class="axes" /><text x="112" y="8" transform="rotate(-90,112,8)" style="text-anchor:end;">07.2019</text><line x1="134" y1="0" x2="134" y2="4" class="axes" /><text x="139" y="8" transform="rotate(-90,139,8)" style="text-anchor:end;">10.2019</text><line x1="161" y1="0" x2="161" y2="4" class="axes" /><text x="166" y="8" transform="rotate(-90,166,8)" style="text-anchor:end;">01.2020</text><line x1="188" y1="0" x2="188" y2="4" class="axes" /><text x="193" y="8" transform="rotate(-90,193,8)" style="text-anchor:end;">04.2020</text><line x1="215" y1="0" x2="215" y2="4" class="axes" /><text x="220" y="8" transform="rotate(-90,220,8)" style="text-anchor:end;">07.2020</text><line x1="242" y1="0" x2="242" y2="4" class="axes" /><text x="247" y="8" transform="rotate(-90,247,8)" style="text-anchor:end;">10.2020</text><line x1="269" y1="0" x2="269" y2="4" class="axes" /><text x="274" y="8" transform="rotate(-90,274,8)" style="text-anchor:end;">01.2021</text><line x1="296" y1="0" x2="296" y2="4" class="axes" /><text x="301" y="8" transform="rotate(-90,301,8)" style="text-anchor:end;">04.2021</text><line x1="323" y1="0" x2="323" y2="4" class="axes" /><text x="328" y="8" transform="rotate(-90,328,8)" style="text-anchor:end;">07.2021</text><line x1="350" y1="0" x2="350" y2="4" class="axes" /><text x="355" y="8" transform="rotate(-90,355,8)" style="text-anchor:end;">10.2021</text><line x1="377" y1="0" x2="377" y2="4" class="axes" /><text x="382" y="8" transform="rotate(-90,382,8)" style="text-anchor:end;">01.2022</text><line x1="404" y1="0" x2="404" y2="4" class="axes" /><text x="409" y="8" transform="rotate(-90,409,8)" style="text-anchor:end;">04.2022</text><line x1="431" y1="0" x2="431" y2="4" class="axes" /><text x="436" y="8" transform="rotate(-90,436,8)" style="text-anchor:end;">07.2022</text><line x1="458" y1="0" x2="458" y2="4" class="axes" /><text x="463" y="8" transform="rotate(-90,463,8)" style="text-anchor:end;">10.2022</text><line x1="485" y1="0" x2="485" y2="4" class="axes" /><text x="490" y="8" transform="rotate(-90,490,8)" style="text-anchor:end;">01.2023</text><line x1="512" y1="0" x2="512" y2="4" class="axes" /><text x="517" y="8" transform="rotate(-90,517,8)" style="text-anchor:end;">04.2023</text>
<line x1="0" y1="-27" x2="537" y2="-27" class="grid" /><line x1="0" y1="-27" x2="-4" y2="-27" class="axes" /><text x="-8" y="-23" style="text-anchor:end;">150</text><line x1="0" y1="-54" x2="537" y2="-54" class="grid" /><line x1="0" y1="-54" x2="-4" y2="-54" class="axes" /><text x="-8" y="-50" style="text-anchor:end;">200</text><line x1="0" y1="-81" x2="537" y2="-81" class="grid" /><line x1="0" y1="-81" x2="-4" y2="-81" class="axes" /><text x="-8" y="-77" style="text-anchor:end;">250</text><line x1="0" y1="-108" x2="537" y2="-108" class="grid" /><line x1="0" y1="-108" x2="-4" y2="-108" class="axes" /><text x="-8" y="-104" style="text-anchor:end;">300</text><line x1="0" y1="-135" x2="537" y2="-135" class="grid" /><line x1="0" y1="-135" x2="-4" y2="-135" class="axes" /><text x="-8" y="-131" style="text-anchor:end;">350</text><line x1="0" y1="-162" x2="537" y2="-162" class="grid" /><line x1="0" y1="-162" x2="-4" y2="-162" class="axes" /><text x="-8" y="-158" style="text-anchor:end;">400</text><line x1="0" y1="-189" x2="537" y2="-189" class="grid" /><line x1="0" y1="-189" x2="-4" y2="-189" class="axes" /><text x="-8" y="-185" style="text-anchor:end;">450</text><line x1="0" y1="-216" x2="537" y2="-216" class="grid" /><line x1="0" y1="-216" x2="-4" y2="-216" class="axes" /><text x="-8" y="-212" style="text-anchor:end;">500</text><line x1="0" y1="-243" x2="537" y2="-243" class="grid" /><line x1="0" y1="-243" x2="-4" y2="-243" class="axes" /><text x="-8" y="-239" style="text-anchor:end;">550</text>
<use xlink:href="#hintline" id="useline" x="0" style="visibility:hidden;" />
<rect x="5" y="-243" width="6" height="243" style="fill:transparent;" onmouseover="sh(8,8,-249,'01.08.2018 209,70');" onmouseout="hh();" /><rect x="5" y="-59" width="6" height="59" style="fill:#0080C0;" onmouseover="sh(8,8,-249,'01.08.2018 209,70');" onmouseout="hh();" /><rect x="14" y="-243" width="6" height="243" style="fill:transparent;" onmouseover="sh(17,17,-249,'01.09.2018 205,71');" onmouseout="hh();" /><rect x="14" y="-57" width="6" height="57" style="fill:#0080C0;" onmouseover="sh(17,17,-249,'01.09.2018 205,71');" onmouseout="hh();" /><rect x="23" y="-243" width="6" height="243" style="fill:transparent;" onmouseover="sh(26,26,-249,'01.10.2018 202,12');" onmouseout="hh();" /><rect x="23" y="-55" width="6" height="55" style="fill:#0080C0;" onmouseover="sh(26,26,-249,'01.10.2018 202,12');" onmouseout="hh();" /><rect x="32" y="-243" width="6" height="243" style="fill:transparent;" onmouseover="sh(35,35,-249,'01.11.2018 216,11');" onmouseout="hh();" /><rect x="32" y="-63" width="6" height="63" style="fill:#0080C0;" onmouseover="sh(35,35,-249,'01.11.2018 216,11');" onmouseout="hh();" /><rect x="41" y="-243" width="6" height="243" style="fill:transparent;" onmouseover="sh(44,44,-249,'01.12.2018 206,52');" onmouseout="hh();" /><rect x="41" y="-58" width="6" height="58" style="fill:#0080C0;" onmouseover="sh(44,44,-249,'01.12.2018 206,52');" onmouseout="hh();" /><rect x="50" y="-243" width="6" height="243" style="fill:transparent;" onmouseover="sh(53,53,-249,'01.01.2019 223,01');" onmouseout="hh();" /><rect x="50" y="-66" width="6" height="66" style="fill:#0080C0;" onmouseover="sh(53,53,-249,'01.01.2019 223,01');" onmouseout="hh();" /><rect x="59" y="-243" width="6" height="243" style="fill:transparent;" onmouseover="sh(62,62,-249,'01.02.2019 217,72');" onmouseout="hh();" /><rect x="59" y="-64" width="6" height="64" style="fill:#0080C0;" onmouseover="sh(62,62,-249,'01.02.2019 217,72');" onmouseout="hh();" /><rect x="68" y="-243" width="6" height="243" style="fill:transparent;" onmouseover="sh(71,71,-249,'01.03.2019 215,23');" onmouseout="hh();" /><rect x="68" y="-62" width="6" height="62" style="fill:#0080C0;" onmouseover="sh(71,71,-249,'01.03.2019 215,23');" onmouseout="hh();" /><rect x="77" y="-243" width="6" height="243" style="fill:transparent;" onmouseover="sh(80,80,-249,'01.04.2019 210,86');" onmouseout="hh();" /><rect x="77" y="-60" width="6" height="60" style="fill:#0080C0;" onmouseover="sh(80,80,-249,'01.04.2019 210,86');" onmouseout="hh();" /><rect x="86" y="-243" width="6" height="243" style="fill:transparent;" onmouseover="sh(89,89,-249,'01.05.2019 215,49');" onmouseout="hh();" /><rect x="86" y="-62" width="6" height="62" style="fill:#0080C0;" onmouseover="sh(89,89,-249,'01.05.2019 215,49');" onmouseout="hh();" /><rect x="95" y="-243" width="6" height="243" style="fill:transparent;" onmouseover="sh(98,98,-249,'01.06.2019 201,73');" onmouseout="hh();" /><rect x="95" y="-55" width="6" height="55" style="fill:#0080C0;" onmouseover="sh(98,98,-249,'01.06.2019 201,73');" onmouseout="hh();" /><rect x="104" y="-243" width="6" height="243" style="fill:transparent;" onmouseover="sh(107,107,-249,'01.07.2019 222,77');" onmouseout="hh();" /><rect x="104" y="-66" width="6" height="66" style="fill:#0080C0;" onmouseover="sh(107,107,-249,'01.07.2019 222,77');" onmouseout="hh();" /><rect x="113" y="-243" width="6" height="243" style="fill:transparent;" onmouseover="sh(116,116,-249,'01.08.2019 222,82');" onmouseout="hh();" /><rect x="113" y="-66" width="6" height="66" style="fill:#0080C0;" onmouseover="sh(116,116,-249,'01.08.2019 222,82');" onmouseout="hh();" /><rect x="122" y="-243" width="6" height="243" style="fill:transparent;" onmouseover="sh(125,125,-249,'01.09.2019 227,97');" onmouseout="hh();" /><rect x="122" y="-69" width="6" height="69" style="fill:#0080C0;" onmouseover="sh(125,125,-249,'01.09.2019 227,97');" onmouseout="hh();" /><rect x="131" y="-243" width="6" height="243" style="fill:transparent;" onmouseover="sh(134,134,-249,'01.10.2019 233,54');" onmouseout="hh();" /><rect x="131" y="-72" width="6" height="72" style="fill:#0080C0;" onmouseover="sh(134,134,-249,'01.10.2019 233,54');" onmouseout="hh();" /><rect x="140" y="-243" width="6" height="243" style="fill:transparent;" onmouseover="sh(143,143,-249,'01.11.2019 233,47');" onmouseout="hh();" /><rect x="140" y="-72" width="6" height="72" style="fill:#0080C0;" onmouseover="sh(143,143,-249,'01.11.2019 233,47');" onmouseout="hh();" /><rect x="149" y="-243" width="6" height="243" style="fill:transparent;" onmouseover="sh(152,152,-249,'01.12.2019 222,69');" onmouseout="hh();" /><rect x="149" y="-66" width="6" height="66" style="fill:#0080C0;" onmouseover="sh(152,152,-249,'01.12.2019 222,69');" onmouseout="hh();" /><rect x="158" y="-243" width="6" height="243" style="fill:transparent;" onmouseover="sh(161,161,-249,'01.01.2020 226,31');" onmouseout="hh();" /><rect x="158" y="-68" width="6" height="68" style="fill:#0080C0;" onmouseover="sh(161,161,-249,'01.01.2020 226,31');" onmouseout="hh();" /><rect x="167" y="-243" width="6" height="243" style="fill:transparent;" onmouseover="sh(170,170,-249,'01.02.2020 227,92');" onmouseout="hh();" /><rect x="167" y="-69" width="6" height="69" style="fill:#0080C0;" onmouseover="sh(170,170,-249,'01.02.2020 227,92');" onmouseout="hh();" /><rect x="176" y="-243" width="6" height="243" style="fill:transparent;" onmouseover="sh(179,179,-249,'01.03.2020 226,89');" onmouseout="hh();" /><rect x="176" y="-69" width="6" height="69" style="fill:#0080C0;" onmouseover="sh(179,179,-249,'01.03.2020 226,89');" onmouseout="hh();" /><rect x="185" y="-243" width="6" height="243" style="fill:transparent;" onmouseover="sh(188,188,-249,'01.04.2020 226,49');" onmouseout="hh();" /><rect x="185" y="-68" width="6" height="68" style="fill:#0080C0;" onmouseover="sh(188,188,-249,'01.04.2020 226,49');" onmouseout="hh();" /><rect x="194" y="-243" width="6" height="243" style="fill:transparent;" onmouseover="sh(197,197,-249,'01.05.2020 234,53');" onmouseout="hh();" /><rect x="194" y="-73" width="6" height="73" style="fill:#0080C0;" onmouseover="sh(197,197,-249,'01.05.2020 234,53');" onmouseout="hh();" /><rect x="203" y="-243" width="6" height="243" style="fill:transparent;" onmouseover="sh(206,206,-249,'01.06.2020 245,30');" onmouseout="hh();" /><rect x="203" y="-78" width="6" height="78" style="fill:#0080C0;" onmouseover="sh(206,206,-249,'01.06.2020 245,30');" onmouseout="hh();" /><rect x="212" y="-243" width="6" height="243" style="fill:transparent;" onmouseover="sh(215,215,-249,'01.07.2020 247,65');" onmouseout="hh();" /><rect x="212" y="-80" width="6" height="80" style="fill:#0080C0;" onmouseover="sh(215,215,-249,'01.07.2020 247,65');" onmouseout="hh();" /><rect x="221" y="-243" width="6" height="243" style="fill:transparent;" onmouseover="sh(224,224,-249,'01.08.2020 239,89');" onmouseout="hh();" /><rect x="221" y="-76" width="6" height="76" style="fill:#0080C0;" onmouseover="sh(224,224,-249,'01.08.2020 239,89');" onmouseout="hh();" /><rect x="230" y="-243" width="6" height="243" style="fill:transparent;" onmouseover="sh(233,233,-249,'01.09.2020 241,08');" onmouseout="hh();" /><rect x="230" y="-76" width="6" height="76" style="fill:#0080C0;" onmouseover="sh(233,233,-249,'01.09.2020 241,08');" onmouseout="hh();" /><rect x="239" y="-243" width="6" height="243" style="fill:transparent;" onmouseover="sh(242,242,-249,'01.10.2020 247,99');" onmouseout="hh();" /><rect x="239" y="-80" width="6" height="80" style="fill:#0080C0;" onmouseover="sh(242,242,-249,'01.10.2020 247,99');" onmouseout="hh();" /><rect x="248" y="-243" width="6" height="243" style="fill:transparent;" onmouseover="sh(251,251,-249,'01.11.2020 276,14');" onmouseout="hh();" /><rect x="248" y="-95" width="6" height="95" style="fill:#0080C0;" onmouseover="sh(251,251,-249,'01.11.2020 276,14');" onmouseout="hh();" /><rect x="257" y="-243" width="6" height="243" style="fill:transparent;" onmouseover="sh(260,260,-249,'01.12.2020 261,68');" onmouseout="hh();" /><rect x="257" y="-87" width="6" height="87" style="fill:#0080C0;" onmouseover="sh(260,260,-249,'01.12.2020 261,68');" onmouseout="hh();" /><rect x="266" y="-243" width="6" height="243" style="fill:transparent;" onmouseover="sh(269,269,-249,'01.01.2021 276,17');" onmouseout="hh();" /><rect x="266" y="-95" width="6" height="95" style="fill:#0080C0;" onmouseover="sh(269,269,-249,'01.01.2021 276,17');" onmouseout="hh();" /><rect x="275" y="-243" width="6" height="243" style="fill:transparent;" onmouseover="sh(278,278,-249,'01.02.2021 266,96');" onmouseout="hh();" /><rect x="275" y="-90" width="6" height="90" style="fill:#0080C0;" onmouseover="sh(278,278,-249,'01.02.2021 266,96');" onmouseout="hh();" /><rect x="284" y="-243" width="6" height="243" style="fill:transparent;" onmouseover="sh(287,287,-249,'01.03.2021 280,69');" onmouseout="hh();" /><rect x="284" y="-98" width="6" height="98" style="fill:#0080C0;" onmouseover="sh(287,287,-249,'01.03.2021 280,69');" onmouseout="hh();" /><rect x="293" y="-243" width="6" height="243" style="fill:transparent;" onmouseover="sh(296,296,-249,'01.04.2021 290,95');" onmouseout="hh();" /><rect x="293" y="-103" width="6" height="103" style="fill:#0080C0;" onmouseover="sh(296,296,-249,'01.04.2021 290,95');" onmouseout="hh();" /><rect x="302" y="-243" width="6" height="243" style="fill:transparent;" onmouseover="sh(305,305,-249,'01.05.2021 291,93');" onmouseout="hh();" /><rect x="302" y="-104" width="6" height="104" style="fill:#0080C0;" onmouseover="sh(305,305,-249,'01.05.2021 291,93');" onmouseout="hh();" /><rect x="311" y="-243" width="6" height="243" style="fill:transparent;" onmouseover="sh(314,314,-249,'01.06.2021 282,05');" onmouseout="hh();" /><rect x="311" y="-98" width="6" height="98" style="fill:#0080C0;" onmouseover="sh(314,314,-249,'01.06.2021 282,05');" onmouseout="hh();" /><rect x="320" y="-243" width="6" height="243" style="fill:transparent;" onmouseover="sh(323,323,-249,'01.07.2021 309,86');" onmouseout="hh();" /><rect x="320" y="-113" width="6" height="113" style="fill:#0080C0;" onmouseover="sh(323,323,-249,'01.07.2021 309,86');" onmouseout="hh();" /><rect x="329" y="-243" width="6" height="243" style="fill:transparent;" onmouseover="sh(332,332,-249,'01.08.2021 311,87');" onmouseout="hh();" /><rect x="329" y="-114" width="6" height="114" style="fill:#0080C0;" onmouseover="sh(332,332,-249,'01.08.2021 311,87');" onmouseout="hh();" /><rect x="338" y="-243" width="6" height="243" style="fill:transparent;" onmouseover="sh(341,341,-249,'01.09.2021 289,30');" onmouseout="hh();" /><rect x="338" y="-102" width="6" height="102" style="fill:#0080C0;" onmouseover="sh(341,341,-249,'01.09.2021 289,30');" onmouseout="hh();" /><rect x="347" y="-243" width="6" height="243" style="fill:transparent;" onmouseover="sh(350,350,-249,'01.10.2021 315,91');" onmouseout="hh();" /><rect x="347" y="-117" width="6" height="117" style="fill:#0080C0;" onmouseover="sh(350,350,-249,'01.10.2021 315,91');" onmouseout="hh();" /><rect x="356" y="-243" width="6" height="243" style="fill:transparent;" onmouseover="sh(359,359,-249,'01.11.2021 312,19');" onmouseout="hh();" /><rect x="356" y="-115" width="6" height="115" style="fill:#0080C0;" onmouseover="sh(359,359,-249,'01.11.2021 312,19');" onmouseout="hh();" /><rect x="365" y="-243" width="6" height="243" style="fill:transparent;" onmouseover="sh(368,368,-249,'01.12.2021 324,37');" onmouseout="hh();" /><rect x="365" y="-121" width="6" height="121" style="fill:#0080C0;" onmouseover="sh(368,368,-249,'01.12.2021 324,37');" onmouseout="hh();" /><rect x="374" y="-243" width="6" height="243" style="fill:transparent;" onmouseover="sh(377,377,-249,'01.01.2022 327,21');" onmouseout="hh();" /><rect x="374" y="-123" width="6" height="123" style="fill:#0080C0;" onmouseover="sh(377,377,-249,'01.01.2022 327,21');" onmouseout="hh();" /><rect x="383" y="-243" width="6" height="243" style="fill:transparent;" onmouseover="sh(386,386,-249,'01.02.2022 339,92');" onmouseout="hh();" /><rect x="383" y="-130" width="6" height="130" style="fill:#0080C0;" onmouseover="sh(386,386,-249,'01.02.2022 339,92');" onmouseout="hh();" /><rect x="392" y="-243" width="6" height="243" style="fill:transparent;" onmouseover="sh(395,395,-249,'01.03.2022 331,90');" onmouseout="hh();" /><rect x="392" y="-125" width="6" height="125" style="fill:#0080C0;" onmouseover="sh(395,395,-249,'01.03.2022 331,90');" onmouseout="hh();" /><rect x="401" y="-243" width="6" height="243" style="fill:transparent;" onmouseover="sh(404,404,-249,'01.04.2022 337,18');" onmouseout="hh();" /><rect x="401" y="-128" width="6" height="128" style="fill:#0080C0;" onmouseover="sh(404,404,-249,'01.04.2022 337,18');" onmouseout="hh();" /><rect x="410" y="-243" width="6" height="243" style="fill:transparent;" onmouseover="sh(413,413,-249,'01.05.2022 345,10');" onmouseout="hh();" /><rect x="410" y="-132" width="6" height="132" style="fill:#0080C0;" onmouseover="sh(413,413,-249,'01.05.2022 345,10');" onmouseout="hh();" /><rect x="419" y="-243" width="6" height="243" style="fill:transparent;" onmouseover="sh(422,422,-249,'01.06.2022 334,60');" onmouseout="hh();" /><rect x="419" y="-127" width="6" height="127" style="fill:#0080C0;" onmouseover="sh(422,422,-249,'01.06.2022 334,60');" onmouseout="hh();" /><rect x="428" y="-243" width="6" height="243" style="fill:transparent;" onmouseover="sh(431,431,-249,'01.07.2022 338,62');" onmouseout="hh();" /><rect x="428" y="-129" width="6" height="129" style="fill:#0080C0;" onmouseover="sh(431,431,-249,'01.07.2022 338,62');" onmouseout="hh();" /><rect x="437" y="-243" width="6" height="243" style="fill:transparent;" onmouseover="sh(440,440,-249,'01.08.2022 351,34');" onmouseout="hh();" /><rect x="437" y="-136" width="6" height="136" style="fill:#0080C0;" onmouseover="sh(440,440,-249,'01.08.2022 351,34');" onmouseout="hh();" /><rect x="446" y="-243" width="6" height="243" style="fill:transparent;" onmouseover="sh(449,449,-249,'01.09.2022 359,87');" onmouseout="hh();" /><rect x="446" y="-140" width="6" height="140" style="fill:#0080C0;" onmouseover="sh(449,449,-249,'01.09.2022 359,87');" onmouseout="hh();" /><rect x="455" y="-243" width="6" height="243" style="fill:transparent;" onmouseover="sh(458,458,-249,'01.10.2022 380,72');" onmouseout="hh();" /><rect x="455" y="-152" width="6" height="152" style="fill:#0080C0;" onmouseover="sh(458,458,-249,'01.10.2022 380,72');" onmouseout="hh();" /><rect x="464" y="-243" width="6" height="243" style="fill:transparent;" onmouseover="sh(467,467,-249,'01.11.2022 372,86');" onmouseout="hh();" /><rect x="464" y="-147" width="6" height="147" style="fill:#0080C0;" onmouseover="sh(467,467,-249,'01.11.2022 372,86');" onmouseout="hh();" /><rect x="473" y="-243" width="6" height="243" style="fill:transparent;" onmouseover="sh(476,470,-249,'01.12.2022 407,10');" onmouseout="hh();" /><rect x="473" y="-166" width="6" height="166" style="fill:#0080C0;" onmouseover="sh(476,470,-249,'01.12.2022 407,10');" onmouseout="hh();" /><rect x="482" y="-243" width="6" height="243" style="fill:transparent;" onmouseover="sh(485,470,-249,'01.01.2023 392,52');" onmouseout="hh();" /><rect x="482" y="-158" width="6" height="158" style="fill:#0080C0;" onmouseover="sh(485,470,-249,'01.01.2023 392,52');" onmouseout="hh();" /><rect x="491" y="-243" width="6" height="243" style="fill:transparent;" onmouseover="sh(494,470,-249,'01.02.2023 428,82');" onmouseout="hh();" /><rect x="491" y="-178" width="6" height="178" style="fill:#0080C0;" onmouseover="sh(494,470,-249,'01.02.2023 428,82');" onmouseout="hh();" /><rect x="500" y="-243" width="6" height="243" style="fill:transparent;" onmouseover="sh(503,470,-249,'01.03.2023 429,67');" onmouseout="hh();" /><rect x="500" y="-178" width="6" height="178" style="fill:#0080C0;" onmouseover="sh(503,470,-249,'01.03.2023 429,67');" onmouseout="hh();" /><rect x="509" y="-243" width="6" height="243" style="fill:transparent;" onmouseover="sh(512,470,-249,'01.04.2023 432,47');" onmouseout="hh();" /><rect x="509" y="-180" width="6" height="180" style="fill:#0080C0;" onmouseover="sh(512,470,-249,'01.04.2023 432,47');" onmouseout="hh();" /><rect x="518" y="-243" width="6" height="243" style="fill:transparent;" onmouseover="sh(521,470,-249,'01.05.2023 409,97');" onmouseout="hh();" /><rect x="518" y="-167" width="6" height="167" style="fill:#0080C0;" onmouseover="sh(521,470,-249,'01.05.2023 409,97');" onmouseout="hh();" /><rect x="527" y="-243" width="6" height="243" style="fill:transparent;" onmouseover="sh(530,470,-249,'01.06.2023 451,66');" onmouseout="hh();" /><rect x="527" y="-190" width="6" height="190" style="fill:#0080C0;" onmouseover="sh(530,470,-249,'01.06.2023 451,66');" onmouseout="hh();" />
<line x1="-6" y1="0" x2="540" y2="0" class="axes" /><line x1="0" y1="-259" x2="0" y2="0" class="axes" /><text x="-2" y="-263" style="text-anchor:end;">грн.</text>
<use xlink:href="#hintbox" id="usebox" x="0" y="0" style="visibility:hidden;" />
</svg>
