<?xml version="1.0" encoding="UTF-8" standalone="no"?>
<!DOCTYPE svg PUBLIC "-//W3C//DTD SVG 1.1//EN" "http://www.w3.org/Graphics/SVG/1.1/DTD/svg11.dtd">
<svg version="1.1" xmlns="http://www.w3.org/2000/svg" xmlns:xlink="http://www.w3.org/1999/xlink" xmlns:ev="http://www.w3.org/2001/xml-events" width="660" height="330" viewBox="-48 -272 660 330" preserveAspectRatio="none">
<style type="text/css"><![CDATA[
line { stroke-width:1px; }
line.axes { stroke:#505050; }
line.grid { stroke:#D8D8D8; }
rect.bg { fill:#FFFFFF; }
text { font-family:arial,sans-serif; font-size:12px; fill:#000000; }
]]></style>
<defs>
<g id="hintbox"><rect x="0" y="0" width="77" height="34" style="stroke:#505050; stroke-width:1px; fill:rgba(255,255,255,0.87);" /><text id="hint0" x="4" y="14"> </text><text x="7" y="28"></text><text id="hint1" x="73" y="28" style="text-anchor:end;"> </text></g>
<g id="hintline"><line x1="0" y1="-238" x2="0" y2="0" class="axes" style="stroke-dasharray:2 1" /></g>
</defs>
<script><![CDATA[
function shb(x,y,dat) {
ar=dat.split(' '); for (i=0; i<ar.length; ++i) { if (i&&ar[i]) ar[i]+=' грн.'; h=document.getElementById('hint'+i); h.textContent=ar[i]; }
u=document.getElementById('usebox'); u.setAttribute('x',x); u.setAttribute('y',y); u.setAttribute('style','visibility:visible;'); }
function hhb() { u=document.getElementById('usebox'); u.setAttribute('style','visibility:hidden;'); u.setAttribute('x','0'); u.setAttribute('y','0'); }
function shl(x) { u=document.getElementById('useline'); u.setAttribute('x',x); u.setAttribute('style','visibility:visible;'); }
function hhl() { u=document.getElementById('useline'); u.setAttribute('style','visibility:hidden;'); u.setAttribute('x','0'); }
function sh(xl,xb,y,dat) { shl(xl); shb(xb,y,dat); }
function hh() { hhb(); hhl(); }
]]></script>
<rect x="-48" y="-272" width="660" height="330" class="bg" />
<line x1="17" y1="0" x2="17" y2="4" class="axes" /><text x="22" y="8" transform="rotate(-90,22,8)" style="text-anchor:end;">04.2017</text><line x1="44" y1="0" x2="44" y2="4" class="axes" /><text x="49" y="8" transform="rotate(-90,49,8)" style="text-anchor:end;">07.2017</text><line x1="71" y1="0" x2="71" y2="4" class="axes" /><text x="76" y="8" transform="rotate(-90,76,8)" style="text-anchor:end;">10.2017</text><line x1="98" y1="0" x2="98" y2="4" class="axes" /><text x="103" y="8" transform="rotate(-90,103,8)" style="text-anchor:end;">01.2018</text><line x1="125" y1="0" x2="125" y2="4" class="axes" /><text x="130" y="8" transform="rotate(-90,130,8)" style="text-anchor:end;">04.2018</text><line x1="152" y1="0" x2="152" y2="4" class="axes" /><text x="157" y="8" transform="rotate(-90,157,8)" style="text-anchor:end;">07.2018</text><line x1="179" y1="0" x2="179" y2="4" class="axes" /><text x="184" y="8" transform="rotate(-90,184,8)" style="text-anchor:end;">10.2018</text><line x1="206" y1="0" x2="206" y2="4" class="axes" /><text x="211" y="8" transform="rotate(-90,211,8)" style="text-anchor:end;">01.2019</text><line x1="233" y1="0" x2="233" y2="4" class="axes" /><text x="238" y="8" transform="rotate(-90,238,8)" style="text-anchor:end;">04.2019</text><line x1="260" y1="0" x2="260" y2="4" class="axes" /><text x="265" y="8" transform="rotate(-90,265,8)" style="text-anchor:end;">07.2019</text><line x1="287" y1="0" x2="287" y2="4" class="axes" /><text x="292" y="8" transform="rotate(-90,292,8)" style="text-anchor:end;">10.2019</text><line x1="314" y1="0" x2="314" y2="4" class="axes" /><text x="319" y="8" transform="rotate(-90,319,8)" style="text-anchor:end;">01.2020</text><line x1="341" y1="0" x2="341" y2="4" class="axes" /><text x="346" y="8" transform="rotate(-90,346,8)" style="text-anchor:end;">04.2020</text><line x1="368" y1="0" x2="368" y2="4" class="axes" /><text x="373" y="8" transform="rotate(-90,373,8)" style="text-anchor:end;">07.2020</text><line x1="395" y1="0" x2="395" y2="4" class="axes" /><text x="400" y="8" transform="rotate(-90,400,8)" style="text-anchor:end;">10.2020</text><line x1="422" y1="0" x2="422" y2="4" class="axes" /><text x="427" y="8" transform="rotate(-90,427,8)" style="text-anchor:end;">01.2021</text><line x1="449" y1="0" x2="449" y2="4" class="axes" /><text x="454" y="8" transform="rotate(-90,454,8)" style="text-anchor:end;">04.2021</text><line x1="476" y1="0" x2="476" y2="4" class="axes" /><text x="481" y="8" transform="rotate(-90,481,8)" style="text-anchor:end;">07.2021</text><line x1="503" y1="0" x2="503" y2="4" class="axes" /><text x="508" y="8" transform="rotate(-90,508,8)" style="text-anchor:end;">10.2021</text><line x1="530" y1="0" x2="530" y2="4" class="axes" /><text x="535" y="8" transform="rotate(-90,535,8)" style="text-anchor:end;">01.2022</text><line x1="557" y1="0" x2="557" y2="4" class="axes" /><text x="562" y="8" transform="rotate(-90,562,8)" style="text-anchor:end;">04.2022</text>
<line x1="0" y1="-17" x2="600" y2="-17" class="grid" /><line x1="0" y1="-17" x2="-4" y2="-17" class="axes" /><text x="-8" y="-13" style="text-anchor:end;">18</text><line x1="0" y1="-34" x2="600" y2="-34" class="grid" /><line x1="0" y1="-34" x2="-4" y2="-34" class="axes" /><text x="-8" y="-30" style="text-anchor:end;">20</text><line x1="0" y1="-51" x2="600" y2="-51" class="grid" /><line x1="0" y1="-51" x2="-4" y2="-51" class="axes" /><text x="-8" y="-47" style="text-anchor:end;">22</text><line x1="0" y1="-68" x2="600" y2="-68" class="grid" /><line x1="0" y1="-68" x2="-4" y2="-68" class="axes" /><text x="-8" y="-64" style="text-anchor:end;">24</text><line x1="0" y1="-85" x2="600" y2="-85" class="grid" /><line x1="0" y1="-85" x2="-4" y2="-85" class="axes" /><text x="-8" y="-81" style="text-anchor:end;">26</text><line x1="0" y1="-102" x2="600" y2="-102" class="grid" /><line x1="0" y1="-102" x2="-4" y2="-102" class="axes" /><text x="-8" y="-98" style="text-anchor:end;">28</text><line x1="0" y1="-119" x2="600" y2="-119" class="grid" /><line x1="0" y1="-119" x2="-4" y2="-119" class="axes" /><text x="-8" y="-115" style="text-anchor:end;">30</text><line x1="0" y1="-136" x2="600" y2="-136" class="grid" /><line x1="0" y1="-136" x2="-4" y2="-136" class="axes" /><text x="-8" y="-132" style="text-anchor:end;">32</text><line x1="0" y1="-153" x2="600" y2="-153" class="grid" /><line x1="0" y1="-153" x2="-4" y2="-153" class="axes" /><text x="-8" y="-149" style="text-anchor:end;">34</text><line x1="0" y1="-170" x2="600" y2="-170" class="grid" /><line x1="0" y1="-170" x2="-4" y2="-170" class="axes" /><text x="-8" y="-166" style="text-anchor:end;">36</text><line x1="0" y1="-187" x2="600" y2="-187" class="grid" /><line x1="0" y1="-187" x2="-4" y2="-187" class="axes" /><text x="-8" y="-183" style="text-anchor:end;">38</text><line x1="0" y1="-204" x2="600" y2="-204" class="grid" /><line x1="0" y1="-204" x2="-4" y2="-204" class="axes" /><text x="-8" y="-200" style="text-anchor:end;">40</text><line x1="0" y1="-221" x2="600" y2="-221" class="grid" /><line x1="0" y1="-221" x2="-4" y2="-221" class="axes" /><text x="-8" y="-217" style="text-anchor:end;">42</text><line x1="0" y1="-238" x2="600" y2="-238" class="grid" /><line x1="0" y1="-238" x2="-4" y2="-238" class="axes" /><text x="-8" y="-234" style="text-anchor:end;">44</text>
<use xlink:href="#hintline" id="useline" x="0" style="visibility:hidden;" />
<rect x="5" y="-238" width="6" height="238" style="fill:transparent;" onmouseover="sh(8,8,-244,'01.03.2017 23,84');" onmouseout="hh();" /><rect x="5" y="-67" width="6" height="67" style="fill:#0080C0;" onmouseover="sh(8,8,-244,'01.03.2017 23,84');" onmouseout="hh();" /><rect x="14" y="-238" width="6" height="238" style="fill:transparent;" onmouseover="sh(17,17,-244,'01.04.2017 22,57');" onmouseout="hh();" /><rect x="14" y="-56" width="6" height="56" style="fill:#0080C0;" onmouseover="sh(17,17,-244,'01.04.2017 22,57');" onmouseout="hh();" /><rect x="23" y="-238" width="6" height="238" style="fill:transparent;" onmouseover="sh(26,26,-244,'01.05.2017 23,18');" onmouseout="hh();" /><rect x="23" y="-61" width="6" height="61" style="fill:#0080C0;" onmouseover="sh(26,26,-244,'01.05.2017 23,18');" onmouseout="hh();" /><rect x="32" y="-238" width="6" height="238" style="fill:transparent;" onmouseover="sh(35,35,-244,'01.06.2017 22,20');" onmouseout="hh();" /><rect x="32" y="-53" width="6" height="53" style="fill:#0080C0;" onmouseover="sh(35,35,-244,'01.06.2017 22,20');" onmouseout="hh();" /><rect x="41" y="-238" width="6" height="238" style="fill:transparent;" onmouseover="sh(44,44,-244,'01.07.2017 21,58');" onmouseout="hh();" /><rect x="41" y="-47" width="6" height="47" style="fill:#0080C0;" onmouseover="sh(44,44,-244,'01.07.2017 21,58');" onmouseout="hh();" /><rect x="50" y="-238" width="6" height="238" style="fill:transparent;" onmouseover="sh(53,53,-244,'01.08.2017 23,16');" onmouseout="hh();" /><rect x="50" y="-61" width="6" height="61" style="fill:#0080C0;" onmouseover="sh(53,53,-244,'01.08.2017 23,16');" onmouseout="hh();" /><rect x="59" y="-238" width="6" height="238" style="fill:transparent;" onmouseover="sh(62,62,-244,'01.09.2017 23,59');" onmouseout="hh();" /><rect x="59" y="-65" width="6" height="65" style="fill:#0080C0;" onmouseover="sh(62,62,-244,'01.09.2017 23,59');" onmouseout="hh();" /><rect x="68" y="-238" width="6" height="238" style="fill:transparent;" onmouseover="sh(71,71,-244,'01.10.2017 24,97');" onmouseout="hh();" /><rect x="68" y="-76" width="6" height="76" style="fill:#0080C0;" onmouseover="sh(71,71,-244,'01.10.2017 24,97');" onmouseout="hh();" /><rect x="77" y="-238" width="6" height="238" style="fill:transparent;" onmouseover="sh(80,80,-244,'01.11.2017 26,18');" onmouseout="hh();" /><rect x="77" y="-87" width="6" height="87" style="fill:#0080C0;" onmouseover="sh(80,80,-244,'01.11.2017 26,18');" onmouseout="hh();" /><rect x="86" y="-238" width="6" height="238" style="fill:transparent;" onmouseover="sh(89,89,-244,'01.12.2017 26,69');" onmouseout="hh();" /><rect x="86" y="-91" width="6" height="91" style="fill:#0080C0;" onmouseover="sh(89,89,-244,'01.12.2017 26,69');" onmouseout="hh();" /><rect x="95" y="-238" width="6" height="238" style="fill:transparent;" onmouseover="sh(98,98,-244,'01.01.2018 25,81');" onmouseout="hh();" /><rect x="95" y="-83" width="6" height="83" style="fill:#0080C0;" onmouseover="sh(98,98,-244,'01.01.2018 25,81');" onmouseout="hh();" /><rect x="104" y="-238" width="6" height="238" style="fill:transparent;" onmouseover="sh(107,107,-244,'01.02.2018 26,14');" onmouseout="hh();" /><rect x="104" y="-86" width="6" height="86" style="fill:#0080C0;" onmouseover="sh(107,107,-244,'01.02.2018 26,14');" onmouseout="hh();" /><rect x="113" y="-238" width="6" height="238" style="fill:transparent;" onmouseover="sh(116,116,-244,'01.03.2018 27,76');" onmouseout="hh();" /><rect x="113" y="-100" width="6" height="100" style="fill:#0080C0;" onmouseover="sh(116,116,-244,'01.03.2018 27,76');" onmouseout="hh();" /><rect x="122" y="-238" width="6" height="238" style="fill:transparent;" onmouseover="sh(125,125,-244,'01.04.2018 28,79');" onmouseout="hh();" /><rect x="122" y="-109" width="6" height="109" style="fill:#0080C0;" onmouseover="sh(125,125,-244,'01.04.2018 28,79');" onmouseout="hh();" /><rect x="131" y="-238" width="6" height="238" style="fill:transparent;" onmouseover="sh(134,134,-244,'01.05.2018 28,48');" onmouseout="hh();" /><rect x="131" y="-106" width="6" height="106" style="fill:#0080C0;" onmouseover="sh(134,134,-244,'01.05.2018 28,48');" onmouseout="hh();" /><rect x="140" y="-238" width="6" height="238" style="fill:transparent;" onmouseover="sh(143,143,-244,'01.06.2018 27,51');" onmouseout="hh();" /><rect x="140" y="-98" width="6" height="98" style="fill:#0080C0;" onmouseover="sh(143,143,-244,'01.06.2018 27,51');" onmouseout="hh();" /><rect x="149" y="-238" width="6" height="238" style="fill:transparent;" onmouseover="sh(152,152,-244,'01.07.2018 27,94');" onmouseout="hh();" /><rect x="149" y="-102" width="6" height="102" style="fill:#0080C0;" onmouseover="sh(152,152,-244,'01.07.2018 27,94');" onmouseout="hh();" /><rect x="158" y="-238" width="6" height="238" style="fill:transparent;" onmouseover="sh(161,161,-244,'01.08.2018 28,56');" onmouseout="hh();" /><rect x="158" y="-107" width="6" height="107" style="fill:#0080C0;" onmouseover="sh(161,161,-244,'01.08.2018 28,56');" onmouseout="hh();" /><rect x="167" y="-238" width="6" height="238" style="fill:transparent;" onmouseover="sh(170,170,-244,'01.09.2018 29,45');" onmouseout="hh();" /><rect x="167" y="-114" width="6" height="114" style="fill:#0080C0;" onmouseover="sh(170,170,-244,'01.09.2018 29,45');" onmouseout="hh();" /><rect x="176" y="-238" width="6" height="238" style="fill:transparent;" onmouseover="sh(179,179,-244,'01.10.2018 28,95');" onmouseout="hh();" /><rect x="176" y="-110" width="6" height="110" style="fill:#0080C0;" onmouseover="sh(179,179,-244,'01.10.2018 28,95');" onmouseout="hh();" /><rect x="185" y="-238" width="6" height="238" style="fill:transparent;" onmouseover="sh(188,188,-244,'01.11.2018 29,87');" onmouseout="hh();" /><rect x="185" y="-118" width="6" height="118" style="fill:#0080C0;" onmouseover="sh(188,188,-244,'01.11.2018 29,87');" onmouseout="hh();" /><rect x="194" y="-238" width="6" height="238" style="fill:transparent;" onmouseover="sh(197,197,-244,'01.12.2018 28,33');" onmouseout="hh();" /><rect x="194" y="-105" width="6" height="105" style="fill:#0080C0;" onmouseover="sh(197,197,-244,'01.12.2018 28,33');" onmouseout="hh();" /><rect x="203" y="-238" width="6" height="238" style="fill:transparent;" onmouseover="sh(206,206,-244,'01.01.2019 27,32');" onmouseout="hh();" /><rect x="203" y="-96" width="6" height="96" style="fill:#0080C0;" onmouseover="sh(206,206,-244,'01.01.2019 27,32');" onmouseout="hh();" /><rect x="212" y="-238" width="6" height="238" style="fill:transparent;" onmouseover="sh(215,215,-244,'01.02.2019 31,18');" onmouseout="hh();" /><rect x="212" y="-129" width="6" height="129" style="fill:#0080C0;" onmouseover="sh(215,215,-244,'01.02.2019 31,18');" onmouseout="hh();" /><rect x="221" y="-238" width="6" height="238" style="fill:transparent;" onmouseover="sh(224,224,-244,'01.03.2019 30,72');" onmouseout="hh();" /><rect x="221" y="-125" width="6" height="125" style="fill:#0080C0;" onmouseover="sh(224,224,-244,'01.03.2019 30,72');" onmouseout="hh();" /><rect x="230" y="-238" width="6" height="238" style="fill:transparent;" onmouseover="sh(233,233,-244,'01.04.2019 31,11');" onmouseout="hh();" /><rect x="230" y="-128" width="6" height="128" style="fill:#0080C0;" onmouseover="sh(233,233,-244,'01.04.2019 31,11');" onmouseout="hh();" /><rect x="239" y="-238" width="6" height="238" style="fill:transparent;" onmouseover="sh(242,242,-244,'01.05.2019 30,70');" onmouseout="hh();" /><rect x="239" y="-125" width="6" height="125" style="fill:#0080C0;" onmouseover="sh(242,242,-244,'01.05.2019 30,70');" onmouseout="hh();" /><rect x="248" y="-238" width="6" height="238" style="fill:transparent;" onmouseover="sh(251,251,-244,'01.06.2019 31,75');" onmouseout="hh();" /><rect x="248" y="-134" width="6" height="134" style="fill:#0080C0;" onmouseover="sh(251,251,-244,'01.06.2019 31,75');" onmouseout="hh();" /><rect x="257" y="-238" width="6" height="238" style="fill:transparent;" onmouseover="sh(260,260,-244,'01.07.2019 31,60');" onmouseout="hh();" /><rect x="257" y="-133" width="6" height="133" style="fill:#0080C0;" onmouseover="sh(260,260,-244,'01.07.2019 31,60');" onmouseout="hh();" /><rect x="266" y="-238" width="6" height="238" style="fill:transparent;" onmouseover="sh(269,269,-244,'01.08.2019 29,71');" onmouseout="hh();" /><rect x="266" y="-117" width="6" height="117" style="fill:#0080C0;" onmouseover="sh(269,269,-244,'01.08.2019 29,71');" onmouseout="hh();" /><rect x="275" y="-238" width="6" height="238" style="fill:transparent;" onmouseover="sh(278,278,-244,'01.09.2019 31,60');" onmouseout="hh();" /><rect x="275" y="-133" width="6" height="133" style="fill:#0080C0;" onmouseover="sh(278,278,-244,'01.09.2019 31,60');" onmouseout="hh();" /><rect x="284" y="-238" width="6" height="238" style="fill:transparent;" onmouseover="sh(287,287,-244,'01.10.2019 31,61');" onmouseout="hh();" /><rect x="284" y="-133" width="6" height="133" style="fill:#0080C0;" onmouseover="sh(287,287,-244,'01.10.2019 31,61');" onmouseout="hh();" /><rect x="293" y="-238" width="6" height="238" style="fill:transparent;" onmouseover="sh(296,296,-244,'01.11.2019 31,88');" onmouseout="hh();" /><rect x="293" y="-135" width="6" height="135" style="fill:#0080C0;" onmouseover="sh(296,296,-244,'01.11.2019 31,88');" onmouseout="hh();" /><rect x="302" y="-238" width="6" height="238" style="fill:transparent;" onmouseover="sh(305,305,-244,'01.12.2019 31,53');" onmouseout="hh();" /><rect x="302" y="-132" width="6" height="132" style="fill:#0080C0;" onmouseover="sh(305,305,-244,'01.12.2019 31,53');" onmouseout="hh();" /><rect x="311" y="-238" width="6" height="238" style="fill:transparent;" onmouseover="sh(314,314,-244,'01.01.2020 32,47');" onmouseout="hh();" /><rect x="311" y="-140" width="6" height="140" style="fill:#0080C0;" onmouseover="sh(314,314,-244,'01.01.2020 32,47');" onmouseout="hh();" /><rect x="320" y="-238" width="6" height="238" style="fill:transparent;" onmouseover="sh(323,323,-244,'01.02.2020 32,83');" onmouseout="hh();" /><rect x="320" y="-143" width="6" height="143" style="fill:#0080C0;" onmouseover="sh(323,323,-244,'01.02.2020 32,83');" onmouseout="hh();" /><rect x="329" y="-238" width="6" height="238" style="fill:transparent;" onmouseover="sh(332,332,-244,'01.03.2020 32,25');" onmouseout="hh();" /><rect x="329" y="-138" width="6" height="138" style="fill:#0080C0;" onmouseover="sh(332,332,-244,'01.03.2020 32,25');" onmouseout="hh();" /><rect x="338" y="-238" width="6" height="238" style="fill:transparent;" onmouseover="sh(341,341,-244,'01.04.2020 33,31');" onmouseout="hh();" /><rect x="338" y="-147" width="6" height="147" style="fill:#0080C0;" onmouseover="sh(341,341,-244,'01.04.2020 33,31');" onmouseout="hh();" /><rect x="347" y="-238" width="6" height="238" style="fill:transparent;" onmouseover="sh(350,350,-244,'01.05.2020 32,55');" onmouseout="hh();" /><rect x="347" y="-141" width="6" height="141" style="fill:#0080C0;" onmouseover="sh(350,350,-244,'01.05.2020 32,55');" onmouseout="hh();" /><rect x="356" y="-238" width="6" height="238" style="fill:transparent;" onmouseover="sh(359,359,-244,'01.06.2020 32,79');" onmouseout="hh();" /><rect x="356" y="-143" width="6" height="143" style="fill:#0080C0;" onmouseover="sh(359,359,-244,'01.06.2020 32,79');" onmouseout="hh();" /><rect x="365" y="-238" width="6" height="238" style="fill:transparent;" onmouseover="sh(368,368,-244,'01.07.2020 33,08');" onmouseout="hh();" /><rect x="365" y="-145" width="6" height="145" style="fill:#0080C0;" onmouseover="sh(368,368,-244,'01.07.2020 33,08');" onmouseout="hh();" /><rect x="374" y="-238" width="6" height="238" style="fill:transparent;" onmouseover="sh(377,377,-244,'01.08.2020 32,40');" onmouseout="hh();" /><rect x="374" y="-139" width="6" height="139" style="fill:#0080C0;" onmouseover="sh(377,377,-244,'01.08.2020 32,40');" onmouseout="hh();" /><rect x="383" y="-238" width="6" height="238" style="fill:transparent;" onmouseover="sh(386,386,-244,'01.09.2020 32,14');" onmouseout="hh();" /><rect x="383" y="-137" width="6" height="137" style="fill:#0080C0;" onmouseover="sh(386,386,-244,'01.09.2020 32,14');" onmouseout="hh();" /><rect x="392" y="-238" width="6" height="238" style="fill:transparent;" onmouseover="sh(395,395,-244,'01.10.2020 33,75');" onmouseout="hh();" /><rect x="392" y="-151" width="6" height="151" style="fill:#0080C0;" onmouseover="sh(395,395,-244,'01.10.2020 33,75');" onmouseout="hh();" /><rect x="401" y="-238" width="6" height="238" style="fill:transparent;" onmouseover="sh(404,404,-244,'01.11.2020 32,70');" onmouseout="hh();" /><rect x="401" y="-142" width="6" height="142" style="fill:#0080C0;" onmouseover="sh(404,404,-244,'01.11.2020 32,70');" onmouseout="hh();" /><rect x="410" y="-238" width="6" height="238" style="fill:transparent;" onmouseover="sh(413,413,-244,'01.12.2020 32,78');" onmouseout="hh();" /><rect x="410" y="-143" width="6" height="143" style="fill:#0080C0;" onmouseover="sh(413,413,-244,'01.12.2020 32,78');" onmouseout="hh();" /><rect x="419" y="-238" width="6" height="238" style="fill:transparent;" onmouseover="sh(422,422,-244,'01.01.2021 33,75');" onmouseout="hh();" /><rect x="419" y="-151" width="6" height="151" style="fill:#0080C0;" onmouseover="sh(422,422,-244,'01.01.2021 33,75');" onmouseout="hh();" /><rect x="428" y="-238" width="6" height="238" style="fill:transparent;" onmouseover="sh(431,431,-244,'01.02.2021 34,74');" onmouseout="hh();" /><rect x="428" y="-159" width="6" height="159" style="fill:#0080C0;" onmouseover="sh(431,431,-244,'01.02.2021 34,74');" onmouseout="hh();" /><rect x="437" y="-238" width="6" height="238" style="fill:transparent;" onmouseover="sh(440,440,-244,'01.03.2021 36,09');" onmouseout="hh();" /><rect x="437" y="-171" width="6" height="171" style="fill:#0080C0;" onmouseover="sh(440,440,-244,'01.03.2021 36,09');" onmouseout="hh();" /><rect x="446" y="-238" width="6" height="238" style="fill:transparent;" onmouseover="sh(449,449,-244,'01.04.2021 33,30');" onmouseout="hh();" /><rect x="446" y="-147" width="6" height="147" style="fill:#0080C0;" onmouseover="sh(449,449,-244,'01.04.2021 33,30');" onmouseout="hh();" /><rect x="455" y="-238" width="6" height="238" style="fill:transparent;" onmouseover="sh(458,458,-244,'01.05.2021 34,17');" onmouseout="hh();" /><rect x="455" y="-154" width="6" height="154" style="fill:#0080C0;" onmouseover="sh(458,458,-244,'01.05.2021 34,17');" onmouseout="hh();" /><rect x="464" y="-238" width="6" height="238" style="fill:transparent;" onmouseover="sh(467,467,-244,'01.06.2021 33,72');" onmouseout="hh();" /><rect x="464" y="-151" width="6" height="151" style="fill:#0080C0;" onmouseover="sh(467,467,-244,'01.06.2021 33,72');" onmouseout="hh();" /><rect x="473" y="-238" width="6" height="238" style="fill:transparent;" onmouseover="sh(476,476,-244,'01.07.2021 35,97');" onmouseout="hh();" /><rect x="473" y="-170" width="6" height="170" style="fill:#0080C0;" onmouseover="sh(476,476,-244,'01.07.2021 35,97');" onmouseout="hh();" /><rect x="482" y="-238" width="6" height="238" style="fill:transparent;" onmouseover="sh(485,485,-244,'01.08.2021 36,11');" onmouseout="hh();" /><rect x="482" y="-171" width="6" height="171" style="fill:#0080C0;" onmouseover="sh(485,485,-244,'01.08.2021 36,11');" onmouseout="hh();" /><rect x="491" y="-238" width="6" height="238" style="fill:transparent;" onmouseover="sh(494,494,-244,'01.09.2021 36,36');" onmouseout="hh();" /><rect x="491" y="-173" width="6" height="173" style="fill:#0080C0;" onmouseover="sh(494,494,-244,'01.09.2021 36,36');" onmouseout="hh();" /><rect x="500" y="-238" width="6" height="238" style="fill:transparent;" onmouseover="sh(503,503,-244,'01.10.2021 39,77');" onmouseout="hh();" /><rect x="500" y="-202" width="6" height="202" style="fill:#0080C0;" onmouseover="sh(503,503,-244,'01.10.2021 39,77');" onmouseout="hh();" /><rect x="509" y="-238" width="6" height="238" style="fill:transparent;" onmouseover="sh(512,512,-244,'01.11.2021 38,33');" onmouseout="hh();" /><rect x="509" y="-190" width="6" height="190" style="fill:#0080C0;" onmouseover="sh(512,512,-244,'01.11.2021 38,33');" onmouseout="hh();" /><rect x="518" y="-238" width="6" height="238" style="fill:transparent;" onmouseover="sh(521,521,-244,'01.12.2021 41,47');" onmouseout="hh();" /><rect x="518" y="-217" width="6" height="217" style="fill:#0080C0;" onmouseover="sh(521,521,-244,'01.12.2021 41,47');" onmouseout="hh();" /><rect x="527" y="-238" width="6" height="238" style="fill:transparent;" onmouseover="sh(530,530,-244,'01.01.2022 41,30');" onmouseout="hh();" /><rect x="527" y="-215" width="6" height="215" style="fill:#0080C0;" onmouseover="sh(530,530,-244,'01.01.2022 41,30');" onmouseout="hh();" /><rect x="536" y="-238" width="6" height="238" style="fill:transparent;" onmouseover="sh(539,533,-244,'01.02.2022 39,01');" onmouseout="hh();" /><rect x="536" y="-196" width="6" height="196" style="fill:#0080C0;" onmouseover="sh(539,533,-244,'01.02.2022 39,01');" onmouseout="hh();" /><rect x="545" y="-238" width="6" height="238" style="fill:transparent;" onmouseover="sh(548,533,-244,'01.03.2022 41,23');" onmouseout="hh();" /><rect x="545" y="-214" width="6" height="214" style="fill:#0080C0;" onmouseover="sh(548,533,-244,'01.03.2022 41,23');" onmouseout="hh();" /><rect x="554" y="-238" width="6" height="238" style="fill:transparent;" onmouseover="sh(557,533,-244,'01.04.2022 41,20');" onmouseout="hh();" /><rect x="554" y="-214" width="6" height="214" style="fill:#0080C0;" onmouseover="sh(557,533,-244,'01.04.2022 41,20');" onmouseout="hh();" /><rect x="563" y="-238" width="6" height="238" style="fill:transparent;" onmouseover="sh(566,533,-244,'01.05.2022 41,50');" onmouseout="hh();" /><rect x="563" y="-217" width="6" height="217" style="fill:#0080C0;" onmouseover="sh(566,533,-244,'01.05.2022 41,50');" onmouseout="hh();" /><rect x="572" y="-238" width="6" height="238" style="fill:transparent;" onmouseover="sh(575,533,-244,'01.06.2022 41,50');" onmouseout="hh();" /><rect x="572" y="-217" width="6" height="217" style="fill:#0080C0;" onmouseover="sh(575,533,-244,'01.06.2022 41,50');" onmouseout="hh();" /><rect x="581" y="-238" width="6" height="238" style="fill:transparent;" onmouseover="sh(584,533,-244,'01.05.2023 24,23');" onmouseout="hh();" /><rect x="581" y="-70" width="6" height="70" style="fill:#0080C0;" onmouseover="sh(584,533,-244,'01.05.2023 24,23');" onmouseout="hh();" /><rect x="590" y="-238" width="6" height="238" style="fill:transparent;" onmouseover="sh(593,533,-244,'01.06.2023 25,34');" onmouseout="hh();" /><rect x="590" y="-79" width="6" height="79" style="fill:#0080C0;" onmouseover="sh(593,533,-244,'01.06.2023 25,34');" onmouseout="hh();" />
<line x1="-6" y1="0" x2="603" y2="0" class="axes" /><line x1="0" y1="-254" x2="0" y2="0" class="axes" /><text x="-2" y="-258" style="text-anchor:end;">грн.</text>
<use xlink:href="#hintbox" id="usebox" x="0" y="0" style="visibility:hidden;" />
</svg>
