<?xml version="1.0" encoding="UTF-8" standalone="no"?>
<!DOCTYPE svg PUBLIC "-//W3C//DTD SVG 1.1//EN" "http://www.w3.org/Graphics/SVG/1.1/DTD/svg11.dtd">
<svg version="1.1" xmlns="http://www.w3.org/2000/svg" xmlns:xlink="http://www.w3.org/1999/xlink" xmlns:ev="http://www.w3.org/2001/xml-events" width="489" height="330" viewBox="-48 -272 489 330" preserveAspectRatio="none">
<style type="text/css"><![CDATA[
line { stroke-width:1px; }
line.axes { stroke:#505050; }
line.grid { stroke:#D8D8D8; }
rect.bg { fill:#FFFFFF; }
text { font-family:arial,sans-serif; font-size:12px; fill:#000000; }
]]></style>
<defs>
<g id="hintbox"><rect x="0" y="0" width="77" height="34" style="stroke:#505050; stroke-width:1px; fill:rgba(255,255,255,0.87);" /><text id="hint0" x="4" y="14"> </text><text x="7" y="28"></text><text id="hint1" x="73" y="28" style="text-anchor:end;"> </text></g>
<g id="hintline"><line x1="0" y1="-234" x2="0" y2="0" class="axes" style="stroke-dasharray:2 1" /></g>
</defs>
<script><![CDATA[
function shb(x,y,dat) {
ar=dat.split(' '); for (i=0; i<ar.length; ++i) { if (i&&ar[i]) ar[i]+=' грн.'; h=document.getElementById('hint'+i); h.textContent=ar[i]; }
u=document.getElementById('usebox'); u.setAttribute('x',x); u.setAttribute('y',y); u.setAttribute('style','visibility:visible;'); }
function hhb() { u=document.getElementById('usebox'); u.setAttribute('style','visibility:hidden;'); u.setAttribute('x','0'); u.setAttribute('y','0'); }
function shl(x) { u=document.getElementById('useline'); u.setAttribute('x',x); u.setAttribute('style','visibility:visible;'); }
function hhl() { u=document.getElementById('useline'); u.setAttribute('style','visibility:hidden;'); u.setAttribute('x','0'); }
function sh(xl,xb,y,dat) { shl(xl); shb(xb,y,dat); }
function hh() { hhb(); hhl(); }
]]></script>
<rect x="-48" y="-272" width="489" height="330" class="bg" />
<line x1="26" y1="0" x2="26" y2="4" class="axes" /><text x="31" y="8" transform="rotate(-90,31,8)" style="text-anchor:end;">10.2019</text><line x1="53" y1="0" x2="53" y2="4" class="axes" /><text x="58" y="8" transform="rotate(-90,58,8)" style="text-anchor:end;">01.2020</text><line x1="80" y1="0" x2="80" y2="4" class="axes" /><text x="85" y="8" transform="rotate(-90,85,8)" style="text-anchor:end;">04.2020</text><line x1="107" y1="0" x2="107" y2="4" class="axes" /><text x="112" y="8" transform="rotate(-90,112,8)" style="text-anchor:end;">07.2020</text><line x1="134" y1="0" x2="134" y2="4" class="axes" /><text x="139" y="8" transform="rotate(-90,139,8)" style="text-anchor:end;">10.2020</text><line x1="161" y1="0" x2="161" y2="4" class="axes" /><text x="166" y="8" transform="rotate(-90,166,8)" style="text-anchor:end;">01.2021</text><line x1="188" y1="0" x2="188" y2="4" class="axes" /><text x="193" y="8" transform="rotate(-90,193,8)" style="text-anchor:end;">04.2021</text><line x1="215" y1="0" x2="215" y2="4" class="axes" /><text x="220" y="8" transform="rotate(-90,220,8)" style="text-anchor:end;">07.2021</text><line x1="242" y1="0" x2="242" y2="4" class="axes" /><text x="247" y="8" transform="rotate(-90,247,8)" style="text-anchor:end;">10.2021</text><line x1="269" y1="0" x2="269" y2="4" class="axes" /><text x="274" y="8" transform="rotate(-90,274,8)" style="text-anchor:end;">01.2022</text><line x1="296" y1="0" x2="296" y2="4" class="axes" /><text x="301" y="8" transform="rotate(-90,301,8)" style="text-anchor:end;">04.2022</text><line x1="323" y1="0" x2="323" y2="4" class="axes" /><text x="328" y="8" transform="rotate(-90,328,8)" style="text-anchor:end;">07.2022</text><line x1="350" y1="0" x2="350" y2="4" class="axes" /><text x="355" y="8" transform="rotate(-90,355,8)" style="text-anchor:end;">10.2022</text><line x1="377" y1="0" x2="377" y2="4" class="axes" /><text x="382" y="8" transform="rotate(-90,382,8)" style="text-anchor:end;">01.2023</text><line x1="404" y1="0" x2="404" y2="4" class="axes" /><text x="409" y="8" transform="rotate(-90,409,8)" style="text-anchor:end;">04.2023</text>
<line x1="0" y1="-18" x2="429" y2="-18" class="grid" /><line x1="0" y1="-18" x2="-4" y2="-18" class="axes" /><text x="-8" y="-14" style="text-anchor:end;">14</text><line x1="0" y1="-36" x2="429" y2="-36" class="grid" /><line x1="0" y1="-36" x2="-4" y2="-36" class="axes" /><text x="-8" y="-32" style="text-anchor:end;">15</text><line x1="0" y1="-54" x2="429" y2="-54" class="grid" /><line x1="0" y1="-54" x2="-4" y2="-54" class="axes" /><text x="-8" y="-50" style="text-anchor:end;">16</text><line x1="0" y1="-72" x2="429" y2="-72" class="grid" /><line x1="0" y1="-72" x2="-4" y2="-72" class="axes" /><text x="-8" y="-68" style="text-anchor:end;">17</text><line x1="0" y1="-90" x2="429" y2="-90" class="grid" /><line x1="0" y1="-90" x2="-4" y2="-90" class="axes" /><text x="-8" y="-86" style="text-anchor:end;">18</text><line x1="0" y1="-108" x2="429" y2="-108" class="grid" /><line x1="0" y1="-108" x2="-4" y2="-108" class="axes" /><text x="-8" y="-104" style="text-anchor:end;">19</text><line x1="0" y1="-126" x2="429" y2="-126" class="grid" /><line x1="0" y1="-126" x2="-4" y2="-126" class="axes" /><text x="-8" y="-122" style="text-anchor:end;">20</text><line x1="0" y1="-144" x2="429" y2="-144" class="grid" /><line x1="0" y1="-144" x2="-4" y2="-144" class="axes" /><text x="-8" y="-140" style="text-anchor:end;">21</text><line x1="0" y1="-162" x2="429" y2="-162" class="grid" /><line x1="0" y1="-162" x2="-4" y2="-162" class="axes" /><text x="-8" y="-158" style="text-anchor:end;">22</text><line x1="0" y1="-180" x2="429" y2="-180" class="grid" /><line x1="0" y1="-180" x2="-4" y2="-180" class="axes" /><text x="-8" y="-176" style="text-anchor:end;">23</text><line x1="0" y1="-198" x2="429" y2="-198" class="grid" /><line x1="0" y1="-198" x2="-4" y2="-198" class="axes" /><text x="-8" y="-194" style="text-anchor:end;">24</text><line x1="0" y1="-216" x2="429" y2="-216" class="grid" /><line x1="0" y1="-216" x2="-4" y2="-216" class="axes" /><text x="-8" y="-212" style="text-anchor:end;">25</text><line x1="0" y1="-234" x2="429" y2="-234" class="grid" /><line x1="0" y1="-234" x2="-4" y2="-234" class="axes" /><text x="-8" y="-230" style="text-anchor:end;">26</text>
<use xlink:href="#hintline" id="useline" x="0" style="visibility:hidden;" />
<rect x="5" y="-234" width="6" height="234" style="fill:transparent;" onmouseover="sh(8,8,-240,'01.08.2019 16,56');" onmouseout="hh();" /><rect x="5" y="-64" width="6" height="64" style="fill:#0080C0;" onmouseover="sh(8,8,-240,'01.08.2019 16,56');" onmouseout="hh();" /><rect x="14" y="-234" width="6" height="234" style="fill:transparent;" onmouseover="sh(17,17,-240,'01.09.2019 15,79');" onmouseout="hh();" /><rect x="14" y="-50" width="6" height="50" style="fill:#0080C0;" onmouseover="sh(17,17,-240,'01.09.2019 15,79');" onmouseout="hh();" /><rect x="23" y="-234" width="6" height="234" style="fill:transparent;" onmouseover="sh(26,26,-240,'01.10.2019 16,38');" onmouseout="hh();" /><rect x="23" y="-61" width="6" height="61" style="fill:#0080C0;" onmouseover="sh(26,26,-240,'01.10.2019 16,38');" onmouseout="hh();" /><rect x="32" y="-234" width="6" height="234" style="fill:transparent;" onmouseover="sh(35,35,-240,'01.11.2019 16,34');" onmouseout="hh();" /><rect x="32" y="-60" width="6" height="60" style="fill:#0080C0;" onmouseover="sh(35,35,-240,'01.11.2019 16,34');" onmouseout="hh();" /><rect x="41" y="-234" width="6" height="234" style="fill:transparent;" onmouseover="sh(44,44,-240,'01.12.2019 16,25');" onmouseout="hh();" /><rect x="41" y="-58" width="6" height="58" style="fill:#0080C0;" onmouseover="sh(44,44,-240,'01.12.2019 16,25');" onmouseout="hh();" /><rect x="50" y="-234" width="6" height="234" style="fill:transparent;" onmouseover="sh(53,53,-240,'01.01.2020 16,75');" onmouseout="hh();" /><rect x="50" y="-67" width="6" height="67" style="fill:#0080C0;" onmouseover="sh(53,53,-240,'01.01.2020 16,75');" onmouseout="hh();" /><rect x="59" y="-234" width="6" height="234" style="fill:transparent;" onmouseover="sh(62,62,-240,'01.02.2020 16,84');" onmouseout="hh();" /><rect x="59" y="-69" width="6" height="69" style="fill:#0080C0;" onmouseover="sh(62,62,-240,'01.02.2020 16,84');" onmouseout="hh();" /><rect x="68" y="-234" width="6" height="234" style="fill:transparent;" onmouseover="sh(71,71,-240,'01.03.2020 16,71');" onmouseout="hh();" /><rect x="68" y="-67" width="6" height="67" style="fill:#0080C0;" onmouseover="sh(71,71,-240,'01.03.2020 16,71');" onmouseout="hh();" /><rect x="77" y="-234" width="6" height="234" style="fill:transparent;" onmouseover="sh(80,80,-240,'01.04.2020 17,64');" onmouseout="hh();" /><rect x="77" y="-83" width="6" height="83" style="fill:#0080C0;" onmouseover="sh(80,80,-240,'01.04.2020 17,64');" onmouseout="hh();" /><rect x="86" y="-234" width="6" height="234" style="fill:transparent;" onmouseover="sh(89,89,-240,'01.05.2020 17,22');" onmouseout="hh();" /><rect x="86" y="-76" width="6" height="76" style="fill:#0080C0;" onmouseover="sh(89,89,-240,'01.05.2020 17,22');" onmouseout="hh();" /><rect x="95" y="-234" width="6" height="234" style="fill:transparent;" onmouseover="sh(98,98,-240,'01.06.2020 17,33');" onmouseout="hh();" /><rect x="95" y="-78" width="6" height="78" style="fill:#0080C0;" onmouseover="sh(98,98,-240,'01.06.2020 17,33');" onmouseout="hh();" /><rect x="104" y="-234" width="6" height="234" style="fill:transparent;" onmouseover="sh(107,107,-240,'01.07.2020 17,52');" onmouseout="hh();" /><rect x="104" y="-81" width="6" height="81" style="fill:#0080C0;" onmouseover="sh(107,107,-240,'01.07.2020 17,52');" onmouseout="hh();" /><rect x="113" y="-234" width="6" height="234" style="fill:transparent;" onmouseover="sh(116,116,-240,'01.08.2020 17,78');" onmouseout="hh();" /><rect x="113" y="-86" width="6" height="86" style="fill:#0080C0;" onmouseover="sh(116,116,-240,'01.08.2020 17,78');" onmouseout="hh();" /><rect x="122" y="-234" width="6" height="234" style="fill:transparent;" onmouseover="sh(125,125,-240,'01.09.2020 17,27');" onmouseout="hh();" /><rect x="122" y="-77" width="6" height="77" style="fill:#0080C0;" onmouseover="sh(125,125,-240,'01.09.2020 17,27');" onmouseout="hh();" /><rect x="131" y="-234" width="6" height="234" style="fill:transparent;" onmouseover="sh(134,134,-240,'01.10.2020 17,93');" onmouseout="hh();" /><rect x="131" y="-89" width="6" height="89" style="fill:#0080C0;" onmouseover="sh(134,134,-240,'01.10.2020 17,93');" onmouseout="hh();" /><rect x="140" y="-234" width="6" height="234" style="fill:transparent;" onmouseover="sh(143,143,-240,'01.11.2020 16,86');" onmouseout="hh();" /><rect x="140" y="-70" width="6" height="70" style="fill:#0080C0;" onmouseover="sh(143,143,-240,'01.11.2020 16,86');" onmouseout="hh();" /><rect x="149" y="-234" width="6" height="234" style="fill:transparent;" onmouseover="sh(152,152,-240,'01.12.2020 17,94');" onmouseout="hh();" /><rect x="149" y="-89" width="6" height="89" style="fill:#0080C0;" onmouseover="sh(152,152,-240,'01.12.2020 17,94');" onmouseout="hh();" /><rect x="158" y="-234" width="6" height="234" style="fill:transparent;" onmouseover="sh(161,161,-240,'01.01.2021 18,47');" onmouseout="hh();" /><rect x="158" y="-99" width="6" height="99" style="fill:#0080C0;" onmouseover="sh(161,161,-240,'01.01.2021 18,47');" onmouseout="hh();" /><rect x="167" y="-234" width="6" height="234" style="fill:transparent;" onmouseover="sh(170,170,-240,'01.02.2021 18,74');" onmouseout="hh();" /><rect x="167" y="-103" width="6" height="103" style="fill:#0080C0;" onmouseover="sh(170,170,-240,'01.02.2021 18,74');" onmouseout="hh();" /><rect x="176" y="-234" width="6" height="234" style="fill:transparent;" onmouseover="sh(179,179,-240,'01.03.2021 18,44');" onmouseout="hh();" /><rect x="176" y="-98" width="6" height="98" style="fill:#0080C0;" onmouseover="sh(179,179,-240,'01.03.2021 18,44');" onmouseout="hh();" /><rect x="185" y="-234" width="6" height="234" style="fill:transparent;" onmouseover="sh(188,188,-240,'01.04.2021 17,74');" onmouseout="hh();" /><rect x="185" y="-85" width="6" height="85" style="fill:#0080C0;" onmouseover="sh(188,188,-240,'01.04.2021 17,74');" onmouseout="hh();" /><rect x="194" y="-234" width="6" height="234" style="fill:transparent;" onmouseover="sh(197,197,-240,'01.05.2021 16,67');" onmouseout="hh();" /><rect x="194" y="-66" width="6" height="66" style="fill:#0080C0;" onmouseover="sh(197,197,-240,'01.05.2021 16,67');" onmouseout="hh();" /><rect x="203" y="-234" width="6" height="234" style="fill:transparent;" onmouseover="sh(206,206,-240,'01.06.2021 16,41');" onmouseout="hh();" /><rect x="203" y="-61" width="6" height="61" style="fill:#0080C0;" onmouseover="sh(206,206,-240,'01.06.2021 16,41');" onmouseout="hh();" /><rect x="212" y="-234" width="6" height="234" style="fill:transparent;" onmouseover="sh(215,215,-240,'01.07.2021 17,42');" onmouseout="hh();" /><rect x="212" y="-80" width="6" height="80" style="fill:#0080C0;" onmouseover="sh(215,215,-240,'01.07.2021 17,42');" onmouseout="hh();" /><rect x="221" y="-234" width="6" height="234" style="fill:transparent;" onmouseover="sh(224,224,-240,'01.08.2021 17,27');" onmouseout="hh();" /><rect x="221" y="-77" width="6" height="77" style="fill:#0080C0;" onmouseover="sh(224,224,-240,'01.08.2021 17,27');" onmouseout="hh();" /><rect x="230" y="-234" width="6" height="234" style="fill:transparent;" onmouseover="sh(233,233,-240,'01.09.2021 17,28');" onmouseout="hh();" /><rect x="230" y="-77" width="6" height="77" style="fill:#0080C0;" onmouseover="sh(233,233,-240,'01.09.2021 17,28');" onmouseout="hh();" /><rect x="239" y="-234" width="6" height="234" style="fill:transparent;" onmouseover="sh(242,242,-240,'01.10.2021 17,16');" onmouseout="hh();" /><rect x="239" y="-75" width="6" height="75" style="fill:#0080C0;" onmouseover="sh(242,242,-240,'01.10.2021 17,16');" onmouseout="hh();" /><rect x="248" y="-234" width="6" height="234" style="fill:transparent;" onmouseover="sh(251,251,-240,'01.11.2021 15,99');" onmouseout="hh();" /><rect x="248" y="-54" width="6" height="54" style="fill:#0080C0;" onmouseover="sh(251,251,-240,'01.11.2021 15,99');" onmouseout="hh();" /><rect x="257" y="-234" width="6" height="234" style="fill:transparent;" onmouseover="sh(260,260,-240,'01.12.2021 16,08');" onmouseout="hh();" /><rect x="257" y="-55" width="6" height="55" style="fill:#0080C0;" onmouseover="sh(260,260,-240,'01.12.2021 16,08');" onmouseout="hh();" /><rect x="266" y="-234" width="6" height="234" style="fill:transparent;" onmouseover="sh(269,269,-240,'01.01.2022 17,98');" onmouseout="hh();" /><rect x="266" y="-90" width="6" height="90" style="fill:#0080C0;" onmouseover="sh(269,269,-240,'01.01.2022 17,98');" onmouseout="hh();" /><rect x="275" y="-234" width="6" height="234" style="fill:transparent;" onmouseover="sh(278,278,-240,'01.02.2022 18,67');" onmouseout="hh();" /><rect x="275" y="-102" width="6" height="102" style="fill:#0080C0;" onmouseover="sh(278,278,-240,'01.02.2022 18,67');" onmouseout="hh();" /><rect x="284" y="-234" width="6" height="234" style="fill:transparent;" onmouseover="sh(287,287,-240,'01.03.2022 18,67');" onmouseout="hh();" /><rect x="284" y="-102" width="6" height="102" style="fill:#0080C0;" onmouseover="sh(287,287,-240,'01.03.2022 18,67');" onmouseout="hh();" /><rect x="293" y="-234" width="6" height="234" style="fill:transparent;" onmouseover="sh(296,296,-240,'01.04.2022 19,06');" onmouseout="hh();" /><rect x="293" y="-109" width="6" height="109" style="fill:#0080C0;" onmouseover="sh(296,296,-240,'01.04.2022 19,06');" onmouseout="hh();" /><rect x="302" y="-234" width="6" height="234" style="fill:transparent;" onmouseover="sh(305,305,-240,'01.05.2022 19,60');" onmouseout="hh();" /><rect x="302" y="-119" width="6" height="119" style="fill:#0080C0;" onmouseover="sh(305,305,-240,'01.05.2022 19,60');" onmouseout="hh();" /><rect x="311" y="-234" width="6" height="234" style="fill:transparent;" onmouseover="sh(314,314,-240,'01.06.2022 19,79');" onmouseout="hh();" /><rect x="311" y="-122" width="6" height="122" style="fill:#0080C0;" onmouseover="sh(314,314,-240,'01.06.2022 19,79');" onmouseout="hh();" /><rect x="320" y="-234" width="6" height="234" style="fill:transparent;" onmouseover="sh(323,323,-240,'01.07.2022 20,41');" onmouseout="hh();" /><rect x="320" y="-133" width="6" height="133" style="fill:#0080C0;" onmouseover="sh(323,323,-240,'01.07.2022 20,41');" onmouseout="hh();" /><rect x="329" y="-234" width="6" height="234" style="fill:transparent;" onmouseover="sh(332,332,-240,'01.08.2022 20,51');" onmouseout="hh();" /><rect x="329" y="-135" width="6" height="135" style="fill:#0080C0;" onmouseover="sh(332,332,-240,'01.08.2022 20,51');" onmouseout="hh();" /><rect x="338" y="-234" width="6" height="234" style="fill:transparent;" onmouseover="sh(341,341,-240,'01.09.2022 21,20');" onmouseout="hh();" /><rect x="338" y="-148" width="6" height="148" style="fill:#0080C0;" onmouseover="sh(341,341,-240,'01.09.2022 21,20');" onmouseout="hh();" /><rect x="347" y="-234" width="6" height="234" style="fill:transparent;" onmouseover="sh(350,350,-240,'01.10.2022 21,61');" onmouseout="hh();" /><rect x="347" y="-155" width="6" height="155" style="fill:#0080C0;" onmouseover="sh(350,350,-240,'01.10.2022 21,61');" onmouseout="hh();" /><rect x="356" y="-234" width="6" height="234" style="fill:transparent;" onmouseover="sh(359,359,-240,'01.11.2022 21,66');" onmouseout="hh();" /><rect x="356" y="-156" width="6" height="156" style="fill:#0080C0;" onmouseover="sh(359,359,-240,'01.11.2022 21,66');" onmouseout="hh();" /><rect x="365" y="-234" width="6" height="234" style="fill:transparent;" onmouseover="sh(368,362,-240,'01.12.2022 22,23');" onmouseout="hh();" /><rect x="365" y="-166" width="6" height="166" style="fill:#0080C0;" onmouseover="sh(368,362,-240,'01.12.2022 22,23');" onmouseout="hh();" /><rect x="374" y="-234" width="6" height="234" style="fill:transparent;" onmouseover="sh(377,362,-240,'01.01.2023 22,04');" onmouseout="hh();" /><rect x="374" y="-163" width="6" height="163" style="fill:#0080C0;" onmouseover="sh(377,362,-240,'01.01.2023 22,04');" onmouseout="hh();" /><rect x="383" y="-234" width="6" height="234" style="fill:transparent;" onmouseover="sh(386,362,-240,'01.02.2023 21,85');" onmouseout="hh();" /><rect x="383" y="-159" width="6" height="159" style="fill:#0080C0;" onmouseover="sh(386,362,-240,'01.02.2023 21,85');" onmouseout="hh();" /><rect x="392" y="-234" width="6" height="234" style="fill:transparent;" onmouseover="sh(395,362,-240,'01.03.2023 22,33');" onmouseout="hh();" /><rect x="392" y="-168" width="6" height="168" style="fill:#0080C0;" onmouseover="sh(395,362,-240,'01.03.2023 22,33');" onmouseout="hh();" /><rect x="401" y="-234" width="6" height="234" style="fill:transparent;" onmouseover="sh(404,362,-240,'01.04.2023 23,57');" onmouseout="hh();" /><rect x="401" y="-190" width="6" height="190" style="fill:#0080C0;" onmouseover="sh(404,362,-240,'01.04.2023 23,57');" onmouseout="hh();" /><rect x="410" y="-234" width="6" height="234" style="fill:transparent;" onmouseover="sh(413,362,-240,'01.05.2023 23,06');" onmouseout="hh();" /><rect x="410" y="-181" width="6" height="181" style="fill:#0080C0;" onmouseover="sh(413,362,-240,'01.05.2023 23,06');" onmouseout="hh();" /><rect x="419" y="-234" width="6" height="234" style="fill:transparent;" onmouseover="sh(422,362,-240,'01.06.2023 24,06');" onmouseout="hh();" /><rect x="419" y="-199" width="6" height="199" style="fill:#0080C0;" onmouseover="sh(422,362,-240,'01.06.2023 24,06');" onmouseout="hh();" />
<line x1="-6" y1="0" x2="432" y2="0" class="axes" /><line x1="0" y1="-250" x2="0" y2="0" class="axes" /><text x="-2" y="-254" style="text-anchor:end;">грн.</text>
<use xlink:href="#hintbox" id="usebox" x="0" y="0" style="visibility:hidden;" />
</svg>
