<?xml version="1.0" encoding="UTF-8" standalone="no"?>
<!DOCTYPE svg PUBLIC "-//W3C//DTD SVG 1.1//EN" "http://www.w3.org/Graphics/SVG/1.1/DTD/svg11.dtd">
<svg version="1.1" xmlns="http://www.w3.org/2000/svg" xmlns:xlink="http://www.w3.org/1999/xlink" xmlns:ev="http://www.w3.org/2001/xml-events" width="172" height="330" viewBox="-55 -272 172 330" preserveAspectRatio="none">
<style type="text/css"><![CDATA[
line { stroke-width:1px; }
line.axes { stroke:#505050; }
line.grid { stroke:#D8D8D8; }
rect.bg { fill:#FFFFFF; }
text { font-family:arial,sans-serif; font-size:12px; fill:#000000; }
]]></style>
<defs>
<g id="hintbox"><rect x="0" y="0" width="77" height="34" style="stroke:#505050; stroke-width:1px; fill:rgba(255,255,255,0.87);" /><text id="hint0" x="4" y="14"> </text><text x="7" y="28"></text><text id="hint1" x="73" y="28" style="text-anchor:end;"> </text></g>
<g id="hintline"><line x1="0" y1="-240" x2="0" y2="0" class="axes" style="stroke-dasharray:2 1" /></g>
</defs>
<script><![CDATA[
function shb(x,y,dat) {
ar=dat.split(' '); for (i=0; i<ar.length; ++i) { if (i&&ar[i]) ar[i]+=' грн.'; h=document.getElementById('hint'+i); h.textContent=ar[i]; }
u=document.getElementById('usebox'); u.setAttribute('x',x); u.setAttribute('y',y); u.setAttribute('style','visibility:visible;'); }
function hhb() { u=document.getElementById('usebox'); u.setAttribute('style','visibility:hidden;'); u.setAttribute('x','0'); u.setAttribute('y','0'); }
function shl(x) { u=document.getElementById('useline'); u.setAttribute('x',x); u.setAttribute('style','visibility:visible;'); }
function hhl() { u=document.getElementById('useline'); u.setAttribute('style','visibility:hidden;'); u.setAttribute('x','0'); }
function sh(xl,xb,y,dat) { shl(xl); shb(xb,y,dat); }
function hh() { hhb(); hhl(); }
]]></script>
<rect x="-55" y="-272" width="172" height="330" class="bg" />
<line x1="26" y1="0" x2="26" y2="4" class="axes" /><text x="31" y="8" transform="rotate(-90,31,8)" style="text-anchor:end;">10.2022</text><line x1="53" y1="0" x2="53" y2="4" class="axes" /><text x="58" y="8" transform="rotate(-90,58,8)" style="text-anchor:end;">01.2023</text><line x1="80" y1="0" x2="80" y2="4" class="axes" /><text x="85" y="8" transform="rotate(-90,85,8)" style="text-anchor:end;">04.2023</text>
<line x1="0" y1="-30" x2="105" y2="-30" class="grid" /><line x1="0" y1="-30" x2="-4" y2="-30" class="axes" /><text x="-8" y="-26" style="text-anchor:end;">22,0</text><line x1="0" y1="-60" x2="105" y2="-60" class="grid" /><line x1="0" y1="-60" x2="-4" y2="-60" class="axes" /><text x="-8" y="-56" style="text-anchor:end;">22,5</text><line x1="0" y1="-90" x2="105" y2="-90" class="grid" /><line x1="0" y1="-90" x2="-4" y2="-90" class="axes" /><text x="-8" y="-86" style="text-anchor:end;">23,0</text><line x1="0" y1="-120" x2="105" y2="-120" class="grid" /><line x1="0" y1="-120" x2="-4" y2="-120" class="axes" /><text x="-8" y="-116" style="text-anchor:end;">23,5</text><line x1="0" y1="-150" x2="105" y2="-150" class="grid" /><line x1="0" y1="-150" x2="-4" y2="-150" class="axes" /><text x="-8" y="-146" style="text-anchor:end;">24,0</text><line x1="0" y1="-180" x2="105" y2="-180" class="grid" /><line x1="0" y1="-180" x2="-4" y2="-180" class="axes" /><text x="-8" y="-176" style="text-anchor:end;">24,5</text><line x1="0" y1="-210" x2="105" y2="-210" class="grid" /><line x1="0" y1="-210" x2="-4" y2="-210" class="axes" /><text x="-8" y="-206" style="text-anchor:end;">25,0</text><line x1="0" y1="-240" x2="105" y2="-240" class="grid" /><line x1="0" y1="-240" x2="-4" y2="-240" class="axes" /><text x="-8" y="-236" style="text-anchor:end;">25,5</text>
<use xlink:href="#hintline" id="useline" x="0" style="visibility:hidden;" />
<rect x="5" y="-240" width="6" height="240" style="fill:transparent;" onmouseover="sh(8,8,-246,'01.08.2022 22,55');" onmouseout="hh();" /><rect x="5" y="-63" width="6" height="63" style="fill:#0080C0;" onmouseover="sh(8,8,-246,'01.08.2022 22,55');" onmouseout="hh();" /><rect x="14" y="-240" width="6" height="240" style="fill:transparent;" onmouseover="sh(17,17,-246,'01.09.2022 22,73');" onmouseout="hh();" /><rect x="14" y="-74" width="6" height="74" style="fill:#0080C0;" onmouseover="sh(17,17,-246,'01.09.2022 22,73');" onmouseout="hh();" /><rect x="23" y="-240" width="6" height="240" style="fill:transparent;" onmouseover="sh(26,26,-246,'01.10.2022 23,15');" onmouseout="hh();" /><rect x="23" y="-99" width="6" height="99" style="fill:#0080C0;" onmouseover="sh(26,26,-246,'01.10.2022 23,15');" onmouseout="hh();" /><rect x="32" y="-240" width="6" height="240" style="fill:transparent;" onmouseover="sh(35,35,-246,'01.11.2022 22,76');" onmouseout="hh();" /><rect x="32" y="-76" width="6" height="76" style="fill:#0080C0;" onmouseover="sh(35,35,-246,'01.11.2022 22,76');" onmouseout="hh();" /><rect x="41" y="-240" width="6" height="240" style="fill:transparent;" onmouseover="sh(44,38,-246,'01.12.2022 24,57');" onmouseout="hh();" /><rect x="41" y="-184" width="6" height="184" style="fill:#0080C0;" onmouseover="sh(44,38,-246,'01.12.2022 24,57');" onmouseout="hh();" /><rect x="50" y="-240" width="6" height="240" style="fill:transparent;" onmouseover="sh(53,38,-246,'01.01.2023 24,10');" onmouseout="hh();" /><rect x="50" y="-156" width="6" height="156" style="fill:#0080C0;" onmouseover="sh(53,38,-246,'01.01.2023 24,10');" onmouseout="hh();" /><rect x="59" y="-240" width="6" height="240" style="fill:transparent;" onmouseover="sh(62,38,-246,'01.02.2023 23,82');" onmouseout="hh();" /><rect x="59" y="-139" width="6" height="139" style="fill:#0080C0;" onmouseover="sh(62,38,-246,'01.02.2023 23,82');" onmouseout="hh();" /><rect x="68" y="-240" width="6" height="240" style="fill:transparent;" onmouseover="sh(71,38,-246,'01.03.2023 23,31');" onmouseout="hh();" /><rect x="68" y="-108" width="6" height="108" style="fill:#0080C0;" onmouseover="sh(71,38,-246,'01.03.2023 23,31');" onmouseout="hh();" /><rect x="77" y="-240" width="6" height="240" style="fill:transparent;" onmouseover="sh(80,38,-246,'01.04.2023 24,75');" onmouseout="hh();" /><rect x="77" y="-195" width="6" height="195" style="fill:#0080C0;" onmouseover="sh(80,38,-246,'01.04.2023 24,75');" onmouseout="hh();" /><rect x="86" y="-240" width="6" height="240" style="fill:transparent;" onmouseover="sh(89,38,-246,'01.05.2023 23,42');" onmouseout="hh();" /><rect x="86" y="-115" width="6" height="115" style="fill:#0080C0;" onmouseover="sh(89,38,-246,'01.05.2023 23,42');" onmouseout="hh();" /><rect x="95" y="-240" width="6" height="240" style="fill:transparent;" onmouseover="sh(98,38,-246,'01.06.2023 22,70');" onmouseout="hh();" /><rect x="95" y="-72" width="6" height="72" style="fill:#0080C0;" onmouseover="sh(98,38,-246,'01.06.2023 22,70');" onmouseout="hh();" />
<line x1="-6" y1="0" x2="108" y2="0" class="axes" /><line x1="0" y1="-256" x2="0" y2="0" class="axes" /><text x="-2" y="-260" style="text-anchor:end;">грн.</text>
<use xlink:href="#hintbox" id="usebox" x="0" y="0" style="visibility:hidden;" />
</svg>
