<?xml version="1.0" encoding="UTF-8" standalone="no"?>
<!DOCTYPE svg PUBLIC "-//W3C//DTD SVG 1.1//EN" "http://www.w3.org/Graphics/SVG/1.1/DTD/svg11.dtd">
<svg version="1.1" xmlns="http://www.w3.org/2000/svg" xmlns:xlink="http://www.w3.org/1999/xlink" xmlns:ev="http://www.w3.org/2001/xml-events" width="255" height="331" viewBox="-48 -273 255 331" preserveAspectRatio="none">
<style type="text/css"><![CDATA[
line { stroke-width:1px; }
line.axes { stroke:#505050; }
line.grid { stroke:#D8D8D8; }
rect.bg { fill:#FFFFFF; }
text { font-family:arial,sans-serif; font-size:12px; fill:#000000; }
]]></style>
<defs>
<g id="hintbox"><rect x="0" y="0" width="77" height="34" style="stroke:#505050; stroke-width:1px; fill:rgba(255,255,255,0.87);" /><text id="hint0" x="4" y="14"> </text><text x="7" y="28"></text><text id="hint1" x="73" y="28" style="text-anchor:end;"> </text></g>
<g id="hintline"><line x1="0" y1="-243" x2="0" y2="0" class="axes" style="stroke-dasharray:2 1" /></g>
</defs>
<script><![CDATA[
function shb(x,y,dat) {
ar=dat.split(' '); for (i=0; i<ar.length; ++i) { if (i&&ar[i]) ar[i]+=' грн.'; h=document.getElementById('hint'+i); h.textContent=ar[i]; }
u=document.getElementById('usebox'); u.setAttribute('x',x); u.setAttribute('y',y); u.setAttribute('style','visibility:visible;'); }
function hhb() { u=document.getElementById('usebox'); u.setAttribute('style','visibility:hidden;'); u.setAttribute('x','0'); u.setAttribute('y','0'); }
function shl(x) { u=document.getElementById('useline'); u.setAttribute('x',x); u.setAttribute('style','visibility:visible;'); }
function hhl() { u=document.getElementById('useline'); u.setAttribute('style','visibility:hidden;'); u.setAttribute('x','0'); }
function sh(xl,xb,y,dat) { shl(xl); shb(xb,y,dat); }
function hh() { hhb(); hhl(); }
]]></script>
<rect x="-48" y="-273" width="255" height="331" class="bg" />
<line x1="8" y1="0" x2="8" y2="4" class="axes" /><text x="13" y="8" transform="rotate(-90,13,8)" style="text-anchor:end;">10.2021</text><line x1="35" y1="0" x2="35" y2="4" class="axes" /><text x="40" y="8" transform="rotate(-90,40,8)" style="text-anchor:end;">01.2022</text><line x1="62" y1="0" x2="62" y2="4" class="axes" /><text x="67" y="8" transform="rotate(-90,67,8)" style="text-anchor:end;">04.2022</text><line x1="89" y1="0" x2="89" y2="4" class="axes" /><text x="94" y="8" transform="rotate(-90,94,8)" style="text-anchor:end;">07.2022</text><line x1="116" y1="0" x2="116" y2="4" class="axes" /><text x="121" y="8" transform="rotate(-90,121,8)" style="text-anchor:end;">10.2022</text><line x1="143" y1="0" x2="143" y2="4" class="axes" /><text x="148" y="8" transform="rotate(-90,148,8)" style="text-anchor:end;">01.2023</text><line x1="170" y1="0" x2="170" y2="4" class="axes" /><text x="175" y="8" transform="rotate(-90,175,8)" style="text-anchor:end;">04.2023</text>
<line x1="0" y1="-27" x2="195" y2="-27" class="grid" /><line x1="0" y1="-27" x2="-4" y2="-27" class="axes" /><text x="-8" y="-23" style="text-anchor:end;">30</text><line x1="0" y1="-54" x2="195" y2="-54" class="grid" /><line x1="0" y1="-54" x2="-4" y2="-54" class="axes" /><text x="-8" y="-50" style="text-anchor:end;">32</text><line x1="0" y1="-81" x2="195" y2="-81" class="grid" /><line x1="0" y1="-81" x2="-4" y2="-81" class="axes" /><text x="-8" y="-77" style="text-anchor:end;">34</text><line x1="0" y1="-108" x2="195" y2="-108" class="grid" /><line x1="0" y1="-108" x2="-4" y2="-108" class="axes" /><text x="-8" y="-104" style="text-anchor:end;">36</text><line x1="0" y1="-135" x2="195" y2="-135" class="grid" /><line x1="0" y1="-135" x2="-4" y2="-135" class="axes" /><text x="-8" y="-131" style="text-anchor:end;">38</text><line x1="0" y1="-162" x2="195" y2="-162" class="grid" /><line x1="0" y1="-162" x2="-4" y2="-162" class="axes" /><text x="-8" y="-158" style="text-anchor:end;">40</text><line x1="0" y1="-189" x2="195" y2="-189" class="grid" /><line x1="0" y1="-189" x2="-4" y2="-189" class="axes" /><text x="-8" y="-185" style="text-anchor:end;">42</text><line x1="0" y1="-216" x2="195" y2="-216" class="grid" /><line x1="0" y1="-216" x2="-4" y2="-216" class="axes" /><text x="-8" y="-212" style="text-anchor:end;">44</text><line x1="0" y1="-243" x2="195" y2="-243" class="grid" /><line x1="0" y1="-243" x2="-4" y2="-243" class="axes" /><text x="-8" y="-239" style="text-anchor:end;">46</text>
<use xlink:href="#hintline" id="useline" x="0" style="visibility:hidden;" />
<rect x="5" y="-243" width="6" height="243" style="fill:transparent;" onmouseover="sh(8,8,-249,'01.10.2021 33,73');" onmouseout="hh();" /><rect x="5" y="-77" width="6" height="77" style="fill:#0080C0;" onmouseover="sh(8,8,-249,'01.10.2021 33,73');" onmouseout="hh();" /><rect x="14" y="-243" width="6" height="243" style="fill:transparent;" onmouseover="sh(17,17,-249,'01.11.2021 32,29');" onmouseout="hh();" /><rect x="14" y="-58" width="6" height="58" style="fill:#0080C0;" onmouseover="sh(17,17,-249,'01.11.2021 32,29');" onmouseout="hh();" /><rect x="23" y="-243" width="6" height="243" style="fill:transparent;" onmouseover="sh(26,26,-249,'01.12.2021 35,38');" onmouseout="hh();" /><rect x="23" y="-100" width="6" height="100" style="fill:#0080C0;" onmouseover="sh(26,26,-249,'01.12.2021 35,38');" onmouseout="hh();" /><rect x="32" y="-243" width="6" height="243" style="fill:transparent;" onmouseover="sh(35,35,-249,'01.01.2022 35,18');" onmouseout="hh();" /><rect x="32" y="-97" width="6" height="97" style="fill:#0080C0;" onmouseover="sh(35,35,-249,'01.01.2022 35,18');" onmouseout="hh();" /><rect x="41" y="-243" width="6" height="243" style="fill:transparent;" onmouseover="sh(44,44,-249,'01.02.2022 34,19');" onmouseout="hh();" /><rect x="41" y="-84" width="6" height="84" style="fill:#0080C0;" onmouseover="sh(44,44,-249,'01.02.2022 34,19');" onmouseout="hh();" /><rect x="50" y="-243" width="6" height="243" style="fill:transparent;" onmouseover="sh(53,53,-249,'01.03.2022 35,00');" onmouseout="hh();" /><rect x="50" y="-95" width="6" height="95" style="fill:#0080C0;" onmouseover="sh(53,53,-249,'01.03.2022 35,00');" onmouseout="hh();" /><rect x="59" y="-243" width="6" height="243" style="fill:transparent;" onmouseover="sh(62,62,-249,'01.04.2022 35,76');" onmouseout="hh();" /><rect x="59" y="-105" width="6" height="105" style="fill:#0080C0;" onmouseover="sh(62,62,-249,'01.04.2022 35,76');" onmouseout="hh();" /><rect x="68" y="-243" width="6" height="243" style="fill:transparent;" onmouseover="sh(71,71,-249,'01.05.2022 34,89');" onmouseout="hh();" /><rect x="68" y="-93" width="6" height="93" style="fill:#0080C0;" onmouseover="sh(71,71,-249,'01.05.2022 34,89');" onmouseout="hh();" /><rect x="77" y="-243" width="6" height="243" style="fill:transparent;" onmouseover="sh(80,80,-249,'01.06.2022 37,97');" onmouseout="hh();" /><rect x="77" y="-135" width="6" height="135" style="fill:#0080C0;" onmouseover="sh(80,80,-249,'01.06.2022 37,97');" onmouseout="hh();" /><rect x="86" y="-243" width="6" height="243" style="fill:transparent;" onmouseover="sh(89,89,-249,'01.07.2022 37,74');" onmouseout="hh();" /><rect x="86" y="-132" width="6" height="132" style="fill:#0080C0;" onmouseover="sh(89,89,-249,'01.07.2022 37,74');" onmouseout="hh();" /><rect x="95" y="-243" width="6" height="243" style="fill:transparent;" onmouseover="sh(98,98,-249,'01.08.2022 37,29');" onmouseout="hh();" /><rect x="95" y="-125" width="6" height="125" style="fill:#0080C0;" onmouseover="sh(98,98,-249,'01.08.2022 37,29');" onmouseout="hh();" /><rect x="104" y="-243" width="6" height="243" style="fill:transparent;" onmouseover="sh(107,107,-249,'01.09.2022 37,13');" onmouseout="hh();" /><rect x="104" y="-123" width="6" height="123" style="fill:#0080C0;" onmouseover="sh(107,107,-249,'01.09.2022 37,13');" onmouseout="hh();" /><rect x="113" y="-243" width="6" height="243" style="fill:transparent;" onmouseover="sh(116,116,-249,'01.10.2022 37,99');" onmouseout="hh();" /><rect x="113" y="-135" width="6" height="135" style="fill:#0080C0;" onmouseover="sh(116,116,-249,'01.10.2022 37,99');" onmouseout="hh();" /><rect x="122" y="-243" width="6" height="243" style="fill:transparent;" onmouseover="sh(125,125,-249,'01.11.2022 37,75');" onmouseout="hh();" /><rect x="122" y="-132" width="6" height="132" style="fill:#0080C0;" onmouseover="sh(125,125,-249,'01.11.2022 37,75');" onmouseout="hh();" /><rect x="131" y="-243" width="6" height="243" style="fill:transparent;" onmouseover="sh(134,128,-249,'01.12.2022 38,37');" onmouseout="hh();" /><rect x="131" y="-140" width="6" height="140" style="fill:#0080C0;" onmouseover="sh(134,128,-249,'01.12.2022 38,37');" onmouseout="hh();" /><rect x="140" y="-243" width="6" height="243" style="fill:transparent;" onmouseover="sh(143,128,-249,'01.01.2023 37,90');" onmouseout="hh();" /><rect x="140" y="-134" width="6" height="134" style="fill:#0080C0;" onmouseover="sh(143,128,-249,'01.01.2023 37,90');" onmouseout="hh();" /><rect x="149" y="-243" width="6" height="243" style="fill:transparent;" onmouseover="sh(152,128,-249,'01.02.2023 38,09');" onmouseout="hh();" /><rect x="149" y="-136" width="6" height="136" style="fill:#0080C0;" onmouseover="sh(152,128,-249,'01.02.2023 38,09');" onmouseout="hh();" /><rect x="158" y="-243" width="6" height="243" style="fill:transparent;" onmouseover="sh(161,128,-249,'01.03.2023 39,68');" onmouseout="hh();" /><rect x="158" y="-158" width="6" height="158" style="fill:#0080C0;" onmouseover="sh(161,128,-249,'01.03.2023 39,68');" onmouseout="hh();" /><rect x="167" y="-243" width="6" height="243" style="fill:transparent;" onmouseover="sh(170,128,-249,'01.04.2023 40,53');" onmouseout="hh();" /><rect x="167" y="-169" width="6" height="169" style="fill:#0080C0;" onmouseover="sh(170,128,-249,'01.04.2023 40,53');" onmouseout="hh();" /><rect x="176" y="-243" width="6" height="243" style="fill:transparent;" onmouseover="sh(179,128,-249,'01.05.2023 40,60');" onmouseout="hh();" /><rect x="176" y="-170" width="6" height="170" style="fill:#0080C0;" onmouseover="sh(179,128,-249,'01.05.2023 40,60');" onmouseout="hh();" /><rect x="185" y="-243" width="6" height="243" style="fill:transparent;" onmouseover="sh(188,128,-249,'01.06.2023 42,88');" onmouseout="hh();" /><rect x="185" y="-201" width="6" height="201" style="fill:#0080C0;" onmouseover="sh(188,128,-249,'01.06.2023 42,88');" onmouseout="hh();" />
<line x1="-6" y1="0" x2="198" y2="0" class="axes" /><line x1="0" y1="-259" x2="0" y2="0" class="axes" /><text x="-2" y="-263" style="text-anchor:end;">грн.</text>
<use xlink:href="#hintbox" id="usebox" x="0" y="0" style="visibility:hidden;" />
</svg>
