<?xml version="1.0" encoding="UTF-8" standalone="no"?>
<!DOCTYPE svg PUBLIC "-//W3C//DTD SVG 1.1//EN" "http://www.w3.org/Graphics/SVG/1.1/DTD/svg11.dtd">
<svg version="1.1" xmlns="http://www.w3.org/2000/svg" xmlns:xlink="http://www.w3.org/1999/xlink" xmlns:ev="http://www.w3.org/2001/xml-events" width="705" height="331" viewBox="-48 -273 705 331" preserveAspectRatio="none">
<style type="text/css"><![CDATA[
line { stroke-width:1px; }
line.axes { stroke:#505050; }
line.grid { stroke:#D8D8D8; }
rect.bg { fill:#FFFFFF; }
text { font-family:arial,sans-serif; font-size:12px; fill:#000000; }
]]></style>
<defs>
<g id="hintbox"><rect x="0" y="0" width="77" height="34" style="stroke:#505050; stroke-width:1px; fill:rgba(255,255,255,0.87);" /><text id="hint0" x="4" y="14"> </text><text x="7" y="28"></text><text id="hint1" x="73" y="28" style="text-anchor:end;"> </text></g>
<g id="hintline"><line x1="0" y1="-243" x2="0" y2="0" class="axes" style="stroke-dasharray:2 1" /></g>
</defs>
<script><![CDATA[
function shb(x,y,dat) {
ar=dat.split(' '); for (i=0; i<ar.length; ++i) { if (i&&ar[i]) ar[i]+=' грн.'; h=document.getElementById('hint'+i); h.textContent=ar[i]; }
u=document.getElementById('usebox'); u.setAttribute('x',x); u.setAttribute('y',y); u.setAttribute('style','visibility:visible;'); }
function hhb() { u=document.getElementById('usebox'); u.setAttribute('style','visibility:hidden;'); u.setAttribute('x','0'); u.setAttribute('y','0'); }
function shl(x) { u=document.getElementById('useline'); u.setAttribute('x',x); u.setAttribute('style','visibility:visible;'); }
function hhl() { u=document.getElementById('useline'); u.setAttribute('style','visibility:hidden;'); u.setAttribute('x','0'); }
function sh(xl,xb,y,dat) { shl(xl); shb(xb,y,dat); }
function hh() { hhb(); hhl(); }
]]></script>
<rect x="-48" y="-273" width="705" height="331" class="bg" />
<line x1="17" y1="0" x2="17" y2="4" class="axes" /><text x="22" y="8" transform="rotate(-90,22,8)" style="text-anchor:end;">04.2017</text><line x1="44" y1="0" x2="44" y2="4" class="axes" /><text x="49" y="8" transform="rotate(-90,49,8)" style="text-anchor:end;">07.2017</text><line x1="71" y1="0" x2="71" y2="4" class="axes" /><text x="76" y="8" transform="rotate(-90,76,8)" style="text-anchor:end;">10.2017</text><line x1="98" y1="0" x2="98" y2="4" class="axes" /><text x="103" y="8" transform="rotate(-90,103,8)" style="text-anchor:end;">01.2018</text><line x1="125" y1="0" x2="125" y2="4" class="axes" /><text x="130" y="8" transform="rotate(-90,130,8)" style="text-anchor:end;">04.2018</text><line x1="152" y1="0" x2="152" y2="4" class="axes" /><text x="157" y="8" transform="rotate(-90,157,8)" style="text-anchor:end;">07.2018</text><line x1="179" y1="0" x2="179" y2="4" class="axes" /><text x="184" y="8" transform="rotate(-90,184,8)" style="text-anchor:end;">10.2018</text><line x1="215" y1="0" x2="215" y2="4" class="axes" /><text x="220" y="8" transform="rotate(-90,220,8)" style="text-anchor:end;">07.2019</text><line x1="242" y1="0" x2="242" y2="4" class="axes" /><text x="247" y="8" transform="rotate(-90,247,8)" style="text-anchor:end;">10.2019</text><line x1="269" y1="0" x2="269" y2="4" class="axes" /><text x="274" y="8" transform="rotate(-90,274,8)" style="text-anchor:end;">01.2020</text><line x1="296" y1="0" x2="296" y2="4" class="axes" /><text x="301" y="8" transform="rotate(-90,301,8)" style="text-anchor:end;">04.2020</text><line x1="323" y1="0" x2="323" y2="4" class="axes" /><text x="328" y="8" transform="rotate(-90,328,8)" style="text-anchor:end;">07.2020</text><line x1="350" y1="0" x2="350" y2="4" class="axes" /><text x="355" y="8" transform="rotate(-90,355,8)" style="text-anchor:end;">10.2020</text><line x1="377" y1="0" x2="377" y2="4" class="axes" /><text x="382" y="8" transform="rotate(-90,382,8)" style="text-anchor:end;">01.2021</text><line x1="404" y1="0" x2="404" y2="4" class="axes" /><text x="409" y="8" transform="rotate(-90,409,8)" style="text-anchor:end;">04.2021</text><line x1="431" y1="0" x2="431" y2="4" class="axes" /><text x="436" y="8" transform="rotate(-90,436,8)" style="text-anchor:end;">07.2021</text><line x1="458" y1="0" x2="458" y2="4" class="axes" /><text x="463" y="8" transform="rotate(-90,463,8)" style="text-anchor:end;">10.2021</text><line x1="485" y1="0" x2="485" y2="4" class="axes" /><text x="490" y="8" transform="rotate(-90,490,8)" style="text-anchor:end;">01.2022</text><line x1="512" y1="0" x2="512" y2="4" class="axes" /><text x="517" y="8" transform="rotate(-90,517,8)" style="text-anchor:end;">04.2022</text><line x1="539" y1="0" x2="539" y2="4" class="axes" /><text x="544" y="8" transform="rotate(-90,544,8)" style="text-anchor:end;">07.2022</text><line x1="566" y1="0" x2="566" y2="4" class="axes" /><text x="571" y="8" transform="rotate(-90,571,8)" style="text-anchor:end;">10.2022</text><line x1="593" y1="0" x2="593" y2="4" class="axes" /><text x="598" y="8" transform="rotate(-90,598,8)" style="text-anchor:end;">01.2023</text><line x1="620" y1="0" x2="620" y2="4" class="axes" /><text x="625" y="8" transform="rotate(-90,625,8)" style="text-anchor:end;">04.2023</text>
<line x1="0" y1="-27" x2="645" y2="-27" class="grid" /><line x1="0" y1="-27" x2="-4" y2="-27" class="axes" /><text x="-8" y="-23" style="text-anchor:end;">10</text><line x1="0" y1="-54" x2="645" y2="-54" class="grid" /><line x1="0" y1="-54" x2="-4" y2="-54" class="axes" /><text x="-8" y="-50" style="text-anchor:end;">15</text><line x1="0" y1="-81" x2="645" y2="-81" class="grid" /><line x1="0" y1="-81" x2="-4" y2="-81" class="axes" /><text x="-8" y="-77" style="text-anchor:end;">20</text><line x1="0" y1="-108" x2="645" y2="-108" class="grid" /><line x1="0" y1="-108" x2="-4" y2="-108" class="axes" /><text x="-8" y="-104" style="text-anchor:end;">25</text><line x1="0" y1="-135" x2="645" y2="-135" class="grid" /><line x1="0" y1="-135" x2="-4" y2="-135" class="axes" /><text x="-8" y="-131" style="text-anchor:end;">30</text><line x1="0" y1="-162" x2="645" y2="-162" class="grid" /><line x1="0" y1="-162" x2="-4" y2="-162" class="axes" /><text x="-8" y="-158" style="text-anchor:end;">35</text><line x1="0" y1="-189" x2="645" y2="-189" class="grid" /><line x1="0" y1="-189" x2="-4" y2="-189" class="axes" /><text x="-8" y="-185" style="text-anchor:end;">40</text><line x1="0" y1="-216" x2="645" y2="-216" class="grid" /><line x1="0" y1="-216" x2="-4" y2="-216" class="axes" /><text x="-8" y="-212" style="text-anchor:end;">45</text><line x1="0" y1="-243" x2="645" y2="-243" class="grid" /><line x1="0" y1="-243" x2="-4" y2="-243" class="axes" /><text x="-8" y="-239" style="text-anchor:end;">50</text>
<use xlink:href="#hintline" id="useline" x="0" style="visibility:hidden;" />
<rect x="5" y="-243" width="6" height="243" style="fill:transparent;" onmouseover="sh(8,8,-249,'01.03.2017 20,26');" onmouseout="hh();" /><rect x="5" y="-82" width="6" height="82" style="fill:#0080C0;" onmouseover="sh(8,8,-249,'01.03.2017 20,26');" onmouseout="hh();" /><rect x="14" y="-243" width="6" height="243" style="fill:transparent;" onmouseover="sh(17,17,-249,'01.04.2017 20,22');" onmouseout="hh();" /><rect x="14" y="-82" width="6" height="82" style="fill:#0080C0;" onmouseover="sh(17,17,-249,'01.04.2017 20,22');" onmouseout="hh();" /><rect x="23" y="-243" width="6" height="243" style="fill:transparent;" onmouseover="sh(26,26,-249,'01.05.2017 19,95');" onmouseout="hh();" /><rect x="23" y="-81" width="6" height="81" style="fill:#0080C0;" onmouseover="sh(26,26,-249,'01.05.2017 19,95');" onmouseout="hh();" /><rect x="32" y="-243" width="6" height="243" style="fill:transparent;" onmouseover="sh(35,35,-249,'01.06.2017 21,04');" onmouseout="hh();" /><rect x="32" y="-87" width="6" height="87" style="fill:#0080C0;" onmouseover="sh(35,35,-249,'01.06.2017 21,04');" onmouseout="hh();" /><rect x="41" y="-243" width="6" height="243" style="fill:transparent;" onmouseover="sh(44,44,-249,'01.07.2017 21,03');" onmouseout="hh();" /><rect x="41" y="-87" width="6" height="87" style="fill:#0080C0;" onmouseover="sh(44,44,-249,'01.07.2017 21,03');" onmouseout="hh();" /><rect x="50" y="-243" width="6" height="243" style="fill:transparent;" onmouseover="sh(53,53,-249,'01.08.2017 21,56');" onmouseout="hh();" /><rect x="50" y="-89" width="6" height="89" style="fill:#0080C0;" onmouseover="sh(53,53,-249,'01.08.2017 21,56');" onmouseout="hh();" /><rect x="59" y="-243" width="6" height="243" style="fill:transparent;" onmouseover="sh(62,62,-249,'01.09.2017 21,81');" onmouseout="hh();" /><rect x="59" y="-91" width="6" height="91" style="fill:#0080C0;" onmouseover="sh(62,62,-249,'01.09.2017 21,81');" onmouseout="hh();" /><rect x="68" y="-243" width="6" height="243" style="fill:transparent;" onmouseover="sh(71,71,-249,'01.10.2017 22,93');" onmouseout="hh();" /><rect x="68" y="-97" width="6" height="97" style="fill:#0080C0;" onmouseover="sh(71,71,-249,'01.10.2017 22,93');" onmouseout="hh();" /><rect x="77" y="-243" width="6" height="243" style="fill:transparent;" onmouseover="sh(80,80,-249,'01.11.2017 23,16');" onmouseout="hh();" /><rect x="77" y="-98" width="6" height="98" style="fill:#0080C0;" onmouseover="sh(80,80,-249,'01.11.2017 23,16');" onmouseout="hh();" /><rect x="86" y="-243" width="6" height="243" style="fill:transparent;" onmouseover="sh(89,89,-249,'01.12.2017 24,82');" onmouseout="hh();" /><rect x="86" y="-107" width="6" height="107" style="fill:#0080C0;" onmouseover="sh(89,89,-249,'01.12.2017 24,82');" onmouseout="hh();" /><rect x="95" y="-243" width="6" height="243" style="fill:transparent;" onmouseover="sh(98,98,-249,'01.01.2018 24,23');" onmouseout="hh();" /><rect x="95" y="-104" width="6" height="104" style="fill:#0080C0;" onmouseover="sh(98,98,-249,'01.01.2018 24,23');" onmouseout="hh();" /><rect x="104" y="-243" width="6" height="243" style="fill:transparent;" onmouseover="sh(107,107,-249,'01.02.2018 25,06');" onmouseout="hh();" /><rect x="104" y="-108" width="6" height="108" style="fill:#0080C0;" onmouseover="sh(107,107,-249,'01.02.2018 25,06');" onmouseout="hh();" /><rect x="113" y="-243" width="6" height="243" style="fill:transparent;" onmouseover="sh(116,116,-249,'01.03.2018 25,51');" onmouseout="hh();" /><rect x="113" y="-111" width="6" height="111" style="fill:#0080C0;" onmouseover="sh(116,116,-249,'01.03.2018 25,51');" onmouseout="hh();" /><rect x="122" y="-243" width="6" height="243" style="fill:transparent;" onmouseover="sh(125,125,-249,'01.04.2018 25,64');" onmouseout="hh();" /><rect x="122" y="-111" width="6" height="111" style="fill:#0080C0;" onmouseover="sh(125,125,-249,'01.04.2018 25,64');" onmouseout="hh();" /><rect x="131" y="-243" width="6" height="243" style="fill:transparent;" onmouseover="sh(134,134,-249,'01.05.2018 25,06');" onmouseout="hh();" /><rect x="131" y="-108" width="6" height="108" style="fill:#0080C0;" onmouseover="sh(134,134,-249,'01.05.2018 25,06');" onmouseout="hh();" /><rect x="140" y="-243" width="6" height="243" style="fill:transparent;" onmouseover="sh(143,143,-249,'01.06.2018 26,39');" onmouseout="hh();" /><rect x="140" y="-116" width="6" height="116" style="fill:#0080C0;" onmouseover="sh(143,143,-249,'01.06.2018 26,39');" onmouseout="hh();" /><rect x="149" y="-243" width="6" height="243" style="fill:transparent;" onmouseover="sh(152,152,-249,'01.07.2018 25,67');" onmouseout="hh();" /><rect x="149" y="-112" width="6" height="112" style="fill:#0080C0;" onmouseover="sh(152,152,-249,'01.07.2018 25,67');" onmouseout="hh();" /><rect x="158" y="-243" width="6" height="243" style="fill:transparent;" onmouseover="sh(161,161,-249,'01.08.2018 25,63');" onmouseout="hh();" /><rect x="158" y="-111" width="6" height="111" style="fill:#0080C0;" onmouseover="sh(161,161,-249,'01.08.2018 25,63');" onmouseout="hh();" /><rect x="167" y="-243" width="6" height="243" style="fill:transparent;" onmouseover="sh(170,170,-249,'01.09.2018 26,38');" onmouseout="hh();" /><rect x="167" y="-115" width="6" height="115" style="fill:#0080C0;" onmouseover="sh(170,170,-249,'01.09.2018 26,38');" onmouseout="hh();" /><rect x="176" y="-243" width="6" height="243" style="fill:transparent;" onmouseover="sh(179,179,-249,'01.10.2018 26,93');" onmouseout="hh();" /><rect x="176" y="-118" width="6" height="118" style="fill:#0080C0;" onmouseover="sh(179,179,-249,'01.10.2018 26,93');" onmouseout="hh();" /><rect x="185" y="-243" width="6" height="243" style="fill:transparent;" onmouseover="sh(188,188,-249,'01.11.2018 27,60');" onmouseout="hh();" /><rect x="185" y="-122" width="6" height="122" style="fill:#0080C0;" onmouseover="sh(188,188,-249,'01.11.2018 27,60');" onmouseout="hh();" /><rect x="194" y="-243" width="6" height="243" style="fill:transparent;" onmouseover="sh(197,197,-249,'01.05.2019 27,70');" onmouseout="hh();" /><rect x="194" y="-123" width="6" height="123" style="fill:#0080C0;" onmouseover="sh(197,197,-249,'01.05.2019 27,70');" onmouseout="hh();" /><rect x="203" y="-243" width="6" height="243" style="fill:transparent;" onmouseover="sh(206,206,-249,'01.06.2019 24,57');" onmouseout="hh();" /><rect x="203" y="-106" width="6" height="106" style="fill:#0080C0;" onmouseover="sh(206,206,-249,'01.06.2019 24,57');" onmouseout="hh();" /><rect x="212" y="-243" width="6" height="243" style="fill:transparent;" onmouseover="sh(215,215,-249,'01.07.2019 25,34');" onmouseout="hh();" /><rect x="212" y="-110" width="6" height="110" style="fill:#0080C0;" onmouseover="sh(215,215,-249,'01.07.2019 25,34');" onmouseout="hh();" /><rect x="221" y="-243" width="6" height="243" style="fill:transparent;" onmouseover="sh(224,224,-249,'01.08.2019 25,18');" onmouseout="hh();" /><rect x="221" y="-109" width="6" height="109" style="fill:#0080C0;" onmouseover="sh(224,224,-249,'01.08.2019 25,18');" onmouseout="hh();" /><rect x="230" y="-243" width="6" height="243" style="fill:transparent;" onmouseover="sh(233,233,-249,'01.09.2019 24,61');" onmouseout="hh();" /><rect x="230" y="-106" width="6" height="106" style="fill:#0080C0;" onmouseover="sh(233,233,-249,'01.09.2019 24,61');" onmouseout="hh();" /><rect x="239" y="-243" width="6" height="243" style="fill:transparent;" onmouseover="sh(242,242,-249,'01.10.2019 24,05');" onmouseout="hh();" /><rect x="239" y="-103" width="6" height="103" style="fill:#0080C0;" onmouseover="sh(242,242,-249,'01.10.2019 24,05');" onmouseout="hh();" /><rect x="248" y="-243" width="6" height="243" style="fill:transparent;" onmouseover="sh(251,251,-249,'01.11.2019 24,26');" onmouseout="hh();" /><rect x="248" y="-104" width="6" height="104" style="fill:#0080C0;" onmouseover="sh(251,251,-249,'01.11.2019 24,26');" onmouseout="hh();" /><rect x="257" y="-243" width="6" height="243" style="fill:transparent;" onmouseover="sh(260,260,-249,'01.12.2019 24,48');" onmouseout="hh();" /><rect x="257" y="-105" width="6" height="105" style="fill:#0080C0;" onmouseover="sh(260,260,-249,'01.12.2019 24,48');" onmouseout="hh();" /><rect x="266" y="-243" width="6" height="243" style="fill:transparent;" onmouseover="sh(269,269,-249,'01.01.2020 26,46');" onmouseout="hh();" /><rect x="266" y="-116" width="6" height="116" style="fill:#0080C0;" onmouseover="sh(269,269,-249,'01.01.2020 26,46');" onmouseout="hh();" /><rect x="275" y="-243" width="6" height="243" style="fill:transparent;" onmouseover="sh(278,278,-249,'01.02.2020 24,24');" onmouseout="hh();" /><rect x="275" y="-104" width="6" height="104" style="fill:#0080C0;" onmouseover="sh(278,278,-249,'01.02.2020 24,24');" onmouseout="hh();" /><rect x="284" y="-243" width="6" height="243" style="fill:transparent;" onmouseover="sh(287,287,-249,'01.03.2020 25,44');" onmouseout="hh();" /><rect x="284" y="-110" width="6" height="110" style="fill:#0080C0;" onmouseover="sh(287,287,-249,'01.03.2020 25,44');" onmouseout="hh();" /><rect x="293" y="-243" width="6" height="243" style="fill:transparent;" onmouseover="sh(296,296,-249,'01.04.2020 24,05');" onmouseout="hh();" /><rect x="293" y="-103" width="6" height="103" style="fill:#0080C0;" onmouseover="sh(296,296,-249,'01.04.2020 24,05');" onmouseout="hh();" /><rect x="302" y="-243" width="6" height="243" style="fill:transparent;" onmouseover="sh(305,305,-249,'01.05.2020 24,46');" onmouseout="hh();" /><rect x="302" y="-105" width="6" height="105" style="fill:#0080C0;" onmouseover="sh(305,305,-249,'01.05.2020 24,46');" onmouseout="hh();" /><rect x="311" y="-243" width="6" height="243" style="fill:transparent;" onmouseover="sh(314,314,-249,'01.06.2020 25,39');" onmouseout="hh();" /><rect x="311" y="-110" width="6" height="110" style="fill:#0080C0;" onmouseover="sh(314,314,-249,'01.06.2020 25,39');" onmouseout="hh();" /><rect x="320" y="-243" width="6" height="243" style="fill:transparent;" onmouseover="sh(323,323,-249,'01.07.2020 24,53');" onmouseout="hh();" /><rect x="320" y="-105" width="6" height="105" style="fill:#0080C0;" onmouseover="sh(323,323,-249,'01.07.2020 24,53');" onmouseout="hh();" /><rect x="329" y="-243" width="6" height="243" style="fill:transparent;" onmouseover="sh(332,332,-249,'01.08.2020 24,07');" onmouseout="hh();" /><rect x="329" y="-103" width="6" height="103" style="fill:#0080C0;" onmouseover="sh(332,332,-249,'01.08.2020 24,07');" onmouseout="hh();" /><rect x="338" y="-243" width="6" height="243" style="fill:transparent;" onmouseover="sh(341,341,-249,'01.09.2020 25,38');" onmouseout="hh();" /><rect x="338" y="-110" width="6" height="110" style="fill:#0080C0;" onmouseover="sh(341,341,-249,'01.09.2020 25,38');" onmouseout="hh();" /><rect x="347" y="-243" width="6" height="243" style="fill:transparent;" onmouseover="sh(350,350,-249,'01.10.2020 26,76');" onmouseout="hh();" /><rect x="347" y="-117" width="6" height="117" style="fill:#0080C0;" onmouseover="sh(350,350,-249,'01.10.2020 26,76');" onmouseout="hh();" /><rect x="356" y="-243" width="6" height="243" style="fill:transparent;" onmouseover="sh(359,359,-249,'01.11.2020 26,69');" onmouseout="hh();" /><rect x="356" y="-117" width="6" height="117" style="fill:#0080C0;" onmouseover="sh(359,359,-249,'01.11.2020 26,69');" onmouseout="hh();" /><rect x="365" y="-243" width="6" height="243" style="fill:transparent;" onmouseover="sh(368,368,-249,'01.12.2020 26,28');" onmouseout="hh();" /><rect x="365" y="-115" width="6" height="115" style="fill:#0080C0;" onmouseover="sh(368,368,-249,'01.12.2020 26,28');" onmouseout="hh();" /><rect x="374" y="-243" width="6" height="243" style="fill:transparent;" onmouseover="sh(377,377,-249,'01.01.2021 26,61');" onmouseout="hh();" /><rect x="374" y="-117" width="6" height="117" style="fill:#0080C0;" onmouseover="sh(377,377,-249,'01.01.2021 26,61');" onmouseout="hh();" /><rect x="383" y="-243" width="6" height="243" style="fill:transparent;" onmouseover="sh(386,386,-249,'01.02.2021 26,95');" onmouseout="hh();" /><rect x="383" y="-119" width="6" height="119" style="fill:#0080C0;" onmouseover="sh(386,386,-249,'01.02.2021 26,95');" onmouseout="hh();" /><rect x="392" y="-243" width="6" height="243" style="fill:transparent;" onmouseover="sh(395,395,-249,'01.03.2021 26,20');" onmouseout="hh();" /><rect x="392" y="-114" width="6" height="114" style="fill:#0080C0;" onmouseover="sh(395,395,-249,'01.03.2021 26,20');" onmouseout="hh();" /><rect x="401" y="-243" width="6" height="243" style="fill:transparent;" onmouseover="sh(404,404,-249,'01.04.2021 27,56');" onmouseout="hh();" /><rect x="401" y="-122" width="6" height="122" style="fill:#0080C0;" onmouseover="sh(404,404,-249,'01.04.2021 27,56');" onmouseout="hh();" /><rect x="410" y="-243" width="6" height="243" style="fill:transparent;" onmouseover="sh(413,413,-249,'01.05.2021 26,70');" onmouseout="hh();" /><rect x="410" y="-117" width="6" height="117" style="fill:#0080C0;" onmouseover="sh(413,413,-249,'01.05.2021 26,70');" onmouseout="hh();" /><rect x="419" y="-243" width="6" height="243" style="fill:transparent;" onmouseover="sh(422,422,-249,'01.06.2021 26,81');" onmouseout="hh();" /><rect x="419" y="-118" width="6" height="118" style="fill:#0080C0;" onmouseover="sh(422,422,-249,'01.06.2021 26,81');" onmouseout="hh();" /><rect x="428" y="-243" width="6" height="243" style="fill:transparent;" onmouseover="sh(431,431,-249,'01.07.2021 26,94');" onmouseout="hh();" /><rect x="428" y="-118" width="6" height="118" style="fill:#0080C0;" onmouseover="sh(431,431,-249,'01.07.2021 26,94');" onmouseout="hh();" /><rect x="437" y="-243" width="6" height="243" style="fill:transparent;" onmouseover="sh(440,440,-249,'01.08.2021 26,69');" onmouseout="hh();" /><rect x="437" y="-117" width="6" height="117" style="fill:#0080C0;" onmouseover="sh(440,440,-249,'01.08.2021 26,69');" onmouseout="hh();" /><rect x="446" y="-243" width="6" height="243" style="fill:transparent;" onmouseover="sh(449,449,-249,'01.09.2021 27,95');" onmouseout="hh();" /><rect x="446" y="-124" width="6" height="124" style="fill:#0080C0;" onmouseover="sh(449,449,-249,'01.09.2021 27,95');" onmouseout="hh();" /><rect x="455" y="-243" width="6" height="243" style="fill:transparent;" onmouseover="sh(458,458,-249,'01.10.2021 29,55');" onmouseout="hh();" /><rect x="455" y="-133" width="6" height="133" style="fill:#0080C0;" onmouseover="sh(458,458,-249,'01.10.2021 29,55');" onmouseout="hh();" /><rect x="464" y="-243" width="6" height="243" style="fill:transparent;" onmouseover="sh(467,467,-249,'01.11.2021 28,11');" onmouseout="hh();" /><rect x="464" y="-125" width="6" height="125" style="fill:#0080C0;" onmouseover="sh(467,467,-249,'01.11.2021 28,11');" onmouseout="hh();" /><rect x="473" y="-243" width="6" height="243" style="fill:transparent;" onmouseover="sh(476,476,-249,'01.12.2021 28,39');" onmouseout="hh();" /><rect x="473" y="-126" width="6" height="126" style="fill:#0080C0;" onmouseover="sh(476,476,-249,'01.12.2021 28,39');" onmouseout="hh();" /><rect x="482" y="-243" width="6" height="243" style="fill:transparent;" onmouseover="sh(485,485,-249,'01.01.2022 29,04');" onmouseout="hh();" /><rect x="482" y="-130" width="6" height="130" style="fill:#0080C0;" onmouseover="sh(485,485,-249,'01.01.2022 29,04');" onmouseout="hh();" /><rect x="491" y="-243" width="6" height="243" style="fill:transparent;" onmouseover="sh(494,494,-249,'01.02.2022 28,53');" onmouseout="hh();" /><rect x="491" y="-127" width="6" height="127" style="fill:#0080C0;" onmouseover="sh(494,494,-249,'01.02.2022 28,53');" onmouseout="hh();" /><rect x="500" y="-243" width="6" height="243" style="fill:transparent;" onmouseover="sh(503,503,-249,'01.03.2022 30,52');" onmouseout="hh();" /><rect x="500" y="-138" width="6" height="138" style="fill:#0080C0;" onmouseover="sh(503,503,-249,'01.03.2022 30,52');" onmouseout="hh();" /><rect x="509" y="-243" width="6" height="243" style="fill:transparent;" onmouseover="sh(512,512,-249,'01.04.2022 34,21');" onmouseout="hh();" /><rect x="509" y="-158" width="6" height="158" style="fill:#0080C0;" onmouseover="sh(512,512,-249,'01.04.2022 34,21');" onmouseout="hh();" /><rect x="518" y="-243" width="6" height="243" style="fill:transparent;" onmouseover="sh(521,521,-249,'01.05.2022 33,15');" onmouseout="hh();" /><rect x="518" y="-152" width="6" height="152" style="fill:#0080C0;" onmouseover="sh(521,521,-249,'01.05.2022 33,15');" onmouseout="hh();" /><rect x="527" y="-243" width="6" height="243" style="fill:transparent;" onmouseover="sh(530,530,-249,'01.06.2022 32,94');" onmouseout="hh();" /><rect x="527" y="-151" width="6" height="151" style="fill:#0080C0;" onmouseover="sh(530,530,-249,'01.06.2022 32,94');" onmouseout="hh();" /><rect x="536" y="-243" width="6" height="243" style="fill:transparent;" onmouseover="sh(539,539,-249,'01.07.2022 33,64');" onmouseout="hh();" /><rect x="536" y="-155" width="6" height="155" style="fill:#0080C0;" onmouseover="sh(539,539,-249,'01.07.2022 33,64');" onmouseout="hh();" /><rect x="545" y="-243" width="6" height="243" style="fill:transparent;" onmouseover="sh(548,548,-249,'01.08.2022 34,94');" onmouseout="hh();" /><rect x="545" y="-162" width="6" height="162" style="fill:#0080C0;" onmouseover="sh(548,548,-249,'01.08.2022 34,94');" onmouseout="hh();" /><rect x="554" y="-243" width="6" height="243" style="fill:transparent;" onmouseover="sh(557,557,-249,'01.09.2022 35,16');" onmouseout="hh();" /><rect x="554" y="-163" width="6" height="163" style="fill:#0080C0;" onmouseover="sh(557,557,-249,'01.09.2022 35,16');" onmouseout="hh();" /><rect x="563" y="-243" width="6" height="243" style="fill:transparent;" onmouseover="sh(566,566,-249,'01.10.2022 36,40');" onmouseout="hh();" /><rect x="563" y="-170" width="6" height="170" style="fill:#0080C0;" onmouseover="sh(566,566,-249,'01.10.2022 36,40');" onmouseout="hh();" /><rect x="572" y="-243" width="6" height="243" style="fill:transparent;" onmouseover="sh(575,575,-249,'01.11.2022 39,11');" onmouseout="hh();" /><rect x="572" y="-184" width="6" height="184" style="fill:#0080C0;" onmouseover="sh(575,575,-249,'01.11.2022 39,11');" onmouseout="hh();" /><rect x="581" y="-243" width="6" height="243" style="fill:transparent;" onmouseover="sh(584,578,-249,'01.12.2022 39,51');" onmouseout="hh();" /><rect x="581" y="-186" width="6" height="186" style="fill:#0080C0;" onmouseover="sh(584,578,-249,'01.12.2022 39,51');" onmouseout="hh();" /><rect x="590" y="-243" width="6" height="243" style="fill:transparent;" onmouseover="sh(593,578,-249,'01.01.2023 40,02');" onmouseout="hh();" /><rect x="590" y="-189" width="6" height="189" style="fill:#0080C0;" onmouseover="sh(593,578,-249,'01.01.2023 40,02');" onmouseout="hh();" /><rect x="599" y="-243" width="6" height="243" style="fill:transparent;" onmouseover="sh(602,578,-249,'01.02.2023 40,03');" onmouseout="hh();" /><rect x="599" y="-189" width="6" height="189" style="fill:#0080C0;" onmouseover="sh(602,578,-249,'01.02.2023 40,03');" onmouseout="hh();" /><rect x="608" y="-243" width="6" height="243" style="fill:transparent;" onmouseover="sh(611,578,-249,'01.03.2023 39,12');" onmouseout="hh();" /><rect x="608" y="-184" width="6" height="184" style="fill:#0080C0;" onmouseover="sh(611,578,-249,'01.03.2023 39,12');" onmouseout="hh();" /><rect x="617" y="-243" width="6" height="243" style="fill:transparent;" onmouseover="sh(620,578,-249,'01.04.2023 39,77');" onmouseout="hh();" /><rect x="617" y="-188" width="6" height="188" style="fill:#0080C0;" onmouseover="sh(620,578,-249,'01.04.2023 39,77');" onmouseout="hh();" /><rect x="626" y="-243" width="6" height="243" style="fill:transparent;" onmouseover="sh(629,578,-249,'01.05.2023 39,11');" onmouseout="hh();" /><rect x="626" y="-184" width="6" height="184" style="fill:#0080C0;" onmouseover="sh(629,578,-249,'01.05.2023 39,11');" onmouseout="hh();" /><rect x="635" y="-243" width="6" height="243" style="fill:transparent;" onmouseover="sh(638,578,-249,'01.06.2023 39,41');" onmouseout="hh();" /><rect x="635" y="-186" width="6" height="186" style="fill:#0080C0;" onmouseover="sh(638,578,-249,'01.06.2023 39,41');" onmouseout="hh();" />
<line x1="-6" y1="0" x2="648" y2="0" class="axes" /><line x1="0" y1="-259" x2="0" y2="0" class="axes" /><text x="-2" y="-263" style="text-anchor:end;">грн.</text>
<use xlink:href="#hintbox" id="usebox" x="0" y="0" style="visibility:hidden;" />
</svg>
