<?xml version="1.0" encoding="UTF-8" standalone="no"?>
<!DOCTYPE svg PUBLIC "-//W3C//DTD SVG 1.1//EN" "http://www.w3.org/Graphics/SVG/1.1/DTD/svg11.dtd">
<svg version="1.1" xmlns="http://www.w3.org/2000/svg" xmlns:xlink="http://www.w3.org/1999/xlink" xmlns:ev="http://www.w3.org/2001/xml-events" width="489" height="330" viewBox="-48 -272 489 330" preserveAspectRatio="none">
<style type="text/css"><![CDATA[
line { stroke-width:1px; }
line.axes { stroke:#505050; }
line.grid { stroke:#D8D8D8; }
rect.bg { fill:#FFFFFF; }
text { font-family:arial,sans-serif; font-size:12px; fill:#000000; }
]]></style>
<defs>
<g id="hintbox"><rect x="0" y="0" width="77" height="34" style="stroke:#505050; stroke-width:1px; fill:rgba(255,255,255,0.87);" /><text id="hint0" x="4" y="14"> </text><text x="7" y="28"></text><text id="hint1" x="73" y="28" style="text-anchor:end;"> </text></g>
<g id="hintline"><line x1="0" y1="-240" x2="0" y2="0" class="axes" style="stroke-dasharray:2 1" /></g>
</defs>
<script><![CDATA[
function shb(x,y,dat) {
ar=dat.split(' '); for (i=0; i<ar.length; ++i) { if (i&&ar[i]) ar[i]+=' грн.'; h=document.getElementById('hint'+i); h.textContent=ar[i]; }
u=document.getElementById('usebox'); u.setAttribute('x',x); u.setAttribute('y',y); u.setAttribute('style','visibility:visible;'); }
function hhb() { u=document.getElementById('usebox'); u.setAttribute('style','visibility:hidden;'); u.setAttribute('x','0'); u.setAttribute('y','0'); }
function shl(x) { u=document.getElementById('useline'); u.setAttribute('x',x); u.setAttribute('style','visibility:visible;'); }
function hhl() { u=document.getElementById('useline'); u.setAttribute('style','visibility:hidden;'); u.setAttribute('x','0'); }
function sh(xl,xb,y,dat) { shl(xl); shb(xb,y,dat); }
function hh() { hhb(); hhl(); }
]]></script>
<rect x="-48" y="-272" width="489" height="330" class="bg" />
<line x1="26" y1="0" x2="26" y2="4" class="axes" /><text x="31" y="8" transform="rotate(-90,31,8)" style="text-anchor:end;">10.2019</text><line x1="53" y1="0" x2="53" y2="4" class="axes" /><text x="58" y="8" transform="rotate(-90,58,8)" style="text-anchor:end;">01.2020</text><line x1="80" y1="0" x2="80" y2="4" class="axes" /><text x="85" y="8" transform="rotate(-90,85,8)" style="text-anchor:end;">04.2020</text><line x1="107" y1="0" x2="107" y2="4" class="axes" /><text x="112" y="8" transform="rotate(-90,112,8)" style="text-anchor:end;">07.2020</text><line x1="134" y1="0" x2="134" y2="4" class="axes" /><text x="139" y="8" transform="rotate(-90,139,8)" style="text-anchor:end;">10.2020</text><line x1="161" y1="0" x2="161" y2="4" class="axes" /><text x="166" y="8" transform="rotate(-90,166,8)" style="text-anchor:end;">01.2021</text><line x1="188" y1="0" x2="188" y2="4" class="axes" /><text x="193" y="8" transform="rotate(-90,193,8)" style="text-anchor:end;">04.2021</text><line x1="215" y1="0" x2="215" y2="4" class="axes" /><text x="220" y="8" transform="rotate(-90,220,8)" style="text-anchor:end;">07.2021</text><line x1="242" y1="0" x2="242" y2="4" class="axes" /><text x="247" y="8" transform="rotate(-90,247,8)" style="text-anchor:end;">10.2021</text><line x1="269" y1="0" x2="269" y2="4" class="axes" /><text x="274" y="8" transform="rotate(-90,274,8)" style="text-anchor:end;">01.2022</text><line x1="296" y1="0" x2="296" y2="4" class="axes" /><text x="301" y="8" transform="rotate(-90,301,8)" style="text-anchor:end;">04.2022</text><line x1="323" y1="0" x2="323" y2="4" class="axes" /><text x="328" y="8" transform="rotate(-90,328,8)" style="text-anchor:end;">07.2022</text><line x1="350" y1="0" x2="350" y2="4" class="axes" /><text x="355" y="8" transform="rotate(-90,355,8)" style="text-anchor:end;">10.2022</text><line x1="377" y1="0" x2="377" y2="4" class="axes" /><text x="382" y="8" transform="rotate(-90,382,8)" style="text-anchor:end;">01.2023</text><line x1="404" y1="0" x2="404" y2="4" class="axes" /><text x="409" y="8" transform="rotate(-90,409,8)" style="text-anchor:end;">04.2023</text>
<line x1="0" y1="-20" x2="429" y2="-20" class="grid" /><line x1="0" y1="-20" x2="-4" y2="-20" class="axes" /><text x="-8" y="-16" style="text-anchor:end;">14</text><line x1="0" y1="-40" x2="429" y2="-40" class="grid" /><line x1="0" y1="-40" x2="-4" y2="-40" class="axes" /><text x="-8" y="-36" style="text-anchor:end;">15</text><line x1="0" y1="-60" x2="429" y2="-60" class="grid" /><line x1="0" y1="-60" x2="-4" y2="-60" class="axes" /><text x="-8" y="-56" style="text-anchor:end;">16</text><line x1="0" y1="-80" x2="429" y2="-80" class="grid" /><line x1="0" y1="-80" x2="-4" y2="-80" class="axes" /><text x="-8" y="-76" style="text-anchor:end;">17</text><line x1="0" y1="-100" x2="429" y2="-100" class="grid" /><line x1="0" y1="-100" x2="-4" y2="-100" class="axes" /><text x="-8" y="-96" style="text-anchor:end;">18</text><line x1="0" y1="-120" x2="429" y2="-120" class="grid" /><line x1="0" y1="-120" x2="-4" y2="-120" class="axes" /><text x="-8" y="-116" style="text-anchor:end;">19</text><line x1="0" y1="-140" x2="429" y2="-140" class="grid" /><line x1="0" y1="-140" x2="-4" y2="-140" class="axes" /><text x="-8" y="-136" style="text-anchor:end;">20</text><line x1="0" y1="-160" x2="429" y2="-160" class="grid" /><line x1="0" y1="-160" x2="-4" y2="-160" class="axes" /><text x="-8" y="-156" style="text-anchor:end;">21</text><line x1="0" y1="-180" x2="429" y2="-180" class="grid" /><line x1="0" y1="-180" x2="-4" y2="-180" class="axes" /><text x="-8" y="-176" style="text-anchor:end;">22</text><line x1="0" y1="-200" x2="429" y2="-200" class="grid" /><line x1="0" y1="-200" x2="-4" y2="-200" class="axes" /><text x="-8" y="-196" style="text-anchor:end;">23</text><line x1="0" y1="-220" x2="429" y2="-220" class="grid" /><line x1="0" y1="-220" x2="-4" y2="-220" class="axes" /><text x="-8" y="-216" style="text-anchor:end;">24</text><line x1="0" y1="-240" x2="429" y2="-240" class="grid" /><line x1="0" y1="-240" x2="-4" y2="-240" class="axes" /><text x="-8" y="-236" style="text-anchor:end;">25</text>
<use xlink:href="#hintline" id="useline" x="0" style="visibility:hidden;" />
<rect x="5" y="-240" width="6" height="240" style="fill:transparent;" onmouseover="sh(8,8,-246,'01.08.2019 16,56');" onmouseout="hh();" /><rect x="5" y="-71" width="6" height="71" style="fill:#0080C0;" onmouseover="sh(8,8,-246,'01.08.2019 16,56');" onmouseout="hh();" /><rect x="14" y="-240" width="6" height="240" style="fill:transparent;" onmouseover="sh(17,17,-246,'01.09.2019 15,79');" onmouseout="hh();" /><rect x="14" y="-56" width="6" height="56" style="fill:#0080C0;" onmouseover="sh(17,17,-246,'01.09.2019 15,79');" onmouseout="hh();" /><rect x="23" y="-240" width="6" height="240" style="fill:transparent;" onmouseover="sh(26,26,-246,'01.10.2019 16,38');" onmouseout="hh();" /><rect x="23" y="-68" width="6" height="68" style="fill:#0080C0;" onmouseover="sh(26,26,-246,'01.10.2019 16,38');" onmouseout="hh();" /><rect x="32" y="-240" width="6" height="240" style="fill:transparent;" onmouseover="sh(35,35,-246,'01.11.2019 16,34');" onmouseout="hh();" /><rect x="32" y="-67" width="6" height="67" style="fill:#0080C0;" onmouseover="sh(35,35,-246,'01.11.2019 16,34');" onmouseout="hh();" /><rect x="41" y="-240" width="6" height="240" style="fill:transparent;" onmouseover="sh(44,44,-246,'01.12.2019 16,25');" onmouseout="hh();" /><rect x="41" y="-65" width="6" height="65" style="fill:#0080C0;" onmouseover="sh(44,44,-246,'01.12.2019 16,25');" onmouseout="hh();" /><rect x="50" y="-240" width="6" height="240" style="fill:transparent;" onmouseover="sh(53,53,-246,'01.01.2020 16,75');" onmouseout="hh();" /><rect x="50" y="-75" width="6" height="75" style="fill:#0080C0;" onmouseover="sh(53,53,-246,'01.01.2020 16,75');" onmouseout="hh();" /><rect x="59" y="-240" width="6" height="240" style="fill:transparent;" onmouseover="sh(62,62,-246,'01.02.2020 16,84');" onmouseout="hh();" /><rect x="59" y="-77" width="6" height="77" style="fill:#0080C0;" onmouseover="sh(62,62,-246,'01.02.2020 16,84');" onmouseout="hh();" /><rect x="68" y="-240" width="6" height="240" style="fill:transparent;" onmouseover="sh(71,71,-246,'01.03.2020 16,71');" onmouseout="hh();" /><rect x="68" y="-74" width="6" height="74" style="fill:#0080C0;" onmouseover="sh(71,71,-246,'01.03.2020 16,71');" onmouseout="hh();" /><rect x="77" y="-240" width="6" height="240" style="fill:transparent;" onmouseover="sh(80,80,-246,'01.04.2020 17,64');" onmouseout="hh();" /><rect x="77" y="-93" width="6" height="93" style="fill:#0080C0;" onmouseover="sh(80,80,-246,'01.04.2020 17,64');" onmouseout="hh();" /><rect x="86" y="-240" width="6" height="240" style="fill:transparent;" onmouseover="sh(89,89,-246,'01.05.2020 17,22');" onmouseout="hh();" /><rect x="86" y="-84" width="6" height="84" style="fill:#0080C0;" onmouseover="sh(89,89,-246,'01.05.2020 17,22');" onmouseout="hh();" /><rect x="95" y="-240" width="6" height="240" style="fill:transparent;" onmouseover="sh(98,98,-246,'01.06.2020 17,33');" onmouseout="hh();" /><rect x="95" y="-87" width="6" height="87" style="fill:#0080C0;" onmouseover="sh(98,98,-246,'01.06.2020 17,33');" onmouseout="hh();" /><rect x="104" y="-240" width="6" height="240" style="fill:transparent;" onmouseover="sh(107,107,-246,'01.07.2020 17,52');" onmouseout="hh();" /><rect x="104" y="-90" width="6" height="90" style="fill:#0080C0;" onmouseover="sh(107,107,-246,'01.07.2020 17,52');" onmouseout="hh();" /><rect x="113" y="-240" width="6" height="240" style="fill:transparent;" onmouseover="sh(116,116,-246,'01.08.2020 17,78');" onmouseout="hh();" /><rect x="113" y="-96" width="6" height="96" style="fill:#0080C0;" onmouseover="sh(116,116,-246,'01.08.2020 17,78');" onmouseout="hh();" /><rect x="122" y="-240" width="6" height="240" style="fill:transparent;" onmouseover="sh(125,125,-246,'01.09.2020 17,27');" onmouseout="hh();" /><rect x="122" y="-85" width="6" height="85" style="fill:#0080C0;" onmouseover="sh(125,125,-246,'01.09.2020 17,27');" onmouseout="hh();" /><rect x="131" y="-240" width="6" height="240" style="fill:transparent;" onmouseover="sh(134,134,-246,'01.10.2020 17,93');" onmouseout="hh();" /><rect x="131" y="-99" width="6" height="99" style="fill:#0080C0;" onmouseover="sh(134,134,-246,'01.10.2020 17,93');" onmouseout="hh();" /><rect x="140" y="-240" width="6" height="240" style="fill:transparent;" onmouseover="sh(143,143,-246,'01.11.2020 16,86');" onmouseout="hh();" /><rect x="140" y="-77" width="6" height="77" style="fill:#0080C0;" onmouseover="sh(143,143,-246,'01.11.2020 16,86');" onmouseout="hh();" /><rect x="149" y="-240" width="6" height="240" style="fill:transparent;" onmouseover="sh(152,152,-246,'01.12.2020 17,94');" onmouseout="hh();" /><rect x="149" y="-99" width="6" height="99" style="fill:#0080C0;" onmouseover="sh(152,152,-246,'01.12.2020 17,94');" onmouseout="hh();" /><rect x="158" y="-240" width="6" height="240" style="fill:transparent;" onmouseover="sh(161,161,-246,'01.01.2021 18,47');" onmouseout="hh();" /><rect x="158" y="-109" width="6" height="109" style="fill:#0080C0;" onmouseover="sh(161,161,-246,'01.01.2021 18,47');" onmouseout="hh();" /><rect x="167" y="-240" width="6" height="240" style="fill:transparent;" onmouseover="sh(170,170,-246,'01.02.2021 18,74');" onmouseout="hh();" /><rect x="167" y="-115" width="6" height="115" style="fill:#0080C0;" onmouseover="sh(170,170,-246,'01.02.2021 18,74');" onmouseout="hh();" /><rect x="176" y="-240" width="6" height="240" style="fill:transparent;" onmouseover="sh(179,179,-246,'01.03.2021 18,44');" onmouseout="hh();" /><rect x="176" y="-109" width="6" height="109" style="fill:#0080C0;" onmouseover="sh(179,179,-246,'01.03.2021 18,44');" onmouseout="hh();" /><rect x="185" y="-240" width="6" height="240" style="fill:transparent;" onmouseover="sh(188,188,-246,'01.04.2021 17,74');" onmouseout="hh();" /><rect x="185" y="-95" width="6" height="95" style="fill:#0080C0;" onmouseover="sh(188,188,-246,'01.04.2021 17,74');" onmouseout="hh();" /><rect x="194" y="-240" width="6" height="240" style="fill:transparent;" onmouseover="sh(197,197,-246,'01.05.2021 16,67');" onmouseout="hh();" /><rect x="194" y="-73" width="6" height="73" style="fill:#0080C0;" onmouseover="sh(197,197,-246,'01.05.2021 16,67');" onmouseout="hh();" /><rect x="203" y="-240" width="6" height="240" style="fill:transparent;" onmouseover="sh(206,206,-246,'01.06.2021 16,41');" onmouseout="hh();" /><rect x="203" y="-68" width="6" height="68" style="fill:#0080C0;" onmouseover="sh(206,206,-246,'01.06.2021 16,41');" onmouseout="hh();" /><rect x="212" y="-240" width="6" height="240" style="fill:transparent;" onmouseover="sh(215,215,-246,'01.07.2021 17,42');" onmouseout="hh();" /><rect x="212" y="-88" width="6" height="88" style="fill:#0080C0;" onmouseover="sh(215,215,-246,'01.07.2021 17,42');" onmouseout="hh();" /><rect x="221" y="-240" width="6" height="240" style="fill:transparent;" onmouseover="sh(224,224,-246,'01.08.2021 17,27');" onmouseout="hh();" /><rect x="221" y="-85" width="6" height="85" style="fill:#0080C0;" onmouseover="sh(224,224,-246,'01.08.2021 17,27');" onmouseout="hh();" /><rect x="230" y="-240" width="6" height="240" style="fill:transparent;" onmouseover="sh(233,233,-246,'01.09.2021 17,28');" onmouseout="hh();" /><rect x="230" y="-86" width="6" height="86" style="fill:#0080C0;" onmouseover="sh(233,233,-246,'01.09.2021 17,28');" onmouseout="hh();" /><rect x="239" y="-240" width="6" height="240" style="fill:transparent;" onmouseover="sh(242,242,-246,'01.10.2021 17,16');" onmouseout="hh();" /><rect x="239" y="-83" width="6" height="83" style="fill:#0080C0;" onmouseover="sh(242,242,-246,'01.10.2021 17,16');" onmouseout="hh();" /><rect x="248" y="-240" width="6" height="240" style="fill:transparent;" onmouseover="sh(251,251,-246,'01.11.2021 15,99');" onmouseout="hh();" /><rect x="248" y="-60" width="6" height="60" style="fill:#0080C0;" onmouseover="sh(251,251,-246,'01.11.2021 15,99');" onmouseout="hh();" /><rect x="257" y="-240" width="6" height="240" style="fill:transparent;" onmouseover="sh(260,260,-246,'01.12.2021 16,08');" onmouseout="hh();" /><rect x="257" y="-62" width="6" height="62" style="fill:#0080C0;" onmouseover="sh(260,260,-246,'01.12.2021 16,08');" onmouseout="hh();" /><rect x="266" y="-240" width="6" height="240" style="fill:transparent;" onmouseover="sh(269,269,-246,'01.01.2022 17,98');" onmouseout="hh();" /><rect x="266" y="-100" width="6" height="100" style="fill:#0080C0;" onmouseover="sh(269,269,-246,'01.01.2022 17,98');" onmouseout="hh();" /><rect x="275" y="-240" width="6" height="240" style="fill:transparent;" onmouseover="sh(278,278,-246,'01.02.2022 18,67');" onmouseout="hh();" /><rect x="275" y="-113" width="6" height="113" style="fill:#0080C0;" onmouseover="sh(278,278,-246,'01.02.2022 18,67');" onmouseout="hh();" /><rect x="284" y="-240" width="6" height="240" style="fill:transparent;" onmouseover="sh(287,287,-246,'01.03.2022 18,67');" onmouseout="hh();" /><rect x="284" y="-113" width="6" height="113" style="fill:#0080C0;" onmouseover="sh(287,287,-246,'01.03.2022 18,67');" onmouseout="hh();" /><rect x="293" y="-240" width="6" height="240" style="fill:transparent;" onmouseover="sh(296,296,-246,'01.04.2022 19,06');" onmouseout="hh();" /><rect x="293" y="-121" width="6" height="121" style="fill:#0080C0;" onmouseover="sh(296,296,-246,'01.04.2022 19,06');" onmouseout="hh();" /><rect x="302" y="-240" width="6" height="240" style="fill:transparent;" onmouseover="sh(305,305,-246,'01.05.2022 19,60');" onmouseout="hh();" /><rect x="302" y="-132" width="6" height="132" style="fill:#0080C0;" onmouseover="sh(305,305,-246,'01.05.2022 19,60');" onmouseout="hh();" /><rect x="311" y="-240" width="6" height="240" style="fill:transparent;" onmouseover="sh(314,314,-246,'01.06.2022 19,79');" onmouseout="hh();" /><rect x="311" y="-136" width="6" height="136" style="fill:#0080C0;" onmouseover="sh(314,314,-246,'01.06.2022 19,79');" onmouseout="hh();" /><rect x="320" y="-240" width="6" height="240" style="fill:transparent;" onmouseover="sh(323,323,-246,'01.07.2022 20,41');" onmouseout="hh();" /><rect x="320" y="-148" width="6" height="148" style="fill:#0080C0;" onmouseover="sh(323,323,-246,'01.07.2022 20,41');" onmouseout="hh();" /><rect x="329" y="-240" width="6" height="240" style="fill:transparent;" onmouseover="sh(332,332,-246,'01.08.2022 20,51');" onmouseout="hh();" /><rect x="329" y="-150" width="6" height="150" style="fill:#0080C0;" onmouseover="sh(332,332,-246,'01.08.2022 20,51');" onmouseout="hh();" /><rect x="338" y="-240" width="6" height="240" style="fill:transparent;" onmouseover="sh(341,341,-246,'01.09.2022 21,20');" onmouseout="hh();" /><rect x="338" y="-164" width="6" height="164" style="fill:#0080C0;" onmouseover="sh(341,341,-246,'01.09.2022 21,20');" onmouseout="hh();" /><rect x="347" y="-240" width="6" height="240" style="fill:transparent;" onmouseover="sh(350,350,-246,'01.10.2022 21,61');" onmouseout="hh();" /><rect x="347" y="-172" width="6" height="172" style="fill:#0080C0;" onmouseover="sh(350,350,-246,'01.10.2022 21,61');" onmouseout="hh();" /><rect x="356" y="-240" width="6" height="240" style="fill:transparent;" onmouseover="sh(359,359,-246,'01.11.2022 21,66');" onmouseout="hh();" /><rect x="356" y="-173" width="6" height="173" style="fill:#0080C0;" onmouseover="sh(359,359,-246,'01.11.2022 21,66');" onmouseout="hh();" /><rect x="365" y="-240" width="6" height="240" style="fill:transparent;" onmouseover="sh(368,362,-246,'01.12.2022 22,23');" onmouseout="hh();" /><rect x="365" y="-185" width="6" height="185" style="fill:#0080C0;" onmouseover="sh(368,362,-246,'01.12.2022 22,23');" onmouseout="hh();" /><rect x="374" y="-240" width="6" height="240" style="fill:transparent;" onmouseover="sh(377,362,-246,'01.01.2023 22,04');" onmouseout="hh();" /><rect x="374" y="-181" width="6" height="181" style="fill:#0080C0;" onmouseover="sh(377,362,-246,'01.01.2023 22,04');" onmouseout="hh();" /><rect x="383" y="-240" width="6" height="240" style="fill:transparent;" onmouseover="sh(386,362,-246,'01.02.2023 21,85');" onmouseout="hh();" /><rect x="383" y="-177" width="6" height="177" style="fill:#0080C0;" onmouseover="sh(386,362,-246,'01.02.2023 21,85');" onmouseout="hh();" /><rect x="392" y="-240" width="6" height="240" style="fill:transparent;" onmouseover="sh(395,362,-246,'01.03.2023 22,33');" onmouseout="hh();" /><rect x="392" y="-187" width="6" height="187" style="fill:#0080C0;" onmouseover="sh(395,362,-246,'01.03.2023 22,33');" onmouseout="hh();" /><rect x="401" y="-240" width="6" height="240" style="fill:transparent;" onmouseover="sh(404,362,-246,'01.04.2023 23,57');" onmouseout="hh();" /><rect x="401" y="-211" width="6" height="211" style="fill:#0080C0;" onmouseover="sh(404,362,-246,'01.04.2023 23,57');" onmouseout="hh();" /><rect x="410" y="-240" width="6" height="240" style="fill:transparent;" onmouseover="sh(413,362,-246,'01.05.2023 23,06');" onmouseout="hh();" /><rect x="410" y="-201" width="6" height="201" style="fill:#0080C0;" onmouseover="sh(413,362,-246,'01.05.2023 23,06');" onmouseout="hh();" /><rect x="419" y="-240" width="6" height="240" style="fill:transparent;" onmouseover="sh(422,362,-246,'01.06.2023 23,74');" onmouseout="hh();" /><rect x="419" y="-215" width="6" height="215" style="fill:#0080C0;" onmouseover="sh(422,362,-246,'01.06.2023 23,74');" onmouseout="hh();" />
<line x1="-6" y1="0" x2="432" y2="0" class="axes" /><line x1="0" y1="-256" x2="0" y2="0" class="axes" /><text x="-2" y="-260" style="text-anchor:end;">грн.</text>
<use xlink:href="#hintbox" id="usebox" x="0" y="0" style="visibility:hidden;" />
</svg>
