<?xml version="1.0" encoding="UTF-8" standalone="no"?>
<!DOCTYPE svg PUBLIC "-//W3C//DTD SVG 1.1//EN" "http://www.w3.org/Graphics/SVG/1.1/DTD/svg11.dtd">
<svg version="1.1" xmlns="http://www.w3.org/2000/svg" xmlns:xlink="http://www.w3.org/1999/xlink" xmlns:ev="http://www.w3.org/2001/xml-events" width="597" height="330" viewBox="-48 -272 597 330" preserveAspectRatio="none">
<style type="text/css"><![CDATA[
line { stroke-width:1px; }
line.axes { stroke:#505050; }
line.grid { stroke:#D8D8D8; }
rect.bg { fill:#FFFFFF; }
text { font-family:arial,sans-serif; font-size:12px; fill:#000000; }
]]></style>
<defs>
<g id="hintbox"><rect x="0" y="0" width="77" height="34" style="stroke:#505050; stroke-width:1px; fill:rgba(255,255,255,0.87);" /><text id="hint0" x="4" y="14"> </text><text x="7" y="28"></text><text id="hint1" x="73" y="28" style="text-anchor:end;"> </text></g>
<g id="hintline"><line x1="0" y1="-240" x2="0" y2="0" class="axes" style="stroke-dasharray:2 1" /></g>
</defs>
<script><![CDATA[
function shb(x,y,dat) {
ar=dat.split(' '); for (i=0; i<ar.length; ++i) { if (i&&ar[i]) ar[i]+=' грн.'; h=document.getElementById('hint'+i); h.textContent=ar[i]; }
u=document.getElementById('usebox'); u.setAttribute('x',x); u.setAttribute('y',y); u.setAttribute('style','visibility:visible;'); }
function hhb() { u=document.getElementById('usebox'); u.setAttribute('style','visibility:hidden;'); u.setAttribute('x','0'); u.setAttribute('y','0'); }
function shl(x) { u=document.getElementById('useline'); u.setAttribute('x',x); u.setAttribute('style','visibility:visible;'); }
function hhl() { u=document.getElementById('useline'); u.setAttribute('style','visibility:hidden;'); u.setAttribute('x','0'); }
function sh(xl,xb,y,dat) { shl(xl); shb(xb,y,dat); }
function hh() { hhb(); hhl(); }
]]></script>
<rect x="-48" y="-272" width="597" height="330" class="bg" />
<line x1="26" y1="0" x2="26" y2="4" class="axes" /><text x="31" y="8" transform="rotate(-90,31,8)" style="text-anchor:end;">10.2018</text><line x1="53" y1="0" x2="53" y2="4" class="axes" /><text x="58" y="8" transform="rotate(-90,58,8)" style="text-anchor:end;">01.2019</text><line x1="80" y1="0" x2="80" y2="4" class="axes" /><text x="85" y="8" transform="rotate(-90,85,8)" style="text-anchor:end;">04.2019</text><line x1="107" y1="0" x2="107" y2="4" class="axes" /><text x="112" y="8" transform="rotate(-90,112,8)" style="text-anchor:end;">07.2019</text><line x1="134" y1="0" x2="134" y2="4" class="axes" /><text x="139" y="8" transform="rotate(-90,139,8)" style="text-anchor:end;">10.2019</text><line x1="161" y1="0" x2="161" y2="4" class="axes" /><text x="166" y="8" transform="rotate(-90,166,8)" style="text-anchor:end;">01.2020</text><line x1="188" y1="0" x2="188" y2="4" class="axes" /><text x="193" y="8" transform="rotate(-90,193,8)" style="text-anchor:end;">04.2020</text><line x1="215" y1="0" x2="215" y2="4" class="axes" /><text x="220" y="8" transform="rotate(-90,220,8)" style="text-anchor:end;">07.2020</text><line x1="242" y1="0" x2="242" y2="4" class="axes" /><text x="247" y="8" transform="rotate(-90,247,8)" style="text-anchor:end;">10.2020</text><line x1="269" y1="0" x2="269" y2="4" class="axes" /><text x="274" y="8" transform="rotate(-90,274,8)" style="text-anchor:end;">01.2021</text><line x1="296" y1="0" x2="296" y2="4" class="axes" /><text x="301" y="8" transform="rotate(-90,301,8)" style="text-anchor:end;">04.2021</text><line x1="323" y1="0" x2="323" y2="4" class="axes" /><text x="328" y="8" transform="rotate(-90,328,8)" style="text-anchor:end;">07.2021</text><line x1="350" y1="0" x2="350" y2="4" class="axes" /><text x="355" y="8" transform="rotate(-90,355,8)" style="text-anchor:end;">10.2021</text><line x1="377" y1="0" x2="377" y2="4" class="axes" /><text x="382" y="8" transform="rotate(-90,382,8)" style="text-anchor:end;">01.2022</text><line x1="404" y1="0" x2="404" y2="4" class="axes" /><text x="409" y="8" transform="rotate(-90,409,8)" style="text-anchor:end;">04.2022</text><line x1="431" y1="0" x2="431" y2="4" class="axes" /><text x="436" y="8" transform="rotate(-90,436,8)" style="text-anchor:end;">07.2022</text><line x1="458" y1="0" x2="458" y2="4" class="axes" /><text x="463" y="8" transform="rotate(-90,463,8)" style="text-anchor:end;">10.2022</text><line x1="485" y1="0" x2="485" y2="4" class="axes" /><text x="490" y="8" transform="rotate(-90,490,8)" style="text-anchor:end;">01.2023</text><line x1="512" y1="0" x2="512" y2="4" class="axes" /><text x="517" y="8" transform="rotate(-90,517,8)" style="text-anchor:end;">04.2023</text>
<line x1="0" y1="-30" x2="537" y2="-30" class="grid" /><line x1="0" y1="-30" x2="-4" y2="-30" class="axes" /><text x="-8" y="-26" style="text-anchor:end;">150</text><line x1="0" y1="-60" x2="537" y2="-60" class="grid" /><line x1="0" y1="-60" x2="-4" y2="-60" class="axes" /><text x="-8" y="-56" style="text-anchor:end;">200</text><line x1="0" y1="-90" x2="537" y2="-90" class="grid" /><line x1="0" y1="-90" x2="-4" y2="-90" class="axes" /><text x="-8" y="-86" style="text-anchor:end;">250</text><line x1="0" y1="-120" x2="537" y2="-120" class="grid" /><line x1="0" y1="-120" x2="-4" y2="-120" class="axes" /><text x="-8" y="-116" style="text-anchor:end;">300</text><line x1="0" y1="-150" x2="537" y2="-150" class="grid" /><line x1="0" y1="-150" x2="-4" y2="-150" class="axes" /><text x="-8" y="-146" style="text-anchor:end;">350</text><line x1="0" y1="-180" x2="537" y2="-180" class="grid" /><line x1="0" y1="-180" x2="-4" y2="-180" class="axes" /><text x="-8" y="-176" style="text-anchor:end;">400</text><line x1="0" y1="-210" x2="537" y2="-210" class="grid" /><line x1="0" y1="-210" x2="-4" y2="-210" class="axes" /><text x="-8" y="-206" style="text-anchor:end;">450</text><line x1="0" y1="-240" x2="537" y2="-240" class="grid" /><line x1="0" y1="-240" x2="-4" y2="-240" class="axes" /><text x="-8" y="-236" style="text-anchor:end;">500</text>
<use xlink:href="#hintline" id="useline" x="0" style="visibility:hidden;" />
<rect x="5" y="-240" width="6" height="240" style="fill:transparent;" onmouseover="sh(8,8,-246,'01.08.2018 209,70');" onmouseout="hh();" /><rect x="5" y="-66" width="6" height="66" style="fill:#0080C0;" onmouseover="sh(8,8,-246,'01.08.2018 209,70');" onmouseout="hh();" /><rect x="14" y="-240" width="6" height="240" style="fill:transparent;" onmouseover="sh(17,17,-246,'01.09.2018 205,71');" onmouseout="hh();" /><rect x="14" y="-63" width="6" height="63" style="fill:#0080C0;" onmouseover="sh(17,17,-246,'01.09.2018 205,71');" onmouseout="hh();" /><rect x="23" y="-240" width="6" height="240" style="fill:transparent;" onmouseover="sh(26,26,-246,'01.10.2018 202,12');" onmouseout="hh();" /><rect x="23" y="-61" width="6" height="61" style="fill:#0080C0;" onmouseover="sh(26,26,-246,'01.10.2018 202,12');" onmouseout="hh();" /><rect x="32" y="-240" width="6" height="240" style="fill:transparent;" onmouseover="sh(35,35,-246,'01.11.2018 216,11');" onmouseout="hh();" /><rect x="32" y="-70" width="6" height="70" style="fill:#0080C0;" onmouseover="sh(35,35,-246,'01.11.2018 216,11');" onmouseout="hh();" /><rect x="41" y="-240" width="6" height="240" style="fill:transparent;" onmouseover="sh(44,44,-246,'01.12.2018 206,52');" onmouseout="hh();" /><rect x="41" y="-64" width="6" height="64" style="fill:#0080C0;" onmouseover="sh(44,44,-246,'01.12.2018 206,52');" onmouseout="hh();" /><rect x="50" y="-240" width="6" height="240" style="fill:transparent;" onmouseover="sh(53,53,-246,'01.01.2019 223,01');" onmouseout="hh();" /><rect x="50" y="-74" width="6" height="74" style="fill:#0080C0;" onmouseover="sh(53,53,-246,'01.01.2019 223,01');" onmouseout="hh();" /><rect x="59" y="-240" width="6" height="240" style="fill:transparent;" onmouseover="sh(62,62,-246,'01.02.2019 217,72');" onmouseout="hh();" /><rect x="59" y="-71" width="6" height="71" style="fill:#0080C0;" onmouseover="sh(62,62,-246,'01.02.2019 217,72');" onmouseout="hh();" /><rect x="68" y="-240" width="6" height="240" style="fill:transparent;" onmouseover="sh(71,71,-246,'01.03.2019 215,23');" onmouseout="hh();" /><rect x="68" y="-69" width="6" height="69" style="fill:#0080C0;" onmouseover="sh(71,71,-246,'01.03.2019 215,23');" onmouseout="hh();" /><rect x="77" y="-240" width="6" height="240" style="fill:transparent;" onmouseover="sh(80,80,-246,'01.04.2019 210,86');" onmouseout="hh();" /><rect x="77" y="-67" width="6" height="67" style="fill:#0080C0;" onmouseover="sh(80,80,-246,'01.04.2019 210,86');" onmouseout="hh();" /><rect x="86" y="-240" width="6" height="240" style="fill:transparent;" onmouseover="sh(89,89,-246,'01.05.2019 215,49');" onmouseout="hh();" /><rect x="86" y="-69" width="6" height="69" style="fill:#0080C0;" onmouseover="sh(89,89,-246,'01.05.2019 215,49');" onmouseout="hh();" /><rect x="95" y="-240" width="6" height="240" style="fill:transparent;" onmouseover="sh(98,98,-246,'01.06.2019 201,73');" onmouseout="hh();" /><rect x="95" y="-61" width="6" height="61" style="fill:#0080C0;" onmouseover="sh(98,98,-246,'01.06.2019 201,73');" onmouseout="hh();" /><rect x="104" y="-240" width="6" height="240" style="fill:transparent;" onmouseover="sh(107,107,-246,'01.07.2019 222,77');" onmouseout="hh();" /><rect x="104" y="-74" width="6" height="74" style="fill:#0080C0;" onmouseover="sh(107,107,-246,'01.07.2019 222,77');" onmouseout="hh();" /><rect x="113" y="-240" width="6" height="240" style="fill:transparent;" onmouseover="sh(116,116,-246,'01.08.2019 222,82');" onmouseout="hh();" /><rect x="113" y="-74" width="6" height="74" style="fill:#0080C0;" onmouseover="sh(116,116,-246,'01.08.2019 222,82');" onmouseout="hh();" /><rect x="122" y="-240" width="6" height="240" style="fill:transparent;" onmouseover="sh(125,125,-246,'01.09.2019 227,97');" onmouseout="hh();" /><rect x="122" y="-77" width="6" height="77" style="fill:#0080C0;" onmouseover="sh(125,125,-246,'01.09.2019 227,97');" onmouseout="hh();" /><rect x="131" y="-240" width="6" height="240" style="fill:transparent;" onmouseover="sh(134,134,-246,'01.10.2019 233,54');" onmouseout="hh();" /><rect x="131" y="-80" width="6" height="80" style="fill:#0080C0;" onmouseover="sh(134,134,-246,'01.10.2019 233,54');" onmouseout="hh();" /><rect x="140" y="-240" width="6" height="240" style="fill:transparent;" onmouseover="sh(143,143,-246,'01.11.2019 233,47');" onmouseout="hh();" /><rect x="140" y="-80" width="6" height="80" style="fill:#0080C0;" onmouseover="sh(143,143,-246,'01.11.2019 233,47');" onmouseout="hh();" /><rect x="149" y="-240" width="6" height="240" style="fill:transparent;" onmouseover="sh(152,152,-246,'01.12.2019 222,69');" onmouseout="hh();" /><rect x="149" y="-74" width="6" height="74" style="fill:#0080C0;" onmouseover="sh(152,152,-246,'01.12.2019 222,69');" onmouseout="hh();" /><rect x="158" y="-240" width="6" height="240" style="fill:transparent;" onmouseover="sh(161,161,-246,'01.01.2020 226,31');" onmouseout="hh();" /><rect x="158" y="-76" width="6" height="76" style="fill:#0080C0;" onmouseover="sh(161,161,-246,'01.01.2020 226,31');" onmouseout="hh();" /><rect x="167" y="-240" width="6" height="240" style="fill:transparent;" onmouseover="sh(170,170,-246,'01.02.2020 227,92');" onmouseout="hh();" /><rect x="167" y="-77" width="6" height="77" style="fill:#0080C0;" onmouseover="sh(170,170,-246,'01.02.2020 227,92');" onmouseout="hh();" /><rect x="176" y="-240" width="6" height="240" style="fill:transparent;" onmouseover="sh(179,179,-246,'01.03.2020 226,89');" onmouseout="hh();" /><rect x="176" y="-76" width="6" height="76" style="fill:#0080C0;" onmouseover="sh(179,179,-246,'01.03.2020 226,89');" onmouseout="hh();" /><rect x="185" y="-240" width="6" height="240" style="fill:transparent;" onmouseover="sh(188,188,-246,'01.04.2020 226,49');" onmouseout="hh();" /><rect x="185" y="-76" width="6" height="76" style="fill:#0080C0;" onmouseover="sh(188,188,-246,'01.04.2020 226,49');" onmouseout="hh();" /><rect x="194" y="-240" width="6" height="240" style="fill:transparent;" onmouseover="sh(197,197,-246,'01.05.2020 234,53');" onmouseout="hh();" /><rect x="194" y="-81" width="6" height="81" style="fill:#0080C0;" onmouseover="sh(197,197,-246,'01.05.2020 234,53');" onmouseout="hh();" /><rect x="203" y="-240" width="6" height="240" style="fill:transparent;" onmouseover="sh(206,206,-246,'01.06.2020 245,30');" onmouseout="hh();" /><rect x="203" y="-87" width="6" height="87" style="fill:#0080C0;" onmouseover="sh(206,206,-246,'01.06.2020 245,30');" onmouseout="hh();" /><rect x="212" y="-240" width="6" height="240" style="fill:transparent;" onmouseover="sh(215,215,-246,'01.07.2020 247,65');" onmouseout="hh();" /><rect x="212" y="-89" width="6" height="89" style="fill:#0080C0;" onmouseover="sh(215,215,-246,'01.07.2020 247,65');" onmouseout="hh();" /><rect x="221" y="-240" width="6" height="240" style="fill:transparent;" onmouseover="sh(224,224,-246,'01.08.2020 239,89');" onmouseout="hh();" /><rect x="221" y="-84" width="6" height="84" style="fill:#0080C0;" onmouseover="sh(224,224,-246,'01.08.2020 239,89');" onmouseout="hh();" /><rect x="230" y="-240" width="6" height="240" style="fill:transparent;" onmouseover="sh(233,233,-246,'01.09.2020 241,08');" onmouseout="hh();" /><rect x="230" y="-85" width="6" height="85" style="fill:#0080C0;" onmouseover="sh(233,233,-246,'01.09.2020 241,08');" onmouseout="hh();" /><rect x="239" y="-240" width="6" height="240" style="fill:transparent;" onmouseover="sh(242,242,-246,'01.10.2020 247,99');" onmouseout="hh();" /><rect x="239" y="-89" width="6" height="89" style="fill:#0080C0;" onmouseover="sh(242,242,-246,'01.10.2020 247,99');" onmouseout="hh();" /><rect x="248" y="-240" width="6" height="240" style="fill:transparent;" onmouseover="sh(251,251,-246,'01.11.2020 276,14');" onmouseout="hh();" /><rect x="248" y="-106" width="6" height="106" style="fill:#0080C0;" onmouseover="sh(251,251,-246,'01.11.2020 276,14');" onmouseout="hh();" /><rect x="257" y="-240" width="6" height="240" style="fill:transparent;" onmouseover="sh(260,260,-246,'01.12.2020 261,68');" onmouseout="hh();" /><rect x="257" y="-97" width="6" height="97" style="fill:#0080C0;" onmouseover="sh(260,260,-246,'01.12.2020 261,68');" onmouseout="hh();" /><rect x="266" y="-240" width="6" height="240" style="fill:transparent;" onmouseover="sh(269,269,-246,'01.01.2021 276,17');" onmouseout="hh();" /><rect x="266" y="-106" width="6" height="106" style="fill:#0080C0;" onmouseover="sh(269,269,-246,'01.01.2021 276,17');" onmouseout="hh();" /><rect x="275" y="-240" width="6" height="240" style="fill:transparent;" onmouseover="sh(278,278,-246,'01.02.2021 266,96');" onmouseout="hh();" /><rect x="275" y="-100" width="6" height="100" style="fill:#0080C0;" onmouseover="sh(278,278,-246,'01.02.2021 266,96');" onmouseout="hh();" /><rect x="284" y="-240" width="6" height="240" style="fill:transparent;" onmouseover="sh(287,287,-246,'01.03.2021 280,69');" onmouseout="hh();" /><rect x="284" y="-108" width="6" height="108" style="fill:#0080C0;" onmouseover="sh(287,287,-246,'01.03.2021 280,69');" onmouseout="hh();" /><rect x="293" y="-240" width="6" height="240" style="fill:transparent;" onmouseover="sh(296,296,-246,'01.04.2021 290,95');" onmouseout="hh();" /><rect x="293" y="-115" width="6" height="115" style="fill:#0080C0;" onmouseover="sh(296,296,-246,'01.04.2021 290,95');" onmouseout="hh();" /><rect x="302" y="-240" width="6" height="240" style="fill:transparent;" onmouseover="sh(305,305,-246,'01.05.2021 291,93');" onmouseout="hh();" /><rect x="302" y="-115" width="6" height="115" style="fill:#0080C0;" onmouseover="sh(305,305,-246,'01.05.2021 291,93');" onmouseout="hh();" /><rect x="311" y="-240" width="6" height="240" style="fill:transparent;" onmouseover="sh(314,314,-246,'01.06.2021 282,05');" onmouseout="hh();" /><rect x="311" y="-109" width="6" height="109" style="fill:#0080C0;" onmouseover="sh(314,314,-246,'01.06.2021 282,05');" onmouseout="hh();" /><rect x="320" y="-240" width="6" height="240" style="fill:transparent;" onmouseover="sh(323,323,-246,'01.07.2021 309,86');" onmouseout="hh();" /><rect x="320" y="-126" width="6" height="126" style="fill:#0080C0;" onmouseover="sh(323,323,-246,'01.07.2021 309,86');" onmouseout="hh();" /><rect x="329" y="-240" width="6" height="240" style="fill:transparent;" onmouseover="sh(332,332,-246,'01.08.2021 311,87');" onmouseout="hh();" /><rect x="329" y="-127" width="6" height="127" style="fill:#0080C0;" onmouseover="sh(332,332,-246,'01.08.2021 311,87');" onmouseout="hh();" /><rect x="338" y="-240" width="6" height="240" style="fill:transparent;" onmouseover="sh(341,341,-246,'01.09.2021 289,30');" onmouseout="hh();" /><rect x="338" y="-114" width="6" height="114" style="fill:#0080C0;" onmouseover="sh(341,341,-246,'01.09.2021 289,30');" onmouseout="hh();" /><rect x="347" y="-240" width="6" height="240" style="fill:transparent;" onmouseover="sh(350,350,-246,'01.10.2021 315,91');" onmouseout="hh();" /><rect x="347" y="-130" width="6" height="130" style="fill:#0080C0;" onmouseover="sh(350,350,-246,'01.10.2021 315,91');" onmouseout="hh();" /><rect x="356" y="-240" width="6" height="240" style="fill:transparent;" onmouseover="sh(359,359,-246,'01.11.2021 312,19');" onmouseout="hh();" /><rect x="356" y="-127" width="6" height="127" style="fill:#0080C0;" onmouseover="sh(359,359,-246,'01.11.2021 312,19');" onmouseout="hh();" /><rect x="365" y="-240" width="6" height="240" style="fill:transparent;" onmouseover="sh(368,368,-246,'01.12.2021 324,37');" onmouseout="hh();" /><rect x="365" y="-135" width="6" height="135" style="fill:#0080C0;" onmouseover="sh(368,368,-246,'01.12.2021 324,37');" onmouseout="hh();" /><rect x="374" y="-240" width="6" height="240" style="fill:transparent;" onmouseover="sh(377,377,-246,'01.01.2022 327,21');" onmouseout="hh();" /><rect x="374" y="-136" width="6" height="136" style="fill:#0080C0;" onmouseover="sh(377,377,-246,'01.01.2022 327,21');" onmouseout="hh();" /><rect x="383" y="-240" width="6" height="240" style="fill:transparent;" onmouseover="sh(386,386,-246,'01.02.2022 339,92');" onmouseout="hh();" /><rect x="383" y="-144" width="6" height="144" style="fill:#0080C0;" onmouseover="sh(386,386,-246,'01.02.2022 339,92');" onmouseout="hh();" /><rect x="392" y="-240" width="6" height="240" style="fill:transparent;" onmouseover="sh(395,395,-246,'01.03.2022 331,90');" onmouseout="hh();" /><rect x="392" y="-139" width="6" height="139" style="fill:#0080C0;" onmouseover="sh(395,395,-246,'01.03.2022 331,90');" onmouseout="hh();" /><rect x="401" y="-240" width="6" height="240" style="fill:transparent;" onmouseover="sh(404,404,-246,'01.04.2022 337,18');" onmouseout="hh();" /><rect x="401" y="-142" width="6" height="142" style="fill:#0080C0;" onmouseover="sh(404,404,-246,'01.04.2022 337,18');" onmouseout="hh();" /><rect x="410" y="-240" width="6" height="240" style="fill:transparent;" onmouseover="sh(413,413,-246,'01.05.2022 345,10');" onmouseout="hh();" /><rect x="410" y="-147" width="6" height="147" style="fill:#0080C0;" onmouseover="sh(413,413,-246,'01.05.2022 345,10');" onmouseout="hh();" /><rect x="419" y="-240" width="6" height="240" style="fill:transparent;" onmouseover="sh(422,422,-246,'01.06.2022 334,60');" onmouseout="hh();" /><rect x="419" y="-141" width="6" height="141" style="fill:#0080C0;" onmouseover="sh(422,422,-246,'01.06.2022 334,60');" onmouseout="hh();" /><rect x="428" y="-240" width="6" height="240" style="fill:transparent;" onmouseover="sh(431,431,-246,'01.07.2022 338,62');" onmouseout="hh();" /><rect x="428" y="-143" width="6" height="143" style="fill:#0080C0;" onmouseover="sh(431,431,-246,'01.07.2022 338,62');" onmouseout="hh();" /><rect x="437" y="-240" width="6" height="240" style="fill:transparent;" onmouseover="sh(440,440,-246,'01.08.2022 351,34');" onmouseout="hh();" /><rect x="437" y="-151" width="6" height="151" style="fill:#0080C0;" onmouseover="sh(440,440,-246,'01.08.2022 351,34');" onmouseout="hh();" /><rect x="446" y="-240" width="6" height="240" style="fill:transparent;" onmouseover="sh(449,449,-246,'01.09.2022 359,87');" onmouseout="hh();" /><rect x="446" y="-156" width="6" height="156" style="fill:#0080C0;" onmouseover="sh(449,449,-246,'01.09.2022 359,87');" onmouseout="hh();" /><rect x="455" y="-240" width="6" height="240" style="fill:transparent;" onmouseover="sh(458,458,-246,'01.10.2022 380,72');" onmouseout="hh();" /><rect x="455" y="-168" width="6" height="168" style="fill:#0080C0;" onmouseover="sh(458,458,-246,'01.10.2022 380,72');" onmouseout="hh();" /><rect x="464" y="-240" width="6" height="240" style="fill:transparent;" onmouseover="sh(467,467,-246,'01.11.2022 372,86');" onmouseout="hh();" /><rect x="464" y="-164" width="6" height="164" style="fill:#0080C0;" onmouseover="sh(467,467,-246,'01.11.2022 372,86');" onmouseout="hh();" /><rect x="473" y="-240" width="6" height="240" style="fill:transparent;" onmouseover="sh(476,470,-246,'01.12.2022 407,10');" onmouseout="hh();" /><rect x="473" y="-184" width="6" height="184" style="fill:#0080C0;" onmouseover="sh(476,470,-246,'01.12.2022 407,10');" onmouseout="hh();" /><rect x="482" y="-240" width="6" height="240" style="fill:transparent;" onmouseover="sh(485,470,-246,'01.01.2023 392,52');" onmouseout="hh();" /><rect x="482" y="-176" width="6" height="176" style="fill:#0080C0;" onmouseover="sh(485,470,-246,'01.01.2023 392,52');" onmouseout="hh();" /><rect x="491" y="-240" width="6" height="240" style="fill:transparent;" onmouseover="sh(494,470,-246,'01.02.2023 428,82');" onmouseout="hh();" /><rect x="491" y="-197" width="6" height="197" style="fill:#0080C0;" onmouseover="sh(494,470,-246,'01.02.2023 428,82');" onmouseout="hh();" /><rect x="500" y="-240" width="6" height="240" style="fill:transparent;" onmouseover="sh(503,470,-246,'01.03.2023 429,67');" onmouseout="hh();" /><rect x="500" y="-198" width="6" height="198" style="fill:#0080C0;" onmouseover="sh(503,470,-246,'01.03.2023 429,67');" onmouseout="hh();" /><rect x="509" y="-240" width="6" height="240" style="fill:transparent;" onmouseover="sh(512,470,-246,'01.04.2023 432,47');" onmouseout="hh();" /><rect x="509" y="-199" width="6" height="199" style="fill:#0080C0;" onmouseover="sh(512,470,-246,'01.04.2023 432,47');" onmouseout="hh();" /><rect x="518" y="-240" width="6" height="240" style="fill:transparent;" onmouseover="sh(521,470,-246,'01.05.2023 409,97');" onmouseout="hh();" /><rect x="518" y="-186" width="6" height="186" style="fill:#0080C0;" onmouseover="sh(521,470,-246,'01.05.2023 409,97');" onmouseout="hh();" /><rect x="527" y="-240" width="6" height="240" style="fill:transparent;" onmouseover="sh(530,470,-246,'01.06.2023 447,32');" onmouseout="hh();" /><rect x="527" y="-208" width="6" height="208" style="fill:#0080C0;" onmouseover="sh(530,470,-246,'01.06.2023 447,32');" onmouseout="hh();" />
<line x1="-6" y1="0" x2="540" y2="0" class="axes" /><line x1="0" y1="-256" x2="0" y2="0" class="axes" /><text x="-2" y="-260" style="text-anchor:end;">грн.</text>
<use xlink:href="#hintbox" id="usebox" x="0" y="0" style="visibility:hidden;" />
</svg>
