<?xml version="1.0" encoding="UTF-8" standalone="no"?>
<!DOCTYPE svg PUBLIC "-//W3C//DTD SVG 1.1//EN" "http://www.w3.org/Graphics/SVG/1.1/DTD/svg11.dtd">
<svg version="1.1" xmlns="http://www.w3.org/2000/svg" xmlns:xlink="http://www.w3.org/1999/xlink" xmlns:ev="http://www.w3.org/2001/xml-events" width="165" height="331" viewBox="-48 -273 165 331" preserveAspectRatio="none">
<style type="text/css"><![CDATA[
line { stroke-width:1px; }
line.axes { stroke:#505050; }
line.grid { stroke:#D8D8D8; }
rect.bg { fill:#FFFFFF; }
text { font-family:arial,sans-serif; font-size:12px; fill:#000000; }
]]></style>
<defs>
<g id="hintbox"><rect x="0" y="0" width="77" height="34" style="stroke:#505050; stroke-width:1px; fill:rgba(255,255,255,0.87);" /><text id="hint0" x="4" y="14"> </text><text x="7" y="28"></text><text id="hint1" x="73" y="28" style="text-anchor:end;"> </text></g>
<g id="hintline"><line x1="0" y1="-243" x2="0" y2="0" class="axes" style="stroke-dasharray:2 1" /></g>
</defs>
<script><![CDATA[
function shb(x,y,dat) {
ar=dat.split(' '); for (i=0; i<ar.length; ++i) { if (i&&ar[i]) ar[i]+=' грн.'; h=document.getElementById('hint'+i); h.textContent=ar[i]; }
u=document.getElementById('usebox'); u.setAttribute('x',x); u.setAttribute('y',y); u.setAttribute('style','visibility:visible;'); }
function hhb() { u=document.getElementById('usebox'); u.setAttribute('style','visibility:hidden;'); u.setAttribute('x','0'); u.setAttribute('y','0'); }
function shl(x) { u=document.getElementById('useline'); u.setAttribute('x',x); u.setAttribute('style','visibility:visible;'); }
function hhl() { u=document.getElementById('useline'); u.setAttribute('style','visibility:hidden;'); u.setAttribute('x','0'); }
function sh(xl,xb,y,dat) { shl(xl); shb(xb,y,dat); }
function hh() { hhb(); hhl(); }
]]></script>
<rect x="-48" y="-273" width="165" height="331" class="bg" />
<line x1="26" y1="0" x2="26" y2="4" class="axes" /><text x="31" y="8" transform="rotate(-90,31,8)" style="text-anchor:end;">10.2022</text><line x1="53" y1="0" x2="53" y2="4" class="axes" /><text x="58" y="8" transform="rotate(-90,58,8)" style="text-anchor:end;">01.2023</text><line x1="80" y1="0" x2="80" y2="4" class="axes" /><text x="85" y="8" transform="rotate(-90,85,8)" style="text-anchor:end;">04.2023</text>
<line x1="0" y1="-27" x2="105" y2="-27" class="grid" /><line x1="0" y1="-27" x2="-4" y2="-27" class="axes" /><text x="-8" y="-23" style="text-anchor:end;">30</text><line x1="0" y1="-54" x2="105" y2="-54" class="grid" /><line x1="0" y1="-54" x2="-4" y2="-54" class="axes" /><text x="-8" y="-50" style="text-anchor:end;">35</text><line x1="0" y1="-81" x2="105" y2="-81" class="grid" /><line x1="0" y1="-81" x2="-4" y2="-81" class="axes" /><text x="-8" y="-77" style="text-anchor:end;">40</text><line x1="0" y1="-108" x2="105" y2="-108" class="grid" /><line x1="0" y1="-108" x2="-4" y2="-108" class="axes" /><text x="-8" y="-104" style="text-anchor:end;">45</text><line x1="0" y1="-135" x2="105" y2="-135" class="grid" /><line x1="0" y1="-135" x2="-4" y2="-135" class="axes" /><text x="-8" y="-131" style="text-anchor:end;">50</text><line x1="0" y1="-162" x2="105" y2="-162" class="grid" /><line x1="0" y1="-162" x2="-4" y2="-162" class="axes" /><text x="-8" y="-158" style="text-anchor:end;">55</text><line x1="0" y1="-189" x2="105" y2="-189" class="grid" /><line x1="0" y1="-189" x2="-4" y2="-189" class="axes" /><text x="-8" y="-185" style="text-anchor:end;">60</text><line x1="0" y1="-216" x2="105" y2="-216" class="grid" /><line x1="0" y1="-216" x2="-4" y2="-216" class="axes" /><text x="-8" y="-212" style="text-anchor:end;">65</text><line x1="0" y1="-243" x2="105" y2="-243" class="grid" /><line x1="0" y1="-243" x2="-4" y2="-243" class="axes" /><text x="-8" y="-239" style="text-anchor:end;">70</text>
<use xlink:href="#hintline" id="useline" x="0" style="visibility:hidden;" />
<rect x="5" y="-243" width="6" height="243" style="fill:transparent;" onmouseover="sh(8,8,-249,'01.08.2022 38,52');" onmouseout="hh();" /><rect x="5" y="-73" width="6" height="73" style="fill:#0080C0;" onmouseover="sh(8,8,-249,'01.08.2022 38,52');" onmouseout="hh();" /><rect x="14" y="-243" width="6" height="243" style="fill:transparent;" onmouseover="sh(17,17,-249,'01.09.2022 37,93');" onmouseout="hh();" /><rect x="14" y="-70" width="6" height="70" style="fill:#0080C0;" onmouseover="sh(17,17,-249,'01.09.2022 37,93');" onmouseout="hh();" /><rect x="23" y="-243" width="6" height="243" style="fill:transparent;" onmouseover="sh(26,26,-249,'01.10.2022 39,70');" onmouseout="hh();" /><rect x="23" y="-79" width="6" height="79" style="fill:#0080C0;" onmouseover="sh(26,26,-249,'01.10.2022 39,70');" onmouseout="hh();" /><rect x="32" y="-243" width="6" height="243" style="fill:transparent;" onmouseover="sh(35,35,-249,'01.11.2022 41,76');" onmouseout="hh();" /><rect x="32" y="-90" width="6" height="90" style="fill:#0080C0;" onmouseover="sh(35,35,-249,'01.11.2022 41,76');" onmouseout="hh();" /><rect x="41" y="-243" width="6" height="243" style="fill:transparent;" onmouseover="sh(44,38,-249,'01.12.2022 51,09');" onmouseout="hh();" /><rect x="41" y="-141" width="6" height="141" style="fill:#0080C0;" onmouseover="sh(44,38,-249,'01.12.2022 51,09');" onmouseout="hh();" /><rect x="50" y="-243" width="6" height="243" style="fill:transparent;" onmouseover="sh(53,38,-249,'01.01.2023 53,84');" onmouseout="hh();" /><rect x="50" y="-156" width="6" height="156" style="fill:#0080C0;" onmouseover="sh(53,38,-249,'01.01.2023 53,84');" onmouseout="hh();" /><rect x="59" y="-243" width="6" height="243" style="fill:transparent;" onmouseover="sh(62,38,-249,'01.02.2023 54,70');" onmouseout="hh();" /><rect x="59" y="-160" width="6" height="160" style="fill:#0080C0;" onmouseover="sh(62,38,-249,'01.02.2023 54,70');" onmouseout="hh();" /><rect x="68" y="-243" width="6" height="243" style="fill:transparent;" onmouseover="sh(71,38,-249,'01.03.2023 59,64');" onmouseout="hh();" /><rect x="68" y="-187" width="6" height="187" style="fill:#0080C0;" onmouseover="sh(71,38,-249,'01.03.2023 59,64');" onmouseout="hh();" /><rect x="77" y="-243" width="6" height="243" style="fill:transparent;" onmouseover="sh(80,38,-249,'01.04.2023 59,23');" onmouseout="hh();" /><rect x="77" y="-185" width="6" height="185" style="fill:#0080C0;" onmouseover="sh(80,38,-249,'01.04.2023 59,23');" onmouseout="hh();" /><rect x="86" y="-243" width="6" height="243" style="fill:transparent;" onmouseover="sh(89,38,-249,'01.05.2023 60,21');" onmouseout="hh();" /><rect x="86" y="-190" width="6" height="190" style="fill:#0080C0;" onmouseover="sh(89,38,-249,'01.05.2023 60,21');" onmouseout="hh();" /><rect x="95" y="-243" width="6" height="243" style="fill:transparent;" onmouseover="sh(98,38,-249,'01.06.2023 60,57');" onmouseout="hh();" /><rect x="95" y="-192" width="6" height="192" style="fill:#0080C0;" onmouseover="sh(98,38,-249,'01.06.2023 60,57');" onmouseout="hh();" />
<line x1="-6" y1="0" x2="108" y2="0" class="axes" /><line x1="0" y1="-259" x2="0" y2="0" class="axes" /><text x="-2" y="-263" style="text-anchor:end;">грн.</text>
<use xlink:href="#hintbox" id="usebox" x="0" y="0" style="visibility:hidden;" />
</svg>
