<?xml version="1.0" encoding="UTF-8" standalone="no"?>
<!DOCTYPE svg PUBLIC "-//W3C//DTD SVG 1.1//EN" "http://www.w3.org/Graphics/SVG/1.1/DTD/svg11.dtd">
<svg version="1.1" xmlns="http://www.w3.org/2000/svg" xmlns:xlink="http://www.w3.org/1999/xlink" xmlns:ev="http://www.w3.org/2001/xml-events" width="750" height="330" viewBox="-48 -272 750 330" preserveAspectRatio="none">
<style type="text/css"><![CDATA[
line { stroke-width:1px; }
line.axes { stroke:#505050; }
line.grid { stroke:#D8D8D8; }
rect.bg { fill:#FFFFFF; }
text { font-family:arial,sans-serif; font-size:12px; fill:#000000; }
]]></style>
<defs>
<g id="hintbox"><rect x="0" y="0" width="77" height="34" style="stroke:#505050; stroke-width:1px; fill:rgba(255,255,255,0.87);" /><text id="hint0" x="4" y="14"> </text><text x="7" y="28"></text><text id="hint1" x="73" y="28" style="text-anchor:end;"> </text></g>
<g id="hintline"><line x1="0" y1="-240" x2="0" y2="0" class="axes" style="stroke-dasharray:2 1" /></g>
</defs>
<script><![CDATA[
function shb(x,y,dat) {
ar=dat.split(' '); for (i=0; i<ar.length; ++i) { if (i&&ar[i]) ar[i]+=' грн.'; h=document.getElementById('hint'+i); h.textContent=ar[i]; }
u=document.getElementById('usebox'); u.setAttribute('x',x); u.setAttribute('y',y); u.setAttribute('style','visibility:visible;'); }
function hhb() { u=document.getElementById('usebox'); u.setAttribute('style','visibility:hidden;'); u.setAttribute('x','0'); u.setAttribute('y','0'); }
function shl(x) { u=document.getElementById('useline'); u.setAttribute('x',x); u.setAttribute('style','visibility:visible;'); }
function hhl() { u=document.getElementById('useline'); u.setAttribute('style','visibility:hidden;'); u.setAttribute('x','0'); }
function sh(xl,xb,y,dat) { shl(xl); shb(xb,y,dat); }
function hh() { hhb(); hhl(); }
]]></script>
<rect x="-48" y="-272" width="750" height="330" class="bg" />
<line x1="17" y1="0" x2="17" y2="4" class="axes" /><text x="22" y="8" transform="rotate(-90,22,8)" style="text-anchor:end;">04.2017</text><line x1="44" y1="0" x2="44" y2="4" class="axes" /><text x="49" y="8" transform="rotate(-90,49,8)" style="text-anchor:end;">07.2017</text><line x1="71" y1="0" x2="71" y2="4" class="axes" /><text x="76" y="8" transform="rotate(-90,76,8)" style="text-anchor:end;">10.2017</text><line x1="98" y1="0" x2="98" y2="4" class="axes" /><text x="103" y="8" transform="rotate(-90,103,8)" style="text-anchor:end;">01.2018</text><line x1="125" y1="0" x2="125" y2="4" class="axes" /><text x="130" y="8" transform="rotate(-90,130,8)" style="text-anchor:end;">04.2018</text><line x1="152" y1="0" x2="152" y2="4" class="axes" /><text x="157" y="8" transform="rotate(-90,157,8)" style="text-anchor:end;">07.2018</text><line x1="179" y1="0" x2="179" y2="4" class="axes" /><text x="184" y="8" transform="rotate(-90,184,8)" style="text-anchor:end;">10.2018</text><line x1="206" y1="0" x2="206" y2="4" class="axes" /><text x="211" y="8" transform="rotate(-90,211,8)" style="text-anchor:end;">01.2019</text><line x1="233" y1="0" x2="233" y2="4" class="axes" /><text x="238" y="8" transform="rotate(-90,238,8)" style="text-anchor:end;">04.2019</text><line x1="260" y1="0" x2="260" y2="4" class="axes" /><text x="265" y="8" transform="rotate(-90,265,8)" style="text-anchor:end;">07.2019</text><line x1="287" y1="0" x2="287" y2="4" class="axes" /><text x="292" y="8" transform="rotate(-90,292,8)" style="text-anchor:end;">10.2019</text><line x1="314" y1="0" x2="314" y2="4" class="axes" /><text x="319" y="8" transform="rotate(-90,319,8)" style="text-anchor:end;">01.2020</text><line x1="341" y1="0" x2="341" y2="4" class="axes" /><text x="346" y="8" transform="rotate(-90,346,8)" style="text-anchor:end;">04.2020</text><line x1="368" y1="0" x2="368" y2="4" class="axes" /><text x="373" y="8" transform="rotate(-90,373,8)" style="text-anchor:end;">07.2020</text><line x1="395" y1="0" x2="395" y2="4" class="axes" /><text x="400" y="8" transform="rotate(-90,400,8)" style="text-anchor:end;">10.2020</text><line x1="422" y1="0" x2="422" y2="4" class="axes" /><text x="427" y="8" transform="rotate(-90,427,8)" style="text-anchor:end;">01.2021</text><line x1="449" y1="0" x2="449" y2="4" class="axes" /><text x="454" y="8" transform="rotate(-90,454,8)" style="text-anchor:end;">04.2021</text><line x1="476" y1="0" x2="476" y2="4" class="axes" /><text x="481" y="8" transform="rotate(-90,481,8)" style="text-anchor:end;">07.2021</text><line x1="503" y1="0" x2="503" y2="4" class="axes" /><text x="508" y="8" transform="rotate(-90,508,8)" style="text-anchor:end;">10.2021</text><line x1="530" y1="0" x2="530" y2="4" class="axes" /><text x="535" y="8" transform="rotate(-90,535,8)" style="text-anchor:end;">01.2022</text><line x1="557" y1="0" x2="557" y2="4" class="axes" /><text x="562" y="8" transform="rotate(-90,562,8)" style="text-anchor:end;">04.2022</text><line x1="584" y1="0" x2="584" y2="4" class="axes" /><text x="589" y="8" transform="rotate(-90,589,8)" style="text-anchor:end;">07.2022</text><line x1="611" y1="0" x2="611" y2="4" class="axes" /><text x="616" y="8" transform="rotate(-90,616,8)" style="text-anchor:end;">10.2022</text><line x1="638" y1="0" x2="638" y2="4" class="axes" /><text x="643" y="8" transform="rotate(-90,643,8)" style="text-anchor:end;">01.2023</text><line x1="665" y1="0" x2="665" y2="4" class="axes" /><text x="670" y="8" transform="rotate(-90,670,8)" style="text-anchor:end;">04.2023</text>
<line x1="0" y1="-24" x2="690" y2="-24" class="grid" /><line x1="0" y1="-24" x2="-4" y2="-24" class="axes" /><text x="-8" y="-20" style="text-anchor:end;">6</text><line x1="0" y1="-48" x2="690" y2="-48" class="grid" /><line x1="0" y1="-48" x2="-4" y2="-48" class="axes" /><text x="-8" y="-44" style="text-anchor:end;">8</text><line x1="0" y1="-72" x2="690" y2="-72" class="grid" /><line x1="0" y1="-72" x2="-4" y2="-72" class="axes" /><text x="-8" y="-68" style="text-anchor:end;">10</text><line x1="0" y1="-96" x2="690" y2="-96" class="grid" /><line x1="0" y1="-96" x2="-4" y2="-96" class="axes" /><text x="-8" y="-92" style="text-anchor:end;">12</text><line x1="0" y1="-120" x2="690" y2="-120" class="grid" /><line x1="0" y1="-120" x2="-4" y2="-120" class="axes" /><text x="-8" y="-116" style="text-anchor:end;">14</text><line x1="0" y1="-144" x2="690" y2="-144" class="grid" /><line x1="0" y1="-144" x2="-4" y2="-144" class="axes" /><text x="-8" y="-140" style="text-anchor:end;">16</text><line x1="0" y1="-168" x2="690" y2="-168" class="grid" /><line x1="0" y1="-168" x2="-4" y2="-168" class="axes" /><text x="-8" y="-164" style="text-anchor:end;">18</text><line x1="0" y1="-192" x2="690" y2="-192" class="grid" /><line x1="0" y1="-192" x2="-4" y2="-192" class="axes" /><text x="-8" y="-188" style="text-anchor:end;">20</text><line x1="0" y1="-216" x2="690" y2="-216" class="grid" /><line x1="0" y1="-216" x2="-4" y2="-216" class="axes" /><text x="-8" y="-212" style="text-anchor:end;">22</text><line x1="0" y1="-240" x2="690" y2="-240" class="grid" /><line x1="0" y1="-240" x2="-4" y2="-240" class="axes" /><text x="-8" y="-236" style="text-anchor:end;">24</text>
<use xlink:href="#hintline" id="useline" x="0" style="visibility:hidden;" />
<rect x="5" y="-240" width="6" height="240" style="fill:transparent;" onmouseover="sh(8,8,-246,'01.03.2017 8,85');" onmouseout="hh();" /><rect x="5" y="-58" width="6" height="58" style="fill:#0080C0;" onmouseover="sh(8,8,-246,'01.03.2017 8,85');" onmouseout="hh();" /><rect x="14" y="-240" width="6" height="240" style="fill:transparent;" onmouseover="sh(17,17,-246,'01.04.2017 8,90');" onmouseout="hh();" /><rect x="14" y="-59" width="6" height="59" style="fill:#0080C0;" onmouseover="sh(17,17,-246,'01.04.2017 8,90');" onmouseout="hh();" /><rect x="23" y="-240" width="6" height="240" style="fill:transparent;" onmouseover="sh(26,26,-246,'01.05.2017 8,79');" onmouseout="hh();" /><rect x="23" y="-58" width="6" height="58" style="fill:#0080C0;" onmouseover="sh(26,26,-246,'01.05.2017 8,79');" onmouseout="hh();" /><rect x="32" y="-240" width="6" height="240" style="fill:transparent;" onmouseover="sh(35,35,-246,'01.06.2017 9,86');" onmouseout="hh();" /><rect x="32" y="-70" width="6" height="70" style="fill:#0080C0;" onmouseover="sh(35,35,-246,'01.06.2017 9,86');" onmouseout="hh();" /><rect x="41" y="-240" width="6" height="240" style="fill:transparent;" onmouseover="sh(44,44,-246,'01.07.2017 10,04');" onmouseout="hh();" /><rect x="41" y="-72" width="6" height="72" style="fill:#0080C0;" onmouseover="sh(44,44,-246,'01.07.2017 10,04');" onmouseout="hh();" /><rect x="50" y="-240" width="6" height="240" style="fill:transparent;" onmouseover="sh(53,53,-246,'01.08.2017 9,73');" onmouseout="hh();" /><rect x="50" y="-69" width="6" height="69" style="fill:#0080C0;" onmouseover="sh(53,53,-246,'01.08.2017 9,73');" onmouseout="hh();" /><rect x="59" y="-240" width="6" height="240" style="fill:transparent;" onmouseover="sh(62,62,-246,'01.09.2017 10,00');" onmouseout="hh();" /><rect x="59" y="-72" width="6" height="72" style="fill:#0080C0;" onmouseover="sh(62,62,-246,'01.09.2017 10,00');" onmouseout="hh();" /><rect x="68" y="-240" width="6" height="240" style="fill:transparent;" onmouseover="sh(71,71,-246,'01.10.2017 9,39');" onmouseout="hh();" /><rect x="68" y="-65" width="6" height="65" style="fill:#0080C0;" onmouseover="sh(71,71,-246,'01.10.2017 9,39');" onmouseout="hh();" /><rect x="77" y="-240" width="6" height="240" style="fill:transparent;" onmouseover="sh(80,80,-246,'01.11.2017 9,49');" onmouseout="hh();" /><rect x="77" y="-66" width="6" height="66" style="fill:#0080C0;" onmouseover="sh(80,80,-246,'01.11.2017 9,49');" onmouseout="hh();" /><rect x="86" y="-240" width="6" height="240" style="fill:transparent;" onmouseover="sh(89,89,-246,'01.12.2017 9,59');" onmouseout="hh();" /><rect x="86" y="-67" width="6" height="67" style="fill:#0080C0;" onmouseover="sh(89,89,-246,'01.12.2017 9,59');" onmouseout="hh();" /><rect x="95" y="-240" width="6" height="240" style="fill:transparent;" onmouseover="sh(98,98,-246,'01.01.2018 10,46');" onmouseout="hh();" /><rect x="95" y="-78" width="6" height="78" style="fill:#0080C0;" onmouseover="sh(98,98,-246,'01.01.2018 10,46');" onmouseout="hh();" /><rect x="104" y="-240" width="6" height="240" style="fill:transparent;" onmouseover="sh(107,107,-246,'01.02.2018 10,88');" onmouseout="hh();" /><rect x="104" y="-83" width="6" height="83" style="fill:#0080C0;" onmouseover="sh(107,107,-246,'01.02.2018 10,88');" onmouseout="hh();" /><rect x="113" y="-240" width="6" height="240" style="fill:transparent;" onmouseover="sh(116,116,-246,'01.03.2018 10,11');" onmouseout="hh();" /><rect x="113" y="-73" width="6" height="73" style="fill:#0080C0;" onmouseover="sh(116,116,-246,'01.03.2018 10,11');" onmouseout="hh();" /><rect x="122" y="-240" width="6" height="240" style="fill:transparent;" onmouseover="sh(125,125,-246,'01.04.2018 10,42');" onmouseout="hh();" /><rect x="122" y="-77" width="6" height="77" style="fill:#0080C0;" onmouseover="sh(125,125,-246,'01.04.2018 10,42');" onmouseout="hh();" /><rect x="131" y="-240" width="6" height="240" style="fill:transparent;" onmouseover="sh(134,134,-246,'01.05.2018 10,95');" onmouseout="hh();" /><rect x="131" y="-83" width="6" height="83" style="fill:#0080C0;" onmouseover="sh(134,134,-246,'01.05.2018 10,95');" onmouseout="hh();" /><rect x="140" y="-240" width="6" height="240" style="fill:transparent;" onmouseover="sh(143,143,-246,'01.06.2018 11,03');" onmouseout="hh();" /><rect x="140" y="-84" width="6" height="84" style="fill:#0080C0;" onmouseover="sh(143,143,-246,'01.06.2018 11,03');" onmouseout="hh();" /><rect x="149" y="-240" width="6" height="240" style="fill:transparent;" onmouseover="sh(152,152,-246,'01.07.2018 10,81');" onmouseout="hh();" /><rect x="149" y="-82" width="6" height="82" style="fill:#0080C0;" onmouseover="sh(152,152,-246,'01.07.2018 10,81');" onmouseout="hh();" /><rect x="158" y="-240" width="6" height="240" style="fill:transparent;" onmouseover="sh(161,161,-246,'01.08.2018 10,84');" onmouseout="hh();" /><rect x="158" y="-82" width="6" height="82" style="fill:#0080C0;" onmouseover="sh(161,161,-246,'01.08.2018 10,84');" onmouseout="hh();" /><rect x="167" y="-240" width="6" height="240" style="fill:transparent;" onmouseover="sh(170,170,-246,'01.09.2018 11,76');" onmouseout="hh();" /><rect x="167" y="-93" width="6" height="93" style="fill:#0080C0;" onmouseover="sh(170,170,-246,'01.09.2018 11,76');" onmouseout="hh();" /><rect x="176" y="-240" width="6" height="240" style="fill:transparent;" onmouseover="sh(179,179,-246,'01.10.2018 11,24');" onmouseout="hh();" /><rect x="176" y="-87" width="6" height="87" style="fill:#0080C0;" onmouseover="sh(179,179,-246,'01.10.2018 11,24');" onmouseout="hh();" /><rect x="185" y="-240" width="6" height="240" style="fill:transparent;" onmouseover="sh(188,188,-246,'01.11.2018 10,83');" onmouseout="hh();" /><rect x="185" y="-82" width="6" height="82" style="fill:#0080C0;" onmouseover="sh(188,188,-246,'01.11.2018 10,83');" onmouseout="hh();" /><rect x="194" y="-240" width="6" height="240" style="fill:transparent;" onmouseover="sh(197,197,-246,'01.12.2018 11,75');" onmouseout="hh();" /><rect x="194" y="-93" width="6" height="93" style="fill:#0080C0;" onmouseover="sh(197,197,-246,'01.12.2018 11,75');" onmouseout="hh();" /><rect x="203" y="-240" width="6" height="240" style="fill:transparent;" onmouseover="sh(206,206,-246,'01.01.2019 11,38');" onmouseout="hh();" /><rect x="203" y="-89" width="6" height="89" style="fill:#0080C0;" onmouseover="sh(206,206,-246,'01.01.2019 11,38');" onmouseout="hh();" /><rect x="212" y="-240" width="6" height="240" style="fill:transparent;" onmouseover="sh(215,215,-246,'01.02.2019 10,96');" onmouseout="hh();" /><rect x="212" y="-83" width="6" height="83" style="fill:#0080C0;" onmouseover="sh(215,215,-246,'01.02.2019 10,96');" onmouseout="hh();" /><rect x="221" y="-240" width="6" height="240" style="fill:transparent;" onmouseover="sh(224,224,-246,'01.03.2019 11,33');" onmouseout="hh();" /><rect x="221" y="-88" width="6" height="88" style="fill:#0080C0;" onmouseover="sh(224,224,-246,'01.03.2019 11,33');" onmouseout="hh();" /><rect x="230" y="-240" width="6" height="240" style="fill:transparent;" onmouseover="sh(233,233,-246,'01.04.2019 11,13');" onmouseout="hh();" /><rect x="230" y="-86" width="6" height="86" style="fill:#0080C0;" onmouseover="sh(233,233,-246,'01.04.2019 11,13');" onmouseout="hh();" /><rect x="239" y="-240" width="6" height="240" style="fill:transparent;" onmouseover="sh(242,242,-246,'01.05.2019 11,54');" onmouseout="hh();" /><rect x="239" y="-90" width="6" height="90" style="fill:#0080C0;" onmouseover="sh(242,242,-246,'01.05.2019 11,54');" onmouseout="hh();" /><rect x="248" y="-240" width="6" height="240" style="fill:transparent;" onmouseover="sh(251,251,-246,'01.06.2019 11,55');" onmouseout="hh();" /><rect x="248" y="-91" width="6" height="91" style="fill:#0080C0;" onmouseover="sh(251,251,-246,'01.06.2019 11,55');" onmouseout="hh();" /><rect x="257" y="-240" width="6" height="240" style="fill:transparent;" onmouseover="sh(260,260,-246,'01.07.2019 11,59');" onmouseout="hh();" /><rect x="257" y="-91" width="6" height="91" style="fill:#0080C0;" onmouseover="sh(260,260,-246,'01.07.2019 11,59');" onmouseout="hh();" /><rect x="266" y="-240" width="6" height="240" style="fill:transparent;" onmouseover="sh(269,269,-246,'01.08.2019 12,19');" onmouseout="hh();" /><rect x="266" y="-98" width="6" height="98" style="fill:#0080C0;" onmouseover="sh(269,269,-246,'01.08.2019 12,19');" onmouseout="hh();" /><rect x="275" y="-240" width="6" height="240" style="fill:transparent;" onmouseover="sh(278,278,-246,'01.09.2019 11,51');" onmouseout="hh();" /><rect x="275" y="-90" width="6" height="90" style="fill:#0080C0;" onmouseover="sh(278,278,-246,'01.09.2019 11,51');" onmouseout="hh();" /><rect x="284" y="-240" width="6" height="240" style="fill:transparent;" onmouseover="sh(287,287,-246,'01.10.2019 12,55');" onmouseout="hh();" /><rect x="284" y="-103" width="6" height="103" style="fill:#0080C0;" onmouseover="sh(287,287,-246,'01.10.2019 12,55');" onmouseout="hh();" /><rect x="293" y="-240" width="6" height="240" style="fill:transparent;" onmouseover="sh(296,296,-246,'01.11.2019 12,40');" onmouseout="hh();" /><rect x="293" y="-101" width="6" height="101" style="fill:#0080C0;" onmouseover="sh(296,296,-246,'01.11.2019 12,40');" onmouseout="hh();" /><rect x="302" y="-240" width="6" height="240" style="fill:transparent;" onmouseover="sh(305,305,-246,'01.12.2019 12,56');" onmouseout="hh();" /><rect x="302" y="-103" width="6" height="103" style="fill:#0080C0;" onmouseover="sh(305,305,-246,'01.12.2019 12,56');" onmouseout="hh();" /><rect x="311" y="-240" width="6" height="240" style="fill:transparent;" onmouseover="sh(314,314,-246,'01.01.2020 13,02');" onmouseout="hh();" /><rect x="311" y="-108" width="6" height="108" style="fill:#0080C0;" onmouseover="sh(314,314,-246,'01.01.2020 13,02');" onmouseout="hh();" /><rect x="320" y="-240" width="6" height="240" style="fill:transparent;" onmouseover="sh(323,323,-246,'01.02.2020 13,22');" onmouseout="hh();" /><rect x="320" y="-111" width="6" height="111" style="fill:#0080C0;" onmouseover="sh(323,323,-246,'01.02.2020 13,22');" onmouseout="hh();" /><rect x="329" y="-240" width="6" height="240" style="fill:transparent;" onmouseover="sh(332,332,-246,'01.03.2020 13,36');" onmouseout="hh();" /><rect x="329" y="-112" width="6" height="112" style="fill:#0080C0;" onmouseover="sh(332,332,-246,'01.03.2020 13,36');" onmouseout="hh();" /><rect x="338" y="-240" width="6" height="240" style="fill:transparent;" onmouseover="sh(341,341,-246,'01.04.2020 13,46');" onmouseout="hh();" /><rect x="338" y="-113" width="6" height="113" style="fill:#0080C0;" onmouseover="sh(341,341,-246,'01.04.2020 13,46');" onmouseout="hh();" /><rect x="347" y="-240" width="6" height="240" style="fill:transparent;" onmouseover="sh(350,350,-246,'01.05.2020 13,09');" onmouseout="hh();" /><rect x="347" y="-109" width="6" height="109" style="fill:#0080C0;" onmouseover="sh(350,350,-246,'01.05.2020 13,09');" onmouseout="hh();" /><rect x="356" y="-240" width="6" height="240" style="fill:transparent;" onmouseover="sh(359,359,-246,'01.06.2020 12,63');" onmouseout="hh();" /><rect x="356" y="-104" width="6" height="104" style="fill:#0080C0;" onmouseover="sh(359,359,-246,'01.06.2020 12,63');" onmouseout="hh();" /><rect x="365" y="-240" width="6" height="240" style="fill:transparent;" onmouseover="sh(368,368,-246,'01.07.2020 13,12');" onmouseout="hh();" /><rect x="365" y="-109" width="6" height="109" style="fill:#0080C0;" onmouseover="sh(368,368,-246,'01.07.2020 13,12');" onmouseout="hh();" /><rect x="374" y="-240" width="6" height="240" style="fill:transparent;" onmouseover="sh(377,377,-246,'01.08.2020 13,21');" onmouseout="hh();" /><rect x="374" y="-111" width="6" height="111" style="fill:#0080C0;" onmouseover="sh(377,377,-246,'01.08.2020 13,21');" onmouseout="hh();" /><rect x="383" y="-240" width="6" height="240" style="fill:transparent;" onmouseover="sh(386,386,-246,'01.09.2020 13,45');" onmouseout="hh();" /><rect x="383" y="-113" width="6" height="113" style="fill:#0080C0;" onmouseover="sh(386,386,-246,'01.09.2020 13,45');" onmouseout="hh();" /><rect x="392" y="-240" width="6" height="240" style="fill:transparent;" onmouseover="sh(395,395,-246,'01.10.2020 13,67');" onmouseout="hh();" /><rect x="392" y="-116" width="6" height="116" style="fill:#0080C0;" onmouseover="sh(395,395,-246,'01.10.2020 13,67');" onmouseout="hh();" /><rect x="401" y="-240" width="6" height="240" style="fill:transparent;" onmouseover="sh(404,404,-246,'01.11.2020 13,56');" onmouseout="hh();" /><rect x="401" y="-115" width="6" height="115" style="fill:#0080C0;" onmouseover="sh(404,404,-246,'01.11.2020 13,56');" onmouseout="hh();" /><rect x="410" y="-240" width="6" height="240" style="fill:transparent;" onmouseover="sh(413,413,-246,'01.12.2020 13,23');" onmouseout="hh();" /><rect x="410" y="-111" width="6" height="111" style="fill:#0080C0;" onmouseover="sh(413,413,-246,'01.12.2020 13,23');" onmouseout="hh();" /><rect x="419" y="-240" width="6" height="240" style="fill:transparent;" onmouseover="sh(422,422,-246,'01.01.2021 13,49');" onmouseout="hh();" /><rect x="419" y="-114" width="6" height="114" style="fill:#0080C0;" onmouseover="sh(422,422,-246,'01.01.2021 13,49');" onmouseout="hh();" /><rect x="428" y="-240" width="6" height="240" style="fill:transparent;" onmouseover="sh(431,431,-246,'01.02.2021 14,03');" onmouseout="hh();" /><rect x="428" y="-120" width="6" height="120" style="fill:#0080C0;" onmouseover="sh(431,431,-246,'01.02.2021 14,03');" onmouseout="hh();" /><rect x="437" y="-240" width="6" height="240" style="fill:transparent;" onmouseover="sh(440,440,-246,'01.03.2021 14,20');" onmouseout="hh();" /><rect x="437" y="-122" width="6" height="122" style="fill:#0080C0;" onmouseover="sh(440,440,-246,'01.03.2021 14,20');" onmouseout="hh();" /><rect x="446" y="-240" width="6" height="240" style="fill:transparent;" onmouseover="sh(449,449,-246,'01.04.2021 13,19');" onmouseout="hh();" /><rect x="446" y="-110" width="6" height="110" style="fill:#0080C0;" onmouseover="sh(449,449,-246,'01.04.2021 13,19');" onmouseout="hh();" /><rect x="455" y="-240" width="6" height="240" style="fill:transparent;" onmouseover="sh(458,458,-246,'01.05.2021 13,53');" onmouseout="hh();" /><rect x="455" y="-114" width="6" height="114" style="fill:#0080C0;" onmouseover="sh(458,458,-246,'01.05.2021 13,53');" onmouseout="hh();" /><rect x="464" y="-240" width="6" height="240" style="fill:transparent;" onmouseover="sh(467,467,-246,'01.06.2021 13,51');" onmouseout="hh();" /><rect x="464" y="-114" width="6" height="114" style="fill:#0080C0;" onmouseover="sh(467,467,-246,'01.06.2021 13,51');" onmouseout="hh();" /><rect x="473" y="-240" width="6" height="240" style="fill:transparent;" onmouseover="sh(476,476,-246,'01.07.2021 13,99');" onmouseout="hh();" /><rect x="473" y="-120" width="6" height="120" style="fill:#0080C0;" onmouseover="sh(476,476,-246,'01.07.2021 13,99');" onmouseout="hh();" /><rect x="482" y="-240" width="6" height="240" style="fill:transparent;" onmouseover="sh(485,485,-246,'01.08.2021 13,99');" onmouseout="hh();" /><rect x="482" y="-120" width="6" height="120" style="fill:#0080C0;" onmouseover="sh(485,485,-246,'01.08.2021 13,99');" onmouseout="hh();" /><rect x="491" y="-240" width="6" height="240" style="fill:transparent;" onmouseover="sh(494,494,-246,'01.09.2021 14,19');" onmouseout="hh();" /><rect x="491" y="-122" width="6" height="122" style="fill:#0080C0;" onmouseover="sh(494,494,-246,'01.09.2021 14,19');" onmouseout="hh();" /><rect x="500" y="-240" width="6" height="240" style="fill:transparent;" onmouseover="sh(503,503,-246,'01.10.2021 14,07');" onmouseout="hh();" /><rect x="500" y="-121" width="6" height="121" style="fill:#0080C0;" onmouseover="sh(503,503,-246,'01.10.2021 14,07');" onmouseout="hh();" /><rect x="509" y="-240" width="6" height="240" style="fill:transparent;" onmouseover="sh(512,512,-246,'01.11.2021 14,30');" onmouseout="hh();" /><rect x="509" y="-124" width="6" height="124" style="fill:#0080C0;" onmouseover="sh(512,512,-246,'01.11.2021 14,30');" onmouseout="hh();" /><rect x="518" y="-240" width="6" height="240" style="fill:transparent;" onmouseover="sh(521,521,-246,'01.12.2021 13,91');" onmouseout="hh();" /><rect x="518" y="-119" width="6" height="119" style="fill:#0080C0;" onmouseover="sh(521,521,-246,'01.12.2021 13,91');" onmouseout="hh();" /><rect x="527" y="-240" width="6" height="240" style="fill:transparent;" onmouseover="sh(530,530,-246,'01.01.2022 14,24');" onmouseout="hh();" /><rect x="527" y="-123" width="6" height="123" style="fill:#0080C0;" onmouseover="sh(530,530,-246,'01.01.2022 14,24');" onmouseout="hh();" /><rect x="536" y="-240" width="6" height="240" style="fill:transparent;" onmouseover="sh(539,539,-246,'01.02.2022 14,06');" onmouseout="hh();" /><rect x="536" y="-121" width="6" height="121" style="fill:#0080C0;" onmouseover="sh(539,539,-246,'01.02.2022 14,06');" onmouseout="hh();" /><rect x="545" y="-240" width="6" height="240" style="fill:transparent;" onmouseover="sh(548,548,-246,'01.03.2022 13,94');" onmouseout="hh();" /><rect x="545" y="-119" width="6" height="119" style="fill:#0080C0;" onmouseover="sh(548,548,-246,'01.03.2022 13,94');" onmouseout="hh();" /><rect x="554" y="-240" width="6" height="240" style="fill:transparent;" onmouseover="sh(557,557,-246,'01.04.2022 14,47');" onmouseout="hh();" /><rect x="554" y="-126" width="6" height="126" style="fill:#0080C0;" onmouseover="sh(557,557,-246,'01.04.2022 14,47');" onmouseout="hh();" /><rect x="563" y="-240" width="6" height="240" style="fill:transparent;" onmouseover="sh(566,566,-246,'01.05.2022 15,56');" onmouseout="hh();" /><rect x="563" y="-139" width="6" height="139" style="fill:#0080C0;" onmouseover="sh(566,566,-246,'01.05.2022 15,56');" onmouseout="hh();" /><rect x="572" y="-240" width="6" height="240" style="fill:transparent;" onmouseover="sh(575,575,-246,'01.06.2022 16,49');" onmouseout="hh();" /><rect x="572" y="-150" width="6" height="150" style="fill:#0080C0;" onmouseover="sh(575,575,-246,'01.06.2022 16,49');" onmouseout="hh();" /><rect x="581" y="-240" width="6" height="240" style="fill:transparent;" onmouseover="sh(584,584,-246,'01.07.2022 17,00');" onmouseout="hh();" /><rect x="581" y="-156" width="6" height="156" style="fill:#0080C0;" onmouseover="sh(584,584,-246,'01.07.2022 17,00');" onmouseout="hh();" /><rect x="590" y="-240" width="6" height="240" style="fill:transparent;" onmouseover="sh(593,593,-246,'01.08.2022 18,33');" onmouseout="hh();" /><rect x="590" y="-172" width="6" height="172" style="fill:#0080C0;" onmouseover="sh(593,593,-246,'01.08.2022 18,33');" onmouseout="hh();" /><rect x="599" y="-240" width="6" height="240" style="fill:transparent;" onmouseover="sh(602,602,-246,'01.09.2022 19,87');" onmouseout="hh();" /><rect x="599" y="-190" width="6" height="190" style="fill:#0080C0;" onmouseover="sh(602,602,-246,'01.09.2022 19,87');" onmouseout="hh();" /><rect x="608" y="-240" width="6" height="240" style="fill:transparent;" onmouseover="sh(611,611,-246,'01.10.2022 18,79');" onmouseout="hh();" /><rect x="608" y="-177" width="6" height="177" style="fill:#0080C0;" onmouseover="sh(611,611,-246,'01.10.2022 18,79');" onmouseout="hh();" /><rect x="617" y="-240" width="6" height="240" style="fill:transparent;" onmouseover="sh(620,620,-246,'01.11.2022 19,86');" onmouseout="hh();" /><rect x="617" y="-190" width="6" height="190" style="fill:#0080C0;" onmouseover="sh(620,620,-246,'01.11.2022 19,86');" onmouseout="hh();" /><rect x="626" y="-240" width="6" height="240" style="fill:transparent;" onmouseover="sh(629,623,-246,'01.12.2022 20,36');" onmouseout="hh();" /><rect x="626" y="-196" width="6" height="196" style="fill:#0080C0;" onmouseover="sh(629,623,-246,'01.12.2022 20,36');" onmouseout="hh();" /><rect x="635" y="-240" width="6" height="240" style="fill:transparent;" onmouseover="sh(638,623,-246,'01.01.2023 19,64');" onmouseout="hh();" /><rect x="635" y="-188" width="6" height="188" style="fill:#0080C0;" onmouseover="sh(638,623,-246,'01.01.2023 19,64');" onmouseout="hh();" /><rect x="644" y="-240" width="6" height="240" style="fill:transparent;" onmouseover="sh(647,623,-246,'01.02.2023 19,93');" onmouseout="hh();" /><rect x="644" y="-191" width="6" height="191" style="fill:#0080C0;" onmouseover="sh(647,623,-246,'01.02.2023 19,93');" onmouseout="hh();" /><rect x="653" y="-240" width="6" height="240" style="fill:transparent;" onmouseover="sh(656,623,-246,'01.03.2023 20,23');" onmouseout="hh();" /><rect x="653" y="-195" width="6" height="195" style="fill:#0080C0;" onmouseover="sh(656,623,-246,'01.03.2023 20,23');" onmouseout="hh();" /><rect x="662" y="-240" width="6" height="240" style="fill:transparent;" onmouseover="sh(665,623,-246,'01.04.2023 19,48');" onmouseout="hh();" /><rect x="662" y="-186" width="6" height="186" style="fill:#0080C0;" onmouseover="sh(665,623,-246,'01.04.2023 19,48');" onmouseout="hh();" /><rect x="671" y="-240" width="6" height="240" style="fill:transparent;" onmouseover="sh(674,623,-246,'01.05.2023 20,29');" onmouseout="hh();" /><rect x="671" y="-195" width="6" height="195" style="fill:#0080C0;" onmouseover="sh(674,623,-246,'01.05.2023 20,29');" onmouseout="hh();" /><rect x="680" y="-240" width="6" height="240" style="fill:transparent;" onmouseover="sh(683,623,-246,'01.06.2023 20,24');" onmouseout="hh();" /><rect x="680" y="-195" width="6" height="195" style="fill:#0080C0;" onmouseover="sh(683,623,-246,'01.06.2023 20,24');" onmouseout="hh();" />
<line x1="-6" y1="0" x2="693" y2="0" class="axes" /><line x1="0" y1="-256" x2="0" y2="0" class="axes" /><text x="-2" y="-260" style="text-anchor:end;">грн.</text>
<use xlink:href="#hintbox" id="usebox" x="0" y="0" style="visibility:hidden;" />
</svg>
