<?xml version="1.0" encoding="UTF-8" standalone="no"?>
<!DOCTYPE svg PUBLIC "-//W3C//DTD SVG 1.1//EN" "http://www.w3.org/Graphics/SVG/1.1/DTD/svg11.dtd">
<svg version="1.1" xmlns="http://www.w3.org/2000/svg" xmlns:xlink="http://www.w3.org/1999/xlink" xmlns:ev="http://www.w3.org/2001/xml-events" width="750" height="330" viewBox="-48 -272 750 330" preserveAspectRatio="none">
<style type="text/css"><![CDATA[
line { stroke-width:1px; }
line.axes { stroke:#505050; }
line.grid { stroke:#D8D8D8; }
rect.bg { fill:#FFFFFF; }
text { font-family:arial,sans-serif; font-size:12px; fill:#000000; }
]]></style>
<defs>
<g id="hintbox"><rect x="0" y="0" width="77" height="34" style="stroke:#505050; stroke-width:1px; fill:rgba(255,255,255,0.87);" /><text id="hint0" x="4" y="14"> </text><text x="7" y="28"></text><text id="hint1" x="73" y="28" style="text-anchor:end;"> </text></g>
<g id="hintline"><line x1="0" y1="-238" x2="0" y2="0" class="axes" style="stroke-dasharray:2 1" /></g>
</defs>
<script><![CDATA[
function shb(x,y,dat) {
ar=dat.split(' '); for (i=0; i<ar.length; ++i) { if (i&&ar[i]) ar[i]+=' грн.'; h=document.getElementById('hint'+i); h.textContent=ar[i]; }
u=document.getElementById('usebox'); u.setAttribute('x',x); u.setAttribute('y',y); u.setAttribute('style','visibility:visible;'); }
function hhb() { u=document.getElementById('usebox'); u.setAttribute('style','visibility:hidden;'); u.setAttribute('x','0'); u.setAttribute('y','0'); }
function shl(x) { u=document.getElementById('useline'); u.setAttribute('x',x); u.setAttribute('style','visibility:visible;'); }
function hhl() { u=document.getElementById('useline'); u.setAttribute('style','visibility:hidden;'); u.setAttribute('x','0'); }
function sh(xl,xb,y,dat) { shl(xl); shb(xb,y,dat); }
function hh() { hhb(); hhl(); }
]]></script>
<rect x="-48" y="-272" width="750" height="330" class="bg" />
<line x1="17" y1="0" x2="17" y2="4" class="axes" /><text x="22" y="8" transform="rotate(-90,22,8)" style="text-anchor:end;">04.2017</text><line x1="44" y1="0" x2="44" y2="4" class="axes" /><text x="49" y="8" transform="rotate(-90,49,8)" style="text-anchor:end;">07.2017</text><line x1="71" y1="0" x2="71" y2="4" class="axes" /><text x="76" y="8" transform="rotate(-90,76,8)" style="text-anchor:end;">10.2017</text><line x1="98" y1="0" x2="98" y2="4" class="axes" /><text x="103" y="8" transform="rotate(-90,103,8)" style="text-anchor:end;">01.2018</text><line x1="125" y1="0" x2="125" y2="4" class="axes" /><text x="130" y="8" transform="rotate(-90,130,8)" style="text-anchor:end;">04.2018</text><line x1="152" y1="0" x2="152" y2="4" class="axes" /><text x="157" y="8" transform="rotate(-90,157,8)" style="text-anchor:end;">07.2018</text><line x1="179" y1="0" x2="179" y2="4" class="axes" /><text x="184" y="8" transform="rotate(-90,184,8)" style="text-anchor:end;">10.2018</text><line x1="206" y1="0" x2="206" y2="4" class="axes" /><text x="211" y="8" transform="rotate(-90,211,8)" style="text-anchor:end;">01.2019</text><line x1="233" y1="0" x2="233" y2="4" class="axes" /><text x="238" y="8" transform="rotate(-90,238,8)" style="text-anchor:end;">04.2019</text><line x1="260" y1="0" x2="260" y2="4" class="axes" /><text x="265" y="8" transform="rotate(-90,265,8)" style="text-anchor:end;">07.2019</text><line x1="287" y1="0" x2="287" y2="4" class="axes" /><text x="292" y="8" transform="rotate(-90,292,8)" style="text-anchor:end;">10.2019</text><line x1="314" y1="0" x2="314" y2="4" class="axes" /><text x="319" y="8" transform="rotate(-90,319,8)" style="text-anchor:end;">01.2020</text><line x1="341" y1="0" x2="341" y2="4" class="axes" /><text x="346" y="8" transform="rotate(-90,346,8)" style="text-anchor:end;">04.2020</text><line x1="368" y1="0" x2="368" y2="4" class="axes" /><text x="373" y="8" transform="rotate(-90,373,8)" style="text-anchor:end;">07.2020</text><line x1="395" y1="0" x2="395" y2="4" class="axes" /><text x="400" y="8" transform="rotate(-90,400,8)" style="text-anchor:end;">10.2020</text><line x1="422" y1="0" x2="422" y2="4" class="axes" /><text x="427" y="8" transform="rotate(-90,427,8)" style="text-anchor:end;">01.2021</text><line x1="449" y1="0" x2="449" y2="4" class="axes" /><text x="454" y="8" transform="rotate(-90,454,8)" style="text-anchor:end;">04.2021</text><line x1="476" y1="0" x2="476" y2="4" class="axes" /><text x="481" y="8" transform="rotate(-90,481,8)" style="text-anchor:end;">07.2021</text><line x1="503" y1="0" x2="503" y2="4" class="axes" /><text x="508" y="8" transform="rotate(-90,508,8)" style="text-anchor:end;">10.2021</text><line x1="530" y1="0" x2="530" y2="4" class="axes" /><text x="535" y="8" transform="rotate(-90,535,8)" style="text-anchor:end;">01.2022</text><line x1="557" y1="0" x2="557" y2="4" class="axes" /><text x="562" y="8" transform="rotate(-90,562,8)" style="text-anchor:end;">04.2022</text><line x1="584" y1="0" x2="584" y2="4" class="axes" /><text x="589" y="8" transform="rotate(-90,589,8)" style="text-anchor:end;">07.2022</text><line x1="611" y1="0" x2="611" y2="4" class="axes" /><text x="616" y="8" transform="rotate(-90,616,8)" style="text-anchor:end;">10.2022</text><line x1="638" y1="0" x2="638" y2="4" class="axes" /><text x="643" y="8" transform="rotate(-90,643,8)" style="text-anchor:end;">01.2023</text><line x1="665" y1="0" x2="665" y2="4" class="axes" /><text x="670" y="8" transform="rotate(-90,670,8)" style="text-anchor:end;">04.2023</text>
<line x1="0" y1="-17" x2="690" y2="-17" class="grid" /><line x1="0" y1="-17" x2="-4" y2="-17" class="axes" /><text x="-8" y="-13" style="text-anchor:end;">40</text><line x1="0" y1="-34" x2="690" y2="-34" class="grid" /><line x1="0" y1="-34" x2="-4" y2="-34" class="axes" /><text x="-8" y="-30" style="text-anchor:end;">50</text><line x1="0" y1="-51" x2="690" y2="-51" class="grid" /><line x1="0" y1="-51" x2="-4" y2="-51" class="axes" /><text x="-8" y="-47" style="text-anchor:end;">60</text><line x1="0" y1="-68" x2="690" y2="-68" class="grid" /><line x1="0" y1="-68" x2="-4" y2="-68" class="axes" /><text x="-8" y="-64" style="text-anchor:end;">70</text><line x1="0" y1="-85" x2="690" y2="-85" class="grid" /><line x1="0" y1="-85" x2="-4" y2="-85" class="axes" /><text x="-8" y="-81" style="text-anchor:end;">80</text><line x1="0" y1="-102" x2="690" y2="-102" class="grid" /><line x1="0" y1="-102" x2="-4" y2="-102" class="axes" /><text x="-8" y="-98" style="text-anchor:end;">90</text><line x1="0" y1="-119" x2="690" y2="-119" class="grid" /><line x1="0" y1="-119" x2="-4" y2="-119" class="axes" /><text x="-8" y="-115" style="text-anchor:end;">100</text><line x1="0" y1="-136" x2="690" y2="-136" class="grid" /><line x1="0" y1="-136" x2="-4" y2="-136" class="axes" /><text x="-8" y="-132" style="text-anchor:end;">110</text><line x1="0" y1="-153" x2="690" y2="-153" class="grid" /><line x1="0" y1="-153" x2="-4" y2="-153" class="axes" /><text x="-8" y="-149" style="text-anchor:end;">120</text><line x1="0" y1="-170" x2="690" y2="-170" class="grid" /><line x1="0" y1="-170" x2="-4" y2="-170" class="axes" /><text x="-8" y="-166" style="text-anchor:end;">130</text><line x1="0" y1="-187" x2="690" y2="-187" class="grid" /><line x1="0" y1="-187" x2="-4" y2="-187" class="axes" /><text x="-8" y="-183" style="text-anchor:end;">140</text><line x1="0" y1="-204" x2="690" y2="-204" class="grid" /><line x1="0" y1="-204" x2="-4" y2="-204" class="axes" /><text x="-8" y="-200" style="text-anchor:end;">150</text><line x1="0" y1="-221" x2="690" y2="-221" class="grid" /><line x1="0" y1="-221" x2="-4" y2="-221" class="axes" /><text x="-8" y="-217" style="text-anchor:end;">160</text><line x1="0" y1="-238" x2="690" y2="-238" class="grid" /><line x1="0" y1="-238" x2="-4" y2="-238" class="axes" /><text x="-8" y="-234" style="text-anchor:end;">170</text>
<use xlink:href="#hintline" id="useline" x="0" style="visibility:hidden;" />
<rect x="5" y="-238" width="6" height="238" style="fill:transparent;" onmouseover="sh(8,8,-244,'01.03.2017 62,89');" onmouseout="hh();" /><rect x="5" y="-56" width="6" height="56" style="fill:#0080C0;" onmouseover="sh(8,8,-244,'01.03.2017 62,89');" onmouseout="hh();" /><rect x="14" y="-238" width="6" height="238" style="fill:transparent;" onmouseover="sh(17,17,-244,'01.04.2017 62,74');" onmouseout="hh();" /><rect x="14" y="-56" width="6" height="56" style="fill:#0080C0;" onmouseover="sh(17,17,-244,'01.04.2017 62,74');" onmouseout="hh();" /><rect x="23" y="-238" width="6" height="238" style="fill:transparent;" onmouseover="sh(26,26,-244,'01.05.2017 61,44');" onmouseout="hh();" /><rect x="23" y="-53" width="6" height="53" style="fill:#0080C0;" onmouseover="sh(26,26,-244,'01.05.2017 61,44');" onmouseout="hh();" /><rect x="32" y="-238" width="6" height="238" style="fill:transparent;" onmouseover="sh(35,35,-244,'01.06.2017 57,94');" onmouseout="hh();" /><rect x="32" y="-48" width="6" height="48" style="fill:#0080C0;" onmouseover="sh(35,35,-244,'01.06.2017 57,94');" onmouseout="hh();" /><rect x="41" y="-238" width="6" height="238" style="fill:transparent;" onmouseover="sh(44,44,-244,'01.07.2017 59,69');" onmouseout="hh();" /><rect x="41" y="-50" width="6" height="50" style="fill:#0080C0;" onmouseover="sh(44,44,-244,'01.07.2017 59,69');" onmouseout="hh();" /><rect x="50" y="-238" width="6" height="238" style="fill:transparent;" onmouseover="sh(53,53,-244,'01.08.2017 55,86');" onmouseout="hh();" /><rect x="50" y="-44" width="6" height="44" style="fill:#0080C0;" onmouseover="sh(53,53,-244,'01.08.2017 55,86');" onmouseout="hh();" /><rect x="59" y="-238" width="6" height="238" style="fill:transparent;" onmouseover="sh(62,62,-244,'01.09.2017 54,29');" onmouseout="hh();" /><rect x="59" y="-41" width="6" height="41" style="fill:#0080C0;" onmouseover="sh(62,62,-244,'01.09.2017 54,29');" onmouseout="hh();" /><rect x="68" y="-238" width="6" height="238" style="fill:transparent;" onmouseover="sh(71,71,-244,'01.10.2017 57,93');" onmouseout="hh();" /><rect x="68" y="-47" width="6" height="47" style="fill:#0080C0;" onmouseover="sh(71,71,-244,'01.10.2017 57,93');" onmouseout="hh();" /><rect x="77" y="-238" width="6" height="238" style="fill:transparent;" onmouseover="sh(80,80,-244,'01.11.2017 54,94');" onmouseout="hh();" /><rect x="77" y="-42" width="6" height="42" style="fill:#0080C0;" onmouseover="sh(80,80,-244,'01.11.2017 54,94');" onmouseout="hh();" /><rect x="86" y="-238" width="6" height="238" style="fill:transparent;" onmouseover="sh(89,89,-244,'01.12.2017 53,63');" onmouseout="hh();" /><rect x="86" y="-40" width="6" height="40" style="fill:#0080C0;" onmouseover="sh(89,89,-244,'01.12.2017 53,63');" onmouseout="hh();" /><rect x="95" y="-238" width="6" height="238" style="fill:transparent;" onmouseover="sh(98,98,-244,'01.01.2018 56,85');" onmouseout="hh();" /><rect x="95" y="-46" width="6" height="46" style="fill:#0080C0;" onmouseover="sh(98,98,-244,'01.01.2018 56,85');" onmouseout="hh();" /><rect x="104" y="-238" width="6" height="238" style="fill:transparent;" onmouseover="sh(107,107,-244,'01.02.2018 61,78');" onmouseout="hh();" /><rect x="104" y="-54" width="6" height="54" style="fill:#0080C0;" onmouseover="sh(107,107,-244,'01.02.2018 61,78');" onmouseout="hh();" /><rect x="113" y="-238" width="6" height="238" style="fill:transparent;" onmouseover="sh(116,116,-244,'01.03.2018 65,39');" onmouseout="hh();" /><rect x="113" y="-60" width="6" height="60" style="fill:#0080C0;" onmouseover="sh(116,116,-244,'01.03.2018 65,39');" onmouseout="hh();" /><rect x="122" y="-238" width="6" height="238" style="fill:transparent;" onmouseover="sh(125,125,-244,'01.04.2018 65,92');" onmouseout="hh();" /><rect x="122" y="-61" width="6" height="61" style="fill:#0080C0;" onmouseover="sh(125,125,-244,'01.04.2018 65,92');" onmouseout="hh();" /><rect x="131" y="-238" width="6" height="238" style="fill:transparent;" onmouseover="sh(134,134,-244,'01.05.2018 67,55');" onmouseout="hh();" /><rect x="131" y="-64" width="6" height="64" style="fill:#0080C0;" onmouseover="sh(134,134,-244,'01.05.2018 67,55');" onmouseout="hh();" /><rect x="140" y="-238" width="6" height="238" style="fill:transparent;" onmouseover="sh(143,143,-244,'01.06.2018 69,58');" onmouseout="hh();" /><rect x="140" y="-67" width="6" height="67" style="fill:#0080C0;" onmouseover="sh(143,143,-244,'01.06.2018 69,58');" onmouseout="hh();" /><rect x="149" y="-238" width="6" height="238" style="fill:transparent;" onmouseover="sh(152,152,-244,'01.07.2018 65,28');" onmouseout="hh();" /><rect x="149" y="-60" width="6" height="60" style="fill:#0080C0;" onmouseover="sh(152,152,-244,'01.07.2018 65,28');" onmouseout="hh();" /><rect x="158" y="-238" width="6" height="238" style="fill:transparent;" onmouseover="sh(161,161,-244,'01.08.2018 68,71');" onmouseout="hh();" /><rect x="158" y="-66" width="6" height="66" style="fill:#0080C0;" onmouseover="sh(161,161,-244,'01.08.2018 68,71');" onmouseout="hh();" /><rect x="167" y="-238" width="6" height="238" style="fill:transparent;" onmouseover="sh(170,170,-244,'01.09.2018 73,59');" onmouseout="hh();" /><rect x="167" y="-74" width="6" height="74" style="fill:#0080C0;" onmouseover="sh(170,170,-244,'01.09.2018 73,59');" onmouseout="hh();" /><rect x="176" y="-238" width="6" height="238" style="fill:transparent;" onmouseover="sh(179,179,-244,'01.10.2018 72,14');" onmouseout="hh();" /><rect x="176" y="-72" width="6" height="72" style="fill:#0080C0;" onmouseover="sh(179,179,-244,'01.10.2018 72,14');" onmouseout="hh();" /><rect x="185" y="-238" width="6" height="238" style="fill:transparent;" onmouseover="sh(188,188,-244,'01.11.2018 80,90');" onmouseout="hh();" /><rect x="185" y="-87" width="6" height="87" style="fill:#0080C0;" onmouseover="sh(188,188,-244,'01.11.2018 80,90');" onmouseout="hh();" /><rect x="194" y="-238" width="6" height="238" style="fill:transparent;" onmouseover="sh(197,197,-244,'01.12.2018 74,47');" onmouseout="hh();" /><rect x="194" y="-76" width="6" height="76" style="fill:#0080C0;" onmouseover="sh(197,197,-244,'01.12.2018 74,47');" onmouseout="hh();" /><rect x="203" y="-238" width="6" height="238" style="fill:transparent;" onmouseover="sh(206,206,-244,'01.01.2019 80,19');" onmouseout="hh();" /><rect x="203" y="-85" width="6" height="85" style="fill:#0080C0;" onmouseover="sh(206,206,-244,'01.01.2019 80,19');" onmouseout="hh();" /><rect x="212" y="-238" width="6" height="238" style="fill:transparent;" onmouseover="sh(215,215,-244,'01.02.2019 84,66');" onmouseout="hh();" /><rect x="212" y="-93" width="6" height="93" style="fill:#0080C0;" onmouseover="sh(215,215,-244,'01.02.2019 84,66');" onmouseout="hh();" /><rect x="221" y="-238" width="6" height="238" style="fill:transparent;" onmouseover="sh(224,224,-244,'01.03.2019 81,53');" onmouseout="hh();" /><rect x="221" y="-88" width="6" height="88" style="fill:#0080C0;" onmouseover="sh(224,224,-244,'01.03.2019 81,53');" onmouseout="hh();" /><rect x="230" y="-238" width="6" height="238" style="fill:transparent;" onmouseover="sh(233,233,-244,'01.04.2019 87,59');" onmouseout="hh();" /><rect x="230" y="-98" width="6" height="98" style="fill:#0080C0;" onmouseover="sh(233,233,-244,'01.04.2019 87,59');" onmouseout="hh();" /><rect x="239" y="-238" width="6" height="238" style="fill:transparent;" onmouseover="sh(242,242,-244,'01.05.2019 90,10');" onmouseout="hh();" /><rect x="239" y="-102" width="6" height="102" style="fill:#0080C0;" onmouseover="sh(242,242,-244,'01.05.2019 90,10');" onmouseout="hh();" /><rect x="248" y="-238" width="6" height="238" style="fill:transparent;" onmouseover="sh(251,251,-244,'01.06.2019 99,26');" onmouseout="hh();" /><rect x="248" y="-118" width="6" height="118" style="fill:#0080C0;" onmouseover="sh(251,251,-244,'01.06.2019 99,26');" onmouseout="hh();" /><rect x="257" y="-238" width="6" height="238" style="fill:transparent;" onmouseover="sh(260,260,-244,'01.07.2019 103,00');" onmouseout="hh();" /><rect x="257" y="-124" width="6" height="124" style="fill:#0080C0;" onmouseover="sh(260,260,-244,'01.07.2019 103,00');" onmouseout="hh();" /><rect x="266" y="-238" width="6" height="238" style="fill:transparent;" onmouseover="sh(269,269,-244,'01.08.2019 85,33');" onmouseout="hh();" /><rect x="266" y="-94" width="6" height="94" style="fill:#0080C0;" onmouseover="sh(269,269,-244,'01.08.2019 85,33');" onmouseout="hh();" /><rect x="275" y="-238" width="6" height="238" style="fill:transparent;" onmouseover="sh(278,278,-244,'01.09.2019 78,51');" onmouseout="hh();" /><rect x="275" y="-82" width="6" height="82" style="fill:#0080C0;" onmouseover="sh(278,278,-244,'01.09.2019 78,51');" onmouseout="hh();" /><rect x="284" y="-238" width="6" height="238" style="fill:transparent;" onmouseover="sh(287,287,-244,'01.10.2019 81,00');" onmouseout="hh();" /><rect x="284" y="-87" width="6" height="87" style="fill:#0080C0;" onmouseover="sh(287,287,-244,'01.10.2019 81,00');" onmouseout="hh();" /><rect x="293" y="-238" width="6" height="238" style="fill:transparent;" onmouseover="sh(296,296,-244,'01.11.2019 80,65');" onmouseout="hh();" /><rect x="293" y="-86" width="6" height="86" style="fill:#0080C0;" onmouseover="sh(296,296,-244,'01.11.2019 80,65');" onmouseout="hh();" /><rect x="302" y="-238" width="6" height="238" style="fill:transparent;" onmouseover="sh(305,305,-244,'01.12.2019 83,43');" onmouseout="hh();" /><rect x="302" y="-91" width="6" height="91" style="fill:#0080C0;" onmouseover="sh(305,305,-244,'01.12.2019 83,43');" onmouseout="hh();" /><rect x="311" y="-238" width="6" height="238" style="fill:transparent;" onmouseover="sh(314,314,-244,'01.01.2020 84,30');" onmouseout="hh();" /><rect x="311" y="-92" width="6" height="92" style="fill:#0080C0;" onmouseover="sh(314,314,-244,'01.01.2020 84,30');" onmouseout="hh();" /><rect x="320" y="-238" width="6" height="238" style="fill:transparent;" onmouseover="sh(323,323,-244,'01.02.2020 86,32');" onmouseout="hh();" /><rect x="320" y="-96" width="6" height="96" style="fill:#0080C0;" onmouseover="sh(323,323,-244,'01.02.2020 86,32');" onmouseout="hh();" /><rect x="329" y="-238" width="6" height="238" style="fill:transparent;" onmouseover="sh(332,332,-244,'01.03.2020 78,26');" onmouseout="hh();" /><rect x="329" y="-82" width="6" height="82" style="fill:#0080C0;" onmouseover="sh(332,332,-244,'01.03.2020 78,26');" onmouseout="hh();" /><rect x="338" y="-238" width="6" height="238" style="fill:transparent;" onmouseover="sh(341,341,-244,'01.04.2020 88,78');" onmouseout="hh();" /><rect x="338" y="-100" width="6" height="100" style="fill:#0080C0;" onmouseover="sh(341,341,-244,'01.04.2020 88,78');" onmouseout="hh();" /><rect x="347" y="-238" width="6" height="238" style="fill:transparent;" onmouseover="sh(350,350,-244,'01.05.2020 88,38');" onmouseout="hh();" /><rect x="347" y="-99" width="6" height="99" style="fill:#0080C0;" onmouseover="sh(350,350,-244,'01.05.2020 88,38');" onmouseout="hh();" /><rect x="356" y="-238" width="6" height="238" style="fill:transparent;" onmouseover="sh(359,359,-244,'01.06.2020 85,31');" onmouseout="hh();" /><rect x="356" y="-94" width="6" height="94" style="fill:#0080C0;" onmouseover="sh(359,359,-244,'01.06.2020 85,31');" onmouseout="hh();" /><rect x="365" y="-238" width="6" height="238" style="fill:transparent;" onmouseover="sh(368,368,-244,'01.07.2020 84,17');" onmouseout="hh();" /><rect x="365" y="-92" width="6" height="92" style="fill:#0080C0;" onmouseover="sh(368,368,-244,'01.07.2020 84,17');" onmouseout="hh();" /><rect x="374" y="-238" width="6" height="238" style="fill:transparent;" onmouseover="sh(377,377,-244,'01.08.2020 79,70');" onmouseout="hh();" /><rect x="374" y="-84" width="6" height="84" style="fill:#0080C0;" onmouseover="sh(377,377,-244,'01.08.2020 79,70');" onmouseout="hh();" /><rect x="383" y="-238" width="6" height="238" style="fill:transparent;" onmouseover="sh(386,386,-244,'01.09.2020 83,40');" onmouseout="hh();" /><rect x="383" y="-91" width="6" height="91" style="fill:#0080C0;" onmouseover="sh(386,386,-244,'01.09.2020 83,40');" onmouseout="hh();" /><rect x="392" y="-238" width="6" height="238" style="fill:transparent;" onmouseover="sh(395,395,-244,'01.10.2020 87,50');" onmouseout="hh();" /><rect x="392" y="-98" width="6" height="98" style="fill:#0080C0;" onmouseover="sh(395,395,-244,'01.10.2020 87,50');" onmouseout="hh();" /><rect x="401" y="-238" width="6" height="238" style="fill:transparent;" onmouseover="sh(404,404,-244,'01.11.2020 84,69');" onmouseout="hh();" /><rect x="401" y="-93" width="6" height="93" style="fill:#0080C0;" onmouseover="sh(404,404,-244,'01.11.2020 84,69');" onmouseout="hh();" /><rect x="410" y="-238" width="6" height="238" style="fill:transparent;" onmouseover="sh(413,413,-244,'01.12.2020 79,96');" onmouseout="hh();" /><rect x="410" y="-85" width="6" height="85" style="fill:#0080C0;" onmouseover="sh(413,413,-244,'01.12.2020 79,96');" onmouseout="hh();" /><rect x="419" y="-238" width="6" height="238" style="fill:transparent;" onmouseover="sh(422,422,-244,'01.01.2021 80,12');" onmouseout="hh();" /><rect x="419" y="-85" width="6" height="85" style="fill:#0080C0;" onmouseover="sh(422,422,-244,'01.01.2021 80,12');" onmouseout="hh();" /><rect x="428" y="-238" width="6" height="238" style="fill:transparent;" onmouseover="sh(431,431,-244,'01.02.2021 80,90');" onmouseout="hh();" /><rect x="428" y="-87" width="6" height="87" style="fill:#0080C0;" onmouseover="sh(431,431,-244,'01.02.2021 80,90');" onmouseout="hh();" /><rect x="437" y="-238" width="6" height="238" style="fill:transparent;" onmouseover="sh(440,440,-244,'01.03.2021 88,92');" onmouseout="hh();" /><rect x="437" y="-100" width="6" height="100" style="fill:#0080C0;" onmouseover="sh(440,440,-244,'01.03.2021 88,92');" onmouseout="hh();" /><rect x="446" y="-238" width="6" height="238" style="fill:transparent;" onmouseover="sh(449,449,-244,'01.04.2021 85,92');" onmouseout="hh();" /><rect x="446" y="-95" width="6" height="95" style="fill:#0080C0;" onmouseover="sh(449,449,-244,'01.04.2021 85,92');" onmouseout="hh();" /><rect x="455" y="-238" width="6" height="238" style="fill:transparent;" onmouseover="sh(458,458,-244,'01.05.2021 82,36');" onmouseout="hh();" /><rect x="455" y="-89" width="6" height="89" style="fill:#0080C0;" onmouseover="sh(458,458,-244,'01.05.2021 82,36');" onmouseout="hh();" /><rect x="464" y="-238" width="6" height="238" style="fill:transparent;" onmouseover="sh(467,467,-244,'01.06.2021 76,21');" onmouseout="hh();" /><rect x="464" y="-79" width="6" height="79" style="fill:#0080C0;" onmouseover="sh(467,467,-244,'01.06.2021 76,21');" onmouseout="hh();" /><rect x="473" y="-238" width="6" height="238" style="fill:transparent;" onmouseover="sh(476,476,-244,'01.07.2021 88,12');" onmouseout="hh();" /><rect x="473" y="-99" width="6" height="99" style="fill:#0080C0;" onmouseover="sh(476,476,-244,'01.07.2021 88,12');" onmouseout="hh();" /><rect x="482" y="-238" width="6" height="238" style="fill:transparent;" onmouseover="sh(485,485,-244,'01.08.2021 96,00');" onmouseout="hh();" /><rect x="482" y="-112" width="6" height="112" style="fill:#0080C0;" onmouseover="sh(485,485,-244,'01.08.2021 96,00');" onmouseout="hh();" /><rect x="491" y="-238" width="6" height="238" style="fill:transparent;" onmouseover="sh(494,494,-244,'01.09.2021 87,82');" onmouseout="hh();" /><rect x="491" y="-98" width="6" height="98" style="fill:#0080C0;" onmouseover="sh(494,494,-244,'01.09.2021 87,82');" onmouseout="hh();" /><rect x="500" y="-238" width="6" height="238" style="fill:transparent;" onmouseover="sh(503,503,-244,'01.10.2021 94,73');" onmouseout="hh();" /><rect x="500" y="-110" width="6" height="110" style="fill:#0080C0;" onmouseover="sh(503,503,-244,'01.10.2021 94,73');" onmouseout="hh();" /><rect x="509" y="-238" width="6" height="238" style="fill:transparent;" onmouseover="sh(512,512,-244,'01.11.2021 84,47');" onmouseout="hh();" /><rect x="509" y="-93" width="6" height="93" style="fill:#0080C0;" onmouseover="sh(512,512,-244,'01.11.2021 84,47');" onmouseout="hh();" /><rect x="518" y="-238" width="6" height="238" style="fill:transparent;" onmouseover="sh(521,521,-244,'01.12.2021 84,97');" onmouseout="hh();" /><rect x="518" y="-93" width="6" height="93" style="fill:#0080C0;" onmouseover="sh(521,521,-244,'01.12.2021 84,97');" onmouseout="hh();" /><rect x="527" y="-238" width="6" height="238" style="fill:transparent;" onmouseover="sh(530,530,-244,'01.01.2022 86,74');" onmouseout="hh();" /><rect x="527" y="-96" width="6" height="96" style="fill:#0080C0;" onmouseover="sh(530,530,-244,'01.01.2022 86,74');" onmouseout="hh();" /><rect x="536" y="-238" width="6" height="238" style="fill:transparent;" onmouseover="sh(539,539,-244,'01.02.2022 91,39');" onmouseout="hh();" /><rect x="536" y="-104" width="6" height="104" style="fill:#0080C0;" onmouseover="sh(539,539,-244,'01.02.2022 91,39');" onmouseout="hh();" /><rect x="545" y="-238" width="6" height="238" style="fill:transparent;" onmouseover="sh(548,548,-244,'01.03.2022 92,78');" onmouseout="hh();" /><rect x="545" y="-107" width="6" height="107" style="fill:#0080C0;" onmouseover="sh(548,548,-244,'01.03.2022 92,78');" onmouseout="hh();" /><rect x="554" y="-238" width="6" height="238" style="fill:transparent;" onmouseover="sh(557,557,-244,'01.04.2022 94,87');" onmouseout="hh();" /><rect x="554" y="-110" width="6" height="110" style="fill:#0080C0;" onmouseover="sh(557,557,-244,'01.04.2022 94,87');" onmouseout="hh();" /><rect x="563" y="-238" width="6" height="238" style="fill:transparent;" onmouseover="sh(566,566,-244,'01.05.2022 104,90');" onmouseout="hh();" /><rect x="563" y="-127" width="6" height="127" style="fill:#0080C0;" onmouseover="sh(566,566,-244,'01.05.2022 104,90');" onmouseout="hh();" /><rect x="572" y="-238" width="6" height="238" style="fill:transparent;" onmouseover="sh(575,575,-244,'01.06.2022 114,15');" onmouseout="hh();" /><rect x="572" y="-143" width="6" height="143" style="fill:#0080C0;" onmouseover="sh(575,575,-244,'01.06.2022 114,15');" onmouseout="hh();" /><rect x="581" y="-238" width="6" height="238" style="fill:transparent;" onmouseover="sh(584,584,-244,'01.07.2022 111,67');" onmouseout="hh();" /><rect x="581" y="-139" width="6" height="139" style="fill:#0080C0;" onmouseover="sh(584,584,-244,'01.07.2022 111,67');" onmouseout="hh();" /><rect x="590" y="-238" width="6" height="238" style="fill:transparent;" onmouseover="sh(593,593,-244,'01.08.2022 109,11');" onmouseout="hh();" /><rect x="590" y="-134" width="6" height="134" style="fill:#0080C0;" onmouseover="sh(593,593,-244,'01.08.2022 109,11');" onmouseout="hh();" /><rect x="599" y="-238" width="6" height="238" style="fill:transparent;" onmouseover="sh(602,602,-244,'01.09.2022 111,37');" onmouseout="hh();" /><rect x="599" y="-138" width="6" height="138" style="fill:#0080C0;" onmouseover="sh(602,602,-244,'01.09.2022 111,37');" onmouseout="hh();" /><rect x="608" y="-238" width="6" height="238" style="fill:transparent;" onmouseover="sh(611,611,-244,'01.10.2022 120,76');" onmouseout="hh();" /><rect x="608" y="-154" width="6" height="154" style="fill:#0080C0;" onmouseover="sh(611,611,-244,'01.10.2022 120,76');" onmouseout="hh();" /><rect x="617" y="-238" width="6" height="238" style="fill:transparent;" onmouseover="sh(620,620,-244,'01.11.2022 134,73');" onmouseout="hh();" /><rect x="617" y="-178" width="6" height="178" style="fill:#0080C0;" onmouseover="sh(620,620,-244,'01.11.2022 134,73');" onmouseout="hh();" /><rect x="626" y="-238" width="6" height="238" style="fill:transparent;" onmouseover="sh(629,623,-244,'01.12.2022 144,46');" onmouseout="hh();" /><rect x="626" y="-195" width="6" height="195" style="fill:#0080C0;" onmouseover="sh(629,623,-244,'01.12.2022 144,46');" onmouseout="hh();" /><rect x="635" y="-238" width="6" height="238" style="fill:transparent;" onmouseover="sh(638,623,-244,'01.01.2023 116,73');" onmouseout="hh();" /><rect x="635" y="-147" width="6" height="147" style="fill:#0080C0;" onmouseover="sh(638,623,-244,'01.01.2023 116,73');" onmouseout="hh();" /><rect x="644" y="-238" width="6" height="238" style="fill:transparent;" onmouseover="sh(647,623,-244,'01.02.2023 115,29');" onmouseout="hh();" /><rect x="644" y="-145" width="6" height="145" style="fill:#0080C0;" onmouseover="sh(647,623,-244,'01.02.2023 115,29');" onmouseout="hh();" /><rect x="653" y="-238" width="6" height="238" style="fill:transparent;" onmouseover="sh(656,623,-244,'01.03.2023 149,50');" onmouseout="hh();" /><rect x="653" y="-203" width="6" height="203" style="fill:#0080C0;" onmouseover="sh(656,623,-244,'01.03.2023 149,50');" onmouseout="hh();" /><rect x="662" y="-238" width="6" height="238" style="fill:transparent;" onmouseover="sh(665,623,-244,'01.04.2023 150,81');" onmouseout="hh();" /><rect x="662" y="-205" width="6" height="205" style="fill:#0080C0;" onmouseover="sh(665,623,-244,'01.04.2023 150,81');" onmouseout="hh();" /><rect x="671" y="-238" width="6" height="238" style="fill:transparent;" onmouseover="sh(674,623,-244,'01.05.2023 136,73');" onmouseout="hh();" /><rect x="671" y="-181" width="6" height="181" style="fill:#0080C0;" onmouseover="sh(674,623,-244,'01.05.2023 136,73');" onmouseout="hh();" /><rect x="680" y="-238" width="6" height="238" style="fill:transparent;" onmouseover="sh(683,623,-244,'01.06.2023 145,44');" onmouseout="hh();" /><rect x="680" y="-196" width="6" height="196" style="fill:#0080C0;" onmouseover="sh(683,623,-244,'01.06.2023 145,44');" onmouseout="hh();" />
<line x1="-6" y1="0" x2="693" y2="0" class="axes" /><line x1="0" y1="-254" x2="0" y2="0" class="axes" /><text x="-2" y="-258" style="text-anchor:end;">грн.</text>
<use xlink:href="#hintbox" id="usebox" x="0" y="0" style="visibility:hidden;" />
</svg>
