<?xml version="1.0" encoding="UTF-8" standalone="no"?>
<!DOCTYPE svg PUBLIC "-//W3C//DTD SVG 1.1//EN" "http://www.w3.org/Graphics/SVG/1.1/DTD/svg11.dtd">
<svg version="1.1" xmlns="http://www.w3.org/2000/svg" xmlns:xlink="http://www.w3.org/1999/xlink" xmlns:ev="http://www.w3.org/2001/xml-events" width="750" height="331" viewBox="-48 -273 750 331" preserveAspectRatio="none">
<style type="text/css"><![CDATA[
line { stroke-width:1px; }
line.axes { stroke:#505050; }
line.grid { stroke:#D8D8D8; }
rect.bg { fill:#FFFFFF; }
text { font-family:arial,sans-serif; font-size:12px; fill:#000000; }
]]></style>
<defs>
<g id="hintbox"><rect x="0" y="0" width="77" height="34" style="stroke:#505050; stroke-width:1px; fill:rgba(255,255,255,0.87);" /><text id="hint0" x="4" y="14"> </text><text x="7" y="28"></text><text id="hint1" x="73" y="28" style="text-anchor:end;"> </text></g>
<g id="hintline"><line x1="0" y1="-243" x2="0" y2="0" class="axes" style="stroke-dasharray:2 1" /></g>
</defs>
<script><![CDATA[
function shb(x,y,dat) {
ar=dat.split(' '); for (i=0; i<ar.length; ++i) { if (i&&ar[i]) ar[i]+=' грн.'; h=document.getElementById('hint'+i); h.textContent=ar[i]; }
u=document.getElementById('usebox'); u.setAttribute('x',x); u.setAttribute('y',y); u.setAttribute('style','visibility:visible;'); }
function hhb() { u=document.getElementById('usebox'); u.setAttribute('style','visibility:hidden;'); u.setAttribute('x','0'); u.setAttribute('y','0'); }
function shl(x) { u=document.getElementById('useline'); u.setAttribute('x',x); u.setAttribute('style','visibility:visible;'); }
function hhl() { u=document.getElementById('useline'); u.setAttribute('style','visibility:hidden;'); u.setAttribute('x','0'); }
function sh(xl,xb,y,dat) { shl(xl); shb(xb,y,dat); }
function hh() { hhb(); hhl(); }
]]></script>
<rect x="-48" y="-273" width="750" height="331" class="bg" />
<line x1="17" y1="0" x2="17" y2="4" class="axes" /><text x="22" y="8" transform="rotate(-90,22,8)" style="text-anchor:end;">04.2017</text><line x1="44" y1="0" x2="44" y2="4" class="axes" /><text x="49" y="8" transform="rotate(-90,49,8)" style="text-anchor:end;">07.2017</text><line x1="71" y1="0" x2="71" y2="4" class="axes" /><text x="76" y="8" transform="rotate(-90,76,8)" style="text-anchor:end;">10.2017</text><line x1="98" y1="0" x2="98" y2="4" class="axes" /><text x="103" y="8" transform="rotate(-90,103,8)" style="text-anchor:end;">01.2018</text><line x1="125" y1="0" x2="125" y2="4" class="axes" /><text x="130" y="8" transform="rotate(-90,130,8)" style="text-anchor:end;">04.2018</text><line x1="152" y1="0" x2="152" y2="4" class="axes" /><text x="157" y="8" transform="rotate(-90,157,8)" style="text-anchor:end;">07.2018</text><line x1="179" y1="0" x2="179" y2="4" class="axes" /><text x="184" y="8" transform="rotate(-90,184,8)" style="text-anchor:end;">10.2018</text><line x1="206" y1="0" x2="206" y2="4" class="axes" /><text x="211" y="8" transform="rotate(-90,211,8)" style="text-anchor:end;">01.2019</text><line x1="233" y1="0" x2="233" y2="4" class="axes" /><text x="238" y="8" transform="rotate(-90,238,8)" style="text-anchor:end;">04.2019</text><line x1="260" y1="0" x2="260" y2="4" class="axes" /><text x="265" y="8" transform="rotate(-90,265,8)" style="text-anchor:end;">07.2019</text><line x1="287" y1="0" x2="287" y2="4" class="axes" /><text x="292" y="8" transform="rotate(-90,292,8)" style="text-anchor:end;">10.2019</text><line x1="314" y1="0" x2="314" y2="4" class="axes" /><text x="319" y="8" transform="rotate(-90,319,8)" style="text-anchor:end;">01.2020</text><line x1="341" y1="0" x2="341" y2="4" class="axes" /><text x="346" y="8" transform="rotate(-90,346,8)" style="text-anchor:end;">04.2020</text><line x1="368" y1="0" x2="368" y2="4" class="axes" /><text x="373" y="8" transform="rotate(-90,373,8)" style="text-anchor:end;">07.2020</text><line x1="395" y1="0" x2="395" y2="4" class="axes" /><text x="400" y="8" transform="rotate(-90,400,8)" style="text-anchor:end;">10.2020</text><line x1="422" y1="0" x2="422" y2="4" class="axes" /><text x="427" y="8" transform="rotate(-90,427,8)" style="text-anchor:end;">01.2021</text><line x1="449" y1="0" x2="449" y2="4" class="axes" /><text x="454" y="8" transform="rotate(-90,454,8)" style="text-anchor:end;">04.2021</text><line x1="476" y1="0" x2="476" y2="4" class="axes" /><text x="481" y="8" transform="rotate(-90,481,8)" style="text-anchor:end;">07.2021</text><line x1="503" y1="0" x2="503" y2="4" class="axes" /><text x="508" y="8" transform="rotate(-90,508,8)" style="text-anchor:end;">10.2021</text><line x1="530" y1="0" x2="530" y2="4" class="axes" /><text x="535" y="8" transform="rotate(-90,535,8)" style="text-anchor:end;">01.2022</text><line x1="557" y1="0" x2="557" y2="4" class="axes" /><text x="562" y="8" transform="rotate(-90,562,8)" style="text-anchor:end;">04.2022</text><line x1="584" y1="0" x2="584" y2="4" class="axes" /><text x="589" y="8" transform="rotate(-90,589,8)" style="text-anchor:end;">07.2022</text><line x1="611" y1="0" x2="611" y2="4" class="axes" /><text x="616" y="8" transform="rotate(-90,616,8)" style="text-anchor:end;">10.2022</text><line x1="638" y1="0" x2="638" y2="4" class="axes" /><text x="643" y="8" transform="rotate(-90,643,8)" style="text-anchor:end;">01.2023</text><line x1="665" y1="0" x2="665" y2="4" class="axes" /><text x="670" y="8" transform="rotate(-90,670,8)" style="text-anchor:end;">04.2023</text>
<line x1="0" y1="-27" x2="690" y2="-27" class="grid" /><line x1="0" y1="-27" x2="-4" y2="-27" class="axes" /><text x="-8" y="-23" style="text-anchor:end;">4,0</text><line x1="0" y1="-54" x2="690" y2="-54" class="grid" /><line x1="0" y1="-54" x2="-4" y2="-54" class="axes" /><text x="-8" y="-50" style="text-anchor:end;">4,5</text><line x1="0" y1="-81" x2="690" y2="-81" class="grid" /><line x1="0" y1="-81" x2="-4" y2="-81" class="axes" /><text x="-8" y="-77" style="text-anchor:end;">5,0</text><line x1="0" y1="-108" x2="690" y2="-108" class="grid" /><line x1="0" y1="-108" x2="-4" y2="-108" class="axes" /><text x="-8" y="-104" style="text-anchor:end;">5,5</text><line x1="0" y1="-135" x2="690" y2="-135" class="grid" /><line x1="0" y1="-135" x2="-4" y2="-135" class="axes" /><text x="-8" y="-131" style="text-anchor:end;">6,0</text><line x1="0" y1="-162" x2="690" y2="-162" class="grid" /><line x1="0" y1="-162" x2="-4" y2="-162" class="axes" /><text x="-8" y="-158" style="text-anchor:end;">6,5</text><line x1="0" y1="-189" x2="690" y2="-189" class="grid" /><line x1="0" y1="-189" x2="-4" y2="-189" class="axes" /><text x="-8" y="-185" style="text-anchor:end;">7,0</text><line x1="0" y1="-216" x2="690" y2="-216" class="grid" /><line x1="0" y1="-216" x2="-4" y2="-216" class="axes" /><text x="-8" y="-212" style="text-anchor:end;">7,5</text><line x1="0" y1="-243" x2="690" y2="-243" class="grid" /><line x1="0" y1="-243" x2="-4" y2="-243" class="axes" /><text x="-8" y="-239" style="text-anchor:end;">8,0</text>
<use xlink:href="#hintline" id="useline" x="0" style="visibility:hidden;" />
<rect x="5" y="-243" width="6" height="243" style="fill:transparent;" onmouseover="sh(8,8,-249,'01.03.2017 5,36');" onmouseout="hh();" /><rect x="5" y="-100" width="6" height="100" style="fill:#0080C0;" onmouseover="sh(8,8,-249,'01.03.2017 5,36');" onmouseout="hh();" /><rect x="14" y="-243" width="6" height="243" style="fill:transparent;" onmouseover="sh(17,17,-249,'01.04.2017 4,96');" onmouseout="hh();" /><rect x="14" y="-79" width="6" height="79" style="fill:#0080C0;" onmouseover="sh(17,17,-249,'01.04.2017 4,96');" onmouseout="hh();" /><rect x="23" y="-243" width="6" height="243" style="fill:transparent;" onmouseover="sh(26,26,-249,'01.05.2017 5,21');" onmouseout="hh();" /><rect x="23" y="-93" width="6" height="93" style="fill:#0080C0;" onmouseover="sh(26,26,-249,'01.05.2017 5,21');" onmouseout="hh();" /><rect x="32" y="-243" width="6" height="243" style="fill:transparent;" onmouseover="sh(35,35,-249,'01.06.2017 5,20');" onmouseout="hh();" /><rect x="32" y="-92" width="6" height="92" style="fill:#0080C0;" onmouseover="sh(35,35,-249,'01.06.2017 5,20');" onmouseout="hh();" /><rect x="41" y="-243" width="6" height="243" style="fill:transparent;" onmouseover="sh(44,44,-249,'01.07.2017 5,33');" onmouseout="hh();" /><rect x="41" y="-99" width="6" height="99" style="fill:#0080C0;" onmouseover="sh(44,44,-249,'01.07.2017 5,33');" onmouseout="hh();" /><rect x="50" y="-243" width="6" height="243" style="fill:transparent;" onmouseover="sh(53,53,-249,'01.08.2017 5,49');" onmouseout="hh();" /><rect x="50" y="-107" width="6" height="107" style="fill:#0080C0;" onmouseover="sh(53,53,-249,'01.08.2017 5,49');" onmouseout="hh();" /><rect x="59" y="-243" width="6" height="243" style="fill:transparent;" onmouseover="sh(62,62,-249,'01.09.2017 5,60');" onmouseout="hh();" /><rect x="59" y="-113" width="6" height="113" style="fill:#0080C0;" onmouseover="sh(62,62,-249,'01.09.2017 5,60');" onmouseout="hh();" /><rect x="68" y="-243" width="6" height="243" style="fill:transparent;" onmouseover="sh(71,71,-249,'01.10.2017 5,60');" onmouseout="hh();" /><rect x="68" y="-113" width="6" height="113" style="fill:#0080C0;" onmouseover="sh(71,71,-249,'01.10.2017 5,60');" onmouseout="hh();" /><rect x="77" y="-243" width="6" height="243" style="fill:transparent;" onmouseover="sh(80,80,-249,'01.11.2017 5,52');" onmouseout="hh();" /><rect x="77" y="-109" width="6" height="109" style="fill:#0080C0;" onmouseover="sh(80,80,-249,'01.11.2017 5,52');" onmouseout="hh();" /><rect x="86" y="-243" width="6" height="243" style="fill:transparent;" onmouseover="sh(89,89,-249,'01.12.2017 5,25');" onmouseout="hh();" /><rect x="86" y="-95" width="6" height="95" style="fill:#0080C0;" onmouseover="sh(89,89,-249,'01.12.2017 5,25');" onmouseout="hh();" /><rect x="95" y="-243" width="6" height="243" style="fill:transparent;" onmouseover="sh(98,98,-249,'01.01.2018 5,57');" onmouseout="hh();" /><rect x="95" y="-112" width="6" height="112" style="fill:#0080C0;" onmouseover="sh(98,98,-249,'01.01.2018 5,57');" onmouseout="hh();" /><rect x="104" y="-243" width="6" height="243" style="fill:transparent;" onmouseover="sh(107,107,-249,'01.02.2018 5,49');" onmouseout="hh();" /><rect x="104" y="-107" width="6" height="107" style="fill:#0080C0;" onmouseover="sh(107,107,-249,'01.02.2018 5,49');" onmouseout="hh();" /><rect x="113" y="-243" width="6" height="243" style="fill:transparent;" onmouseover="sh(116,116,-249,'01.03.2018 5,31');" onmouseout="hh();" /><rect x="113" y="-98" width="6" height="98" style="fill:#0080C0;" onmouseover="sh(116,116,-249,'01.03.2018 5,31');" onmouseout="hh();" /><rect x="122" y="-243" width="6" height="243" style="fill:transparent;" onmouseover="sh(125,125,-249,'01.04.2018 5,29');" onmouseout="hh();" /><rect x="122" y="-96" width="6" height="96" style="fill:#0080C0;" onmouseover="sh(125,125,-249,'01.04.2018 5,29');" onmouseout="hh();" /><rect x="131" y="-243" width="6" height="243" style="fill:transparent;" onmouseover="sh(134,134,-249,'01.05.2018 4,94');" onmouseout="hh();" /><rect x="131" y="-78" width="6" height="78" style="fill:#0080C0;" onmouseover="sh(134,134,-249,'01.05.2018 4,94');" onmouseout="hh();" /><rect x="140" y="-243" width="6" height="243" style="fill:transparent;" onmouseover="sh(143,143,-249,'01.06.2018 5,22');" onmouseout="hh();" /><rect x="140" y="-93" width="6" height="93" style="fill:#0080C0;" onmouseover="sh(143,143,-249,'01.06.2018 5,22');" onmouseout="hh();" /><rect x="149" y="-243" width="6" height="243" style="fill:transparent;" onmouseover="sh(152,152,-249,'01.07.2018 4,92');" onmouseout="hh();" /><rect x="149" y="-77" width="6" height="77" style="fill:#0080C0;" onmouseover="sh(152,152,-249,'01.07.2018 4,92');" onmouseout="hh();" /><rect x="158" y="-243" width="6" height="243" style="fill:transparent;" onmouseover="sh(161,161,-249,'01.08.2018 5,21');" onmouseout="hh();" /><rect x="158" y="-92" width="6" height="92" style="fill:#0080C0;" onmouseover="sh(161,161,-249,'01.08.2018 5,21');" onmouseout="hh();" /><rect x="167" y="-243" width="6" height="243" style="fill:transparent;" onmouseover="sh(170,170,-249,'01.09.2018 5,22');" onmouseout="hh();" /><rect x="167" y="-93" width="6" height="93" style="fill:#0080C0;" onmouseover="sh(170,170,-249,'01.09.2018 5,22');" onmouseout="hh();" /><rect x="176" y="-243" width="6" height="243" style="fill:transparent;" onmouseover="sh(179,179,-249,'01.10.2018 5,10');" onmouseout="hh();" /><rect x="176" y="-86" width="6" height="86" style="fill:#0080C0;" onmouseover="sh(179,179,-249,'01.10.2018 5,10');" onmouseout="hh();" /><rect x="185" y="-243" width="6" height="243" style="fill:transparent;" onmouseover="sh(188,188,-249,'01.11.2018 5,19');" onmouseout="hh();" /><rect x="185" y="-91" width="6" height="91" style="fill:#0080C0;" onmouseover="sh(188,188,-249,'01.11.2018 5,19');" onmouseout="hh();" /><rect x="194" y="-243" width="6" height="243" style="fill:transparent;" onmouseover="sh(197,197,-249,'01.12.2018 5,18');" onmouseout="hh();" /><rect x="194" y="-91" width="6" height="91" style="fill:#0080C0;" onmouseover="sh(197,197,-249,'01.12.2018 5,18');" onmouseout="hh();" /><rect x="203" y="-243" width="6" height="243" style="fill:transparent;" onmouseover="sh(206,206,-249,'01.01.2019 5,20');" onmouseout="hh();" /><rect x="203" y="-92" width="6" height="92" style="fill:#0080C0;" onmouseover="sh(206,206,-249,'01.01.2019 5,20');" onmouseout="hh();" /><rect x="212" y="-243" width="6" height="243" style="fill:transparent;" onmouseover="sh(215,215,-249,'01.02.2019 5,47');" onmouseout="hh();" /><rect x="212" y="-106" width="6" height="106" style="fill:#0080C0;" onmouseover="sh(215,215,-249,'01.02.2019 5,47');" onmouseout="hh();" /><rect x="221" y="-243" width="6" height="243" style="fill:transparent;" onmouseover="sh(224,224,-249,'01.03.2019 5,25');" onmouseout="hh();" /><rect x="221" y="-95" width="6" height="95" style="fill:#0080C0;" onmouseover="sh(224,224,-249,'01.03.2019 5,25');" onmouseout="hh();" /><rect x="230" y="-243" width="6" height="243" style="fill:transparent;" onmouseover="sh(233,233,-249,'01.04.2019 5,30');" onmouseout="hh();" /><rect x="230" y="-97" width="6" height="97" style="fill:#0080C0;" onmouseover="sh(233,233,-249,'01.04.2019 5,30');" onmouseout="hh();" /><rect x="239" y="-243" width="6" height="243" style="fill:transparent;" onmouseover="sh(242,242,-249,'01.05.2019 5,34');" onmouseout="hh();" /><rect x="239" y="-100" width="6" height="100" style="fill:#0080C0;" onmouseover="sh(242,242,-249,'01.05.2019 5,34');" onmouseout="hh();" /><rect x="248" y="-243" width="6" height="243" style="fill:transparent;" onmouseover="sh(251,251,-249,'01.06.2019 5,47');" onmouseout="hh();" /><rect x="248" y="-107" width="6" height="107" style="fill:#0080C0;" onmouseover="sh(251,251,-249,'01.06.2019 5,47');" onmouseout="hh();" /><rect x="257" y="-243" width="6" height="243" style="fill:transparent;" onmouseover="sh(260,260,-249,'01.07.2019 5,53');" onmouseout="hh();" /><rect x="257" y="-110" width="6" height="110" style="fill:#0080C0;" onmouseover="sh(260,260,-249,'01.07.2019 5,53');" onmouseout="hh();" /><rect x="266" y="-243" width="6" height="243" style="fill:transparent;" onmouseover="sh(269,269,-249,'01.08.2019 5,47');" onmouseout="hh();" /><rect x="266" y="-106" width="6" height="106" style="fill:#0080C0;" onmouseover="sh(269,269,-249,'01.08.2019 5,47');" onmouseout="hh();" /><rect x="275" y="-243" width="6" height="243" style="fill:transparent;" onmouseover="sh(278,278,-249,'01.09.2019 5,53');" onmouseout="hh();" /><rect x="275" y="-110" width="6" height="110" style="fill:#0080C0;" onmouseover="sh(278,278,-249,'01.09.2019 5,53');" onmouseout="hh();" /><rect x="284" y="-243" width="6" height="243" style="fill:transparent;" onmouseover="sh(287,287,-249,'01.10.2019 5,53');" onmouseout="hh();" /><rect x="284" y="-110" width="6" height="110" style="fill:#0080C0;" onmouseover="sh(287,287,-249,'01.10.2019 5,53');" onmouseout="hh();" /><rect x="293" y="-243" width="6" height="243" style="fill:transparent;" onmouseover="sh(296,296,-249,'01.11.2019 5,37');" onmouseout="hh();" /><rect x="293" y="-101" width="6" height="101" style="fill:#0080C0;" onmouseover="sh(296,296,-249,'01.11.2019 5,37');" onmouseout="hh();" /><rect x="302" y="-243" width="6" height="243" style="fill:transparent;" onmouseover="sh(305,305,-249,'01.12.2019 5,46');" onmouseout="hh();" /><rect x="302" y="-106" width="6" height="106" style="fill:#0080C0;" onmouseover="sh(305,305,-249,'01.12.2019 5,46');" onmouseout="hh();" /><rect x="311" y="-243" width="6" height="243" style="fill:transparent;" onmouseover="sh(314,314,-249,'01.01.2020 5,61');" onmouseout="hh();" /><rect x="311" y="-114" width="6" height="114" style="fill:#0080C0;" onmouseover="sh(314,314,-249,'01.01.2020 5,61');" onmouseout="hh();" /><rect x="320" y="-243" width="6" height="243" style="fill:transparent;" onmouseover="sh(323,323,-249,'01.02.2020 5,56');" onmouseout="hh();" /><rect x="320" y="-111" width="6" height="111" style="fill:#0080C0;" onmouseover="sh(323,323,-249,'01.02.2020 5,56');" onmouseout="hh();" /><rect x="329" y="-243" width="6" height="243" style="fill:transparent;" onmouseover="sh(332,332,-249,'01.03.2020 5,78');" onmouseout="hh();" /><rect x="329" y="-123" width="6" height="123" style="fill:#0080C0;" onmouseover="sh(332,332,-249,'01.03.2020 5,78');" onmouseout="hh();" /><rect x="338" y="-243" width="6" height="243" style="fill:transparent;" onmouseover="sh(341,341,-249,'01.04.2020 5,56');" onmouseout="hh();" /><rect x="338" y="-111" width="6" height="111" style="fill:#0080C0;" onmouseover="sh(341,341,-249,'01.04.2020 5,56');" onmouseout="hh();" /><rect x="347" y="-243" width="6" height="243" style="fill:transparent;" onmouseover="sh(350,350,-249,'01.05.2020 5,56');" onmouseout="hh();" /><rect x="347" y="-111" width="6" height="111" style="fill:#0080C0;" onmouseover="sh(350,350,-249,'01.05.2020 5,56');" onmouseout="hh();" /><rect x="356" y="-243" width="6" height="243" style="fill:transparent;" onmouseover="sh(359,359,-249,'01.06.2020 5,56');" onmouseout="hh();" /><rect x="356" y="-111" width="6" height="111" style="fill:#0080C0;" onmouseover="sh(359,359,-249,'01.06.2020 5,56');" onmouseout="hh();" /><rect x="365" y="-243" width="6" height="243" style="fill:transparent;" onmouseover="sh(368,368,-249,'01.07.2020 5,56');" onmouseout="hh();" /><rect x="365" y="-111" width="6" height="111" style="fill:#0080C0;" onmouseover="sh(368,368,-249,'01.07.2020 5,56');" onmouseout="hh();" /><rect x="374" y="-243" width="6" height="243" style="fill:transparent;" onmouseover="sh(377,377,-249,'01.08.2020 5,56');" onmouseout="hh();" /><rect x="374" y="-111" width="6" height="111" style="fill:#0080C0;" onmouseover="sh(377,377,-249,'01.08.2020 5,56');" onmouseout="hh();" /><rect x="383" y="-243" width="6" height="243" style="fill:transparent;" onmouseover="sh(386,386,-249,'01.09.2020 5,56');" onmouseout="hh();" /><rect x="383" y="-111" width="6" height="111" style="fill:#0080C0;" onmouseover="sh(386,386,-249,'01.09.2020 5,56');" onmouseout="hh();" /><rect x="392" y="-243" width="6" height="243" style="fill:transparent;" onmouseover="sh(395,395,-249,'01.10.2020 5,56');" onmouseout="hh();" /><rect x="392" y="-111" width="6" height="111" style="fill:#0080C0;" onmouseover="sh(395,395,-249,'01.10.2020 5,56');" onmouseout="hh();" /><rect x="401" y="-243" width="6" height="243" style="fill:transparent;" onmouseover="sh(404,404,-249,'01.11.2020 5,56');" onmouseout="hh();" /><rect x="401" y="-111" width="6" height="111" style="fill:#0080C0;" onmouseover="sh(404,404,-249,'01.11.2020 5,56');" onmouseout="hh();" /><rect x="410" y="-243" width="6" height="243" style="fill:transparent;" onmouseover="sh(413,413,-249,'01.12.2020 5,18');" onmouseout="hh();" /><rect x="410" y="-91" width="6" height="91" style="fill:#0080C0;" onmouseover="sh(413,413,-249,'01.12.2020 5,18');" onmouseout="hh();" /><rect x="419" y="-243" width="6" height="243" style="fill:transparent;" onmouseover="sh(422,422,-249,'01.01.2021 5,10');" onmouseout="hh();" /><rect x="419" y="-86" width="6" height="86" style="fill:#0080C0;" onmouseover="sh(422,422,-249,'01.01.2021 5,10');" onmouseout="hh();" /><rect x="428" y="-243" width="6" height="243" style="fill:transparent;" onmouseover="sh(431,431,-249,'01.02.2021 5,34');" onmouseout="hh();" /><rect x="428" y="-99" width="6" height="99" style="fill:#0080C0;" onmouseover="sh(431,431,-249,'01.02.2021 5,34');" onmouseout="hh();" /><rect x="437" y="-243" width="6" height="243" style="fill:transparent;" onmouseover="sh(440,440,-249,'01.03.2021 5,34');" onmouseout="hh();" /><rect x="437" y="-99" width="6" height="99" style="fill:#0080C0;" onmouseover="sh(440,440,-249,'01.03.2021 5,34');" onmouseout="hh();" /><rect x="446" y="-243" width="6" height="243" style="fill:transparent;" onmouseover="sh(449,449,-249,'01.04.2021 5,29');" onmouseout="hh();" /><rect x="446" y="-97" width="6" height="97" style="fill:#0080C0;" onmouseover="sh(449,449,-249,'01.04.2021 5,29');" onmouseout="hh();" /><rect x="455" y="-243" width="6" height="243" style="fill:transparent;" onmouseover="sh(458,458,-249,'01.05.2021 5,30');" onmouseout="hh();" /><rect x="455" y="-97" width="6" height="97" style="fill:#0080C0;" onmouseover="sh(458,458,-249,'01.05.2021 5,30');" onmouseout="hh();" /><rect x="464" y="-243" width="6" height="243" style="fill:transparent;" onmouseover="sh(467,467,-249,'01.06.2021 5,07');" onmouseout="hh();" /><rect x="464" y="-85" width="6" height="85" style="fill:#0080C0;" onmouseover="sh(467,467,-249,'01.06.2021 5,07');" onmouseout="hh();" /><rect x="473" y="-243" width="6" height="243" style="fill:transparent;" onmouseover="sh(476,476,-249,'01.07.2021 5,49');" onmouseout="hh();" /><rect x="473" y="-108" width="6" height="108" style="fill:#0080C0;" onmouseover="sh(476,476,-249,'01.07.2021 5,49');" onmouseout="hh();" /><rect x="482" y="-243" width="6" height="243" style="fill:transparent;" onmouseover="sh(485,485,-249,'01.08.2021 5,82');" onmouseout="hh();" /><rect x="482" y="-125" width="6" height="125" style="fill:#0080C0;" onmouseover="sh(485,485,-249,'01.08.2021 5,82');" onmouseout="hh();" /><rect x="491" y="-243" width="6" height="243" style="fill:transparent;" onmouseover="sh(494,494,-249,'01.09.2021 5,70');" onmouseout="hh();" /><rect x="491" y="-119" width="6" height="119" style="fill:#0080C0;" onmouseover="sh(494,494,-249,'01.09.2021 5,70');" onmouseout="hh();" /><rect x="500" y="-243" width="6" height="243" style="fill:transparent;" onmouseover="sh(503,503,-249,'01.10.2021 5,82');" onmouseout="hh();" /><rect x="500" y="-125" width="6" height="125" style="fill:#0080C0;" onmouseover="sh(503,503,-249,'01.10.2021 5,82');" onmouseout="hh();" /><rect x="509" y="-243" width="6" height="243" style="fill:transparent;" onmouseover="sh(512,512,-249,'01.11.2021 5,82');" onmouseout="hh();" /><rect x="509" y="-125" width="6" height="125" style="fill:#0080C0;" onmouseover="sh(512,512,-249,'01.11.2021 5,82');" onmouseout="hh();" /><rect x="518" y="-243" width="6" height="243" style="fill:transparent;" onmouseover="sh(521,521,-249,'01.12.2021 5,82');" onmouseout="hh();" /><rect x="518" y="-125" width="6" height="125" style="fill:#0080C0;" onmouseover="sh(521,521,-249,'01.12.2021 5,82');" onmouseout="hh();" /><rect x="527" y="-243" width="6" height="243" style="fill:transparent;" onmouseover="sh(530,530,-249,'01.01.2022 5,82');" onmouseout="hh();" /><rect x="527" y="-125" width="6" height="125" style="fill:#0080C0;" onmouseover="sh(530,530,-249,'01.01.2022 5,82');" onmouseout="hh();" /><rect x="536" y="-243" width="6" height="243" style="fill:transparent;" onmouseover="sh(539,539,-249,'01.02.2022 5,07');" onmouseout="hh();" /><rect x="536" y="-85" width="6" height="85" style="fill:#0080C0;" onmouseover="sh(539,539,-249,'01.02.2022 5,07');" onmouseout="hh();" /><rect x="545" y="-243" width="6" height="243" style="fill:transparent;" onmouseover="sh(548,548,-249,'01.03.2022 5,02');" onmouseout="hh();" /><rect x="545" y="-82" width="6" height="82" style="fill:#0080C0;" onmouseover="sh(548,548,-249,'01.03.2022 5,02');" onmouseout="hh();" /><rect x="554" y="-243" width="6" height="243" style="fill:transparent;" onmouseover="sh(557,557,-249,'01.04.2022 5,41');" onmouseout="hh();" /><rect x="554" y="-103" width="6" height="103" style="fill:#0080C0;" onmouseover="sh(557,557,-249,'01.04.2022 5,41');" onmouseout="hh();" /><rect x="563" y="-243" width="6" height="243" style="fill:transparent;" onmouseover="sh(566,566,-249,'01.05.2022 6,28');" onmouseout="hh();" /><rect x="563" y="-150" width="6" height="150" style="fill:#0080C0;" onmouseover="sh(566,566,-249,'01.05.2022 6,28');" onmouseout="hh();" /><rect x="572" y="-243" width="6" height="243" style="fill:transparent;" onmouseover="sh(575,575,-249,'01.06.2022 6,40');" onmouseout="hh();" /><rect x="572" y="-157" width="6" height="157" style="fill:#0080C0;" onmouseover="sh(575,575,-249,'01.06.2022 6,40');" onmouseout="hh();" /><rect x="581" y="-243" width="6" height="243" style="fill:transparent;" onmouseover="sh(584,584,-249,'01.07.2022 6,35');" onmouseout="hh();" /><rect x="581" y="-154" width="6" height="154" style="fill:#0080C0;" onmouseover="sh(584,584,-249,'01.07.2022 6,35');" onmouseout="hh();" /><rect x="590" y="-243" width="6" height="243" style="fill:transparent;" onmouseover="sh(593,593,-249,'01.08.2022 6,55');" onmouseout="hh();" /><rect x="590" y="-165" width="6" height="165" style="fill:#0080C0;" onmouseover="sh(593,593,-249,'01.08.2022 6,55');" onmouseout="hh();" /><rect x="599" y="-243" width="6" height="243" style="fill:transparent;" onmouseover="sh(602,602,-249,'01.09.2022 6,55');" onmouseout="hh();" /><rect x="599" y="-165" width="6" height="165" style="fill:#0080C0;" onmouseover="sh(602,602,-249,'01.09.2022 6,55');" onmouseout="hh();" /><rect x="608" y="-243" width="6" height="243" style="fill:transparent;" onmouseover="sh(611,611,-249,'01.10.2022 6,55');" onmouseout="hh();" /><rect x="608" y="-165" width="6" height="165" style="fill:#0080C0;" onmouseover="sh(611,611,-249,'01.10.2022 6,55');" onmouseout="hh();" /><rect x="617" y="-243" width="6" height="243" style="fill:transparent;" onmouseover="sh(620,620,-249,'01.11.2022 6,55');" onmouseout="hh();" /><rect x="617" y="-165" width="6" height="165" style="fill:#0080C0;" onmouseover="sh(620,620,-249,'01.11.2022 6,55');" onmouseout="hh();" /><rect x="626" y="-243" width="6" height="243" style="fill:transparent;" onmouseover="sh(629,623,-249,'01.12.2022 5,95');" onmouseout="hh();" /><rect x="626" y="-132" width="6" height="132" style="fill:#0080C0;" onmouseover="sh(629,623,-249,'01.12.2022 5,95');" onmouseout="hh();" /><rect x="635" y="-243" width="6" height="243" style="fill:transparent;" onmouseover="sh(638,623,-249,'01.01.2023 5,60');" onmouseout="hh();" /><rect x="635" y="-113" width="6" height="113" style="fill:#0080C0;" onmouseover="sh(638,623,-249,'01.01.2023 5,60');" onmouseout="hh();" /><rect x="644" y="-243" width="6" height="243" style="fill:transparent;" onmouseover="sh(647,623,-249,'01.02.2023 5,60');" onmouseout="hh();" /><rect x="644" y="-113" width="6" height="113" style="fill:#0080C0;" onmouseover="sh(647,623,-249,'01.02.2023 5,60');" onmouseout="hh();" /><rect x="653" y="-243" width="6" height="243" style="fill:transparent;" onmouseover="sh(656,623,-249,'01.03.2023 6,00');" onmouseout="hh();" /><rect x="653" y="-135" width="6" height="135" style="fill:#0080C0;" onmouseover="sh(656,623,-249,'01.03.2023 6,00');" onmouseout="hh();" /><rect x="662" y="-243" width="6" height="243" style="fill:transparent;" onmouseover="sh(665,623,-249,'01.04.2023 7,20');" onmouseout="hh();" /><rect x="662" y="-200" width="6" height="200" style="fill:#0080C0;" onmouseover="sh(665,623,-249,'01.04.2023 7,20');" onmouseout="hh();" /><rect x="671" y="-243" width="6" height="243" style="fill:transparent;" onmouseover="sh(674,623,-249,'01.05.2023 7,20');" onmouseout="hh();" /><rect x="671" y="-200" width="6" height="200" style="fill:#0080C0;" onmouseover="sh(674,623,-249,'01.05.2023 7,20');" onmouseout="hh();" /><rect x="680" y="-243" width="6" height="243" style="fill:transparent;" onmouseover="sh(683,623,-249,'01.06.2023 7,13');" onmouseout="hh();" /><rect x="680" y="-196" width="6" height="196" style="fill:#0080C0;" onmouseover="sh(683,623,-249,'01.06.2023 7,13');" onmouseout="hh();" />
<line x1="-6" y1="0" x2="693" y2="0" class="axes" /><line x1="0" y1="-259" x2="0" y2="0" class="axes" /><text x="-2" y="-263" style="text-anchor:end;">грн.</text>
<use xlink:href="#hintbox" id="usebox" x="0" y="0" style="visibility:hidden;" />
</svg>
