<?xml version="1.0" encoding="UTF-8" standalone="no"?>
<!DOCTYPE svg PUBLIC "-//W3C//DTD SVG 1.1//EN" "http://www.w3.org/Graphics/SVG/1.1/DTD/svg11.dtd">
<svg version="1.1" xmlns="http://www.w3.org/2000/svg" xmlns:xlink="http://www.w3.org/1999/xlink" xmlns:ev="http://www.w3.org/2001/xml-events" width="732" height="330" viewBox="-48 -272 732 330" preserveAspectRatio="none">
<style type="text/css"><![CDATA[
line { stroke-width:1px; }
line.axes { stroke:#505050; }
line.grid { stroke:#D8D8D8; }
rect.bg { fill:#FFFFFF; }
text { font-family:arial,sans-serif; font-size:12px; fill:#000000; }
]]></style>
<defs>
<g id="hintbox"><rect x="0" y="0" width="77" height="34" style="stroke:#505050; stroke-width:1px; fill:rgba(255,255,255,0.87);" /><text id="hint0" x="4" y="14"> </text><text x="7" y="28"></text><text id="hint1" x="73" y="28" style="text-anchor:end;"> </text></g>
<g id="hintline"><line x1="0" y1="-234" x2="0" y2="0" class="axes" style="stroke-dasharray:2 1" /></g>
</defs>
<script><![CDATA[
function shb(x,y,dat) {
ar=dat.split(' '); for (i=0; i<ar.length; ++i) { if (i&&ar[i]) ar[i]+=' грн.'; h=document.getElementById('hint'+i); h.textContent=ar[i]; }
u=document.getElementById('usebox'); u.setAttribute('x',x); u.setAttribute('y',y); u.setAttribute('style','visibility:visible;'); }
function hhb() { u=document.getElementById('usebox'); u.setAttribute('style','visibility:hidden;'); u.setAttribute('x','0'); u.setAttribute('y','0'); }
function shl(x) { u=document.getElementById('useline'); u.setAttribute('x',x); u.setAttribute('style','visibility:visible;'); }
function hhl() { u=document.getElementById('useline'); u.setAttribute('style','visibility:hidden;'); u.setAttribute('x','0'); }
function sh(xl,xb,y,dat) { shl(xl); shb(xb,y,dat); }
function hh() { hhb(); hhl(); }
]]></script>
<rect x="-48" y="-272" width="732" height="330" class="bg" />
<line x1="17" y1="0" x2="17" y2="4" class="axes" /><text x="22" y="8" transform="rotate(-90,22,8)" style="text-anchor:end;">04.2017</text><line x1="44" y1="0" x2="44" y2="4" class="axes" /><text x="49" y="8" transform="rotate(-90,49,8)" style="text-anchor:end;">07.2017</text><line x1="71" y1="0" x2="71" y2="4" class="axes" /><text x="76" y="8" transform="rotate(-90,76,8)" style="text-anchor:end;">10.2017</text><line x1="98" y1="0" x2="98" y2="4" class="axes" /><text x="103" y="8" transform="rotate(-90,103,8)" style="text-anchor:end;">01.2018</text><line x1="125" y1="0" x2="125" y2="4" class="axes" /><text x="130" y="8" transform="rotate(-90,130,8)" style="text-anchor:end;">04.2018</text><line x1="152" y1="0" x2="152" y2="4" class="axes" /><text x="157" y="8" transform="rotate(-90,157,8)" style="text-anchor:end;">07.2018</text><line x1="179" y1="0" x2="179" y2="4" class="axes" /><text x="184" y="8" transform="rotate(-90,184,8)" style="text-anchor:end;">10.2018</text><line x1="206" y1="0" x2="206" y2="4" class="axes" /><text x="211" y="8" transform="rotate(-90,211,8)" style="text-anchor:end;">01.2019</text><line x1="242" y1="0" x2="242" y2="4" class="axes" /><text x="247" y="8" transform="rotate(-90,247,8)" style="text-anchor:end;">07.2019</text><line x1="269" y1="0" x2="269" y2="4" class="axes" /><text x="274" y="8" transform="rotate(-90,274,8)" style="text-anchor:end;">10.2019</text><line x1="296" y1="0" x2="296" y2="4" class="axes" /><text x="301" y="8" transform="rotate(-90,301,8)" style="text-anchor:end;">01.2020</text><line x1="323" y1="0" x2="323" y2="4" class="axes" /><text x="328" y="8" transform="rotate(-90,328,8)" style="text-anchor:end;">04.2020</text><line x1="350" y1="0" x2="350" y2="4" class="axes" /><text x="355" y="8" transform="rotate(-90,355,8)" style="text-anchor:end;">07.2020</text><line x1="377" y1="0" x2="377" y2="4" class="axes" /><text x="382" y="8" transform="rotate(-90,382,8)" style="text-anchor:end;">10.2020</text><line x1="404" y1="0" x2="404" y2="4" class="axes" /><text x="409" y="8" transform="rotate(-90,409,8)" style="text-anchor:end;">01.2021</text><line x1="431" y1="0" x2="431" y2="4" class="axes" /><text x="436" y="8" transform="rotate(-90,436,8)" style="text-anchor:end;">04.2021</text><line x1="458" y1="0" x2="458" y2="4" class="axes" /><text x="463" y="8" transform="rotate(-90,463,8)" style="text-anchor:end;">07.2021</text><line x1="485" y1="0" x2="485" y2="4" class="axes" /><text x="490" y="8" transform="rotate(-90,490,8)" style="text-anchor:end;">10.2021</text><line x1="512" y1="0" x2="512" y2="4" class="axes" /><text x="517" y="8" transform="rotate(-90,517,8)" style="text-anchor:end;">01.2022</text><line x1="539" y1="0" x2="539" y2="4" class="axes" /><text x="544" y="8" transform="rotate(-90,544,8)" style="text-anchor:end;">04.2022</text><line x1="566" y1="0" x2="566" y2="4" class="axes" /><text x="571" y="8" transform="rotate(-90,571,8)" style="text-anchor:end;">07.2022</text><line x1="593" y1="0" x2="593" y2="4" class="axes" /><text x="598" y="8" transform="rotate(-90,598,8)" style="text-anchor:end;">10.2022</text><line x1="620" y1="0" x2="620" y2="4" class="axes" /><text x="625" y="8" transform="rotate(-90,625,8)" style="text-anchor:end;">01.2023</text><line x1="647" y1="0" x2="647" y2="4" class="axes" /><text x="652" y="8" transform="rotate(-90,652,8)" style="text-anchor:end;">04.2023</text>
<line x1="0" y1="-18" x2="672" y2="-18" class="grid" /><line x1="0" y1="-18" x2="-4" y2="-18" class="axes" /><text x="-8" y="-14" style="text-anchor:end;">6</text><line x1="0" y1="-36" x2="672" y2="-36" class="grid" /><line x1="0" y1="-36" x2="-4" y2="-36" class="axes" /><text x="-8" y="-32" style="text-anchor:end;">8</text><line x1="0" y1="-54" x2="672" y2="-54" class="grid" /><line x1="0" y1="-54" x2="-4" y2="-54" class="axes" /><text x="-8" y="-50" style="text-anchor:end;">10</text><line x1="0" y1="-72" x2="672" y2="-72" class="grid" /><line x1="0" y1="-72" x2="-4" y2="-72" class="axes" /><text x="-8" y="-68" style="text-anchor:end;">12</text><line x1="0" y1="-90" x2="672" y2="-90" class="grid" /><line x1="0" y1="-90" x2="-4" y2="-90" class="axes" /><text x="-8" y="-86" style="text-anchor:end;">14</text><line x1="0" y1="-108" x2="672" y2="-108" class="grid" /><line x1="0" y1="-108" x2="-4" y2="-108" class="axes" /><text x="-8" y="-104" style="text-anchor:end;">16</text><line x1="0" y1="-126" x2="672" y2="-126" class="grid" /><line x1="0" y1="-126" x2="-4" y2="-126" class="axes" /><text x="-8" y="-122" style="text-anchor:end;">18</text><line x1="0" y1="-144" x2="672" y2="-144" class="grid" /><line x1="0" y1="-144" x2="-4" y2="-144" class="axes" /><text x="-8" y="-140" style="text-anchor:end;">20</text><line x1="0" y1="-162" x2="672" y2="-162" class="grid" /><line x1="0" y1="-162" x2="-4" y2="-162" class="axes" /><text x="-8" y="-158" style="text-anchor:end;">22</text><line x1="0" y1="-180" x2="672" y2="-180" class="grid" /><line x1="0" y1="-180" x2="-4" y2="-180" class="axes" /><text x="-8" y="-176" style="text-anchor:end;">24</text><line x1="0" y1="-198" x2="672" y2="-198" class="grid" /><line x1="0" y1="-198" x2="-4" y2="-198" class="axes" /><text x="-8" y="-194" style="text-anchor:end;">26</text><line x1="0" y1="-216" x2="672" y2="-216" class="grid" /><line x1="0" y1="-216" x2="-4" y2="-216" class="axes" /><text x="-8" y="-212" style="text-anchor:end;">28</text><line x1="0" y1="-234" x2="672" y2="-234" class="grid" /><line x1="0" y1="-234" x2="-4" y2="-234" class="axes" /><text x="-8" y="-230" style="text-anchor:end;">30</text>
<use xlink:href="#hintline" id="useline" x="0" style="visibility:hidden;" />
<rect x="5" y="-234" width="6" height="234" style="fill:transparent;" onmouseover="sh(8,8,-240,'01.03.2017 9,15');" onmouseout="hh();" /><rect x="5" y="-46" width="6" height="46" style="fill:#0080C0;" onmouseover="sh(8,8,-240,'01.03.2017 9,15');" onmouseout="hh();" /><rect x="14" y="-234" width="6" height="234" style="fill:transparent;" onmouseover="sh(17,17,-240,'01.04.2017 9,17');" onmouseout="hh();" /><rect x="14" y="-47" width="6" height="47" style="fill:#0080C0;" onmouseover="sh(17,17,-240,'01.04.2017 9,17');" onmouseout="hh();" /><rect x="23" y="-234" width="6" height="234" style="fill:transparent;" onmouseover="sh(26,26,-240,'01.05.2017 8,93');" onmouseout="hh();" /><rect x="23" y="-44" width="6" height="44" style="fill:#0080C0;" onmouseover="sh(26,26,-240,'01.05.2017 8,93');" onmouseout="hh();" /><rect x="32" y="-234" width="6" height="234" style="fill:transparent;" onmouseover="sh(35,35,-240,'01.06.2017 9,20');" onmouseout="hh();" /><rect x="32" y="-47" width="6" height="47" style="fill:#0080C0;" onmouseover="sh(35,35,-240,'01.06.2017 9,20');" onmouseout="hh();" /><rect x="41" y="-234" width="6" height="234" style="fill:transparent;" onmouseover="sh(44,44,-240,'01.07.2017 9,11');" onmouseout="hh();" /><rect x="41" y="-46" width="6" height="46" style="fill:#0080C0;" onmouseover="sh(44,44,-240,'01.07.2017 9,11');" onmouseout="hh();" /><rect x="50" y="-234" width="6" height="234" style="fill:transparent;" onmouseover="sh(53,53,-240,'01.08.2017 9,29');" onmouseout="hh();" /><rect x="50" y="-48" width="6" height="48" style="fill:#0080C0;" onmouseover="sh(53,53,-240,'01.08.2017 9,29');" onmouseout="hh();" /><rect x="59" y="-234" width="6" height="234" style="fill:transparent;" onmouseover="sh(62,62,-240,'01.09.2017 9,37');" onmouseout="hh();" /><rect x="59" y="-48" width="6" height="48" style="fill:#0080C0;" onmouseover="sh(62,62,-240,'01.09.2017 9,37');" onmouseout="hh();" /><rect x="68" y="-234" width="6" height="234" style="fill:transparent;" onmouseover="sh(71,71,-240,'01.10.2017 9,43');" onmouseout="hh();" /><rect x="68" y="-49" width="6" height="49" style="fill:#0080C0;" onmouseover="sh(71,71,-240,'01.10.2017 9,43');" onmouseout="hh();" /><rect x="77" y="-234" width="6" height="234" style="fill:transparent;" onmouseover="sh(80,80,-240,'01.11.2017 9,72');" onmouseout="hh();" /><rect x="77" y="-52" width="6" height="52" style="fill:#0080C0;" onmouseover="sh(80,80,-240,'01.11.2017 9,72');" onmouseout="hh();" /><rect x="86" y="-234" width="6" height="234" style="fill:transparent;" onmouseover="sh(89,89,-240,'01.12.2017 9,42');" onmouseout="hh();" /><rect x="86" y="-49" width="6" height="49" style="fill:#0080C0;" onmouseover="sh(89,89,-240,'01.12.2017 9,42');" onmouseout="hh();" /><rect x="95" y="-234" width="6" height="234" style="fill:transparent;" onmouseover="sh(98,98,-240,'01.01.2018 9,25');" onmouseout="hh();" /><rect x="95" y="-47" width="6" height="47" style="fill:#0080C0;" onmouseover="sh(98,98,-240,'01.01.2018 9,25');" onmouseout="hh();" /><rect x="104" y="-234" width="6" height="234" style="fill:transparent;" onmouseover="sh(107,107,-240,'01.02.2018 9,79');" onmouseout="hh();" /><rect x="104" y="-52" width="6" height="52" style="fill:#0080C0;" onmouseover="sh(107,107,-240,'01.02.2018 9,79');" onmouseout="hh();" /><rect x="113" y="-234" width="6" height="234" style="fill:transparent;" onmouseover="sh(116,116,-240,'01.03.2018 10,00');" onmouseout="hh();" /><rect x="113" y="-54" width="6" height="54" style="fill:#0080C0;" onmouseover="sh(116,116,-240,'01.03.2018 10,00');" onmouseout="hh();" /><rect x="122" y="-234" width="6" height="234" style="fill:transparent;" onmouseover="sh(125,125,-240,'01.04.2018 10,21');" onmouseout="hh();" /><rect x="122" y="-56" width="6" height="56" style="fill:#0080C0;" onmouseover="sh(125,125,-240,'01.04.2018 10,21');" onmouseout="hh();" /><rect x="131" y="-234" width="6" height="234" style="fill:transparent;" onmouseover="sh(134,134,-240,'01.05.2018 10,11');" onmouseout="hh();" /><rect x="131" y="-55" width="6" height="55" style="fill:#0080C0;" onmouseover="sh(134,134,-240,'01.05.2018 10,11');" onmouseout="hh();" /><rect x="140" y="-234" width="6" height="234" style="fill:transparent;" onmouseover="sh(143,143,-240,'01.06.2018 10,31');" onmouseout="hh();" /><rect x="140" y="-57" width="6" height="57" style="fill:#0080C0;" onmouseover="sh(143,143,-240,'01.06.2018 10,31');" onmouseout="hh();" /><rect x="149" y="-234" width="6" height="234" style="fill:transparent;" onmouseover="sh(152,152,-240,'01.07.2018 10,90');" onmouseout="hh();" /><rect x="149" y="-62" width="6" height="62" style="fill:#0080C0;" onmouseover="sh(152,152,-240,'01.07.2018 10,90');" onmouseout="hh();" /><rect x="158" y="-234" width="6" height="234" style="fill:transparent;" onmouseover="sh(161,161,-240,'01.08.2018 10,57');" onmouseout="hh();" /><rect x="158" y="-59" width="6" height="59" style="fill:#0080C0;" onmouseover="sh(161,161,-240,'01.08.2018 10,57');" onmouseout="hh();" /><rect x="167" y="-234" width="6" height="234" style="fill:transparent;" onmouseover="sh(170,170,-240,'01.09.2018 10,83');" onmouseout="hh();" /><rect x="167" y="-61" width="6" height="61" style="fill:#0080C0;" onmouseover="sh(170,170,-240,'01.09.2018 10,83');" onmouseout="hh();" /><rect x="176" y="-234" width="6" height="234" style="fill:transparent;" onmouseover="sh(179,179,-240,'01.10.2018 9,84');" onmouseout="hh();" /><rect x="176" y="-53" width="6" height="53" style="fill:#0080C0;" onmouseover="sh(179,179,-240,'01.10.2018 9,84');" onmouseout="hh();" /><rect x="185" y="-234" width="6" height="234" style="fill:transparent;" onmouseover="sh(188,188,-240,'01.11.2018 10,43');" onmouseout="hh();" /><rect x="185" y="-58" width="6" height="58" style="fill:#0080C0;" onmouseover="sh(188,188,-240,'01.11.2018 10,43');" onmouseout="hh();" /><rect x="194" y="-234" width="6" height="234" style="fill:transparent;" onmouseover="sh(197,197,-240,'01.12.2018 10,03');" onmouseout="hh();" /><rect x="194" y="-54" width="6" height="54" style="fill:#0080C0;" onmouseover="sh(197,197,-240,'01.12.2018 10,03');" onmouseout="hh();" /><rect x="203" y="-234" width="6" height="234" style="fill:transparent;" onmouseover="sh(206,206,-240,'01.01.2019 10,79');" onmouseout="hh();" /><rect x="203" y="-61" width="6" height="61" style="fill:#0080C0;" onmouseover="sh(206,206,-240,'01.01.2019 10,79');" onmouseout="hh();" /><rect x="212" y="-234" width="6" height="234" style="fill:transparent;" onmouseover="sh(215,215,-240,'01.02.2019 11,79');" onmouseout="hh();" /><rect x="212" y="-70" width="6" height="70" style="fill:#0080C0;" onmouseover="sh(215,215,-240,'01.02.2019 11,79');" onmouseout="hh();" /><rect x="221" y="-234" width="6" height="234" style="fill:transparent;" onmouseover="sh(224,224,-240,'01.05.2019 11,26');" onmouseout="hh();" /><rect x="221" y="-65" width="6" height="65" style="fill:#0080C0;" onmouseover="sh(224,224,-240,'01.05.2019 11,26');" onmouseout="hh();" /><rect x="230" y="-234" width="6" height="234" style="fill:transparent;" onmouseover="sh(233,233,-240,'01.06.2019 10,70');" onmouseout="hh();" /><rect x="230" y="-60" width="6" height="60" style="fill:#0080C0;" onmouseover="sh(233,233,-240,'01.06.2019 10,70');" onmouseout="hh();" /><rect x="239" y="-234" width="6" height="234" style="fill:transparent;" onmouseover="sh(242,242,-240,'01.07.2019 11,21');" onmouseout="hh();" /><rect x="239" y="-65" width="6" height="65" style="fill:#0080C0;" onmouseover="sh(242,242,-240,'01.07.2019 11,21');" onmouseout="hh();" /><rect x="248" y="-234" width="6" height="234" style="fill:transparent;" onmouseover="sh(251,251,-240,'01.08.2019 10,25');" onmouseout="hh();" /><rect x="248" y="-56" width="6" height="56" style="fill:#0080C0;" onmouseover="sh(251,251,-240,'01.08.2019 10,25');" onmouseout="hh();" /><rect x="257" y="-234" width="6" height="234" style="fill:transparent;" onmouseover="sh(260,260,-240,'01.09.2019 11,02');" onmouseout="hh();" /><rect x="257" y="-63" width="6" height="63" style="fill:#0080C0;" onmouseover="sh(260,260,-240,'01.09.2019 11,02');" onmouseout="hh();" /><rect x="266" y="-234" width="6" height="234" style="fill:transparent;" onmouseover="sh(269,269,-240,'01.10.2019 10,97');" onmouseout="hh();" /><rect x="266" y="-63" width="6" height="63" style="fill:#0080C0;" onmouseover="sh(269,269,-240,'01.10.2019 10,97');" onmouseout="hh();" /><rect x="275" y="-234" width="6" height="234" style="fill:transparent;" onmouseover="sh(278,278,-240,'01.11.2019 11,23');" onmouseout="hh();" /><rect x="275" y="-65" width="6" height="65" style="fill:#0080C0;" onmouseover="sh(278,278,-240,'01.11.2019 11,23');" onmouseout="hh();" /><rect x="284" y="-234" width="6" height="234" style="fill:transparent;" onmouseover="sh(287,287,-240,'01.12.2019 10,76');" onmouseout="hh();" /><rect x="284" y="-61" width="6" height="61" style="fill:#0080C0;" onmouseover="sh(287,287,-240,'01.12.2019 10,76');" onmouseout="hh();" /><rect x="293" y="-234" width="6" height="234" style="fill:transparent;" onmouseover="sh(296,296,-240,'01.01.2020 12,16');" onmouseout="hh();" /><rect x="293" y="-73" width="6" height="73" style="fill:#0080C0;" onmouseover="sh(296,296,-240,'01.01.2020 12,16');" onmouseout="hh();" /><rect x="302" y="-234" width="6" height="234" style="fill:transparent;" onmouseover="sh(305,305,-240,'01.02.2020 12,31');" onmouseout="hh();" /><rect x="302" y="-75" width="6" height="75" style="fill:#0080C0;" onmouseover="sh(305,305,-240,'01.02.2020 12,31');" onmouseout="hh();" /><rect x="311" y="-234" width="6" height="234" style="fill:transparent;" onmouseover="sh(314,314,-240,'01.03.2020 12,25');" onmouseout="hh();" /><rect x="311" y="-74" width="6" height="74" style="fill:#0080C0;" onmouseover="sh(314,314,-240,'01.03.2020 12,25');" onmouseout="hh();" /><rect x="320" y="-234" width="6" height="234" style="fill:transparent;" onmouseover="sh(323,323,-240,'01.04.2020 11,58');" onmouseout="hh();" /><rect x="320" y="-68" width="6" height="68" style="fill:#0080C0;" onmouseover="sh(323,323,-240,'01.04.2020 11,58');" onmouseout="hh();" /><rect x="329" y="-234" width="6" height="234" style="fill:transparent;" onmouseover="sh(332,332,-240,'01.05.2020 11,67');" onmouseout="hh();" /><rect x="329" y="-69" width="6" height="69" style="fill:#0080C0;" onmouseover="sh(332,332,-240,'01.05.2020 11,67');" onmouseout="hh();" /><rect x="338" y="-234" width="6" height="234" style="fill:transparent;" onmouseover="sh(341,341,-240,'01.06.2020 11,36');" onmouseout="hh();" /><rect x="338" y="-66" width="6" height="66" style="fill:#0080C0;" onmouseover="sh(341,341,-240,'01.06.2020 11,36');" onmouseout="hh();" /><rect x="347" y="-234" width="6" height="234" style="fill:transparent;" onmouseover="sh(350,350,-240,'01.07.2020 11,97');" onmouseout="hh();" /><rect x="347" y="-72" width="6" height="72" style="fill:#0080C0;" onmouseover="sh(350,350,-240,'01.07.2020 11,97');" onmouseout="hh();" /><rect x="356" y="-234" width="6" height="234" style="fill:transparent;" onmouseover="sh(359,359,-240,'01.08.2020 11,51');" onmouseout="hh();" /><rect x="356" y="-68" width="6" height="68" style="fill:#0080C0;" onmouseover="sh(359,359,-240,'01.08.2020 11,51');" onmouseout="hh();" /><rect x="365" y="-234" width="6" height="234" style="fill:transparent;" onmouseover="sh(368,368,-240,'01.09.2020 12,11');" onmouseout="hh();" /><rect x="365" y="-73" width="6" height="73" style="fill:#0080C0;" onmouseover="sh(368,368,-240,'01.09.2020 12,11');" onmouseout="hh();" /><rect x="374" y="-234" width="6" height="234" style="fill:transparent;" onmouseover="sh(377,377,-240,'01.10.2020 11,76');" onmouseout="hh();" /><rect x="374" y="-70" width="6" height="70" style="fill:#0080C0;" onmouseover="sh(377,377,-240,'01.10.2020 11,76');" onmouseout="hh();" /><rect x="383" y="-234" width="6" height="234" style="fill:transparent;" onmouseover="sh(386,386,-240,'01.11.2020 11,68');" onmouseout="hh();" /><rect x="383" y="-69" width="6" height="69" style="fill:#0080C0;" onmouseover="sh(386,386,-240,'01.11.2020 11,68');" onmouseout="hh();" /><rect x="392" y="-234" width="6" height="234" style="fill:transparent;" onmouseover="sh(395,395,-240,'01.12.2020 12,16');" onmouseout="hh();" /><rect x="392" y="-73" width="6" height="73" style="fill:#0080C0;" onmouseover="sh(395,395,-240,'01.12.2020 12,16');" onmouseout="hh();" /><rect x="401" y="-234" width="6" height="234" style="fill:transparent;" onmouseover="sh(404,404,-240,'01.01.2021 12,17');" onmouseout="hh();" /><rect x="401" y="-74" width="6" height="74" style="fill:#0080C0;" onmouseover="sh(404,404,-240,'01.01.2021 12,17');" onmouseout="hh();" /><rect x="410" y="-234" width="6" height="234" style="fill:transparent;" onmouseover="sh(413,413,-240,'01.02.2021 12,16');" onmouseout="hh();" /><rect x="410" y="-73" width="6" height="73" style="fill:#0080C0;" onmouseover="sh(413,413,-240,'01.02.2021 12,16');" onmouseout="hh();" /><rect x="419" y="-234" width="6" height="234" style="fill:transparent;" onmouseover="sh(422,422,-240,'01.03.2021 12,70');" onmouseout="hh();" /><rect x="419" y="-78" width="6" height="78" style="fill:#0080C0;" onmouseover="sh(422,422,-240,'01.03.2021 12,70');" onmouseout="hh();" /><rect x="428" y="-234" width="6" height="234" style="fill:transparent;" onmouseover="sh(431,431,-240,'01.04.2021 11,64');" onmouseout="hh();" /><rect x="428" y="-69" width="6" height="69" style="fill:#0080C0;" onmouseover="sh(431,431,-240,'01.04.2021 11,64');" onmouseout="hh();" /><rect x="437" y="-234" width="6" height="234" style="fill:transparent;" onmouseover="sh(440,440,-240,'01.05.2021 12,81');" onmouseout="hh();" /><rect x="437" y="-79" width="6" height="79" style="fill:#0080C0;" onmouseover="sh(440,440,-240,'01.05.2021 12,81');" onmouseout="hh();" /><rect x="446" y="-234" width="6" height="234" style="fill:transparent;" onmouseover="sh(449,449,-240,'01.06.2021 12,05');" onmouseout="hh();" /><rect x="446" y="-72" width="6" height="72" style="fill:#0080C0;" onmouseover="sh(449,449,-240,'01.06.2021 12,05');" onmouseout="hh();" /><rect x="455" y="-234" width="6" height="234" style="fill:transparent;" onmouseover="sh(458,458,-240,'01.07.2021 11,39');" onmouseout="hh();" /><rect x="455" y="-66" width="6" height="66" style="fill:#0080C0;" onmouseover="sh(458,458,-240,'01.07.2021 11,39');" onmouseout="hh();" /><rect x="464" y="-234" width="6" height="234" style="fill:transparent;" onmouseover="sh(467,467,-240,'01.08.2021 11,61');" onmouseout="hh();" /><rect x="464" y="-68" width="6" height="68" style="fill:#0080C0;" onmouseover="sh(467,467,-240,'01.08.2021 11,61');" onmouseout="hh();" /><rect x="473" y="-234" width="6" height="234" style="fill:transparent;" onmouseover="sh(476,476,-240,'01.09.2021 12,97');" onmouseout="hh();" /><rect x="473" y="-81" width="6" height="81" style="fill:#0080C0;" onmouseover="sh(476,476,-240,'01.09.2021 12,97');" onmouseout="hh();" /><rect x="482" y="-234" width="6" height="234" style="fill:transparent;" onmouseover="sh(485,485,-240,'01.10.2021 13,65');" onmouseout="hh();" /><rect x="482" y="-87" width="6" height="87" style="fill:#0080C0;" onmouseover="sh(485,485,-240,'01.10.2021 13,65');" onmouseout="hh();" /><rect x="491" y="-234" width="6" height="234" style="fill:transparent;" onmouseover="sh(494,494,-240,'01.11.2021 13,15');" onmouseout="hh();" /><rect x="491" y="-82" width="6" height="82" style="fill:#0080C0;" onmouseover="sh(494,494,-240,'01.11.2021 13,15');" onmouseout="hh();" /><rect x="500" y="-234" width="6" height="234" style="fill:transparent;" onmouseover="sh(503,503,-240,'01.12.2021 13,13');" onmouseout="hh();" /><rect x="500" y="-82" width="6" height="82" style="fill:#0080C0;" onmouseover="sh(503,503,-240,'01.12.2021 13,13');" onmouseout="hh();" /><rect x="509" y="-234" width="6" height="234" style="fill:transparent;" onmouseover="sh(512,512,-240,'01.01.2022 13,88');" onmouseout="hh();" /><rect x="509" y="-89" width="6" height="89" style="fill:#0080C0;" onmouseover="sh(512,512,-240,'01.01.2022 13,88');" onmouseout="hh();" /><rect x="518" y="-234" width="6" height="234" style="fill:transparent;" onmouseover="sh(521,521,-240,'01.02.2022 13,87');" onmouseout="hh();" /><rect x="518" y="-89" width="6" height="89" style="fill:#0080C0;" onmouseover="sh(521,521,-240,'01.02.2022 13,87');" onmouseout="hh();" /><rect x="527" y="-234" width="6" height="234" style="fill:transparent;" onmouseover="sh(530,530,-240,'01.03.2022 14,72');" onmouseout="hh();" /><rect x="527" y="-97" width="6" height="97" style="fill:#0080C0;" onmouseover="sh(530,530,-240,'01.03.2022 14,72');" onmouseout="hh();" /><rect x="536" y="-234" width="6" height="234" style="fill:transparent;" onmouseover="sh(539,539,-240,'01.04.2022 16,70');" onmouseout="hh();" /><rect x="536" y="-114" width="6" height="114" style="fill:#0080C0;" onmouseover="sh(539,539,-240,'01.04.2022 16,70');" onmouseout="hh();" /><rect x="545" y="-234" width="6" height="234" style="fill:transparent;" onmouseover="sh(548,548,-240,'01.05.2022 16,27');" onmouseout="hh();" /><rect x="545" y="-110" width="6" height="110" style="fill:#0080C0;" onmouseover="sh(548,548,-240,'01.05.2022 16,27');" onmouseout="hh();" /><rect x="554" y="-234" width="6" height="234" style="fill:transparent;" onmouseover="sh(557,557,-240,'01.06.2022 20,85');" onmouseout="hh();" /><rect x="554" y="-152" width="6" height="152" style="fill:#0080C0;" onmouseover="sh(557,557,-240,'01.06.2022 20,85');" onmouseout="hh();" /><rect x="563" y="-234" width="6" height="234" style="fill:transparent;" onmouseover="sh(566,566,-240,'01.07.2022 20,91');" onmouseout="hh();" /><rect x="563" y="-152" width="6" height="152" style="fill:#0080C0;" onmouseover="sh(566,566,-240,'01.07.2022 20,91');" onmouseout="hh();" /><rect x="572" y="-234" width="6" height="234" style="fill:transparent;" onmouseover="sh(575,575,-240,'01.08.2022 21,69');" onmouseout="hh();" /><rect x="572" y="-159" width="6" height="159" style="fill:#0080C0;" onmouseover="sh(575,575,-240,'01.08.2022 21,69');" onmouseout="hh();" /><rect x="581" y="-234" width="6" height="234" style="fill:transparent;" onmouseover="sh(584,584,-240,'01.09.2022 21,81');" onmouseout="hh();" /><rect x="581" y="-160" width="6" height="160" style="fill:#0080C0;" onmouseover="sh(584,584,-240,'01.09.2022 21,81');" onmouseout="hh();" /><rect x="590" y="-234" width="6" height="234" style="fill:transparent;" onmouseover="sh(593,593,-240,'01.10.2022 21,83');" onmouseout="hh();" /><rect x="590" y="-160" width="6" height="160" style="fill:#0080C0;" onmouseover="sh(593,593,-240,'01.10.2022 21,83');" onmouseout="hh();" /><rect x="599" y="-234" width="6" height="234" style="fill:transparent;" onmouseover="sh(602,602,-240,'01.11.2022 22,75');" onmouseout="hh();" /><rect x="599" y="-169" width="6" height="169" style="fill:#0080C0;" onmouseover="sh(602,602,-240,'01.11.2022 22,75');" onmouseout="hh();" /><rect x="608" y="-234" width="6" height="234" style="fill:transparent;" onmouseover="sh(611,605,-240,'01.12.2022 24,11');" onmouseout="hh();" /><rect x="608" y="-181" width="6" height="181" style="fill:#0080C0;" onmouseover="sh(611,605,-240,'01.12.2022 24,11');" onmouseout="hh();" /><rect x="617" y="-234" width="6" height="234" style="fill:transparent;" onmouseover="sh(620,605,-240,'01.01.2023 25,35');" onmouseout="hh();" /><rect x="617" y="-192" width="6" height="192" style="fill:#0080C0;" onmouseover="sh(620,605,-240,'01.01.2023 25,35');" onmouseout="hh();" /><rect x="626" y="-234" width="6" height="234" style="fill:transparent;" onmouseover="sh(629,605,-240,'01.02.2023 27,32');" onmouseout="hh();" /><rect x="626" y="-210" width="6" height="210" style="fill:#0080C0;" onmouseover="sh(629,605,-240,'01.02.2023 27,32');" onmouseout="hh();" /><rect x="635" y="-234" width="6" height="234" style="fill:transparent;" onmouseover="sh(638,605,-240,'01.03.2023 27,30');" onmouseout="hh();" /><rect x="635" y="-210" width="6" height="210" style="fill:#0080C0;" onmouseover="sh(638,605,-240,'01.03.2023 27,30');" onmouseout="hh();" /><rect x="644" y="-234" width="6" height="234" style="fill:transparent;" onmouseover="sh(647,605,-240,'01.04.2023 27,33');" onmouseout="hh();" /><rect x="644" y="-210" width="6" height="210" style="fill:#0080C0;" onmouseover="sh(647,605,-240,'01.04.2023 27,33');" onmouseout="hh();" /><rect x="653" y="-234" width="6" height="234" style="fill:transparent;" onmouseover="sh(656,605,-240,'01.05.2023 27,90');" onmouseout="hh();" /><rect x="653" y="-215" width="6" height="215" style="fill:#0080C0;" onmouseover="sh(656,605,-240,'01.05.2023 27,90');" onmouseout="hh();" /><rect x="662" y="-234" width="6" height="234" style="fill:transparent;" onmouseover="sh(665,605,-240,'01.06.2023 27,31');" onmouseout="hh();" /><rect x="662" y="-210" width="6" height="210" style="fill:#0080C0;" onmouseover="sh(665,605,-240,'01.06.2023 27,31');" onmouseout="hh();" />
<line x1="-6" y1="0" x2="675" y2="0" class="axes" /><line x1="0" y1="-250" x2="0" y2="0" class="axes" /><text x="-2" y="-254" style="text-anchor:end;">грн.</text>
<use xlink:href="#hintbox" id="usebox" x="0" y="0" style="visibility:hidden;" />
</svg>
