<?xml version="1.0" encoding="UTF-8" standalone="no"?>
<!DOCTYPE svg PUBLIC "-//W3C//DTD SVG 1.1//EN" "http://www.w3.org/Graphics/SVG/1.1/DTD/svg11.dtd">
<svg version="1.1" xmlns="http://www.w3.org/2000/svg" xmlns:xlink="http://www.w3.org/1999/xlink" xmlns:ev="http://www.w3.org/2001/xml-events" width="172" height="330" viewBox="-55 -272 172 330" preserveAspectRatio="none">
<style type="text/css"><![CDATA[
line { stroke-width:1px; }
line.axes { stroke:#505050; }
line.grid { stroke:#D8D8D8; }
rect.bg { fill:#FFFFFF; }
text { font-family:arial,sans-serif; font-size:12px; fill:#000000; }
]]></style>
<defs>
<g id="hintbox"><rect x="0" y="0" width="77" height="34" style="stroke:#505050; stroke-width:1px; fill:rgba(255,255,255,0.87);" /><text id="hint0" x="4" y="14"> </text><text x="7" y="28"></text><text id="hint1" x="73" y="28" style="text-anchor:end;"> </text></g>
<g id="hintline"><line x1="0" y1="-242" x2="0" y2="0" class="axes" style="stroke-dasharray:2 1" /></g>
</defs>
<script><![CDATA[
function shb(x,y,dat) {
ar=dat.split(' '); for (i=0; i<ar.length; ++i) { if (i&&ar[i]) ar[i]+=' грн.'; h=document.getElementById('hint'+i); h.textContent=ar[i]; }
u=document.getElementById('usebox'); u.setAttribute('x',x); u.setAttribute('y',y); u.setAttribute('style','visibility:visible;'); }
function hhb() { u=document.getElementById('usebox'); u.setAttribute('style','visibility:hidden;'); u.setAttribute('x','0'); u.setAttribute('y','0'); }
function shl(x) { u=document.getElementById('useline'); u.setAttribute('x',x); u.setAttribute('style','visibility:visible;'); }
function hhl() { u=document.getElementById('useline'); u.setAttribute('style','visibility:hidden;'); u.setAttribute('x','0'); }
function sh(xl,xb,y,dat) { shl(xl); shb(xb,y,dat); }
function hh() { hhb(); hhl(); }
]]></script>
<rect x="-55" y="-272" width="172" height="330" class="bg" />
<line x1="26" y1="0" x2="26" y2="4" class="axes" /><text x="31" y="8" transform="rotate(-90,31,8)" style="text-anchor:end;">10.2022</text><line x1="53" y1="0" x2="53" y2="4" class="axes" /><text x="58" y="8" transform="rotate(-90,58,8)" style="text-anchor:end;">01.2023</text><line x1="80" y1="0" x2="80" y2="4" class="axes" /><text x="85" y="8" transform="rotate(-90,85,8)" style="text-anchor:end;">04.2023</text>
<line x1="0" y1="-22" x2="105" y2="-22" class="grid" /><line x1="0" y1="-22" x2="-4" y2="-22" class="axes" /><text x="-8" y="-18" style="text-anchor:end;">28,5</text><line x1="0" y1="-44" x2="105" y2="-44" class="grid" /><line x1="0" y1="-44" x2="-4" y2="-44" class="axes" /><text x="-8" y="-40" style="text-anchor:end;">29,0</text><line x1="0" y1="-66" x2="105" y2="-66" class="grid" /><line x1="0" y1="-66" x2="-4" y2="-66" class="axes" /><text x="-8" y="-62" style="text-anchor:end;">29,5</text><line x1="0" y1="-88" x2="105" y2="-88" class="grid" /><line x1="0" y1="-88" x2="-4" y2="-88" class="axes" /><text x="-8" y="-84" style="text-anchor:end;">30,0</text><line x1="0" y1="-110" x2="105" y2="-110" class="grid" /><line x1="0" y1="-110" x2="-4" y2="-110" class="axes" /><text x="-8" y="-106" style="text-anchor:end;">30,5</text><line x1="0" y1="-132" x2="105" y2="-132" class="grid" /><line x1="0" y1="-132" x2="-4" y2="-132" class="axes" /><text x="-8" y="-128" style="text-anchor:end;">31,0</text><line x1="0" y1="-154" x2="105" y2="-154" class="grid" /><line x1="0" y1="-154" x2="-4" y2="-154" class="axes" /><text x="-8" y="-150" style="text-anchor:end;">31,5</text><line x1="0" y1="-176" x2="105" y2="-176" class="grid" /><line x1="0" y1="-176" x2="-4" y2="-176" class="axes" /><text x="-8" y="-172" style="text-anchor:end;">32,0</text><line x1="0" y1="-198" x2="105" y2="-198" class="grid" /><line x1="0" y1="-198" x2="-4" y2="-198" class="axes" /><text x="-8" y="-194" style="text-anchor:end;">32,5</text><line x1="0" y1="-220" x2="105" y2="-220" class="grid" /><line x1="0" y1="-220" x2="-4" y2="-220" class="axes" /><text x="-8" y="-216" style="text-anchor:end;">33,0</text><line x1="0" y1="-242" x2="105" y2="-242" class="grid" /><line x1="0" y1="-242" x2="-4" y2="-242" class="axes" /><text x="-8" y="-238" style="text-anchor:end;">33,5</text>
<use xlink:href="#hintline" id="useline" x="0" style="visibility:hidden;" />
<rect x="5" y="-242" width="6" height="242" style="fill:transparent;" onmouseover="sh(8,8,-248,'01.08.2022 29,33');" onmouseout="hh();" /><rect x="5" y="-59" width="6" height="59" style="fill:#0080C0;" onmouseover="sh(8,8,-248,'01.08.2022 29,33');" onmouseout="hh();" /><rect x="14" y="-242" width="6" height="242" style="fill:transparent;" onmouseover="sh(17,17,-248,'01.09.2022 30,56');" onmouseout="hh();" /><rect x="14" y="-113" width="6" height="113" style="fill:#0080C0;" onmouseover="sh(17,17,-248,'01.09.2022 30,56');" onmouseout="hh();" /><rect x="23" y="-242" width="6" height="242" style="fill:transparent;" onmouseover="sh(26,26,-248,'01.10.2022 31,70');" onmouseout="hh();" /><rect x="23" y="-163" width="6" height="163" style="fill:#0080C0;" onmouseover="sh(26,26,-248,'01.10.2022 31,70');" onmouseout="hh();" /><rect x="32" y="-242" width="6" height="242" style="fill:transparent;" onmouseover="sh(35,35,-248,'01.11.2022 32,55');" onmouseout="hh();" /><rect x="32" y="-200" width="6" height="200" style="fill:#0080C0;" onmouseover="sh(35,35,-248,'01.11.2022 32,55');" onmouseout="hh();" /><rect x="41" y="-242" width="6" height="242" style="fill:transparent;" onmouseover="sh(44,38,-248,'01.12.2022 32,55');" onmouseout="hh();" /><rect x="41" y="-200" width="6" height="200" style="fill:#0080C0;" onmouseover="sh(44,38,-248,'01.12.2022 32,55');" onmouseout="hh();" /><rect x="50" y="-242" width="6" height="242" style="fill:transparent;" onmouseover="sh(53,38,-248,'01.01.2023 32,55');" onmouseout="hh();" /><rect x="50" y="-200" width="6" height="200" style="fill:#0080C0;" onmouseover="sh(53,38,-248,'01.01.2023 32,55');" onmouseout="hh();" /><rect x="59" y="-242" width="6" height="242" style="fill:transparent;" onmouseover="sh(62,38,-248,'01.02.2023 32,87');" onmouseout="hh();" /><rect x="59" y="-214" width="6" height="214" style="fill:#0080C0;" onmouseover="sh(62,38,-248,'01.02.2023 32,87');" onmouseout="hh();" /><rect x="68" y="-242" width="6" height="242" style="fill:transparent;" onmouseover="sh(71,38,-248,'01.03.2023 32,28');" onmouseout="hh();" /><rect x="68" y="-188" width="6" height="188" style="fill:#0080C0;" onmouseover="sh(71,38,-248,'01.03.2023 32,28');" onmouseout="hh();" /><rect x="77" y="-242" width="6" height="242" style="fill:transparent;" onmouseover="sh(80,38,-248,'01.04.2023 31,90');" onmouseout="hh();" /><rect x="77" y="-172" width="6" height="172" style="fill:#0080C0;" onmouseover="sh(80,38,-248,'01.04.2023 31,90');" onmouseout="hh();" /><rect x="86" y="-242" width="6" height="242" style="fill:transparent;" onmouseover="sh(89,38,-248,'01.05.2023 32,29');" onmouseout="hh();" /><rect x="86" y="-189" width="6" height="189" style="fill:#0080C0;" onmouseover="sh(89,38,-248,'01.05.2023 32,29');" onmouseout="hh();" /><rect x="95" y="-242" width="6" height="242" style="fill:transparent;" onmouseover="sh(98,38,-248,'01.06.2023 30,55');" onmouseout="hh();" /><rect x="95" y="-112" width="6" height="112" style="fill:#0080C0;" onmouseover="sh(98,38,-248,'01.06.2023 30,55');" onmouseout="hh();" />
<line x1="-6" y1="0" x2="108" y2="0" class="axes" /><line x1="0" y1="-258" x2="0" y2="0" class="axes" /><text x="-2" y="-262" style="text-anchor:end;">грн.</text>
<use xlink:href="#hintbox" id="usebox" x="0" y="0" style="visibility:hidden;" />
</svg>
