<?xml version="1.0" encoding="UTF-8" standalone="no"?>
<!DOCTYPE svg PUBLIC "-//W3C//DTD SVG 1.1//EN" "http://www.w3.org/Graphics/SVG/1.1/DTD/svg11.dtd">
<svg version="1.1" xmlns="http://www.w3.org/2000/svg" xmlns:xlink="http://www.w3.org/1999/xlink" xmlns:ev="http://www.w3.org/2001/xml-events" width="696" height="331" viewBox="-48 -273 696 331" preserveAspectRatio="none">
<style type="text/css"><![CDATA[
line { stroke-width:1px; }
line.axes { stroke:#505050; }
line.grid { stroke:#D8D8D8; }
rect.bg { fill:#FFFFFF; }
text { font-family:arial,sans-serif; font-size:12px; fill:#000000; }
]]></style>
<defs>
<g id="hintbox"><rect x="0" y="0" width="77" height="34" style="stroke:#505050; stroke-width:1px; fill:rgba(255,255,255,0.87);" /><text id="hint0" x="4" y="14"> </text><text x="7" y="28"></text><text id="hint1" x="73" y="28" style="text-anchor:end;"> </text></g>
<g id="hintline"><line x1="0" y1="-243" x2="0" y2="0" class="axes" style="stroke-dasharray:2 1" /></g>
</defs>
<script><![CDATA[
function shb(x,y,dat) {
ar=dat.split(' '); for (i=0; i<ar.length; ++i) { if (i&&ar[i]) ar[i]+=' грн.'; h=document.getElementById('hint'+i); h.textContent=ar[i]; }
u=document.getElementById('usebox'); u.setAttribute('x',x); u.setAttribute('y',y); u.setAttribute('style','visibility:visible;'); }
function hhb() { u=document.getElementById('usebox'); u.setAttribute('style','visibility:hidden;'); u.setAttribute('x','0'); u.setAttribute('y','0'); }
function shl(x) { u=document.getElementById('useline'); u.setAttribute('x',x); u.setAttribute('style','visibility:visible;'); }
function hhl() { u=document.getElementById('useline'); u.setAttribute('style','visibility:hidden;'); u.setAttribute('x','0'); }
function sh(xl,xb,y,dat) { shl(xl); shb(xb,y,dat); }
function hh() { hhb(); hhl(); }
]]></script>
<rect x="-48" y="-273" width="696" height="331" class="bg" />
<line x1="26" y1="0" x2="26" y2="4" class="axes" /><text x="31" y="8" transform="rotate(-90,31,8)" style="text-anchor:end;">10.2017</text><line x1="53" y1="0" x2="53" y2="4" class="axes" /><text x="58" y="8" transform="rotate(-90,58,8)" style="text-anchor:end;">01.2018</text><line x1="80" y1="0" x2="80" y2="4" class="axes" /><text x="85" y="8" transform="rotate(-90,85,8)" style="text-anchor:end;">04.2018</text><line x1="107" y1="0" x2="107" y2="4" class="axes" /><text x="112" y="8" transform="rotate(-90,112,8)" style="text-anchor:end;">07.2018</text><line x1="134" y1="0" x2="134" y2="4" class="axes" /><text x="139" y="8" transform="rotate(-90,139,8)" style="text-anchor:end;">10.2018</text><line x1="161" y1="0" x2="161" y2="4" class="axes" /><text x="166" y="8" transform="rotate(-90,166,8)" style="text-anchor:end;">01.2019</text><line x1="188" y1="0" x2="188" y2="4" class="axes" /><text x="193" y="8" transform="rotate(-90,193,8)" style="text-anchor:end;">04.2019</text><line x1="215" y1="0" x2="215" y2="4" class="axes" /><text x="220" y="8" transform="rotate(-90,220,8)" style="text-anchor:end;">07.2019</text><line x1="242" y1="0" x2="242" y2="4" class="axes" /><text x="247" y="8" transform="rotate(-90,247,8)" style="text-anchor:end;">10.2019</text><line x1="269" y1="0" x2="269" y2="4" class="axes" /><text x="274" y="8" transform="rotate(-90,274,8)" style="text-anchor:end;">01.2020</text><line x1="296" y1="0" x2="296" y2="4" class="axes" /><text x="301" y="8" transform="rotate(-90,301,8)" style="text-anchor:end;">04.2020</text><line x1="314" y1="0" x2="314" y2="4" class="axes" /><text x="319" y="8" transform="rotate(-90,319,8)" style="text-anchor:end;">07.2020</text><line x1="341" y1="0" x2="341" y2="4" class="axes" /><text x="346" y="8" transform="rotate(-90,346,8)" style="text-anchor:end;">10.2020</text><line x1="368" y1="0" x2="368" y2="4" class="axes" /><text x="373" y="8" transform="rotate(-90,373,8)" style="text-anchor:end;">01.2021</text><line x1="395" y1="0" x2="395" y2="4" class="axes" /><text x="400" y="8" transform="rotate(-90,400,8)" style="text-anchor:end;">04.2021</text><line x1="422" y1="0" x2="422" y2="4" class="axes" /><text x="427" y="8" transform="rotate(-90,427,8)" style="text-anchor:end;">07.2021</text><line x1="449" y1="0" x2="449" y2="4" class="axes" /><text x="454" y="8" transform="rotate(-90,454,8)" style="text-anchor:end;">10.2021</text><line x1="476" y1="0" x2="476" y2="4" class="axes" /><text x="481" y="8" transform="rotate(-90,481,8)" style="text-anchor:end;">01.2022</text><line x1="503" y1="0" x2="503" y2="4" class="axes" /><text x="508" y="8" transform="rotate(-90,508,8)" style="text-anchor:end;">04.2022</text><line x1="530" y1="0" x2="530" y2="4" class="axes" /><text x="535" y="8" transform="rotate(-90,535,8)" style="text-anchor:end;">07.2022</text><line x1="557" y1="0" x2="557" y2="4" class="axes" /><text x="562" y="8" transform="rotate(-90,562,8)" style="text-anchor:end;">10.2022</text><line x1="584" y1="0" x2="584" y2="4" class="axes" /><text x="589" y="8" transform="rotate(-90,589,8)" style="text-anchor:end;">01.2023</text><line x1="611" y1="0" x2="611" y2="4" class="axes" /><text x="616" y="8" transform="rotate(-90,616,8)" style="text-anchor:end;">04.2023</text>
<line x1="0" y1="-27" x2="636" y2="-27" class="grid" /><line x1="0" y1="-27" x2="-4" y2="-27" class="axes" /><text x="-8" y="-23" style="text-anchor:end;">5</text><line x1="0" y1="-54" x2="636" y2="-54" class="grid" /><line x1="0" y1="-54" x2="-4" y2="-54" class="axes" /><text x="-8" y="-50" style="text-anchor:end;">10</text><line x1="0" y1="-81" x2="636" y2="-81" class="grid" /><line x1="0" y1="-81" x2="-4" y2="-81" class="axes" /><text x="-8" y="-77" style="text-anchor:end;">15</text><line x1="0" y1="-108" x2="636" y2="-108" class="grid" /><line x1="0" y1="-108" x2="-4" y2="-108" class="axes" /><text x="-8" y="-104" style="text-anchor:end;">20</text><line x1="0" y1="-135" x2="636" y2="-135" class="grid" /><line x1="0" y1="-135" x2="-4" y2="-135" class="axes" /><text x="-8" y="-131" style="text-anchor:end;">25</text><line x1="0" y1="-162" x2="636" y2="-162" class="grid" /><line x1="0" y1="-162" x2="-4" y2="-162" class="axes" /><text x="-8" y="-158" style="text-anchor:end;">30</text><line x1="0" y1="-189" x2="636" y2="-189" class="grid" /><line x1="0" y1="-189" x2="-4" y2="-189" class="axes" /><text x="-8" y="-185" style="text-anchor:end;">35</text><line x1="0" y1="-216" x2="636" y2="-216" class="grid" /><line x1="0" y1="-216" x2="-4" y2="-216" class="axes" /><text x="-8" y="-212" style="text-anchor:end;">40</text><line x1="0" y1="-243" x2="636" y2="-243" class="grid" /><line x1="0" y1="-243" x2="-4" y2="-243" class="axes" /><text x="-8" y="-239" style="text-anchor:end;">45</text>
<use xlink:href="#hintline" id="useline" x="0" style="visibility:hidden;" />
<rect x="5" y="-243" width="6" height="243" style="fill:transparent;" onmouseover="sh(8,8,-249,'01.08.2017 16,28');" onmouseout="hh();" /><rect x="5" y="-88" width="6" height="88" style="fill:#0080C0;" onmouseover="sh(8,8,-249,'01.08.2017 16,28');" onmouseout="hh();" /><rect x="14" y="-243" width="6" height="243" style="fill:transparent;" onmouseover="sh(17,17,-249,'01.09.2017 14,08');" onmouseout="hh();" /><rect x="14" y="-76" width="6" height="76" style="fill:#0080C0;" onmouseover="sh(17,17,-249,'01.09.2017 14,08');" onmouseout="hh();" /><rect x="23" y="-243" width="6" height="243" style="fill:transparent;" onmouseover="sh(26,26,-249,'01.10.2017 12,57');" onmouseout="hh();" /><rect x="23" y="-68" width="6" height="68" style="fill:#0080C0;" onmouseover="sh(26,26,-249,'01.10.2017 12,57');" onmouseout="hh();" /><rect x="32" y="-243" width="6" height="243" style="fill:transparent;" onmouseover="sh(35,35,-249,'01.11.2017 14,59');" onmouseout="hh();" /><rect x="32" y="-79" width="6" height="79" style="fill:#0080C0;" onmouseover="sh(35,35,-249,'01.11.2017 14,59');" onmouseout="hh();" /><rect x="41" y="-243" width="6" height="243" style="fill:transparent;" onmouseover="sh(44,44,-249,'01.12.2017 15,67');" onmouseout="hh();" /><rect x="41" y="-85" width="6" height="85" style="fill:#0080C0;" onmouseover="sh(44,44,-249,'01.12.2017 15,67');" onmouseout="hh();" /><rect x="50" y="-243" width="6" height="243" style="fill:transparent;" onmouseover="sh(53,53,-249,'01.01.2018 15,52');" onmouseout="hh();" /><rect x="50" y="-84" width="6" height="84" style="fill:#0080C0;" onmouseover="sh(53,53,-249,'01.01.2018 15,52');" onmouseout="hh();" /><rect x="59" y="-243" width="6" height="243" style="fill:transparent;" onmouseover="sh(62,62,-249,'01.02.2018 17,59');" onmouseout="hh();" /><rect x="59" y="-95" width="6" height="95" style="fill:#0080C0;" onmouseover="sh(62,62,-249,'01.02.2018 17,59');" onmouseout="hh();" /><rect x="68" y="-243" width="6" height="243" style="fill:transparent;" onmouseover="sh(71,71,-249,'01.03.2018 20,47');" onmouseout="hh();" /><rect x="68" y="-111" width="6" height="111" style="fill:#0080C0;" onmouseover="sh(71,71,-249,'01.03.2018 20,47');" onmouseout="hh();" /><rect x="77" y="-243" width="6" height="243" style="fill:transparent;" onmouseover="sh(80,80,-249,'01.04.2018 22,02');" onmouseout="hh();" /><rect x="77" y="-119" width="6" height="119" style="fill:#0080C0;" onmouseover="sh(80,80,-249,'01.04.2018 22,02');" onmouseout="hh();" /><rect x="86" y="-243" width="6" height="243" style="fill:transparent;" onmouseover="sh(89,89,-249,'01.05.2018 20,56');" onmouseout="hh();" /><rect x="86" y="-111" width="6" height="111" style="fill:#0080C0;" onmouseover="sh(89,89,-249,'01.05.2018 20,56');" onmouseout="hh();" /><rect x="95" y="-243" width="6" height="243" style="fill:transparent;" onmouseover="sh(98,98,-249,'01.06.2018 19,48');" onmouseout="hh();" /><rect x="95" y="-105" width="6" height="105" style="fill:#0080C0;" onmouseover="sh(98,98,-249,'01.06.2018 19,48');" onmouseout="hh();" /><rect x="104" y="-243" width="6" height="243" style="fill:transparent;" onmouseover="sh(107,107,-249,'01.07.2018 19,69');" onmouseout="hh();" /><rect x="104" y="-106" width="6" height="106" style="fill:#0080C0;" onmouseover="sh(107,107,-249,'01.07.2018 19,69');" onmouseout="hh();" /><rect x="113" y="-243" width="6" height="243" style="fill:transparent;" onmouseover="sh(116,116,-249,'01.08.2018 14,72');" onmouseout="hh();" /><rect x="113" y="-79" width="6" height="79" style="fill:#0080C0;" onmouseover="sh(116,116,-249,'01.08.2018 14,72');" onmouseout="hh();" /><rect x="122" y="-243" width="6" height="243" style="fill:transparent;" onmouseover="sh(125,125,-249,'01.09.2018 10,23');" onmouseout="hh();" /><rect x="122" y="-55" width="6" height="55" style="fill:#0080C0;" onmouseover="sh(125,125,-249,'01.09.2018 10,23');" onmouseout="hh();" /><rect x="131" y="-243" width="6" height="243" style="fill:transparent;" onmouseover="sh(134,134,-249,'01.10.2018 9,06');" onmouseout="hh();" /><rect x="131" y="-49" width="6" height="49" style="fill:#0080C0;" onmouseover="sh(134,134,-249,'01.10.2018 9,06');" onmouseout="hh();" /><rect x="140" y="-243" width="6" height="243" style="fill:transparent;" onmouseover="sh(143,143,-249,'01.11.2018 8,38');" onmouseout="hh();" /><rect x="140" y="-45" width="6" height="45" style="fill:#0080C0;" onmouseover="sh(143,143,-249,'01.11.2018 8,38');" onmouseout="hh();" /><rect x="149" y="-243" width="6" height="243" style="fill:transparent;" onmouseover="sh(152,152,-249,'01.12.2018 6,48');" onmouseout="hh();" /><rect x="149" y="-35" width="6" height="35" style="fill:#0080C0;" onmouseover="sh(152,152,-249,'01.12.2018 6,48');" onmouseout="hh();" /><rect x="158" y="-243" width="6" height="243" style="fill:transparent;" onmouseover="sh(161,161,-249,'01.01.2019 7,07');" onmouseout="hh();" /><rect x="158" y="-38" width="6" height="38" style="fill:#0080C0;" onmouseover="sh(161,161,-249,'01.01.2019 7,07');" onmouseout="hh();" /><rect x="167" y="-243" width="6" height="243" style="fill:transparent;" onmouseover="sh(170,170,-249,'01.02.2019 7,44');" onmouseout="hh();" /><rect x="167" y="-40" width="6" height="40" style="fill:#0080C0;" onmouseover="sh(170,170,-249,'01.02.2019 7,44');" onmouseout="hh();" /><rect x="176" y="-243" width="6" height="243" style="fill:transparent;" onmouseover="sh(179,179,-249,'01.03.2019 7,50');" onmouseout="hh();" /><rect x="176" y="-40" width="6" height="40" style="fill:#0080C0;" onmouseover="sh(179,179,-249,'01.03.2019 7,50');" onmouseout="hh();" /><rect x="185" y="-243" width="6" height="243" style="fill:transparent;" onmouseover="sh(188,188,-249,'01.04.2019 7,55');" onmouseout="hh();" /><rect x="185" y="-41" width="6" height="41" style="fill:#0080C0;" onmouseover="sh(188,188,-249,'01.04.2019 7,55');" onmouseout="hh();" /><rect x="194" y="-243" width="6" height="243" style="fill:transparent;" onmouseover="sh(197,197,-249,'01.05.2019 10,52');" onmouseout="hh();" /><rect x="194" y="-57" width="6" height="57" style="fill:#0080C0;" onmouseover="sh(197,197,-249,'01.05.2019 10,52');" onmouseout="hh();" /><rect x="203" y="-243" width="6" height="243" style="fill:transparent;" onmouseover="sh(206,206,-249,'01.06.2019 14,49');" onmouseout="hh();" /><rect x="203" y="-78" width="6" height="78" style="fill:#0080C0;" onmouseover="sh(206,206,-249,'01.06.2019 14,49');" onmouseout="hh();" /><rect x="212" y="-243" width="6" height="243" style="fill:transparent;" onmouseover="sh(215,215,-249,'01.07.2019 14,45');" onmouseout="hh();" /><rect x="212" y="-78" width="6" height="78" style="fill:#0080C0;" onmouseover="sh(215,215,-249,'01.07.2019 14,45');" onmouseout="hh();" /><rect x="221" y="-243" width="6" height="243" style="fill:transparent;" onmouseover="sh(224,224,-249,'01.08.2019 19,63');" onmouseout="hh();" /><rect x="221" y="-106" width="6" height="106" style="fill:#0080C0;" onmouseover="sh(224,224,-249,'01.08.2019 19,63');" onmouseout="hh();" /><rect x="230" y="-243" width="6" height="243" style="fill:transparent;" onmouseover="sh(233,233,-249,'01.09.2019 18,28');" onmouseout="hh();" /><rect x="230" y="-99" width="6" height="99" style="fill:#0080C0;" onmouseover="sh(233,233,-249,'01.09.2019 18,28');" onmouseout="hh();" /><rect x="239" y="-243" width="6" height="243" style="fill:transparent;" onmouseover="sh(242,242,-249,'01.10.2019 17,62');" onmouseout="hh();" /><rect x="239" y="-95" width="6" height="95" style="fill:#0080C0;" onmouseover="sh(242,242,-249,'01.10.2019 17,62');" onmouseout="hh();" /><rect x="248" y="-243" width="6" height="243" style="fill:transparent;" onmouseover="sh(251,251,-249,'01.11.2019 15,79');" onmouseout="hh();" /><rect x="248" y="-85" width="6" height="85" style="fill:#0080C0;" onmouseover="sh(251,251,-249,'01.11.2019 15,79');" onmouseout="hh();" /><rect x="257" y="-243" width="6" height="243" style="fill:transparent;" onmouseover="sh(260,260,-249,'01.12.2019 18,53');" onmouseout="hh();" /><rect x="257" y="-100" width="6" height="100" style="fill:#0080C0;" onmouseover="sh(260,260,-249,'01.12.2019 18,53');" onmouseout="hh();" /><rect x="266" y="-243" width="6" height="243" style="fill:transparent;" onmouseover="sh(269,269,-249,'01.01.2020 15,49');" onmouseout="hh();" /><rect x="266" y="-84" width="6" height="84" style="fill:#0080C0;" onmouseover="sh(269,269,-249,'01.01.2020 15,49');" onmouseout="hh();" /><rect x="275" y="-243" width="6" height="243" style="fill:transparent;" onmouseover="sh(278,278,-249,'01.02.2020 18,42');" onmouseout="hh();" /><rect x="275" y="-99" width="6" height="99" style="fill:#0080C0;" onmouseover="sh(278,278,-249,'01.02.2020 18,42');" onmouseout="hh();" /><rect x="284" y="-243" width="6" height="243" style="fill:transparent;" onmouseover="sh(287,287,-249,'01.03.2020 18,20');" onmouseout="hh();" /><rect x="284" y="-98" width="6" height="98" style="fill:#0080C0;" onmouseover="sh(287,287,-249,'01.03.2020 18,20');" onmouseout="hh();" /><rect x="293" y="-243" width="6" height="243" style="fill:transparent;" onmouseover="sh(296,296,-249,'01.04.2020 19,09');" onmouseout="hh();" /><rect x="293" y="-103" width="6" height="103" style="fill:#0080C0;" onmouseover="sh(296,296,-249,'01.04.2020 19,09');" onmouseout="hh();" /><rect x="302" y="-243" width="6" height="243" style="fill:transparent;" onmouseover="sh(305,305,-249,'01.05.2020 29,90');" onmouseout="hh();" /><rect x="302" y="-161" width="6" height="161" style="fill:#0080C0;" onmouseover="sh(305,305,-249,'01.05.2020 29,90');" onmouseout="hh();" /><rect x="311" y="-243" width="6" height="243" style="fill:transparent;" onmouseover="sh(314,314,-249,'01.07.2020 37,06');" onmouseout="hh();" /><rect x="311" y="-200" width="6" height="200" style="fill:#0080C0;" onmouseover="sh(314,314,-249,'01.07.2020 37,06');" onmouseout="hh();" /><rect x="320" y="-243" width="6" height="243" style="fill:transparent;" onmouseover="sh(323,323,-249,'01.08.2020 28,01');" onmouseout="hh();" /><rect x="320" y="-151" width="6" height="151" style="fill:#0080C0;" onmouseover="sh(323,323,-249,'01.08.2020 28,01');" onmouseout="hh();" /><rect x="329" y="-243" width="6" height="243" style="fill:transparent;" onmouseover="sh(332,332,-249,'01.09.2020 20,64');" onmouseout="hh();" /><rect x="329" y="-111" width="6" height="111" style="fill:#0080C0;" onmouseover="sh(332,332,-249,'01.09.2020 20,64');" onmouseout="hh();" /><rect x="338" y="-243" width="6" height="243" style="fill:transparent;" onmouseover="sh(341,341,-249,'01.10.2020 16,33');" onmouseout="hh();" /><rect x="338" y="-88" width="6" height="88" style="fill:#0080C0;" onmouseover="sh(341,341,-249,'01.10.2020 16,33');" onmouseout="hh();" /><rect x="347" y="-243" width="6" height="243" style="fill:transparent;" onmouseover="sh(350,350,-249,'01.11.2020 18,51');" onmouseout="hh();" /><rect x="347" y="-100" width="6" height="100" style="fill:#0080C0;" onmouseover="sh(350,350,-249,'01.11.2020 18,51');" onmouseout="hh();" /><rect x="356" y="-243" width="6" height="243" style="fill:transparent;" onmouseover="sh(359,359,-249,'01.12.2020 18,86');" onmouseout="hh();" /><rect x="356" y="-102" width="6" height="102" style="fill:#0080C0;" onmouseover="sh(359,359,-249,'01.12.2020 18,86');" onmouseout="hh();" /><rect x="365" y="-243" width="6" height="243" style="fill:transparent;" onmouseover="sh(368,368,-249,'01.01.2021 19,63');" onmouseout="hh();" /><rect x="365" y="-106" width="6" height="106" style="fill:#0080C0;" onmouseover="sh(368,368,-249,'01.01.2021 19,63');" onmouseout="hh();" /><rect x="374" y="-243" width="6" height="243" style="fill:transparent;" onmouseover="sh(377,377,-249,'01.02.2021 17,35');" onmouseout="hh();" /><rect x="374" y="-94" width="6" height="94" style="fill:#0080C0;" onmouseover="sh(377,377,-249,'01.02.2021 17,35');" onmouseout="hh();" /><rect x="383" y="-243" width="6" height="243" style="fill:transparent;" onmouseover="sh(386,386,-249,'01.03.2021 20,58');" onmouseout="hh();" /><rect x="383" y="-111" width="6" height="111" style="fill:#0080C0;" onmouseover="sh(386,386,-249,'01.03.2021 20,58');" onmouseout="hh();" /><rect x="392" y="-243" width="6" height="243" style="fill:transparent;" onmouseover="sh(395,395,-249,'01.04.2021 21,47');" onmouseout="hh();" /><rect x="392" y="-116" width="6" height="116" style="fill:#0080C0;" onmouseover="sh(395,395,-249,'01.04.2021 21,47');" onmouseout="hh();" /><rect x="401" y="-243" width="6" height="243" style="fill:transparent;" onmouseover="sh(404,404,-249,'01.05.2021 20,15');" onmouseout="hh();" /><rect x="401" y="-109" width="6" height="109" style="fill:#0080C0;" onmouseover="sh(404,404,-249,'01.05.2021 20,15');" onmouseout="hh();" /><rect x="410" y="-243" width="6" height="243" style="fill:transparent;" onmouseover="sh(413,413,-249,'01.06.2021 19,81');" onmouseout="hh();" /><rect x="410" y="-107" width="6" height="107" style="fill:#0080C0;" onmouseover="sh(413,413,-249,'01.06.2021 19,81');" onmouseout="hh();" /><rect x="419" y="-243" width="6" height="243" style="fill:transparent;" onmouseover="sh(422,422,-249,'01.07.2021 19,56');" onmouseout="hh();" /><rect x="419" y="-106" width="6" height="106" style="fill:#0080C0;" onmouseover="sh(422,422,-249,'01.07.2021 19,56');" onmouseout="hh();" /><rect x="428" y="-243" width="6" height="243" style="fill:transparent;" onmouseover="sh(431,431,-249,'01.08.2021 18,40');" onmouseout="hh();" /><rect x="428" y="-99" width="6" height="99" style="fill:#0080C0;" onmouseover="sh(431,431,-249,'01.08.2021 18,40');" onmouseout="hh();" /><rect x="437" y="-243" width="6" height="243" style="fill:transparent;" onmouseover="sh(440,440,-249,'01.09.2021 15,45');" onmouseout="hh();" /><rect x="437" y="-83" width="6" height="83" style="fill:#0080C0;" onmouseover="sh(440,440,-249,'01.09.2021 15,45');" onmouseout="hh();" /><rect x="446" y="-243" width="6" height="243" style="fill:transparent;" onmouseover="sh(449,449,-249,'01.10.2021 10,97');" onmouseout="hh();" /><rect x="446" y="-59" width="6" height="59" style="fill:#0080C0;" onmouseover="sh(449,449,-249,'01.10.2021 10,97');" onmouseout="hh();" /><rect x="455" y="-243" width="6" height="243" style="fill:transparent;" onmouseover="sh(458,458,-249,'01.11.2021 9,41');" onmouseout="hh();" /><rect x="455" y="-51" width="6" height="51" style="fill:#0080C0;" onmouseover="sh(458,458,-249,'01.11.2021 9,41');" onmouseout="hh();" /><rect x="464" y="-243" width="6" height="243" style="fill:transparent;" onmouseover="sh(467,467,-249,'01.12.2021 7,81');" onmouseout="hh();" /><rect x="464" y="-42" width="6" height="42" style="fill:#0080C0;" onmouseover="sh(467,467,-249,'01.12.2021 7,81');" onmouseout="hh();" /><rect x="473" y="-243" width="6" height="243" style="fill:transparent;" onmouseover="sh(476,476,-249,'01.01.2022 10,35');" onmouseout="hh();" /><rect x="473" y="-56" width="6" height="56" style="fill:#0080C0;" onmouseover="sh(476,476,-249,'01.01.2022 10,35');" onmouseout="hh();" /><rect x="482" y="-243" width="6" height="243" style="fill:transparent;" onmouseover="sh(485,485,-249,'01.02.2022 10,92');" onmouseout="hh();" /><rect x="482" y="-59" width="6" height="59" style="fill:#0080C0;" onmouseover="sh(485,485,-249,'01.02.2022 10,92');" onmouseout="hh();" /><rect x="491" y="-243" width="6" height="243" style="fill:transparent;" onmouseover="sh(494,494,-249,'01.03.2022 13,24');" onmouseout="hh();" /><rect x="491" y="-71" width="6" height="71" style="fill:#0080C0;" onmouseover="sh(494,494,-249,'01.03.2022 13,24');" onmouseout="hh();" /><rect x="500" y="-243" width="6" height="243" style="fill:transparent;" onmouseover="sh(503,503,-249,'01.04.2022 13,35');" onmouseout="hh();" /><rect x="500" y="-72" width="6" height="72" style="fill:#0080C0;" onmouseover="sh(503,503,-249,'01.04.2022 13,35');" onmouseout="hh();" /><rect x="509" y="-243" width="6" height="243" style="fill:transparent;" onmouseover="sh(512,512,-249,'01.05.2022 13,04');" onmouseout="hh();" /><rect x="509" y="-70" width="6" height="70" style="fill:#0080C0;" onmouseover="sh(512,512,-249,'01.05.2022 13,04');" onmouseout="hh();" /><rect x="518" y="-243" width="6" height="243" style="fill:transparent;" onmouseover="sh(521,521,-249,'01.06.2022 12,61');" onmouseout="hh();" /><rect x="518" y="-68" width="6" height="68" style="fill:#0080C0;" onmouseover="sh(521,521,-249,'01.06.2022 12,61');" onmouseout="hh();" /><rect x="527" y="-243" width="6" height="243" style="fill:transparent;" onmouseover="sh(530,530,-249,'01.07.2022 18,67');" onmouseout="hh();" /><rect x="527" y="-101" width="6" height="101" style="fill:#0080C0;" onmouseover="sh(530,530,-249,'01.07.2022 18,67');" onmouseout="hh();" /><rect x="536" y="-243" width="6" height="243" style="fill:transparent;" onmouseover="sh(539,539,-249,'01.08.2022 21,49');" onmouseout="hh();" /><rect x="536" y="-116" width="6" height="116" style="fill:#0080C0;" onmouseover="sh(539,539,-249,'01.08.2022 21,49');" onmouseout="hh();" /><rect x="545" y="-243" width="6" height="243" style="fill:transparent;" onmouseover="sh(548,548,-249,'01.09.2022 20,58');" onmouseout="hh();" /><rect x="545" y="-111" width="6" height="111" style="fill:#0080C0;" onmouseover="sh(548,548,-249,'01.09.2022 20,58');" onmouseout="hh();" /><rect x="554" y="-243" width="6" height="243" style="fill:transparent;" onmouseover="sh(557,557,-249,'01.10.2022 14,61');" onmouseout="hh();" /><rect x="554" y="-79" width="6" height="79" style="fill:#0080C0;" onmouseover="sh(557,557,-249,'01.10.2022 14,61');" onmouseout="hh();" /><rect x="563" y="-243" width="6" height="243" style="fill:transparent;" onmouseover="sh(566,566,-249,'01.11.2022 12,18');" onmouseout="hh();" /><rect x="563" y="-66" width="6" height="66" style="fill:#0080C0;" onmouseover="sh(566,566,-249,'01.11.2022 12,18');" onmouseout="hh();" /><rect x="572" y="-243" width="6" height="243" style="fill:transparent;" onmouseover="sh(575,569,-249,'01.12.2022 10,87');" onmouseout="hh();" /><rect x="572" y="-59" width="6" height="59" style="fill:#0080C0;" onmouseover="sh(575,569,-249,'01.12.2022 10,87');" onmouseout="hh();" /><rect x="581" y="-243" width="6" height="243" style="fill:transparent;" onmouseover="sh(584,569,-249,'01.01.2023 11,83');" onmouseout="hh();" /><rect x="581" y="-64" width="6" height="64" style="fill:#0080C0;" onmouseover="sh(584,569,-249,'01.01.2023 11,83');" onmouseout="hh();" /><rect x="590" y="-243" width="6" height="243" style="fill:transparent;" onmouseover="sh(593,569,-249,'01.02.2023 13,97');" onmouseout="hh();" /><rect x="590" y="-75" width="6" height="75" style="fill:#0080C0;" onmouseover="sh(593,569,-249,'01.02.2023 13,97');" onmouseout="hh();" /><rect x="599" y="-243" width="6" height="243" style="fill:transparent;" onmouseover="sh(602,569,-249,'01.03.2023 15,91');" onmouseout="hh();" /><rect x="599" y="-86" width="6" height="86" style="fill:#0080C0;" onmouseover="sh(602,569,-249,'01.03.2023 15,91');" onmouseout="hh();" /><rect x="608" y="-243" width="6" height="243" style="fill:transparent;" onmouseover="sh(611,569,-249,'01.04.2023 18,08');" onmouseout="hh();" /><rect x="608" y="-98" width="6" height="98" style="fill:#0080C0;" onmouseover="sh(611,569,-249,'01.04.2023 18,08');" onmouseout="hh();" /><rect x="617" y="-243" width="6" height="243" style="fill:transparent;" onmouseover="sh(620,569,-249,'01.05.2023 25,38');" onmouseout="hh();" /><rect x="617" y="-137" width="6" height="137" style="fill:#0080C0;" onmouseover="sh(620,569,-249,'01.05.2023 25,38');" onmouseout="hh();" /><rect x="626" y="-243" width="6" height="243" style="fill:transparent;" onmouseover="sh(629,569,-249,'01.06.2023 31,89');" onmouseout="hh();" /><rect x="626" y="-172" width="6" height="172" style="fill:#0080C0;" onmouseover="sh(629,569,-249,'01.06.2023 31,89');" onmouseout="hh();" />
<line x1="-6" y1="0" x2="639" y2="0" class="axes" /><line x1="0" y1="-259" x2="0" y2="0" class="axes" /><text x="-2" y="-263" style="text-anchor:end;">грн.</text>
<use xlink:href="#hintbox" id="usebox" x="0" y="0" style="visibility:hidden;" />
</svg>
