<?xml version="1.0" encoding="UTF-8" standalone="no"?>
<!DOCTYPE svg PUBLIC "-//W3C//DTD SVG 1.1//EN" "http://www.w3.org/Graphics/SVG/1.1/DTD/svg11.dtd">
<svg version="1.1" xmlns="http://www.w3.org/2000/svg" xmlns:xlink="http://www.w3.org/1999/xlink" xmlns:ev="http://www.w3.org/2001/xml-events" width="741" height="330" viewBox="-48 -272 741 330" preserveAspectRatio="none">
<style type="text/css"><![CDATA[
line { stroke-width:1px; }
line.axes { stroke:#505050; }
line.grid { stroke:#D8D8D8; }
rect.bg { fill:#FFFFFF; }
text { font-family:arial,sans-serif; font-size:12px; fill:#000000; }
]]></style>
<defs>
<g id="hintbox"><rect x="0" y="0" width="77" height="34" style="stroke:#505050; stroke-width:1px; fill:rgba(255,255,255,0.87);" /><text id="hint0" x="4" y="14"> </text><text x="7" y="28"></text><text id="hint1" x="73" y="28" style="text-anchor:end;"> </text></g>
<g id="hintline"><line x1="0" y1="-242" x2="0" y2="0" class="axes" style="stroke-dasharray:2 1" /></g>
</defs>
<script><![CDATA[
function shb(x,y,dat) {
ar=dat.split(' '); for (i=0; i<ar.length; ++i) { if (i&&ar[i]) ar[i]+=' грн.'; h=document.getElementById('hint'+i); h.textContent=ar[i]; }
u=document.getElementById('usebox'); u.setAttribute('x',x); u.setAttribute('y',y); u.setAttribute('style','visibility:visible;'); }
function hhb() { u=document.getElementById('usebox'); u.setAttribute('style','visibility:hidden;'); u.setAttribute('x','0'); u.setAttribute('y','0'); }
function shl(x) { u=document.getElementById('useline'); u.setAttribute('x',x); u.setAttribute('style','visibility:visible;'); }
function hhl() { u=document.getElementById('useline'); u.setAttribute('style','visibility:hidden;'); u.setAttribute('x','0'); }
function sh(xl,xb,y,dat) { shl(xl); shb(xb,y,dat); }
function hh() { hhb(); hhl(); }
]]></script>
<rect x="-48" y="-272" width="741" height="330" class="bg" />
<line x1="17" y1="0" x2="17" y2="4" class="axes" /><text x="22" y="8" transform="rotate(-90,22,8)" style="text-anchor:end;">04.2017</text><line x1="44" y1="0" x2="44" y2="4" class="axes" /><text x="49" y="8" transform="rotate(-90,49,8)" style="text-anchor:end;">07.2017</text><line x1="71" y1="0" x2="71" y2="4" class="axes" /><text x="76" y="8" transform="rotate(-90,76,8)" style="text-anchor:end;">10.2017</text><line x1="98" y1="0" x2="98" y2="4" class="axes" /><text x="103" y="8" transform="rotate(-90,103,8)" style="text-anchor:end;">01.2018</text><line x1="125" y1="0" x2="125" y2="4" class="axes" /><text x="130" y="8" transform="rotate(-90,130,8)" style="text-anchor:end;">04.2018</text><line x1="152" y1="0" x2="152" y2="4" class="axes" /><text x="157" y="8" transform="rotate(-90,157,8)" style="text-anchor:end;">07.2018</text><line x1="179" y1="0" x2="179" y2="4" class="axes" /><text x="184" y="8" transform="rotate(-90,184,8)" style="text-anchor:end;">10.2018</text><line x1="197" y1="0" x2="197" y2="4" class="axes" /><text x="202" y="8" transform="rotate(-90,202,8)" style="text-anchor:end;">01.2019</text><line x1="224" y1="0" x2="224" y2="4" class="axes" /><text x="229" y="8" transform="rotate(-90,229,8)" style="text-anchor:end;">04.2019</text><line x1="251" y1="0" x2="251" y2="4" class="axes" /><text x="256" y="8" transform="rotate(-90,256,8)" style="text-anchor:end;">07.2019</text><line x1="278" y1="0" x2="278" y2="4" class="axes" /><text x="283" y="8" transform="rotate(-90,283,8)" style="text-anchor:end;">10.2019</text><line x1="305" y1="0" x2="305" y2="4" class="axes" /><text x="310" y="8" transform="rotate(-90,310,8)" style="text-anchor:end;">01.2020</text><line x1="332" y1="0" x2="332" y2="4" class="axes" /><text x="337" y="8" transform="rotate(-90,337,8)" style="text-anchor:end;">04.2020</text><line x1="359" y1="0" x2="359" y2="4" class="axes" /><text x="364" y="8" transform="rotate(-90,364,8)" style="text-anchor:end;">07.2020</text><line x1="386" y1="0" x2="386" y2="4" class="axes" /><text x="391" y="8" transform="rotate(-90,391,8)" style="text-anchor:end;">10.2020</text><line x1="413" y1="0" x2="413" y2="4" class="axes" /><text x="418" y="8" transform="rotate(-90,418,8)" style="text-anchor:end;">01.2021</text><line x1="440" y1="0" x2="440" y2="4" class="axes" /><text x="445" y="8" transform="rotate(-90,445,8)" style="text-anchor:end;">04.2021</text><line x1="467" y1="0" x2="467" y2="4" class="axes" /><text x="472" y="8" transform="rotate(-90,472,8)" style="text-anchor:end;">07.2021</text><line x1="494" y1="0" x2="494" y2="4" class="axes" /><text x="499" y="8" transform="rotate(-90,499,8)" style="text-anchor:end;">10.2021</text><line x1="521" y1="0" x2="521" y2="4" class="axes" /><text x="526" y="8" transform="rotate(-90,526,8)" style="text-anchor:end;">01.2022</text><line x1="548" y1="0" x2="548" y2="4" class="axes" /><text x="553" y="8" transform="rotate(-90,553,8)" style="text-anchor:end;">04.2022</text><line x1="575" y1="0" x2="575" y2="4" class="axes" /><text x="580" y="8" transform="rotate(-90,580,8)" style="text-anchor:end;">07.2022</text><line x1="602" y1="0" x2="602" y2="4" class="axes" /><text x="607" y="8" transform="rotate(-90,607,8)" style="text-anchor:end;">10.2022</text><line x1="629" y1="0" x2="629" y2="4" class="axes" /><text x="634" y="8" transform="rotate(-90,634,8)" style="text-anchor:end;">01.2023</text><line x1="656" y1="0" x2="656" y2="4" class="axes" /><text x="661" y="8" transform="rotate(-90,661,8)" style="text-anchor:end;">04.2023</text>
<line x1="0" y1="-22" x2="681" y2="-22" class="grid" /><line x1="0" y1="-22" x2="-4" y2="-22" class="axes" /><text x="-8" y="-18" style="text-anchor:end;">20</text><line x1="0" y1="-44" x2="681" y2="-44" class="grid" /><line x1="0" y1="-44" x2="-4" y2="-44" class="axes" /><text x="-8" y="-40" style="text-anchor:end;">40</text><line x1="0" y1="-66" x2="681" y2="-66" class="grid" /><line x1="0" y1="-66" x2="-4" y2="-66" class="axes" /><text x="-8" y="-62" style="text-anchor:end;">60</text><line x1="0" y1="-88" x2="681" y2="-88" class="grid" /><line x1="0" y1="-88" x2="-4" y2="-88" class="axes" /><text x="-8" y="-84" style="text-anchor:end;">80</text><line x1="0" y1="-110" x2="681" y2="-110" class="grid" /><line x1="0" y1="-110" x2="-4" y2="-110" class="axes" /><text x="-8" y="-106" style="text-anchor:end;">100</text><line x1="0" y1="-132" x2="681" y2="-132" class="grid" /><line x1="0" y1="-132" x2="-4" y2="-132" class="axes" /><text x="-8" y="-128" style="text-anchor:end;">120</text><line x1="0" y1="-154" x2="681" y2="-154" class="grid" /><line x1="0" y1="-154" x2="-4" y2="-154" class="axes" /><text x="-8" y="-150" style="text-anchor:end;">140</text><line x1="0" y1="-176" x2="681" y2="-176" class="grid" /><line x1="0" y1="-176" x2="-4" y2="-176" class="axes" /><text x="-8" y="-172" style="text-anchor:end;">160</text><line x1="0" y1="-198" x2="681" y2="-198" class="grid" /><line x1="0" y1="-198" x2="-4" y2="-198" class="axes" /><text x="-8" y="-194" style="text-anchor:end;">180</text><line x1="0" y1="-220" x2="681" y2="-220" class="grid" /><line x1="0" y1="-220" x2="-4" y2="-220" class="axes" /><text x="-8" y="-216" style="text-anchor:end;">200</text><line x1="0" y1="-242" x2="681" y2="-242" class="grid" /><line x1="0" y1="-242" x2="-4" y2="-242" class="axes" /><text x="-8" y="-238" style="text-anchor:end;">220</text>
<use xlink:href="#hintline" id="useline" x="0" style="visibility:hidden;" />
<rect x="5" y="-242" width="6" height="242" style="fill:transparent;" onmouseover="sh(8,8,-248,'01.03.2017 111,31');" onmouseout="hh();" /><rect x="5" y="-122" width="6" height="122" style="fill:#0080C0;" onmouseover="sh(8,8,-248,'01.03.2017 111,31');" onmouseout="hh();" /><rect x="14" y="-242" width="6" height="242" style="fill:transparent;" onmouseover="sh(17,17,-248,'01.04.2017 100,70');" onmouseout="hh();" /><rect x="14" y="-111" width="6" height="111" style="fill:#0080C0;" onmouseover="sh(17,17,-248,'01.04.2017 100,70');" onmouseout="hh();" /><rect x="23" y="-242" width="6" height="242" style="fill:transparent;" onmouseover="sh(26,26,-248,'01.05.2017 100,73');" onmouseout="hh();" /><rect x="23" y="-111" width="6" height="111" style="fill:#0080C0;" onmouseover="sh(26,26,-248,'01.05.2017 100,73');" onmouseout="hh();" /><rect x="32" y="-242" width="6" height="242" style="fill:transparent;" onmouseover="sh(35,35,-248,'01.06.2017 109,59');" onmouseout="hh();" /><rect x="32" y="-121" width="6" height="121" style="fill:#0080C0;" onmouseover="sh(35,35,-248,'01.06.2017 109,59');" onmouseout="hh();" /><rect x="41" y="-242" width="6" height="242" style="fill:transparent;" onmouseover="sh(44,44,-248,'01.07.2017 143,36');" onmouseout="hh();" /><rect x="41" y="-158" width="6" height="158" style="fill:#0080C0;" onmouseover="sh(44,44,-248,'01.07.2017 143,36');" onmouseout="hh();" /><rect x="50" y="-242" width="6" height="242" style="fill:transparent;" onmouseover="sh(53,53,-248,'01.08.2017 81,63');" onmouseout="hh();" /><rect x="50" y="-90" width="6" height="90" style="fill:#0080C0;" onmouseover="sh(53,53,-248,'01.08.2017 81,63');" onmouseout="hh();" /><rect x="59" y="-242" width="6" height="242" style="fill:transparent;" onmouseover="sh(62,62,-248,'01.09.2017 55,75');" onmouseout="hh();" /><rect x="59" y="-61" width="6" height="61" style="fill:#0080C0;" onmouseover="sh(62,62,-248,'01.09.2017 55,75');" onmouseout="hh();" /><rect x="68" y="-242" width="6" height="242" style="fill:transparent;" onmouseover="sh(71,71,-248,'01.10.2017 72,30');" onmouseout="hh();" /><rect x="68" y="-80" width="6" height="80" style="fill:#0080C0;" onmouseover="sh(71,71,-248,'01.10.2017 72,30');" onmouseout="hh();" /><rect x="77" y="-242" width="6" height="242" style="fill:transparent;" onmouseover="sh(80,80,-248,'01.11.2017 83,29');" onmouseout="hh();" /><rect x="77" y="-92" width="6" height="92" style="fill:#0080C0;" onmouseover="sh(80,80,-248,'01.11.2017 83,29');" onmouseout="hh();" /><rect x="86" y="-242" width="6" height="242" style="fill:transparent;" onmouseover="sh(89,89,-248,'01.12.2017 114,16');" onmouseout="hh();" /><rect x="86" y="-126" width="6" height="126" style="fill:#0080C0;" onmouseover="sh(89,89,-248,'01.12.2017 114,16');" onmouseout="hh();" /><rect x="95" y="-242" width="6" height="242" style="fill:transparent;" onmouseover="sh(98,98,-248,'01.01.2018 137,92');" onmouseout="hh();" /><rect x="95" y="-152" width="6" height="152" style="fill:#0080C0;" onmouseover="sh(98,98,-248,'01.01.2018 137,92');" onmouseout="hh();" /><rect x="104" y="-242" width="6" height="242" style="fill:transparent;" onmouseover="sh(107,107,-248,'01.02.2018 165,64');" onmouseout="hh();" /><rect x="104" y="-182" width="6" height="182" style="fill:#0080C0;" onmouseover="sh(107,107,-248,'01.02.2018 165,64');" onmouseout="hh();" /><rect x="113" y="-242" width="6" height="242" style="fill:transparent;" onmouseover="sh(116,116,-248,'01.03.2018 141,42');" onmouseout="hh();" /><rect x="113" y="-156" width="6" height="156" style="fill:#0080C0;" onmouseover="sh(116,116,-248,'01.03.2018 141,42');" onmouseout="hh();" /><rect x="122" y="-242" width="6" height="242" style="fill:transparent;" onmouseover="sh(125,125,-248,'01.04.2018 137,11');" onmouseout="hh();" /><rect x="122" y="-151" width="6" height="151" style="fill:#0080C0;" onmouseover="sh(125,125,-248,'01.04.2018 137,11');" onmouseout="hh();" /><rect x="131" y="-242" width="6" height="242" style="fill:transparent;" onmouseover="sh(134,134,-248,'01.05.2018 124,39');" onmouseout="hh();" /><rect x="131" y="-137" width="6" height="137" style="fill:#0080C0;" onmouseover="sh(134,134,-248,'01.05.2018 124,39');" onmouseout="hh();" /><rect x="140" y="-242" width="6" height="242" style="fill:transparent;" onmouseover="sh(143,143,-248,'01.06.2018 111,41');" onmouseout="hh();" /><rect x="140" y="-123" width="6" height="123" style="fill:#0080C0;" onmouseover="sh(143,143,-248,'01.06.2018 111,41');" onmouseout="hh();" /><rect x="149" y="-242" width="6" height="242" style="fill:transparent;" onmouseover="sh(152,152,-248,'01.07.2018 84,80');" onmouseout="hh();" /><rect x="149" y="-93" width="6" height="93" style="fill:#0080C0;" onmouseover="sh(152,152,-248,'01.07.2018 84,80');" onmouseout="hh();" /><rect x="158" y="-242" width="6" height="242" style="fill:transparent;" onmouseover="sh(161,161,-248,'01.08.2018 45,09');" onmouseout="hh();" /><rect x="158" y="-50" width="6" height="50" style="fill:#0080C0;" onmouseover="sh(161,161,-248,'01.08.2018 45,09');" onmouseout="hh();" /><rect x="167" y="-242" width="6" height="242" style="fill:transparent;" onmouseover="sh(170,170,-248,'01.09.2018 44,12');" onmouseout="hh();" /><rect x="167" y="-49" width="6" height="49" style="fill:#0080C0;" onmouseover="sh(170,170,-248,'01.09.2018 44,12');" onmouseout="hh();" /><rect x="176" y="-242" width="6" height="242" style="fill:transparent;" onmouseover="sh(179,179,-248,'01.10.2018 44,99');" onmouseout="hh();" /><rect x="176" y="-49" width="6" height="49" style="fill:#0080C0;" onmouseover="sh(179,179,-248,'01.10.2018 44,99');" onmouseout="hh();" /><rect x="185" y="-242" width="6" height="242" style="fill:transparent;" onmouseover="sh(188,188,-248,'01.12.2018 174,90');" onmouseout="hh();" /><rect x="185" y="-192" width="6" height="192" style="fill:#0080C0;" onmouseover="sh(188,188,-248,'01.12.2018 174,90');" onmouseout="hh();" /><rect x="194" y="-242" width="6" height="242" style="fill:transparent;" onmouseover="sh(197,197,-248,'01.01.2019 144,06');" onmouseout="hh();" /><rect x="194" y="-158" width="6" height="158" style="fill:#0080C0;" onmouseover="sh(197,197,-248,'01.01.2019 144,06');" onmouseout="hh();" /><rect x="203" y="-242" width="6" height="242" style="fill:transparent;" onmouseover="sh(206,206,-248,'01.02.2019 134,13');" onmouseout="hh();" /><rect x="203" y="-148" width="6" height="148" style="fill:#0080C0;" onmouseover="sh(206,206,-248,'01.02.2019 134,13');" onmouseout="hh();" /><rect x="212" y="-242" width="6" height="242" style="fill:transparent;" onmouseover="sh(215,215,-248,'01.03.2019 109,98');" onmouseout="hh();" /><rect x="212" y="-121" width="6" height="121" style="fill:#0080C0;" onmouseover="sh(215,215,-248,'01.03.2019 109,98');" onmouseout="hh();" /><rect x="221" y="-242" width="6" height="242" style="fill:transparent;" onmouseover="sh(224,224,-248,'01.04.2019 124,02');" onmouseout="hh();" /><rect x="221" y="-136" width="6" height="136" style="fill:#0080C0;" onmouseover="sh(224,224,-248,'01.04.2019 124,02');" onmouseout="hh();" /><rect x="230" y="-242" width="6" height="242" style="fill:transparent;" onmouseover="sh(233,233,-248,'01.05.2019 123,51');" onmouseout="hh();" /><rect x="230" y="-136" width="6" height="136" style="fill:#0080C0;" onmouseover="sh(233,233,-248,'01.05.2019 123,51');" onmouseout="hh();" /><rect x="239" y="-242" width="6" height="242" style="fill:transparent;" onmouseover="sh(242,242,-248,'01.06.2019 127,00');" onmouseout="hh();" /><rect x="239" y="-140" width="6" height="140" style="fill:#0080C0;" onmouseover="sh(242,242,-248,'01.06.2019 127,00');" onmouseout="hh();" /><rect x="248" y="-242" width="6" height="242" style="fill:transparent;" onmouseover="sh(251,251,-248,'01.07.2019 137,28');" onmouseout="hh();" /><rect x="248" y="-151" width="6" height="151" style="fill:#0080C0;" onmouseover="sh(251,251,-248,'01.07.2019 137,28');" onmouseout="hh();" /><rect x="257" y="-242" width="6" height="242" style="fill:transparent;" onmouseover="sh(260,260,-248,'01.08.2019 80,75');" onmouseout="hh();" /><rect x="257" y="-89" width="6" height="89" style="fill:#0080C0;" onmouseover="sh(260,260,-248,'01.08.2019 80,75');" onmouseout="hh();" /><rect x="266" y="-242" width="6" height="242" style="fill:transparent;" onmouseover="sh(269,269,-248,'01.09.2019 48,13');" onmouseout="hh();" /><rect x="266" y="-53" width="6" height="53" style="fill:#0080C0;" onmouseover="sh(269,269,-248,'01.09.2019 48,13');" onmouseout="hh();" /><rect x="275" y="-242" width="6" height="242" style="fill:transparent;" onmouseover="sh(278,278,-248,'01.10.2019 48,30');" onmouseout="hh();" /><rect x="275" y="-53" width="6" height="53" style="fill:#0080C0;" onmouseover="sh(278,278,-248,'01.10.2019 48,30');" onmouseout="hh();" /><rect x="284" y="-242" width="6" height="242" style="fill:transparent;" onmouseover="sh(287,287,-248,'01.11.2019 52,66');" onmouseout="hh();" /><rect x="284" y="-58" width="6" height="58" style="fill:#0080C0;" onmouseover="sh(287,287,-248,'01.11.2019 52,66');" onmouseout="hh();" /><rect x="293" y="-242" width="6" height="242" style="fill:transparent;" onmouseover="sh(296,296,-248,'01.12.2019 99,42');" onmouseout="hh();" /><rect x="293" y="-109" width="6" height="109" style="fill:#0080C0;" onmouseover="sh(296,296,-248,'01.12.2019 99,42');" onmouseout="hh();" /><rect x="302" y="-242" width="6" height="242" style="fill:transparent;" onmouseover="sh(305,305,-248,'01.01.2020 117,80');" onmouseout="hh();" /><rect x="302" y="-130" width="6" height="130" style="fill:#0080C0;" onmouseover="sh(305,305,-248,'01.01.2020 117,80');" onmouseout="hh();" /><rect x="311" y="-242" width="6" height="242" style="fill:transparent;" onmouseover="sh(314,314,-248,'01.02.2020 124,22');" onmouseout="hh();" /><rect x="311" y="-137" width="6" height="137" style="fill:#0080C0;" onmouseover="sh(314,314,-248,'01.02.2020 124,22');" onmouseout="hh();" /><rect x="320" y="-242" width="6" height="242" style="fill:transparent;" onmouseover="sh(323,323,-248,'01.03.2020 128,16');" onmouseout="hh();" /><rect x="320" y="-141" width="6" height="141" style="fill:#0080C0;" onmouseover="sh(323,323,-248,'01.03.2020 128,16');" onmouseout="hh();" /><rect x="329" y="-242" width="6" height="242" style="fill:transparent;" onmouseover="sh(332,332,-248,'01.04.2020 125,54');" onmouseout="hh();" /><rect x="329" y="-138" width="6" height="138" style="fill:#0080C0;" onmouseover="sh(332,332,-248,'01.04.2020 125,54');" onmouseout="hh();" /><rect x="338" y="-242" width="6" height="242" style="fill:transparent;" onmouseover="sh(341,341,-248,'01.05.2020 118,28');" onmouseout="hh();" /><rect x="338" y="-130" width="6" height="130" style="fill:#0080C0;" onmouseover="sh(341,341,-248,'01.05.2020 118,28');" onmouseout="hh();" /><rect x="347" y="-242" width="6" height="242" style="fill:transparent;" onmouseover="sh(350,350,-248,'01.06.2020 125,28');" onmouseout="hh();" /><rect x="347" y="-138" width="6" height="138" style="fill:#0080C0;" onmouseover="sh(350,350,-248,'01.06.2020 125,28');" onmouseout="hh();" /><rect x="356" y="-242" width="6" height="242" style="fill:transparent;" onmouseover="sh(359,359,-248,'01.07.2020 107,08');" onmouseout="hh();" /><rect x="356" y="-118" width="6" height="118" style="fill:#0080C0;" onmouseover="sh(359,359,-248,'01.07.2020 107,08');" onmouseout="hh();" /><rect x="365" y="-242" width="6" height="242" style="fill:transparent;" onmouseover="sh(368,368,-248,'01.08.2020 67,84');" onmouseout="hh();" /><rect x="365" y="-75" width="6" height="75" style="fill:#0080C0;" onmouseover="sh(368,368,-248,'01.08.2020 67,84');" onmouseout="hh();" /><rect x="374" y="-242" width="6" height="242" style="fill:transparent;" onmouseover="sh(377,377,-248,'01.09.2020 64,03');" onmouseout="hh();" /><rect x="374" y="-70" width="6" height="70" style="fill:#0080C0;" onmouseover="sh(377,377,-248,'01.09.2020 64,03');" onmouseout="hh();" /><rect x="383" y="-242" width="6" height="242" style="fill:transparent;" onmouseover="sh(386,386,-248,'01.10.2020 54,69');" onmouseout="hh();" /><rect x="383" y="-60" width="6" height="60" style="fill:#0080C0;" onmouseover="sh(386,386,-248,'01.10.2020 54,69');" onmouseout="hh();" /><rect x="392" y="-242" width="6" height="242" style="fill:transparent;" onmouseover="sh(395,395,-248,'01.11.2020 56,11');" onmouseout="hh();" /><rect x="392" y="-62" width="6" height="62" style="fill:#0080C0;" onmouseover="sh(395,395,-248,'01.11.2020 56,11');" onmouseout="hh();" /><rect x="401" y="-242" width="6" height="242" style="fill:transparent;" onmouseover="sh(404,404,-248,'01.12.2020 79,58');" onmouseout="hh();" /><rect x="401" y="-88" width="6" height="88" style="fill:#0080C0;" onmouseover="sh(404,404,-248,'01.12.2020 79,58');" onmouseout="hh();" /><rect x="410" y="-242" width="6" height="242" style="fill:transparent;" onmouseover="sh(413,413,-248,'01.01.2021 150,09');" onmouseout="hh();" /><rect x="410" y="-165" width="6" height="165" style="fill:#0080C0;" onmouseover="sh(413,413,-248,'01.01.2021 150,09');" onmouseout="hh();" /><rect x="419" y="-242" width="6" height="242" style="fill:transparent;" onmouseover="sh(422,422,-248,'01.02.2021 158,68');" onmouseout="hh();" /><rect x="419" y="-175" width="6" height="175" style="fill:#0080C0;" onmouseover="sh(422,422,-248,'01.02.2021 158,68');" onmouseout="hh();" /><rect x="428" y="-242" width="6" height="242" style="fill:transparent;" onmouseover="sh(431,431,-248,'01.03.2021 132,07');" onmouseout="hh();" /><rect x="428" y="-145" width="6" height="145" style="fill:#0080C0;" onmouseover="sh(431,431,-248,'01.03.2021 132,07');" onmouseout="hh();" /><rect x="437" y="-242" width="6" height="242" style="fill:transparent;" onmouseover="sh(440,440,-248,'01.04.2021 130,49');" onmouseout="hh();" /><rect x="437" y="-144" width="6" height="144" style="fill:#0080C0;" onmouseover="sh(440,440,-248,'01.04.2021 130,49');" onmouseout="hh();" /><rect x="446" y="-242" width="6" height="242" style="fill:transparent;" onmouseover="sh(449,449,-248,'01.05.2021 140,86');" onmouseout="hh();" /><rect x="446" y="-155" width="6" height="155" style="fill:#0080C0;" onmouseover="sh(449,449,-248,'01.05.2021 140,86');" onmouseout="hh();" /><rect x="455" y="-242" width="6" height="242" style="fill:transparent;" onmouseover="sh(458,458,-248,'01.06.2021 142,01');" onmouseout="hh();" /><rect x="455" y="-156" width="6" height="156" style="fill:#0080C0;" onmouseover="sh(458,458,-248,'01.06.2021 142,01');" onmouseout="hh();" /><rect x="464" y="-242" width="6" height="242" style="fill:transparent;" onmouseover="sh(467,467,-248,'01.07.2021 113,48');" onmouseout="hh();" /><rect x="464" y="-125" width="6" height="125" style="fill:#0080C0;" onmouseover="sh(467,467,-248,'01.07.2021 113,48');" onmouseout="hh();" /><rect x="473" y="-242" width="6" height="242" style="fill:transparent;" onmouseover="sh(476,476,-248,'01.08.2021 83,66');" onmouseout="hh();" /><rect x="473" y="-92" width="6" height="92" style="fill:#0080C0;" onmouseover="sh(476,476,-248,'01.08.2021 83,66');" onmouseout="hh();" /><rect x="482" y="-242" width="6" height="242" style="fill:transparent;" onmouseover="sh(485,485,-248,'01.09.2021 83,40');" onmouseout="hh();" /><rect x="482" y="-92" width="6" height="92" style="fill:#0080C0;" onmouseover="sh(485,485,-248,'01.09.2021 83,40');" onmouseout="hh();" /><rect x="491" y="-242" width="6" height="242" style="fill:transparent;" onmouseover="sh(494,494,-248,'01.10.2021 57,76');" onmouseout="hh();" /><rect x="491" y="-64" width="6" height="64" style="fill:#0080C0;" onmouseover="sh(494,494,-248,'01.10.2021 57,76');" onmouseout="hh();" /><rect x="500" y="-242" width="6" height="242" style="fill:transparent;" onmouseover="sh(503,503,-248,'01.11.2021 60,77');" onmouseout="hh();" /><rect x="500" y="-67" width="6" height="67" style="fill:#0080C0;" onmouseover="sh(503,503,-248,'01.11.2021 60,77');" onmouseout="hh();" /><rect x="509" y="-242" width="6" height="242" style="fill:transparent;" onmouseover="sh(512,512,-248,'01.12.2021 80,77');" onmouseout="hh();" /><rect x="509" y="-89" width="6" height="89" style="fill:#0080C0;" onmouseover="sh(512,512,-248,'01.12.2021 80,77');" onmouseout="hh();" /><rect x="518" y="-242" width="6" height="242" style="fill:transparent;" onmouseover="sh(521,521,-248,'01.01.2022 142,71');" onmouseout="hh();" /><rect x="518" y="-157" width="6" height="157" style="fill:#0080C0;" onmouseover="sh(521,521,-248,'01.01.2022 142,71');" onmouseout="hh();" /><rect x="527" y="-242" width="6" height="242" style="fill:transparent;" onmouseover="sh(530,530,-248,'01.02.2022 148,83');" onmouseout="hh();" /><rect x="527" y="-164" width="6" height="164" style="fill:#0080C0;" onmouseover="sh(530,530,-248,'01.02.2022 148,83');" onmouseout="hh();" /><rect x="536" y="-242" width="6" height="242" style="fill:transparent;" onmouseover="sh(539,539,-248,'01.03.2022 117,92');" onmouseout="hh();" /><rect x="536" y="-130" width="6" height="130" style="fill:#0080C0;" onmouseover="sh(539,539,-248,'01.03.2022 117,92');" onmouseout="hh();" /><rect x="545" y="-242" width="6" height="242" style="fill:transparent;" onmouseover="sh(548,548,-248,'01.04.2022 103,90');" onmouseout="hh();" /><rect x="545" y="-114" width="6" height="114" style="fill:#0080C0;" onmouseover="sh(548,548,-248,'01.04.2022 103,90');" onmouseout="hh();" /><rect x="554" y="-242" width="6" height="242" style="fill:transparent;" onmouseover="sh(557,557,-248,'01.05.2022 170,34');" onmouseout="hh();" /><rect x="554" y="-187" width="6" height="187" style="fill:#0080C0;" onmouseover="sh(557,557,-248,'01.05.2022 170,34');" onmouseout="hh();" /><rect x="563" y="-242" width="6" height="242" style="fill:transparent;" onmouseover="sh(566,566,-248,'01.06.2022 163,70');" onmouseout="hh();" /><rect x="563" y="-180" width="6" height="180" style="fill:#0080C0;" onmouseover="sh(566,566,-248,'01.06.2022 163,70');" onmouseout="hh();" /><rect x="572" y="-242" width="6" height="242" style="fill:transparent;" onmouseover="sh(575,575,-248,'01.07.2022 147,68');" onmouseout="hh();" /><rect x="572" y="-162" width="6" height="162" style="fill:#0080C0;" onmouseover="sh(575,575,-248,'01.07.2022 147,68');" onmouseout="hh();" /><rect x="581" y="-242" width="6" height="242" style="fill:transparent;" onmouseover="sh(584,584,-248,'01.08.2022 103,16');" onmouseout="hh();" /><rect x="581" y="-113" width="6" height="113" style="fill:#0080C0;" onmouseover="sh(584,584,-248,'01.08.2022 103,16');" onmouseout="hh();" /><rect x="590" y="-242" width="6" height="242" style="fill:transparent;" onmouseover="sh(593,593,-248,'01.09.2022 90,37');" onmouseout="hh();" /><rect x="590" y="-99" width="6" height="99" style="fill:#0080C0;" onmouseover="sh(593,593,-248,'01.09.2022 90,37');" onmouseout="hh();" /><rect x="599" y="-242" width="6" height="242" style="fill:transparent;" onmouseover="sh(602,602,-248,'01.10.2022 90,34');" onmouseout="hh();" /><rect x="599" y="-99" width="6" height="99" style="fill:#0080C0;" onmouseover="sh(602,602,-248,'01.10.2022 90,34');" onmouseout="hh();" /><rect x="608" y="-242" width="6" height="242" style="fill:transparent;" onmouseover="sh(611,611,-248,'01.11.2022 100,59');" onmouseout="hh();" /><rect x="608" y="-111" width="6" height="111" style="fill:#0080C0;" onmouseover="sh(611,611,-248,'01.11.2022 100,59');" onmouseout="hh();" /><rect x="617" y="-242" width="6" height="242" style="fill:transparent;" onmouseover="sh(620,614,-248,'01.12.2022 155,04');" onmouseout="hh();" /><rect x="617" y="-171" width="6" height="171" style="fill:#0080C0;" onmouseover="sh(620,614,-248,'01.12.2022 155,04');" onmouseout="hh();" /><rect x="626" y="-242" width="6" height="242" style="fill:transparent;" onmouseover="sh(629,614,-248,'01.01.2023 190,05');" onmouseout="hh();" /><rect x="626" y="-209" width="6" height="209" style="fill:#0080C0;" onmouseover="sh(629,614,-248,'01.01.2023 190,05');" onmouseout="hh();" /><rect x="635" y="-242" width="6" height="242" style="fill:transparent;" onmouseover="sh(638,614,-248,'01.02.2023 199,87');" onmouseout="hh();" /><rect x="635" y="-220" width="6" height="220" style="fill:#0080C0;" onmouseover="sh(638,614,-248,'01.02.2023 199,87');" onmouseout="hh();" /><rect x="644" y="-242" width="6" height="242" style="fill:transparent;" onmouseover="sh(647,614,-248,'01.03.2023 189,64');" onmouseout="hh();" /><rect x="644" y="-209" width="6" height="209" style="fill:#0080C0;" onmouseover="sh(647,614,-248,'01.03.2023 189,64');" onmouseout="hh();" /><rect x="653" y="-242" width="6" height="242" style="fill:transparent;" onmouseover="sh(656,614,-248,'01.04.2023 187,25');" onmouseout="hh();" /><rect x="653" y="-206" width="6" height="206" style="fill:#0080C0;" onmouseover="sh(656,614,-248,'01.04.2023 187,25');" onmouseout="hh();" /><rect x="662" y="-242" width="6" height="242" style="fill:transparent;" onmouseover="sh(665,614,-248,'01.05.2023 187,71');" onmouseout="hh();" /><rect x="662" y="-206" width="6" height="206" style="fill:#0080C0;" onmouseover="sh(665,614,-248,'01.05.2023 187,71');" onmouseout="hh();" /><rect x="671" y="-242" width="6" height="242" style="fill:transparent;" onmouseover="sh(674,614,-248,'01.06.2023 194,02');" onmouseout="hh();" /><rect x="671" y="-213" width="6" height="213" style="fill:#0080C0;" onmouseover="sh(674,614,-248,'01.06.2023 194,02');" onmouseout="hh();" />
<line x1="-6" y1="0" x2="684" y2="0" class="axes" /><line x1="0" y1="-258" x2="0" y2="0" class="axes" /><text x="-2" y="-262" style="text-anchor:end;">грн.</text>
<use xlink:href="#hintbox" id="usebox" x="0" y="0" style="visibility:hidden;" />
</svg>
