<?xml version="1.0" encoding="UTF-8" standalone="no"?>
<!DOCTYPE svg PUBLIC "-//W3C//DTD SVG 1.1//EN" "http://www.w3.org/Graphics/SVG/1.1/DTD/svg11.dtd">
<svg version="1.1" xmlns="http://www.w3.org/2000/svg" xmlns:xlink="http://www.w3.org/1999/xlink" xmlns:ev="http://www.w3.org/2001/xml-events" width="723" height="331" viewBox="-48 -273 723 331" preserveAspectRatio="none">
<style type="text/css"><![CDATA[
line { stroke-width:1px; }
line.axes { stroke:#505050; }
line.grid { stroke:#D8D8D8; }
rect.bg { fill:#FFFFFF; }
text { font-family:arial,sans-serif; font-size:12px; fill:#000000; }
]]></style>
<defs>
<g id="hintbox"><rect x="0" y="0" width="77" height="34" style="stroke:#505050; stroke-width:1px; fill:rgba(255,255,255,0.87);" /><text id="hint0" x="4" y="14"> </text><text x="7" y="28"></text><text id="hint1" x="73" y="28" style="text-anchor:end;"> </text></g>
<g id="hintline"><line x1="0" y1="-243" x2="0" y2="0" class="axes" style="stroke-dasharray:2 1" /></g>
</defs>
<script><![CDATA[
function shb(x,y,dat) {
ar=dat.split(' '); for (i=0; i<ar.length; ++i) { if (i&&ar[i]) ar[i]+=' грн.'; h=document.getElementById('hint'+i); h.textContent=ar[i]; }
u=document.getElementById('usebox'); u.setAttribute('x',x); u.setAttribute('y',y); u.setAttribute('style','visibility:visible;'); }
function hhb() { u=document.getElementById('usebox'); u.setAttribute('style','visibility:hidden;'); u.setAttribute('x','0'); u.setAttribute('y','0'); }
function shl(x) { u=document.getElementById('useline'); u.setAttribute('x',x); u.setAttribute('style','visibility:visible;'); }
function hhl() { u=document.getElementById('useline'); u.setAttribute('style','visibility:hidden;'); u.setAttribute('x','0'); }
function sh(xl,xb,y,dat) { shl(xl); shb(xb,y,dat); }
function hh() { hhb(); hhl(); }
]]></script>
<rect x="-48" y="-273" width="723" height="331" class="bg" />
<line x1="17" y1="0" x2="17" y2="4" class="axes" /><text x="22" y="8" transform="rotate(-90,22,8)" style="text-anchor:end;">07.2017</text><line x1="44" y1="0" x2="44" y2="4" class="axes" /><text x="49" y="8" transform="rotate(-90,49,8)" style="text-anchor:end;">10.2017</text><line x1="71" y1="0" x2="71" y2="4" class="axes" /><text x="76" y="8" transform="rotate(-90,76,8)" style="text-anchor:end;">01.2018</text><line x1="98" y1="0" x2="98" y2="4" class="axes" /><text x="103" y="8" transform="rotate(-90,103,8)" style="text-anchor:end;">04.2018</text><line x1="125" y1="0" x2="125" y2="4" class="axes" /><text x="130" y="8" transform="rotate(-90,130,8)" style="text-anchor:end;">07.2018</text><line x1="152" y1="0" x2="152" y2="4" class="axes" /><text x="157" y="8" transform="rotate(-90,157,8)" style="text-anchor:end;">10.2018</text><line x1="179" y1="0" x2="179" y2="4" class="axes" /><text x="184" y="8" transform="rotate(-90,184,8)" style="text-anchor:end;">01.2019</text><line x1="206" y1="0" x2="206" y2="4" class="axes" /><text x="211" y="8" transform="rotate(-90,211,8)" style="text-anchor:end;">04.2019</text><line x1="233" y1="0" x2="233" y2="4" class="axes" /><text x="238" y="8" transform="rotate(-90,238,8)" style="text-anchor:end;">07.2019</text><line x1="260" y1="0" x2="260" y2="4" class="axes" /><text x="265" y="8" transform="rotate(-90,265,8)" style="text-anchor:end;">10.2019</text><line x1="287" y1="0" x2="287" y2="4" class="axes" /><text x="292" y="8" transform="rotate(-90,292,8)" style="text-anchor:end;">01.2020</text><line x1="314" y1="0" x2="314" y2="4" class="axes" /><text x="319" y="8" transform="rotate(-90,319,8)" style="text-anchor:end;">04.2020</text><line x1="341" y1="0" x2="341" y2="4" class="axes" /><text x="346" y="8" transform="rotate(-90,346,8)" style="text-anchor:end;">07.2020</text><line x1="368" y1="0" x2="368" y2="4" class="axes" /><text x="373" y="8" transform="rotate(-90,373,8)" style="text-anchor:end;">10.2020</text><line x1="395" y1="0" x2="395" y2="4" class="axes" /><text x="400" y="8" transform="rotate(-90,400,8)" style="text-anchor:end;">01.2021</text><line x1="422" y1="0" x2="422" y2="4" class="axes" /><text x="427" y="8" transform="rotate(-90,427,8)" style="text-anchor:end;">04.2021</text><line x1="449" y1="0" x2="449" y2="4" class="axes" /><text x="454" y="8" transform="rotate(-90,454,8)" style="text-anchor:end;">07.2021</text><line x1="476" y1="0" x2="476" y2="4" class="axes" /><text x="481" y="8" transform="rotate(-90,481,8)" style="text-anchor:end;">10.2021</text><line x1="503" y1="0" x2="503" y2="4" class="axes" /><text x="508" y="8" transform="rotate(-90,508,8)" style="text-anchor:end;">01.2022</text><line x1="530" y1="0" x2="530" y2="4" class="axes" /><text x="535" y="8" transform="rotate(-90,535,8)" style="text-anchor:end;">04.2022</text><line x1="557" y1="0" x2="557" y2="4" class="axes" /><text x="562" y="8" transform="rotate(-90,562,8)" style="text-anchor:end;">07.2022</text><line x1="584" y1="0" x2="584" y2="4" class="axes" /><text x="589" y="8" transform="rotate(-90,589,8)" style="text-anchor:end;">10.2022</text><line x1="611" y1="0" x2="611" y2="4" class="axes" /><text x="616" y="8" transform="rotate(-90,616,8)" style="text-anchor:end;">01.2023</text><line x1="638" y1="0" x2="638" y2="4" class="axes" /><text x="643" y="8" transform="rotate(-90,643,8)" style="text-anchor:end;">04.2023</text>
<line x1="0" y1="-27" x2="663" y2="-27" class="grid" /><line x1="0" y1="-27" x2="-4" y2="-27" class="axes" /><text x="-8" y="-23" style="text-anchor:end;">10</text><line x1="0" y1="-54" x2="663" y2="-54" class="grid" /><line x1="0" y1="-54" x2="-4" y2="-54" class="axes" /><text x="-8" y="-50" style="text-anchor:end;">20</text><line x1="0" y1="-81" x2="663" y2="-81" class="grid" /><line x1="0" y1="-81" x2="-4" y2="-81" class="axes" /><text x="-8" y="-77" style="text-anchor:end;">30</text><line x1="0" y1="-108" x2="663" y2="-108" class="grid" /><line x1="0" y1="-108" x2="-4" y2="-108" class="axes" /><text x="-8" y="-104" style="text-anchor:end;">40</text><line x1="0" y1="-135" x2="663" y2="-135" class="grid" /><line x1="0" y1="-135" x2="-4" y2="-135" class="axes" /><text x="-8" y="-131" style="text-anchor:end;">50</text><line x1="0" y1="-162" x2="663" y2="-162" class="grid" /><line x1="0" y1="-162" x2="-4" y2="-162" class="axes" /><text x="-8" y="-158" style="text-anchor:end;">60</text><line x1="0" y1="-189" x2="663" y2="-189" class="grid" /><line x1="0" y1="-189" x2="-4" y2="-189" class="axes" /><text x="-8" y="-185" style="text-anchor:end;">70</text><line x1="0" y1="-216" x2="663" y2="-216" class="grid" /><line x1="0" y1="-216" x2="-4" y2="-216" class="axes" /><text x="-8" y="-212" style="text-anchor:end;">80</text><line x1="0" y1="-243" x2="663" y2="-243" class="grid" /><line x1="0" y1="-243" x2="-4" y2="-243" class="axes" /><text x="-8" y="-239" style="text-anchor:end;">90</text>
<use xlink:href="#hintline" id="useline" x="0" style="visibility:hidden;" />
<rect x="5" y="-243" width="6" height="243" style="fill:transparent;" onmouseover="sh(8,8,-249,'01.06.2017 16,69');" onmouseout="hh();" /><rect x="5" y="-45" width="6" height="45" style="fill:#0080C0;" onmouseover="sh(8,8,-249,'01.06.2017 16,69');" onmouseout="hh();" /><rect x="14" y="-243" width="6" height="243" style="fill:transparent;" onmouseover="sh(17,17,-249,'01.07.2017 15,07');" onmouseout="hh();" /><rect x="14" y="-41" width="6" height="41" style="fill:#0080C0;" onmouseover="sh(17,17,-249,'01.07.2017 15,07');" onmouseout="hh();" /><rect x="23" y="-243" width="6" height="243" style="fill:transparent;" onmouseover="sh(26,26,-249,'01.08.2017 6,84');" onmouseout="hh();" /><rect x="23" y="-18" width="6" height="18" style="fill:#0080C0;" onmouseover="sh(26,26,-249,'01.08.2017 6,84');" onmouseout="hh();" /><rect x="32" y="-243" width="6" height="243" style="fill:transparent;" onmouseover="sh(35,35,-249,'01.09.2017 9,27');" onmouseout="hh();" /><rect x="32" y="-25" width="6" height="25" style="fill:#0080C0;" onmouseover="sh(35,35,-249,'01.09.2017 9,27');" onmouseout="hh();" /><rect x="41" y="-243" width="6" height="243" style="fill:transparent;" onmouseover="sh(44,44,-249,'01.10.2017 10,41');" onmouseout="hh();" /><rect x="41" y="-28" width="6" height="28" style="fill:#0080C0;" onmouseover="sh(44,44,-249,'01.10.2017 10,41');" onmouseout="hh();" /><rect x="50" y="-243" width="6" height="243" style="fill:transparent;" onmouseover="sh(53,53,-249,'01.11.2017 8,47');" onmouseout="hh();" /><rect x="50" y="-23" width="6" height="23" style="fill:#0080C0;" onmouseover="sh(53,53,-249,'01.11.2017 8,47');" onmouseout="hh();" /><rect x="59" y="-243" width="6" height="243" style="fill:transparent;" onmouseover="sh(62,62,-249,'01.12.2017 13,56');" onmouseout="hh();" /><rect x="59" y="-37" width="6" height="37" style="fill:#0080C0;" onmouseover="sh(62,62,-249,'01.12.2017 13,56');" onmouseout="hh();" /><rect x="68" y="-243" width="6" height="243" style="fill:transparent;" onmouseover="sh(71,71,-249,'01.01.2018 18,66');" onmouseout="hh();" /><rect x="68" y="-50" width="6" height="50" style="fill:#0080C0;" onmouseover="sh(71,71,-249,'01.01.2018 18,66');" onmouseout="hh();" /><rect x="77" y="-243" width="6" height="243" style="fill:transparent;" onmouseover="sh(80,80,-249,'01.02.2018 55,66');" onmouseout="hh();" /><rect x="77" y="-150" width="6" height="150" style="fill:#0080C0;" onmouseover="sh(80,80,-249,'01.02.2018 55,66');" onmouseout="hh();" /><rect x="86" y="-243" width="6" height="243" style="fill:transparent;" onmouseover="sh(89,89,-249,'01.03.2018 33,72');" onmouseout="hh();" /><rect x="86" y="-91" width="6" height="91" style="fill:#0080C0;" onmouseover="sh(89,89,-249,'01.03.2018 33,72');" onmouseout="hh();" /><rect x="95" y="-243" width="6" height="243" style="fill:transparent;" onmouseover="sh(98,98,-249,'01.04.2018 32,04');" onmouseout="hh();" /><rect x="95" y="-87" width="6" height="87" style="fill:#0080C0;" onmouseover="sh(98,98,-249,'01.04.2018 32,04');" onmouseout="hh();" /><rect x="104" y="-243" width="6" height="243" style="fill:transparent;" onmouseover="sh(107,107,-249,'01.05.2018 23,79');" onmouseout="hh();" /><rect x="104" y="-64" width="6" height="64" style="fill:#0080C0;" onmouseover="sh(107,107,-249,'01.05.2018 23,79');" onmouseout="hh();" /><rect x="113" y="-243" width="6" height="243" style="fill:transparent;" onmouseover="sh(116,116,-249,'01.06.2018 12,41');" onmouseout="hh();" /><rect x="113" y="-33" width="6" height="33" style="fill:#0080C0;" onmouseover="sh(116,116,-249,'01.06.2018 12,41');" onmouseout="hh();" /><rect x="122" y="-243" width="6" height="243" style="fill:transparent;" onmouseover="sh(125,125,-249,'01.07.2018 7,69');" onmouseout="hh();" /><rect x="122" y="-21" width="6" height="21" style="fill:#0080C0;" onmouseover="sh(125,125,-249,'01.07.2018 7,69');" onmouseout="hh();" /><rect x="131" y="-243" width="6" height="243" style="fill:transparent;" onmouseover="sh(134,134,-249,'01.08.2018 6,71');" onmouseout="hh();" /><rect x="131" y="-18" width="6" height="18" style="fill:#0080C0;" onmouseover="sh(134,134,-249,'01.08.2018 6,71');" onmouseout="hh();" /><rect x="140" y="-243" width="6" height="243" style="fill:transparent;" onmouseover="sh(143,143,-249,'01.09.2018 16,38');" onmouseout="hh();" /><rect x="140" y="-44" width="6" height="44" style="fill:#0080C0;" onmouseover="sh(143,143,-249,'01.09.2018 16,38');" onmouseout="hh();" /><rect x="149" y="-243" width="6" height="243" style="fill:transparent;" onmouseover="sh(152,152,-249,'01.10.2018 22,46');" onmouseout="hh();" /><rect x="149" y="-61" width="6" height="61" style="fill:#0080C0;" onmouseover="sh(152,152,-249,'01.10.2018 22,46');" onmouseout="hh();" /><rect x="158" y="-243" width="6" height="243" style="fill:transparent;" onmouseover="sh(161,161,-249,'01.11.2018 15,90');" onmouseout="hh();" /><rect x="158" y="-43" width="6" height="43" style="fill:#0080C0;" onmouseover="sh(161,161,-249,'01.11.2018 15,90');" onmouseout="hh();" /><rect x="167" y="-243" width="6" height="243" style="fill:transparent;" onmouseover="sh(170,170,-249,'01.12.2018 21,04');" onmouseout="hh();" /><rect x="167" y="-57" width="6" height="57" style="fill:#0080C0;" onmouseover="sh(170,170,-249,'01.12.2018 21,04');" onmouseout="hh();" /><rect x="176" y="-243" width="6" height="243" style="fill:transparent;" onmouseover="sh(179,179,-249,'01.01.2019 29,29');" onmouseout="hh();" /><rect x="176" y="-79" width="6" height="79" style="fill:#0080C0;" onmouseover="sh(179,179,-249,'01.01.2019 29,29');" onmouseout="hh();" /><rect x="185" y="-243" width="6" height="243" style="fill:transparent;" onmouseover="sh(188,188,-249,'01.02.2019 45,26');" onmouseout="hh();" /><rect x="185" y="-122" width="6" height="122" style="fill:#0080C0;" onmouseover="sh(188,188,-249,'01.02.2019 45,26');" onmouseout="hh();" /><rect x="194" y="-243" width="6" height="243" style="fill:transparent;" onmouseover="sh(197,197,-249,'01.03.2019 44,20');" onmouseout="hh();" /><rect x="194" y="-119" width="6" height="119" style="fill:#0080C0;" onmouseover="sh(197,197,-249,'01.03.2019 44,20');" onmouseout="hh();" /><rect x="203" y="-243" width="6" height="243" style="fill:transparent;" onmouseover="sh(206,206,-249,'01.04.2019 50,57');" onmouseout="hh();" /><rect x="203" y="-137" width="6" height="137" style="fill:#0080C0;" onmouseover="sh(206,206,-249,'01.04.2019 50,57');" onmouseout="hh();" /><rect x="212" y="-243" width="6" height="243" style="fill:transparent;" onmouseover="sh(215,215,-249,'01.05.2019 21,31');" onmouseout="hh();" /><rect x="212" y="-58" width="6" height="58" style="fill:#0080C0;" onmouseover="sh(215,215,-249,'01.05.2019 21,31');" onmouseout="hh();" /><rect x="221" y="-243" width="6" height="243" style="fill:transparent;" onmouseover="sh(224,224,-249,'01.06.2019 10,08');" onmouseout="hh();" /><rect x="221" y="-27" width="6" height="27" style="fill:#0080C0;" onmouseover="sh(224,224,-249,'01.06.2019 10,08');" onmouseout="hh();" /><rect x="230" y="-243" width="6" height="243" style="fill:transparent;" onmouseover="sh(233,233,-249,'01.07.2019 9,23');" onmouseout="hh();" /><rect x="230" y="-25" width="6" height="25" style="fill:#0080C0;" onmouseover="sh(233,233,-249,'01.07.2019 9,23');" onmouseout="hh();" /><rect x="239" y="-243" width="6" height="243" style="fill:transparent;" onmouseover="sh(242,242,-249,'01.08.2019 8,43');" onmouseout="hh();" /><rect x="239" y="-23" width="6" height="23" style="fill:#0080C0;" onmouseover="sh(242,242,-249,'01.08.2019 8,43');" onmouseout="hh();" /><rect x="248" y="-243" width="6" height="243" style="fill:transparent;" onmouseover="sh(251,251,-249,'01.09.2019 15,42');" onmouseout="hh();" /><rect x="248" y="-42" width="6" height="42" style="fill:#0080C0;" onmouseover="sh(251,251,-249,'01.09.2019 15,42');" onmouseout="hh();" /><rect x="257" y="-243" width="6" height="243" style="fill:transparent;" onmouseover="sh(260,260,-249,'01.10.2019 19,38');" onmouseout="hh();" /><rect x="257" y="-52" width="6" height="52" style="fill:#0080C0;" onmouseover="sh(260,260,-249,'01.10.2019 19,38');" onmouseout="hh();" /><rect x="266" y="-243" width="6" height="243" style="fill:transparent;" onmouseover="sh(269,269,-249,'01.11.2019 15,78');" onmouseout="hh();" /><rect x="266" y="-43" width="6" height="43" style="fill:#0080C0;" onmouseover="sh(269,269,-249,'01.11.2019 15,78');" onmouseout="hh();" /><rect x="275" y="-243" width="6" height="243" style="fill:transparent;" onmouseover="sh(278,278,-249,'01.12.2019 15,94');" onmouseout="hh();" /><rect x="275" y="-43" width="6" height="43" style="fill:#0080C0;" onmouseover="sh(278,278,-249,'01.12.2019 15,94');" onmouseout="hh();" /><rect x="284" y="-243" width="6" height="243" style="fill:transparent;" onmouseover="sh(287,287,-249,'01.01.2020 19,22');" onmouseout="hh();" /><rect x="284" y="-52" width="6" height="52" style="fill:#0080C0;" onmouseover="sh(287,287,-249,'01.01.2020 19,22');" onmouseout="hh();" /><rect x="293" y="-243" width="6" height="243" style="fill:transparent;" onmouseover="sh(296,296,-249,'01.02.2020 27,77');" onmouseout="hh();" /><rect x="293" y="-75" width="6" height="75" style="fill:#0080C0;" onmouseover="sh(296,296,-249,'01.02.2020 27,77');" onmouseout="hh();" /><rect x="302" y="-243" width="6" height="243" style="fill:transparent;" onmouseover="sh(305,305,-249,'01.03.2020 36,02');" onmouseout="hh();" /><rect x="302" y="-97" width="6" height="97" style="fill:#0080C0;" onmouseover="sh(305,305,-249,'01.03.2020 36,02');" onmouseout="hh();" /><rect x="311" y="-243" width="6" height="243" style="fill:transparent;" onmouseover="sh(314,314,-249,'01.04.2020 32,08');" onmouseout="hh();" /><rect x="311" y="-87" width="6" height="87" style="fill:#0080C0;" onmouseover="sh(314,314,-249,'01.04.2020 32,08');" onmouseout="hh();" /><rect x="320" y="-243" width="6" height="243" style="fill:transparent;" onmouseover="sh(323,323,-249,'01.05.2020 24,72');" onmouseout="hh();" /><rect x="320" y="-67" width="6" height="67" style="fill:#0080C0;" onmouseover="sh(323,323,-249,'01.05.2020 24,72');" onmouseout="hh();" /><rect x="329" y="-243" width="6" height="243" style="fill:transparent;" onmouseover="sh(332,332,-249,'01.06.2020 9,35');" onmouseout="hh();" /><rect x="329" y="-25" width="6" height="25" style="fill:#0080C0;" onmouseover="sh(332,332,-249,'01.06.2020 9,35');" onmouseout="hh();" /><rect x="338" y="-243" width="6" height="243" style="fill:transparent;" onmouseover="sh(341,341,-249,'01.07.2020 5,97');" onmouseout="hh();" /><rect x="338" y="-16" width="6" height="16" style="fill:#0080C0;" onmouseover="sh(341,341,-249,'01.07.2020 5,97');" onmouseout="hh();" /><rect x="347" y="-243" width="6" height="243" style="fill:transparent;" onmouseover="sh(350,350,-249,'01.08.2020 5,20');" onmouseout="hh();" /><rect x="347" y="-14" width="6" height="14" style="fill:#0080C0;" onmouseover="sh(350,350,-249,'01.08.2020 5,20');" onmouseout="hh();" /><rect x="356" y="-243" width="6" height="243" style="fill:transparent;" onmouseover="sh(359,359,-249,'01.09.2020 8,97');" onmouseout="hh();" /><rect x="356" y="-24" width="6" height="24" style="fill:#0080C0;" onmouseover="sh(359,359,-249,'01.09.2020 8,97');" onmouseout="hh();" /><rect x="365" y="-243" width="6" height="243" style="fill:transparent;" onmouseover="sh(368,368,-249,'01.10.2020 16,81');" onmouseout="hh();" /><rect x="365" y="-45" width="6" height="45" style="fill:#0080C0;" onmouseover="sh(368,368,-249,'01.10.2020 16,81');" onmouseout="hh();" /><rect x="374" y="-243" width="6" height="243" style="fill:transparent;" onmouseover="sh(377,377,-249,'01.11.2020 15,27');" onmouseout="hh();" /><rect x="374" y="-41" width="6" height="41" style="fill:#0080C0;" onmouseover="sh(377,377,-249,'01.11.2020 15,27');" onmouseout="hh();" /><rect x="383" y="-243" width="6" height="243" style="fill:transparent;" onmouseover="sh(386,386,-249,'01.12.2020 19,45');" onmouseout="hh();" /><rect x="383" y="-53" width="6" height="53" style="fill:#0080C0;" onmouseover="sh(386,386,-249,'01.12.2020 19,45');" onmouseout="hh();" /><rect x="392" y="-243" width="6" height="243" style="fill:transparent;" onmouseover="sh(395,395,-249,'01.01.2021 24,11');" onmouseout="hh();" /><rect x="392" y="-65" width="6" height="65" style="fill:#0080C0;" onmouseover="sh(395,395,-249,'01.01.2021 24,11');" onmouseout="hh();" /><rect x="401" y="-243" width="6" height="243" style="fill:transparent;" onmouseover="sh(404,404,-249,'01.02.2021 57,78');" onmouseout="hh();" /><rect x="401" y="-156" width="6" height="156" style="fill:#0080C0;" onmouseover="sh(404,404,-249,'01.02.2021 57,78');" onmouseout="hh();" /><rect x="410" y="-243" width="6" height="243" style="fill:transparent;" onmouseover="sh(413,413,-249,'01.03.2021 45,98');" onmouseout="hh();" /><rect x="410" y="-124" width="6" height="124" style="fill:#0080C0;" onmouseover="sh(413,413,-249,'01.03.2021 45,98');" onmouseout="hh();" /><rect x="419" y="-243" width="6" height="243" style="fill:transparent;" onmouseover="sh(422,422,-249,'01.04.2021 35,53');" onmouseout="hh();" /><rect x="419" y="-96" width="6" height="96" style="fill:#0080C0;" onmouseover="sh(422,422,-249,'01.04.2021 35,53');" onmouseout="hh();" /><rect x="428" y="-243" width="6" height="243" style="fill:transparent;" onmouseover="sh(431,431,-249,'01.05.2021 24,97');" onmouseout="hh();" /><rect x="428" y="-67" width="6" height="67" style="fill:#0080C0;" onmouseover="sh(431,431,-249,'01.05.2021 24,97');" onmouseout="hh();" /><rect x="437" y="-243" width="6" height="243" style="fill:transparent;" onmouseover="sh(440,440,-249,'01.06.2021 7,94');" onmouseout="hh();" /><rect x="437" y="-21" width="6" height="21" style="fill:#0080C0;" onmouseover="sh(440,440,-249,'01.06.2021 7,94');" onmouseout="hh();" /><rect x="446" y="-243" width="6" height="243" style="fill:transparent;" onmouseover="sh(449,449,-249,'01.07.2021 6,34');" onmouseout="hh();" /><rect x="446" y="-17" width="6" height="17" style="fill:#0080C0;" onmouseover="sh(449,449,-249,'01.07.2021 6,34');" onmouseout="hh();" /><rect x="455" y="-243" width="6" height="243" style="fill:transparent;" onmouseover="sh(458,458,-249,'01.08.2021 8,48');" onmouseout="hh();" /><rect x="455" y="-23" width="6" height="23" style="fill:#0080C0;" onmouseover="sh(458,458,-249,'01.08.2021 8,48');" onmouseout="hh();" /><rect x="464" y="-243" width="6" height="243" style="fill:transparent;" onmouseover="sh(467,467,-249,'01.09.2021 15,46');" onmouseout="hh();" /><rect x="464" y="-42" width="6" height="42" style="fill:#0080C0;" onmouseover="sh(467,467,-249,'01.09.2021 15,46');" onmouseout="hh();" /><rect x="473" y="-243" width="6" height="243" style="fill:transparent;" onmouseover="sh(476,476,-249,'01.10.2021 17,92');" onmouseout="hh();" /><rect x="473" y="-48" width="6" height="48" style="fill:#0080C0;" onmouseover="sh(476,476,-249,'01.10.2021 17,92');" onmouseout="hh();" /><rect x="482" y="-243" width="6" height="243" style="fill:transparent;" onmouseover="sh(485,485,-249,'01.11.2021 18,98');" onmouseout="hh();" /><rect x="482" y="-51" width="6" height="51" style="fill:#0080C0;" onmouseover="sh(485,485,-249,'01.11.2021 18,98');" onmouseout="hh();" /><rect x="491" y="-243" width="6" height="243" style="fill:transparent;" onmouseover="sh(494,494,-249,'01.12.2021 22,48');" onmouseout="hh();" /><rect x="491" y="-61" width="6" height="61" style="fill:#0080C0;" onmouseover="sh(494,494,-249,'01.12.2021 22,48');" onmouseout="hh();" /><rect x="500" y="-243" width="6" height="243" style="fill:transparent;" onmouseover="sh(503,503,-249,'01.01.2022 30,20');" onmouseout="hh();" /><rect x="500" y="-82" width="6" height="82" style="fill:#0080C0;" onmouseover="sh(503,503,-249,'01.01.2022 30,20');" onmouseout="hh();" /><rect x="509" y="-243" width="6" height="243" style="fill:transparent;" onmouseover="sh(512,512,-249,'01.02.2022 53,27');" onmouseout="hh();" /><rect x="509" y="-144" width="6" height="144" style="fill:#0080C0;" onmouseover="sh(512,512,-249,'01.02.2022 53,27');" onmouseout="hh();" /><rect x="518" y="-243" width="6" height="243" style="fill:transparent;" onmouseover="sh(521,521,-249,'01.03.2022 53,38');" onmouseout="hh();" /><rect x="518" y="-144" width="6" height="144" style="fill:#0080C0;" onmouseover="sh(521,521,-249,'01.03.2022 53,38');" onmouseout="hh();" /><rect x="527" y="-243" width="6" height="243" style="fill:transparent;" onmouseover="sh(530,530,-249,'01.04.2022 50,66');" onmouseout="hh();" /><rect x="527" y="-137" width="6" height="137" style="fill:#0080C0;" onmouseover="sh(530,530,-249,'01.04.2022 50,66');" onmouseout="hh();" /><rect x="536" y="-243" width="6" height="243" style="fill:transparent;" onmouseover="sh(539,539,-249,'01.05.2022 50,96');" onmouseout="hh();" /><rect x="536" y="-138" width="6" height="138" style="fill:#0080C0;" onmouseover="sh(539,539,-249,'01.05.2022 50,96');" onmouseout="hh();" /><rect x="545" y="-243" width="6" height="243" style="fill:transparent;" onmouseover="sh(548,548,-249,'01.06.2022 50,76');" onmouseout="hh();" /><rect x="545" y="-137" width="6" height="137" style="fill:#0080C0;" onmouseover="sh(548,548,-249,'01.06.2022 50,76');" onmouseout="hh();" /><rect x="554" y="-243" width="6" height="243" style="fill:transparent;" onmouseover="sh(557,557,-249,'01.07.2022 38,31');" onmouseout="hh();" /><rect x="554" y="-103" width="6" height="103" style="fill:#0080C0;" onmouseover="sh(557,557,-249,'01.07.2022 38,31');" onmouseout="hh();" /><rect x="563" y="-243" width="6" height="243" style="fill:transparent;" onmouseover="sh(566,566,-249,'01.08.2022 33,93');" onmouseout="hh();" /><rect x="563" y="-92" width="6" height="92" style="fill:#0080C0;" onmouseover="sh(566,566,-249,'01.08.2022 33,93');" onmouseout="hh();" /><rect x="572" y="-243" width="6" height="243" style="fill:transparent;" onmouseover="sh(575,575,-249,'01.09.2022 29,48');" onmouseout="hh();" /><rect x="572" y="-80" width="6" height="80" style="fill:#0080C0;" onmouseover="sh(575,575,-249,'01.09.2022 29,48');" onmouseout="hh();" /><rect x="581" y="-243" width="6" height="243" style="fill:transparent;" onmouseover="sh(584,584,-249,'01.10.2022 30,07');" onmouseout="hh();" /><rect x="581" y="-81" width="6" height="81" style="fill:#0080C0;" onmouseover="sh(584,584,-249,'01.10.2022 30,07');" onmouseout="hh();" /><rect x="590" y="-243" width="6" height="243" style="fill:transparent;" onmouseover="sh(593,593,-249,'01.11.2022 28,01');" onmouseout="hh();" /><rect x="590" y="-76" width="6" height="76" style="fill:#0080C0;" onmouseover="sh(593,593,-249,'01.11.2022 28,01');" onmouseout="hh();" /><rect x="599" y="-243" width="6" height="243" style="fill:transparent;" onmouseover="sh(602,596,-249,'01.12.2022 35,40');" onmouseout="hh();" /><rect x="599" y="-96" width="6" height="96" style="fill:#0080C0;" onmouseover="sh(602,596,-249,'01.12.2022 35,40');" onmouseout="hh();" /><rect x="608" y="-243" width="6" height="243" style="fill:transparent;" onmouseover="sh(611,596,-249,'01.01.2023 38,90');" onmouseout="hh();" /><rect x="608" y="-105" width="6" height="105" style="fill:#0080C0;" onmouseover="sh(611,596,-249,'01.01.2023 38,90');" onmouseout="hh();" /><rect x="617" y="-243" width="6" height="243" style="fill:transparent;" onmouseover="sh(620,596,-249,'01.02.2023 55,26');" onmouseout="hh();" /><rect x="617" y="-149" width="6" height="149" style="fill:#0080C0;" onmouseover="sh(620,596,-249,'01.02.2023 55,26');" onmouseout="hh();" /><rect x="626" y="-243" width="6" height="243" style="fill:transparent;" onmouseover="sh(629,596,-249,'01.03.2023 77,34');" onmouseout="hh();" /><rect x="626" y="-209" width="6" height="209" style="fill:#0080C0;" onmouseover="sh(629,596,-249,'01.03.2023 77,34');" onmouseout="hh();" /><rect x="635" y="-243" width="6" height="243" style="fill:transparent;" onmouseover="sh(638,596,-249,'01.04.2023 65,96');" onmouseout="hh();" /><rect x="635" y="-178" width="6" height="178" style="fill:#0080C0;" onmouseover="sh(638,596,-249,'01.04.2023 65,96');" onmouseout="hh();" /><rect x="644" y="-243" width="6" height="243" style="fill:transparent;" onmouseover="sh(647,596,-249,'01.05.2023 65,71');" onmouseout="hh();" /><rect x="644" y="-177" width="6" height="177" style="fill:#0080C0;" onmouseover="sh(647,596,-249,'01.05.2023 65,71');" onmouseout="hh();" /><rect x="653" y="-243" width="6" height="243" style="fill:transparent;" onmouseover="sh(656,596,-249,'01.06.2023 50,32');" onmouseout="hh();" /><rect x="653" y="-136" width="6" height="136" style="fill:#0080C0;" onmouseover="sh(656,596,-249,'01.06.2023 50,32');" onmouseout="hh();" />
<line x1="-6" y1="0" x2="666" y2="0" class="axes" /><line x1="0" y1="-259" x2="0" y2="0" class="axes" /><text x="-2" y="-263" style="text-anchor:end;">грн.</text>
<use xlink:href="#hintbox" id="usebox" x="0" y="0" style="visibility:hidden;" />
</svg>
