<?xml version="1.0" encoding="UTF-8" standalone="no"?>
<!DOCTYPE svg PUBLIC "-//W3C//DTD SVG 1.1//EN" "http://www.w3.org/Graphics/SVG/1.1/DTD/svg11.dtd">
<svg version="1.1" xmlns="http://www.w3.org/2000/svg" xmlns:xlink="http://www.w3.org/1999/xlink" xmlns:ev="http://www.w3.org/2001/xml-events" width="597" height="330" viewBox="-48 -272 597 330" preserveAspectRatio="none">
<style type="text/css"><![CDATA[
line { stroke-width:1px; }
line.axes { stroke:#505050; }
line.grid { stroke:#D8D8D8; }
rect.bg { fill:#FFFFFF; }
text { font-family:arial,sans-serif; font-size:12px; fill:#000000; }
]]></style>
<defs>
<g id="hintbox"><rect x="0" y="0" width="77" height="34" style="stroke:#505050; stroke-width:1px; fill:rgba(255,255,255,0.87);" /><text id="hint0" x="4" y="14"> </text><text x="7" y="28"></text><text id="hint1" x="73" y="28" style="text-anchor:end;"> </text></g>
<g id="hintline"><line x1="0" y1="-238" x2="0" y2="0" class="axes" style="stroke-dasharray:2 1" /></g>
</defs>
<script><![CDATA[
function shb(x,y,dat) {
ar=dat.split(' '); for (i=0; i<ar.length; ++i) { if (i&&ar[i]) ar[i]+=' грн.'; h=document.getElementById('hint'+i); h.textContent=ar[i]; }
u=document.getElementById('usebox'); u.setAttribute('x',x); u.setAttribute('y',y); u.setAttribute('style','visibility:visible;'); }
function hhb() { u=document.getElementById('usebox'); u.setAttribute('style','visibility:hidden;'); u.setAttribute('x','0'); u.setAttribute('y','0'); }
function shl(x) { u=document.getElementById('useline'); u.setAttribute('x',x); u.setAttribute('style','visibility:visible;'); }
function hhl() { u=document.getElementById('useline'); u.setAttribute('style','visibility:hidden;'); u.setAttribute('x','0'); }
function sh(xl,xb,y,dat) { shl(xl); shb(xb,y,dat); }
function hh() { hhb(); hhl(); }
]]></script>
<rect x="-48" y="-272" width="597" height="330" class="bg" />
<line x1="17" y1="0" x2="17" y2="4" class="axes" /><text x="22" y="8" transform="rotate(-90,22,8)" style="text-anchor:end;">04.2017</text><line x1="44" y1="0" x2="44" y2="4" class="axes" /><text x="49" y="8" transform="rotate(-90,49,8)" style="text-anchor:end;">07.2017</text><line x1="71" y1="0" x2="71" y2="4" class="axes" /><text x="76" y="8" transform="rotate(-90,76,8)" style="text-anchor:end;">10.2017</text><line x1="98" y1="0" x2="98" y2="4" class="axes" /><text x="103" y="8" transform="rotate(-90,103,8)" style="text-anchor:end;">01.2018</text><line x1="125" y1="0" x2="125" y2="4" class="axes" /><text x="130" y="8" transform="rotate(-90,130,8)" style="text-anchor:end;">04.2018</text><line x1="152" y1="0" x2="152" y2="4" class="axes" /><text x="157" y="8" transform="rotate(-90,157,8)" style="text-anchor:end;">07.2018</text><line x1="179" y1="0" x2="179" y2="4" class="axes" /><text x="184" y="8" transform="rotate(-90,184,8)" style="text-anchor:end;">10.2018</text><line x1="206" y1="0" x2="206" y2="4" class="axes" /><text x="211" y="8" transform="rotate(-90,211,8)" style="text-anchor:end;">01.2019</text><line x1="233" y1="0" x2="233" y2="4" class="axes" /><text x="238" y="8" transform="rotate(-90,238,8)" style="text-anchor:end;">04.2019</text><line x1="260" y1="0" x2="260" y2="4" class="axes" /><text x="265" y="8" transform="rotate(-90,265,8)" style="text-anchor:end;">07.2019</text><line x1="287" y1="0" x2="287" y2="4" class="axes" /><text x="292" y="8" transform="rotate(-90,292,8)" style="text-anchor:end;">10.2019</text><line x1="314" y1="0" x2="314" y2="4" class="axes" /><text x="319" y="8" transform="rotate(-90,319,8)" style="text-anchor:end;">01.2020</text><line x1="341" y1="0" x2="341" y2="4" class="axes" /><text x="346" y="8" transform="rotate(-90,346,8)" style="text-anchor:end;">04.2020</text><line x1="350" y1="0" x2="350" y2="4" class="axes" /><text x="355" y="8" transform="rotate(-90,355,8)" style="text-anchor:end;">04.2021</text><line x1="377" y1="0" x2="377" y2="4" class="axes" /><text x="382" y="8" transform="rotate(-90,382,8)" style="text-anchor:end;">07.2021</text><line x1="404" y1="0" x2="404" y2="4" class="axes" /><text x="409" y="8" transform="rotate(-90,409,8)" style="text-anchor:end;">10.2021</text><line x1="431" y1="0" x2="431" y2="4" class="axes" /><text x="436" y="8" transform="rotate(-90,436,8)" style="text-anchor:end;">01.2022</text><line x1="458" y1="0" x2="458" y2="4" class="axes" /><text x="463" y="8" transform="rotate(-90,463,8)" style="text-anchor:end;">10.2022</text><line x1="485" y1="0" x2="485" y2="4" class="axes" /><text x="490" y="8" transform="rotate(-90,490,8)" style="text-anchor:end;">01.2023</text><line x1="512" y1="0" x2="512" y2="4" class="axes" /><text x="517" y="8" transform="rotate(-90,517,8)" style="text-anchor:end;">04.2023</text>
<line x1="0" y1="-34" x2="537" y2="-34" class="grid" /><line x1="0" y1="-34" x2="-4" y2="-34" class="axes" /><text x="-8" y="-30" style="text-anchor:end;">100</text><line x1="0" y1="-68" x2="537" y2="-68" class="grid" /><line x1="0" y1="-68" x2="-4" y2="-68" class="axes" /><text x="-8" y="-64" style="text-anchor:end;">200</text><line x1="0" y1="-102" x2="537" y2="-102" class="grid" /><line x1="0" y1="-102" x2="-4" y2="-102" class="axes" /><text x="-8" y="-98" style="text-anchor:end;">300</text><line x1="0" y1="-136" x2="537" y2="-136" class="grid" /><line x1="0" y1="-136" x2="-4" y2="-136" class="axes" /><text x="-8" y="-132" style="text-anchor:end;">400</text><line x1="0" y1="-170" x2="537" y2="-170" class="grid" /><line x1="0" y1="-170" x2="-4" y2="-170" class="axes" /><text x="-8" y="-166" style="text-anchor:end;">500</text><line x1="0" y1="-204" x2="537" y2="-204" class="grid" /><line x1="0" y1="-204" x2="-4" y2="-204" class="axes" /><text x="-8" y="-200" style="text-anchor:end;">600</text><line x1="0" y1="-238" x2="537" y2="-238" class="grid" /><line x1="0" y1="-238" x2="-4" y2="-238" class="axes" /><text x="-8" y="-234" style="text-anchor:end;">700</text>
<use xlink:href="#hintline" id="useline" x="0" style="visibility:hidden;" />
<rect x="5" y="-238" width="6" height="238" style="fill:transparent;" onmouseover="sh(8,8,-244,'01.03.2017 211,60');" onmouseout="hh();" /><rect x="5" y="-72" width="6" height="72" style="fill:#0080C0;" onmouseover="sh(8,8,-244,'01.03.2017 211,60');" onmouseout="hh();" /><rect x="14" y="-238" width="6" height="238" style="fill:transparent;" onmouseover="sh(17,17,-244,'01.04.2017 208,48');" onmouseout="hh();" /><rect x="14" y="-71" width="6" height="71" style="fill:#0080C0;" onmouseover="sh(17,17,-244,'01.04.2017 208,48');" onmouseout="hh();" /><rect x="23" y="-238" width="6" height="238" style="fill:transparent;" onmouseover="sh(26,26,-244,'01.05.2017 182,85');" onmouseout="hh();" /><rect x="23" y="-62" width="6" height="62" style="fill:#0080C0;" onmouseover="sh(26,26,-244,'01.05.2017 182,85');" onmouseout="hh();" /><rect x="32" y="-238" width="6" height="238" style="fill:transparent;" onmouseover="sh(35,35,-244,'01.06.2017 73,76');" onmouseout="hh();" /><rect x="32" y="-25" width="6" height="25" style="fill:#0080C0;" onmouseover="sh(35,35,-244,'01.06.2017 73,76');" onmouseout="hh();" /><rect x="41" y="-238" width="6" height="238" style="fill:transparent;" onmouseover="sh(44,44,-244,'01.07.2017 108,93');" onmouseout="hh();" /><rect x="41" y="-37" width="6" height="37" style="fill:#0080C0;" onmouseover="sh(44,44,-244,'01.07.2017 108,93');" onmouseout="hh();" /><rect x="50" y="-238" width="6" height="238" style="fill:transparent;" onmouseover="sh(53,53,-244,'01.08.2017 312,01');" onmouseout="hh();" /><rect x="50" y="-106" width="6" height="106" style="fill:#0080C0;" onmouseover="sh(53,53,-244,'01.08.2017 312,01');" onmouseout="hh();" /><rect x="59" y="-238" width="6" height="238" style="fill:transparent;" onmouseover="sh(62,62,-244,'01.09.2017 164,96');" onmouseout="hh();" /><rect x="59" y="-56" width="6" height="56" style="fill:#0080C0;" onmouseover="sh(62,62,-244,'01.09.2017 164,96');" onmouseout="hh();" /><rect x="68" y="-238" width="6" height="238" style="fill:transparent;" onmouseover="sh(71,71,-244,'01.10.2017 102,46');" onmouseout="hh();" /><rect x="68" y="-35" width="6" height="35" style="fill:#0080C0;" onmouseover="sh(71,71,-244,'01.10.2017 102,46');" onmouseout="hh();" /><rect x="77" y="-238" width="6" height="238" style="fill:transparent;" onmouseover="sh(80,80,-244,'01.11.2017 99,25');" onmouseout="hh();" /><rect x="77" y="-34" width="6" height="34" style="fill:#0080C0;" onmouseover="sh(80,80,-244,'01.11.2017 99,25');" onmouseout="hh();" /><rect x="86" y="-238" width="6" height="238" style="fill:transparent;" onmouseover="sh(89,89,-244,'01.12.2017 100,63');" onmouseout="hh();" /><rect x="86" y="-34" width="6" height="34" style="fill:#0080C0;" onmouseover="sh(89,89,-244,'01.12.2017 100,63');" onmouseout="hh();" /><rect x="95" y="-238" width="6" height="238" style="fill:transparent;" onmouseover="sh(98,98,-244,'01.01.2018 116,27');" onmouseout="hh();" /><rect x="95" y="-40" width="6" height="40" style="fill:#0080C0;" onmouseover="sh(98,98,-244,'01.01.2018 116,27');" onmouseout="hh();" /><rect x="104" y="-238" width="6" height="238" style="fill:transparent;" onmouseover="sh(107,107,-244,'01.02.2018 123,26');" onmouseout="hh();" /><rect x="104" y="-42" width="6" height="42" style="fill:#0080C0;" onmouseover="sh(107,107,-244,'01.02.2018 123,26');" onmouseout="hh();" /><rect x="113" y="-238" width="6" height="238" style="fill:transparent;" onmouseover="sh(116,116,-244,'01.03.2018 127,09');" onmouseout="hh();" /><rect x="113" y="-43" width="6" height="43" style="fill:#0080C0;" onmouseover="sh(116,116,-244,'01.03.2018 127,09');" onmouseout="hh();" /><rect x="122" y="-238" width="6" height="238" style="fill:transparent;" onmouseover="sh(125,125,-244,'01.04.2018 153,01');" onmouseout="hh();" /><rect x="122" y="-52" width="6" height="52" style="fill:#0080C0;" onmouseover="sh(125,125,-244,'01.04.2018 153,01');" onmouseout="hh();" /><rect x="131" y="-238" width="6" height="238" style="fill:transparent;" onmouseover="sh(134,134,-244,'01.05.2018 204,17');" onmouseout="hh();" /><rect x="131" y="-69" width="6" height="69" style="fill:#0080C0;" onmouseover="sh(134,134,-244,'01.05.2018 204,17');" onmouseout="hh();" /><rect x="140" y="-238" width="6" height="238" style="fill:transparent;" onmouseover="sh(143,143,-244,'01.06.2018 132,30');" onmouseout="hh();" /><rect x="140" y="-45" width="6" height="45" style="fill:#0080C0;" onmouseover="sh(143,143,-244,'01.06.2018 132,30');" onmouseout="hh();" /><rect x="149" y="-238" width="6" height="238" style="fill:transparent;" onmouseover="sh(152,152,-244,'01.07.2018 125,97');" onmouseout="hh();" /><rect x="149" y="-43" width="6" height="43" style="fill:#0080C0;" onmouseover="sh(152,152,-244,'01.07.2018 125,97');" onmouseout="hh();" /><rect x="158" y="-238" width="6" height="238" style="fill:transparent;" onmouseover="sh(161,161,-244,'01.08.2018 103,23');" onmouseout="hh();" /><rect x="158" y="-35" width="6" height="35" style="fill:#0080C0;" onmouseover="sh(161,161,-244,'01.08.2018 103,23');" onmouseout="hh();" /><rect x="167" y="-238" width="6" height="238" style="fill:transparent;" onmouseover="sh(170,170,-244,'01.09.2018 117,83');" onmouseout="hh();" /><rect x="167" y="-40" width="6" height="40" style="fill:#0080C0;" onmouseover="sh(170,170,-244,'01.09.2018 117,83');" onmouseout="hh();" /><rect x="176" y="-238" width="6" height="238" style="fill:transparent;" onmouseover="sh(179,179,-244,'01.10.2018 126,20');" onmouseout="hh();" /><rect x="176" y="-43" width="6" height="43" style="fill:#0080C0;" onmouseover="sh(179,179,-244,'01.10.2018 126,20');" onmouseout="hh();" /><rect x="185" y="-238" width="6" height="238" style="fill:transparent;" onmouseover="sh(188,188,-244,'01.11.2018 139,90');" onmouseout="hh();" /><rect x="185" y="-48" width="6" height="48" style="fill:#0080C0;" onmouseover="sh(188,188,-244,'01.11.2018 139,90');" onmouseout="hh();" /><rect x="194" y="-238" width="6" height="238" style="fill:transparent;" onmouseover="sh(197,197,-244,'01.12.2018 169,90');" onmouseout="hh();" /><rect x="194" y="-58" width="6" height="58" style="fill:#0080C0;" onmouseover="sh(197,197,-244,'01.12.2018 169,90');" onmouseout="hh();" /><rect x="203" y="-238" width="6" height="238" style="fill:transparent;" onmouseover="sh(206,206,-244,'01.01.2019 171,90');" onmouseout="hh();" /><rect x="203" y="-58" width="6" height="58" style="fill:#0080C0;" onmouseover="sh(206,206,-244,'01.01.2019 171,90');" onmouseout="hh();" /><rect x="212" y="-238" width="6" height="238" style="fill:transparent;" onmouseover="sh(215,215,-244,'01.02.2019 179,90');" onmouseout="hh();" /><rect x="212" y="-61" width="6" height="61" style="fill:#0080C0;" onmouseover="sh(215,215,-244,'01.02.2019 179,90');" onmouseout="hh();" /><rect x="221" y="-238" width="6" height="238" style="fill:transparent;" onmouseover="sh(224,224,-244,'01.03.2019 179,90');" onmouseout="hh();" /><rect x="221" y="-61" width="6" height="61" style="fill:#0080C0;" onmouseover="sh(224,224,-244,'01.03.2019 179,90');" onmouseout="hh();" /><rect x="230" y="-238" width="6" height="238" style="fill:transparent;" onmouseover="sh(233,233,-244,'01.04.2019 203,15');" onmouseout="hh();" /><rect x="230" y="-69" width="6" height="69" style="fill:#0080C0;" onmouseover="sh(233,233,-244,'01.04.2019 203,15');" onmouseout="hh();" /><rect x="239" y="-238" width="6" height="238" style="fill:transparent;" onmouseover="sh(242,242,-244,'01.05.2019 134,59');" onmouseout="hh();" /><rect x="239" y="-46" width="6" height="46" style="fill:#0080C0;" onmouseover="sh(242,242,-244,'01.05.2019 134,59');" onmouseout="hh();" /><rect x="248" y="-238" width="6" height="238" style="fill:transparent;" onmouseover="sh(251,251,-244,'01.06.2019 116,50');" onmouseout="hh();" /><rect x="248" y="-40" width="6" height="40" style="fill:#0080C0;" onmouseover="sh(251,251,-244,'01.06.2019 116,50');" onmouseout="hh();" /><rect x="257" y="-238" width="6" height="238" style="fill:transparent;" onmouseover="sh(260,260,-244,'01.07.2019 230,31');" onmouseout="hh();" /><rect x="257" y="-78" width="6" height="78" style="fill:#0080C0;" onmouseover="sh(260,260,-244,'01.07.2019 230,31');" onmouseout="hh();" /><rect x="266" y="-238" width="6" height="238" style="fill:transparent;" onmouseover="sh(269,269,-244,'01.08.2019 159,08');" onmouseout="hh();" /><rect x="266" y="-54" width="6" height="54" style="fill:#0080C0;" onmouseover="sh(269,269,-244,'01.08.2019 159,08');" onmouseout="hh();" /><rect x="275" y="-238" width="6" height="238" style="fill:transparent;" onmouseover="sh(278,278,-244,'01.09.2019 119,30');" onmouseout="hh();" /><rect x="275" y="-41" width="6" height="41" style="fill:#0080C0;" onmouseover="sh(278,278,-244,'01.09.2019 119,30');" onmouseout="hh();" /><rect x="284" y="-238" width="6" height="238" style="fill:transparent;" onmouseover="sh(287,287,-244,'01.10.2019 120,67');" onmouseout="hh();" /><rect x="284" y="-41" width="6" height="41" style="fill:#0080C0;" onmouseover="sh(287,287,-244,'01.10.2019 120,67');" onmouseout="hh();" /><rect x="293" y="-238" width="6" height="238" style="fill:transparent;" onmouseover="sh(296,296,-244,'01.11.2019 103,61');" onmouseout="hh();" /><rect x="293" y="-35" width="6" height="35" style="fill:#0080C0;" onmouseover="sh(296,296,-244,'01.11.2019 103,61');" onmouseout="hh();" /><rect x="302" y="-238" width="6" height="238" style="fill:transparent;" onmouseover="sh(305,305,-244,'01.12.2019 119,90');" onmouseout="hh();" /><rect x="302" y="-41" width="6" height="41" style="fill:#0080C0;" onmouseover="sh(305,305,-244,'01.12.2019 119,90');" onmouseout="hh();" /><rect x="311" y="-238" width="6" height="238" style="fill:transparent;" onmouseover="sh(314,314,-244,'01.01.2020 134,00');" onmouseout="hh();" /><rect x="311" y="-46" width="6" height="46" style="fill:#0080C0;" onmouseover="sh(314,314,-244,'01.01.2020 134,00');" onmouseout="hh();" /><rect x="320" y="-238" width="6" height="238" style="fill:transparent;" onmouseover="sh(323,323,-244,'01.02.2020 133,98');" onmouseout="hh();" /><rect x="320" y="-46" width="6" height="46" style="fill:#0080C0;" onmouseover="sh(323,323,-244,'01.02.2020 133,98');" onmouseout="hh();" /><rect x="329" y="-238" width="6" height="238" style="fill:transparent;" onmouseover="sh(332,332,-244,'01.03.2020 146,42');" onmouseout="hh();" /><rect x="329" y="-50" width="6" height="50" style="fill:#0080C0;" onmouseover="sh(332,332,-244,'01.03.2020 146,42');" onmouseout="hh();" /><rect x="338" y="-238" width="6" height="238" style="fill:transparent;" onmouseover="sh(341,341,-244,'01.04.2020 149,00');" onmouseout="hh();" /><rect x="338" y="-51" width="6" height="51" style="fill:#0080C0;" onmouseover="sh(341,341,-244,'01.04.2020 149,00');" onmouseout="hh();" /><rect x="347" y="-238" width="6" height="238" style="fill:transparent;" onmouseover="sh(350,350,-244,'01.04.2021 206,09');" onmouseout="hh();" /><rect x="347" y="-70" width="6" height="70" style="fill:#0080C0;" onmouseover="sh(350,350,-244,'01.04.2021 206,09');" onmouseout="hh();" /><rect x="356" y="-238" width="6" height="238" style="fill:transparent;" onmouseover="sh(359,359,-244,'01.05.2021 208,54');" onmouseout="hh();" /><rect x="356" y="-71" width="6" height="71" style="fill:#0080C0;" onmouseover="sh(359,359,-244,'01.05.2021 208,54');" onmouseout="hh();" /><rect x="365" y="-238" width="6" height="238" style="fill:transparent;" onmouseover="sh(368,368,-244,'01.06.2021 204,35');" onmouseout="hh();" /><rect x="365" y="-69" width="6" height="69" style="fill:#0080C0;" onmouseover="sh(368,368,-244,'01.06.2021 204,35');" onmouseout="hh();" /><rect x="374" y="-238" width="6" height="238" style="fill:transparent;" onmouseover="sh(377,377,-244,'01.07.2021 157,42');" onmouseout="hh();" /><rect x="374" y="-54" width="6" height="54" style="fill:#0080C0;" onmouseover="sh(377,377,-244,'01.07.2021 157,42');" onmouseout="hh();" /><rect x="383" y="-238" width="6" height="238" style="fill:transparent;" onmouseover="sh(386,386,-244,'01.08.2021 190,23');" onmouseout="hh();" /><rect x="383" y="-65" width="6" height="65" style="fill:#0080C0;" onmouseover="sh(386,386,-244,'01.08.2021 190,23');" onmouseout="hh();" /><rect x="392" y="-238" width="6" height="238" style="fill:transparent;" onmouseover="sh(395,395,-244,'01.09.2021 194,00');" onmouseout="hh();" /><rect x="392" y="-66" width="6" height="66" style="fill:#0080C0;" onmouseover="sh(395,395,-244,'01.09.2021 194,00');" onmouseout="hh();" /><rect x="401" y="-238" width="6" height="238" style="fill:transparent;" onmouseover="sh(404,404,-244,'01.10.2021 178,13');" onmouseout="hh();" /><rect x="401" y="-61" width="6" height="61" style="fill:#0080C0;" onmouseover="sh(404,404,-244,'01.10.2021 178,13');" onmouseout="hh();" /><rect x="410" y="-238" width="6" height="238" style="fill:transparent;" onmouseover="sh(413,413,-244,'01.11.2021 169,00');" onmouseout="hh();" /><rect x="410" y="-57" width="6" height="57" style="fill:#0080C0;" onmouseover="sh(413,413,-244,'01.11.2021 169,00');" onmouseout="hh();" /><rect x="419" y="-238" width="6" height="238" style="fill:transparent;" onmouseover="sh(422,422,-244,'01.12.2021 190,33');" onmouseout="hh();" /><rect x="419" y="-65" width="6" height="65" style="fill:#0080C0;" onmouseover="sh(422,422,-244,'01.12.2021 190,33');" onmouseout="hh();" /><rect x="428" y="-238" width="6" height="238" style="fill:transparent;" onmouseover="sh(431,431,-244,'01.01.2022 197,86');" onmouseout="hh();" /><rect x="428" y="-67" width="6" height="67" style="fill:#0080C0;" onmouseover="sh(431,431,-244,'01.01.2022 197,86');" onmouseout="hh();" /><rect x="437" y="-238" width="6" height="238" style="fill:transparent;" onmouseover="sh(440,440,-244,'01.08.2022 478,80');" onmouseout="hh();" /><rect x="437" y="-163" width="6" height="163" style="fill:#0080C0;" onmouseover="sh(440,440,-244,'01.08.2022 478,80');" onmouseout="hh();" /><rect x="446" y="-238" width="6" height="238" style="fill:transparent;" onmouseover="sh(449,449,-244,'01.09.2022 478,80');" onmouseout="hh();" /><rect x="446" y="-163" width="6" height="163" style="fill:#0080C0;" onmouseover="sh(449,449,-244,'01.09.2022 478,80');" onmouseout="hh();" /><rect x="455" y="-238" width="6" height="238" style="fill:transparent;" onmouseover="sh(458,458,-244,'01.10.2022 478,80');" onmouseout="hh();" /><rect x="455" y="-163" width="6" height="163" style="fill:#0080C0;" onmouseover="sh(458,458,-244,'01.10.2022 478,80');" onmouseout="hh();" /><rect x="464" y="-238" width="6" height="238" style="fill:transparent;" onmouseover="sh(467,467,-244,'01.11.2022 478,80');" onmouseout="hh();" /><rect x="464" y="-163" width="6" height="163" style="fill:#0080C0;" onmouseover="sh(467,467,-244,'01.11.2022 478,80');" onmouseout="hh();" /><rect x="473" y="-238" width="6" height="238" style="fill:transparent;" onmouseover="sh(476,470,-244,'01.12.2022 481,50');" onmouseout="hh();" /><rect x="473" y="-164" width="6" height="164" style="fill:#0080C0;" onmouseover="sh(476,470,-244,'01.12.2022 481,50');" onmouseout="hh();" /><rect x="482" y="-238" width="6" height="238" style="fill:transparent;" onmouseover="sh(485,470,-244,'01.01.2023 486,00');" onmouseout="hh();" /><rect x="482" y="-165" width="6" height="165" style="fill:#0080C0;" onmouseover="sh(485,470,-244,'01.01.2023 486,00');" onmouseout="hh();" /><rect x="491" y="-238" width="6" height="238" style="fill:transparent;" onmouseover="sh(494,470,-244,'01.02.2023 481,37');" onmouseout="hh();" /><rect x="491" y="-164" width="6" height="164" style="fill:#0080C0;" onmouseover="sh(494,470,-244,'01.02.2023 481,37');" onmouseout="hh();" /><rect x="500" y="-238" width="6" height="238" style="fill:transparent;" onmouseover="sh(503,470,-244,'01.03.2023 475,20');" onmouseout="hh();" /><rect x="500" y="-162" width="6" height="162" style="fill:#0080C0;" onmouseover="sh(503,470,-244,'01.03.2023 475,20');" onmouseout="hh();" /><rect x="509" y="-238" width="6" height="238" style="fill:transparent;" onmouseover="sh(512,470,-244,'01.04.2023 574,20');" onmouseout="hh();" /><rect x="509" y="-195" width="6" height="195" style="fill:#0080C0;" onmouseover="sh(512,470,-244,'01.04.2023 574,20');" onmouseout="hh();" /><rect x="518" y="-238" width="6" height="238" style="fill:transparent;" onmouseover="sh(521,470,-244,'01.05.2023 503,52');" onmouseout="hh();" /><rect x="518" y="-171" width="6" height="171" style="fill:#0080C0;" onmouseover="sh(521,470,-244,'01.05.2023 503,52');" onmouseout="hh();" /><rect x="527" y="-238" width="6" height="238" style="fill:transparent;" onmouseover="sh(530,470,-244,'01.06.2023 490,93');" onmouseout="hh();" /><rect x="527" y="-167" width="6" height="167" style="fill:#0080C0;" onmouseover="sh(530,470,-244,'01.06.2023 490,93');" onmouseout="hh();" />
<line x1="-6" y1="0" x2="540" y2="0" class="axes" /><line x1="0" y1="-254" x2="0" y2="0" class="axes" /><text x="-2" y="-258" style="text-anchor:end;">грн.</text>
<use xlink:href="#hintbox" id="usebox" x="0" y="0" style="visibility:hidden;" />
</svg>
