<?xml version="1.0" encoding="UTF-8" standalone="no"?>
<!DOCTYPE svg PUBLIC "-//W3C//DTD SVG 1.1//EN" "http://www.w3.org/Graphics/SVG/1.1/DTD/svg11.dtd">
<svg version="1.1" xmlns="http://www.w3.org/2000/svg" xmlns:xlink="http://www.w3.org/1999/xlink" xmlns:ev="http://www.w3.org/2001/xml-events" width="723" height="330" viewBox="-48 -272 723 330" preserveAspectRatio="none">
<style type="text/css"><![CDATA[
line { stroke-width:1px; }
line.axes { stroke:#505050; }
line.grid { stroke:#D8D8D8; }
rect.bg { fill:#FFFFFF; }
text { font-family:arial,sans-serif; font-size:12px; fill:#000000; }
]]></style>
<defs>
<g id="hintbox"><rect x="0" y="0" width="77" height="34" style="stroke:#505050; stroke-width:1px; fill:rgba(255,255,255,0.87);" /><text id="hint0" x="4" y="14"> </text><text x="7" y="28"></text><text id="hint1" x="73" y="28" style="text-anchor:end;"> </text></g>
<g id="hintline"><line x1="0" y1="-240" x2="0" y2="0" class="axes" style="stroke-dasharray:2 1" /></g>
</defs>
<script><![CDATA[
function shb(x,y,dat) {
ar=dat.split(' '); for (i=0; i<ar.length; ++i) { if (i&&ar[i]) ar[i]+=' грн.'; h=document.getElementById('hint'+i); h.textContent=ar[i]; }
u=document.getElementById('usebox'); u.setAttribute('x',x); u.setAttribute('y',y); u.setAttribute('style','visibility:visible;'); }
function hhb() { u=document.getElementById('usebox'); u.setAttribute('style','visibility:hidden;'); u.setAttribute('x','0'); u.setAttribute('y','0'); }
function shl(x) { u=document.getElementById('useline'); u.setAttribute('x',x); u.setAttribute('style','visibility:visible;'); }
function hhl() { u=document.getElementById('useline'); u.setAttribute('style','visibility:hidden;'); u.setAttribute('x','0'); }
function sh(xl,xb,y,dat) { shl(xl); shb(xb,y,dat); }
function hh() { hhb(); hhl(); }
]]></script>
<rect x="-48" y="-272" width="723" height="330" class="bg" />
<line x1="17" y1="0" x2="17" y2="4" class="axes" /><text x="22" y="8" transform="rotate(-90,22,8)" style="text-anchor:end;">04.2017</text><line x1="44" y1="0" x2="44" y2="4" class="axes" /><text x="49" y="8" transform="rotate(-90,49,8)" style="text-anchor:end;">07.2017</text><line x1="71" y1="0" x2="71" y2="4" class="axes" /><text x="76" y="8" transform="rotate(-90,76,8)" style="text-anchor:end;">10.2017</text><line x1="98" y1="0" x2="98" y2="4" class="axes" /><text x="103" y="8" transform="rotate(-90,103,8)" style="text-anchor:end;">01.2018</text><line x1="125" y1="0" x2="125" y2="4" class="axes" /><text x="130" y="8" transform="rotate(-90,130,8)" style="text-anchor:end;">04.2018</text><line x1="152" y1="0" x2="152" y2="4" class="axes" /><text x="157" y="8" transform="rotate(-90,157,8)" style="text-anchor:end;">07.2018</text><line x1="179" y1="0" x2="179" y2="4" class="axes" /><text x="184" y="8" transform="rotate(-90,184,8)" style="text-anchor:end;">10.2018</text><line x1="206" y1="0" x2="206" y2="4" class="axes" /><text x="211" y="8" transform="rotate(-90,211,8)" style="text-anchor:end;">01.2019</text><line x1="233" y1="0" x2="233" y2="4" class="axes" /><text x="238" y="8" transform="rotate(-90,238,8)" style="text-anchor:end;">04.2019</text><line x1="269" y1="0" x2="269" y2="4" class="axes" /><text x="274" y="8" transform="rotate(-90,274,8)" style="text-anchor:end;">10.2019</text><line x1="296" y1="0" x2="296" y2="4" class="axes" /><text x="301" y="8" transform="rotate(-90,301,8)" style="text-anchor:end;">01.2020</text><line x1="323" y1="0" x2="323" y2="4" class="axes" /><text x="328" y="8" transform="rotate(-90,328,8)" style="text-anchor:end;">04.2020</text><line x1="350" y1="0" x2="350" y2="4" class="axes" /><text x="355" y="8" transform="rotate(-90,355,8)" style="text-anchor:end;">07.2020</text><line x1="377" y1="0" x2="377" y2="4" class="axes" /><text x="382" y="8" transform="rotate(-90,382,8)" style="text-anchor:end;">10.2020</text><line x1="404" y1="0" x2="404" y2="4" class="axes" /><text x="409" y="8" transform="rotate(-90,409,8)" style="text-anchor:end;">01.2021</text><line x1="431" y1="0" x2="431" y2="4" class="axes" /><text x="436" y="8" transform="rotate(-90,436,8)" style="text-anchor:end;">04.2021</text><line x1="458" y1="0" x2="458" y2="4" class="axes" /><text x="463" y="8" transform="rotate(-90,463,8)" style="text-anchor:end;">07.2021</text><line x1="485" y1="0" x2="485" y2="4" class="axes" /><text x="490" y="8" transform="rotate(-90,490,8)" style="text-anchor:end;">10.2021</text><line x1="512" y1="0" x2="512" y2="4" class="axes" /><text x="517" y="8" transform="rotate(-90,517,8)" style="text-anchor:end;">01.2022</text><line x1="539" y1="0" x2="539" y2="4" class="axes" /><text x="544" y="8" transform="rotate(-90,544,8)" style="text-anchor:end;">04.2022</text><line x1="584" y1="0" x2="584" y2="4" class="axes" /><text x="589" y="8" transform="rotate(-90,589,8)" style="text-anchor:end;">10.2022</text><line x1="611" y1="0" x2="611" y2="4" class="axes" /><text x="616" y="8" transform="rotate(-90,616,8)" style="text-anchor:end;">01.2023</text><line x1="638" y1="0" x2="638" y2="4" class="axes" /><text x="643" y="8" transform="rotate(-90,643,8)" style="text-anchor:end;">04.2023</text>
<line x1="0" y1="-20" x2="663" y2="-20" class="grid" /><line x1="0" y1="-20" x2="-4" y2="-20" class="axes" /><text x="-8" y="-16" style="text-anchor:end;">10</text><line x1="0" y1="-40" x2="663" y2="-40" class="grid" /><line x1="0" y1="-40" x2="-4" y2="-40" class="axes" /><text x="-8" y="-36" style="text-anchor:end;">20</text><line x1="0" y1="-60" x2="663" y2="-60" class="grid" /><line x1="0" y1="-60" x2="-4" y2="-60" class="axes" /><text x="-8" y="-56" style="text-anchor:end;">30</text><line x1="0" y1="-80" x2="663" y2="-80" class="grid" /><line x1="0" y1="-80" x2="-4" y2="-80" class="axes" /><text x="-8" y="-76" style="text-anchor:end;">40</text><line x1="0" y1="-100" x2="663" y2="-100" class="grid" /><line x1="0" y1="-100" x2="-4" y2="-100" class="axes" /><text x="-8" y="-96" style="text-anchor:end;">50</text><line x1="0" y1="-120" x2="663" y2="-120" class="grid" /><line x1="0" y1="-120" x2="-4" y2="-120" class="axes" /><text x="-8" y="-116" style="text-anchor:end;">60</text><line x1="0" y1="-140" x2="663" y2="-140" class="grid" /><line x1="0" y1="-140" x2="-4" y2="-140" class="axes" /><text x="-8" y="-136" style="text-anchor:end;">70</text><line x1="0" y1="-160" x2="663" y2="-160" class="grid" /><line x1="0" y1="-160" x2="-4" y2="-160" class="axes" /><text x="-8" y="-156" style="text-anchor:end;">80</text><line x1="0" y1="-180" x2="663" y2="-180" class="grid" /><line x1="0" y1="-180" x2="-4" y2="-180" class="axes" /><text x="-8" y="-176" style="text-anchor:end;">90</text><line x1="0" y1="-200" x2="663" y2="-200" class="grid" /><line x1="0" y1="-200" x2="-4" y2="-200" class="axes" /><text x="-8" y="-196" style="text-anchor:end;">100</text><line x1="0" y1="-220" x2="663" y2="-220" class="grid" /><line x1="0" y1="-220" x2="-4" y2="-220" class="axes" /><text x="-8" y="-216" style="text-anchor:end;">110</text><line x1="0" y1="-240" x2="663" y2="-240" class="grid" /><line x1="0" y1="-240" x2="-4" y2="-240" class="axes" /><text x="-8" y="-236" style="text-anchor:end;">120</text>
<use xlink:href="#hintline" id="useline" x="0" style="visibility:hidden;" />
<rect x="5" y="-240" width="6" height="240" style="fill:transparent;" onmouseover="sh(8,8,-246,'01.03.2017 25,83');" onmouseout="hh();" /><rect x="5" y="-52" width="6" height="52" style="fill:#0080C0;" onmouseover="sh(8,8,-246,'01.03.2017 25,83');" onmouseout="hh();" /><rect x="14" y="-240" width="6" height="240" style="fill:transparent;" onmouseover="sh(17,17,-246,'01.04.2017 28,81');" onmouseout="hh();" /><rect x="14" y="-58" width="6" height="58" style="fill:#0080C0;" onmouseover="sh(17,17,-246,'01.04.2017 28,81');" onmouseout="hh();" /><rect x="23" y="-240" width="6" height="240" style="fill:transparent;" onmouseover="sh(26,26,-246,'01.05.2017 71,46');" onmouseout="hh();" /><rect x="23" y="-143" width="6" height="143" style="fill:#0080C0;" onmouseover="sh(26,26,-246,'01.05.2017 71,46');" onmouseout="hh();" /><rect x="32" y="-240" width="6" height="240" style="fill:transparent;" onmouseover="sh(35,35,-246,'01.06.2017 73,80');" onmouseout="hh();" /><rect x="32" y="-148" width="6" height="148" style="fill:#0080C0;" onmouseover="sh(35,35,-246,'01.06.2017 73,80');" onmouseout="hh();" /><rect x="41" y="-240" width="6" height="240" style="fill:transparent;" onmouseover="sh(44,44,-246,'01.07.2017 70,36');" onmouseout="hh();" /><rect x="41" y="-141" width="6" height="141" style="fill:#0080C0;" onmouseover="sh(44,44,-246,'01.07.2017 70,36');" onmouseout="hh();" /><rect x="50" y="-240" width="6" height="240" style="fill:transparent;" onmouseover="sh(53,53,-246,'01.08.2017 57,90');" onmouseout="hh();" /><rect x="50" y="-116" width="6" height="116" style="fill:#0080C0;" onmouseover="sh(53,53,-246,'01.08.2017 57,90');" onmouseout="hh();" /><rect x="59" y="-240" width="6" height="240" style="fill:transparent;" onmouseover="sh(62,62,-246,'01.09.2017 54,47');" onmouseout="hh();" /><rect x="59" y="-109" width="6" height="109" style="fill:#0080C0;" onmouseover="sh(62,62,-246,'01.09.2017 54,47');" onmouseout="hh();" /><rect x="68" y="-240" width="6" height="240" style="fill:transparent;" onmouseover="sh(71,71,-246,'01.10.2017 34,87');" onmouseout="hh();" /><rect x="68" y="-70" width="6" height="70" style="fill:#0080C0;" onmouseover="sh(71,71,-246,'01.10.2017 34,87');" onmouseout="hh();" /><rect x="77" y="-240" width="6" height="240" style="fill:transparent;" onmouseover="sh(80,80,-246,'01.11.2017 27,66');" onmouseout="hh();" /><rect x="77" y="-55" width="6" height="55" style="fill:#0080C0;" onmouseover="sh(80,80,-246,'01.11.2017 27,66');" onmouseout="hh();" /><rect x="86" y="-240" width="6" height="240" style="fill:transparent;" onmouseover="sh(89,89,-246,'01.12.2017 30,83');" onmouseout="hh();" /><rect x="86" y="-62" width="6" height="62" style="fill:#0080C0;" onmouseover="sh(89,89,-246,'01.12.2017 30,83');" onmouseout="hh();" /><rect x="95" y="-240" width="6" height="240" style="fill:transparent;" onmouseover="sh(98,98,-246,'01.01.2018 36,26');" onmouseout="hh();" /><rect x="95" y="-73" width="6" height="73" style="fill:#0080C0;" onmouseover="sh(98,98,-246,'01.01.2018 36,26');" onmouseout="hh();" /><rect x="104" y="-240" width="6" height="240" style="fill:transparent;" onmouseover="sh(107,107,-246,'01.02.2018 37,17');" onmouseout="hh();" /><rect x="104" y="-74" width="6" height="74" style="fill:#0080C0;" onmouseover="sh(107,107,-246,'01.02.2018 37,17');" onmouseout="hh();" /><rect x="113" y="-240" width="6" height="240" style="fill:transparent;" onmouseover="sh(116,116,-246,'01.03.2018 35,41');" onmouseout="hh();" /><rect x="113" y="-71" width="6" height="71" style="fill:#0080C0;" onmouseover="sh(116,116,-246,'01.03.2018 35,41');" onmouseout="hh();" /><rect x="122" y="-240" width="6" height="240" style="fill:transparent;" onmouseover="sh(125,125,-246,'01.04.2018 38,16');" onmouseout="hh();" /><rect x="122" y="-76" width="6" height="76" style="fill:#0080C0;" onmouseover="sh(125,125,-246,'01.04.2018 38,16');" onmouseout="hh();" /><rect x="131" y="-240" width="6" height="240" style="fill:transparent;" onmouseover="sh(134,134,-246,'01.05.2018 45,87');" onmouseout="hh();" /><rect x="131" y="-92" width="6" height="92" style="fill:#0080C0;" onmouseover="sh(134,134,-246,'01.05.2018 45,87');" onmouseout="hh();" /><rect x="140" y="-240" width="6" height="240" style="fill:transparent;" onmouseover="sh(143,143,-246,'01.06.2018 48,63');" onmouseout="hh();" /><rect x="140" y="-97" width="6" height="97" style="fill:#0080C0;" onmouseover="sh(143,143,-246,'01.06.2018 48,63');" onmouseout="hh();" /><rect x="149" y="-240" width="6" height="240" style="fill:transparent;" onmouseover="sh(152,152,-246,'01.07.2018 54,24');" onmouseout="hh();" /><rect x="149" y="-108" width="6" height="108" style="fill:#0080C0;" onmouseover="sh(152,152,-246,'01.07.2018 54,24');" onmouseout="hh();" /><rect x="158" y="-240" width="6" height="240" style="fill:transparent;" onmouseover="sh(161,161,-246,'01.08.2018 56,48');" onmouseout="hh();" /><rect x="158" y="-113" width="6" height="113" style="fill:#0080C0;" onmouseover="sh(161,161,-246,'01.08.2018 56,48');" onmouseout="hh();" /><rect x="167" y="-240" width="6" height="240" style="fill:transparent;" onmouseover="sh(170,170,-246,'01.09.2018 59,56');" onmouseout="hh();" /><rect x="167" y="-119" width="6" height="119" style="fill:#0080C0;" onmouseover="sh(170,170,-246,'01.09.2018 59,56');" onmouseout="hh();" /><rect x="176" y="-240" width="6" height="240" style="fill:transparent;" onmouseover="sh(179,179,-246,'01.10.2018 28,97');" onmouseout="hh();" /><rect x="176" y="-58" width="6" height="58" style="fill:#0080C0;" onmouseover="sh(179,179,-246,'01.10.2018 28,97');" onmouseout="hh();" /><rect x="185" y="-240" width="6" height="240" style="fill:transparent;" onmouseover="sh(188,188,-246,'01.11.2018 25,55');" onmouseout="hh();" /><rect x="185" y="-51" width="6" height="51" style="fill:#0080C0;" onmouseover="sh(188,188,-246,'01.11.2018 25,55');" onmouseout="hh();" /><rect x="194" y="-240" width="6" height="240" style="fill:transparent;" onmouseover="sh(197,197,-246,'01.12.2018 29,61');" onmouseout="hh();" /><rect x="194" y="-59" width="6" height="59" style="fill:#0080C0;" onmouseover="sh(197,197,-246,'01.12.2018 29,61');" onmouseout="hh();" /><rect x="203" y="-240" width="6" height="240" style="fill:transparent;" onmouseover="sh(206,206,-246,'01.01.2019 37,01');" onmouseout="hh();" /><rect x="203" y="-74" width="6" height="74" style="fill:#0080C0;" onmouseover="sh(206,206,-246,'01.01.2019 37,01');" onmouseout="hh();" /><rect x="212" y="-240" width="6" height="240" style="fill:transparent;" onmouseover="sh(215,215,-246,'01.02.2019 31,98');" onmouseout="hh();" /><rect x="212" y="-64" width="6" height="64" style="fill:#0080C0;" onmouseover="sh(215,215,-246,'01.02.2019 31,98');" onmouseout="hh();" /><rect x="221" y="-240" width="6" height="240" style="fill:transparent;" onmouseover="sh(224,224,-246,'01.03.2019 31,88');" onmouseout="hh();" /><rect x="221" y="-64" width="6" height="64" style="fill:#0080C0;" onmouseover="sh(224,224,-246,'01.03.2019 31,88');" onmouseout="hh();" /><rect x="230" y="-240" width="6" height="240" style="fill:transparent;" onmouseover="sh(233,233,-246,'01.04.2019 34,56');" onmouseout="hh();" /><rect x="230" y="-69" width="6" height="69" style="fill:#0080C0;" onmouseover="sh(233,233,-246,'01.04.2019 34,56');" onmouseout="hh();" /><rect x="239" y="-240" width="6" height="240" style="fill:transparent;" onmouseover="sh(242,242,-246,'01.05.2019 39,90');" onmouseout="hh();" /><rect x="239" y="-80" width="6" height="80" style="fill:#0080C0;" onmouseover="sh(242,242,-246,'01.05.2019 39,90');" onmouseout="hh();" /><rect x="248" y="-240" width="6" height="240" style="fill:transparent;" onmouseover="sh(251,251,-246,'01.06.2019 39,90');" onmouseout="hh();" /><rect x="248" y="-80" width="6" height="80" style="fill:#0080C0;" onmouseover="sh(251,251,-246,'01.06.2019 39,90');" onmouseout="hh();" /><rect x="257" y="-240" width="6" height="240" style="fill:transparent;" onmouseover="sh(260,260,-246,'01.09.2019 69,88');" onmouseout="hh();" /><rect x="257" y="-140" width="6" height="140" style="fill:#0080C0;" onmouseover="sh(260,260,-246,'01.09.2019 69,88');" onmouseout="hh();" /><rect x="266" y="-240" width="6" height="240" style="fill:transparent;" onmouseover="sh(269,269,-246,'01.10.2019 31,33');" onmouseout="hh();" /><rect x="266" y="-63" width="6" height="63" style="fill:#0080C0;" onmouseover="sh(269,269,-246,'01.10.2019 31,33');" onmouseout="hh();" /><rect x="275" y="-240" width="6" height="240" style="fill:transparent;" onmouseover="sh(278,278,-246,'01.11.2019 24,56');" onmouseout="hh();" /><rect x="275" y="-49" width="6" height="49" style="fill:#0080C0;" onmouseover="sh(278,278,-246,'01.11.2019 24,56');" onmouseout="hh();" /><rect x="284" y="-240" width="6" height="240" style="fill:transparent;" onmouseover="sh(287,287,-246,'01.12.2019 26,64');" onmouseout="hh();" /><rect x="284" y="-53" width="6" height="53" style="fill:#0080C0;" onmouseover="sh(287,287,-246,'01.12.2019 26,64');" onmouseout="hh();" /><rect x="293" y="-240" width="6" height="240" style="fill:transparent;" onmouseover="sh(296,296,-246,'01.01.2020 32,30');" onmouseout="hh();" /><rect x="293" y="-65" width="6" height="65" style="fill:#0080C0;" onmouseover="sh(296,296,-246,'01.01.2020 32,30');" onmouseout="hh();" /><rect x="302" y="-240" width="6" height="240" style="fill:transparent;" onmouseover="sh(305,305,-246,'01.02.2020 30,13');" onmouseout="hh();" /><rect x="302" y="-60" width="6" height="60" style="fill:#0080C0;" onmouseover="sh(305,305,-246,'01.02.2020 30,13');" onmouseout="hh();" /><rect x="311" y="-240" width="6" height="240" style="fill:transparent;" onmouseover="sh(314,314,-246,'01.03.2020 28,83');" onmouseout="hh();" /><rect x="311" y="-58" width="6" height="58" style="fill:#0080C0;" onmouseover="sh(314,314,-246,'01.03.2020 28,83');" onmouseout="hh();" /><rect x="320" y="-240" width="6" height="240" style="fill:transparent;" onmouseover="sh(323,323,-246,'01.04.2020 34,53');" onmouseout="hh();" /><rect x="320" y="-69" width="6" height="69" style="fill:#0080C0;" onmouseover="sh(323,323,-246,'01.04.2020 34,53');" onmouseout="hh();" /><rect x="329" y="-240" width="6" height="240" style="fill:transparent;" onmouseover="sh(332,332,-246,'01.05.2020 62,45');" onmouseout="hh();" /><rect x="329" y="-125" width="6" height="125" style="fill:#0080C0;" onmouseover="sh(332,332,-246,'01.05.2020 62,45');" onmouseout="hh();" /><rect x="338" y="-240" width="6" height="240" style="fill:transparent;" onmouseover="sh(341,341,-246,'01.06.2020 78,45');" onmouseout="hh();" /><rect x="338" y="-157" width="6" height="157" style="fill:#0080C0;" onmouseover="sh(341,341,-246,'01.06.2020 78,45');" onmouseout="hh();" /><rect x="347" y="-240" width="6" height="240" style="fill:transparent;" onmouseover="sh(350,350,-246,'01.07.2020 75,26');" onmouseout="hh();" /><rect x="347" y="-151" width="6" height="151" style="fill:#0080C0;" onmouseover="sh(350,350,-246,'01.07.2020 75,26');" onmouseout="hh();" /><rect x="356" y="-240" width="6" height="240" style="fill:transparent;" onmouseover="sh(359,359,-246,'01.08.2020 73,66');" onmouseout="hh();" /><rect x="356" y="-147" width="6" height="147" style="fill:#0080C0;" onmouseover="sh(359,359,-246,'01.08.2020 73,66');" onmouseout="hh();" /><rect x="365" y="-240" width="6" height="240" style="fill:transparent;" onmouseover="sh(368,368,-246,'01.09.2020 67,80');" onmouseout="hh();" /><rect x="365" y="-136" width="6" height="136" style="fill:#0080C0;" onmouseover="sh(368,368,-246,'01.09.2020 67,80');" onmouseout="hh();" /><rect x="374" y="-240" width="6" height="240" style="fill:transparent;" onmouseover="sh(377,377,-246,'01.10.2020 49,44');" onmouseout="hh();" /><rect x="374" y="-99" width="6" height="99" style="fill:#0080C0;" onmouseover="sh(377,377,-246,'01.10.2020 49,44');" onmouseout="hh();" /><rect x="383" y="-240" width="6" height="240" style="fill:transparent;" onmouseover="sh(386,386,-246,'01.11.2020 31,37');" onmouseout="hh();" /><rect x="383" y="-63" width="6" height="63" style="fill:#0080C0;" onmouseover="sh(386,386,-246,'01.11.2020 31,37');" onmouseout="hh();" /><rect x="392" y="-240" width="6" height="240" style="fill:transparent;" onmouseover="sh(395,395,-246,'01.12.2020 31,94');" onmouseout="hh();" /><rect x="392" y="-64" width="6" height="64" style="fill:#0080C0;" onmouseover="sh(395,395,-246,'01.12.2020 31,94');" onmouseout="hh();" /><rect x="401" y="-240" width="6" height="240" style="fill:transparent;" onmouseover="sh(404,404,-246,'01.01.2021 38,52');" onmouseout="hh();" /><rect x="401" y="-77" width="6" height="77" style="fill:#0080C0;" onmouseover="sh(404,404,-246,'01.01.2021 38,52');" onmouseout="hh();" /><rect x="410" y="-240" width="6" height="240" style="fill:transparent;" onmouseover="sh(413,413,-246,'01.02.2021 35,79');" onmouseout="hh();" /><rect x="410" y="-72" width="6" height="72" style="fill:#0080C0;" onmouseover="sh(413,413,-246,'01.02.2021 35,79');" onmouseout="hh();" /><rect x="419" y="-240" width="6" height="240" style="fill:transparent;" onmouseover="sh(422,422,-246,'01.03.2021 34,84');" onmouseout="hh();" /><rect x="419" y="-70" width="6" height="70" style="fill:#0080C0;" onmouseover="sh(422,422,-246,'01.03.2021 34,84');" onmouseout="hh();" /><rect x="428" y="-240" width="6" height="240" style="fill:transparent;" onmouseover="sh(431,431,-246,'01.04.2021 35,17');" onmouseout="hh();" /><rect x="428" y="-70" width="6" height="70" style="fill:#0080C0;" onmouseover="sh(431,431,-246,'01.04.2021 35,17');" onmouseout="hh();" /><rect x="437" y="-240" width="6" height="240" style="fill:transparent;" onmouseover="sh(440,440,-246,'01.05.2021 53,23');" onmouseout="hh();" /><rect x="437" y="-106" width="6" height="106" style="fill:#0080C0;" onmouseover="sh(440,440,-246,'01.05.2021 53,23');" onmouseout="hh();" /><rect x="446" y="-240" width="6" height="240" style="fill:transparent;" onmouseover="sh(449,449,-246,'01.06.2021 90,36');" onmouseout="hh();" /><rect x="446" y="-181" width="6" height="181" style="fill:#0080C0;" onmouseover="sh(449,449,-246,'01.06.2021 90,36');" onmouseout="hh();" /><rect x="455" y="-240" width="6" height="240" style="fill:transparent;" onmouseover="sh(458,458,-246,'01.07.2021 66,03');" onmouseout="hh();" /><rect x="455" y="-132" width="6" height="132" style="fill:#0080C0;" onmouseover="sh(458,458,-246,'01.07.2021 66,03');" onmouseout="hh();" /><rect x="464" y="-240" width="6" height="240" style="fill:transparent;" onmouseover="sh(467,467,-246,'01.08.2021 62,59');" onmouseout="hh();" /><rect x="464" y="-125" width="6" height="125" style="fill:#0080C0;" onmouseover="sh(467,467,-246,'01.08.2021 62,59');" onmouseout="hh();" /><rect x="473" y="-240" width="6" height="240" style="fill:transparent;" onmouseover="sh(476,476,-246,'01.09.2021 67,47');" onmouseout="hh();" /><rect x="473" y="-135" width="6" height="135" style="fill:#0080C0;" onmouseover="sh(476,476,-246,'01.09.2021 67,47');" onmouseout="hh();" /><rect x="482" y="-240" width="6" height="240" style="fill:transparent;" onmouseover="sh(485,485,-246,'01.10.2021 49,00');" onmouseout="hh();" /><rect x="482" y="-98" width="6" height="98" style="fill:#0080C0;" onmouseover="sh(485,485,-246,'01.10.2021 49,00');" onmouseout="hh();" /><rect x="491" y="-240" width="6" height="240" style="fill:transparent;" onmouseover="sh(494,494,-246,'01.11.2021 37,93');" onmouseout="hh();" /><rect x="491" y="-76" width="6" height="76" style="fill:#0080C0;" onmouseover="sh(494,494,-246,'01.11.2021 37,93');" onmouseout="hh();" /><rect x="500" y="-240" width="6" height="240" style="fill:transparent;" onmouseover="sh(503,503,-246,'01.12.2021 41,29');" onmouseout="hh();" /><rect x="500" y="-83" width="6" height="83" style="fill:#0080C0;" onmouseover="sh(503,503,-246,'01.12.2021 41,29');" onmouseout="hh();" /><rect x="509" y="-240" width="6" height="240" style="fill:transparent;" onmouseover="sh(512,512,-246,'01.01.2022 43,86');" onmouseout="hh();" /><rect x="509" y="-88" width="6" height="88" style="fill:#0080C0;" onmouseover="sh(512,512,-246,'01.01.2022 43,86');" onmouseout="hh();" /><rect x="518" y="-240" width="6" height="240" style="fill:transparent;" onmouseover="sh(521,521,-246,'01.02.2022 42,32');" onmouseout="hh();" /><rect x="518" y="-85" width="6" height="85" style="fill:#0080C0;" onmouseover="sh(521,521,-246,'01.02.2022 42,32');" onmouseout="hh();" /><rect x="527" y="-240" width="6" height="240" style="fill:transparent;" onmouseover="sh(530,530,-246,'01.03.2022 41,36');" onmouseout="hh();" /><rect x="527" y="-83" width="6" height="83" style="fill:#0080C0;" onmouseover="sh(530,530,-246,'01.03.2022 41,36');" onmouseout="hh();" /><rect x="536" y="-240" width="6" height="240" style="fill:transparent;" onmouseover="sh(539,539,-246,'01.04.2022 48,09');" onmouseout="hh();" /><rect x="536" y="-96" width="6" height="96" style="fill:#0080C0;" onmouseover="sh(539,539,-246,'01.04.2022 48,09');" onmouseout="hh();" /><rect x="545" y="-240" width="6" height="240" style="fill:transparent;" onmouseover="sh(548,548,-246,'01.05.2022 68,86');" onmouseout="hh();" /><rect x="545" y="-138" width="6" height="138" style="fill:#0080C0;" onmouseover="sh(548,548,-246,'01.05.2022 68,86');" onmouseout="hh();" /><rect x="554" y="-240" width="6" height="240" style="fill:transparent;" onmouseover="sh(557,557,-246,'01.06.2022 66,17');" onmouseout="hh();" /><rect x="554" y="-132" width="6" height="132" style="fill:#0080C0;" onmouseover="sh(557,557,-246,'01.06.2022 66,17');" onmouseout="hh();" /><rect x="563" y="-240" width="6" height="240" style="fill:transparent;" onmouseover="sh(566,566,-246,'01.08.2022 84,38');" onmouseout="hh();" /><rect x="563" y="-169" width="6" height="169" style="fill:#0080C0;" onmouseover="sh(566,566,-246,'01.08.2022 84,38');" onmouseout="hh();" /><rect x="572" y="-240" width="6" height="240" style="fill:transparent;" onmouseover="sh(575,575,-246,'01.09.2022 97,95');" onmouseout="hh();" /><rect x="572" y="-196" width="6" height="196" style="fill:#0080C0;" onmouseover="sh(575,575,-246,'01.09.2022 97,95');" onmouseout="hh();" /><rect x="581" y="-240" width="6" height="240" style="fill:transparent;" onmouseover="sh(584,584,-246,'01.10.2022 100,97');" onmouseout="hh();" /><rect x="581" y="-202" width="6" height="202" style="fill:#0080C0;" onmouseover="sh(584,584,-246,'01.10.2022 100,97');" onmouseout="hh();" /><rect x="590" y="-240" width="6" height="240" style="fill:transparent;" onmouseover="sh(593,593,-246,'01.11.2022 70,73');" onmouseout="hh();" /><rect x="590" y="-141" width="6" height="141" style="fill:#0080C0;" onmouseover="sh(593,593,-246,'01.11.2022 70,73');" onmouseout="hh();" /><rect x="599" y="-240" width="6" height="240" style="fill:transparent;" onmouseover="sh(602,596,-246,'01.12.2022 62,00');" onmouseout="hh();" /><rect x="599" y="-124" width="6" height="124" style="fill:#0080C0;" onmouseover="sh(602,596,-246,'01.12.2022 62,00');" onmouseout="hh();" /><rect x="608" y="-240" width="6" height="240" style="fill:transparent;" onmouseover="sh(611,596,-246,'01.01.2023 68,07');" onmouseout="hh();" /><rect x="608" y="-136" width="6" height="136" style="fill:#0080C0;" onmouseover="sh(611,596,-246,'01.01.2023 68,07');" onmouseout="hh();" /><rect x="617" y="-240" width="6" height="240" style="fill:transparent;" onmouseover="sh(620,596,-246,'01.02.2023 72,40');" onmouseout="hh();" /><rect x="617" y="-145" width="6" height="145" style="fill:#0080C0;" onmouseover="sh(620,596,-246,'01.02.2023 72,40');" onmouseout="hh();" /><rect x="626" y="-240" width="6" height="240" style="fill:transparent;" onmouseover="sh(629,596,-246,'01.03.2023 72,97');" onmouseout="hh();" /><rect x="626" y="-146" width="6" height="146" style="fill:#0080C0;" onmouseover="sh(629,596,-246,'01.03.2023 72,97');" onmouseout="hh();" /><rect x="635" y="-240" width="6" height="240" style="fill:transparent;" onmouseover="sh(638,596,-246,'01.04.2023 84,05');" onmouseout="hh();" /><rect x="635" y="-168" width="6" height="168" style="fill:#0080C0;" onmouseover="sh(638,596,-246,'01.04.2023 84,05');" onmouseout="hh();" /><rect x="644" y="-240" width="6" height="240" style="fill:transparent;" onmouseover="sh(647,596,-246,'01.05.2023 87,46');" onmouseout="hh();" /><rect x="644" y="-175" width="6" height="175" style="fill:#0080C0;" onmouseover="sh(647,596,-246,'01.05.2023 87,46');" onmouseout="hh();" /><rect x="653" y="-240" width="6" height="240" style="fill:transparent;" onmouseover="sh(656,596,-246,'01.06.2023 88,38');" onmouseout="hh();" /><rect x="653" y="-177" width="6" height="177" style="fill:#0080C0;" onmouseover="sh(656,596,-246,'01.06.2023 88,38');" onmouseout="hh();" />
<line x1="-6" y1="0" x2="666" y2="0" class="axes" /><line x1="0" y1="-256" x2="0" y2="0" class="axes" /><text x="-2" y="-260" style="text-anchor:end;">грн.</text>
<use xlink:href="#hintbox" id="usebox" x="0" y="0" style="visibility:hidden;" />
</svg>
