<?xml version="1.0" encoding="UTF-8" standalone="no"?>
<!DOCTYPE svg PUBLIC "-//W3C//DTD SVG 1.1//EN" "http://www.w3.org/Graphics/SVG/1.1/DTD/svg11.dtd">
<svg version="1.1" xmlns="http://www.w3.org/2000/svg" xmlns:xlink="http://www.w3.org/1999/xlink" xmlns:ev="http://www.w3.org/2001/xml-events" width="750" height="330" viewBox="-48 -272 750 330" preserveAspectRatio="none">
<style type="text/css"><![CDATA[
line { stroke-width:1px; }
line.axes { stroke:#505050; }
line.grid { stroke:#D8D8D8; }
rect.bg { fill:#FFFFFF; }
text { font-family:arial,sans-serif; font-size:12px; fill:#000000; }
]]></style>
<defs>
<g id="hintbox"><rect x="0" y="0" width="77" height="34" style="stroke:#505050; stroke-width:1px; fill:rgba(255,255,255,0.87);" /><text id="hint0" x="4" y="14"> </text><text x="7" y="28"></text><text id="hint1" x="73" y="28" style="text-anchor:end;"> </text></g>
<g id="hintline"><line x1="0" y1="-242" x2="0" y2="0" class="axes" style="stroke-dasharray:2 1" /></g>
</defs>
<script><![CDATA[
function shb(x,y,dat) {
ar=dat.split(' '); for (i=0; i<ar.length; ++i) { if (i&&ar[i]) ar[i]+=' грн.'; h=document.getElementById('hint'+i); h.textContent=ar[i]; }
u=document.getElementById('usebox'); u.setAttribute('x',x); u.setAttribute('y',y); u.setAttribute('style','visibility:visible;'); }
function hhb() { u=document.getElementById('usebox'); u.setAttribute('style','visibility:hidden;'); u.setAttribute('x','0'); u.setAttribute('y','0'); }
function shl(x) { u=document.getElementById('useline'); u.setAttribute('x',x); u.setAttribute('style','visibility:visible;'); }
function hhl() { u=document.getElementById('useline'); u.setAttribute('style','visibility:hidden;'); u.setAttribute('x','0'); }
function sh(xl,xb,y,dat) { shl(xl); shb(xb,y,dat); }
function hh() { hhb(); hhl(); }
]]></script>
<rect x="-48" y="-272" width="750" height="330" class="bg" />
<line x1="17" y1="0" x2="17" y2="4" class="axes" /><text x="22" y="8" transform="rotate(-90,22,8)" style="text-anchor:end;">04.2017</text><line x1="44" y1="0" x2="44" y2="4" class="axes" /><text x="49" y="8" transform="rotate(-90,49,8)" style="text-anchor:end;">07.2017</text><line x1="71" y1="0" x2="71" y2="4" class="axes" /><text x="76" y="8" transform="rotate(-90,76,8)" style="text-anchor:end;">10.2017</text><line x1="98" y1="0" x2="98" y2="4" class="axes" /><text x="103" y="8" transform="rotate(-90,103,8)" style="text-anchor:end;">01.2018</text><line x1="125" y1="0" x2="125" y2="4" class="axes" /><text x="130" y="8" transform="rotate(-90,130,8)" style="text-anchor:end;">04.2018</text><line x1="152" y1="0" x2="152" y2="4" class="axes" /><text x="157" y="8" transform="rotate(-90,157,8)" style="text-anchor:end;">07.2018</text><line x1="179" y1="0" x2="179" y2="4" class="axes" /><text x="184" y="8" transform="rotate(-90,184,8)" style="text-anchor:end;">10.2018</text><line x1="206" y1="0" x2="206" y2="4" class="axes" /><text x="211" y="8" transform="rotate(-90,211,8)" style="text-anchor:end;">01.2019</text><line x1="233" y1="0" x2="233" y2="4" class="axes" /><text x="238" y="8" transform="rotate(-90,238,8)" style="text-anchor:end;">04.2019</text><line x1="260" y1="0" x2="260" y2="4" class="axes" /><text x="265" y="8" transform="rotate(-90,265,8)" style="text-anchor:end;">07.2019</text><line x1="287" y1="0" x2="287" y2="4" class="axes" /><text x="292" y="8" transform="rotate(-90,292,8)" style="text-anchor:end;">10.2019</text><line x1="314" y1="0" x2="314" y2="4" class="axes" /><text x="319" y="8" transform="rotate(-90,319,8)" style="text-anchor:end;">01.2020</text><line x1="341" y1="0" x2="341" y2="4" class="axes" /><text x="346" y="8" transform="rotate(-90,346,8)" style="text-anchor:end;">04.2020</text><line x1="368" y1="0" x2="368" y2="4" class="axes" /><text x="373" y="8" transform="rotate(-90,373,8)" style="text-anchor:end;">07.2020</text><line x1="395" y1="0" x2="395" y2="4" class="axes" /><text x="400" y="8" transform="rotate(-90,400,8)" style="text-anchor:end;">10.2020</text><line x1="422" y1="0" x2="422" y2="4" class="axes" /><text x="427" y="8" transform="rotate(-90,427,8)" style="text-anchor:end;">01.2021</text><line x1="449" y1="0" x2="449" y2="4" class="axes" /><text x="454" y="8" transform="rotate(-90,454,8)" style="text-anchor:end;">04.2021</text><line x1="476" y1="0" x2="476" y2="4" class="axes" /><text x="481" y="8" transform="rotate(-90,481,8)" style="text-anchor:end;">07.2021</text><line x1="503" y1="0" x2="503" y2="4" class="axes" /><text x="508" y="8" transform="rotate(-90,508,8)" style="text-anchor:end;">10.2021</text><line x1="530" y1="0" x2="530" y2="4" class="axes" /><text x="535" y="8" transform="rotate(-90,535,8)" style="text-anchor:end;">01.2022</text><line x1="557" y1="0" x2="557" y2="4" class="axes" /><text x="562" y="8" transform="rotate(-90,562,8)" style="text-anchor:end;">04.2022</text><line x1="584" y1="0" x2="584" y2="4" class="axes" /><text x="589" y="8" transform="rotate(-90,589,8)" style="text-anchor:end;">07.2022</text><line x1="611" y1="0" x2="611" y2="4" class="axes" /><text x="616" y="8" transform="rotate(-90,616,8)" style="text-anchor:end;">10.2022</text><line x1="638" y1="0" x2="638" y2="4" class="axes" /><text x="643" y="8" transform="rotate(-90,643,8)" style="text-anchor:end;">01.2023</text><line x1="665" y1="0" x2="665" y2="4" class="axes" /><text x="670" y="8" transform="rotate(-90,670,8)" style="text-anchor:end;">04.2023</text>
<line x1="0" y1="-22" x2="690" y2="-22" class="grid" /><line x1="0" y1="-22" x2="-4" y2="-22" class="axes" /><text x="-8" y="-18" style="text-anchor:end;">15</text><line x1="0" y1="-44" x2="690" y2="-44" class="grid" /><line x1="0" y1="-44" x2="-4" y2="-44" class="axes" /><text x="-8" y="-40" style="text-anchor:end;">20</text><line x1="0" y1="-66" x2="690" y2="-66" class="grid" /><line x1="0" y1="-66" x2="-4" y2="-66" class="axes" /><text x="-8" y="-62" style="text-anchor:end;">25</text><line x1="0" y1="-88" x2="690" y2="-88" class="grid" /><line x1="0" y1="-88" x2="-4" y2="-88" class="axes" /><text x="-8" y="-84" style="text-anchor:end;">30</text><line x1="0" y1="-110" x2="690" y2="-110" class="grid" /><line x1="0" y1="-110" x2="-4" y2="-110" class="axes" /><text x="-8" y="-106" style="text-anchor:end;">35</text><line x1="0" y1="-132" x2="690" y2="-132" class="grid" /><line x1="0" y1="-132" x2="-4" y2="-132" class="axes" /><text x="-8" y="-128" style="text-anchor:end;">40</text><line x1="0" y1="-154" x2="690" y2="-154" class="grid" /><line x1="0" y1="-154" x2="-4" y2="-154" class="axes" /><text x="-8" y="-150" style="text-anchor:end;">45</text><line x1="0" y1="-176" x2="690" y2="-176" class="grid" /><line x1="0" y1="-176" x2="-4" y2="-176" class="axes" /><text x="-8" y="-172" style="text-anchor:end;">50</text><line x1="0" y1="-198" x2="690" y2="-198" class="grid" /><line x1="0" y1="-198" x2="-4" y2="-198" class="axes" /><text x="-8" y="-194" style="text-anchor:end;">55</text><line x1="0" y1="-220" x2="690" y2="-220" class="grid" /><line x1="0" y1="-220" x2="-4" y2="-220" class="axes" /><text x="-8" y="-216" style="text-anchor:end;">60</text><line x1="0" y1="-242" x2="690" y2="-242" class="grid" /><line x1="0" y1="-242" x2="-4" y2="-242" class="axes" /><text x="-8" y="-238" style="text-anchor:end;">65</text>
<use xlink:href="#hintline" id="useline" x="0" style="visibility:hidden;" />
<rect x="5" y="-242" width="6" height="242" style="fill:transparent;" onmouseover="sh(8,8,-248,'01.03.2017 26,41');" onmouseout="hh();" /><rect x="5" y="-72" width="6" height="72" style="fill:#0080C0;" onmouseover="sh(8,8,-248,'01.03.2017 26,41');" onmouseout="hh();" /><rect x="14" y="-242" width="6" height="242" style="fill:transparent;" onmouseover="sh(17,17,-248,'01.04.2017 26,13');" onmouseout="hh();" /><rect x="14" y="-71" width="6" height="71" style="fill:#0080C0;" onmouseover="sh(17,17,-248,'01.04.2017 26,13');" onmouseout="hh();" /><rect x="23" y="-242" width="6" height="242" style="fill:transparent;" onmouseover="sh(26,26,-248,'01.05.2017 26,07');" onmouseout="hh();" /><rect x="23" y="-71" width="6" height="71" style="fill:#0080C0;" onmouseover="sh(26,26,-248,'01.05.2017 26,07');" onmouseout="hh();" /><rect x="32" y="-242" width="6" height="242" style="fill:transparent;" onmouseover="sh(35,35,-248,'01.06.2017 26,02');" onmouseout="hh();" /><rect x="32" y="-70" width="6" height="70" style="fill:#0080C0;" onmouseover="sh(35,35,-248,'01.06.2017 26,02');" onmouseout="hh();" /><rect x="41" y="-242" width="6" height="242" style="fill:transparent;" onmouseover="sh(44,44,-248,'01.07.2017 25,77');" onmouseout="hh();" /><rect x="41" y="-69" width="6" height="69" style="fill:#0080C0;" onmouseover="sh(44,44,-248,'01.07.2017 25,77');" onmouseout="hh();" /><rect x="50" y="-242" width="6" height="242" style="fill:transparent;" onmouseover="sh(53,53,-248,'01.08.2017 25,70');" onmouseout="hh();" /><rect x="50" y="-69" width="6" height="69" style="fill:#0080C0;" onmouseover="sh(53,53,-248,'01.08.2017 25,70');" onmouseout="hh();" /><rect x="59" y="-242" width="6" height="242" style="fill:transparent;" onmouseover="sh(62,62,-248,'01.09.2017 26,49');" onmouseout="hh();" /><rect x="59" y="-73" width="6" height="73" style="fill:#0080C0;" onmouseover="sh(62,62,-248,'01.09.2017 26,49');" onmouseout="hh();" /><rect x="68" y="-242" width="6" height="242" style="fill:transparent;" onmouseover="sh(71,71,-248,'01.10.2017 25,03');" onmouseout="hh();" /><rect x="68" y="-66" width="6" height="66" style="fill:#0080C0;" onmouseover="sh(71,71,-248,'01.10.2017 25,03');" onmouseout="hh();" /><rect x="77" y="-242" width="6" height="242" style="fill:transparent;" onmouseover="sh(80,80,-248,'01.11.2017 27,00');" onmouseout="hh();" /><rect x="77" y="-75" width="6" height="75" style="fill:#0080C0;" onmouseover="sh(80,80,-248,'01.11.2017 27,00');" onmouseout="hh();" /><rect x="86" y="-242" width="6" height="242" style="fill:transparent;" onmouseover="sh(89,89,-248,'01.12.2017 27,22');" onmouseout="hh();" /><rect x="86" y="-76" width="6" height="76" style="fill:#0080C0;" onmouseover="sh(89,89,-248,'01.12.2017 27,22');" onmouseout="hh();" /><rect x="95" y="-242" width="6" height="242" style="fill:transparent;" onmouseover="sh(98,98,-248,'01.01.2018 24,82');" onmouseout="hh();" /><rect x="95" y="-65" width="6" height="65" style="fill:#0080C0;" onmouseover="sh(98,98,-248,'01.01.2018 24,82');" onmouseout="hh();" /><rect x="104" y="-242" width="6" height="242" style="fill:transparent;" onmouseover="sh(107,107,-248,'01.02.2018 26,81');" onmouseout="hh();" /><rect x="104" y="-74" width="6" height="74" style="fill:#0080C0;" onmouseover="sh(107,107,-248,'01.02.2018 26,81');" onmouseout="hh();" /><rect x="113" y="-242" width="6" height="242" style="fill:transparent;" onmouseover="sh(116,116,-248,'01.03.2018 25,92');" onmouseout="hh();" /><rect x="113" y="-70" width="6" height="70" style="fill:#0080C0;" onmouseover="sh(116,116,-248,'01.03.2018 25,92');" onmouseout="hh();" /><rect x="122" y="-242" width="6" height="242" style="fill:transparent;" onmouseover="sh(125,125,-248,'01.04.2018 27,26');" onmouseout="hh();" /><rect x="122" y="-76" width="6" height="76" style="fill:#0080C0;" onmouseover="sh(125,125,-248,'01.04.2018 27,26');" onmouseout="hh();" /><rect x="131" y="-242" width="6" height="242" style="fill:transparent;" onmouseover="sh(134,134,-248,'01.05.2018 28,02');" onmouseout="hh();" /><rect x="131" y="-79" width="6" height="79" style="fill:#0080C0;" onmouseover="sh(134,134,-248,'01.05.2018 28,02');" onmouseout="hh();" /><rect x="140" y="-242" width="6" height="242" style="fill:transparent;" onmouseover="sh(143,143,-248,'01.06.2018 27,81');" onmouseout="hh();" /><rect x="140" y="-78" width="6" height="78" style="fill:#0080C0;" onmouseover="sh(143,143,-248,'01.06.2018 27,81');" onmouseout="hh();" /><rect x="149" y="-242" width="6" height="242" style="fill:transparent;" onmouseover="sh(152,152,-248,'01.07.2018 27,02');" onmouseout="hh();" /><rect x="149" y="-75" width="6" height="75" style="fill:#0080C0;" onmouseover="sh(152,152,-248,'01.07.2018 27,02');" onmouseout="hh();" /><rect x="158" y="-242" width="6" height="242" style="fill:transparent;" onmouseover="sh(161,161,-248,'01.08.2018 27,29');" onmouseout="hh();" /><rect x="158" y="-76" width="6" height="76" style="fill:#0080C0;" onmouseover="sh(161,161,-248,'01.08.2018 27,29');" onmouseout="hh();" /><rect x="167" y="-242" width="6" height="242" style="fill:transparent;" onmouseover="sh(170,170,-248,'01.09.2018 27,67');" onmouseout="hh();" /><rect x="167" y="-78" width="6" height="78" style="fill:#0080C0;" onmouseover="sh(170,170,-248,'01.09.2018 27,67');" onmouseout="hh();" /><rect x="176" y="-242" width="6" height="242" style="fill:transparent;" onmouseover="sh(179,179,-248,'01.10.2018 26,74');" onmouseout="hh();" /><rect x="176" y="-74" width="6" height="74" style="fill:#0080C0;" onmouseover="sh(179,179,-248,'01.10.2018 26,74');" onmouseout="hh();" /><rect x="185" y="-242" width="6" height="242" style="fill:transparent;" onmouseover="sh(188,188,-248,'01.11.2018 28,52');" onmouseout="hh();" /><rect x="185" y="-82" width="6" height="82" style="fill:#0080C0;" onmouseover="sh(188,188,-248,'01.11.2018 28,52');" onmouseout="hh();" /><rect x="194" y="-242" width="6" height="242" style="fill:transparent;" onmouseover="sh(197,197,-248,'01.12.2018 29,51');" onmouseout="hh();" /><rect x="194" y="-86" width="6" height="86" style="fill:#0080C0;" onmouseover="sh(197,197,-248,'01.12.2018 29,51');" onmouseout="hh();" /><rect x="203" y="-242" width="6" height="242" style="fill:transparent;" onmouseover="sh(206,206,-248,'01.01.2019 31,19');" onmouseout="hh();" /><rect x="203" y="-93" width="6" height="93" style="fill:#0080C0;" onmouseover="sh(206,206,-248,'01.01.2019 31,19');" onmouseout="hh();" /><rect x="212" y="-242" width="6" height="242" style="fill:transparent;" onmouseover="sh(215,215,-248,'01.02.2019 31,67');" onmouseout="hh();" /><rect x="212" y="-95" width="6" height="95" style="fill:#0080C0;" onmouseover="sh(215,215,-248,'01.02.2019 31,67');" onmouseout="hh();" /><rect x="221" y="-242" width="6" height="242" style="fill:transparent;" onmouseover="sh(224,224,-248,'01.03.2019 31,03');" onmouseout="hh();" /><rect x="221" y="-93" width="6" height="93" style="fill:#0080C0;" onmouseover="sh(224,224,-248,'01.03.2019 31,03');" onmouseout="hh();" /><rect x="230" y="-242" width="6" height="242" style="fill:transparent;" onmouseover="sh(233,233,-248,'01.04.2019 31,46');" onmouseout="hh();" /><rect x="230" y="-94" width="6" height="94" style="fill:#0080C0;" onmouseover="sh(233,233,-248,'01.04.2019 31,46');" onmouseout="hh();" /><rect x="239" y="-242" width="6" height="242" style="fill:transparent;" onmouseover="sh(242,242,-248,'01.05.2019 31,73');" onmouseout="hh();" /><rect x="239" y="-96" width="6" height="96" style="fill:#0080C0;" onmouseover="sh(242,242,-248,'01.05.2019 31,73');" onmouseout="hh();" /><rect x="248" y="-242" width="6" height="242" style="fill:transparent;" onmouseover="sh(251,251,-248,'01.06.2019 32,07');" onmouseout="hh();" /><rect x="248" y="-97" width="6" height="97" style="fill:#0080C0;" onmouseover="sh(251,251,-248,'01.06.2019 32,07');" onmouseout="hh();" /><rect x="257" y="-242" width="6" height="242" style="fill:transparent;" onmouseover="sh(260,260,-248,'01.07.2019 32,12');" onmouseout="hh();" /><rect x="257" y="-97" width="6" height="97" style="fill:#0080C0;" onmouseover="sh(260,260,-248,'01.07.2019 32,12');" onmouseout="hh();" /><rect x="266" y="-242" width="6" height="242" style="fill:transparent;" onmouseover="sh(269,269,-248,'01.08.2019 31,54');" onmouseout="hh();" /><rect x="266" y="-95" width="6" height="95" style="fill:#0080C0;" onmouseover="sh(269,269,-248,'01.08.2019 31,54');" onmouseout="hh();" /><rect x="275" y="-242" width="6" height="242" style="fill:transparent;" onmouseover="sh(278,278,-248,'01.09.2019 32,85');" onmouseout="hh();" /><rect x="275" y="-101" width="6" height="101" style="fill:#0080C0;" onmouseover="sh(278,278,-248,'01.09.2019 32,85');" onmouseout="hh();" /><rect x="284" y="-242" width="6" height="242" style="fill:transparent;" onmouseover="sh(287,287,-248,'01.10.2019 33,06');" onmouseout="hh();" /><rect x="284" y="-101" width="6" height="101" style="fill:#0080C0;" onmouseover="sh(287,287,-248,'01.10.2019 33,06');" onmouseout="hh();" /><rect x="293" y="-242" width="6" height="242" style="fill:transparent;" onmouseover="sh(296,296,-248,'01.11.2019 33,05');" onmouseout="hh();" /><rect x="293" y="-101" width="6" height="101" style="fill:#0080C0;" onmouseover="sh(296,296,-248,'01.11.2019 33,05');" onmouseout="hh();" /><rect x="302" y="-242" width="6" height="242" style="fill:transparent;" onmouseover="sh(305,305,-248,'01.12.2019 33,44');" onmouseout="hh();" /><rect x="302" y="-103" width="6" height="103" style="fill:#0080C0;" onmouseover="sh(305,305,-248,'01.12.2019 33,44');" onmouseout="hh();" /><rect x="311" y="-242" width="6" height="242" style="fill:transparent;" onmouseover="sh(314,314,-248,'01.01.2020 35,46');" onmouseout="hh();" /><rect x="311" y="-112" width="6" height="112" style="fill:#0080C0;" onmouseover="sh(314,314,-248,'01.01.2020 35,46');" onmouseout="hh();" /><rect x="320" y="-242" width="6" height="242" style="fill:transparent;" onmouseover="sh(323,323,-248,'01.02.2020 37,00');" onmouseout="hh();" /><rect x="320" y="-119" width="6" height="119" style="fill:#0080C0;" onmouseover="sh(323,323,-248,'01.02.2020 37,00');" onmouseout="hh();" /><rect x="329" y="-242" width="6" height="242" style="fill:transparent;" onmouseover="sh(332,332,-248,'01.03.2020 36,98');" onmouseout="hh();" /><rect x="329" y="-119" width="6" height="119" style="fill:#0080C0;" onmouseover="sh(332,332,-248,'01.03.2020 36,98');" onmouseout="hh();" /><rect x="338" y="-242" width="6" height="242" style="fill:transparent;" onmouseover="sh(341,341,-248,'01.04.2020 36,88');" onmouseout="hh();" /><rect x="338" y="-118" width="6" height="118" style="fill:#0080C0;" onmouseover="sh(341,341,-248,'01.04.2020 36,88');" onmouseout="hh();" /><rect x="347" y="-242" width="6" height="242" style="fill:transparent;" onmouseover="sh(350,350,-248,'01.05.2020 37,10');" onmouseout="hh();" /><rect x="347" y="-119" width="6" height="119" style="fill:#0080C0;" onmouseover="sh(350,350,-248,'01.05.2020 37,10');" onmouseout="hh();" /><rect x="356" y="-242" width="6" height="242" style="fill:transparent;" onmouseover="sh(359,359,-248,'01.06.2020 36,78');" onmouseout="hh();" /><rect x="356" y="-118" width="6" height="118" style="fill:#0080C0;" onmouseover="sh(359,359,-248,'01.06.2020 36,78');" onmouseout="hh();" /><rect x="365" y="-242" width="6" height="242" style="fill:transparent;" onmouseover="sh(368,368,-248,'01.07.2020 35,94');" onmouseout="hh();" /><rect x="365" y="-114" width="6" height="114" style="fill:#0080C0;" onmouseover="sh(368,368,-248,'01.07.2020 35,94');" onmouseout="hh();" /><rect x="374" y="-242" width="6" height="242" style="fill:transparent;" onmouseover="sh(377,377,-248,'01.08.2020 35,88');" onmouseout="hh();" /><rect x="374" y="-114" width="6" height="114" style="fill:#0080C0;" onmouseover="sh(377,377,-248,'01.08.2020 35,88');" onmouseout="hh();" /><rect x="383" y="-242" width="6" height="242" style="fill:transparent;" onmouseover="sh(386,386,-248,'01.09.2020 36,72');" onmouseout="hh();" /><rect x="383" y="-118" width="6" height="118" style="fill:#0080C0;" onmouseover="sh(386,386,-248,'01.09.2020 36,72');" onmouseout="hh();" /><rect x="392" y="-242" width="6" height="242" style="fill:transparent;" onmouseover="sh(395,395,-248,'01.10.2020 36,88');" onmouseout="hh();" /><rect x="392" y="-118" width="6" height="118" style="fill:#0080C0;" onmouseover="sh(395,395,-248,'01.10.2020 36,88');" onmouseout="hh();" /><rect x="401" y="-242" width="6" height="242" style="fill:transparent;" onmouseover="sh(404,404,-248,'01.11.2020 37,56');" onmouseout="hh();" /><rect x="401" y="-121" width="6" height="121" style="fill:#0080C0;" onmouseover="sh(404,404,-248,'01.11.2020 37,56');" onmouseout="hh();" /><rect x="410" y="-242" width="6" height="242" style="fill:transparent;" onmouseover="sh(413,413,-248,'01.12.2020 35,45');" onmouseout="hh();" /><rect x="410" y="-112" width="6" height="112" style="fill:#0080C0;" onmouseover="sh(413,413,-248,'01.12.2020 35,45');" onmouseout="hh();" /><rect x="419" y="-242" width="6" height="242" style="fill:transparent;" onmouseover="sh(422,422,-248,'01.01.2021 38,56');" onmouseout="hh();" /><rect x="419" y="-126" width="6" height="126" style="fill:#0080C0;" onmouseover="sh(422,422,-248,'01.01.2021 38,56');" onmouseout="hh();" /><rect x="428" y="-242" width="6" height="242" style="fill:transparent;" onmouseover="sh(431,431,-248,'01.02.2021 38,65');" onmouseout="hh();" /><rect x="428" y="-126" width="6" height="126" style="fill:#0080C0;" onmouseover="sh(431,431,-248,'01.02.2021 38,65');" onmouseout="hh();" /><rect x="437" y="-242" width="6" height="242" style="fill:transparent;" onmouseover="sh(440,440,-248,'01.03.2021 38,32');" onmouseout="hh();" /><rect x="437" y="-125" width="6" height="125" style="fill:#0080C0;" onmouseover="sh(440,440,-248,'01.03.2021 38,32');" onmouseout="hh();" /><rect x="446" y="-242" width="6" height="242" style="fill:transparent;" onmouseover="sh(449,449,-248,'01.04.2021 37,04');" onmouseout="hh();" /><rect x="446" y="-119" width="6" height="119" style="fill:#0080C0;" onmouseover="sh(449,449,-248,'01.04.2021 37,04');" onmouseout="hh();" /><rect x="455" y="-242" width="6" height="242" style="fill:transparent;" onmouseover="sh(458,458,-248,'01.05.2021 39,65');" onmouseout="hh();" /><rect x="455" y="-130" width="6" height="130" style="fill:#0080C0;" onmouseover="sh(458,458,-248,'01.05.2021 39,65');" onmouseout="hh();" /><rect x="464" y="-242" width="6" height="242" style="fill:transparent;" onmouseover="sh(467,467,-248,'01.06.2021 36,37');" onmouseout="hh();" /><rect x="464" y="-116" width="6" height="116" style="fill:#0080C0;" onmouseover="sh(467,467,-248,'01.06.2021 36,37');" onmouseout="hh();" /><rect x="473" y="-242" width="6" height="242" style="fill:transparent;" onmouseover="sh(476,476,-248,'01.07.2021 36,46');" onmouseout="hh();" /><rect x="473" y="-116" width="6" height="116" style="fill:#0080C0;" onmouseover="sh(476,476,-248,'01.07.2021 36,46');" onmouseout="hh();" /><rect x="482" y="-242" width="6" height="242" style="fill:transparent;" onmouseover="sh(485,485,-248,'01.08.2021 37,53');" onmouseout="hh();" /><rect x="482" y="-121" width="6" height="121" style="fill:#0080C0;" onmouseover="sh(485,485,-248,'01.08.2021 37,53');" onmouseout="hh();" /><rect x="491" y="-242" width="6" height="242" style="fill:transparent;" onmouseover="sh(494,494,-248,'01.09.2021 37,30');" onmouseout="hh();" /><rect x="491" y="-120" width="6" height="120" style="fill:#0080C0;" onmouseover="sh(494,494,-248,'01.09.2021 37,30');" onmouseout="hh();" /><rect x="500" y="-242" width="6" height="242" style="fill:transparent;" onmouseover="sh(503,503,-248,'01.10.2021 37,31');" onmouseout="hh();" /><rect x="500" y="-120" width="6" height="120" style="fill:#0080C0;" onmouseover="sh(503,503,-248,'01.10.2021 37,31');" onmouseout="hh();" /><rect x="509" y="-242" width="6" height="242" style="fill:transparent;" onmouseover="sh(512,512,-248,'01.11.2021 37,82');" onmouseout="hh();" /><rect x="509" y="-122" width="6" height="122" style="fill:#0080C0;" onmouseover="sh(512,512,-248,'01.11.2021 37,82');" onmouseout="hh();" /><rect x="518" y="-242" width="6" height="242" style="fill:transparent;" onmouseover="sh(521,521,-248,'01.12.2021 41,04');" onmouseout="hh();" /><rect x="518" y="-137" width="6" height="137" style="fill:#0080C0;" onmouseover="sh(521,521,-248,'01.12.2021 41,04');" onmouseout="hh();" /><rect x="527" y="-242" width="6" height="242" style="fill:transparent;" onmouseover="sh(530,530,-248,'01.01.2022 42,94');" onmouseout="hh();" /><rect x="527" y="-145" width="6" height="145" style="fill:#0080C0;" onmouseover="sh(530,530,-248,'01.01.2022 42,94');" onmouseout="hh();" /><rect x="536" y="-242" width="6" height="242" style="fill:transparent;" onmouseover="sh(539,539,-248,'01.02.2022 42,85');" onmouseout="hh();" /><rect x="536" y="-145" width="6" height="145" style="fill:#0080C0;" onmouseover="sh(539,539,-248,'01.02.2022 42,85');" onmouseout="hh();" /><rect x="545" y="-242" width="6" height="242" style="fill:transparent;" onmouseover="sh(548,548,-248,'01.03.2022 41,90');" onmouseout="hh();" /><rect x="545" y="-140" width="6" height="140" style="fill:#0080C0;" onmouseover="sh(548,548,-248,'01.03.2022 41,90');" onmouseout="hh();" /><rect x="554" y="-242" width="6" height="242" style="fill:transparent;" onmouseover="sh(557,557,-248,'01.04.2022 43,21');" onmouseout="hh();" /><rect x="554" y="-146" width="6" height="146" style="fill:#0080C0;" onmouseover="sh(557,557,-248,'01.04.2022 43,21');" onmouseout="hh();" /><rect x="563" y="-242" width="6" height="242" style="fill:transparent;" onmouseover="sh(566,566,-248,'01.05.2022 43,04');" onmouseout="hh();" /><rect x="563" y="-145" width="6" height="145" style="fill:#0080C0;" onmouseover="sh(566,566,-248,'01.05.2022 43,04');" onmouseout="hh();" /><rect x="572" y="-242" width="6" height="242" style="fill:transparent;" onmouseover="sh(575,575,-248,'01.06.2022 38,40');" onmouseout="hh();" /><rect x="572" y="-125" width="6" height="125" style="fill:#0080C0;" onmouseover="sh(575,575,-248,'01.06.2022 38,40');" onmouseout="hh();" /><rect x="581" y="-242" width="6" height="242" style="fill:transparent;" onmouseover="sh(584,584,-248,'01.07.2022 37,83');" onmouseout="hh();" /><rect x="581" y="-122" width="6" height="122" style="fill:#0080C0;" onmouseover="sh(584,584,-248,'01.07.2022 37,83');" onmouseout="hh();" /><rect x="590" y="-242" width="6" height="242" style="fill:transparent;" onmouseover="sh(593,593,-248,'01.08.2022 39,45');" onmouseout="hh();" /><rect x="590" y="-130" width="6" height="130" style="fill:#0080C0;" onmouseover="sh(593,593,-248,'01.08.2022 39,45');" onmouseout="hh();" /><rect x="599" y="-242" width="6" height="242" style="fill:transparent;" onmouseover="sh(602,602,-248,'01.09.2022 45,06');" onmouseout="hh();" /><rect x="599" y="-154" width="6" height="154" style="fill:#0080C0;" onmouseover="sh(602,602,-248,'01.09.2022 45,06');" onmouseout="hh();" /><rect x="608" y="-242" width="6" height="242" style="fill:transparent;" onmouseover="sh(611,611,-248,'01.10.2022 53,16');" onmouseout="hh();" /><rect x="608" y="-190" width="6" height="190" style="fill:#0080C0;" onmouseover="sh(611,611,-248,'01.10.2022 53,16');" onmouseout="hh();" /><rect x="617" y="-242" width="6" height="242" style="fill:transparent;" onmouseover="sh(620,620,-248,'01.11.2022 50,31');" onmouseout="hh();" /><rect x="617" y="-177" width="6" height="177" style="fill:#0080C0;" onmouseover="sh(620,620,-248,'01.11.2022 50,31');" onmouseout="hh();" /><rect x="626" y="-242" width="6" height="242" style="fill:transparent;" onmouseover="sh(629,623,-248,'01.12.2022 54,38');" onmouseout="hh();" /><rect x="626" y="-195" width="6" height="195" style="fill:#0080C0;" onmouseover="sh(629,623,-248,'01.12.2022 54,38');" onmouseout="hh();" /><rect x="635" y="-242" width="6" height="242" style="fill:transparent;" onmouseover="sh(638,623,-248,'01.01.2023 55,67');" onmouseout="hh();" /><rect x="635" y="-201" width="6" height="201" style="fill:#0080C0;" onmouseover="sh(638,623,-248,'01.01.2023 55,67');" onmouseout="hh();" /><rect x="644" y="-242" width="6" height="242" style="fill:transparent;" onmouseover="sh(647,623,-248,'01.02.2023 57,96');" onmouseout="hh();" /><rect x="644" y="-211" width="6" height="211" style="fill:#0080C0;" onmouseover="sh(647,623,-248,'01.02.2023 57,96');" onmouseout="hh();" /><rect x="653" y="-242" width="6" height="242" style="fill:transparent;" onmouseover="sh(656,623,-248,'01.03.2023 59,25');" onmouseout="hh();" /><rect x="653" y="-217" width="6" height="217" style="fill:#0080C0;" onmouseover="sh(656,623,-248,'01.03.2023 59,25');" onmouseout="hh();" /><rect x="662" y="-242" width="6" height="242" style="fill:transparent;" onmouseover="sh(665,623,-248,'01.04.2023 59,80');" onmouseout="hh();" /><rect x="662" y="-219" width="6" height="219" style="fill:#0080C0;" onmouseover="sh(665,623,-248,'01.04.2023 59,80');" onmouseout="hh();" /><rect x="671" y="-242" width="6" height="242" style="fill:transparent;" onmouseover="sh(674,623,-248,'01.05.2023 57,46');" onmouseout="hh();" /><rect x="671" y="-209" width="6" height="209" style="fill:#0080C0;" onmouseover="sh(674,623,-248,'01.05.2023 57,46');" onmouseout="hh();" /><rect x="680" y="-242" width="6" height="242" style="fill:transparent;" onmouseover="sh(683,623,-248,'01.06.2023 52,21');" onmouseout="hh();" /><rect x="680" y="-186" width="6" height="186" style="fill:#0080C0;" onmouseover="sh(683,623,-248,'01.06.2023 52,21');" onmouseout="hh();" />
<line x1="-6" y1="0" x2="693" y2="0" class="axes" /><line x1="0" y1="-258" x2="0" y2="0" class="axes" /><text x="-2" y="-262" style="text-anchor:end;">грн.</text>
<use xlink:href="#hintbox" id="usebox" x="0" y="0" style="visibility:hidden;" />
</svg>
