<?xml version="1.0" encoding="UTF-8" standalone="no"?>
<!DOCTYPE svg PUBLIC "-//W3C//DTD SVG 1.1//EN" "http://www.w3.org/Graphics/SVG/1.1/DTD/svg11.dtd">
<svg version="1.1" xmlns="http://www.w3.org/2000/svg" xmlns:xlink="http://www.w3.org/1999/xlink" xmlns:ev="http://www.w3.org/2001/xml-events" width="678" height="330" viewBox="-48 -272 678 330" preserveAspectRatio="none">
<style type="text/css"><![CDATA[
line { stroke-width:1px; }
line.axes { stroke:#505050; }
line.grid { stroke:#D8D8D8; }
rect.bg { fill:#FFFFFF; }
text { font-family:arial,sans-serif; font-size:12px; fill:#000000; }
]]></style>
<defs>
<g id="hintbox"><rect x="0" y="0" width="77" height="34" style="stroke:#505050; stroke-width:1px; fill:rgba(255,255,255,0.87);" /><text id="hint0" x="4" y="14"> </text><text x="7" y="28"></text><text id="hint1" x="73" y="28" style="text-anchor:end;"> </text></g>
<g id="hintline"><line x1="0" y1="-242" x2="0" y2="0" class="axes" style="stroke-dasharray:2 1" /></g>
</defs>
<script><![CDATA[
function shb(x,y,dat) {
ar=dat.split(' '); for (i=0; i<ar.length; ++i) { if (i&&ar[i]) ar[i]+=' грн.'; h=document.getElementById('hint'+i); h.textContent=ar[i]; }
u=document.getElementById('usebox'); u.setAttribute('x',x); u.setAttribute('y',y); u.setAttribute('style','visibility:visible;'); }
function hhb() { u=document.getElementById('usebox'); u.setAttribute('style','visibility:hidden;'); u.setAttribute('x','0'); u.setAttribute('y','0'); }
function shl(x) { u=document.getElementById('useline'); u.setAttribute('x',x); u.setAttribute('style','visibility:visible;'); }
function hhl() { u=document.getElementById('useline'); u.setAttribute('style','visibility:hidden;'); u.setAttribute('x','0'); }
function sh(xl,xb,y,dat) { shl(xl); shb(xb,y,dat); }
function hh() { hhb(); hhl(); }
]]></script>
<rect x="-48" y="-272" width="678" height="330" class="bg" />
<line x1="26" y1="0" x2="26" y2="4" class="axes" /><text x="31" y="8" transform="rotate(-90,31,8)" style="text-anchor:end;">10.2017</text><line x1="53" y1="0" x2="53" y2="4" class="axes" /><text x="58" y="8" transform="rotate(-90,58,8)" style="text-anchor:end;">01.2018</text><line x1="80" y1="0" x2="80" y2="4" class="axes" /><text x="85" y="8" transform="rotate(-90,85,8)" style="text-anchor:end;">04.2018</text><line x1="107" y1="0" x2="107" y2="4" class="axes" /><text x="112" y="8" transform="rotate(-90,112,8)" style="text-anchor:end;">07.2018</text><line x1="134" y1="0" x2="134" y2="4" class="axes" /><text x="139" y="8" transform="rotate(-90,139,8)" style="text-anchor:end;">10.2018</text><line x1="161" y1="0" x2="161" y2="4" class="axes" /><text x="166" y="8" transform="rotate(-90,166,8)" style="text-anchor:end;">01.2019</text><line x1="188" y1="0" x2="188" y2="4" class="axes" /><text x="193" y="8" transform="rotate(-90,193,8)" style="text-anchor:end;">04.2019</text><line x1="215" y1="0" x2="215" y2="4" class="axes" /><text x="220" y="8" transform="rotate(-90,220,8)" style="text-anchor:end;">07.2019</text><line x1="242" y1="0" x2="242" y2="4" class="axes" /><text x="247" y="8" transform="rotate(-90,247,8)" style="text-anchor:end;">10.2019</text><line x1="269" y1="0" x2="269" y2="4" class="axes" /><text x="274" y="8" transform="rotate(-90,274,8)" style="text-anchor:end;">01.2020</text><line x1="296" y1="0" x2="296" y2="4" class="axes" /><text x="301" y="8" transform="rotate(-90,301,8)" style="text-anchor:end;">04.2020</text><line x1="323" y1="0" x2="323" y2="4" class="axes" /><text x="328" y="8" transform="rotate(-90,328,8)" style="text-anchor:end;">07.2020</text><line x1="350" y1="0" x2="350" y2="4" class="axes" /><text x="355" y="8" transform="rotate(-90,355,8)" style="text-anchor:end;">10.2020</text><line x1="377" y1="0" x2="377" y2="4" class="axes" /><text x="382" y="8" transform="rotate(-90,382,8)" style="text-anchor:end;">01.2021</text><line x1="404" y1="0" x2="404" y2="4" class="axes" /><text x="409" y="8" transform="rotate(-90,409,8)" style="text-anchor:end;">04.2021</text><line x1="431" y1="0" x2="431" y2="4" class="axes" /><text x="436" y="8" transform="rotate(-90,436,8)" style="text-anchor:end;">07.2021</text><line x1="458" y1="0" x2="458" y2="4" class="axes" /><text x="463" y="8" transform="rotate(-90,463,8)" style="text-anchor:end;">10.2021</text><line x1="485" y1="0" x2="485" y2="4" class="axes" /><text x="490" y="8" transform="rotate(-90,490,8)" style="text-anchor:end;">01.2022</text><line x1="512" y1="0" x2="512" y2="4" class="axes" /><text x="517" y="8" transform="rotate(-90,517,8)" style="text-anchor:end;">07.2022</text><line x1="539" y1="0" x2="539" y2="4" class="axes" /><text x="544" y="8" transform="rotate(-90,544,8)" style="text-anchor:end;">10.2022</text><line x1="566" y1="0" x2="566" y2="4" class="axes" /><text x="571" y="8" transform="rotate(-90,571,8)" style="text-anchor:end;">01.2023</text><line x1="593" y1="0" x2="593" y2="4" class="axes" /><text x="598" y="8" transform="rotate(-90,598,8)" style="text-anchor:end;">04.2023</text>
<line x1="0" y1="-22" x2="618" y2="-22" class="grid" /><line x1="0" y1="-22" x2="-4" y2="-22" class="axes" /><text x="-8" y="-18" style="text-anchor:end;">20</text><line x1="0" y1="-44" x2="618" y2="-44" class="grid" /><line x1="0" y1="-44" x2="-4" y2="-44" class="axes" /><text x="-8" y="-40" style="text-anchor:end;">40</text><line x1="0" y1="-66" x2="618" y2="-66" class="grid" /><line x1="0" y1="-66" x2="-4" y2="-66" class="axes" /><text x="-8" y="-62" style="text-anchor:end;">60</text><line x1="0" y1="-88" x2="618" y2="-88" class="grid" /><line x1="0" y1="-88" x2="-4" y2="-88" class="axes" /><text x="-8" y="-84" style="text-anchor:end;">80</text><line x1="0" y1="-110" x2="618" y2="-110" class="grid" /><line x1="0" y1="-110" x2="-4" y2="-110" class="axes" /><text x="-8" y="-106" style="text-anchor:end;">100</text><line x1="0" y1="-132" x2="618" y2="-132" class="grid" /><line x1="0" y1="-132" x2="-4" y2="-132" class="axes" /><text x="-8" y="-128" style="text-anchor:end;">120</text><line x1="0" y1="-154" x2="618" y2="-154" class="grid" /><line x1="0" y1="-154" x2="-4" y2="-154" class="axes" /><text x="-8" y="-150" style="text-anchor:end;">140</text><line x1="0" y1="-176" x2="618" y2="-176" class="grid" /><line x1="0" y1="-176" x2="-4" y2="-176" class="axes" /><text x="-8" y="-172" style="text-anchor:end;">160</text><line x1="0" y1="-198" x2="618" y2="-198" class="grid" /><line x1="0" y1="-198" x2="-4" y2="-198" class="axes" /><text x="-8" y="-194" style="text-anchor:end;">180</text><line x1="0" y1="-220" x2="618" y2="-220" class="grid" /><line x1="0" y1="-220" x2="-4" y2="-220" class="axes" /><text x="-8" y="-216" style="text-anchor:end;">200</text><line x1="0" y1="-242" x2="618" y2="-242" class="grid" /><line x1="0" y1="-242" x2="-4" y2="-242" class="axes" /><text x="-8" y="-238" style="text-anchor:end;">220</text>
<use xlink:href="#hintline" id="useline" x="0" style="visibility:hidden;" />
<rect x="5" y="-242" width="6" height="242" style="fill:transparent;" onmouseover="sh(8,8,-248,'01.08.2017 13,87');" onmouseout="hh();" /><rect x="5" y="-15" width="6" height="15" style="fill:#0080C0;" onmouseover="sh(8,8,-248,'01.08.2017 13,87');" onmouseout="hh();" /><rect x="14" y="-242" width="6" height="242" style="fill:transparent;" onmouseover="sh(17,17,-248,'01.09.2017 21,12');" onmouseout="hh();" /><rect x="14" y="-23" width="6" height="23" style="fill:#0080C0;" onmouseover="sh(17,17,-248,'01.09.2017 21,12');" onmouseout="hh();" /><rect x="23" y="-242" width="6" height="242" style="fill:transparent;" onmouseover="sh(26,26,-248,'01.10.2017 30,01');" onmouseout="hh();" /><rect x="23" y="-33" width="6" height="33" style="fill:#0080C0;" onmouseover="sh(26,26,-248,'01.10.2017 30,01');" onmouseout="hh();" /><rect x="32" y="-242" width="6" height="242" style="fill:transparent;" onmouseover="sh(35,35,-248,'01.11.2017 49,22');" onmouseout="hh();" /><rect x="32" y="-54" width="6" height="54" style="fill:#0080C0;" onmouseover="sh(35,35,-248,'01.11.2017 49,22');" onmouseout="hh();" /><rect x="41" y="-242" width="6" height="242" style="fill:transparent;" onmouseover="sh(44,44,-248,'01.12.2017 60,30');" onmouseout="hh();" /><rect x="41" y="-66" width="6" height="66" style="fill:#0080C0;" onmouseover="sh(44,44,-248,'01.12.2017 60,30');" onmouseout="hh();" /><rect x="50" y="-242" width="6" height="242" style="fill:transparent;" onmouseover="sh(53,53,-248,'01.01.2018 62,53');" onmouseout="hh();" /><rect x="50" y="-69" width="6" height="69" style="fill:#0080C0;" onmouseover="sh(53,53,-248,'01.01.2018 62,53');" onmouseout="hh();" /><rect x="59" y="-242" width="6" height="242" style="fill:transparent;" onmouseover="sh(62,62,-248,'01.02.2018 54,60');" onmouseout="hh();" /><rect x="59" y="-60" width="6" height="60" style="fill:#0080C0;" onmouseover="sh(62,62,-248,'01.02.2018 54,60');" onmouseout="hh();" /><rect x="68" y="-242" width="6" height="242" style="fill:transparent;" onmouseover="sh(71,71,-248,'01.03.2018 47,38');" onmouseout="hh();" /><rect x="68" y="-52" width="6" height="52" style="fill:#0080C0;" onmouseover="sh(71,71,-248,'01.03.2018 47,38');" onmouseout="hh();" /><rect x="77" y="-242" width="6" height="242" style="fill:transparent;" onmouseover="sh(80,80,-248,'01.04.2018 49,01');" onmouseout="hh();" /><rect x="77" y="-54" width="6" height="54" style="fill:#0080C0;" onmouseover="sh(80,80,-248,'01.04.2018 49,01');" onmouseout="hh();" /><rect x="86" y="-242" width="6" height="242" style="fill:transparent;" onmouseover="sh(89,89,-248,'01.05.2018 27,86');" onmouseout="hh();" /><rect x="86" y="-31" width="6" height="31" style="fill:#0080C0;" onmouseover="sh(89,89,-248,'01.05.2018 27,86');" onmouseout="hh();" /><rect x="95" y="-242" width="6" height="242" style="fill:transparent;" onmouseover="sh(98,98,-248,'01.06.2018 7,76');" onmouseout="hh();" /><rect x="95" y="-9" width="6" height="9" style="fill:#0080C0;" onmouseover="sh(98,98,-248,'01.06.2018 7,76');" onmouseout="hh();" /><rect x="104" y="-242" width="6" height="242" style="fill:transparent;" onmouseover="sh(107,107,-248,'01.07.2018 11,12');" onmouseout="hh();" /><rect x="104" y="-12" width="6" height="12" style="fill:#0080C0;" onmouseover="sh(107,107,-248,'01.07.2018 11,12');" onmouseout="hh();" /><rect x="113" y="-242" width="6" height="242" style="fill:transparent;" onmouseover="sh(116,116,-248,'01.08.2018 18,32');" onmouseout="hh();" /><rect x="113" y="-20" width="6" height="20" style="fill:#0080C0;" onmouseover="sh(116,116,-248,'01.08.2018 18,32');" onmouseout="hh();" /><rect x="122" y="-242" width="6" height="242" style="fill:transparent;" onmouseover="sh(125,125,-248,'01.09.2018 17,63');" onmouseout="hh();" /><rect x="122" y="-19" width="6" height="19" style="fill:#0080C0;" onmouseover="sh(125,125,-248,'01.09.2018 17,63');" onmouseout="hh();" /><rect x="131" y="-242" width="6" height="242" style="fill:transparent;" onmouseover="sh(134,134,-248,'01.10.2018 25,43');" onmouseout="hh();" /><rect x="131" y="-28" width="6" height="28" style="fill:#0080C0;" onmouseover="sh(134,134,-248,'01.10.2018 25,43');" onmouseout="hh();" /><rect x="140" y="-242" width="6" height="242" style="fill:transparent;" onmouseover="sh(143,143,-248,'01.11.2018 42,89');" onmouseout="hh();" /><rect x="140" y="-47" width="6" height="47" style="fill:#0080C0;" onmouseover="sh(143,143,-248,'01.11.2018 42,89');" onmouseout="hh();" /><rect x="149" y="-242" width="6" height="242" style="fill:transparent;" onmouseover="sh(152,152,-248,'01.12.2018 48,27');" onmouseout="hh();" /><rect x="149" y="-53" width="6" height="53" style="fill:#0080C0;" onmouseover="sh(152,152,-248,'01.12.2018 48,27');" onmouseout="hh();" /><rect x="158" y="-242" width="6" height="242" style="fill:transparent;" onmouseover="sh(161,161,-248,'01.01.2019 69,75');" onmouseout="hh();" /><rect x="158" y="-77" width="6" height="77" style="fill:#0080C0;" onmouseover="sh(161,161,-248,'01.01.2019 69,75');" onmouseout="hh();" /><rect x="167" y="-242" width="6" height="242" style="fill:transparent;" onmouseover="sh(170,170,-248,'01.02.2019 71,10');" onmouseout="hh();" /><rect x="167" y="-78" width="6" height="78" style="fill:#0080C0;" onmouseover="sh(170,170,-248,'01.02.2019 71,10');" onmouseout="hh();" /><rect x="176" y="-242" width="6" height="242" style="fill:transparent;" onmouseover="sh(179,179,-248,'01.03.2019 77,18');" onmouseout="hh();" /><rect x="176" y="-85" width="6" height="85" style="fill:#0080C0;" onmouseover="sh(179,179,-248,'01.03.2019 77,18');" onmouseout="hh();" /><rect x="185" y="-242" width="6" height="242" style="fill:transparent;" onmouseover="sh(188,188,-248,'01.04.2019 60,68');" onmouseout="hh();" /><rect x="185" y="-67" width="6" height="67" style="fill:#0080C0;" onmouseover="sh(188,188,-248,'01.04.2019 60,68');" onmouseout="hh();" /><rect x="194" y="-242" width="6" height="242" style="fill:transparent;" onmouseover="sh(197,197,-248,'01.05.2019 30,30');" onmouseout="hh();" /><rect x="194" y="-33" width="6" height="33" style="fill:#0080C0;" onmouseover="sh(197,197,-248,'01.05.2019 30,30');" onmouseout="hh();" /><rect x="203" y="-242" width="6" height="242" style="fill:transparent;" onmouseover="sh(206,206,-248,'01.06.2019 14,92');" onmouseout="hh();" /><rect x="203" y="-16" width="6" height="16" style="fill:#0080C0;" onmouseover="sh(206,206,-248,'01.06.2019 14,92');" onmouseout="hh();" /><rect x="212" y="-242" width="6" height="242" style="fill:transparent;" onmouseover="sh(215,215,-248,'01.07.2019 16,71');" onmouseout="hh();" /><rect x="212" y="-18" width="6" height="18" style="fill:#0080C0;" onmouseover="sh(215,215,-248,'01.07.2019 16,71');" onmouseout="hh();" /><rect x="221" y="-242" width="6" height="242" style="fill:transparent;" onmouseover="sh(224,224,-248,'01.08.2019 23,92');" onmouseout="hh();" /><rect x="221" y="-26" width="6" height="26" style="fill:#0080C0;" onmouseover="sh(224,224,-248,'01.08.2019 23,92');" onmouseout="hh();" /><rect x="230" y="-242" width="6" height="242" style="fill:transparent;" onmouseover="sh(233,233,-248,'01.09.2019 18,04');" onmouseout="hh();" /><rect x="230" y="-20" width="6" height="20" style="fill:#0080C0;" onmouseover="sh(233,233,-248,'01.09.2019 18,04');" onmouseout="hh();" /><rect x="239" y="-242" width="6" height="242" style="fill:transparent;" onmouseover="sh(242,242,-248,'01.10.2019 33,34');" onmouseout="hh();" /><rect x="239" y="-37" width="6" height="37" style="fill:#0080C0;" onmouseover="sh(242,242,-248,'01.10.2019 33,34');" onmouseout="hh();" /><rect x="248" y="-242" width="6" height="242" style="fill:transparent;" onmouseover="sh(251,251,-248,'01.11.2019 43,47');" onmouseout="hh();" /><rect x="248" y="-48" width="6" height="48" style="fill:#0080C0;" onmouseover="sh(251,251,-248,'01.11.2019 43,47');" onmouseout="hh();" /><rect x="257" y="-242" width="6" height="242" style="fill:transparent;" onmouseover="sh(260,260,-248,'01.12.2019 55,95');" onmouseout="hh();" /><rect x="257" y="-62" width="6" height="62" style="fill:#0080C0;" onmouseover="sh(260,260,-248,'01.12.2019 55,95');" onmouseout="hh();" /><rect x="266" y="-242" width="6" height="242" style="fill:transparent;" onmouseover="sh(269,269,-248,'01.01.2020 70,79');" onmouseout="hh();" /><rect x="266" y="-78" width="6" height="78" style="fill:#0080C0;" onmouseover="sh(269,269,-248,'01.01.2020 70,79');" onmouseout="hh();" /><rect x="275" y="-242" width="6" height="242" style="fill:transparent;" onmouseover="sh(278,278,-248,'01.02.2020 79,88');" onmouseout="hh();" /><rect x="275" y="-88" width="6" height="88" style="fill:#0080C0;" onmouseover="sh(278,278,-248,'01.02.2020 79,88');" onmouseout="hh();" /><rect x="284" y="-242" width="6" height="242" style="fill:transparent;" onmouseover="sh(287,287,-248,'01.03.2020 67,81');" onmouseout="hh();" /><rect x="284" y="-75" width="6" height="75" style="fill:#0080C0;" onmouseover="sh(287,287,-248,'01.03.2020 67,81');" onmouseout="hh();" /><rect x="293" y="-242" width="6" height="242" style="fill:transparent;" onmouseover="sh(296,296,-248,'01.04.2020 40,52');" onmouseout="hh();" /><rect x="293" y="-45" width="6" height="45" style="fill:#0080C0;" onmouseover="sh(296,296,-248,'01.04.2020 40,52');" onmouseout="hh();" /><rect x="302" y="-242" width="6" height="242" style="fill:transparent;" onmouseover="sh(305,305,-248,'01.05.2020 44,50');" onmouseout="hh();" /><rect x="302" y="-49" width="6" height="49" style="fill:#0080C0;" onmouseover="sh(305,305,-248,'01.05.2020 44,50');" onmouseout="hh();" /><rect x="311" y="-242" width="6" height="242" style="fill:transparent;" onmouseover="sh(314,314,-248,'01.06.2020 35,66');" onmouseout="hh();" /><rect x="311" y="-39" width="6" height="39" style="fill:#0080C0;" onmouseover="sh(314,314,-248,'01.06.2020 35,66');" onmouseout="hh();" /><rect x="320" y="-242" width="6" height="242" style="fill:transparent;" onmouseover="sh(323,323,-248,'01.07.2020 28,82');" onmouseout="hh();" /><rect x="320" y="-32" width="6" height="32" style="fill:#0080C0;" onmouseover="sh(323,323,-248,'01.07.2020 28,82');" onmouseout="hh();" /><rect x="329" y="-242" width="6" height="242" style="fill:transparent;" onmouseover="sh(332,332,-248,'01.08.2020 30,63');" onmouseout="hh();" /><rect x="329" y="-34" width="6" height="34" style="fill:#0080C0;" onmouseover="sh(332,332,-248,'01.08.2020 30,63');" onmouseout="hh();" /><rect x="338" y="-242" width="6" height="242" style="fill:transparent;" onmouseover="sh(341,341,-248,'01.09.2020 26,77');" onmouseout="hh();" /><rect x="338" y="-29" width="6" height="29" style="fill:#0080C0;" onmouseover="sh(341,341,-248,'01.09.2020 26,77');" onmouseout="hh();" /><rect x="347" y="-242" width="6" height="242" style="fill:transparent;" onmouseover="sh(350,350,-248,'01.10.2020 22,73');" onmouseout="hh();" /><rect x="347" y="-25" width="6" height="25" style="fill:#0080C0;" onmouseover="sh(350,350,-248,'01.10.2020 22,73');" onmouseout="hh();" /><rect x="356" y="-242" width="6" height="242" style="fill:transparent;" onmouseover="sh(359,359,-248,'01.11.2020 49,47');" onmouseout="hh();" /><rect x="356" y="-54" width="6" height="54" style="fill:#0080C0;" onmouseover="sh(359,359,-248,'01.11.2020 49,47');" onmouseout="hh();" /><rect x="365" y="-242" width="6" height="242" style="fill:transparent;" onmouseover="sh(368,368,-248,'01.12.2020 53,58');" onmouseout="hh();" /><rect x="365" y="-59" width="6" height="59" style="fill:#0080C0;" onmouseover="sh(368,368,-248,'01.12.2020 53,58');" onmouseout="hh();" /><rect x="374" y="-242" width="6" height="242" style="fill:transparent;" onmouseover="sh(377,377,-248,'01.01.2021 91,35');" onmouseout="hh();" /><rect x="374" y="-100" width="6" height="100" style="fill:#0080C0;" onmouseover="sh(377,377,-248,'01.01.2021 91,35');" onmouseout="hh();" /><rect x="383" y="-242" width="6" height="242" style="fill:transparent;" onmouseover="sh(386,386,-248,'01.02.2021 89,75');" onmouseout="hh();" /><rect x="383" y="-99" width="6" height="99" style="fill:#0080C0;" onmouseover="sh(386,386,-248,'01.02.2021 89,75');" onmouseout="hh();" /><rect x="392" y="-242" width="6" height="242" style="fill:transparent;" onmouseover="sh(395,395,-248,'01.03.2021 77,81');" onmouseout="hh();" /><rect x="392" y="-86" width="6" height="86" style="fill:#0080C0;" onmouseover="sh(395,395,-248,'01.03.2021 77,81');" onmouseout="hh();" /><rect x="401" y="-242" width="6" height="242" style="fill:transparent;" onmouseover="sh(404,404,-248,'01.04.2021 61,96');" onmouseout="hh();" /><rect x="401" y="-68" width="6" height="68" style="fill:#0080C0;" onmouseover="sh(404,404,-248,'01.04.2021 61,96');" onmouseout="hh();" /><rect x="410" y="-242" width="6" height="242" style="fill:transparent;" onmouseover="sh(413,413,-248,'01.05.2021 36,83');" onmouseout="hh();" /><rect x="410" y="-41" width="6" height="41" style="fill:#0080C0;" onmouseover="sh(413,413,-248,'01.05.2021 36,83');" onmouseout="hh();" /><rect x="419" y="-242" width="6" height="242" style="fill:transparent;" onmouseover="sh(422,422,-248,'01.06.2021 20,81');" onmouseout="hh();" /><rect x="419" y="-23" width="6" height="23" style="fill:#0080C0;" onmouseover="sh(422,422,-248,'01.06.2021 20,81');" onmouseout="hh();" /><rect x="428" y="-242" width="6" height="242" style="fill:transparent;" onmouseover="sh(431,431,-248,'01.07.2021 16,66');" onmouseout="hh();" /><rect x="428" y="-18" width="6" height="18" style="fill:#0080C0;" onmouseover="sh(431,431,-248,'01.07.2021 16,66');" onmouseout="hh();" /><rect x="437" y="-242" width="6" height="242" style="fill:transparent;" onmouseover="sh(440,440,-248,'01.08.2021 13,55');" onmouseout="hh();" /><rect x="437" y="-15" width="6" height="15" style="fill:#0080C0;" onmouseover="sh(440,440,-248,'01.08.2021 13,55');" onmouseout="hh();" /><rect x="446" y="-242" width="6" height="242" style="fill:transparent;" onmouseover="sh(449,449,-248,'01.09.2021 16,56');" onmouseout="hh();" /><rect x="446" y="-18" width="6" height="18" style="fill:#0080C0;" onmouseover="sh(449,449,-248,'01.09.2021 16,56');" onmouseout="hh();" /><rect x="455" y="-242" width="6" height="242" style="fill:transparent;" onmouseover="sh(458,458,-248,'01.10.2021 36,08');" onmouseout="hh();" /><rect x="455" y="-40" width="6" height="40" style="fill:#0080C0;" onmouseover="sh(458,458,-248,'01.10.2021 36,08');" onmouseout="hh();" /><rect x="464" y="-242" width="6" height="242" style="fill:transparent;" onmouseover="sh(467,467,-248,'01.11.2021 55,04');" onmouseout="hh();" /><rect x="464" y="-61" width="6" height="61" style="fill:#0080C0;" onmouseover="sh(467,467,-248,'01.11.2021 55,04');" onmouseout="hh();" /><rect x="473" y="-242" width="6" height="242" style="fill:transparent;" onmouseover="sh(476,476,-248,'01.12.2021 50,98');" onmouseout="hh();" /><rect x="473" y="-56" width="6" height="56" style="fill:#0080C0;" onmouseover="sh(476,476,-248,'01.12.2021 50,98');" onmouseout="hh();" /><rect x="482" y="-242" width="6" height="242" style="fill:transparent;" onmouseover="sh(485,485,-248,'01.01.2022 70,49');" onmouseout="hh();" /><rect x="482" y="-78" width="6" height="78" style="fill:#0080C0;" onmouseover="sh(485,485,-248,'01.01.2022 70,49');" onmouseout="hh();" /><rect x="491" y="-242" width="6" height="242" style="fill:transparent;" onmouseover="sh(494,494,-248,'01.02.2022 79,85');" onmouseout="hh();" /><rect x="491" y="-88" width="6" height="88" style="fill:#0080C0;" onmouseover="sh(494,494,-248,'01.02.2022 79,85');" onmouseout="hh();" /><rect x="500" y="-242" width="6" height="242" style="fill:transparent;" onmouseover="sh(503,503,-248,'01.06.2022 58,14');" onmouseout="hh();" /><rect x="500" y="-64" width="6" height="64" style="fill:#0080C0;" onmouseover="sh(503,503,-248,'01.06.2022 58,14');" onmouseout="hh();" /><rect x="509" y="-242" width="6" height="242" style="fill:transparent;" onmouseover="sh(512,512,-248,'01.07.2022 36,09');" onmouseout="hh();" /><rect x="509" y="-40" width="6" height="40" style="fill:#0080C0;" onmouseover="sh(512,512,-248,'01.07.2022 36,09');" onmouseout="hh();" /><rect x="518" y="-242" width="6" height="242" style="fill:transparent;" onmouseover="sh(521,521,-248,'01.08.2022 32,64');" onmouseout="hh();" /><rect x="518" y="-36" width="6" height="36" style="fill:#0080C0;" onmouseover="sh(521,521,-248,'01.08.2022 32,64');" onmouseout="hh();" /><rect x="527" y="-242" width="6" height="242" style="fill:transparent;" onmouseover="sh(530,530,-248,'01.09.2022 66,23');" onmouseout="hh();" /><rect x="527" y="-73" width="6" height="73" style="fill:#0080C0;" onmouseover="sh(530,530,-248,'01.09.2022 66,23');" onmouseout="hh();" /><rect x="536" y="-242" width="6" height="242" style="fill:transparent;" onmouseover="sh(539,539,-248,'01.10.2022 77,68');" onmouseout="hh();" /><rect x="536" y="-85" width="6" height="85" style="fill:#0080C0;" onmouseover="sh(539,539,-248,'01.10.2022 77,68');" onmouseout="hh();" /><rect x="545" y="-242" width="6" height="242" style="fill:transparent;" onmouseover="sh(548,548,-248,'01.11.2022 77,91');" onmouseout="hh();" /><rect x="545" y="-86" width="6" height="86" style="fill:#0080C0;" onmouseover="sh(548,548,-248,'01.11.2022 77,91');" onmouseout="hh();" /><rect x="554" y="-242" width="6" height="242" style="fill:transparent;" onmouseover="sh(557,551,-248,'01.12.2022 66,95');" onmouseout="hh();" /><rect x="554" y="-74" width="6" height="74" style="fill:#0080C0;" onmouseover="sh(557,551,-248,'01.12.2022 66,95');" onmouseout="hh();" /><rect x="563" y="-242" width="6" height="242" style="fill:transparent;" onmouseover="sh(566,551,-248,'01.01.2023 78,75');" onmouseout="hh();" /><rect x="563" y="-87" width="6" height="87" style="fill:#0080C0;" onmouseover="sh(566,551,-248,'01.01.2023 78,75');" onmouseout="hh();" /><rect x="572" y="-242" width="6" height="242" style="fill:transparent;" onmouseover="sh(575,551,-248,'01.02.2023 119,48');" onmouseout="hh();" /><rect x="572" y="-131" width="6" height="131" style="fill:#0080C0;" onmouseover="sh(575,551,-248,'01.02.2023 119,48');" onmouseout="hh();" /><rect x="581" y="-242" width="6" height="242" style="fill:transparent;" onmouseover="sh(584,551,-248,'01.03.2023 139,15');" onmouseout="hh();" /><rect x="581" y="-153" width="6" height="153" style="fill:#0080C0;" onmouseover="sh(584,551,-248,'01.03.2023 139,15');" onmouseout="hh();" /><rect x="590" y="-242" width="6" height="242" style="fill:transparent;" onmouseover="sh(593,551,-248,'01.04.2023 184,63');" onmouseout="hh();" /><rect x="590" y="-203" width="6" height="203" style="fill:#0080C0;" onmouseover="sh(593,551,-248,'01.04.2023 184,63');" onmouseout="hh();" /><rect x="599" y="-242" width="6" height="242" style="fill:transparent;" onmouseover="sh(602,551,-248,'01.05.2023 102,91');" onmouseout="hh();" /><rect x="599" y="-113" width="6" height="113" style="fill:#0080C0;" onmouseover="sh(602,551,-248,'01.05.2023 102,91');" onmouseout="hh();" /><rect x="608" y="-242" width="6" height="242" style="fill:transparent;" onmouseover="sh(611,551,-248,'01.06.2023 79,88');" onmouseout="hh();" /><rect x="608" y="-88" width="6" height="88" style="fill:#0080C0;" onmouseover="sh(611,551,-248,'01.06.2023 79,88');" onmouseout="hh();" />
<line x1="-6" y1="0" x2="621" y2="0" class="axes" /><line x1="0" y1="-258" x2="0" y2="0" class="axes" /><text x="-2" y="-262" style="text-anchor:end;">грн.</text>
<use xlink:href="#hintbox" id="usebox" x="0" y="0" style="visibility:hidden;" />
</svg>
