<?xml version="1.0" encoding="UTF-8" standalone="no"?>
<!DOCTYPE svg PUBLIC "-//W3C//DTD SVG 1.1//EN" "http://www.w3.org/Graphics/SVG/1.1/DTD/svg11.dtd">
<svg version="1.1" xmlns="http://www.w3.org/2000/svg" xmlns:xlink="http://www.w3.org/1999/xlink" xmlns:ev="http://www.w3.org/2001/xml-events" width="309" height="330" viewBox="-48 -272 309 330" preserveAspectRatio="none">
<style type="text/css"><![CDATA[
line { stroke-width:1px; }
line.axes { stroke:#505050; }
line.grid { stroke:#D8D8D8; }
rect.bg { fill:#FFFFFF; }
text { font-family:arial,sans-serif; font-size:12px; fill:#000000; }
]]></style>
<defs>
<g id="hintbox"><rect x="0" y="0" width="77" height="34" style="stroke:#505050; stroke-width:1px; fill:rgba(255,255,255,0.87);" /><text id="hint0" x="4" y="14"> </text><text x="7" y="28"></text><text id="hint1" x="73" y="28" style="text-anchor:end;"> </text></g>
<g id="hintline"><line x1="0" y1="-240" x2="0" y2="0" class="axes" style="stroke-dasharray:2 1" /></g>
</defs>
<script><![CDATA[
function shb(x,y,dat) {
ar=dat.split(' '); for (i=0; i<ar.length; ++i) { if (i&&ar[i]) ar[i]+=' грн.'; h=document.getElementById('hint'+i); h.textContent=ar[i]; }
u=document.getElementById('usebox'); u.setAttribute('x',x); u.setAttribute('y',y); u.setAttribute('style','visibility:visible;'); }
function hhb() { u=document.getElementById('usebox'); u.setAttribute('style','visibility:hidden;'); u.setAttribute('x','0'); u.setAttribute('y','0'); }
function shl(x) { u=document.getElementById('useline'); u.setAttribute('x',x); u.setAttribute('style','visibility:visible;'); }
function hhl() { u=document.getElementById('useline'); u.setAttribute('style','visibility:hidden;'); u.setAttribute('x','0'); }
function sh(xl,xb,y,dat) { shl(xl); shb(xb,y,dat); }
function hh() { hhb(); hhl(); }
]]></script>
<rect x="-48" y="-272" width="309" height="330" class="bg" />
<line x1="8" y1="0" x2="8" y2="4" class="axes" /><text x="13" y="8" transform="rotate(-90,13,8)" style="text-anchor:end;">04.2021</text><line x1="35" y1="0" x2="35" y2="4" class="axes" /><text x="40" y="8" transform="rotate(-90,40,8)" style="text-anchor:end;">07.2021</text><line x1="62" y1="0" x2="62" y2="4" class="axes" /><text x="67" y="8" transform="rotate(-90,67,8)" style="text-anchor:end;">10.2021</text><line x1="89" y1="0" x2="89" y2="4" class="axes" /><text x="94" y="8" transform="rotate(-90,94,8)" style="text-anchor:end;">01.2022</text><line x1="116" y1="0" x2="116" y2="4" class="axes" /><text x="121" y="8" transform="rotate(-90,121,8)" style="text-anchor:end;">04.2022</text><line x1="143" y1="0" x2="143" y2="4" class="axes" /><text x="148" y="8" transform="rotate(-90,148,8)" style="text-anchor:end;">07.2022</text><line x1="170" y1="0" x2="170" y2="4" class="axes" /><text x="175" y="8" transform="rotate(-90,175,8)" style="text-anchor:end;">10.2022</text><line x1="197" y1="0" x2="197" y2="4" class="axes" /><text x="202" y="8" transform="rotate(-90,202,8)" style="text-anchor:end;">01.2023</text><line x1="224" y1="0" x2="224" y2="4" class="axes" /><text x="229" y="8" transform="rotate(-90,229,8)" style="text-anchor:end;">04.2023</text>
<line x1="0" y1="-24" x2="249" y2="-24" class="grid" /><line x1="0" y1="-24" x2="-4" y2="-24" class="axes" /><text x="-8" y="-20" style="text-anchor:end;">5</text><line x1="0" y1="-48" x2="249" y2="-48" class="grid" /><line x1="0" y1="-48" x2="-4" y2="-48" class="axes" /><text x="-8" y="-44" style="text-anchor:end;">10</text><line x1="0" y1="-72" x2="249" y2="-72" class="grid" /><line x1="0" y1="-72" x2="-4" y2="-72" class="axes" /><text x="-8" y="-68" style="text-anchor:end;">15</text><line x1="0" y1="-96" x2="249" y2="-96" class="grid" /><line x1="0" y1="-96" x2="-4" y2="-96" class="axes" /><text x="-8" y="-92" style="text-anchor:end;">20</text><line x1="0" y1="-120" x2="249" y2="-120" class="grid" /><line x1="0" y1="-120" x2="-4" y2="-120" class="axes" /><text x="-8" y="-116" style="text-anchor:end;">25</text><line x1="0" y1="-144" x2="249" y2="-144" class="grid" /><line x1="0" y1="-144" x2="-4" y2="-144" class="axes" /><text x="-8" y="-140" style="text-anchor:end;">30</text><line x1="0" y1="-168" x2="249" y2="-168" class="grid" /><line x1="0" y1="-168" x2="-4" y2="-168" class="axes" /><text x="-8" y="-164" style="text-anchor:end;">35</text><line x1="0" y1="-192" x2="249" y2="-192" class="grid" /><line x1="0" y1="-192" x2="-4" y2="-192" class="axes" /><text x="-8" y="-188" style="text-anchor:end;">40</text><line x1="0" y1="-216" x2="249" y2="-216" class="grid" /><line x1="0" y1="-216" x2="-4" y2="-216" class="axes" /><text x="-8" y="-212" style="text-anchor:end;">45</text><line x1="0" y1="-240" x2="249" y2="-240" class="grid" /><line x1="0" y1="-240" x2="-4" y2="-240" class="axes" /><text x="-8" y="-236" style="text-anchor:end;">50</text>
<use xlink:href="#hintline" id="useline" x="0" style="visibility:hidden;" />
<rect x="5" y="-240" width="6" height="240" style="fill:transparent;" onmouseover="sh(8,8,-246,'01.04.2021 17,08');" onmouseout="hh();" /><rect x="5" y="-82" width="6" height="82" style="fill:#0080C0;" onmouseover="sh(8,8,-246,'01.04.2021 17,08');" onmouseout="hh();" /><rect x="14" y="-240" width="6" height="240" style="fill:transparent;" onmouseover="sh(17,17,-246,'01.05.2021 17,98');" onmouseout="hh();" /><rect x="14" y="-86" width="6" height="86" style="fill:#0080C0;" onmouseover="sh(17,17,-246,'01.05.2021 17,98');" onmouseout="hh();" /><rect x="23" y="-240" width="6" height="240" style="fill:transparent;" onmouseover="sh(26,26,-246,'01.06.2021 13,92');" onmouseout="hh();" /><rect x="23" y="-67" width="6" height="67" style="fill:#0080C0;" onmouseover="sh(26,26,-246,'01.06.2021 13,92');" onmouseout="hh();" /><rect x="32" y="-240" width="6" height="240" style="fill:transparent;" onmouseover="sh(35,35,-246,'01.07.2021 12,51');" onmouseout="hh();" /><rect x="32" y="-60" width="6" height="60" style="fill:#0080C0;" onmouseover="sh(35,35,-246,'01.07.2021 12,51');" onmouseout="hh();" /><rect x="41" y="-240" width="6" height="240" style="fill:transparent;" onmouseover="sh(44,44,-246,'01.08.2021 14,64');" onmouseout="hh();" /><rect x="41" y="-70" width="6" height="70" style="fill:#0080C0;" onmouseover="sh(44,44,-246,'01.08.2021 14,64');" onmouseout="hh();" /><rect x="50" y="-240" width="6" height="240" style="fill:transparent;" onmouseover="sh(53,53,-246,'01.09.2021 14,31');" onmouseout="hh();" /><rect x="50" y="-69" width="6" height="69" style="fill:#0080C0;" onmouseover="sh(53,53,-246,'01.09.2021 14,31');" onmouseout="hh();" /><rect x="59" y="-240" width="6" height="240" style="fill:transparent;" onmouseover="sh(62,62,-246,'01.10.2021 15,08');" onmouseout="hh();" /><rect x="59" y="-72" width="6" height="72" style="fill:#0080C0;" onmouseover="sh(62,62,-246,'01.10.2021 15,08');" onmouseout="hh();" /><rect x="68" y="-240" width="6" height="240" style="fill:transparent;" onmouseover="sh(71,71,-246,'01.11.2021 14,48');" onmouseout="hh();" /><rect x="68" y="-70" width="6" height="70" style="fill:#0080C0;" onmouseover="sh(71,71,-246,'01.11.2021 14,48');" onmouseout="hh();" /><rect x="77" y="-240" width="6" height="240" style="fill:transparent;" onmouseover="sh(80,80,-246,'01.12.2021 14,38');" onmouseout="hh();" /><rect x="77" y="-69" width="6" height="69" style="fill:#0080C0;" onmouseover="sh(80,80,-246,'01.12.2021 14,38');" onmouseout="hh();" /><rect x="86" y="-240" width="6" height="240" style="fill:transparent;" onmouseover="sh(89,89,-246,'01.01.2022 16,73');" onmouseout="hh();" /><rect x="86" y="-80" width="6" height="80" style="fill:#0080C0;" onmouseover="sh(89,89,-246,'01.01.2022 16,73');" onmouseout="hh();" /><rect x="95" y="-240" width="6" height="240" style="fill:transparent;" onmouseover="sh(98,98,-246,'01.02.2022 16,40');" onmouseout="hh();" /><rect x="95" y="-79" width="6" height="79" style="fill:#0080C0;" onmouseover="sh(98,98,-246,'01.02.2022 16,40');" onmouseout="hh();" /><rect x="104" y="-240" width="6" height="240" style="fill:transparent;" onmouseover="sh(107,107,-246,'01.03.2022 17,44');" onmouseout="hh();" /><rect x="104" y="-84" width="6" height="84" style="fill:#0080C0;" onmouseover="sh(107,107,-246,'01.03.2022 17,44');" onmouseout="hh();" /><rect x="113" y="-240" width="6" height="240" style="fill:transparent;" onmouseover="sh(116,116,-246,'01.04.2022 26,80');" onmouseout="hh();" /><rect x="113" y="-129" width="6" height="129" style="fill:#0080C0;" onmouseover="sh(116,116,-246,'01.04.2022 26,80');" onmouseout="hh();" /><rect x="122" y="-240" width="6" height="240" style="fill:transparent;" onmouseover="sh(125,125,-246,'01.05.2022 25,73');" onmouseout="hh();" /><rect x="122" y="-124" width="6" height="124" style="fill:#0080C0;" onmouseover="sh(125,125,-246,'01.05.2022 25,73');" onmouseout="hh();" /><rect x="131" y="-240" width="6" height="240" style="fill:transparent;" onmouseover="sh(134,134,-246,'01.06.2022 24,63');" onmouseout="hh();" /><rect x="131" y="-118" width="6" height="118" style="fill:#0080C0;" onmouseover="sh(134,134,-246,'01.06.2022 24,63');" onmouseout="hh();" /><rect x="140" y="-240" width="6" height="240" style="fill:transparent;" onmouseover="sh(143,143,-246,'01.07.2022 25,91');" onmouseout="hh();" /><rect x="140" y="-124" width="6" height="124" style="fill:#0080C0;" onmouseover="sh(143,143,-246,'01.07.2022 25,91');" onmouseout="hh();" /><rect x="149" y="-240" width="6" height="240" style="fill:transparent;" onmouseover="sh(152,152,-246,'01.08.2022 26,75');" onmouseout="hh();" /><rect x="149" y="-128" width="6" height="128" style="fill:#0080C0;" onmouseover="sh(152,152,-246,'01.08.2022 26,75');" onmouseout="hh();" /><rect x="158" y="-240" width="6" height="240" style="fill:transparent;" onmouseover="sh(161,161,-246,'01.09.2022 29,89');" onmouseout="hh();" /><rect x="158" y="-143" width="6" height="143" style="fill:#0080C0;" onmouseover="sh(161,161,-246,'01.09.2022 29,89');" onmouseout="hh();" /><rect x="167" y="-240" width="6" height="240" style="fill:transparent;" onmouseover="sh(170,170,-246,'01.10.2022 29,68');" onmouseout="hh();" /><rect x="167" y="-142" width="6" height="142" style="fill:#0080C0;" onmouseover="sh(170,170,-246,'01.10.2022 29,68');" onmouseout="hh();" /><rect x="176" y="-240" width="6" height="240" style="fill:transparent;" onmouseover="sh(179,179,-246,'01.11.2022 26,74');" onmouseout="hh();" /><rect x="176" y="-128" width="6" height="128" style="fill:#0080C0;" onmouseover="sh(179,179,-246,'01.11.2022 26,74');" onmouseout="hh();" /><rect x="185" y="-240" width="6" height="240" style="fill:transparent;" onmouseover="sh(188,182,-246,'01.12.2022 28,35');" onmouseout="hh();" /><rect x="185" y="-136" width="6" height="136" style="fill:#0080C0;" onmouseover="sh(188,182,-246,'01.12.2022 28,35');" onmouseout="hh();" /><rect x="194" y="-240" width="6" height="240" style="fill:transparent;" onmouseover="sh(197,182,-246,'01.01.2023 34,33');" onmouseout="hh();" /><rect x="194" y="-165" width="6" height="165" style="fill:#0080C0;" onmouseover="sh(197,182,-246,'01.01.2023 34,33');" onmouseout="hh();" /><rect x="203" y="-240" width="6" height="240" style="fill:transparent;" onmouseover="sh(206,182,-246,'01.02.2023 36,75');" onmouseout="hh();" /><rect x="203" y="-176" width="6" height="176" style="fill:#0080C0;" onmouseover="sh(206,182,-246,'01.02.2023 36,75');" onmouseout="hh();" /><rect x="212" y="-240" width="6" height="240" style="fill:transparent;" onmouseover="sh(215,182,-246,'01.03.2023 36,95');" onmouseout="hh();" /><rect x="212" y="-177" width="6" height="177" style="fill:#0080C0;" onmouseover="sh(215,182,-246,'01.03.2023 36,95');" onmouseout="hh();" /><rect x="221" y="-240" width="6" height="240" style="fill:transparent;" onmouseover="sh(224,182,-246,'01.04.2023 38,50');" onmouseout="hh();" /><rect x="221" y="-185" width="6" height="185" style="fill:#0080C0;" onmouseover="sh(224,182,-246,'01.04.2023 38,50');" onmouseout="hh();" /><rect x="230" y="-240" width="6" height="240" style="fill:transparent;" onmouseover="sh(233,182,-246,'01.05.2023 39,17');" onmouseout="hh();" /><rect x="230" y="-188" width="6" height="188" style="fill:#0080C0;" onmouseover="sh(233,182,-246,'01.05.2023 39,17');" onmouseout="hh();" /><rect x="239" y="-240" width="6" height="240" style="fill:transparent;" onmouseover="sh(242,182,-246,'01.06.2023 41,06');" onmouseout="hh();" /><rect x="239" y="-197" width="6" height="197" style="fill:#0080C0;" onmouseover="sh(242,182,-246,'01.06.2023 41,06');" onmouseout="hh();" />
<line x1="-6" y1="0" x2="252" y2="0" class="axes" /><line x1="0" y1="-256" x2="0" y2="0" class="axes" /><text x="-2" y="-260" style="text-anchor:end;">грн.</text>
<use xlink:href="#hintbox" id="usebox" x="0" y="0" style="visibility:hidden;" />
</svg>
