<?xml version="1.0" encoding="UTF-8" standalone="no"?>
<!DOCTYPE svg PUBLIC "-//W3C//DTD SVG 1.1//EN" "http://www.w3.org/Graphics/SVG/1.1/DTD/svg11.dtd">
<svg version="1.1" xmlns="http://www.w3.org/2000/svg" xmlns:xlink="http://www.w3.org/1999/xlink" xmlns:ev="http://www.w3.org/2001/xml-events" width="309" height="331" viewBox="-48 -273 309 331" preserveAspectRatio="none">
<style type="text/css"><![CDATA[
line { stroke-width:1px; }
line.axes { stroke:#505050; }
line.grid { stroke:#D8D8D8; }
rect.bg { fill:#FFFFFF; }
text { font-family:arial,sans-serif; font-size:12px; fill:#000000; }
]]></style>
<defs>
<g id="hintbox"><rect x="0" y="0" width="77" height="34" style="stroke:#505050; stroke-width:1px; fill:rgba(255,255,255,0.87);" /><text id="hint0" x="4" y="14"> </text><text x="7" y="28"></text><text id="hint1" x="73" y="28" style="text-anchor:end;"> </text></g>
<g id="hintline"><line x1="0" y1="-243" x2="0" y2="0" class="axes" style="stroke-dasharray:2 1" /></g>
</defs>
<script><![CDATA[
function shb(x,y,dat) {
ar=dat.split(' '); for (i=0; i<ar.length; ++i) { if (i&&ar[i]) ar[i]+=' грн.'; h=document.getElementById('hint'+i); h.textContent=ar[i]; }
u=document.getElementById('usebox'); u.setAttribute('x',x); u.setAttribute('y',y); u.setAttribute('style','visibility:visible;'); }
function hhb() { u=document.getElementById('usebox'); u.setAttribute('style','visibility:hidden;'); u.setAttribute('x','0'); u.setAttribute('y','0'); }
function shl(x) { u=document.getElementById('useline'); u.setAttribute('x',x); u.setAttribute('style','visibility:visible;'); }
function hhl() { u=document.getElementById('useline'); u.setAttribute('style','visibility:hidden;'); u.setAttribute('x','0'); }
function sh(xl,xb,y,dat) { shl(xl); shb(xb,y,dat); }
function hh() { hhb(); hhl(); }
]]></script>
<rect x="-48" y="-273" width="309" height="331" class="bg" />
<line x1="8" y1="0" x2="8" y2="4" class="axes" /><text x="13" y="8" transform="rotate(-90,13,8)" style="text-anchor:end;">04.2021</text><line x1="35" y1="0" x2="35" y2="4" class="axes" /><text x="40" y="8" transform="rotate(-90,40,8)" style="text-anchor:end;">07.2021</text><line x1="62" y1="0" x2="62" y2="4" class="axes" /><text x="67" y="8" transform="rotate(-90,67,8)" style="text-anchor:end;">10.2021</text><line x1="89" y1="0" x2="89" y2="4" class="axes" /><text x="94" y="8" transform="rotate(-90,94,8)" style="text-anchor:end;">01.2022</text><line x1="116" y1="0" x2="116" y2="4" class="axes" /><text x="121" y="8" transform="rotate(-90,121,8)" style="text-anchor:end;">04.2022</text><line x1="143" y1="0" x2="143" y2="4" class="axes" /><text x="148" y="8" transform="rotate(-90,148,8)" style="text-anchor:end;">07.2022</text><line x1="170" y1="0" x2="170" y2="4" class="axes" /><text x="175" y="8" transform="rotate(-90,175,8)" style="text-anchor:end;">10.2022</text><line x1="197" y1="0" x2="197" y2="4" class="axes" /><text x="202" y="8" transform="rotate(-90,202,8)" style="text-anchor:end;">01.2023</text><line x1="224" y1="0" x2="224" y2="4" class="axes" /><text x="229" y="8" transform="rotate(-90,229,8)" style="text-anchor:end;">04.2023</text>
<line x1="0" y1="-27" x2="249" y2="-27" class="grid" /><line x1="0" y1="-27" x2="-4" y2="-27" class="axes" /><text x="-8" y="-23" style="text-anchor:end;">5</text><line x1="0" y1="-54" x2="249" y2="-54" class="grid" /><line x1="0" y1="-54" x2="-4" y2="-54" class="axes" /><text x="-8" y="-50" style="text-anchor:end;">10</text><line x1="0" y1="-81" x2="249" y2="-81" class="grid" /><line x1="0" y1="-81" x2="-4" y2="-81" class="axes" /><text x="-8" y="-77" style="text-anchor:end;">15</text><line x1="0" y1="-108" x2="249" y2="-108" class="grid" /><line x1="0" y1="-108" x2="-4" y2="-108" class="axes" /><text x="-8" y="-104" style="text-anchor:end;">20</text><line x1="0" y1="-135" x2="249" y2="-135" class="grid" /><line x1="0" y1="-135" x2="-4" y2="-135" class="axes" /><text x="-8" y="-131" style="text-anchor:end;">25</text><line x1="0" y1="-162" x2="249" y2="-162" class="grid" /><line x1="0" y1="-162" x2="-4" y2="-162" class="axes" /><text x="-8" y="-158" style="text-anchor:end;">30</text><line x1="0" y1="-189" x2="249" y2="-189" class="grid" /><line x1="0" y1="-189" x2="-4" y2="-189" class="axes" /><text x="-8" y="-185" style="text-anchor:end;">35</text><line x1="0" y1="-216" x2="249" y2="-216" class="grid" /><line x1="0" y1="-216" x2="-4" y2="-216" class="axes" /><text x="-8" y="-212" style="text-anchor:end;">40</text><line x1="0" y1="-243" x2="249" y2="-243" class="grid" /><line x1="0" y1="-243" x2="-4" y2="-243" class="axes" /><text x="-8" y="-239" style="text-anchor:end;">45</text>
<use xlink:href="#hintline" id="useline" x="0" style="visibility:hidden;" />
<rect x="5" y="-243" width="6" height="243" style="fill:transparent;" onmouseover="sh(8,8,-249,'01.04.2021 17,08');" onmouseout="hh();" /><rect x="5" y="-92" width="6" height="92" style="fill:#0080C0;" onmouseover="sh(8,8,-249,'01.04.2021 17,08');" onmouseout="hh();" /><rect x="14" y="-243" width="6" height="243" style="fill:transparent;" onmouseover="sh(17,17,-249,'01.05.2021 17,98');" onmouseout="hh();" /><rect x="14" y="-97" width="6" height="97" style="fill:#0080C0;" onmouseover="sh(17,17,-249,'01.05.2021 17,98');" onmouseout="hh();" /><rect x="23" y="-243" width="6" height="243" style="fill:transparent;" onmouseover="sh(26,26,-249,'01.06.2021 13,92');" onmouseout="hh();" /><rect x="23" y="-75" width="6" height="75" style="fill:#0080C0;" onmouseover="sh(26,26,-249,'01.06.2021 13,92');" onmouseout="hh();" /><rect x="32" y="-243" width="6" height="243" style="fill:transparent;" onmouseover="sh(35,35,-249,'01.07.2021 12,51');" onmouseout="hh();" /><rect x="32" y="-68" width="6" height="68" style="fill:#0080C0;" onmouseover="sh(35,35,-249,'01.07.2021 12,51');" onmouseout="hh();" /><rect x="41" y="-243" width="6" height="243" style="fill:transparent;" onmouseover="sh(44,44,-249,'01.08.2021 14,64');" onmouseout="hh();" /><rect x="41" y="-79" width="6" height="79" style="fill:#0080C0;" onmouseover="sh(44,44,-249,'01.08.2021 14,64');" onmouseout="hh();" /><rect x="50" y="-243" width="6" height="243" style="fill:transparent;" onmouseover="sh(53,53,-249,'01.09.2021 14,31');" onmouseout="hh();" /><rect x="50" y="-77" width="6" height="77" style="fill:#0080C0;" onmouseover="sh(53,53,-249,'01.09.2021 14,31');" onmouseout="hh();" /><rect x="59" y="-243" width="6" height="243" style="fill:transparent;" onmouseover="sh(62,62,-249,'01.10.2021 15,08');" onmouseout="hh();" /><rect x="59" y="-81" width="6" height="81" style="fill:#0080C0;" onmouseover="sh(62,62,-249,'01.10.2021 15,08');" onmouseout="hh();" /><rect x="68" y="-243" width="6" height="243" style="fill:transparent;" onmouseover="sh(71,71,-249,'01.11.2021 14,48');" onmouseout="hh();" /><rect x="68" y="-78" width="6" height="78" style="fill:#0080C0;" onmouseover="sh(71,71,-249,'01.11.2021 14,48');" onmouseout="hh();" /><rect x="77" y="-243" width="6" height="243" style="fill:transparent;" onmouseover="sh(80,80,-249,'01.12.2021 14,38');" onmouseout="hh();" /><rect x="77" y="-78" width="6" height="78" style="fill:#0080C0;" onmouseover="sh(80,80,-249,'01.12.2021 14,38');" onmouseout="hh();" /><rect x="86" y="-243" width="6" height="243" style="fill:transparent;" onmouseover="sh(89,89,-249,'01.01.2022 16,73');" onmouseout="hh();" /><rect x="86" y="-90" width="6" height="90" style="fill:#0080C0;" onmouseover="sh(89,89,-249,'01.01.2022 16,73');" onmouseout="hh();" /><rect x="95" y="-243" width="6" height="243" style="fill:transparent;" onmouseover="sh(98,98,-249,'01.02.2022 16,40');" onmouseout="hh();" /><rect x="95" y="-89" width="6" height="89" style="fill:#0080C0;" onmouseover="sh(98,98,-249,'01.02.2022 16,40');" onmouseout="hh();" /><rect x="104" y="-243" width="6" height="243" style="fill:transparent;" onmouseover="sh(107,107,-249,'01.03.2022 17,44');" onmouseout="hh();" /><rect x="104" y="-94" width="6" height="94" style="fill:#0080C0;" onmouseover="sh(107,107,-249,'01.03.2022 17,44');" onmouseout="hh();" /><rect x="113" y="-243" width="6" height="243" style="fill:transparent;" onmouseover="sh(116,116,-249,'01.04.2022 26,80');" onmouseout="hh();" /><rect x="113" y="-145" width="6" height="145" style="fill:#0080C0;" onmouseover="sh(116,116,-249,'01.04.2022 26,80');" onmouseout="hh();" /><rect x="122" y="-243" width="6" height="243" style="fill:transparent;" onmouseover="sh(125,125,-249,'01.05.2022 25,73');" onmouseout="hh();" /><rect x="122" y="-139" width="6" height="139" style="fill:#0080C0;" onmouseover="sh(125,125,-249,'01.05.2022 25,73');" onmouseout="hh();" /><rect x="131" y="-243" width="6" height="243" style="fill:transparent;" onmouseover="sh(134,134,-249,'01.06.2022 24,63');" onmouseout="hh();" /><rect x="131" y="-133" width="6" height="133" style="fill:#0080C0;" onmouseover="sh(134,134,-249,'01.06.2022 24,63');" onmouseout="hh();" /><rect x="140" y="-243" width="6" height="243" style="fill:transparent;" onmouseover="sh(143,143,-249,'01.07.2022 25,91');" onmouseout="hh();" /><rect x="140" y="-140" width="6" height="140" style="fill:#0080C0;" onmouseover="sh(143,143,-249,'01.07.2022 25,91');" onmouseout="hh();" /><rect x="149" y="-243" width="6" height="243" style="fill:transparent;" onmouseover="sh(152,152,-249,'01.08.2022 26,75');" onmouseout="hh();" /><rect x="149" y="-144" width="6" height="144" style="fill:#0080C0;" onmouseover="sh(152,152,-249,'01.08.2022 26,75');" onmouseout="hh();" /><rect x="158" y="-243" width="6" height="243" style="fill:transparent;" onmouseover="sh(161,161,-249,'01.09.2022 29,89');" onmouseout="hh();" /><rect x="158" y="-161" width="6" height="161" style="fill:#0080C0;" onmouseover="sh(161,161,-249,'01.09.2022 29,89');" onmouseout="hh();" /><rect x="167" y="-243" width="6" height="243" style="fill:transparent;" onmouseover="sh(170,170,-249,'01.10.2022 29,68');" onmouseout="hh();" /><rect x="167" y="-160" width="6" height="160" style="fill:#0080C0;" onmouseover="sh(170,170,-249,'01.10.2022 29,68');" onmouseout="hh();" /><rect x="176" y="-243" width="6" height="243" style="fill:transparent;" onmouseover="sh(179,179,-249,'01.11.2022 26,74');" onmouseout="hh();" /><rect x="176" y="-144" width="6" height="144" style="fill:#0080C0;" onmouseover="sh(179,179,-249,'01.11.2022 26,74');" onmouseout="hh();" /><rect x="185" y="-243" width="6" height="243" style="fill:transparent;" onmouseover="sh(188,182,-249,'01.12.2022 28,35');" onmouseout="hh();" /><rect x="185" y="-153" width="6" height="153" style="fill:#0080C0;" onmouseover="sh(188,182,-249,'01.12.2022 28,35');" onmouseout="hh();" /><rect x="194" y="-243" width="6" height="243" style="fill:transparent;" onmouseover="sh(197,182,-249,'01.01.2023 34,33');" onmouseout="hh();" /><rect x="194" y="-185" width="6" height="185" style="fill:#0080C0;" onmouseover="sh(197,182,-249,'01.01.2023 34,33');" onmouseout="hh();" /><rect x="203" y="-243" width="6" height="243" style="fill:transparent;" onmouseover="sh(206,182,-249,'01.02.2023 36,75');" onmouseout="hh();" /><rect x="203" y="-198" width="6" height="198" style="fill:#0080C0;" onmouseover="sh(206,182,-249,'01.02.2023 36,75');" onmouseout="hh();" /><rect x="212" y="-243" width="6" height="243" style="fill:transparent;" onmouseover="sh(215,182,-249,'01.03.2023 36,95');" onmouseout="hh();" /><rect x="212" y="-200" width="6" height="200" style="fill:#0080C0;" onmouseover="sh(215,182,-249,'01.03.2023 36,95');" onmouseout="hh();" /><rect x="221" y="-243" width="6" height="243" style="fill:transparent;" onmouseover="sh(224,182,-249,'01.04.2023 38,50');" onmouseout="hh();" /><rect x="221" y="-208" width="6" height="208" style="fill:#0080C0;" onmouseover="sh(224,182,-249,'01.04.2023 38,50');" onmouseout="hh();" /><rect x="230" y="-243" width="6" height="243" style="fill:transparent;" onmouseover="sh(233,182,-249,'01.05.2023 39,17');" onmouseout="hh();" /><rect x="230" y="-212" width="6" height="212" style="fill:#0080C0;" onmouseover="sh(233,182,-249,'01.05.2023 39,17');" onmouseout="hh();" /><rect x="239" y="-243" width="6" height="243" style="fill:transparent;" onmouseover="sh(242,182,-249,'01.06.2023 39,76');" onmouseout="hh();" /><rect x="239" y="-215" width="6" height="215" style="fill:#0080C0;" onmouseover="sh(242,182,-249,'01.06.2023 39,76');" onmouseout="hh();" />
<line x1="-6" y1="0" x2="252" y2="0" class="axes" /><line x1="0" y1="-259" x2="0" y2="0" class="axes" /><text x="-2" y="-263" style="text-anchor:end;">грн.</text>
<use xlink:href="#hintbox" id="usebox" x="0" y="0" style="visibility:hidden;" />
</svg>
