<?xml version="1.0" encoding="UTF-8" standalone="no"?>
<!DOCTYPE svg PUBLIC "-//W3C//DTD SVG 1.1//EN" "http://www.w3.org/Graphics/SVG/1.1/DTD/svg11.dtd">
<svg version="1.1" xmlns="http://www.w3.org/2000/svg" xmlns:xlink="http://www.w3.org/1999/xlink" xmlns:ev="http://www.w3.org/2001/xml-events" width="732" height="330" viewBox="-48 -272 732 330" preserveAspectRatio="none">
<style type="text/css"><![CDATA[
line { stroke-width:1px; }
line.axes { stroke:#505050; }
line.grid { stroke:#D8D8D8; }
rect.bg { fill:#FFFFFF; }
text { font-family:arial,sans-serif; font-size:12px; fill:#000000; }
]]></style>
<defs>
<g id="hintbox"><rect x="0" y="0" width="77" height="34" style="stroke:#505050; stroke-width:1px; fill:rgba(255,255,255,0.87);" /><text id="hint0" x="4" y="14"> </text><text x="7" y="28"></text><text id="hint1" x="73" y="28" style="text-anchor:end;"> </text></g>
<g id="hintline"><line x1="0" y1="-240" x2="0" y2="0" class="axes" style="stroke-dasharray:2 1" /></g>
</defs>
<script><![CDATA[
function shb(x,y,dat) {
ar=dat.split(' '); for (i=0; i<ar.length; ++i) { if (i&&ar[i]) ar[i]+=' грн.'; h=document.getElementById('hint'+i); h.textContent=ar[i]; }
u=document.getElementById('usebox'); u.setAttribute('x',x); u.setAttribute('y',y); u.setAttribute('style','visibility:visible;'); }
function hhb() { u=document.getElementById('usebox'); u.setAttribute('style','visibility:hidden;'); u.setAttribute('x','0'); u.setAttribute('y','0'); }
function shl(x) { u=document.getElementById('useline'); u.setAttribute('x',x); u.setAttribute('style','visibility:visible;'); }
function hhl() { u=document.getElementById('useline'); u.setAttribute('style','visibility:hidden;'); u.setAttribute('x','0'); }
function sh(xl,xb,y,dat) { shl(xl); shb(xb,y,dat); }
function hh() { hhb(); hhl(); }
]]></script>
<rect x="-48" y="-272" width="732" height="330" class="bg" />
<line x1="17" y1="0" x2="17" y2="4" class="axes" /><text x="22" y="8" transform="rotate(-90,22,8)" style="text-anchor:end;">04.2017</text><line x1="62" y1="0" x2="62" y2="4" class="axes" /><text x="67" y="8" transform="rotate(-90,67,8)" style="text-anchor:end;">10.2017</text><line x1="89" y1="0" x2="89" y2="4" class="axes" /><text x="94" y="8" transform="rotate(-90,94,8)" style="text-anchor:end;">01.2018</text><line x1="116" y1="0" x2="116" y2="4" class="axes" /><text x="121" y="8" transform="rotate(-90,121,8)" style="text-anchor:end;">04.2018</text><line x1="143" y1="0" x2="143" y2="4" class="axes" /><text x="148" y="8" transform="rotate(-90,148,8)" style="text-anchor:end;">07.2018</text><line x1="170" y1="0" x2="170" y2="4" class="axes" /><text x="175" y="8" transform="rotate(-90,175,8)" style="text-anchor:end;">10.2018</text><line x1="197" y1="0" x2="197" y2="4" class="axes" /><text x="202" y="8" transform="rotate(-90,202,8)" style="text-anchor:end;">01.2019</text><line x1="224" y1="0" x2="224" y2="4" class="axes" /><text x="229" y="8" transform="rotate(-90,229,8)" style="text-anchor:end;">04.2019</text><line x1="269" y1="0" x2="269" y2="4" class="axes" /><text x="274" y="8" transform="rotate(-90,274,8)" style="text-anchor:end;">10.2019</text><line x1="296" y1="0" x2="296" y2="4" class="axes" /><text x="301" y="8" transform="rotate(-90,301,8)" style="text-anchor:end;">01.2020</text><line x1="323" y1="0" x2="323" y2="4" class="axes" /><text x="328" y="8" transform="rotate(-90,328,8)" style="text-anchor:end;">04.2020</text><line x1="350" y1="0" x2="350" y2="4" class="axes" /><text x="355" y="8" transform="rotate(-90,355,8)" style="text-anchor:end;">07.2020</text><line x1="377" y1="0" x2="377" y2="4" class="axes" /><text x="382" y="8" transform="rotate(-90,382,8)" style="text-anchor:end;">10.2020</text><line x1="404" y1="0" x2="404" y2="4" class="axes" /><text x="409" y="8" transform="rotate(-90,409,8)" style="text-anchor:end;">01.2021</text><line x1="431" y1="0" x2="431" y2="4" class="axes" /><text x="436" y="8" transform="rotate(-90,436,8)" style="text-anchor:end;">04.2021</text><line x1="458" y1="0" x2="458" y2="4" class="axes" /><text x="463" y="8" transform="rotate(-90,463,8)" style="text-anchor:end;">07.2021</text><line x1="485" y1="0" x2="485" y2="4" class="axes" /><text x="490" y="8" transform="rotate(-90,490,8)" style="text-anchor:end;">10.2021</text><line x1="512" y1="0" x2="512" y2="4" class="axes" /><text x="517" y="8" transform="rotate(-90,517,8)" style="text-anchor:end;">01.2022</text><line x1="539" y1="0" x2="539" y2="4" class="axes" /><text x="544" y="8" transform="rotate(-90,544,8)" style="text-anchor:end;">04.2022</text><line x1="566" y1="0" x2="566" y2="4" class="axes" /><text x="571" y="8" transform="rotate(-90,571,8)" style="text-anchor:end;">07.2022</text><line x1="593" y1="0" x2="593" y2="4" class="axes" /><text x="598" y="8" transform="rotate(-90,598,8)" style="text-anchor:end;">10.2022</text><line x1="620" y1="0" x2="620" y2="4" class="axes" /><text x="625" y="8" transform="rotate(-90,625,8)" style="text-anchor:end;">01.2023</text><line x1="647" y1="0" x2="647" y2="4" class="axes" /><text x="652" y="8" transform="rotate(-90,652,8)" style="text-anchor:end;">04.2023</text>
<line x1="0" y1="-20" x2="672" y2="-20" class="grid" /><line x1="0" y1="-20" x2="-4" y2="-20" class="axes" /><text x="-8" y="-16" style="text-anchor:end;">2</text><line x1="0" y1="-40" x2="672" y2="-40" class="grid" /><line x1="0" y1="-40" x2="-4" y2="-40" class="axes" /><text x="-8" y="-36" style="text-anchor:end;">4</text><line x1="0" y1="-60" x2="672" y2="-60" class="grid" /><line x1="0" y1="-60" x2="-4" y2="-60" class="axes" /><text x="-8" y="-56" style="text-anchor:end;">6</text><line x1="0" y1="-80" x2="672" y2="-80" class="grid" /><line x1="0" y1="-80" x2="-4" y2="-80" class="axes" /><text x="-8" y="-76" style="text-anchor:end;">8</text><line x1="0" y1="-100" x2="672" y2="-100" class="grid" /><line x1="0" y1="-100" x2="-4" y2="-100" class="axes" /><text x="-8" y="-96" style="text-anchor:end;">10</text><line x1="0" y1="-120" x2="672" y2="-120" class="grid" /><line x1="0" y1="-120" x2="-4" y2="-120" class="axes" /><text x="-8" y="-116" style="text-anchor:end;">12</text><line x1="0" y1="-140" x2="672" y2="-140" class="grid" /><line x1="0" y1="-140" x2="-4" y2="-140" class="axes" /><text x="-8" y="-136" style="text-anchor:end;">14</text><line x1="0" y1="-160" x2="672" y2="-160" class="grid" /><line x1="0" y1="-160" x2="-4" y2="-160" class="axes" /><text x="-8" y="-156" style="text-anchor:end;">16</text><line x1="0" y1="-180" x2="672" y2="-180" class="grid" /><line x1="0" y1="-180" x2="-4" y2="-180" class="axes" /><text x="-8" y="-176" style="text-anchor:end;">18</text><line x1="0" y1="-200" x2="672" y2="-200" class="grid" /><line x1="0" y1="-200" x2="-4" y2="-200" class="axes" /><text x="-8" y="-196" style="text-anchor:end;">20</text><line x1="0" y1="-220" x2="672" y2="-220" class="grid" /><line x1="0" y1="-220" x2="-4" y2="-220" class="axes" /><text x="-8" y="-216" style="text-anchor:end;">22</text><line x1="0" y1="-240" x2="672" y2="-240" class="grid" /><line x1="0" y1="-240" x2="-4" y2="-240" class="axes" /><text x="-8" y="-236" style="text-anchor:end;">24</text>
<use xlink:href="#hintline" id="useline" x="0" style="visibility:hidden;" />
<rect x="5" y="-240" width="6" height="240" style="fill:transparent;" onmouseover="sh(8,8,-246,'01.03.2017 7,15');" onmouseout="hh();" /><rect x="5" y="-72" width="6" height="72" style="fill:#0080C0;" onmouseover="sh(8,8,-246,'01.03.2017 7,15');" onmouseout="hh();" /><rect x="14" y="-240" width="6" height="240" style="fill:transparent;" onmouseover="sh(17,17,-246,'01.04.2017 8,33');" onmouseout="hh();" /><rect x="14" y="-83" width="6" height="83" style="fill:#0080C0;" onmouseover="sh(17,17,-246,'01.04.2017 8,33');" onmouseout="hh();" /><rect x="23" y="-240" width="6" height="240" style="fill:transparent;" onmouseover="sh(26,26,-246,'01.05.2017 11,02');" onmouseout="hh();" /><rect x="23" y="-110" width="6" height="110" style="fill:#0080C0;" onmouseover="sh(26,26,-246,'01.05.2017 11,02');" onmouseout="hh();" /><rect x="32" y="-240" width="6" height="240" style="fill:transparent;" onmouseover="sh(35,35,-246,'01.06.2017 10,78');" onmouseout="hh();" /><rect x="32" y="-108" width="6" height="108" style="fill:#0080C0;" onmouseover="sh(35,35,-246,'01.06.2017 10,78');" onmouseout="hh();" /><rect x="41" y="-240" width="6" height="240" style="fill:transparent;" onmouseover="sh(44,44,-246,'01.08.2017 6,38');" onmouseout="hh();" /><rect x="41" y="-64" width="6" height="64" style="fill:#0080C0;" onmouseover="sh(44,44,-246,'01.08.2017 6,38');" onmouseout="hh();" /><rect x="50" y="-240" width="6" height="240" style="fill:transparent;" onmouseover="sh(53,53,-246,'01.09.2017 5,96');" onmouseout="hh();" /><rect x="50" y="-60" width="6" height="60" style="fill:#0080C0;" onmouseover="sh(53,53,-246,'01.09.2017 5,96');" onmouseout="hh();" /><rect x="59" y="-240" width="6" height="240" style="fill:transparent;" onmouseover="sh(62,62,-246,'01.10.2017 5,42');" onmouseout="hh();" /><rect x="59" y="-54" width="6" height="54" style="fill:#0080C0;" onmouseover="sh(62,62,-246,'01.10.2017 5,42');" onmouseout="hh();" /><rect x="68" y="-240" width="6" height="240" style="fill:transparent;" onmouseover="sh(71,71,-246,'01.11.2017 5,00');" onmouseout="hh();" /><rect x="68" y="-50" width="6" height="50" style="fill:#0080C0;" onmouseover="sh(71,71,-246,'01.11.2017 5,00');" onmouseout="hh();" /><rect x="77" y="-240" width="6" height="240" style="fill:transparent;" onmouseover="sh(80,80,-246,'01.12.2017 5,59');" onmouseout="hh();" /><rect x="77" y="-56" width="6" height="56" style="fill:#0080C0;" onmouseover="sh(80,80,-246,'01.12.2017 5,59');" onmouseout="hh();" /><rect x="86" y="-240" width="6" height="240" style="fill:transparent;" onmouseover="sh(89,89,-246,'01.01.2018 6,67');" onmouseout="hh();" /><rect x="86" y="-67" width="6" height="67" style="fill:#0080C0;" onmouseover="sh(89,89,-246,'01.01.2018 6,67');" onmouseout="hh();" /><rect x="95" y="-240" width="6" height="240" style="fill:transparent;" onmouseover="sh(98,98,-246,'01.02.2018 7,01');" onmouseout="hh();" /><rect x="95" y="-70" width="6" height="70" style="fill:#0080C0;" onmouseover="sh(98,98,-246,'01.02.2018 7,01');" onmouseout="hh();" /><rect x="104" y="-240" width="6" height="240" style="fill:transparent;" onmouseover="sh(107,107,-246,'01.03.2018 8,30');" onmouseout="hh();" /><rect x="104" y="-83" width="6" height="83" style="fill:#0080C0;" onmouseover="sh(107,107,-246,'01.03.2018 8,30');" onmouseout="hh();" /><rect x="113" y="-240" width="6" height="240" style="fill:transparent;" onmouseover="sh(116,116,-246,'01.04.2018 8,86');" onmouseout="hh();" /><rect x="113" y="-89" width="6" height="89" style="fill:#0080C0;" onmouseover="sh(116,116,-246,'01.04.2018 8,86');" onmouseout="hh();" /><rect x="122" y="-240" width="6" height="240" style="fill:transparent;" onmouseover="sh(125,125,-246,'01.05.2018 8,51');" onmouseout="hh();" /><rect x="122" y="-85" width="6" height="85" style="fill:#0080C0;" onmouseover="sh(125,125,-246,'01.05.2018 8,51');" onmouseout="hh();" /><rect x="131" y="-240" width="6" height="240" style="fill:transparent;" onmouseover="sh(134,134,-246,'01.06.2018 8,27');" onmouseout="hh();" /><rect x="131" y="-83" width="6" height="83" style="fill:#0080C0;" onmouseover="sh(134,134,-246,'01.06.2018 8,27');" onmouseout="hh();" /><rect x="140" y="-240" width="6" height="240" style="fill:transparent;" onmouseover="sh(143,143,-246,'01.07.2018 7,07');" onmouseout="hh();" /><rect x="140" y="-71" width="6" height="71" style="fill:#0080C0;" onmouseover="sh(143,143,-246,'01.07.2018 7,07');" onmouseout="hh();" /><rect x="149" y="-240" width="6" height="240" style="fill:transparent;" onmouseover="sh(152,152,-246,'01.08.2018 6,88');" onmouseout="hh();" /><rect x="149" y="-69" width="6" height="69" style="fill:#0080C0;" onmouseover="sh(152,152,-246,'01.08.2018 6,88');" onmouseout="hh();" /><rect x="158" y="-240" width="6" height="240" style="fill:transparent;" onmouseover="sh(161,161,-246,'01.09.2018 5,97');" onmouseout="hh();" /><rect x="158" y="-60" width="6" height="60" style="fill:#0080C0;" onmouseover="sh(161,161,-246,'01.09.2018 5,97');" onmouseout="hh();" /><rect x="167" y="-240" width="6" height="240" style="fill:transparent;" onmouseover="sh(170,170,-246,'01.10.2018 5,52');" onmouseout="hh();" /><rect x="167" y="-55" width="6" height="55" style="fill:#0080C0;" onmouseover="sh(170,170,-246,'01.10.2018 5,52');" onmouseout="hh();" /><rect x="176" y="-240" width="6" height="240" style="fill:transparent;" onmouseover="sh(179,179,-246,'01.11.2018 6,04');" onmouseout="hh();" /><rect x="176" y="-60" width="6" height="60" style="fill:#0080C0;" onmouseover="sh(179,179,-246,'01.11.2018 6,04');" onmouseout="hh();" /><rect x="185" y="-240" width="6" height="240" style="fill:transparent;" onmouseover="sh(188,188,-246,'01.12.2018 8,28');" onmouseout="hh();" /><rect x="185" y="-83" width="6" height="83" style="fill:#0080C0;" onmouseover="sh(188,188,-246,'01.12.2018 8,28');" onmouseout="hh();" /><rect x="194" y="-240" width="6" height="240" style="fill:transparent;" onmouseover="sh(197,197,-246,'01.01.2019 10,59');" onmouseout="hh();" /><rect x="194" y="-106" width="6" height="106" style="fill:#0080C0;" onmouseover="sh(197,197,-246,'01.01.2019 10,59');" onmouseout="hh();" /><rect x="203" y="-240" width="6" height="240" style="fill:transparent;" onmouseover="sh(206,206,-246,'01.02.2019 10,85');" onmouseout="hh();" /><rect x="203" y="-108" width="6" height="108" style="fill:#0080C0;" onmouseover="sh(206,206,-246,'01.02.2019 10,85');" onmouseout="hh();" /><rect x="212" y="-240" width="6" height="240" style="fill:transparent;" onmouseover="sh(215,215,-246,'01.03.2019 9,95');" onmouseout="hh();" /><rect x="212" y="-99" width="6" height="99" style="fill:#0080C0;" onmouseover="sh(215,215,-246,'01.03.2019 9,95');" onmouseout="hh();" /><rect x="221" y="-240" width="6" height="240" style="fill:transparent;" onmouseover="sh(224,224,-246,'01.04.2019 12,08');" onmouseout="hh();" /><rect x="221" y="-121" width="6" height="121" style="fill:#0080C0;" onmouseover="sh(224,224,-246,'01.04.2019 12,08');" onmouseout="hh();" /><rect x="230" y="-240" width="6" height="240" style="fill:transparent;" onmouseover="sh(233,233,-246,'01.05.2019 20,88');" onmouseout="hh();" /><rect x="230" y="-209" width="6" height="209" style="fill:#0080C0;" onmouseover="sh(233,233,-246,'01.05.2019 20,88');" onmouseout="hh();" /><rect x="239" y="-240" width="6" height="240" style="fill:transparent;" onmouseover="sh(242,242,-246,'01.06.2019 18,67');" onmouseout="hh();" /><rect x="239" y="-187" width="6" height="187" style="fill:#0080C0;" onmouseover="sh(242,242,-246,'01.06.2019 18,67');" onmouseout="hh();" /><rect x="248" y="-240" width="6" height="240" style="fill:transparent;" onmouseover="sh(251,251,-246,'01.08.2019 17,37');" onmouseout="hh();" /><rect x="248" y="-174" width="6" height="174" style="fill:#0080C0;" onmouseover="sh(251,251,-246,'01.08.2019 17,37');" onmouseout="hh();" /><rect x="257" y="-240" width="6" height="240" style="fill:transparent;" onmouseover="sh(260,260,-246,'01.09.2019 14,82');" onmouseout="hh();" /><rect x="257" y="-148" width="6" height="148" style="fill:#0080C0;" onmouseover="sh(260,260,-246,'01.09.2019 14,82');" onmouseout="hh();" /><rect x="266" y="-240" width="6" height="240" style="fill:transparent;" onmouseover="sh(269,269,-246,'01.10.2019 14,97');" onmouseout="hh();" /><rect x="266" y="-150" width="6" height="150" style="fill:#0080C0;" onmouseover="sh(269,269,-246,'01.10.2019 14,97');" onmouseout="hh();" /><rect x="275" y="-240" width="6" height="240" style="fill:transparent;" onmouseover="sh(278,278,-246,'01.11.2019 13,12');" onmouseout="hh();" /><rect x="275" y="-131" width="6" height="131" style="fill:#0080C0;" onmouseover="sh(278,278,-246,'01.11.2019 13,12');" onmouseout="hh();" /><rect x="284" y="-240" width="6" height="240" style="fill:transparent;" onmouseover="sh(287,287,-246,'01.12.2019 12,24');" onmouseout="hh();" /><rect x="284" y="-122" width="6" height="122" style="fill:#0080C0;" onmouseover="sh(287,287,-246,'01.12.2019 12,24');" onmouseout="hh();" /><rect x="293" y="-240" width="6" height="240" style="fill:transparent;" onmouseover="sh(296,296,-246,'01.01.2020 12,51');" onmouseout="hh();" /><rect x="293" y="-125" width="6" height="125" style="fill:#0080C0;" onmouseover="sh(296,296,-246,'01.01.2020 12,51');" onmouseout="hh();" /><rect x="302" y="-240" width="6" height="240" style="fill:transparent;" onmouseover="sh(305,305,-246,'01.02.2020 11,73');" onmouseout="hh();" /><rect x="302" y="-117" width="6" height="117" style="fill:#0080C0;" onmouseover="sh(305,305,-246,'01.02.2020 11,73');" onmouseout="hh();" /><rect x="311" y="-240" width="6" height="240" style="fill:transparent;" onmouseover="sh(314,314,-246,'01.03.2020 13,98');" onmouseout="hh();" /><rect x="311" y="-140" width="6" height="140" style="fill:#0080C0;" onmouseover="sh(314,314,-246,'01.03.2020 13,98');" onmouseout="hh();" /><rect x="320" y="-240" width="6" height="240" style="fill:transparent;" onmouseover="sh(323,323,-246,'01.04.2020 15,27');" onmouseout="hh();" /><rect x="320" y="-153" width="6" height="153" style="fill:#0080C0;" onmouseover="sh(323,323,-246,'01.04.2020 15,27');" onmouseout="hh();" /><rect x="329" y="-240" width="6" height="240" style="fill:transparent;" onmouseover="sh(332,332,-246,'01.05.2020 16,31');" onmouseout="hh();" /><rect x="329" y="-163" width="6" height="163" style="fill:#0080C0;" onmouseover="sh(332,332,-246,'01.05.2020 16,31');" onmouseout="hh();" /><rect x="338" y="-240" width="6" height="240" style="fill:transparent;" onmouseover="sh(341,341,-246,'01.06.2020 15,75');" onmouseout="hh();" /><rect x="338" y="-157" width="6" height="157" style="fill:#0080C0;" onmouseover="sh(341,341,-246,'01.06.2020 15,75');" onmouseout="hh();" /><rect x="347" y="-240" width="6" height="240" style="fill:transparent;" onmouseover="sh(350,350,-246,'01.07.2020 15,99');" onmouseout="hh();" /><rect x="347" y="-160" width="6" height="160" style="fill:#0080C0;" onmouseover="sh(350,350,-246,'01.07.2020 15,99');" onmouseout="hh();" /><rect x="356" y="-240" width="6" height="240" style="fill:transparent;" onmouseover="sh(359,359,-246,'01.08.2020 11,79');" onmouseout="hh();" /><rect x="356" y="-118" width="6" height="118" style="fill:#0080C0;" onmouseover="sh(359,359,-246,'01.08.2020 11,79');" onmouseout="hh();" /><rect x="365" y="-240" width="6" height="240" style="fill:transparent;" onmouseover="sh(368,368,-246,'01.09.2020 8,59');" onmouseout="hh();" /><rect x="365" y="-86" width="6" height="86" style="fill:#0080C0;" onmouseover="sh(368,368,-246,'01.09.2020 8,59');" onmouseout="hh();" /><rect x="374" y="-240" width="6" height="240" style="fill:transparent;" onmouseover="sh(377,377,-246,'01.10.2020 8,23');" onmouseout="hh();" /><rect x="374" y="-82" width="6" height="82" style="fill:#0080C0;" onmouseover="sh(377,377,-246,'01.10.2020 8,23');" onmouseout="hh();" /><rect x="383" y="-240" width="6" height="240" style="fill:transparent;" onmouseover="sh(386,386,-246,'01.11.2020 8,95');" onmouseout="hh();" /><rect x="383" y="-89" width="6" height="89" style="fill:#0080C0;" onmouseover="sh(386,386,-246,'01.11.2020 8,95');" onmouseout="hh();" /><rect x="392" y="-240" width="6" height="240" style="fill:transparent;" onmouseover="sh(395,395,-246,'01.12.2020 10,16');" onmouseout="hh();" /><rect x="392" y="-102" width="6" height="102" style="fill:#0080C0;" onmouseover="sh(395,395,-246,'01.12.2020 10,16');" onmouseout="hh();" /><rect x="401" y="-240" width="6" height="240" style="fill:transparent;" onmouseover="sh(404,404,-246,'01.01.2021 11,47');" onmouseout="hh();" /><rect x="401" y="-115" width="6" height="115" style="fill:#0080C0;" onmouseover="sh(404,404,-246,'01.01.2021 11,47');" onmouseout="hh();" /><rect x="410" y="-240" width="6" height="240" style="fill:transparent;" onmouseover="sh(413,413,-246,'01.02.2021 12,04');" onmouseout="hh();" /><rect x="410" y="-120" width="6" height="120" style="fill:#0080C0;" onmouseover="sh(413,413,-246,'01.02.2021 12,04');" onmouseout="hh();" /><rect x="419" y="-240" width="6" height="240" style="fill:transparent;" onmouseover="sh(422,422,-246,'01.03.2021 11,68');" onmouseout="hh();" /><rect x="419" y="-117" width="6" height="117" style="fill:#0080C0;" onmouseover="sh(422,422,-246,'01.03.2021 11,68');" onmouseout="hh();" /><rect x="428" y="-240" width="6" height="240" style="fill:transparent;" onmouseover="sh(431,431,-246,'01.04.2021 11,22');" onmouseout="hh();" /><rect x="428" y="-112" width="6" height="112" style="fill:#0080C0;" onmouseover="sh(431,431,-246,'01.04.2021 11,22');" onmouseout="hh();" /><rect x="437" y="-240" width="6" height="240" style="fill:transparent;" onmouseover="sh(440,440,-246,'01.05.2021 11,67');" onmouseout="hh();" /><rect x="437" y="-117" width="6" height="117" style="fill:#0080C0;" onmouseover="sh(440,440,-246,'01.05.2021 11,67');" onmouseout="hh();" /><rect x="446" y="-240" width="6" height="240" style="fill:transparent;" onmouseover="sh(449,449,-246,'01.06.2021 11,89');" onmouseout="hh();" /><rect x="446" y="-119" width="6" height="119" style="fill:#0080C0;" onmouseover="sh(449,449,-246,'01.06.2021 11,89');" onmouseout="hh();" /><rect x="455" y="-240" width="6" height="240" style="fill:transparent;" onmouseover="sh(458,458,-246,'01.07.2021 16,31');" onmouseout="hh();" /><rect x="455" y="-163" width="6" height="163" style="fill:#0080C0;" onmouseover="sh(458,458,-246,'01.07.2021 16,31');" onmouseout="hh();" /><rect x="464" y="-240" width="6" height="240" style="fill:transparent;" onmouseover="sh(467,467,-246,'01.08.2021 10,68');" onmouseout="hh();" /><rect x="464" y="-107" width="6" height="107" style="fill:#0080C0;" onmouseover="sh(467,467,-246,'01.08.2021 10,68');" onmouseout="hh();" /><rect x="473" y="-240" width="6" height="240" style="fill:transparent;" onmouseover="sh(476,476,-246,'01.09.2021 10,46');" onmouseout="hh();" /><rect x="473" y="-105" width="6" height="105" style="fill:#0080C0;" onmouseover="sh(476,476,-246,'01.09.2021 10,46');" onmouseout="hh();" /><rect x="482" y="-240" width="6" height="240" style="fill:transparent;" onmouseover="sh(485,485,-246,'01.10.2021 11,85');" onmouseout="hh();" /><rect x="482" y="-119" width="6" height="119" style="fill:#0080C0;" onmouseover="sh(485,485,-246,'01.10.2021 11,85');" onmouseout="hh();" /><rect x="491" y="-240" width="6" height="240" style="fill:transparent;" onmouseover="sh(494,494,-246,'01.11.2021 11,92');" onmouseout="hh();" /><rect x="491" y="-119" width="6" height="119" style="fill:#0080C0;" onmouseover="sh(494,494,-246,'01.11.2021 11,92');" onmouseout="hh();" /><rect x="500" y="-240" width="6" height="240" style="fill:transparent;" onmouseover="sh(503,503,-246,'01.12.2021 12,96');" onmouseout="hh();" /><rect x="500" y="-130" width="6" height="130" style="fill:#0080C0;" onmouseover="sh(503,503,-246,'01.12.2021 12,96');" onmouseout="hh();" /><rect x="509" y="-240" width="6" height="240" style="fill:transparent;" onmouseover="sh(512,512,-246,'01.01.2022 12,70');" onmouseout="hh();" /><rect x="509" y="-127" width="6" height="127" style="fill:#0080C0;" onmouseover="sh(512,512,-246,'01.01.2022 12,70');" onmouseout="hh();" /><rect x="518" y="-240" width="6" height="240" style="fill:transparent;" onmouseover="sh(521,521,-246,'01.02.2022 12,10');" onmouseout="hh();" /><rect x="518" y="-121" width="6" height="121" style="fill:#0080C0;" onmouseover="sh(521,521,-246,'01.02.2022 12,10');" onmouseout="hh();" /><rect x="527" y="-240" width="6" height="240" style="fill:transparent;" onmouseover="sh(530,530,-246,'01.03.2022 14,87');" onmouseout="hh();" /><rect x="527" y="-149" width="6" height="149" style="fill:#0080C0;" onmouseover="sh(530,530,-246,'01.03.2022 14,87');" onmouseout="hh();" /><rect x="536" y="-240" width="6" height="240" style="fill:transparent;" onmouseover="sh(539,539,-246,'01.04.2022 13,92');" onmouseout="hh();" /><rect x="536" y="-139" width="6" height="139" style="fill:#0080C0;" onmouseover="sh(539,539,-246,'01.04.2022 13,92');" onmouseout="hh();" /><rect x="545" y="-240" width="6" height="240" style="fill:transparent;" onmouseover="sh(548,548,-246,'01.05.2022 11,92');" onmouseout="hh();" /><rect x="545" y="-119" width="6" height="119" style="fill:#0080C0;" onmouseover="sh(548,548,-246,'01.05.2022 11,92');" onmouseout="hh();" /><rect x="554" y="-240" width="6" height="240" style="fill:transparent;" onmouseover="sh(557,557,-246,'01.06.2022 10,52');" onmouseout="hh();" /><rect x="554" y="-105" width="6" height="105" style="fill:#0080C0;" onmouseover="sh(557,557,-246,'01.06.2022 10,52');" onmouseout="hh();" /><rect x="563" y="-240" width="6" height="240" style="fill:transparent;" onmouseover="sh(566,566,-246,'01.07.2022 11,70');" onmouseout="hh();" /><rect x="563" y="-117" width="6" height="117" style="fill:#0080C0;" onmouseover="sh(566,566,-246,'01.07.2022 11,70');" onmouseout="hh();" /><rect x="572" y="-240" width="6" height="240" style="fill:transparent;" onmouseover="sh(575,575,-246,'01.08.2022 11,90');" onmouseout="hh();" /><rect x="572" y="-119" width="6" height="119" style="fill:#0080C0;" onmouseover="sh(575,575,-246,'01.08.2022 11,90');" onmouseout="hh();" /><rect x="581" y="-240" width="6" height="240" style="fill:transparent;" onmouseover="sh(584,584,-246,'01.09.2022 11,80');" onmouseout="hh();" /><rect x="581" y="-118" width="6" height="118" style="fill:#0080C0;" onmouseover="sh(584,584,-246,'01.09.2022 11,80');" onmouseout="hh();" /><rect x="590" y="-240" width="6" height="240" style="fill:transparent;" onmouseover="sh(593,593,-246,'01.10.2022 9,09');" onmouseout="hh();" /><rect x="590" y="-91" width="6" height="91" style="fill:#0080C0;" onmouseover="sh(593,593,-246,'01.10.2022 9,09');" onmouseout="hh();" /><rect x="599" y="-240" width="6" height="240" style="fill:transparent;" onmouseover="sh(602,602,-246,'01.11.2022 9,61');" onmouseout="hh();" /><rect x="599" y="-96" width="6" height="96" style="fill:#0080C0;" onmouseover="sh(602,602,-246,'01.11.2022 9,61');" onmouseout="hh();" /><rect x="608" y="-240" width="6" height="240" style="fill:transparent;" onmouseover="sh(611,605,-246,'01.12.2022 9,77');" onmouseout="hh();" /><rect x="608" y="-98" width="6" height="98" style="fill:#0080C0;" onmouseover="sh(611,605,-246,'01.12.2022 9,77');" onmouseout="hh();" /><rect x="617" y="-240" width="6" height="240" style="fill:transparent;" onmouseover="sh(620,605,-246,'01.01.2023 9,76');" onmouseout="hh();" /><rect x="617" y="-98" width="6" height="98" style="fill:#0080C0;" onmouseover="sh(620,605,-246,'01.01.2023 9,76');" onmouseout="hh();" /><rect x="626" y="-240" width="6" height="240" style="fill:transparent;" onmouseover="sh(629,605,-246,'01.02.2023 9,92');" onmouseout="hh();" /><rect x="626" y="-99" width="6" height="99" style="fill:#0080C0;" onmouseover="sh(629,605,-246,'01.02.2023 9,92');" onmouseout="hh();" /><rect x="635" y="-240" width="6" height="240" style="fill:transparent;" onmouseover="sh(638,605,-246,'01.03.2023 10,10');" onmouseout="hh();" /><rect x="635" y="-101" width="6" height="101" style="fill:#0080C0;" onmouseover="sh(638,605,-246,'01.03.2023 10,10');" onmouseout="hh();" /><rect x="644" y="-240" width="6" height="240" style="fill:transparent;" onmouseover="sh(647,605,-246,'01.04.2023 9,77');" onmouseout="hh();" /><rect x="644" y="-98" width="6" height="98" style="fill:#0080C0;" onmouseover="sh(647,605,-246,'01.04.2023 9,77');" onmouseout="hh();" /><rect x="653" y="-240" width="6" height="240" style="fill:transparent;" onmouseover="sh(656,605,-246,'01.05.2023 11,42');" onmouseout="hh();" /><rect x="653" y="-114" width="6" height="114" style="fill:#0080C0;" onmouseover="sh(656,605,-246,'01.05.2023 11,42');" onmouseout="hh();" /><rect x="662" y="-240" width="6" height="240" style="fill:transparent;" onmouseover="sh(665,605,-246,'01.06.2023 14,71');" onmouseout="hh();" /><rect x="662" y="-147" width="6" height="147" style="fill:#0080C0;" onmouseover="sh(665,605,-246,'01.06.2023 14,71');" onmouseout="hh();" />
<line x1="-6" y1="0" x2="675" y2="0" class="axes" /><line x1="0" y1="-256" x2="0" y2="0" class="axes" /><text x="-2" y="-260" style="text-anchor:end;">грн.</text>
<use xlink:href="#hintbox" id="usebox" x="0" y="0" style="visibility:hidden;" />
</svg>
