<?xml version="1.0" encoding="UTF-8" standalone="no"?>
<!DOCTYPE svg PUBLIC "-//W3C//DTD SVG 1.1//EN" "http://www.w3.org/Graphics/SVG/1.1/DTD/svg11.dtd">
<svg version="1.1" xmlns="http://www.w3.org/2000/svg" xmlns:xlink="http://www.w3.org/1999/xlink" xmlns:ev="http://www.w3.org/2001/xml-events" width="399" height="330" viewBox="-48 -272 399 330" preserveAspectRatio="none">
<style type="text/css"><![CDATA[
line { stroke-width:1px; }
line.axes { stroke:#505050; }
line.grid { stroke:#D8D8D8; }
rect.bg { fill:#FFFFFF; }
text { font-family:arial,sans-serif; font-size:12px; fill:#000000; }
]]></style>
<defs>
<g id="hintbox"><rect x="0" y="0" width="77" height="34" style="stroke:#505050; stroke-width:1px; fill:rgba(255,255,255,0.87);" /><text id="hint0" x="4" y="14"> </text><text x="7" y="28"></text><text id="hint1" x="73" y="28" style="text-anchor:end;"> </text></g>
<g id="hintline"><line x1="0" y1="-242" x2="0" y2="0" class="axes" style="stroke-dasharray:2 1" /></g>
</defs>
<script><![CDATA[
function shb(x,y,dat) {
ar=dat.split(' '); for (i=0; i<ar.length; ++i) { if (i&&ar[i]) ar[i]+=' грн.'; h=document.getElementById('hint'+i); h.textContent=ar[i]; }
u=document.getElementById('usebox'); u.setAttribute('x',x); u.setAttribute('y',y); u.setAttribute('style','visibility:visible;'); }
function hhb() { u=document.getElementById('usebox'); u.setAttribute('style','visibility:hidden;'); u.setAttribute('x','0'); u.setAttribute('y','0'); }
function shl(x) { u=document.getElementById('useline'); u.setAttribute('x',x); u.setAttribute('style','visibility:visible;'); }
function hhl() { u=document.getElementById('useline'); u.setAttribute('style','visibility:hidden;'); u.setAttribute('x','0'); }
function sh(xl,xb,y,dat) { shl(xl); shb(xb,y,dat); }
function hh() { hhb(); hhl(); }
]]></script>
<rect x="-48" y="-272" width="399" height="330" class="bg" />
<line x1="26" y1="0" x2="26" y2="4" class="axes" /><text x="31" y="8" transform="rotate(-90,31,8)" style="text-anchor:end;">07.2020</text><line x1="53" y1="0" x2="53" y2="4" class="axes" /><text x="58" y="8" transform="rotate(-90,58,8)" style="text-anchor:end;">10.2020</text><line x1="80" y1="0" x2="80" y2="4" class="axes" /><text x="85" y="8" transform="rotate(-90,85,8)" style="text-anchor:end;">01.2021</text><line x1="107" y1="0" x2="107" y2="4" class="axes" /><text x="112" y="8" transform="rotate(-90,112,8)" style="text-anchor:end;">04.2021</text><line x1="134" y1="0" x2="134" y2="4" class="axes" /><text x="139" y="8" transform="rotate(-90,139,8)" style="text-anchor:end;">07.2021</text><line x1="161" y1="0" x2="161" y2="4" class="axes" /><text x="166" y="8" transform="rotate(-90,166,8)" style="text-anchor:end;">10.2021</text><line x1="188" y1="0" x2="188" y2="4" class="axes" /><text x="193" y="8" transform="rotate(-90,193,8)" style="text-anchor:end;">01.2022</text><line x1="206" y1="0" x2="206" y2="4" class="axes" /><text x="211" y="8" transform="rotate(-90,211,8)" style="text-anchor:end;">04.2022</text><line x1="233" y1="0" x2="233" y2="4" class="axes" /><text x="238" y="8" transform="rotate(-90,238,8)" style="text-anchor:end;">07.2022</text><line x1="260" y1="0" x2="260" y2="4" class="axes" /><text x="265" y="8" transform="rotate(-90,265,8)" style="text-anchor:end;">10.2022</text><line x1="287" y1="0" x2="287" y2="4" class="axes" /><text x="292" y="8" transform="rotate(-90,292,8)" style="text-anchor:end;">01.2023</text><line x1="314" y1="0" x2="314" y2="4" class="axes" /><text x="319" y="8" transform="rotate(-90,319,8)" style="text-anchor:end;">04.2023</text>
<line x1="0" y1="-22" x2="339" y2="-22" class="grid" /><line x1="0" y1="-22" x2="-4" y2="-22" class="axes" /><text x="-8" y="-18" style="text-anchor:end;">15</text><line x1="0" y1="-44" x2="339" y2="-44" class="grid" /><line x1="0" y1="-44" x2="-4" y2="-44" class="axes" /><text x="-8" y="-40" style="text-anchor:end;">16</text><line x1="0" y1="-66" x2="339" y2="-66" class="grid" /><line x1="0" y1="-66" x2="-4" y2="-66" class="axes" /><text x="-8" y="-62" style="text-anchor:end;">17</text><line x1="0" y1="-88" x2="339" y2="-88" class="grid" /><line x1="0" y1="-88" x2="-4" y2="-88" class="axes" /><text x="-8" y="-84" style="text-anchor:end;">18</text><line x1="0" y1="-110" x2="339" y2="-110" class="grid" /><line x1="0" y1="-110" x2="-4" y2="-110" class="axes" /><text x="-8" y="-106" style="text-anchor:end;">19</text><line x1="0" y1="-132" x2="339" y2="-132" class="grid" /><line x1="0" y1="-132" x2="-4" y2="-132" class="axes" /><text x="-8" y="-128" style="text-anchor:end;">20</text><line x1="0" y1="-154" x2="339" y2="-154" class="grid" /><line x1="0" y1="-154" x2="-4" y2="-154" class="axes" /><text x="-8" y="-150" style="text-anchor:end;">21</text><line x1="0" y1="-176" x2="339" y2="-176" class="grid" /><line x1="0" y1="-176" x2="-4" y2="-176" class="axes" /><text x="-8" y="-172" style="text-anchor:end;">22</text><line x1="0" y1="-198" x2="339" y2="-198" class="grid" /><line x1="0" y1="-198" x2="-4" y2="-198" class="axes" /><text x="-8" y="-194" style="text-anchor:end;">23</text><line x1="0" y1="-220" x2="339" y2="-220" class="grid" /><line x1="0" y1="-220" x2="-4" y2="-220" class="axes" /><text x="-8" y="-216" style="text-anchor:end;">24</text><line x1="0" y1="-242" x2="339" y2="-242" class="grid" /><line x1="0" y1="-242" x2="-4" y2="-242" class="axes" /><text x="-8" y="-238" style="text-anchor:end;">25</text>
<use xlink:href="#hintline" id="useline" x="0" style="visibility:hidden;" />
<rect x="5" y="-242" width="6" height="242" style="fill:transparent;" onmouseover="sh(8,8,-248,'01.05.2020 16,90');" onmouseout="hh();" /><rect x="5" y="-64" width="6" height="64" style="fill:#0080C0;" onmouseover="sh(8,8,-248,'01.05.2020 16,90');" onmouseout="hh();" /><rect x="14" y="-242" width="6" height="242" style="fill:transparent;" onmouseover="sh(17,17,-248,'01.06.2020 16,90');" onmouseout="hh();" /><rect x="14" y="-64" width="6" height="64" style="fill:#0080C0;" onmouseover="sh(17,17,-248,'01.06.2020 16,90');" onmouseout="hh();" /><rect x="23" y="-242" width="6" height="242" style="fill:transparent;" onmouseover="sh(26,26,-248,'01.07.2020 16,90');" onmouseout="hh();" /><rect x="23" y="-64" width="6" height="64" style="fill:#0080C0;" onmouseover="sh(26,26,-248,'01.07.2020 16,90');" onmouseout="hh();" /><rect x="32" y="-242" width="6" height="242" style="fill:transparent;" onmouseover="sh(35,35,-248,'01.08.2020 17,50');" onmouseout="hh();" /><rect x="32" y="-77" width="6" height="77" style="fill:#0080C0;" onmouseover="sh(35,35,-248,'01.08.2020 17,50');" onmouseout="hh();" /><rect x="41" y="-242" width="6" height="242" style="fill:transparent;" onmouseover="sh(44,44,-248,'01.09.2020 17,90');" onmouseout="hh();" /><rect x="41" y="-86" width="6" height="86" style="fill:#0080C0;" onmouseover="sh(44,44,-248,'01.09.2020 17,90');" onmouseout="hh();" /><rect x="50" y="-242" width="6" height="242" style="fill:transparent;" onmouseover="sh(53,53,-248,'01.10.2020 18,45');" onmouseout="hh();" /><rect x="50" y="-98" width="6" height="98" style="fill:#0080C0;" onmouseover="sh(53,53,-248,'01.10.2020 18,45');" onmouseout="hh();" /><rect x="59" y="-242" width="6" height="242" style="fill:transparent;" onmouseover="sh(62,62,-248,'01.11.2020 18,51');" onmouseout="hh();" /><rect x="59" y="-99" width="6" height="99" style="fill:#0080C0;" onmouseover="sh(62,62,-248,'01.11.2020 18,51');" onmouseout="hh();" /><rect x="68" y="-242" width="6" height="242" style="fill:transparent;" onmouseover="sh(71,71,-248,'01.12.2020 19,15');" onmouseout="hh();" /><rect x="68" y="-113" width="6" height="113" style="fill:#0080C0;" onmouseover="sh(71,71,-248,'01.12.2020 19,15');" onmouseout="hh();" /><rect x="77" y="-242" width="6" height="242" style="fill:transparent;" onmouseover="sh(80,80,-248,'01.01.2021 19,13');" onmouseout="hh();" /><rect x="77" y="-113" width="6" height="113" style="fill:#0080C0;" onmouseover="sh(80,80,-248,'01.01.2021 19,13');" onmouseout="hh();" /><rect x="86" y="-242" width="6" height="242" style="fill:transparent;" onmouseover="sh(89,89,-248,'01.02.2021 19,14');" onmouseout="hh();" /><rect x="86" y="-113" width="6" height="113" style="fill:#0080C0;" onmouseover="sh(89,89,-248,'01.02.2021 19,14');" onmouseout="hh();" /><rect x="95" y="-242" width="6" height="242" style="fill:transparent;" onmouseover="sh(98,98,-248,'01.03.2021 20,45');" onmouseout="hh();" /><rect x="95" y="-142" width="6" height="142" style="fill:#0080C0;" onmouseover="sh(98,98,-248,'01.03.2021 20,45');" onmouseout="hh();" /><rect x="104" y="-242" width="6" height="242" style="fill:transparent;" onmouseover="sh(107,107,-248,'01.04.2021 20,45');" onmouseout="hh();" /><rect x="104" y="-142" width="6" height="142" style="fill:#0080C0;" onmouseover="sh(107,107,-248,'01.04.2021 20,45');" onmouseout="hh();" /><rect x="113" y="-242" width="6" height="242" style="fill:transparent;" onmouseover="sh(116,116,-248,'01.05.2021 20,45');" onmouseout="hh();" /><rect x="113" y="-142" width="6" height="142" style="fill:#0080C0;" onmouseover="sh(116,116,-248,'01.05.2021 20,45');" onmouseout="hh();" /><rect x="122" y="-242" width="6" height="242" style="fill:transparent;" onmouseover="sh(125,125,-248,'01.06.2021 20,45');" onmouseout="hh();" /><rect x="122" y="-142" width="6" height="142" style="fill:#0080C0;" onmouseover="sh(125,125,-248,'01.06.2021 20,45');" onmouseout="hh();" /><rect x="131" y="-242" width="6" height="242" style="fill:transparent;" onmouseover="sh(134,134,-248,'01.07.2021 20,45');" onmouseout="hh();" /><rect x="131" y="-142" width="6" height="142" style="fill:#0080C0;" onmouseover="sh(134,134,-248,'01.07.2021 20,45');" onmouseout="hh();" /><rect x="140" y="-242" width="6" height="242" style="fill:transparent;" onmouseover="sh(143,143,-248,'01.08.2021 20,45');" onmouseout="hh();" /><rect x="140" y="-142" width="6" height="142" style="fill:#0080C0;" onmouseover="sh(143,143,-248,'01.08.2021 20,45');" onmouseout="hh();" /><rect x="149" y="-242" width="6" height="242" style="fill:transparent;" onmouseover="sh(152,152,-248,'01.09.2021 20,45');" onmouseout="hh();" /><rect x="149" y="-142" width="6" height="142" style="fill:#0080C0;" onmouseover="sh(152,152,-248,'01.09.2021 20,45');" onmouseout="hh();" /><rect x="158" y="-242" width="6" height="242" style="fill:transparent;" onmouseover="sh(161,161,-248,'01.10.2021 19,95');" onmouseout="hh();" /><rect x="158" y="-131" width="6" height="131" style="fill:#0080C0;" onmouseover="sh(161,161,-248,'01.10.2021 19,95');" onmouseout="hh();" /><rect x="167" y="-242" width="6" height="242" style="fill:transparent;" onmouseover="sh(170,170,-248,'01.11.2021 20,73');" onmouseout="hh();" /><rect x="167" y="-148" width="6" height="148" style="fill:#0080C0;" onmouseover="sh(170,170,-248,'01.11.2021 20,73');" onmouseout="hh();" /><rect x="176" y="-242" width="6" height="242" style="fill:transparent;" onmouseover="sh(179,179,-248,'01.12.2021 21,20');" onmouseout="hh();" /><rect x="176" y="-158" width="6" height="158" style="fill:#0080C0;" onmouseover="sh(179,179,-248,'01.12.2021 21,20');" onmouseout="hh();" /><rect x="185" y="-242" width="6" height="242" style="fill:transparent;" onmouseover="sh(188,188,-248,'01.01.2022 20,07');" onmouseout="hh();" /><rect x="185" y="-134" width="6" height="134" style="fill:#0080C0;" onmouseover="sh(188,188,-248,'01.01.2022 20,07');" onmouseout="hh();" /><rect x="194" y="-242" width="6" height="242" style="fill:transparent;" onmouseover="sh(197,197,-248,'01.02.2022 20,42');" onmouseout="hh();" /><rect x="194" y="-141" width="6" height="141" style="fill:#0080C0;" onmouseover="sh(197,197,-248,'01.02.2022 20,42');" onmouseout="hh();" /><rect x="203" y="-242" width="6" height="242" style="fill:transparent;" onmouseover="sh(206,206,-248,'01.04.2022 18,90');" onmouseout="hh();" /><rect x="203" y="-108" width="6" height="108" style="fill:#0080C0;" onmouseover="sh(206,206,-248,'01.04.2022 18,90');" onmouseout="hh();" /><rect x="212" y="-242" width="6" height="242" style="fill:transparent;" onmouseover="sh(215,215,-248,'01.05.2022 18,90');" onmouseout="hh();" /><rect x="212" y="-108" width="6" height="108" style="fill:#0080C0;" onmouseover="sh(215,215,-248,'01.05.2022 18,90');" onmouseout="hh();" /><rect x="221" y="-242" width="6" height="242" style="fill:transparent;" onmouseover="sh(224,224,-248,'01.06.2022 20,97');" onmouseout="hh();" /><rect x="221" y="-153" width="6" height="153" style="fill:#0080C0;" onmouseover="sh(224,224,-248,'01.06.2022 20,97');" onmouseout="hh();" /><rect x="230" y="-242" width="6" height="242" style="fill:transparent;" onmouseover="sh(233,233,-248,'01.07.2022 21,35');" onmouseout="hh();" /><rect x="230" y="-162" width="6" height="162" style="fill:#0080C0;" onmouseover="sh(233,233,-248,'01.07.2022 21,35');" onmouseout="hh();" /><rect x="239" y="-242" width="6" height="242" style="fill:transparent;" onmouseover="sh(242,242,-248,'01.08.2022 21,35');" onmouseout="hh();" /><rect x="239" y="-162" width="6" height="162" style="fill:#0080C0;" onmouseover="sh(242,242,-248,'01.08.2022 21,35');" onmouseout="hh();" /><rect x="248" y="-242" width="6" height="242" style="fill:transparent;" onmouseover="sh(251,251,-248,'01.09.2022 21,77');" onmouseout="hh();" /><rect x="248" y="-171" width="6" height="171" style="fill:#0080C0;" onmouseover="sh(251,251,-248,'01.09.2022 21,77');" onmouseout="hh();" /><rect x="257" y="-242" width="6" height="242" style="fill:transparent;" onmouseover="sh(260,260,-248,'01.10.2022 22,24');" onmouseout="hh();" /><rect x="257" y="-181" width="6" height="181" style="fill:#0080C0;" onmouseover="sh(260,260,-248,'01.10.2022 22,24');" onmouseout="hh();" /><rect x="266" y="-242" width="6" height="242" style="fill:transparent;" onmouseover="sh(269,269,-248,'01.11.2022 22,69');" onmouseout="hh();" /><rect x="266" y="-191" width="6" height="191" style="fill:#0080C0;" onmouseover="sh(269,269,-248,'01.11.2022 22,69');" onmouseout="hh();" /><rect x="275" y="-242" width="6" height="242" style="fill:transparent;" onmouseover="sh(278,272,-248,'01.12.2022 22,65');" onmouseout="hh();" /><rect x="275" y="-190" width="6" height="190" style="fill:#0080C0;" onmouseover="sh(278,272,-248,'01.12.2022 22,65');" onmouseout="hh();" /><rect x="284" y="-242" width="6" height="242" style="fill:transparent;" onmouseover="sh(287,272,-248,'01.01.2023 22,65');" onmouseout="hh();" /><rect x="284" y="-190" width="6" height="190" style="fill:#0080C0;" onmouseover="sh(287,272,-248,'01.01.2023 22,65');" onmouseout="hh();" /><rect x="293" y="-242" width="6" height="242" style="fill:transparent;" onmouseover="sh(296,272,-248,'01.02.2023 22,44');" onmouseout="hh();" /><rect x="293" y="-186" width="6" height="186" style="fill:#0080C0;" onmouseover="sh(296,272,-248,'01.02.2023 22,44');" onmouseout="hh();" /><rect x="302" y="-242" width="6" height="242" style="fill:transparent;" onmouseover="sh(305,272,-248,'01.03.2023 22,07');" onmouseout="hh();" /><rect x="302" y="-178" width="6" height="178" style="fill:#0080C0;" onmouseover="sh(305,272,-248,'01.03.2023 22,07');" onmouseout="hh();" /><rect x="311" y="-242" width="6" height="242" style="fill:transparent;" onmouseover="sh(314,272,-248,'01.04.2023 23,30');" onmouseout="hh();" /><rect x="311" y="-204" width="6" height="204" style="fill:#0080C0;" onmouseover="sh(314,272,-248,'01.04.2023 23,30');" onmouseout="hh();" /><rect x="320" y="-242" width="6" height="242" style="fill:transparent;" onmouseover="sh(323,272,-248,'01.05.2023 21,95');" onmouseout="hh();" /><rect x="320" y="-175" width="6" height="175" style="fill:#0080C0;" onmouseover="sh(323,272,-248,'01.05.2023 21,95');" onmouseout="hh();" /><rect x="329" y="-242" width="6" height="242" style="fill:transparent;" onmouseover="sh(332,272,-248,'01.06.2023 21,95');" onmouseout="hh();" /><rect x="329" y="-175" width="6" height="175" style="fill:#0080C0;" onmouseover="sh(332,272,-248,'01.06.2023 21,95');" onmouseout="hh();" />
<line x1="-6" y1="0" x2="342" y2="0" class="axes" /><line x1="0" y1="-258" x2="0" y2="0" class="axes" /><text x="-2" y="-262" style="text-anchor:end;">грн.</text>
<use xlink:href="#hintbox" id="usebox" x="0" y="0" style="visibility:hidden;" />
</svg>
