<?xml version="1.0" encoding="UTF-8" standalone="no"?>
<!DOCTYPE svg PUBLIC "-//W3C//DTD SVG 1.1//EN" "http://www.w3.org/Graphics/SVG/1.1/DTD/svg11.dtd">
<svg version="1.1" xmlns="http://www.w3.org/2000/svg" xmlns:xlink="http://www.w3.org/1999/xlink" xmlns:ev="http://www.w3.org/2001/xml-events" width="741" height="330" viewBox="-48 -272 741 330" preserveAspectRatio="none">
<style type="text/css"><![CDATA[
line { stroke-width:1px; }
line.axes { stroke:#505050; }
line.grid { stroke:#D8D8D8; }
rect.bg { fill:#FFFFFF; }
text { font-family:arial,sans-serif; font-size:12px; fill:#000000; }
]]></style>
<defs>
<g id="hintbox"><rect x="0" y="0" width="77" height="34" style="stroke:#505050; stroke-width:1px; fill:rgba(255,255,255,0.87);" /><text id="hint0" x="4" y="14"> </text><text x="7" y="28"></text><text id="hint1" x="73" y="28" style="text-anchor:end;"> </text></g>
<g id="hintline"><line x1="0" y1="-242" x2="0" y2="0" class="axes" style="stroke-dasharray:2 1" /></g>
</defs>
<script><![CDATA[
function shb(x,y,dat) {
ar=dat.split(' '); for (i=0; i<ar.length; ++i) { if (i&&ar[i]) ar[i]+=' грн.'; h=document.getElementById('hint'+i); h.textContent=ar[i]; }
u=document.getElementById('usebox'); u.setAttribute('x',x); u.setAttribute('y',y); u.setAttribute('style','visibility:visible;'); }
function hhb() { u=document.getElementById('usebox'); u.setAttribute('style','visibility:hidden;'); u.setAttribute('x','0'); u.setAttribute('y','0'); }
function shl(x) { u=document.getElementById('useline'); u.setAttribute('x',x); u.setAttribute('style','visibility:visible;'); }
function hhl() { u=document.getElementById('useline'); u.setAttribute('style','visibility:hidden;'); u.setAttribute('x','0'); }
function sh(xl,xb,y,dat) { shl(xl); shb(xb,y,dat); }
function hh() { hhb(); hhl(); }
]]></script>
<rect x="-48" y="-272" width="741" height="330" class="bg" />
<line x1="17" y1="0" x2="17" y2="4" class="axes" /><text x="22" y="8" transform="rotate(-90,22,8)" style="text-anchor:end;">04.2017</text><line x1="44" y1="0" x2="44" y2="4" class="axes" /><text x="49" y="8" transform="rotate(-90,49,8)" style="text-anchor:end;">07.2017</text><line x1="71" y1="0" x2="71" y2="4" class="axes" /><text x="76" y="8" transform="rotate(-90,76,8)" style="text-anchor:end;">10.2017</text><line x1="98" y1="0" x2="98" y2="4" class="axes" /><text x="103" y="8" transform="rotate(-90,103,8)" style="text-anchor:end;">01.2018</text><line x1="125" y1="0" x2="125" y2="4" class="axes" /><text x="130" y="8" transform="rotate(-90,130,8)" style="text-anchor:end;">04.2018</text><line x1="152" y1="0" x2="152" y2="4" class="axes" /><text x="157" y="8" transform="rotate(-90,157,8)" style="text-anchor:end;">07.2018</text><line x1="179" y1="0" x2="179" y2="4" class="axes" /><text x="184" y="8" transform="rotate(-90,184,8)" style="text-anchor:end;">10.2018</text><line x1="206" y1="0" x2="206" y2="4" class="axes" /><text x="211" y="8" transform="rotate(-90,211,8)" style="text-anchor:end;">01.2019</text><line x1="233" y1="0" x2="233" y2="4" class="axes" /><text x="238" y="8" transform="rotate(-90,238,8)" style="text-anchor:end;">04.2019</text><line x1="260" y1="0" x2="260" y2="4" class="axes" /><text x="265" y="8" transform="rotate(-90,265,8)" style="text-anchor:end;">07.2019</text><line x1="287" y1="0" x2="287" y2="4" class="axes" /><text x="292" y="8" transform="rotate(-90,292,8)" style="text-anchor:end;">10.2019</text><line x1="314" y1="0" x2="314" y2="4" class="axes" /><text x="319" y="8" transform="rotate(-90,319,8)" style="text-anchor:end;">01.2020</text><line x1="341" y1="0" x2="341" y2="4" class="axes" /><text x="346" y="8" transform="rotate(-90,346,8)" style="text-anchor:end;">04.2020</text><line x1="368" y1="0" x2="368" y2="4" class="axes" /><text x="373" y="8" transform="rotate(-90,373,8)" style="text-anchor:end;">07.2020</text><line x1="395" y1="0" x2="395" y2="4" class="axes" /><text x="400" y="8" transform="rotate(-90,400,8)" style="text-anchor:end;">10.2020</text><line x1="422" y1="0" x2="422" y2="4" class="axes" /><text x="427" y="8" transform="rotate(-90,427,8)" style="text-anchor:end;">01.2021</text><line x1="449" y1="0" x2="449" y2="4" class="axes" /><text x="454" y="8" transform="rotate(-90,454,8)" style="text-anchor:end;">04.2021</text><line x1="476" y1="0" x2="476" y2="4" class="axes" /><text x="481" y="8" transform="rotate(-90,481,8)" style="text-anchor:end;">07.2021</text><line x1="503" y1="0" x2="503" y2="4" class="axes" /><text x="508" y="8" transform="rotate(-90,508,8)" style="text-anchor:end;">10.2021</text><line x1="530" y1="0" x2="530" y2="4" class="axes" /><text x="535" y="8" transform="rotate(-90,535,8)" style="text-anchor:end;">01.2022</text><line x1="575" y1="0" x2="575" y2="4" class="axes" /><text x="580" y="8" transform="rotate(-90,580,8)" style="text-anchor:end;">07.2022</text><line x1="602" y1="0" x2="602" y2="4" class="axes" /><text x="607" y="8" transform="rotate(-90,607,8)" style="text-anchor:end;">10.2022</text><line x1="629" y1="0" x2="629" y2="4" class="axes" /><text x="634" y="8" transform="rotate(-90,634,8)" style="text-anchor:end;">01.2023</text><line x1="656" y1="0" x2="656" y2="4" class="axes" /><text x="661" y="8" transform="rotate(-90,661,8)" style="text-anchor:end;">04.2023</text>
<line x1="0" y1="-22" x2="681" y2="-22" class="grid" /><line x1="0" y1="-22" x2="-4" y2="-22" class="axes" /><text x="-8" y="-18" style="text-anchor:end;">8</text><line x1="0" y1="-44" x2="681" y2="-44" class="grid" /><line x1="0" y1="-44" x2="-4" y2="-44" class="axes" /><text x="-8" y="-40" style="text-anchor:end;">10</text><line x1="0" y1="-66" x2="681" y2="-66" class="grid" /><line x1="0" y1="-66" x2="-4" y2="-66" class="axes" /><text x="-8" y="-62" style="text-anchor:end;">12</text><line x1="0" y1="-88" x2="681" y2="-88" class="grid" /><line x1="0" y1="-88" x2="-4" y2="-88" class="axes" /><text x="-8" y="-84" style="text-anchor:end;">14</text><line x1="0" y1="-110" x2="681" y2="-110" class="grid" /><line x1="0" y1="-110" x2="-4" y2="-110" class="axes" /><text x="-8" y="-106" style="text-anchor:end;">16</text><line x1="0" y1="-132" x2="681" y2="-132" class="grid" /><line x1="0" y1="-132" x2="-4" y2="-132" class="axes" /><text x="-8" y="-128" style="text-anchor:end;">18</text><line x1="0" y1="-154" x2="681" y2="-154" class="grid" /><line x1="0" y1="-154" x2="-4" y2="-154" class="axes" /><text x="-8" y="-150" style="text-anchor:end;">20</text><line x1="0" y1="-176" x2="681" y2="-176" class="grid" /><line x1="0" y1="-176" x2="-4" y2="-176" class="axes" /><text x="-8" y="-172" style="text-anchor:end;">22</text><line x1="0" y1="-198" x2="681" y2="-198" class="grid" /><line x1="0" y1="-198" x2="-4" y2="-198" class="axes" /><text x="-8" y="-194" style="text-anchor:end;">24</text><line x1="0" y1="-220" x2="681" y2="-220" class="grid" /><line x1="0" y1="-220" x2="-4" y2="-220" class="axes" /><text x="-8" y="-216" style="text-anchor:end;">26</text><line x1="0" y1="-242" x2="681" y2="-242" class="grid" /><line x1="0" y1="-242" x2="-4" y2="-242" class="axes" /><text x="-8" y="-238" style="text-anchor:end;">28</text>
<use xlink:href="#hintline" id="useline" x="0" style="visibility:hidden;" />
<rect x="5" y="-242" width="6" height="242" style="fill:transparent;" onmouseover="sh(8,8,-248,'01.03.2017 11,23');" onmouseout="hh();" /><rect x="5" y="-58" width="6" height="58" style="fill:#0080C0;" onmouseover="sh(8,8,-248,'01.03.2017 11,23');" onmouseout="hh();" /><rect x="14" y="-242" width="6" height="242" style="fill:transparent;" onmouseover="sh(17,17,-248,'01.04.2017 11,23');" onmouseout="hh();" /><rect x="14" y="-58" width="6" height="58" style="fill:#0080C0;" onmouseover="sh(17,17,-248,'01.04.2017 11,23');" onmouseout="hh();" /><rect x="23" y="-242" width="6" height="242" style="fill:transparent;" onmouseover="sh(26,26,-248,'01.05.2017 11,28');" onmouseout="hh();" /><rect x="23" y="-58" width="6" height="58" style="fill:#0080C0;" onmouseover="sh(26,26,-248,'01.05.2017 11,28');" onmouseout="hh();" /><rect x="32" y="-242" width="6" height="242" style="fill:transparent;" onmouseover="sh(35,35,-248,'01.06.2017 11,29');" onmouseout="hh();" /><rect x="32" y="-58" width="6" height="58" style="fill:#0080C0;" onmouseover="sh(35,35,-248,'01.06.2017 11,29');" onmouseout="hh();" /><rect x="41" y="-242" width="6" height="242" style="fill:transparent;" onmouseover="sh(44,44,-248,'01.07.2017 11,26');" onmouseout="hh();" /><rect x="41" y="-58" width="6" height="58" style="fill:#0080C0;" onmouseover="sh(44,44,-248,'01.07.2017 11,26');" onmouseout="hh();" /><rect x="50" y="-242" width="6" height="242" style="fill:transparent;" onmouseover="sh(53,53,-248,'01.08.2017 11,32');" onmouseout="hh();" /><rect x="50" y="-59" width="6" height="59" style="fill:#0080C0;" onmouseover="sh(53,53,-248,'01.08.2017 11,32');" onmouseout="hh();" /><rect x="59" y="-242" width="6" height="242" style="fill:transparent;" onmouseover="sh(62,62,-248,'01.09.2017 11,34');" onmouseout="hh();" /><rect x="59" y="-59" width="6" height="59" style="fill:#0080C0;" onmouseover="sh(62,62,-248,'01.09.2017 11,34');" onmouseout="hh();" /><rect x="68" y="-242" width="6" height="242" style="fill:transparent;" onmouseover="sh(71,71,-248,'01.10.2017 11,40');" onmouseout="hh();" /><rect x="68" y="-59" width="6" height="59" style="fill:#0080C0;" onmouseover="sh(71,71,-248,'01.10.2017 11,40');" onmouseout="hh();" /><rect x="77" y="-242" width="6" height="242" style="fill:transparent;" onmouseover="sh(80,80,-248,'01.11.2017 11,33');" onmouseout="hh();" /><rect x="77" y="-59" width="6" height="59" style="fill:#0080C0;" onmouseover="sh(80,80,-248,'01.11.2017 11,33');" onmouseout="hh();" /><rect x="86" y="-242" width="6" height="242" style="fill:transparent;" onmouseover="sh(89,89,-248,'01.12.2017 11,32');" onmouseout="hh();" /><rect x="86" y="-59" width="6" height="59" style="fill:#0080C0;" onmouseover="sh(89,89,-248,'01.12.2017 11,32');" onmouseout="hh();" /><rect x="95" y="-242" width="6" height="242" style="fill:transparent;" onmouseover="sh(98,98,-248,'01.01.2018 11,35');" onmouseout="hh();" /><rect x="95" y="-59" width="6" height="59" style="fill:#0080C0;" onmouseover="sh(98,98,-248,'01.01.2018 11,35');" onmouseout="hh();" /><rect x="104" y="-242" width="6" height="242" style="fill:transparent;" onmouseover="sh(107,107,-248,'01.02.2018 11,34');" onmouseout="hh();" /><rect x="104" y="-59" width="6" height="59" style="fill:#0080C0;" onmouseover="sh(107,107,-248,'01.02.2018 11,34');" onmouseout="hh();" /><rect x="113" y="-242" width="6" height="242" style="fill:transparent;" onmouseover="sh(116,116,-248,'01.03.2018 12,44');" onmouseout="hh();" /><rect x="113" y="-71" width="6" height="71" style="fill:#0080C0;" onmouseover="sh(116,116,-248,'01.03.2018 12,44');" onmouseout="hh();" /><rect x="122" y="-242" width="6" height="242" style="fill:transparent;" onmouseover="sh(125,125,-248,'01.04.2018 12,49');" onmouseout="hh();" /><rect x="122" y="-71" width="6" height="71" style="fill:#0080C0;" onmouseover="sh(125,125,-248,'01.04.2018 12,49');" onmouseout="hh();" /><rect x="131" y="-242" width="6" height="242" style="fill:transparent;" onmouseover="sh(134,134,-248,'01.05.2018 12,75');" onmouseout="hh();" /><rect x="131" y="-74" width="6" height="74" style="fill:#0080C0;" onmouseover="sh(134,134,-248,'01.05.2018 12,75');" onmouseout="hh();" /><rect x="140" y="-242" width="6" height="242" style="fill:transparent;" onmouseover="sh(143,143,-248,'01.06.2018 12,74');" onmouseout="hh();" /><rect x="140" y="-74" width="6" height="74" style="fill:#0080C0;" onmouseover="sh(143,143,-248,'01.06.2018 12,74');" onmouseout="hh();" /><rect x="149" y="-242" width="6" height="242" style="fill:transparent;" onmouseover="sh(152,152,-248,'01.07.2018 12,89');" onmouseout="hh();" /><rect x="149" y="-76" width="6" height="76" style="fill:#0080C0;" onmouseover="sh(152,152,-248,'01.07.2018 12,89');" onmouseout="hh();" /><rect x="158" y="-242" width="6" height="242" style="fill:transparent;" onmouseover="sh(161,161,-248,'01.08.2018 13,07');" onmouseout="hh();" /><rect x="158" y="-78" width="6" height="78" style="fill:#0080C0;" onmouseover="sh(161,161,-248,'01.08.2018 13,07');" onmouseout="hh();" /><rect x="167" y="-242" width="6" height="242" style="fill:transparent;" onmouseover="sh(170,170,-248,'01.09.2018 13,01');" onmouseout="hh();" /><rect x="167" y="-77" width="6" height="77" style="fill:#0080C0;" onmouseover="sh(170,170,-248,'01.09.2018 13,01');" onmouseout="hh();" /><rect x="176" y="-242" width="6" height="242" style="fill:transparent;" onmouseover="sh(179,179,-248,'01.10.2018 12,00');" onmouseout="hh();" /><rect x="176" y="-66" width="6" height="66" style="fill:#0080C0;" onmouseover="sh(179,179,-248,'01.10.2018 12,00');" onmouseout="hh();" /><rect x="185" y="-242" width="6" height="242" style="fill:transparent;" onmouseover="sh(188,188,-248,'01.11.2018 13,73');" onmouseout="hh();" /><rect x="185" y="-85" width="6" height="85" style="fill:#0080C0;" onmouseover="sh(188,188,-248,'01.11.2018 13,73');" onmouseout="hh();" /><rect x="194" y="-242" width="6" height="242" style="fill:transparent;" onmouseover="sh(197,197,-248,'01.12.2018 14,58');" onmouseout="hh();" /><rect x="194" y="-94" width="6" height="94" style="fill:#0080C0;" onmouseover="sh(197,197,-248,'01.12.2018 14,58');" onmouseout="hh();" /><rect x="203" y="-242" width="6" height="242" style="fill:transparent;" onmouseover="sh(206,206,-248,'01.01.2019 14,12');" onmouseout="hh();" /><rect x="203" y="-89" width="6" height="89" style="fill:#0080C0;" onmouseover="sh(206,206,-248,'01.01.2019 14,12');" onmouseout="hh();" /><rect x="212" y="-242" width="6" height="242" style="fill:transparent;" onmouseover="sh(215,215,-248,'01.02.2019 14,01');" onmouseout="hh();" /><rect x="212" y="-88" width="6" height="88" style="fill:#0080C0;" onmouseover="sh(215,215,-248,'01.02.2019 14,01');" onmouseout="hh();" /><rect x="221" y="-242" width="6" height="242" style="fill:transparent;" onmouseover="sh(224,224,-248,'01.03.2019 14,01');" onmouseout="hh();" /><rect x="221" y="-88" width="6" height="88" style="fill:#0080C0;" onmouseover="sh(224,224,-248,'01.03.2019 14,01');" onmouseout="hh();" /><rect x="230" y="-242" width="6" height="242" style="fill:transparent;" onmouseover="sh(233,233,-248,'01.04.2019 13,76');" onmouseout="hh();" /><rect x="230" y="-85" width="6" height="85" style="fill:#0080C0;" onmouseover="sh(233,233,-248,'01.04.2019 13,76');" onmouseout="hh();" /><rect x="239" y="-242" width="6" height="242" style="fill:transparent;" onmouseover="sh(242,242,-248,'01.05.2019 14,24');" onmouseout="hh();" /><rect x="239" y="-91" width="6" height="91" style="fill:#0080C0;" onmouseover="sh(242,242,-248,'01.05.2019 14,24');" onmouseout="hh();" /><rect x="248" y="-242" width="6" height="242" style="fill:transparent;" onmouseover="sh(251,251,-248,'01.06.2019 13,84');" onmouseout="hh();" /><rect x="248" y="-86" width="6" height="86" style="fill:#0080C0;" onmouseover="sh(251,251,-248,'01.06.2019 13,84');" onmouseout="hh();" /><rect x="257" y="-242" width="6" height="242" style="fill:transparent;" onmouseover="sh(260,260,-248,'01.07.2019 14,06');" onmouseout="hh();" /><rect x="257" y="-89" width="6" height="89" style="fill:#0080C0;" onmouseover="sh(260,260,-248,'01.07.2019 14,06');" onmouseout="hh();" /><rect x="266" y="-242" width="6" height="242" style="fill:transparent;" onmouseover="sh(269,269,-248,'01.08.2019 14,41');" onmouseout="hh();" /><rect x="266" y="-92" width="6" height="92" style="fill:#0080C0;" onmouseover="sh(269,269,-248,'01.08.2019 14,41');" onmouseout="hh();" /><rect x="275" y="-242" width="6" height="242" style="fill:transparent;" onmouseover="sh(278,278,-248,'01.09.2019 15,06');" onmouseout="hh();" /><rect x="275" y="-100" width="6" height="100" style="fill:#0080C0;" onmouseover="sh(278,278,-248,'01.09.2019 15,06');" onmouseout="hh();" /><rect x="284" y="-242" width="6" height="242" style="fill:transparent;" onmouseover="sh(287,287,-248,'01.10.2019 16,16');" onmouseout="hh();" /><rect x="284" y="-112" width="6" height="112" style="fill:#0080C0;" onmouseover="sh(287,287,-248,'01.10.2019 16,16');" onmouseout="hh();" /><rect x="293" y="-242" width="6" height="242" style="fill:transparent;" onmouseover="sh(296,296,-248,'01.11.2019 16,15');" onmouseout="hh();" /><rect x="293" y="-112" width="6" height="112" style="fill:#0080C0;" onmouseover="sh(296,296,-248,'01.11.2019 16,15');" onmouseout="hh();" /><rect x="302" y="-242" width="6" height="242" style="fill:transparent;" onmouseover="sh(305,305,-248,'01.12.2019 16,15');" onmouseout="hh();" /><rect x="302" y="-112" width="6" height="112" style="fill:#0080C0;" onmouseover="sh(305,305,-248,'01.12.2019 16,15');" onmouseout="hh();" /><rect x="311" y="-242" width="6" height="242" style="fill:transparent;" onmouseover="sh(314,314,-248,'01.01.2020 15,39');" onmouseout="hh();" /><rect x="311" y="-103" width="6" height="103" style="fill:#0080C0;" onmouseover="sh(314,314,-248,'01.01.2020 15,39');" onmouseout="hh();" /><rect x="320" y="-242" width="6" height="242" style="fill:transparent;" onmouseover="sh(323,323,-248,'01.02.2020 15,39');" onmouseout="hh();" /><rect x="320" y="-103" width="6" height="103" style="fill:#0080C0;" onmouseover="sh(323,323,-248,'01.02.2020 15,39');" onmouseout="hh();" /><rect x="329" y="-242" width="6" height="242" style="fill:transparent;" onmouseover="sh(332,332,-248,'01.03.2020 15,39');" onmouseout="hh();" /><rect x="329" y="-103" width="6" height="103" style="fill:#0080C0;" onmouseover="sh(332,332,-248,'01.03.2020 15,39');" onmouseout="hh();" /><rect x="338" y="-242" width="6" height="242" style="fill:transparent;" onmouseover="sh(341,341,-248,'01.04.2020 15,39');" onmouseout="hh();" /><rect x="338" y="-103" width="6" height="103" style="fill:#0080C0;" onmouseover="sh(341,341,-248,'01.04.2020 15,39');" onmouseout="hh();" /><rect x="347" y="-242" width="6" height="242" style="fill:transparent;" onmouseover="sh(350,350,-248,'01.05.2020 15,39');" onmouseout="hh();" /><rect x="347" y="-103" width="6" height="103" style="fill:#0080C0;" onmouseover="sh(350,350,-248,'01.05.2020 15,39');" onmouseout="hh();" /><rect x="356" y="-242" width="6" height="242" style="fill:transparent;" onmouseover="sh(359,359,-248,'01.06.2020 15,19');" onmouseout="hh();" /><rect x="356" y="-101" width="6" height="101" style="fill:#0080C0;" onmouseover="sh(359,359,-248,'01.06.2020 15,19');" onmouseout="hh();" /><rect x="365" y="-242" width="6" height="242" style="fill:transparent;" onmouseover="sh(368,368,-248,'01.07.2020 15,73');" onmouseout="hh();" /><rect x="365" y="-107" width="6" height="107" style="fill:#0080C0;" onmouseover="sh(368,368,-248,'01.07.2020 15,73');" onmouseout="hh();" /><rect x="374" y="-242" width="6" height="242" style="fill:transparent;" onmouseover="sh(377,377,-248,'01.08.2020 15,43');" onmouseout="hh();" /><rect x="374" y="-104" width="6" height="104" style="fill:#0080C0;" onmouseover="sh(377,377,-248,'01.08.2020 15,43');" onmouseout="hh();" /><rect x="383" y="-242" width="6" height="242" style="fill:transparent;" onmouseover="sh(386,386,-248,'01.09.2020 15,19');" onmouseout="hh();" /><rect x="383" y="-101" width="6" height="101" style="fill:#0080C0;" onmouseover="sh(386,386,-248,'01.09.2020 15,19');" onmouseout="hh();" /><rect x="392" y="-242" width="6" height="242" style="fill:transparent;" onmouseover="sh(395,395,-248,'01.10.2020 16,11');" onmouseout="hh();" /><rect x="392" y="-111" width="6" height="111" style="fill:#0080C0;" onmouseover="sh(395,395,-248,'01.10.2020 16,11');" onmouseout="hh();" /><rect x="401" y="-242" width="6" height="242" style="fill:transparent;" onmouseover="sh(404,404,-248,'01.11.2020 16,00');" onmouseout="hh();" /><rect x="401" y="-110" width="6" height="110" style="fill:#0080C0;" onmouseover="sh(404,404,-248,'01.11.2020 16,00');" onmouseout="hh();" /><rect x="410" y="-242" width="6" height="242" style="fill:transparent;" onmouseover="sh(413,413,-248,'01.12.2020 16,94');" onmouseout="hh();" /><rect x="410" y="-120" width="6" height="120" style="fill:#0080C0;" onmouseover="sh(413,413,-248,'01.12.2020 16,94');" onmouseout="hh();" /><rect x="419" y="-242" width="6" height="242" style="fill:transparent;" onmouseover="sh(422,422,-248,'01.01.2021 16,39');" onmouseout="hh();" /><rect x="419" y="-114" width="6" height="114" style="fill:#0080C0;" onmouseover="sh(422,422,-248,'01.01.2021 16,39');" onmouseout="hh();" /><rect x="428" y="-242" width="6" height="242" style="fill:transparent;" onmouseover="sh(431,431,-248,'01.02.2021 17,22');" onmouseout="hh();" /><rect x="428" y="-123" width="6" height="123" style="fill:#0080C0;" onmouseover="sh(431,431,-248,'01.02.2021 17,22');" onmouseout="hh();" /><rect x="437" y="-242" width="6" height="242" style="fill:transparent;" onmouseover="sh(440,440,-248,'01.03.2021 17,66');" onmouseout="hh();" /><rect x="437" y="-128" width="6" height="128" style="fill:#0080C0;" onmouseover="sh(440,440,-248,'01.03.2021 17,66');" onmouseout="hh();" /><rect x="446" y="-242" width="6" height="242" style="fill:transparent;" onmouseover="sh(449,449,-248,'01.04.2021 16,62');" onmouseout="hh();" /><rect x="446" y="-117" width="6" height="117" style="fill:#0080C0;" onmouseover="sh(449,449,-248,'01.04.2021 16,62');" onmouseout="hh();" /><rect x="455" y="-242" width="6" height="242" style="fill:transparent;" onmouseover="sh(458,458,-248,'01.05.2021 17,58');" onmouseout="hh();" /><rect x="455" y="-127" width="6" height="127" style="fill:#0080C0;" onmouseover="sh(458,458,-248,'01.05.2021 17,58');" onmouseout="hh();" /><rect x="464" y="-242" width="6" height="242" style="fill:transparent;" onmouseover="sh(467,467,-248,'01.06.2021 17,89');" onmouseout="hh();" /><rect x="464" y="-131" width="6" height="131" style="fill:#0080C0;" onmouseover="sh(467,467,-248,'01.06.2021 17,89');" onmouseout="hh();" /><rect x="473" y="-242" width="6" height="242" style="fill:transparent;" onmouseover="sh(476,476,-248,'01.07.2021 17,24');" onmouseout="hh();" /><rect x="473" y="-124" width="6" height="124" style="fill:#0080C0;" onmouseover="sh(476,476,-248,'01.07.2021 17,24');" onmouseout="hh();" /><rect x="482" y="-242" width="6" height="242" style="fill:transparent;" onmouseover="sh(485,485,-248,'01.08.2021 17,48');" onmouseout="hh();" /><rect x="482" y="-126" width="6" height="126" style="fill:#0080C0;" onmouseover="sh(485,485,-248,'01.08.2021 17,48');" onmouseout="hh();" /><rect x="491" y="-242" width="6" height="242" style="fill:transparent;" onmouseover="sh(494,494,-248,'01.09.2021 17,80');" onmouseout="hh();" /><rect x="491" y="-130" width="6" height="130" style="fill:#0080C0;" onmouseover="sh(494,494,-248,'01.09.2021 17,80');" onmouseout="hh();" /><rect x="500" y="-242" width="6" height="242" style="fill:transparent;" onmouseover="sh(503,503,-248,'01.10.2021 17,80');" onmouseout="hh();" /><rect x="500" y="-130" width="6" height="130" style="fill:#0080C0;" onmouseover="sh(503,503,-248,'01.10.2021 17,80');" onmouseout="hh();" /><rect x="509" y="-242" width="6" height="242" style="fill:transparent;" onmouseover="sh(512,512,-248,'01.11.2021 17,74');" onmouseout="hh();" /><rect x="509" y="-129" width="6" height="129" style="fill:#0080C0;" onmouseover="sh(512,512,-248,'01.11.2021 17,74');" onmouseout="hh();" /><rect x="518" y="-242" width="6" height="242" style="fill:transparent;" onmouseover="sh(521,521,-248,'01.12.2021 17,80');" onmouseout="hh();" /><rect x="518" y="-130" width="6" height="130" style="fill:#0080C0;" onmouseover="sh(521,521,-248,'01.12.2021 17,80');" onmouseout="hh();" /><rect x="527" y="-242" width="6" height="242" style="fill:transparent;" onmouseover="sh(530,530,-248,'01.01.2022 17,23');" onmouseout="hh();" /><rect x="527" y="-124" width="6" height="124" style="fill:#0080C0;" onmouseover="sh(530,530,-248,'01.01.2022 17,23');" onmouseout="hh();" /><rect x="536" y="-242" width="6" height="242" style="fill:transparent;" onmouseover="sh(539,539,-248,'01.02.2022 18,79');" onmouseout="hh();" /><rect x="536" y="-141" width="6" height="141" style="fill:#0080C0;" onmouseover="sh(539,539,-248,'01.02.2022 18,79');" onmouseout="hh();" /><rect x="545" y="-242" width="6" height="242" style="fill:transparent;" onmouseover="sh(548,548,-248,'01.03.2022 19,50');" onmouseout="hh();" /><rect x="545" y="-149" width="6" height="149" style="fill:#0080C0;" onmouseover="sh(548,548,-248,'01.03.2022 19,50');" onmouseout="hh();" /><rect x="554" y="-242" width="6" height="242" style="fill:transparent;" onmouseover="sh(557,557,-248,'01.05.2022 19,50');" onmouseout="hh();" /><rect x="554" y="-149" width="6" height="149" style="fill:#0080C0;" onmouseover="sh(557,557,-248,'01.05.2022 19,50');" onmouseout="hh();" /><rect x="563" y="-242" width="6" height="242" style="fill:transparent;" onmouseover="sh(566,566,-248,'01.06.2022 20,60');" onmouseout="hh();" /><rect x="563" y="-161" width="6" height="161" style="fill:#0080C0;" onmouseover="sh(566,566,-248,'01.06.2022 20,60');" onmouseout="hh();" /><rect x="572" y="-242" width="6" height="242" style="fill:transparent;" onmouseover="sh(575,575,-248,'01.07.2022 21,55');" onmouseout="hh();" /><rect x="572" y="-171" width="6" height="171" style="fill:#0080C0;" onmouseover="sh(575,575,-248,'01.07.2022 21,55');" onmouseout="hh();" /><rect x="581" y="-242" width="6" height="242" style="fill:transparent;" onmouseover="sh(584,584,-248,'01.08.2022 19,00');" onmouseout="hh();" /><rect x="581" y="-143" width="6" height="143" style="fill:#0080C0;" onmouseover="sh(584,584,-248,'01.08.2022 19,00');" onmouseout="hh();" /><rect x="590" y="-242" width="6" height="242" style="fill:transparent;" onmouseover="sh(593,593,-248,'01.09.2022 20,73');" onmouseout="hh();" /><rect x="590" y="-162" width="6" height="162" style="fill:#0080C0;" onmouseover="sh(593,593,-248,'01.09.2022 20,73');" onmouseout="hh();" /><rect x="599" y="-242" width="6" height="242" style="fill:transparent;" onmouseover="sh(602,602,-248,'01.10.2022 22,29');" onmouseout="hh();" /><rect x="599" y="-179" width="6" height="179" style="fill:#0080C0;" onmouseover="sh(602,602,-248,'01.10.2022 22,29');" onmouseout="hh();" /><rect x="608" y="-242" width="6" height="242" style="fill:transparent;" onmouseover="sh(611,611,-248,'01.11.2022 22,50');" onmouseout="hh();" /><rect x="608" y="-182" width="6" height="182" style="fill:#0080C0;" onmouseover="sh(611,611,-248,'01.11.2022 22,50');" onmouseout="hh();" /><rect x="617" y="-242" width="6" height="242" style="fill:transparent;" onmouseover="sh(620,614,-248,'01.12.2022 20,65');" onmouseout="hh();" /><rect x="617" y="-161" width="6" height="161" style="fill:#0080C0;" onmouseover="sh(620,614,-248,'01.12.2022 20,65');" onmouseout="hh();" /><rect x="626" y="-242" width="6" height="242" style="fill:transparent;" onmouseover="sh(629,614,-248,'01.01.2023 20,70');" onmouseout="hh();" /><rect x="626" y="-162" width="6" height="162" style="fill:#0080C0;" onmouseover="sh(629,614,-248,'01.01.2023 20,70');" onmouseout="hh();" /><rect x="635" y="-242" width="6" height="242" style="fill:transparent;" onmouseover="sh(638,614,-248,'01.02.2023 23,20');" onmouseout="hh();" /><rect x="635" y="-189" width="6" height="189" style="fill:#0080C0;" onmouseover="sh(638,614,-248,'01.02.2023 23,20');" onmouseout="hh();" /><rect x="644" y="-242" width="6" height="242" style="fill:transparent;" onmouseover="sh(647,614,-248,'01.03.2023 23,64');" onmouseout="hh();" /><rect x="644" y="-194" width="6" height="194" style="fill:#0080C0;" onmouseover="sh(647,614,-248,'01.03.2023 23,64');" onmouseout="hh();" /><rect x="653" y="-242" width="6" height="242" style="fill:transparent;" onmouseover="sh(656,614,-248,'01.04.2023 22,75');" onmouseout="hh();" /><rect x="653" y="-184" width="6" height="184" style="fill:#0080C0;" onmouseover="sh(656,614,-248,'01.04.2023 22,75');" onmouseout="hh();" /><rect x="662" y="-242" width="6" height="242" style="fill:transparent;" onmouseover="sh(665,614,-248,'01.05.2023 25,40');" onmouseout="hh();" /><rect x="662" y="-213" width="6" height="213" style="fill:#0080C0;" onmouseover="sh(665,614,-248,'01.05.2023 25,40');" onmouseout="hh();" /><rect x="671" y="-242" width="6" height="242" style="fill:transparent;" onmouseover="sh(674,614,-248,'01.06.2023 25,79');" onmouseout="hh();" /><rect x="671" y="-218" width="6" height="218" style="fill:#0080C0;" onmouseover="sh(674,614,-248,'01.06.2023 25,79');" onmouseout="hh();" />
<line x1="-6" y1="0" x2="684" y2="0" class="axes" /><line x1="0" y1="-258" x2="0" y2="0" class="axes" /><text x="-2" y="-262" style="text-anchor:end;">грн.</text>
<use xlink:href="#hintbox" id="usebox" x="0" y="0" style="visibility:hidden;" />
</svg>
