<?xml version="1.0" encoding="UTF-8" standalone="no"?>
<!DOCTYPE svg PUBLIC "-//W3C//DTD SVG 1.1//EN" "http://www.w3.org/Graphics/SVG/1.1/DTD/svg11.dtd">
<svg version="1.1" xmlns="http://www.w3.org/2000/svg" xmlns:xlink="http://www.w3.org/1999/xlink" xmlns:ev="http://www.w3.org/2001/xml-events" width="444" height="331" viewBox="-48 -273 444 331" preserveAspectRatio="none">
<style type="text/css"><![CDATA[
line { stroke-width:1px; }
line.axes { stroke:#505050; }
line.grid { stroke:#D8D8D8; }
rect.bg { fill:#FFFFFF; }
text { font-family:arial,sans-serif; font-size:12px; fill:#000000; }
]]></style>
<defs>
<g id="hintbox"><rect x="0" y="0" width="77" height="34" style="stroke:#505050; stroke-width:1px; fill:rgba(255,255,255,0.87);" /><text id="hint0" x="4" y="14"> </text><text x="7" y="28"></text><text id="hint1" x="73" y="28" style="text-anchor:end;"> </text></g>
<g id="hintline"><line x1="0" y1="-243" x2="0" y2="0" class="axes" style="stroke-dasharray:2 1" /></g>
</defs>
<script><![CDATA[
function shb(x,y,dat) {
ar=dat.split(' '); for (i=0; i<ar.length; ++i) { if (i&&ar[i]) ar[i]+=' грн.'; h=document.getElementById('hint'+i); h.textContent=ar[i]; }
u=document.getElementById('usebox'); u.setAttribute('x',x); u.setAttribute('y',y); u.setAttribute('style','visibility:visible;'); }
function hhb() { u=document.getElementById('usebox'); u.setAttribute('style','visibility:hidden;'); u.setAttribute('x','0'); u.setAttribute('y','0'); }
function shl(x) { u=document.getElementById('useline'); u.setAttribute('x',x); u.setAttribute('style','visibility:visible;'); }
function hhl() { u=document.getElementById('useline'); u.setAttribute('style','visibility:hidden;'); u.setAttribute('x','0'); }
function sh(xl,xb,y,dat) { shl(xl); shb(xb,y,dat); }
function hh() { hhb(); hhl(); }
]]></script>
<rect x="-48" y="-273" width="444" height="331" class="bg" />
<line x1="8" y1="0" x2="8" y2="4" class="axes" /><text x="13" y="8" transform="rotate(-90,13,8)" style="text-anchor:end;">01.2020</text><line x1="35" y1="0" x2="35" y2="4" class="axes" /><text x="40" y="8" transform="rotate(-90,40,8)" style="text-anchor:end;">04.2020</text><line x1="62" y1="0" x2="62" y2="4" class="axes" /><text x="67" y="8" transform="rotate(-90,67,8)" style="text-anchor:end;">07.2020</text><line x1="89" y1="0" x2="89" y2="4" class="axes" /><text x="94" y="8" transform="rotate(-90,94,8)" style="text-anchor:end;">10.2020</text><line x1="116" y1="0" x2="116" y2="4" class="axes" /><text x="121" y="8" transform="rotate(-90,121,8)" style="text-anchor:end;">01.2021</text><line x1="143" y1="0" x2="143" y2="4" class="axes" /><text x="148" y="8" transform="rotate(-90,148,8)" style="text-anchor:end;">04.2021</text><line x1="170" y1="0" x2="170" y2="4" class="axes" /><text x="175" y="8" transform="rotate(-90,175,8)" style="text-anchor:end;">07.2021</text><line x1="197" y1="0" x2="197" y2="4" class="axes" /><text x="202" y="8" transform="rotate(-90,202,8)" style="text-anchor:end;">10.2021</text><line x1="224" y1="0" x2="224" y2="4" class="axes" /><text x="229" y="8" transform="rotate(-90,229,8)" style="text-anchor:end;">01.2022</text><line x1="251" y1="0" x2="251" y2="4" class="axes" /><text x="256" y="8" transform="rotate(-90,256,8)" style="text-anchor:end;">04.2022</text><line x1="278" y1="0" x2="278" y2="4" class="axes" /><text x="283" y="8" transform="rotate(-90,283,8)" style="text-anchor:end;">07.2022</text><line x1="305" y1="0" x2="305" y2="4" class="axes" /><text x="310" y="8" transform="rotate(-90,310,8)" style="text-anchor:end;">10.2022</text><line x1="332" y1="0" x2="332" y2="4" class="axes" /><text x="337" y="8" transform="rotate(-90,337,8)" style="text-anchor:end;">01.2023</text><line x1="359" y1="0" x2="359" y2="4" class="axes" /><text x="364" y="8" transform="rotate(-90,364,8)" style="text-anchor:end;">04.2023</text>
<line x1="0" y1="-27" x2="384" y2="-27" class="grid" /><line x1="0" y1="-27" x2="-4" y2="-27" class="axes" /><text x="-8" y="-23" style="text-anchor:end;">10</text><line x1="0" y1="-54" x2="384" y2="-54" class="grid" /><line x1="0" y1="-54" x2="-4" y2="-54" class="axes" /><text x="-8" y="-50" style="text-anchor:end;">20</text><line x1="0" y1="-81" x2="384" y2="-81" class="grid" /><line x1="0" y1="-81" x2="-4" y2="-81" class="axes" /><text x="-8" y="-77" style="text-anchor:end;">30</text><line x1="0" y1="-108" x2="384" y2="-108" class="grid" /><line x1="0" y1="-108" x2="-4" y2="-108" class="axes" /><text x="-8" y="-104" style="text-anchor:end;">40</text><line x1="0" y1="-135" x2="384" y2="-135" class="grid" /><line x1="0" y1="-135" x2="-4" y2="-135" class="axes" /><text x="-8" y="-131" style="text-anchor:end;">50</text><line x1="0" y1="-162" x2="384" y2="-162" class="grid" /><line x1="0" y1="-162" x2="-4" y2="-162" class="axes" /><text x="-8" y="-158" style="text-anchor:end;">60</text><line x1="0" y1="-189" x2="384" y2="-189" class="grid" /><line x1="0" y1="-189" x2="-4" y2="-189" class="axes" /><text x="-8" y="-185" style="text-anchor:end;">70</text><line x1="0" y1="-216" x2="384" y2="-216" class="grid" /><line x1="0" y1="-216" x2="-4" y2="-216" class="axes" /><text x="-8" y="-212" style="text-anchor:end;">80</text><line x1="0" y1="-243" x2="384" y2="-243" class="grid" /><line x1="0" y1="-243" x2="-4" y2="-243" class="axes" /><text x="-8" y="-239" style="text-anchor:end;">90</text>
<use xlink:href="#hintline" id="useline" x="0" style="visibility:hidden;" />
<rect x="5" y="-243" width="6" height="243" style="fill:transparent;" onmouseover="sh(8,8,-249,'01.01.2020 24,60');" onmouseout="hh();" /><rect x="5" y="-66" width="6" height="66" style="fill:#0080C0;" onmouseover="sh(8,8,-249,'01.01.2020 24,60');" onmouseout="hh();" /><rect x="14" y="-243" width="6" height="243" style="fill:transparent;" onmouseover="sh(17,17,-249,'01.02.2020 17,58');" onmouseout="hh();" /><rect x="14" y="-47" width="6" height="47" style="fill:#0080C0;" onmouseover="sh(17,17,-249,'01.02.2020 17,58');" onmouseout="hh();" /><rect x="23" y="-243" width="6" height="243" style="fill:transparent;" onmouseover="sh(26,26,-249,'01.03.2020 15,84');" onmouseout="hh();" /><rect x="23" y="-43" width="6" height="43" style="fill:#0080C0;" onmouseover="sh(26,26,-249,'01.03.2020 15,84');" onmouseout="hh();" /><rect x="32" y="-243" width="6" height="243" style="fill:transparent;" onmouseover="sh(35,35,-249,'01.04.2020 17,53');" onmouseout="hh();" /><rect x="32" y="-47" width="6" height="47" style="fill:#0080C0;" onmouseover="sh(35,35,-249,'01.04.2020 17,53');" onmouseout="hh();" /><rect x="41" y="-243" width="6" height="243" style="fill:transparent;" onmouseover="sh(44,44,-249,'01.05.2020 21,86');" onmouseout="hh();" /><rect x="41" y="-59" width="6" height="59" style="fill:#0080C0;" onmouseover="sh(44,44,-249,'01.05.2020 21,86');" onmouseout="hh();" /><rect x="50" y="-243" width="6" height="243" style="fill:transparent;" onmouseover="sh(53,53,-249,'01.06.2020 21,60');" onmouseout="hh();" /><rect x="50" y="-58" width="6" height="58" style="fill:#0080C0;" onmouseover="sh(53,53,-249,'01.06.2020 21,60');" onmouseout="hh();" /><rect x="59" y="-243" width="6" height="243" style="fill:transparent;" onmouseover="sh(62,62,-249,'01.07.2020 20,25');" onmouseout="hh();" /><rect x="59" y="-55" width="6" height="55" style="fill:#0080C0;" onmouseover="sh(62,62,-249,'01.07.2020 20,25');" onmouseout="hh();" /><rect x="68" y="-243" width="6" height="243" style="fill:transparent;" onmouseover="sh(71,71,-249,'01.08.2020 18,21');" onmouseout="hh();" /><rect x="68" y="-49" width="6" height="49" style="fill:#0080C0;" onmouseover="sh(71,71,-249,'01.08.2020 18,21');" onmouseout="hh();" /><rect x="77" y="-243" width="6" height="243" style="fill:transparent;" onmouseover="sh(80,80,-249,'01.09.2020 19,12');" onmouseout="hh();" /><rect x="77" y="-52" width="6" height="52" style="fill:#0080C0;" onmouseover="sh(80,80,-249,'01.09.2020 19,12');" onmouseout="hh();" /><rect x="86" y="-243" width="6" height="243" style="fill:transparent;" onmouseover="sh(89,89,-249,'01.10.2020 22,29');" onmouseout="hh();" /><rect x="86" y="-60" width="6" height="60" style="fill:#0080C0;" onmouseover="sh(89,89,-249,'01.10.2020 22,29');" onmouseout="hh();" /><rect x="95" y="-243" width="6" height="243" style="fill:transparent;" onmouseover="sh(98,98,-249,'01.11.2020 25,90');" onmouseout="hh();" /><rect x="95" y="-70" width="6" height="70" style="fill:#0080C0;" onmouseover="sh(98,98,-249,'01.11.2020 25,90');" onmouseout="hh();" /><rect x="104" y="-243" width="6" height="243" style="fill:transparent;" onmouseover="sh(107,107,-249,'01.12.2020 27,77');" onmouseout="hh();" /><rect x="104" y="-75" width="6" height="75" style="fill:#0080C0;" onmouseover="sh(107,107,-249,'01.12.2020 27,77');" onmouseout="hh();" /><rect x="113" y="-243" width="6" height="243" style="fill:transparent;" onmouseover="sh(116,116,-249,'01.01.2021 37,49');" onmouseout="hh();" /><rect x="113" y="-101" width="6" height="101" style="fill:#0080C0;" onmouseover="sh(116,116,-249,'01.01.2021 37,49');" onmouseout="hh();" /><rect x="122" y="-243" width="6" height="243" style="fill:transparent;" onmouseover="sh(125,125,-249,'01.02.2021 38,86');" onmouseout="hh();" /><rect x="122" y="-105" width="6" height="105" style="fill:#0080C0;" onmouseover="sh(125,125,-249,'01.02.2021 38,86');" onmouseout="hh();" /><rect x="131" y="-243" width="6" height="243" style="fill:transparent;" onmouseover="sh(134,134,-249,'01.03.2021 38,86');" onmouseout="hh();" /><rect x="131" y="-105" width="6" height="105" style="fill:#0080C0;" onmouseover="sh(134,134,-249,'01.03.2021 38,86');" onmouseout="hh();" /><rect x="140" y="-243" width="6" height="243" style="fill:transparent;" onmouseover="sh(143,143,-249,'01.04.2021 38,78');" onmouseout="hh();" /><rect x="140" y="-105" width="6" height="105" style="fill:#0080C0;" onmouseover="sh(143,143,-249,'01.04.2021 38,78');" onmouseout="hh();" /><rect x="149" y="-243" width="6" height="243" style="fill:transparent;" onmouseover="sh(152,152,-249,'01.05.2021 36,31');" onmouseout="hh();" /><rect x="149" y="-98" width="6" height="98" style="fill:#0080C0;" onmouseover="sh(152,152,-249,'01.05.2021 36,31');" onmouseout="hh();" /><rect x="158" y="-243" width="6" height="243" style="fill:transparent;" onmouseover="sh(161,161,-249,'01.06.2021 27,85');" onmouseout="hh();" /><rect x="158" y="-75" width="6" height="75" style="fill:#0080C0;" onmouseover="sh(161,161,-249,'01.06.2021 27,85');" onmouseout="hh();" /><rect x="167" y="-243" width="6" height="243" style="fill:transparent;" onmouseover="sh(170,170,-249,'01.07.2021 27,65');" onmouseout="hh();" /><rect x="167" y="-75" width="6" height="75" style="fill:#0080C0;" onmouseover="sh(170,170,-249,'01.07.2021 27,65');" onmouseout="hh();" /><rect x="176" y="-243" width="6" height="243" style="fill:transparent;" onmouseover="sh(179,179,-249,'01.08.2021 30,14');" onmouseout="hh();" /><rect x="176" y="-81" width="6" height="81" style="fill:#0080C0;" onmouseover="sh(179,179,-249,'01.08.2021 30,14');" onmouseout="hh();" /><rect x="185" y="-243" width="6" height="243" style="fill:transparent;" onmouseover="sh(188,188,-249,'01.09.2021 35,34');" onmouseout="hh();" /><rect x="185" y="-95" width="6" height="95" style="fill:#0080C0;" onmouseover="sh(188,188,-249,'01.09.2021 35,34');" onmouseout="hh();" /><rect x="194" y="-243" width="6" height="243" style="fill:transparent;" onmouseover="sh(197,197,-249,'01.10.2021 35,87');" onmouseout="hh();" /><rect x="194" y="-97" width="6" height="97" style="fill:#0080C0;" onmouseover="sh(197,197,-249,'01.10.2021 35,87');" onmouseout="hh();" /><rect x="203" y="-243" width="6" height="243" style="fill:transparent;" onmouseover="sh(206,206,-249,'01.11.2021 36,14');" onmouseout="hh();" /><rect x="203" y="-98" width="6" height="98" style="fill:#0080C0;" onmouseover="sh(206,206,-249,'01.11.2021 36,14');" onmouseout="hh();" /><rect x="212" y="-243" width="6" height="243" style="fill:transparent;" onmouseover="sh(215,215,-249,'01.12.2021 39,77');" onmouseout="hh();" /><rect x="212" y="-107" width="6" height="107" style="fill:#0080C0;" onmouseover="sh(215,215,-249,'01.12.2021 39,77');" onmouseout="hh();" /><rect x="221" y="-243" width="6" height="243" style="fill:transparent;" onmouseover="sh(224,224,-249,'01.01.2022 41,03');" onmouseout="hh();" /><rect x="221" y="-111" width="6" height="111" style="fill:#0080C0;" onmouseover="sh(224,224,-249,'01.01.2022 41,03');" onmouseout="hh();" /><rect x="230" y="-243" width="6" height="243" style="fill:transparent;" onmouseover="sh(233,233,-249,'01.02.2022 38,92');" onmouseout="hh();" /><rect x="230" y="-105" width="6" height="105" style="fill:#0080C0;" onmouseover="sh(233,233,-249,'01.02.2022 38,92');" onmouseout="hh();" /><rect x="239" y="-243" width="6" height="243" style="fill:transparent;" onmouseover="sh(242,242,-249,'01.03.2022 40,52');" onmouseout="hh();" /><rect x="239" y="-109" width="6" height="109" style="fill:#0080C0;" onmouseover="sh(242,242,-249,'01.03.2022 40,52');" onmouseout="hh();" /><rect x="248" y="-243" width="6" height="243" style="fill:transparent;" onmouseover="sh(251,251,-249,'01.04.2022 30,07');" onmouseout="hh();" /><rect x="248" y="-81" width="6" height="81" style="fill:#0080C0;" onmouseover="sh(251,251,-249,'01.04.2022 30,07');" onmouseout="hh();" /><rect x="257" y="-243" width="6" height="243" style="fill:transparent;" onmouseover="sh(260,260,-249,'01.05.2022 28,08');" onmouseout="hh();" /><rect x="257" y="-76" width="6" height="76" style="fill:#0080C0;" onmouseover="sh(260,260,-249,'01.05.2022 28,08');" onmouseout="hh();" /><rect x="266" y="-243" width="6" height="243" style="fill:transparent;" onmouseover="sh(269,269,-249,'01.06.2022 28,38');" onmouseout="hh();" /><rect x="266" y="-77" width="6" height="77" style="fill:#0080C0;" onmouseover="sh(269,269,-249,'01.06.2022 28,38');" onmouseout="hh();" /><rect x="275" y="-243" width="6" height="243" style="fill:transparent;" onmouseover="sh(278,278,-249,'01.07.2022 28,93');" onmouseout="hh();" /><rect x="275" y="-78" width="6" height="78" style="fill:#0080C0;" onmouseover="sh(278,278,-249,'01.07.2022 28,93');" onmouseout="hh();" /><rect x="284" y="-243" width="6" height="243" style="fill:transparent;" onmouseover="sh(287,287,-249,'01.08.2022 31,31');" onmouseout="hh();" /><rect x="284" y="-85" width="6" height="85" style="fill:#0080C0;" onmouseover="sh(287,287,-249,'01.08.2022 31,31');" onmouseout="hh();" /><rect x="293" y="-243" width="6" height="243" style="fill:transparent;" onmouseover="sh(296,296,-249,'01.09.2022 37,41');" onmouseout="hh();" /><rect x="293" y="-101" width="6" height="101" style="fill:#0080C0;" onmouseover="sh(296,296,-249,'01.09.2022 37,41');" onmouseout="hh();" /><rect x="302" y="-243" width="6" height="243" style="fill:transparent;" onmouseover="sh(305,305,-249,'01.10.2022 57,23');" onmouseout="hh();" /><rect x="302" y="-155" width="6" height="155" style="fill:#0080C0;" onmouseover="sh(305,305,-249,'01.10.2022 57,23');" onmouseout="hh();" /><rect x="311" y="-243" width="6" height="243" style="fill:transparent;" onmouseover="sh(314,314,-249,'01.11.2022 75,65');" onmouseout="hh();" /><rect x="311" y="-204" width="6" height="204" style="fill:#0080C0;" onmouseover="sh(314,314,-249,'01.11.2022 75,65');" onmouseout="hh();" /><rect x="320" y="-243" width="6" height="243" style="fill:transparent;" onmouseover="sh(323,317,-249,'01.12.2022 74,15');" onmouseout="hh();" /><rect x="320" y="-200" width="6" height="200" style="fill:#0080C0;" onmouseover="sh(323,317,-249,'01.12.2022 74,15');" onmouseout="hh();" /><rect x="329" y="-243" width="6" height="243" style="fill:transparent;" onmouseover="sh(332,317,-249,'01.01.2023 73,47');" onmouseout="hh();" /><rect x="329" y="-198" width="6" height="198" style="fill:#0080C0;" onmouseover="sh(332,317,-249,'01.01.2023 73,47');" onmouseout="hh();" /><rect x="338" y="-243" width="6" height="243" style="fill:transparent;" onmouseover="sh(341,317,-249,'01.02.2023 73,60');" onmouseout="hh();" /><rect x="338" y="-199" width="6" height="199" style="fill:#0080C0;" onmouseover="sh(341,317,-249,'01.02.2023 73,60');" onmouseout="hh();" /><rect x="347" y="-243" width="6" height="243" style="fill:transparent;" onmouseover="sh(350,317,-249,'01.03.2023 72,06');" onmouseout="hh();" /><rect x="347" y="-195" width="6" height="195" style="fill:#0080C0;" onmouseover="sh(350,317,-249,'01.03.2023 72,06');" onmouseout="hh();" /><rect x="356" y="-243" width="6" height="243" style="fill:transparent;" onmouseover="sh(359,317,-249,'01.04.2023 70,60');" onmouseout="hh();" /><rect x="356" y="-191" width="6" height="191" style="fill:#0080C0;" onmouseover="sh(359,317,-249,'01.04.2023 70,60');" onmouseout="hh();" /><rect x="365" y="-243" width="6" height="243" style="fill:transparent;" onmouseover="sh(368,317,-249,'01.05.2023 60,53');" onmouseout="hh();" /><rect x="365" y="-163" width="6" height="163" style="fill:#0080C0;" onmouseover="sh(368,317,-249,'01.05.2023 60,53');" onmouseout="hh();" /><rect x="374" y="-243" width="6" height="243" style="fill:transparent;" onmouseover="sh(377,317,-249,'01.06.2023 56,92');" onmouseout="hh();" /><rect x="374" y="-154" width="6" height="154" style="fill:#0080C0;" onmouseover="sh(377,317,-249,'01.06.2023 56,92');" onmouseout="hh();" />
<line x1="-6" y1="0" x2="387" y2="0" class="axes" /><line x1="0" y1="-259" x2="0" y2="0" class="axes" /><text x="-2" y="-263" style="text-anchor:end;">грн.</text>
<use xlink:href="#hintbox" id="usebox" x="0" y="0" style="visibility:hidden;" />
</svg>
