<?xml version="1.0" encoding="UTF-8" standalone="no"?>
<!DOCTYPE svg PUBLIC "-//W3C//DTD SVG 1.1//EN" "http://www.w3.org/Graphics/SVG/1.1/DTD/svg11.dtd">
<svg version="1.1" xmlns="http://www.w3.org/2000/svg" xmlns:xlink="http://www.w3.org/1999/xlink" xmlns:ev="http://www.w3.org/2001/xml-events" width="750" height="330" viewBox="-48 -272 750 330" preserveAspectRatio="none">
<style type="text/css"><![CDATA[
line { stroke-width:1px; }
line.axes { stroke:#505050; }
line.grid { stroke:#D8D8D8; }
rect.bg { fill:#FFFFFF; }
text { font-family:arial,sans-serif; font-size:12px; fill:#000000; }
]]></style>
<defs>
<g id="hintbox"><rect x="0" y="0" width="77" height="34" style="stroke:#505050; stroke-width:1px; fill:rgba(255,255,255,0.87);" /><text id="hint0" x="4" y="14"> </text><text x="7" y="28"></text><text id="hint1" x="73" y="28" style="text-anchor:end;"> </text></g>
<g id="hintline"><line x1="0" y1="-234" x2="0" y2="0" class="axes" style="stroke-dasharray:2 1" /></g>
</defs>
<script><![CDATA[
function shb(x,y,dat) {
ar=dat.split(' '); for (i=0; i<ar.length; ++i) { if (i&&ar[i]) ar[i]+=' грн.'; h=document.getElementById('hint'+i); h.textContent=ar[i]; }
u=document.getElementById('usebox'); u.setAttribute('x',x); u.setAttribute('y',y); u.setAttribute('style','visibility:visible;'); }
function hhb() { u=document.getElementById('usebox'); u.setAttribute('style','visibility:hidden;'); u.setAttribute('x','0'); u.setAttribute('y','0'); }
function shl(x) { u=document.getElementById('useline'); u.setAttribute('x',x); u.setAttribute('style','visibility:visible;'); }
function hhl() { u=document.getElementById('useline'); u.setAttribute('style','visibility:hidden;'); u.setAttribute('x','0'); }
function sh(xl,xb,y,dat) { shl(xl); shb(xb,y,dat); }
function hh() { hhb(); hhl(); }
]]></script>
<rect x="-48" y="-272" width="750" height="330" class="bg" />
<line x1="17" y1="0" x2="17" y2="4" class="axes" /><text x="22" y="8" transform="rotate(-90,22,8)" style="text-anchor:end;">04.2017</text><line x1="44" y1="0" x2="44" y2="4" class="axes" /><text x="49" y="8" transform="rotate(-90,49,8)" style="text-anchor:end;">07.2017</text><line x1="71" y1="0" x2="71" y2="4" class="axes" /><text x="76" y="8" transform="rotate(-90,76,8)" style="text-anchor:end;">10.2017</text><line x1="98" y1="0" x2="98" y2="4" class="axes" /><text x="103" y="8" transform="rotate(-90,103,8)" style="text-anchor:end;">01.2018</text><line x1="125" y1="0" x2="125" y2="4" class="axes" /><text x="130" y="8" transform="rotate(-90,130,8)" style="text-anchor:end;">04.2018</text><line x1="152" y1="0" x2="152" y2="4" class="axes" /><text x="157" y="8" transform="rotate(-90,157,8)" style="text-anchor:end;">07.2018</text><line x1="179" y1="0" x2="179" y2="4" class="axes" /><text x="184" y="8" transform="rotate(-90,184,8)" style="text-anchor:end;">10.2018</text><line x1="206" y1="0" x2="206" y2="4" class="axes" /><text x="211" y="8" transform="rotate(-90,211,8)" style="text-anchor:end;">01.2019</text><line x1="233" y1="0" x2="233" y2="4" class="axes" /><text x="238" y="8" transform="rotate(-90,238,8)" style="text-anchor:end;">04.2019</text><line x1="260" y1="0" x2="260" y2="4" class="axes" /><text x="265" y="8" transform="rotate(-90,265,8)" style="text-anchor:end;">07.2019</text><line x1="287" y1="0" x2="287" y2="4" class="axes" /><text x="292" y="8" transform="rotate(-90,292,8)" style="text-anchor:end;">10.2019</text><line x1="314" y1="0" x2="314" y2="4" class="axes" /><text x="319" y="8" transform="rotate(-90,319,8)" style="text-anchor:end;">01.2020</text><line x1="341" y1="0" x2="341" y2="4" class="axes" /><text x="346" y="8" transform="rotate(-90,346,8)" style="text-anchor:end;">04.2020</text><line x1="368" y1="0" x2="368" y2="4" class="axes" /><text x="373" y="8" transform="rotate(-90,373,8)" style="text-anchor:end;">07.2020</text><line x1="395" y1="0" x2="395" y2="4" class="axes" /><text x="400" y="8" transform="rotate(-90,400,8)" style="text-anchor:end;">10.2020</text><line x1="422" y1="0" x2="422" y2="4" class="axes" /><text x="427" y="8" transform="rotate(-90,427,8)" style="text-anchor:end;">01.2021</text><line x1="449" y1="0" x2="449" y2="4" class="axes" /><text x="454" y="8" transform="rotate(-90,454,8)" style="text-anchor:end;">04.2021</text><line x1="476" y1="0" x2="476" y2="4" class="axes" /><text x="481" y="8" transform="rotate(-90,481,8)" style="text-anchor:end;">07.2021</text><line x1="503" y1="0" x2="503" y2="4" class="axes" /><text x="508" y="8" transform="rotate(-90,508,8)" style="text-anchor:end;">10.2021</text><line x1="530" y1="0" x2="530" y2="4" class="axes" /><text x="535" y="8" transform="rotate(-90,535,8)" style="text-anchor:end;">01.2022</text><line x1="557" y1="0" x2="557" y2="4" class="axes" /><text x="562" y="8" transform="rotate(-90,562,8)" style="text-anchor:end;">04.2022</text><line x1="584" y1="0" x2="584" y2="4" class="axes" /><text x="589" y="8" transform="rotate(-90,589,8)" style="text-anchor:end;">07.2022</text><line x1="611" y1="0" x2="611" y2="4" class="axes" /><text x="616" y="8" transform="rotate(-90,616,8)" style="text-anchor:end;">10.2022</text><line x1="638" y1="0" x2="638" y2="4" class="axes" /><text x="643" y="8" transform="rotate(-90,643,8)" style="text-anchor:end;">01.2023</text><line x1="665" y1="0" x2="665" y2="4" class="axes" /><text x="670" y="8" transform="rotate(-90,670,8)" style="text-anchor:end;">04.2023</text>
<line x1="0" y1="-18" x2="690" y2="-18" class="grid" /><line x1="0" y1="-18" x2="-4" y2="-18" class="axes" /><text x="-8" y="-14" style="text-anchor:end;">15</text><line x1="0" y1="-36" x2="690" y2="-36" class="grid" /><line x1="0" y1="-36" x2="-4" y2="-36" class="axes" /><text x="-8" y="-32" style="text-anchor:end;">20</text><line x1="0" y1="-54" x2="690" y2="-54" class="grid" /><line x1="0" y1="-54" x2="-4" y2="-54" class="axes" /><text x="-8" y="-50" style="text-anchor:end;">25</text><line x1="0" y1="-72" x2="690" y2="-72" class="grid" /><line x1="0" y1="-72" x2="-4" y2="-72" class="axes" /><text x="-8" y="-68" style="text-anchor:end;">30</text><line x1="0" y1="-90" x2="690" y2="-90" class="grid" /><line x1="0" y1="-90" x2="-4" y2="-90" class="axes" /><text x="-8" y="-86" style="text-anchor:end;">35</text><line x1="0" y1="-108" x2="690" y2="-108" class="grid" /><line x1="0" y1="-108" x2="-4" y2="-108" class="axes" /><text x="-8" y="-104" style="text-anchor:end;">40</text><line x1="0" y1="-126" x2="690" y2="-126" class="grid" /><line x1="0" y1="-126" x2="-4" y2="-126" class="axes" /><text x="-8" y="-122" style="text-anchor:end;">45</text><line x1="0" y1="-144" x2="690" y2="-144" class="grid" /><line x1="0" y1="-144" x2="-4" y2="-144" class="axes" /><text x="-8" y="-140" style="text-anchor:end;">50</text><line x1="0" y1="-162" x2="690" y2="-162" class="grid" /><line x1="0" y1="-162" x2="-4" y2="-162" class="axes" /><text x="-8" y="-158" style="text-anchor:end;">55</text><line x1="0" y1="-180" x2="690" y2="-180" class="grid" /><line x1="0" y1="-180" x2="-4" y2="-180" class="axes" /><text x="-8" y="-176" style="text-anchor:end;">60</text><line x1="0" y1="-198" x2="690" y2="-198" class="grid" /><line x1="0" y1="-198" x2="-4" y2="-198" class="axes" /><text x="-8" y="-194" style="text-anchor:end;">65</text><line x1="0" y1="-216" x2="690" y2="-216" class="grid" /><line x1="0" y1="-216" x2="-4" y2="-216" class="axes" /><text x="-8" y="-212" style="text-anchor:end;">70</text><line x1="0" y1="-234" x2="690" y2="-234" class="grid" /><line x1="0" y1="-234" x2="-4" y2="-234" class="axes" /><text x="-8" y="-230" style="text-anchor:end;">75</text>
<use xlink:href="#hintline" id="useline" x="0" style="visibility:hidden;" />
<rect x="5" y="-234" width="6" height="234" style="fill:transparent;" onmouseover="sh(8,8,-240,'01.03.2017 23,98');" onmouseout="hh();" /><rect x="5" y="-50" width="6" height="50" style="fill:#0080C0;" onmouseover="sh(8,8,-240,'01.03.2017 23,98');" onmouseout="hh();" /><rect x="14" y="-234" width="6" height="234" style="fill:transparent;" onmouseover="sh(17,17,-240,'01.04.2017 23,49');" onmouseout="hh();" /><rect x="14" y="-49" width="6" height="49" style="fill:#0080C0;" onmouseover="sh(17,17,-240,'01.04.2017 23,49');" onmouseout="hh();" /><rect x="23" y="-234" width="6" height="234" style="fill:transparent;" onmouseover="sh(26,26,-240,'01.05.2017 23,52');" onmouseout="hh();" /><rect x="23" y="-49" width="6" height="49" style="fill:#0080C0;" onmouseover="sh(26,26,-240,'01.05.2017 23,52');" onmouseout="hh();" /><rect x="32" y="-234" width="6" height="234" style="fill:transparent;" onmouseover="sh(35,35,-240,'01.06.2017 23,50');" onmouseout="hh();" /><rect x="32" y="-49" width="6" height="49" style="fill:#0080C0;" onmouseover="sh(35,35,-240,'01.06.2017 23,50');" onmouseout="hh();" /><rect x="41" y="-234" width="6" height="234" style="fill:transparent;" onmouseover="sh(44,44,-240,'01.07.2017 23,19');" onmouseout="hh();" /><rect x="41" y="-47" width="6" height="47" style="fill:#0080C0;" onmouseover="sh(44,44,-240,'01.07.2017 23,19');" onmouseout="hh();" /><rect x="50" y="-234" width="6" height="234" style="fill:transparent;" onmouseover="sh(53,53,-240,'01.08.2017 23,50');" onmouseout="hh();" /><rect x="50" y="-49" width="6" height="49" style="fill:#0080C0;" onmouseover="sh(53,53,-240,'01.08.2017 23,50');" onmouseout="hh();" /><rect x="59" y="-234" width="6" height="234" style="fill:transparent;" onmouseover="sh(62,62,-240,'01.09.2017 23,84');" onmouseout="hh();" /><rect x="59" y="-50" width="6" height="50" style="fill:#0080C0;" onmouseover="sh(62,62,-240,'01.09.2017 23,84');" onmouseout="hh();" /><rect x="68" y="-234" width="6" height="234" style="fill:transparent;" onmouseover="sh(71,71,-240,'01.10.2017 24,13');" onmouseout="hh();" /><rect x="68" y="-51" width="6" height="51" style="fill:#0080C0;" onmouseover="sh(71,71,-240,'01.10.2017 24,13');" onmouseout="hh();" /><rect x="77" y="-234" width="6" height="234" style="fill:transparent;" onmouseover="sh(80,80,-240,'01.11.2017 25,01');" onmouseout="hh();" /><rect x="77" y="-54" width="6" height="54" style="fill:#0080C0;" onmouseover="sh(80,80,-240,'01.11.2017 25,01');" onmouseout="hh();" /><rect x="86" y="-234" width="6" height="234" style="fill:transparent;" onmouseover="sh(89,89,-240,'01.12.2017 26,16');" onmouseout="hh();" /><rect x="86" y="-58" width="6" height="58" style="fill:#0080C0;" onmouseover="sh(89,89,-240,'01.12.2017 26,16');" onmouseout="hh();" /><rect x="95" y="-234" width="6" height="234" style="fill:transparent;" onmouseover="sh(98,98,-240,'01.01.2018 26,29');" onmouseout="hh();" /><rect x="95" y="-59" width="6" height="59" style="fill:#0080C0;" onmouseover="sh(98,98,-240,'01.01.2018 26,29');" onmouseout="hh();" /><rect x="104" y="-234" width="6" height="234" style="fill:transparent;" onmouseover="sh(107,107,-240,'01.02.2018 26,54');" onmouseout="hh();" /><rect x="104" y="-60" width="6" height="60" style="fill:#0080C0;" onmouseover="sh(107,107,-240,'01.02.2018 26,54');" onmouseout="hh();" /><rect x="113" y="-234" width="6" height="234" style="fill:transparent;" onmouseover="sh(116,116,-240,'01.03.2018 27,54');" onmouseout="hh();" /><rect x="113" y="-63" width="6" height="63" style="fill:#0080C0;" onmouseover="sh(116,116,-240,'01.03.2018 27,54');" onmouseout="hh();" /><rect x="122" y="-234" width="6" height="234" style="fill:transparent;" onmouseover="sh(125,125,-240,'01.04.2018 28,00');" onmouseout="hh();" /><rect x="122" y="-65" width="6" height="65" style="fill:#0080C0;" onmouseover="sh(125,125,-240,'01.04.2018 28,00');" onmouseout="hh();" /><rect x="131" y="-234" width="6" height="234" style="fill:transparent;" onmouseover="sh(134,134,-240,'01.05.2018 27,60');" onmouseout="hh();" /><rect x="131" y="-63" width="6" height="63" style="fill:#0080C0;" onmouseover="sh(134,134,-240,'01.05.2018 27,60');" onmouseout="hh();" /><rect x="140" y="-234" width="6" height="234" style="fill:transparent;" onmouseover="sh(143,143,-240,'01.06.2018 26,98');" onmouseout="hh();" /><rect x="140" y="-61" width="6" height="61" style="fill:#0080C0;" onmouseover="sh(143,143,-240,'01.06.2018 26,98');" onmouseout="hh();" /><rect x="149" y="-234" width="6" height="234" style="fill:transparent;" onmouseover="sh(152,152,-240,'01.07.2018 28,87');" onmouseout="hh();" /><rect x="149" y="-68" width="6" height="68" style="fill:#0080C0;" onmouseover="sh(152,152,-240,'01.07.2018 28,87');" onmouseout="hh();" /><rect x="158" y="-234" width="6" height="234" style="fill:transparent;" onmouseover="sh(161,161,-240,'01.08.2018 29,94');" onmouseout="hh();" /><rect x="158" y="-72" width="6" height="72" style="fill:#0080C0;" onmouseover="sh(161,161,-240,'01.08.2018 29,94');" onmouseout="hh();" /><rect x="167" y="-234" width="6" height="234" style="fill:transparent;" onmouseover="sh(170,170,-240,'01.09.2018 30,83');" onmouseout="hh();" /><rect x="167" y="-75" width="6" height="75" style="fill:#0080C0;" onmouseover="sh(170,170,-240,'01.09.2018 30,83');" onmouseout="hh();" /><rect x="176" y="-234" width="6" height="234" style="fill:transparent;" onmouseover="sh(179,179,-240,'01.10.2018 31,77');" onmouseout="hh();" /><rect x="176" y="-78" width="6" height="78" style="fill:#0080C0;" onmouseover="sh(179,179,-240,'01.10.2018 31,77');" onmouseout="hh();" /><rect x="185" y="-234" width="6" height="234" style="fill:transparent;" onmouseover="sh(188,188,-240,'01.11.2018 32,29');" onmouseout="hh();" /><rect x="185" y="-80" width="6" height="80" style="fill:#0080C0;" onmouseover="sh(188,188,-240,'01.11.2018 32,29');" onmouseout="hh();" /><rect x="194" y="-234" width="6" height="234" style="fill:transparent;" onmouseover="sh(197,197,-240,'01.12.2018 32,66');" onmouseout="hh();" /><rect x="194" y="-82" width="6" height="82" style="fill:#0080C0;" onmouseover="sh(197,197,-240,'01.12.2018 32,66');" onmouseout="hh();" /><rect x="203" y="-234" width="6" height="234" style="fill:transparent;" onmouseover="sh(206,206,-240,'01.01.2019 32,79');" onmouseout="hh();" /><rect x="203" y="-82" width="6" height="82" style="fill:#0080C0;" onmouseover="sh(206,206,-240,'01.01.2019 32,79');" onmouseout="hh();" /><rect x="212" y="-234" width="6" height="234" style="fill:transparent;" onmouseover="sh(215,215,-240,'01.02.2019 33,76');" onmouseout="hh();" /><rect x="212" y="-86" width="6" height="86" style="fill:#0080C0;" onmouseover="sh(215,215,-240,'01.02.2019 33,76');" onmouseout="hh();" /><rect x="221" y="-234" width="6" height="234" style="fill:transparent;" onmouseover="sh(224,224,-240,'01.03.2019 33,18');" onmouseout="hh();" /><rect x="221" y="-83" width="6" height="83" style="fill:#0080C0;" onmouseover="sh(224,224,-240,'01.03.2019 33,18');" onmouseout="hh();" /><rect x="230" y="-234" width="6" height="234" style="fill:transparent;" onmouseover="sh(233,233,-240,'01.04.2019 32,33');" onmouseout="hh();" /><rect x="230" y="-80" width="6" height="80" style="fill:#0080C0;" onmouseover="sh(233,233,-240,'01.04.2019 32,33');" onmouseout="hh();" /><rect x="239" y="-234" width="6" height="234" style="fill:transparent;" onmouseover="sh(242,242,-240,'01.05.2019 32,64');" onmouseout="hh();" /><rect x="239" y="-81" width="6" height="81" style="fill:#0080C0;" onmouseover="sh(242,242,-240,'01.05.2019 32,64');" onmouseout="hh();" /><rect x="248" y="-234" width="6" height="234" style="fill:transparent;" onmouseover="sh(251,251,-240,'01.06.2019 32,35');" onmouseout="hh();" /><rect x="248" y="-80" width="6" height="80" style="fill:#0080C0;" onmouseover="sh(251,251,-240,'01.06.2019 32,35');" onmouseout="hh();" /><rect x="257" y="-234" width="6" height="234" style="fill:transparent;" onmouseover="sh(260,260,-240,'01.07.2019 31,88');" onmouseout="hh();" /><rect x="257" y="-79" width="6" height="79" style="fill:#0080C0;" onmouseover="sh(260,260,-240,'01.07.2019 31,88');" onmouseout="hh();" /><rect x="266" y="-234" width="6" height="234" style="fill:transparent;" onmouseover="sh(269,269,-240,'01.08.2019 32,26');" onmouseout="hh();" /><rect x="266" y="-80" width="6" height="80" style="fill:#0080C0;" onmouseover="sh(269,269,-240,'01.08.2019 32,26');" onmouseout="hh();" /><rect x="275" y="-234" width="6" height="234" style="fill:transparent;" onmouseover="sh(278,278,-240,'01.09.2019 30,82');" onmouseout="hh();" /><rect x="275" y="-75" width="6" height="75" style="fill:#0080C0;" onmouseover="sh(278,278,-240,'01.09.2019 30,82');" onmouseout="hh();" /><rect x="284" y="-234" width="6" height="234" style="fill:transparent;" onmouseover="sh(287,287,-240,'01.10.2019 31,62');" onmouseout="hh();" /><rect x="284" y="-78" width="6" height="78" style="fill:#0080C0;" onmouseover="sh(287,287,-240,'01.10.2019 31,62');" onmouseout="hh();" /><rect x="293" y="-234" width="6" height="234" style="fill:transparent;" onmouseover="sh(296,296,-240,'01.11.2019 31,76');" onmouseout="hh();" /><rect x="293" y="-78" width="6" height="78" style="fill:#0080C0;" onmouseover="sh(296,296,-240,'01.11.2019 31,76');" onmouseout="hh();" /><rect x="302" y="-234" width="6" height="234" style="fill:transparent;" onmouseover="sh(305,305,-240,'01.12.2019 32,23');" onmouseout="hh();" /><rect x="302" y="-80" width="6" height="80" style="fill:#0080C0;" onmouseover="sh(305,305,-240,'01.12.2019 32,23');" onmouseout="hh();" /><rect x="311" y="-234" width="6" height="234" style="fill:transparent;" onmouseover="sh(314,314,-240,'01.01.2020 32,14');" onmouseout="hh();" /><rect x="311" y="-80" width="6" height="80" style="fill:#0080C0;" onmouseover="sh(314,314,-240,'01.01.2020 32,14');" onmouseout="hh();" /><rect x="320" y="-234" width="6" height="234" style="fill:transparent;" onmouseover="sh(323,323,-240,'01.02.2020 31,50');" onmouseout="hh();" /><rect x="320" y="-77" width="6" height="77" style="fill:#0080C0;" onmouseover="sh(323,323,-240,'01.02.2020 31,50');" onmouseout="hh();" /><rect x="329" y="-234" width="6" height="234" style="fill:transparent;" onmouseover="sh(332,332,-240,'01.03.2020 30,74');" onmouseout="hh();" /><rect x="329" y="-75" width="6" height="75" style="fill:#0080C0;" onmouseover="sh(332,332,-240,'01.03.2020 30,74');" onmouseout="hh();" /><rect x="338" y="-234" width="6" height="234" style="fill:transparent;" onmouseover="sh(341,341,-240,'01.04.2020 30,68');" onmouseout="hh();" /><rect x="338" y="-74" width="6" height="74" style="fill:#0080C0;" onmouseover="sh(341,341,-240,'01.04.2020 30,68');" onmouseout="hh();" /><rect x="347" y="-234" width="6" height="234" style="fill:transparent;" onmouseover="sh(350,350,-240,'01.05.2020 30,32');" onmouseout="hh();" /><rect x="347" y="-73" width="6" height="73" style="fill:#0080C0;" onmouseover="sh(350,350,-240,'01.05.2020 30,32');" onmouseout="hh();" /><rect x="356" y="-234" width="6" height="234" style="fill:transparent;" onmouseover="sh(359,359,-240,'01.06.2020 30,85');" onmouseout="hh();" /><rect x="356" y="-75" width="6" height="75" style="fill:#0080C0;" onmouseover="sh(359,359,-240,'01.06.2020 30,85');" onmouseout="hh();" /><rect x="365" y="-234" width="6" height="234" style="fill:transparent;" onmouseover="sh(368,368,-240,'01.07.2020 31,53');" onmouseout="hh();" /><rect x="365" y="-78" width="6" height="78" style="fill:#0080C0;" onmouseover="sh(368,368,-240,'01.07.2020 31,53');" onmouseout="hh();" /><rect x="374" y="-234" width="6" height="234" style="fill:transparent;" onmouseover="sh(377,377,-240,'01.08.2020 33,86');" onmouseout="hh();" /><rect x="374" y="-86" width="6" height="86" style="fill:#0080C0;" onmouseover="sh(377,377,-240,'01.08.2020 33,86');" onmouseout="hh();" /><rect x="383" y="-234" width="6" height="234" style="fill:transparent;" onmouseover="sh(386,386,-240,'01.09.2020 33,82');" onmouseout="hh();" /><rect x="383" y="-86" width="6" height="86" style="fill:#0080C0;" onmouseover="sh(386,386,-240,'01.09.2020 33,82');" onmouseout="hh();" /><rect x="392" y="-234" width="6" height="234" style="fill:transparent;" onmouseover="sh(395,395,-240,'01.10.2020 33,79');" onmouseout="hh();" /><rect x="392" y="-86" width="6" height="86" style="fill:#0080C0;" onmouseover="sh(395,395,-240,'01.10.2020 33,79');" onmouseout="hh();" /><rect x="401" y="-234" width="6" height="234" style="fill:transparent;" onmouseover="sh(404,404,-240,'01.11.2020 34,16');" onmouseout="hh();" /><rect x="401" y="-87" width="6" height="87" style="fill:#0080C0;" onmouseover="sh(404,404,-240,'01.11.2020 34,16');" onmouseout="hh();" /><rect x="410" y="-234" width="6" height="234" style="fill:transparent;" onmouseover="sh(413,413,-240,'01.12.2020 35,05');" onmouseout="hh();" /><rect x="410" y="-90" width="6" height="90" style="fill:#0080C0;" onmouseover="sh(413,413,-240,'01.12.2020 35,05');" onmouseout="hh();" /><rect x="419" y="-234" width="6" height="234" style="fill:transparent;" onmouseover="sh(422,422,-240,'01.01.2021 35,31');" onmouseout="hh();" /><rect x="419" y="-91" width="6" height="91" style="fill:#0080C0;" onmouseover="sh(422,422,-240,'01.01.2021 35,31');" onmouseout="hh();" /><rect x="428" y="-234" width="6" height="234" style="fill:transparent;" onmouseover="sh(431,431,-240,'01.02.2021 36,06');" onmouseout="hh();" /><rect x="428" y="-94" width="6" height="94" style="fill:#0080C0;" onmouseover="sh(431,431,-240,'01.02.2021 36,06');" onmouseout="hh();" /><rect x="437" y="-234" width="6" height="234" style="fill:transparent;" onmouseover="sh(440,440,-240,'01.03.2021 38,24');" onmouseout="hh();" /><rect x="437" y="-102" width="6" height="102" style="fill:#0080C0;" onmouseover="sh(440,440,-240,'01.03.2021 38,24');" onmouseout="hh();" /><rect x="446" y="-234" width="6" height="234" style="fill:transparent;" onmouseover="sh(449,449,-240,'01.04.2021 41,54');" onmouseout="hh();" /><rect x="446" y="-114" width="6" height="114" style="fill:#0080C0;" onmouseover="sh(449,449,-240,'01.04.2021 41,54');" onmouseout="hh();" /><rect x="455" y="-234" width="6" height="234" style="fill:transparent;" onmouseover="sh(458,458,-240,'01.05.2021 38,99');" onmouseout="hh();" /><rect x="455" y="-104" width="6" height="104" style="fill:#0080C0;" onmouseover="sh(458,458,-240,'01.05.2021 38,99');" onmouseout="hh();" /><rect x="464" y="-234" width="6" height="234" style="fill:transparent;" onmouseover="sh(467,467,-240,'01.06.2021 39,41');" onmouseout="hh();" /><rect x="464" y="-106" width="6" height="106" style="fill:#0080C0;" onmouseover="sh(467,467,-240,'01.06.2021 39,41');" onmouseout="hh();" /><rect x="473" y="-234" width="6" height="234" style="fill:transparent;" onmouseover="sh(476,476,-240,'01.07.2021 38,99');" onmouseout="hh();" /><rect x="473" y="-104" width="6" height="104" style="fill:#0080C0;" onmouseover="sh(476,476,-240,'01.07.2021 38,99');" onmouseout="hh();" /><rect x="482" y="-234" width="6" height="234" style="fill:transparent;" onmouseover="sh(485,485,-240,'01.08.2021 38,99');" onmouseout="hh();" /><rect x="482" y="-104" width="6" height="104" style="fill:#0080C0;" onmouseover="sh(485,485,-240,'01.08.2021 38,99');" onmouseout="hh();" /><rect x="491" y="-234" width="6" height="234" style="fill:transparent;" onmouseover="sh(494,494,-240,'01.09.2021 40,40');" onmouseout="hh();" /><rect x="491" y="-109" width="6" height="109" style="fill:#0080C0;" onmouseover="sh(494,494,-240,'01.09.2021 40,40');" onmouseout="hh();" /><rect x="500" y="-234" width="6" height="234" style="fill:transparent;" onmouseover="sh(503,503,-240,'01.10.2021 39,75');" onmouseout="hh();" /><rect x="500" y="-107" width="6" height="107" style="fill:#0080C0;" onmouseover="sh(503,503,-240,'01.10.2021 39,75');" onmouseout="hh();" /><rect x="509" y="-234" width="6" height="234" style="fill:transparent;" onmouseover="sh(512,512,-240,'01.11.2021 40,58');" onmouseout="hh();" /><rect x="509" y="-110" width="6" height="110" style="fill:#0080C0;" onmouseover="sh(512,512,-240,'01.11.2021 40,58');" onmouseout="hh();" /><rect x="518" y="-234" width="6" height="234" style="fill:transparent;" onmouseover="sh(521,521,-240,'01.12.2021 42,61');" onmouseout="hh();" /><rect x="518" y="-117" width="6" height="117" style="fill:#0080C0;" onmouseover="sh(521,521,-240,'01.12.2021 42,61');" onmouseout="hh();" /><rect x="527" y="-234" width="6" height="234" style="fill:transparent;" onmouseover="sh(530,530,-240,'01.01.2022 43,97');" onmouseout="hh();" /><rect x="527" y="-122" width="6" height="122" style="fill:#0080C0;" onmouseover="sh(530,530,-240,'01.01.2022 43,97');" onmouseout="hh();" /><rect x="536" y="-234" width="6" height="234" style="fill:transparent;" onmouseover="sh(539,539,-240,'01.02.2022 44,32');" onmouseout="hh();" /><rect x="536" y="-124" width="6" height="124" style="fill:#0080C0;" onmouseover="sh(539,539,-240,'01.02.2022 44,32');" onmouseout="hh();" /><rect x="545" y="-234" width="6" height="234" style="fill:transparent;" onmouseover="sh(548,548,-240,'01.03.2022 45,01');" onmouseout="hh();" /><rect x="545" y="-126" width="6" height="126" style="fill:#0080C0;" onmouseover="sh(548,548,-240,'01.03.2022 45,01');" onmouseout="hh();" /><rect x="554" y="-234" width="6" height="234" style="fill:transparent;" onmouseover="sh(557,557,-240,'01.04.2022 44,08');" onmouseout="hh();" /><rect x="554" y="-123" width="6" height="123" style="fill:#0080C0;" onmouseover="sh(557,557,-240,'01.04.2022 44,08');" onmouseout="hh();" /><rect x="563" y="-234" width="6" height="234" style="fill:transparent;" onmouseover="sh(566,566,-240,'01.05.2022 41,83');" onmouseout="hh();" /><rect x="563" y="-115" width="6" height="115" style="fill:#0080C0;" onmouseover="sh(566,566,-240,'01.05.2022 41,83');" onmouseout="hh();" /><rect x="572" y="-234" width="6" height="234" style="fill:transparent;" onmouseover="sh(575,575,-240,'01.06.2022 43,06');" onmouseout="hh();" /><rect x="572" y="-119" width="6" height="119" style="fill:#0080C0;" onmouseover="sh(575,575,-240,'01.06.2022 43,06');" onmouseout="hh();" /><rect x="581" y="-234" width="6" height="234" style="fill:transparent;" onmouseover="sh(584,584,-240,'01.07.2022 43,89');" onmouseout="hh();" /><rect x="581" y="-122" width="6" height="122" style="fill:#0080C0;" onmouseover="sh(584,584,-240,'01.07.2022 43,89');" onmouseout="hh();" /><rect x="590" y="-234" width="6" height="234" style="fill:transparent;" onmouseover="sh(593,593,-240,'01.08.2022 45,85');" onmouseout="hh();" /><rect x="590" y="-129" width="6" height="129" style="fill:#0080C0;" onmouseover="sh(593,593,-240,'01.08.2022 45,85');" onmouseout="hh();" /><rect x="599" y="-234" width="6" height="234" style="fill:transparent;" onmouseover="sh(602,602,-240,'01.09.2022 47,86');" onmouseout="hh();" /><rect x="599" y="-136" width="6" height="136" style="fill:#0080C0;" onmouseover="sh(602,602,-240,'01.09.2022 47,86');" onmouseout="hh();" /><rect x="608" y="-234" width="6" height="234" style="fill:transparent;" onmouseover="sh(611,611,-240,'01.10.2022 50,24');" onmouseout="hh();" /><rect x="608" y="-145" width="6" height="145" style="fill:#0080C0;" onmouseover="sh(611,611,-240,'01.10.2022 50,24');" onmouseout="hh();" /><rect x="617" y="-234" width="6" height="234" style="fill:transparent;" onmouseover="sh(620,620,-240,'01.11.2022 52,98');" onmouseout="hh();" /><rect x="617" y="-155" width="6" height="155" style="fill:#0080C0;" onmouseover="sh(620,620,-240,'01.11.2022 52,98');" onmouseout="hh();" /><rect x="626" y="-234" width="6" height="234" style="fill:transparent;" onmouseover="sh(629,623,-240,'01.12.2022 55,15');" onmouseout="hh();" /><rect x="626" y="-163" width="6" height="163" style="fill:#0080C0;" onmouseover="sh(629,623,-240,'01.12.2022 55,15');" onmouseout="hh();" /><rect x="635" y="-234" width="6" height="234" style="fill:transparent;" onmouseover="sh(638,623,-240,'01.01.2023 57,61');" onmouseout="hh();" /><rect x="635" y="-171" width="6" height="171" style="fill:#0080C0;" onmouseover="sh(638,623,-240,'01.01.2023 57,61');" onmouseout="hh();" /><rect x="644" y="-234" width="6" height="234" style="fill:transparent;" onmouseover="sh(647,623,-240,'01.02.2023 62,34');" onmouseout="hh();" /><rect x="644" y="-188" width="6" height="188" style="fill:#0080C0;" onmouseover="sh(647,623,-240,'01.02.2023 62,34');" onmouseout="hh();" /><rect x="653" y="-234" width="6" height="234" style="fill:transparent;" onmouseover="sh(656,623,-240,'01.03.2023 63,95');" onmouseout="hh();" /><rect x="653" y="-194" width="6" height="194" style="fill:#0080C0;" onmouseover="sh(656,623,-240,'01.03.2023 63,95');" onmouseout="hh();" /><rect x="662" y="-234" width="6" height="234" style="fill:transparent;" onmouseover="sh(665,623,-240,'01.04.2023 63,32');" onmouseout="hh();" /><rect x="662" y="-192" width="6" height="192" style="fill:#0080C0;" onmouseover="sh(665,623,-240,'01.04.2023 63,32');" onmouseout="hh();" /><rect x="671" y="-234" width="6" height="234" style="fill:transparent;" onmouseover="sh(674,623,-240,'01.05.2023 66,82');" onmouseout="hh();" /><rect x="671" y="-205" width="6" height="205" style="fill:#0080C0;" onmouseover="sh(674,623,-240,'01.05.2023 66,82');" onmouseout="hh();" /><rect x="680" y="-234" width="6" height="234" style="fill:transparent;" onmouseover="sh(683,623,-240,'01.06.2023 67,09');" onmouseout="hh();" /><rect x="680" y="-206" width="6" height="206" style="fill:#0080C0;" onmouseover="sh(683,623,-240,'01.06.2023 67,09');" onmouseout="hh();" />
<line x1="-6" y1="0" x2="693" y2="0" class="axes" /><line x1="0" y1="-250" x2="0" y2="0" class="axes" /><text x="-2" y="-254" style="text-anchor:end;">грн.</text>
<use xlink:href="#hintbox" id="usebox" x="0" y="0" style="visibility:hidden;" />
</svg>
